<?xml version="1.0" encoding="utf-8"?>
<!-- Generator: Adobe Illustrator 16.0.0, SVG Export Plug-In . SVG Version: 6.00 Build 0)  -->
<!DOCTYPE svg PUBLIC "-//W3C//DTD SVG 1.1//EN" "http://www.w3.org/Graphics/SVG/1.1/DTD/svg11.dtd">
<svg version="1.1" id="Layer_1" xmlns="http://www.w3.org/2000/svg" xmlns:xlink="http://www.w3.org/1999/xlink" x="0px" y="0px"
	 width="585.554px" height="585.559px" viewBox="13.873 103.125 585.554 585.559"
	 enable-background="new 13.873 103.125 585.554 585.559" xml:space="preserve">
<g id="Background">
</g>
<g id="Image_Layer">
</g>
<g id="Draw_Layer">
</g>
<g id="Draw_Layer_1_">
	<g>
		<path fill="#232323" d="M323.748,287.064c-6.12,0.612-11.016,4.284-15.912,7.344c-2.448,1.836-4.896,3.06-7.344,4.284
			c-1.224,0.612-4.284,1.224-5.508,1.836c-3.672,3.06,0.612,6.12,3.672,5.508c5.508-0.612,11.628-6.12,15.913-8.568
			c4.283-2.448,8.567-4.284,13.464-4.284c1.836,0,3.672,0,5.508,0.612c2.448,0.612,6.12,2.448,8.568,2.448
			c7.344-1.836-1.225-6.732-4.284-7.344C332.928,287.676,328.032,286.452,323.748,287.064L323.748,287.064z M324.972,293.796
			C324.36,293.796,324.36,293.796,324.972,293.796L324.972,293.796z"/>
		<path fill="#232323" d="M321.912,305.424c-10.404,0.612-17.748,7.344-21.42,16.524c-1.224,1.836-2.448,7.956,2.448,6.12
			c2.448-1.224,3.672-7.344,5.508-9.18c5.508-6.12,15.912-8.568,23.868-7.956c3.06,0,7.956,0.612,3.06-2.448
			C331.704,306.036,325.584,305.424,321.912,305.424L321.912,305.424z M304.164,326.232
			C303.552,326.844,303.552,326.844,304.164,326.232L304.164,326.232z"/>
		<path fill="#232323" d="M315.792,306.036c-9.792,3.672-9.18,21.42,2.448,19.584C330.48,323.784,326.808,302.364,315.792,306.036
			L315.792,306.036z"/>
		<path fill="#232323" d="M234.396,323.784c-1.836,0.612-8.568,3.672-8.568,5.508c-0.612,3.672,5.508,1.224,6.732,0.612
			c8.568-3.06,15.3-1.836,23.868,1.224c8.568,3.06,6.732-4.284,0.612-6.732C249.696,320.724,241.74,320.724,234.396,323.784
			L234.396,323.784z"/>
		<path fill="#232323" d="M247.248,323.172c-3.672,0.612-6.12,1.224-6.732,4.896c-1.224,4.284,0.612,9.792,6.12,9.792
			C256.428,337.86,257.04,322.56,247.248,323.172L247.248,323.172z"/>
		<path fill="#232323" d="M273.564,336.636c0,3.672,0,8.568-0.612,11.628c0,0,0,0,0,0.612c-0.612,4.896-2.448,9.792-3.06,14.076
			c-0.612,1.836-1.224,6.12,2.448,4.284c1.224-0.612,1.224-4.284,1.224-3.672c0.612-5.508,1.224-11.016,1.836-16.524
			c0-3.06,1.224-6.732,0.612-9.18C275.4,337.248,273.564,333.576,273.564,336.636L273.564,336.636z M272.952,348.264
			L272.952,348.264L272.952,348.264z"/>
		<path fill="#232323" d="M304.164,370.908c-8.568,1.224-16.524,2.448-25.092,3.672c-2.448,0.612-8.568,0-8.568,4.284
			c0,4.284,4.896,3.06,7.344,3.06c7.956-1.224,15.912-1.836,23.868-4.284c1.836-0.612,7.344-1.836,8.568-4.284
			C311.508,369.072,306,370.296,304.164,370.908L304.164,370.908z M288.864,373.356h-0.612H288.864L288.864,373.356z"/>
		<path fill="#232323" d="M326.196,391.104c-3.672,4.284-11.017,5.508-15.912,6.732c-3.061,0.612-6.732,2.448-10.404,2.448
			c-3.672-0.612-5.508-1.836-9.18-1.225c-6.12,1.225-11.016,3.061-17.136,0.612c-1.836-0.612-4.896-3.672-7.344-2.448
			c-3.06,1.836,0,4.284,1.836,5.509c4.896,3.06,11.628,4.896,17.748,3.672c3.06-0.612,6.12-2.448,9.18-3.061
			c1.836,0,4.284,0.612,6.732,0.612c6.12,0,14.688-2.448,20.809-4.896c1.836-0.611,7.956-3.06,8.567-5.508
			C331.092,390.492,328.032,390.492,326.196,391.104L326.196,391.104z"/>
		<path fill="#19468F" d="M282.744,512.28c-3.06,3.06-11.016,1.836-15.3,1.836c-1.224,0-2.448-0.612-3.672-0.612
			c-3.672,0-0.612-1.224-3.672,0c-4.284,2.448-8.568,7.956-12.24,11.017c-5.508,4.896-11.016,11.016-14.076,17.747
			c-2.448,4.896,0.612,11.017,1.836,16.524c2.448,13.464,4.896,26.928,9.18,39.78c3.06,9.792,6.732,22.031,5.508,32.436
			c2.448-4.896,3.06-9.792,5.508-14.076c1.224-1.836,3.06-3.06,3.672-4.283c1.836-2.448,2.448-6.12,3.672-8.568
			c3.06-7.956,7.344-15.3,12.24-22.032c6.732-9.18,12.24-17.136,14.076-28.764v0.612
			C291.312,539.208,287.028,525.744,282.744,512.28L282.744,512.28z"/>
		<path fill="#19468F" d="M288.252,468.216c-4.284,0.612-6.12,1.225-9.18,4.284c-4.284,4.284-5.508,5.508-7.344,11.016
			c-1.836,8.568-5.508,16.524-7.956,25.093c3.672,0,7.956,0,11.628,0.611c0.612,0,3.06,0.612,4.284,0.612
			c1.224-0.612,1.836-1.224,2.448-2.448c1.836-2.448,3.06-4.896,4.896-7.344c2.448-2.448,4.284-4.896,7.956-6.732
			c2.448-1.224,2.448-0.611,3.06-3.06c1.224-4.896-0.612-12.852-1.224-17.748C296.208,468.216,293.148,467.604,288.252,468.216
			L288.252,468.216z"/>
		<path fill="#232323" d="M272.952,331.128c-1.836,5.508-0.612,11.628-1.224,17.136c0,3.672-0.612,7.344-1.224,11.016
			c-0.612,1.836-2.448,9.792,2.448,6.732c1.836-1.224,1.836-7.956,2.448-10.404c0.612-3.672,1.224-6.732,1.836-10.404
			c0.612-3.672,1.224-7.344,0.612-10.404C277.236,332.964,274.788,326.232,272.952,331.128L272.952,331.128z"/>
		<path fill="#232323" d="M274.176,331.74c-1.224,6.732-2.448,12.852-4.284,19.584c-1.224,7.344-1.836,14.076-3.672,21.42
			c-1.224,5.508-1.224,9.18,5.508,8.568c5.508,0,4.896-4.284-0.612-4.284c0-3.06,1.224-6.12,1.224-9.18c0-3.672-0.612-5.508,0-9.18
			c0.612-3.672,1.224-11.628,1.836-17.136c0-1.836,2.448-7.344,1.836-9.18C276.624,331.74,274.788,329.292,274.176,331.74
			L274.176,331.74z"/>
		<path fill="#232323" d="M312.732,405.792c-6.732,3.06-14.077,5.508-21.42,4.896c-2.448,0-7.344-2.447-9.18-0.611
			c-2.448,3.06,1.224,4.896,3.06,5.508c6.12,1.836,13.464,0.612,19.584-1.836c3.06-1.224,6.732-2.448,9.18-4.284
			C315.18,408.24,315.792,403.956,312.732,405.792L312.732,405.792z M297.432,410.076L297.432,410.076L297.432,410.076z"/>
		<path fill="#232323" d="M220.32,116.316C143.208,140.184,77.112,197.1,42.228,269.928C6.12,345.816,4.284,435.78,37.944,512.892
			c4.896,10.404,9.792,20.809,15.912,31.212c3.06,4.896,5.508,10.404,9.18,14.688c3.06,3.06,5.508,4.896,7.956,9.18
			c12.24,17.748,25.092,33.66,42.228,48.349c-3.06-2.448,2.448,3.672,2.448,1.836c0,0.611,0,0-1.224-1.225
			c47.736,41.004,107.712,66.708,170.748,70.992c65.484,4.896,133.417-14.076,187.272-50.796
			c14.076-9.792,27.54-20.808,40.392-33.048c6.732-6.12,12.853-12.853,18.36-20.196c4.284-5.508,8.568-10.403,11.017-14.076
			c13.464-19.584,25.703-39.168,34.884-61.199c9.18-22.032,15.912-45.288,18.972-68.544c7.344-47.736,2.448-96.696-13.464-141.984
			c-31.824-89.964-107.1-159.12-198.288-184.212C331.092,98.568,273.564,99.792,220.32,116.316L220.32,116.316z M50.796,503.712
			c-22.644-53.855-28.152-114.444-14.688-171.36C48.96,277.884,77.724,227.7,119.34,189.756
			c85.68-78.948,217.26-95.472,319.464-39.168c54.468,29.988,97.92,77.724,123.013,135.252c0,0,0,0,0-0.612c0,0.612,0,0.612,0,0
			c36.72,86.904,27.539,187.884-25.093,266.22l0,0c-2.447-4.284-4.283-9.181-6.731-13.464c-1.225-3.061-2.448-5.509-3.061-8.568
			c-0.611-2.448-0.611-4.896-1.836-7.344c-3.06-10.404-9.792-18.973-17.136-27.54c-6.12-7.344-12.852-14.076-17.748-22.645
			c-7.344-11.016-12.852-23.868-18.972-35.496c-12.853-25.703-28.152-50.184-36.721-77.724c-6.731-21.42-9.792-45.288-14.075-66.708
			c-1.837-9.18-4.284-17.748-5.509-26.316c-1.836-13.464-3.672-26.316-7.344-39.78c-6.731-24.48-16.523-47.736-38.556-62.424
			c-20.196-13.464-42.229-16.524-65.484-11.016c-5.508,1.224-10.404,4.284-15.912,5.508c-6.12,1.224-11.628,1.836-17.748,3.672
			c-14.076,4.284-23.868,11.016-34.272,20.196c-23.256,20.196-37.944,45.9-45.9,75.888c-4.896,17.748-4.284,34.272,1.224,51.408
			c2.448,7.344,5.508,14.076,12.24,18.36c1.836,1.224,3.672,2.448,5.508,3.06s7.344,1.224,7.956,3.06
			c0,2.448,1.224,5.508,0.612,7.956c-0.612,1.836-1.836,4.284-2.448,6.732c-2.448,6.12-4.284,12.852-6.12,19.584
			c-3.06,13.464-6.12,26.928-8.568,40.392c-2.448,12.852-4.896,25.092-9.18,37.332c-1.836,6.12-4.284,12.24-6.12,17.748
			c-1.224,3.06-2.448,6.12-3.672,9.18c-1.224,3.672-2.448,3.672-6.12,4.896c-11.628,4.283-22.644,7.955-32.436,15.911
			c-6.732,5.509-12.24,12.853-17.748,19.584c-12.24,14.688-22.644,29.988-33.048,45.9c-3.06,4.284-4.896,7.956-8.568,3.06
			c-4.284-5.508-8.568-11.628-12.24-17.747C63.648,531.252,56.916,517.788,50.796,503.712L50.796,503.712z M299.88,162.828
			c1.836,0,3.06-2.448,1.836-3.672c18.36-4.284,36.72-4.284,53.856,4.896c12.852,7.344,23.256,22.032,31.212,34.884
			c8.567,14.076,14.076,28.764,17.136,44.676c1.836,10.404,2.448,20.808,3.672,31.212c0.612,2.448,1.836,9.792,0,11.628
			s-8.567,1.224-11.016,1.224c-3.672,0-5.508-0.612-8.568-2.448c-7.956-3.672-12.852-7.956-17.748-15.3
			c-5.508-7.344-11.628-14.076-17.748-20.808c-7.344-7.344-14.688-12.24-23.256-18.36c-6.12-4.284-11.628-10.404-12.24-18.36
			c0-2.448,1.225-17.748-4.896-10.404c-2.448,2.448-1.836,7.344-3.672,9.792c-1.836,3.06-6.732,6.732-9.18,9.792
			c-6.732,6.732-18.36,10.404-26.928,14.076c-22.644,10.404-43.452,22.032-56.916,43.452c-3.06,4.896-6.12,10.404-7.956,15.912
			c-1.224,3.672-3.672,9.792-2.448,14.076c2.448,7.956,6.732-3.06,7.956-5.508c0.612-1.224,1.224-3.06,1.224-4.284l0,0
			c1.836,8.568,1.836,17.136,3.06,25.092l0,0c-13.464-9.18-20.196-20.196-21.42-36.72c-1.836-19.584,4.896-42.84,14.076-60.588
			c4.896-9.18,10.404-18.972,17.748-26.316c6.732-7.344,14.076-13.464,22.032-20.196c6.732-6.12,14.688-10.404,23.256-14.076
			C280.296,163.44,289.476,162.828,299.88,162.828L299.88,162.828z M85.068,220.968C84.456,220.968,84.456,220.968,85.068,220.968
			L85.068,220.968z M217.872,309.096c-0.612-4.896-3.672-11.628-3.06-15.912c1.224-4.896,6.732-9.792,9.792-13.464
			c3.672-4.284,7.344-9.18,11.628-12.852c5.508-4.284,11.628-7.344,17.136-11.016c10.404-6.12,20.808-12.852,32.436-18.36
			c4.284-1.836,9.792-2.448,14.076-4.896c4.896-2.448,7.956-7.956,11.016-11.628c2.448,12.24,14.688,17.748,24.48,24.48
			c13.464,7.956,21.42,25.704,32.436,37.944c10.404,11.628,28.765,17.748,43.452,9.792c4.284,7.956,3.672,22.032,0.612,29.376
			c-4.284,9.18-6.12,17.748-15.912,22.644c0-3.06,0.612-9.18-1.224-11.016c-2.448-1.836-4.896,0-5.508,2.448
			c-1.225,3.672,0,9.18,0,13.464c-0.612,4.284-1.225,8.568-1.836,12.852c-3.061,16.524-10.404,30.6-20.809,44.063
			c1.224-1.836,0,0-0.612,0.612c-1.224,1.224-2.447,2.448-3.672,3.672c-1.836,2.448-4.284,4.284-6.12,6.732
			c-1.836,1.836-3.672,4.284-6.119,6.12c-1.225,1.224-2.448,2.447-4.284,3.672c-0.612,0.611-3.672,3.06-1.836,1.224
			c-8.568,7.956-19.584,14.076-31.824,15.912c-11.628,1.836-23.256-2.448-33.048-8.568c-9.792-6.12-18.36-14.688-26.316-22.644
			c-4.284-4.284-7.344-9.18-10.404-14.688c-1.224-2.447-2.448-4.896-4.284-7.956c-0.612-1.224-1.224-2.448-1.836-4.284
			c0-0.612-1.836-4.284-1.224-1.836c-4.896-12.24-10.404-24.48-12.24-37.332c-1.836-11.016-3.06-21.42-4.284-32.436
			c1.224,0.612,3.06-1.224,3.672-1.224c1.836-0.612,4.896-1.224,7.344-1.224c5.508,0,11.628,2.448,16.524,4.284
			c3.672,1.224,10.404,4.284,14.076,1.224c7.344-6.732-16.524-9.18-18.972-9.18c-4.896-0.612-10.404-1.224-15.3-1.224
			C225.216,307.26,218.484,309.708,217.872,309.096L217.872,309.096z M194.616,274.824L194.616,274.824L194.616,274.824z
			 M194.616,290.124C194.616,290.736,194.616,290.736,194.616,290.124L194.616,290.124z M225.216,312.768L225.216,312.768
			L225.216,312.768z M413.712,317.664C413.712,318.276,413.712,318.276,413.712,317.664L413.712,317.664z M419.832,320.112
			c2.448,15.912,4.284,32.436,9.18,48.348c5.508,18.36,15.3,35.496,23.868,52.632s16.524,34.272,26.316,50.796
			c4.284,7.956,10.403,14.688,15.912,20.809c3.06,3.06,6.119,6.12,9.18,9.18c3.672,3.672,8.568,7.344,11.016,12.24
			c-7.344-8.568-18.359-14.076-28.151-19.584c-11.017-6.12-23.256-12.24-33.66-20.196c-4.284-3.06-7.956-6.732-10.404-11.016
			c-1.224-2.448-3.672-15.301-7.344-14.076c-4.284,1.224,2.448,12.852,1.836,14.688s-3.672,4.896-4.284,6.12
			c-2.448,3.672-4.284,6.732-6.731,10.404c-14.688,22.032-36.108,37.332-55.692,54.468c-20.196,18.36-29.988,41.004-40.392,65.484
			c-7.956,18.972-11.628,36.72-11.628,56.916c-4.896-6.732-10.404-11.017-17.749-15.3c-6.732-3.673-11.628-3.673-16.524,1.836
			c0-5.509,0.612-16.524-3.672-20.809c-5.508-5.508-15.912,3.061-20.808,5.509c8.568-22.645,16.524-45.288,35.496-61.812
			c20.196-17.136,37.944-36.108,52.02-58.752c27.54-43.452,37.332-93.636,46.512-143.208c0.612-3.672,1.225-7.344,1.836-11.016
			c0.612-3.672-0.611-3.06,2.448-4.896c5.508-3.672,10.404-5.508,14.688-11.016c3.06-4.284,5.508-9.18,6.119-14.688
			C419.832,323.172,419.22,320.724,419.832,320.112L419.832,320.112z M419.832,320.724L419.832,320.724L419.832,320.724z
			 M217.26,332.964L217.26,332.964L217.26,332.964z M186.048,470.664c3.06-8.568,6.732-15.912,9.792-24.48
			c3.672-9.792,6.12-20.195,8.568-30.6c4.896-21.42,7.956-42.84,14.688-63.648c1.836,16.524,7.956,33.048,14.688,47.736
			c7.344,16.524,21.42,29.376,35.496,40.393c-3.06,1.836-3.06,8.567-3.672,11.628c-0.612,3.672-1.836,7.956-3.672,11.628
			c-3.06,8.567-8.568,15.3-14.076,22.031c-12.852,15.301-25.704,29.988-35.496,47.736c-18.972,34.272-29.988,75.889-21.42,115.057
			c-9.792-4.896-19.584-9.793-29.376-15.301c-4.284-3.06-9.18-5.508-13.464-8.567c-2.448-1.225-4.284-3.061-6.732-4.896
			c-0.612-0.612-6.732-4.896-4.896-3.672c-4.284-3.06-9.18-7.344-14.076-11.628c-1.836-1.224-3.672-3.06-4.284-4.896
			c0-1.224,1.224-4.283,1.836-5.508c1.224-3.672,3.06-7.956,4.284-11.628c3.672-8.567,7.956-16.523,12.852-24.479
			c9.18-15.301,19.584-29.988,28.764-45.9C175.032,498.816,180.54,485.352,186.048,470.664L186.048,470.664z M307.836,452.916
			c31.824-2.448,58.14-28.764,74.052-54.468c-1.836,6.12-3.06,12.852-4.896,18.972c-0.612,2.448-0.612,5.508-1.836,7.344
			c-1.225,2.448-3.672,3.672-6.12,4.896c-7.956,5.508-15.912,9.792-24.48,13.464c-9.18,4.284-18.972,7.344-28.764,9.792
			c-3.672,0.612-20.808,1.224-20.196,7.344c-1.836-0.611-3.672-0.611-5.508,0c2.448-4.284-1.836-9.18-4.896-11.628
			C291.924,451.692,300.492,453.528,307.836,452.916L307.836,452.916z M315.18,459.036c10.404-2.448,21.42-4.896,31.212-9.792
			c9.792-4.284,18.36-10.404,26.929-16.524c-6.12,20.809-12.853,41.004-23.256,60.588c-2.448,4.896-3.673,7.345-8.568,10.404
			c-3.672,2.448-7.956,4.896-11.628,7.344c-6.732,4.284-14.688,9.181-20.196,15.912c-1.836-14.688-2.448-29.988-5.508-44.063
			c-0.612-3.061-1.224-6.12-1.836-9.181c-0.612-3.06-1.836-6.731-1.836-9.18c0-3.06-1.224-1.836,1.836-3.06
			c1.836-0.612,3.672-0.612,5.508-0.612C310.896,459.648,312.732,459.648,315.18,459.036L315.18,459.036z M341.496,445.572
			L341.496,445.572L341.496,445.572z M269.892,468.216c2.448-5.508,3.672-11.628,4.896-17.748c1.836,1.836,7.344,5.508,7.956,7.956
			c0.612,1.836-1.836,3.061-3.672,4.896c-4.896,4.283-9.18,8.567-13.464,14.075C266.832,474.336,268.668,471.276,269.892,468.216
			L269.892,468.216z M264.996,506.16c1.224-3.672,2.448-7.344,3.672-11.628c1.836-4.896,2.448-11.628,4.284-16.524
			c3.06-6.12,14.076-14.688,21.42-9.792c3.06,1.836,2.448,5.508,3.06,8.568c0.612,3.672,2.448,12.24,0,15.3
			c-1.224,1.836-4.896,2.448-6.732,4.284c-2.448,2.448-4.284,4.896-6.12,7.956c-1.224,1.836-3.06,4.284-4.284,4.896
			c-2.448,1.225-6.12-0.611-8.568-0.611c-2.448,0-4.896-0.612-7.344-0.612C264.384,507.996,264.384,507.384,264.996,506.16
			L264.996,506.16z M264.384,487.8c-1.836,4.896-3.06,9.792-4.284,15.3c-0.612,2.448-0.612,3.061-1.836,4.896
			c-1.836,2.448-4.896,4.284-7.344,6.12c-9.18,6.12-16.524,12.852-21.42,22.644c-0.612-1.836-2.448-4.896-2.448-6.12
			c0-2.447,6.12-9.18,7.344-11.016c4.284-7.344,9.18-13.464,14.076-19.584C251.532,506.771,263.16,489.024,264.384,487.8
			L264.384,487.8z M298.044,492.084C298.044,492.696,298.044,492.696,298.044,492.084L298.044,492.084z M294.984,551.448
			c0-11.628,3.06-22.032-1.224-33.66c-0.612-1.836-1.836-3.672-3.06-6.12c-0.612-0.612-3.06-6.732-3.06-6.732
			c0.612-4.896,9.792-6.731,12.852-8.567c0.612,6.731,1.836,13.464,3.06,20.196c0.612,3.06,0.612,13.464,3.672,15.911
			c3.061,2.448,9.181-4.896,11.628-6.731c6.12-3.672,12.24-6.732,18.36-11.017c-6.12,9.181-12.852,17.748-20.196,25.704
			c-3.672,4.284-7.344,7.956-11.627,11.628c-3.672,3.061-7.956,7.956-11.628,10.404C294.372,558.792,294.984,555.12,294.984,551.448
			L294.984,551.448z M295.596,498.816L295.596,498.816L295.596,498.816z M255.204,510.444L255.204,510.444L255.204,510.444z
			 M273.564,514.116c3.06,0,6.732,0.611,9.18-1.836c3.672,11.628,7.344,22.644,6.732,35.496c0,4.283-0.612,8.567-1.836,12.852
			s-4.284,7.344-6.12,11.016c-2.448,6.732-8.568,12.24-12.24,18.973c-2.448,4.284-4.284,8.567-6.732,13.464
			c-1.224,2.448-1.836,6.12-3.672,8.568c-0.612,1.224-2.448,1.836-3.672,3.06c-1.224,1.836-2.448,3.672-3.06,6.12
			c-1.224,3.06-1.836,6.12-3.06,9.18l0,0c1.224-12.24-3.672-25.092-7.344-37.332c-3.672-11.628-5.508-23.868-7.956-35.496
			c-0.612-3.672-3.672-9.792-2.448-13.464c1.224-4.896,6.732-10.403,10.404-14.076c2.448-2.447,4.896-5.508,7.344-7.956
			c2.448-2.447,6.12-6.731,9.792-8.567c2.448-1.225,1.224-0.612,3.672,0c0.612,0,1.836,0,2.448,0.611
			C268.056,514.116,271.116,514.116,273.564,514.116L273.564,514.116z M520.2,532.476c0.611,0,0.611,0.612,0.611,0.612
			S520.812,533.088,520.2,532.476L520.2,532.476z M116.892,537.372L116.892,537.372L116.892,537.372z M536.112,550.836
			c-0.612,1.224-1.836,2.448-2.448,3.672C534.888,553.284,535.5,552.06,536.112,550.836L536.112,550.836z M533.664,554.508
			C533.664,555.12,533.664,555.12,533.664,554.508L533.664,554.508z M359.856,555.732c0.611-0.612-2.448,3.06-2.448,3.06
			C358.02,557.568,358.632,556.344,359.856,555.732L359.856,555.732z M533.052,555.732L533.052,555.732L533.052,555.732z
			 M531.828,556.956C531.828,556.956,532.44,556.956,531.828,556.956L531.828,556.956z M526.932,564.3
			C526.32,564.3,526.32,564.3,526.932,564.3L526.932,564.3z M526.932,564.3C526.932,564.3,525.708,565.524,526.932,564.3
			L526.932,564.3z M91.188,570.42c0.612,0,0.612,0.612,1.224,1.224C91.8,571.032,91.188,571.032,91.188,570.42L91.188,570.42z
			 M541.62,571.032c-0.612,1.224-1.224,1.836-2.448,3.06C540.396,573.48,541.008,572.256,541.62,571.032L541.62,571.032z
			 M116.28,596.736C116.28,597.348,116.28,597.348,116.28,596.736L116.28,596.736z M276.012,627.948
			C276.624,627.948,276.624,627.948,276.012,627.948L276.012,627.948z M251.532,637.74
			C251.532,637.74,250.92,638.352,251.532,637.74L251.532,637.74z M293.76,645.696L293.76,645.696L293.76,645.696z M293.76,646.308
			C293.76,646.308,293.148,646.308,293.76,646.308L293.76,646.308z M293.148,646.308c0.612,0,0,0-0.612,0.612
			C293.148,646.308,293.148,646.308,293.148,646.308L293.148,646.308z M200.124,651.816c3.672,1.224,7.344,3.06,11.016,4.283
			C207.468,654.876,203.796,653.04,200.124,651.816L200.124,651.816z M241.74,658.548
			C242.352,658.548,242.352,659.16,241.74,658.548L241.74,658.548z M348.228,670.788
			C347.616,670.788,347.616,670.788,348.228,670.788L348.228,670.788z M326.196,672.624c1.224,0,2.447,0,3.672,0H326.196
			L326.196,672.624z M320.688,672.624C321.3,673.236,320.688,672.624,320.688,672.624L320.688,672.624z"/>
		<path fill="#232323" d="M303.552,156.708c-17.136,0.612-36.108,3.672-51.408,12.24c-11.628,6.732-22.644,17.748-29.988,28.764
			c-9.792,14.688-17.748,30.6-23.256,47.124c-3.06,9.18-7.344,22.644-7.344,31.824c-1.224,10.404-1.224,20.808,1.224,31.212
			c1.224,4.896,3.06,9.18,6.732,12.852c3.06,3.06,6.732,2.448,3.672-2.448c-9.18-14.688-6.732-33.66-3.672-50.184
			c4.284-19.584,12.852-38.556,23.868-55.692c9.18-14.076,22.032-29.988,37.944-36.108c9.792-3.672,20.196-7.344,30.6-8.568
			c4.284-0.612,11.628,0.612,14.688-2.448C310.284,162.216,308.448,156.708,303.552,156.708L303.552,156.708z M192.168,275.436
			L192.168,275.436L192.168,275.436z M203.796,317.664C203.796,318.276,203.796,318.276,203.796,317.664L203.796,317.664z
			 M203.796,318.276L203.796,318.276L203.796,318.276z"/>
		<path fill="#232323" d="M217.26,327.456c-3.06,17.748-9.792,34.884-13.464,52.632c-4.284,17.748-8.568,35.496-12.852,53.244
			c-4.284,16.524-10.404,32.436-16.524,48.348c-7.956,20.196-18.36,38.557-28.152,57.528c-5.508,10.404-11.016,20.808-16.524,31.212
			c-4.896,9.18-11.628,22.645-10.404,31.824c0,0.611,0,7.344,3.672,7.344c3.672,0,3.672-9.792,3.672-12.852
			c0.612-5.509,3.06-14.076,6.12-20.196c5.508-11.017,12.24-20.808,17.748-31.212c4.896-8.568,11.016-15.912,15.912-24.48
			c11.016-20.195,19.584-40.392,25.704-62.424c6.732-22.644,13.464-45.288,17.136-68.544c1.836-11.628,4.284-23.256,6.732-34.884
			c1.224-5.508,1.836-11.016,2.448-17.136c0-1.836,1.836-8.568,1.224-9.792C219.708,326.844,217.872,325.008,217.26,327.456
			L217.26,327.456z M168.3,496.368L168.3,496.368L168.3,496.368z"/>
		<path fill="#232323" d="M428.4,430.271c-4.896,3.061-0.612,14.688,0.611,18.973c2.448,6.731,5.508,12.852,9.181,18.972
			c1.224,2.448,2.447,7.956,4.896,9.792c1.224,0.612,2.448,0.612,3.061,0.612c1.224,0.612,2.447,1.836,4.283,2.448
			c3.061,1.836,17.137,12.239,20.196,9.792c5.508-3.673-10.404-9.792-12.852-11.628c-5.509-3.673-9.792-7.345-12.853-14.076
			c-3.672-7.956-6.12-16.524-7.956-25.092C436.356,436.392,435.132,426.6,428.4,430.271L428.4,430.271z"/>
		<path fill="#232323" d="M430.848,432.72c-2.447,0.612-1.224,3.672-1.224,4.896c0,0.611,0.612,6.12,0.612,4.284
			c2.447,18.359,1.224,35.496-3.061,53.855c-0.611,2.448-3.672,8.568-0.611,11.017c3.06,2.447,5.508-1.225,6.119-3.673
			c3.061-7.344,4.284-14.688,4.896-22.644c-0.612,2.448,0.612-4.284,0.612-4.896c0-1.836,0-3.672,0-5.508
			c0-4.284-0.612-9.18-1.225-13.464C436.968,452.916,435.132,431.496,430.848,432.72L430.848,432.72z M431.46,473.724
			C430.848,474.336,430.848,474.336,431.46,473.724L431.46,473.724z M437.58,481.068C437.58,481.68,437.58,481.68,437.58,481.068
			L437.58,481.068z M436.968,482.904C436.968,483.516,436.968,483.516,436.968,482.904L436.968,482.904z"/>
		<path fill="#232323" d="M393.516,345.816c0,7.344-0.611,14.688-1.836,22.032l0,0l0,0c-2.447,17.748-7.344,35.496-11.628,53.244
			c-2.448,9.792-4.896,20.196-7.956,29.376c-1.836,4.896-3.672,9.181-5.508,14.076c-0.612,1.836-1.836,4.284-2.448,6.12
			c-0.611,1.224-1.224,2.448-1.836,4.284c-0.611,2.448-1.224,2.448-0.611,1.224c-7.345,16.524-15.912,31.824-26.929,46.512
			c-12.239,15.301-26.928,27.54-41.616,40.393c-6.732,6.12-14.688,11.628-20.196,18.972c-5.508,7.344-10.404,14.688-14.076,23.256
			c-3.672,7.956-7.344,16.524-9.18,25.092c-0.612,3.061-1.836,8.568-0.612,11.629c1.224,3.06,4.896,4.283,7.344,1.836
			c2.448-2.448,2.448-7.956,3.672-11.628c1.224-4.896,3.06-9.181,4.284-14.076c3.672-9.181,7.344-17.748,12.24-26.316
			c9.792-15.3,25.092-25.704,36.72-37.944c12.24-12.852,24.48-26.315,34.884-40.392c11.629-15.912,18.36-34.884,26.316-53.244
			c7.956-18.972,13.464-39.779,17.748-59.976c1.836-11.016,3.672-22.032,4.896-33.048c0.612-5.508,0.612-11.628,1.225-17.136
			c0-1.836,0.612-4.896-1.225-6.12C395.352,342.756,393.516,343.98,393.516,345.816L393.516,345.816z M371.484,468.216
			C371.484,468.828,371.484,468.828,371.484,468.216L371.484,468.216z M391.68,367.848
			C391.068,369.684,391.68,367.236,391.68,367.848L391.68,367.848z"/>
		<path fill="#232323" d="M392.292,334.188c-6.732,3.672,6.732,18.36,14.688,10.404c1.224-1.224,3.06-3.672,0.611-4.896
			c-1.836-0.612-3.06,1.224-4.896,0.612C397.8,339.084,397.188,331.128,392.292,334.188L392.292,334.188z"/>
		<path fill="#232323" d="M309.672,200.16c-3.06,3.06-4.896,7.956-7.956,11.628c-3.672,4.896-8.568,9.18-14.076,12.24
			c-9.792,6.12-20.808,10.404-30.6,15.3c-20.196,10.404-40.392,25.704-50.184,47.124c-1.224,3.06-7.344,23.868,0.612,21.42
			c3.672-0.612,3.672-8.568,4.896-12.24c1.836-6.12,4.896-11.016,7.956-16.524c13.464-19.584,34.884-30.6,55.08-39.168
			c10.404-4.284,20.808-9.18,28.764-18.36c4.284-4.896,7.344-9.792,10.404-15.3c1.224-2.448,3.06-4.896,0.611-7.344
			C313.956,199.548,311.508,198.936,309.672,200.16L309.672,200.16z M240.516,260.748
			C239.904,260.748,239.904,260.748,240.516,260.748L240.516,260.748z"/>
		<path fill="#232323" d="M312.732,193.428c-3.673,1.836-6.732,17.136-5.509,20.196c0.612,1.224,2.448,1.224,3.061,1.836
			c1.224,1.224,1.224,4.896,1.836,6.732c0.612,2.448,1.836,4.896,3.06,6.732c0.612,0.612,4.284,6.12,2.448,3.672
			c5.508,6.732,11.628,11.628,18.972,15.912c9.792,6.12,14.076,14.688,21.42,23.868c9.792,12.852,32.437,37.944,50.797,26.928
			c4.283-2.448,3.672-7.344-1.225-7.956c-4.896-0.612-8.567,0.612-13.464-1.836c-8.568-3.672-14.688-10.404-20.808-17.136
			c-5.509-5.508-9.792-12.24-14.076-18.36c-5.508-7.344-13.464-12.24-20.809-17.136c-10.403-6.732-17.748-17.748-18.972-29.988
			C319.464,203.22,320.688,189.144,312.732,193.428L312.732,193.428z"/>
		<path fill="#232323" d="M400.86,209.952c-3.061,1.836,6.12,19.584,7.344,23.256c2.448,8.568,4.284,17.748,4.896,26.928
			c0.612,9.792,1.225,18.972-1.224,28.152c-0.612,3.06,0,7.344,3.672,3.06c1.836-2.448,2.448-8.568,3.061-11.628
			c1.224-9.792,2.447-20.808,1.224-31.212c-1.224-6.732-2.448-13.464-4.896-19.584C413.1,226.476,405.144,207.504,400.86,209.952
			L400.86,209.952z M413.1,282.168L413.1,282.168L413.1,282.168z"/>
		<path fill="#232323" d="M380.052,175.068c-1.224,1.224,7.956,12.24,9.792,14.688c3.672,6.732,7.956,12.852,10.404,20.196
			c2.448,7.344,4.284,15.3,6.12,23.256c0.611,2.448,1.224,7.344,3.06,9.18c2.448,1.836,4.284,0,4.896-2.448
			c0.611-2.448-1.225-7.956-1.836-11.016c-0.612-3.672-1.225-6.732-2.448-10.404c-1.836-5.508-3.672-10.404-6.732-15.3
			C400.86,200.16,383.112,172.008,380.052,175.068L380.052,175.068z"/>
		<path fill="#232323" d="M209.304,327.456c0,4.896,0,10.404,0.612,15.3c0,2.448,0.612,10.404,5.508,6.732
			c3.06-2.448,1.224-14.688,1.224-18.36c0-2.448,0.612-6.12-1.836-7.344C211.752,323.172,209.304,325.008,209.304,327.456
			L209.304,327.456z"/>
		<path fill="#232323" d="M211.752,331.128c-3.06,3.06-1.836,12.24-3.06,16.524c-0.612,6.12-1.836,12.24-2.448,18.36
			c-2.448,16.524-5.508,34.272-8.568,50.184c0,0.611,0,0.611,0,0.611c-1.224,3.673,3.06,4.896,5.508,3.061
			c2.448-1.836,2.448-7.344,3.06-9.792c1.836-9.18,3.06-18.36,4.896-27.54c1.836-10.404,3.672-20.808,4.284-31.824
			c0.612-4.896,1.224-10.404,1.224-15.3C217.26,333.576,215.424,327.456,211.752,331.128L211.752,331.128z"/>
		<path fill="#FFFFFF" d="M321.912,156.096c-4.896,0-9.792,0.612-14.688,1.836c4.896,4.896-1.224,8.568-5.508,9.18
			c-4.896,0.612-9.792,0.612-14.688,1.836c-9.792,1.836-20.196,4.896-28.764,9.792c-17.136,9.792-29.988,25.092-39.168,42.228
			c-10.404,18.36-18.36,37.944-20.808,58.752c-1.224,8.568-2.448,21.42,1.224,29.376c3.06,7.344,9.792,12.24,16.524,16.524
			c-0.612-8.568-1.224-17.136-3.06-25.092c-1.224,3.672-1.836,12.852-6.732,12.852c-5.508,0-2.448-17.136-1.836-19.584
			c4.896-17.136,18.972-31.212,33.048-41.004c14.688-11.016,32.436-17.136,48.348-25.704c8.568-4.896,14.688-11.016,19.584-19.584
			c1.835-2.448,3.06-4.896,4.284-7.956c1.225-2.448,1.836-6.12,5.508-5.508c4.896,0.612,4.284,6.732,4.284,10.404
			c0.612,9.792,3.061,18.36,9.792,25.704c5.508,6.12,12.853,9.792,19.584,14.688c6.12,4.284,10.404,9.792,14.688,15.3
			c4.896,6.732,10.403,13.464,16.523,18.972c4.284,4.284,9.181,8.568,14.688,9.18c3.06,0.612,7.344,0.612,10.403-0.612
			c3.061-1.224,2.448-1.224,2.448-4.896c0-7.956-1.224-15.912-2.448-23.868c-3.06-34.272-18.972-69.156-45.899-91.188
			c0,0,0,0,0.611,0.612C350.676,159.156,334.152,156.096,321.912,156.096L321.912,156.096z"/>
		<path opacity="0.2" fill="#19468F" d="M269.28,119.376c-63.648,9.18-122.4,39.168-166.464,86.292
			C59.976,252.18,33.048,313.38,29.376,377.64s14.688,128.52,52.632,181.152c1.836,3.06,3.06,6.732,6.732,4.284
			c2.448-1.225,3.672-4.896,4.896-7.344c2.448-4.284,5.508-7.956,7.956-12.24c6.732-10.404,13.464-19.584,21.42-29.376
			c7.344-8.568,13.464-17.748,22.644-24.48c5.508-4.284,11.628-7.344,18.36-9.792c3.06-1.224,6.732-1.836,9.792-3.06
			c3.06-1.836,3.672-4.896,4.896-8.568c8.568-24.479,15.912-49.572,21.42-74.664c4.284-18.972,9.18-37.944,8.568-57.528
			c0-1.836,0.612-4.896-0.612-6.12c-1.224-1.836-6.12-3.06-7.956-4.896c-5.508-4.896-7.956-11.628-10.404-18.36
			c-4.284-14.076-4.896-28.152-1.836-42.84c5.508-27.54,18.972-54.468,39.168-74.052c7.956-7.956,17.136-17.748,27.54-22.644
			c6.12-3.06,12.852-4.896,18.972-6.732c5.508-1.224,11.016-1.224,15.912-3.06c11.628-4.284,22.644-7.956,35.496-7.956
			c11.017,0,22.645,2.448,32.437,7.344c8.567,4.284,16.523,10.404,23.868,17.136c7.956,7.956,13.464,18.36,18.972,27.54
			c3.06,5.508,4.896,11.628,7.956,17.748c3.06,6.12,6.12,12.24,7.344,18.972c2.448,9.792,3.061,19.584,2.448,29.988
			c0,3.672-1.224,7.956-0.612,11.016c0.612,3.672,2.448,6.732,3.061,9.792c0,1.224,0,2.448,0,3.06
			c0.611,1.836,1.224,3.06,1.224,5.508c1.836,7.344,3.06,15.3,4.284,22.644c3.06,15.3,5.508,29.988,10.403,44.676
			c4.896,13.464,11.017,26.316,17.748,38.556c12.24,22.645,22.032,47.736,36.108,69.769c11.016,16.523,28.764,29.376,34.272,49.571
			c0.611,1.836,0.611,3.672,1.224,6.12c0.612,3.061,1.224,5.508,3.06,8.568c0.612,1.224,5.509,14.076,6.732,14.076
			c52.632-78.336,61.812-179.316,25.092-266.22v0.612c-36.72-86.292-116.28-148.716-208.08-164.628
			C325.584,115.704,297.432,115.704,269.28,119.376L269.28,119.376z"/>
	</g>
</g>
</svg>
