<?xml version="1.0" encoding="utf-8"?>
<!-- Generator: Adobe Illustrator 16.0.0, SVG Export Plug-In . SVG Version: 6.00 Build 0)  -->
<!DOCTYPE svg PUBLIC "-//W3C//DTD SVG 1.1//EN" "http://www.w3.org/Graphics/SVG/1.1/DTD/svg11.dtd">
<svg version="1.1" id="Layer_1" xmlns="http://www.w3.org/2000/svg" xmlns:xlink="http://www.w3.org/1999/xlink" x="0px" y="0px"
	 width="601.708px" height="601.092px" viewBox="2.015 93.005 601.708 601.092"
	 enable-background="new 2.015 93.005 601.708 601.092" xml:space="preserve">
<g id="Background">
</g>
<g id="Image_Layer">
</g>
<g id="Draw_Layer">
</g>
<g id="Draw_Layer_1_">
	<g>
		<path fill="#232323" d="M238.68,301.752c-9.792,2.448-14.688,23.868-1.836,24.48C250.92,326.844,252.756,298.08,238.68,301.752
			L238.68,301.752z"/>
		<path fill="#232323" d="M233.172,304.2c-4.896,0.612-10.404,2.448-13.464,6.732c-2.448,3.06-1.836,8.568,3.06,7.344
			c3.672-0.612,6.12-4.896,10.404-6.12c3.672-1.224,7.344-1.224,11.016,0.612s6.732,5.508,10.404,7.344
			c4.896,1.836,6.732-1.836,4.284-5.508C254.592,306.036,241.74,302.976,233.172,304.2L233.172,304.2z M235.008,311.544
			C234.396,312.156,234.396,312.156,235.008,311.544L235.008,311.544z"/>
		<path fill="#232323" d="M332.928,304.2c-14.076,1.224-12.24,25.704,1.836,20.808C346.392,321.336,344.556,298.692,332.928,304.2
			L332.928,304.2z"/>
		<path fill="#232323" d="M330.48,305.424c-4.896,0-9.793,1.224-13.465,4.896c-3.06,3.672-1.836,9.792,4.284,7.956
			c1.225-0.612,1.836-2.448,3.672-3.06c1.836-0.612,4.284-0.612,6.12-0.612c4.896,0.612,11.017,1.836,15.912,3.672
			c2.448,1.224,7.344,6.12,10.404,3.672c3.672-2.448-0.612-7.344-3.061-9.18C347.616,307.26,339.66,304.2,330.48,305.424
			L330.48,305.424z"/>
		<path fill="#232323" d="M237.456,276.66c-8.568,0-23.868,3.06-26.928,12.24c-2.448,7.956,7.344,4.284,10.404,3.06
			c5.508-2.448,10.404-3.672,16.524-3.672s12.24,0,17.748,1.224c4.284,0.612,13.464,2.448,11.016-4.896
			C263.772,276.048,244.188,276.66,237.456,276.66L237.456,276.66z"/>
		<path fill="#232323" d="M332.316,277.272c-4.284,0.612-9.181,0.612-13.465,1.224c-4.896,0.612-9.18,5.508-6.119,10.404
			c3.06,4.284,9.792,1.836,14.075,1.836c6.732-0.612,12.853-0.612,19.584,1.224c3.061,0.612,6.12,1.836,9.181,3.06
			c2.447,1.224,4.896,4.284,7.344,5.508c6.732,3.06,9.18-4.284,5.508-9.18C358.632,280.332,346.392,275.436,332.316,277.272
			L332.316,277.272z"/>
		<path fill="#232323" d="M276.624,305.424c0,8.568,0,17.136-0.612,26.316c0,4.284-1.224,8.568-1.224,12.852
			c0,6.12,3.672,5.508,4.284,0c1.224-7.956,1.836-16.524,1.836-25.092c0-3.672,1.224-10.404,0-14.076
			C280.908,302.976,276.624,301.752,276.624,305.424L276.624,305.424z"/>
		<path fill="#232323" d="M256.428,368.46c0,6.12,25.092,4.896,29.988,4.896c3.672,0,26.316,2.448,26.316-1.836
			s-23.868-4.284-28.152-4.896C280.296,366.624,256.428,361.728,256.428,368.46L256.428,368.46z"/>
		<path fill="#232323" d="M231.336,309.096c-3.06,0.612-8.568,1.224-11.016,3.06c-1.836,1.836-1.224,5.508,1.836,6.12
			c3.06,0.612,7.956-1.836,11.628-1.836c4.896,0,9.18,1.224,13.464,2.448c3.06,0.612,7.344,3.672,10.404,2.448
			c4.284-1.224,2.448-6.12,0-7.956C251.532,308.484,239.292,307.872,231.336,309.096L231.336,309.096z"/>
		<path fill="#232323" d="M326.808,307.26c-3.06,0.612-10.403,1.836-12.852,4.896c-2.448,4.284,1.224,6.12,4.896,5.508
			c4.284-1.224,7.345-3.06,11.629-3.672c4.896,0,8.567,0.612,12.852,3.06c3.06,1.224,9.18,6.732,12.24,5.508
			c4.896-1.836,0.611-6.12-1.836-7.956C346.392,308.484,337.212,305.424,326.808,307.26L326.808,307.26z"/>
		<path fill="#232323" d="M283.356,400.896c-6.732,0-12.24,2.447-18.972,3.672c-3.06,0.611-5.508,1.224-8.568,1.224
			c-2.448,0-6.12-1.224-7.956,0.612c-1.836,1.224-1.836,3.672-0.612,5.508c1.836,1.836,5.508,1.224,7.956,1.224
			c6.732,0,12.852-1.836,19.584-3.06c12.852-3.672,25.092,0,38.556,2.448c3.061,0.611,11.017,2.447,13.464,0.611
			c6.12-4.284-8.567-4.284-9.18-4.284c-6.12-0.611-12.24-1.836-18.36-3.672C294.372,402.732,288.864,400.896,283.356,400.896
			L283.356,400.896z"/>
		<path fill="#232323" d="M265.608,415.584c-1.836,0.612-2.448,3.06-1.224,4.284c1.224,1.836,6.732,3.06,8.568,3.672
			c6.732,1.836,14.076,1.836,21.42,1.224c3.672-0.611,12.24-1.224,15.3-4.283c3.061-3.673-1.224-3.673-3.672-3.061
			c-1.224,0-3.06,0.612-4.284,1.224c0,0-6.12,1.225-3.672,0.612c-9.792,1.225-18.972,1.836-28.152-2.448
			C269.28,416.196,266.22,414.972,265.608,415.584L265.608,415.584z"/>
		<path fill="#232323" d="M280.908,380.7c-1.836,1.836-3.06,17.748,1.224,14.688c1.836-1.224,1.836-7.956,1.836-9.792
			C284.58,384.984,285.192,376.416,280.908,380.7L280.908,380.7z"/>
		<path fill="#232323" d="M272.34,94.284c-122.4,11.628-228.276,100.98-260.1,220.32c-16.524,61.2-12.852,126.684,9.792,186.048
			c21.42,55.08,59.364,103.428,107.712,137.699c51.408,36.721,113.832,56.916,177.479,55.692
			c63.036-0.612,124.236-22.032,175.032-59.364C581.4,560.628,627.3,429.048,591.804,309.096
			C555.696,188.532,446.148,101.628,320.688,93.672C304.776,92.448,288.252,93.06,272.34,94.284L272.34,94.284z M189.108,132.84
			c56.304-23.256,118.116-29.376,177.48-15.3c59.977,14.076,113.832,48.348,153,96.084c78.948,95.472,85.068,236.844,16.524,339.048
			c-4.896,6.732-9.792,13.464-14.688,20.196c-3.06,3.672-6.12,6.731-9.18,10.404c-0.612,0.611-2.448,3.672-3.672,3.672
			c-1.836,0-6.732-6.12-8.568-7.345c-3.672-3.06-7.344-5.508-11.016-7.956c-10.404-6.731-21.42-13.464-33.049-17.747
			c-9.791-3.673-20.195-6.12-28.151-12.24c-3.672-3.061-7.344-5.508-11.017-7.956c-4.283-2.448-7.344-3.672-9.792,0.611
			c-6.731,12.853-13.464,25.093-20.808,37.332c-16.524,26.929-36.72,51.408-58.14,74.053c0-6.12-3.061-12.24-4.896-17.748
			c-2.448-6.732-4.896-14.076-6.731-20.809c-1.225-3.672-2.448-6.731-3.061-10.403c-0.611-1.836-1.224-3.672-1.836-4.896
			c0-2.448-0.612-1.224,0.612-3.06c1.836-2.448,4.896-4.896,6.731-7.345c1.225-1.224,1.836-2.447,3.061-3.672
			c0,0,3.672-4.896,2.448-3.06c3.06-4.284,7.956-7.956,10.403-12.24c3.061,9.792,6.12,18.972,9.181,28.764
			c0.611,2.448,1.224,8.568,4.283,9.792c3.673,1.836,8.568-4.283,11.017-6.731c13.464-13.464,28.151-26.928,38.556-42.84
			c3.061-4.284,6.732-9.792,6.732-15.3c0-8.568-3.672-17.137-6.12-25.093s-4.896-16.523-7.956-24.479
			c-1.224-3.672-3.061-11.628-8.568-9.181c-0.611-8.567-1.836-17.136-3.06-25.092c-0.612-6.12-3.061-15.3-1.225-20.808
			c0.612-2.448,4.284-6.12,5.509-8.568c1.836-3.06,3.06-6.12,4.896-9.18c1.225-2.448,2.448-5.508,3.672-7.956
			c1.225-3.06,0.612-2.448,2.448-3.672c1.836-0.612,4.284-0.612,6.732-1.836c2.447-1.225,4.896-2.448,7.344-3.672
			c11.016-6.12,18.359-17.749,22.644-29.376c4.896-12.24,7.344-25.704,6.12-38.556c0-5.508-1.224-9.792-2.448-14.688
			c-1.836-6.12,2.448-14.688,3.061-21.42c4.896-29.376-4.896-58.14-16.524-85.068c-4.284-9.792-9.792-20.196-17.748-27.54
			c-9.792-9.18-22.644-15.912-33.66-23.256c-14.075-8.568-28.764-12.852-44.676-14.688c-6.731-0.612-13.464-1.224-20.196-2.448
			c-5.508-1.224-11.016-2.448-16.524-2.448c-25.704-1.224-50.796,10.404-70.992,25.704c-23.256,17.748-38.556,43.452-41.004,72.828
			c-1.224,14.688,0.612,29.376,0.612,44.063c-0.612,15.3-4.284,31.824-1.224,46.512c0.612,4.284,4.896,10.404,4.896,14.076
			c0,1.836-1.836,3.672-1.836,5.508c-0.612,3.672,0,7.956,1.224,11.628c1.836,5.508,5.508,10.404,9.18,14.688
			c1.836,1.836,5.508,3.06,7.344,4.896c1.224,1.224,1.224,7.344,1.836,9.18c2.448,11.628,3.672,23.868,8.568,34.884
			c2.448,5.508,5.508,10.404,8.568,15.3c1.836,3.061,6.12,7.956,7.344,11.017c0.612,2.448,0,7.956,0,11.016
			c0,3.061,0,6.12-0.612,9.792c-0.612,3.672-1.836,4.896-4.284,7.956c-4.284,4.896-6.732,11.016-7.956,17.136
			c-0.612,3.061-1.224,6.12-1.836,9.181c-0.612,3.06,0,7.344-1.836,10.403l-2.448,1.225c-2.448,2.447-4.284,6.731-6.732,9.18
			c-3.06,3.672-7.344,5.508-11.628,7.956c-5.508,3.06-10.404,6.12-15.912,9.18c-6.732,3.672-13.464,7.345-20.196,11.628
			c-17.748,11.017-35.496,25.093-50.184,39.78c-1.836,1.836-1.836,2.448-3.672,1.836c-2.448-1.224-4.896-5.508-6.732-7.344
			c-4.896-4.896-9.18-10.404-13.464-15.912c-9.18-12.24-17.748-25.092-24.48-37.944c-14.076-26.315-24.48-54.468-29.988-84.456
			c-22.644-118.116,33.66-238.68,135.864-298.655c6.732-3.672,13.464-7.344,20.196-11.016
			C178.704,137.736,189.108,133.452,189.108,132.84L189.108,132.84z M190.944,340.92c-9.18-8.568-11.016-18.972-11.016-31.212
			c0-9.792,0-19.584,0-29.988c0-15.3-1.836-31.212,1.836-46.512c3.672-15.3,7.344-32.436,17.748-44.676
			c8.568-10.404,20.196-17.136,31.212-24.48c10.404-6.732,20.808-14.688,33.048-17.136c11.628-1.836,25.704-1.836,35.496-0.612
			c12.852,1.836,26.316,3.06,38.556,6.732c12.852,3.672,24.479,11.016,35.496,18.36c7.344,4.896,15.3,8.568,22.031,14.688
			c7.956,6.732,11.629,14.688,15.912,23.868c0-0.612,0,0,0,0c8.568,20.808,17.137,45.288,17.748,67.932
			c0,4.896,0,9.792-0.611,14.076c0,3.06,0,6.12-1.225,9.18c0,1.224-0.611,2.448-0.611,3.672c-0.612,3.06-0.612,2.448-2.448,3.672
			c-2.448,1.224-4.896,1.224-7.344,3.06c-2.448,1.836-4.284,3.672-6.12,5.508c-2.448,2.448-7.956,9.792-11.628,9.18
			c-6.732-0.612-9.181-48.96-9.792-54.468c-1.836-11.628-7.345-18.36-17.137-25.704c-8.567-6.12-12.852-15.912-18.972-23.868
			c-6.732-9.18-20.196-15.912-31.212-18.36c-13.464-3.06-26.928,3.06-40.392,1.224c1.836-5.508-19.584-0.612-21.42,0
			c-7.956,3.06-14.688,7.956-22.032,11.628c-7.956,4.284-11.016,11.016-15.912,18.36c-4.896,8.568-10.404,17.136-14.688,25.704
			c-3.672,7.344-7.344,15.3-9.792,22.644c-1.836,5.508-1.836,10.404-1.836,15.912c-0.612,14.688-2.448,29.988-2.448,44.676
			C193.392,343.368,192.168,342.144,190.944,340.92L190.944,340.92z M268.056,209.34c5.508-1.836,11.628,0,17.748,0.612
			c4.896,0,10.404,0,15.3,0c6.12-0.612,12.24-1.224,18.36-0.612c5.508,0.612,9.792,3.672,14.688,6.12
			c4.283,2.448,9.792,4.896,12.852,9.18c3.061,3.672,4.896,7.956,7.344,11.628c2.448,4.284,5.509,7.956,8.568,11.628
			c3.672,3.672,7.956,6.12,11.628,9.18c6.732,6.12,7.344,15.3,7.956,23.868c1.224,11.628,2.448,22.644,4.896,33.66
			c1.224,7.956,4.896,23.256,16.523,16.524c7.344-4.284,11.628-19.584,20.808-19.584c0,2.448,1.225,2.448,2.448,3.672
			c0.612,0,1.225,0.612,1.836,0c0,1.224,0.612,1.836,0.612,3.06c1.224,3.672,0.612,9.18,0.612,13.464
			c-0.612,9.792-3.061,18.972-6.12,28.764c-1.836,6.12-4.284,12.852-7.956,17.748c-6.12,7.956-13.464,11.016-22.032,14.688
			c3.06-14.688,4.284-30.6,5.508-45.288c0-2.448,1.225-8.568,0-10.404c-1.836-1.836-2.448-1.224-3.672,1.224
			c-1.224,2.448-0.612,7.344-0.612,10.404c0,1.836-0.611,3.672-0.611,4.896c0,0.612-0.612,5.508-0.612,3.672
			c-2.448,16.524-4.896,33.048-12.24,48.348c-7.344,15.3-16.523,30.6-28.764,42.228c-6.12,5.509-12.24,10.404-19.584,14.688
			c-8.568,4.284-18.36,6.12-28.152,8.568c-16.524,3.672-33.048,3.06-48.96-3.672c-14.688-6.12-28.764-17.137-37.332-30.601
			c-8.568-14.076-13.464-34.271-16.524-51.408c-3.672-17.748-4.284-37.944-2.448-56.304c0.612-9.18,1.224-18.36,1.836-27.54
			c0-3.06,0.612-6.732,1.224-9.792s2.448-5.508,3.672-7.956c1.836-4.284,3.06-8.568,4.284-12.852
			c1.224-3.672,3.672-6.732,5.508-10.404c4.284-7.344,6.732-15.3,11.016-22.032C236.844,221.58,252.144,216.684,268.056,209.34
			L268.056,209.34z M232.56,230.76L232.56,230.76L232.56,230.76z M424.116,311.544C423.504,311.544,423.504,311.544,424.116,311.544
			L424.116,311.544z M190.332,362.952c-4.284-5.508-7.344-11.016-6.732-18.36c1.224,1.224,4.284,3.06,6.12,3.672
			c3.672,0,3.06-3.06,3.672,1.836c1.224,5.508,0.612,11.628,0.612,17.136C192.78,366.012,191.556,364.176,190.332,362.952
			L190.332,362.952z M293.76,482.292c30.601-2.448,59.364-15.912,77.112-42.228c0.612,12.852,2.448,25.703,3.672,38.556
			c1.224,10.404-9.18,19.584-17.748,25.092c-4.284,3.06-9.18,5.508-14.688,7.344c-6.12,1.836-12.24,2.448-17.748,4.896
			c-8.568,3.06-3.061,12.24-0.612,17.748l0,0c-6.12-2.448-13.464-1.225-19.584-1.225c-6.732,0.612-14.076,0.612-20.196,1.225
			c1.224-1.836,2.448-3.672,4.284-4.896c1.224-1.224,4.896-1.224,5.508-2.448c3.06-3.06-0.612-4.283-3.06-6.119
			c-9.792-5.509-19.584-11.017-29.988-17.137c-9.792-5.508-20.196-11.628-27.54-20.195c-1.836-1.836-3.06-3.672-4.896-5.509
			c-2.448-2.447-1.836-2.447-1.836-5.508c0.612-6.12,0-12.852,0-18.972C242.964,472.5,267.444,484.128,293.76,482.292
			L293.76,482.292z M225.828,542.88c-4.284-3.06-8.568-6.731-11.628-11.016c-4.284-6.12-3.672-11.017-2.448-17.748
			c1.224-10.404,1.836-23.256,7.956-32.437c6.732,11.017,17.748,20.196,28.764,26.929c12.852,7.956,26.316,13.464,41.004,16.523
			c-4.896,1.836-6.732,6.732-9.792,10.404c-3.672,4.284-4.284,8.567-4.284,14.688c-0.612,13.464,1.224,27.54,0,41.004
			c-15.912-14.688-28.764-31.823-45.288-45.288C228.276,544.716,227.052,543.492,225.828,542.88L225.828,542.88z M349.452,591.84
			c-3.672-23.868-11.628-47.736-21.42-69.768c19.584-5.508,44.063-12.853,52.632-34.885c3.06,11.017,4.896,22.032,9.18,32.437
			c1.836,4.896,6.12,10.404,7.344,15.912c0.612,4.284-1.836,6.12-4.283,9.792c-6.732,9.18-14.076,16.523-22.032,25.092
			c-7.344,7.956-14.076,15.912-21.42,23.868C349.452,593.676,349.452,593.064,349.452,591.84L349.452,591.84z M370.26,491.472
			C369.648,491.472,369.648,491.472,370.26,491.472L370.26,491.472z M269.28,616.932c-14.688-16.523-31.212-31.212-45.288-47.735
			c-7.344-8.568-14.688-16.524-21.42-25.704c-1.224-1.836-8.568-10.404-7.956-12.853c0-0.611,4.896-3.672,5.508-4.283
			c1.836-1.837,3.672-4.284,4.896-6.732c-1.224,11.628,5.508,20.196,14.076,27.54c7.956,6.732,15.3,13.464,22.644,20.808
			c7.956,8.568,16.524,17.137,25.704,23.868c2.448,1.836,7.956,6.732,10.404,3.672c1.836-2.447,1.224-9.18,1.224-12.239
			c0.612,1.224,3.06,4.283,3.06,5.508c0,1.836-3.06,7.344-3.672,9.18c-1.224,2.448-3.672,8.568-3.672,9.792
			C272.952,608.364,269.28,616.932,269.28,616.932L269.28,616.932z M285.192,531.252L285.192,531.252L285.192,531.252z
			 M258.876,624.888c-11.016-4.896-21.42-11.016-31.212-17.748c-7.956-5.508-15.3-12.239-21.42-19.584
			c-7.344-9.18-12.852-18.972-17.748-29.376c-1.836-4.283-6.732-11.628-6.12-16.523c0.612-3.061,1.836-2.448,3.672-4.284
			c0.612-0.612,0.612-1.836,0.612-2.448c1.224-0.611,1.836-1.224,3.06-1.836c9.18,17.136,20.808,33.048,33.048,48.348
			c12.24,16.524,26.316,31.824,42.228,45.288C262.548,626.112,260.712,626.112,258.876,624.888L258.876,624.888z M341.496,638.964
			c15.912-13.464,28.152-31.824,39.168-48.96c11.016-16.523,20.808-34.884,29.376-52.632c3.672,3.06,12.24,9.18,14.076,14.076
			c1.836,4.284-2.448,11.628-4.284,15.912c-5.508,11.628-14.076,22.031-21.42,32.436s-17.136,20.196-26.928,28.764
			c-4.896,4.284-10.404,7.956-15.912,11.017c-2.448,1.224-6.12,3.672-9.181,4.284c-1.224,0-1.836,0-1.836,0
			c-2.447,0-0.611-3.061-4.283-1.225C340.271,640.8,340.884,640.188,341.496,638.964L341.496,638.964z M397.8,538.596
			C397.8,539.208,397.8,539.208,397.8,538.596L397.8,538.596z M302.328,585.72c-4.284-1.224-8.568-0.611-12.852-1.224
			c-4.896-0.612-4.284-4.896-4.896-9.792c-1.224-7.956-1.224-16.524-0.612-25.092c0.612-4.896,0-7.345,4.896-8.568
			c4.284-0.612,9.18-1.224,13.464-1.224c7.344-0.612,20.196-3.061,23.868,4.284c1.836,3.06,2.448,7.955,2.448,11.628
			c0,3.672-1.837,4.283-4.284,6.731c-4.284,4.284-7.345,9.18-11.017,13.464c-1.836,1.836-6.731,9.792-9.18,9.181
			C304.164,585.72,294.984,583.884,302.328,585.72L302.328,585.72z M284.58,542.268C283.968,542.268,283.968,542.268,284.58,542.268
			L284.58,542.268z M283.968,542.88C283.356,543.492,283.356,543.492,283.968,542.88L283.968,542.88z M142.596,564.3
			C142.596,564.912,142.596,564.912,142.596,564.3L142.596,564.3z M285.804,583.271
			C286.416,583.884,286.416,583.884,285.804,583.271L285.804,583.271z M304.776,585.72
			C304.164,585.72,304.164,585.72,304.776,585.72L304.776,585.72z M316.404,649.368c-11.628-6.732-25.092-11.017-35.496-18.972
			c-1.224-1.225-6.12-6.12-6.732-7.956c-0.612-1.837,3.06-6.732,4.284-8.568c3.06-6.12,5.508-12.853,7.956-19.584
			c2.448-5.508,3.672-4.284,10.404-3.061c0.612,0,6.12,0.612,6.732,1.225c1.836,1.836,3.061,11.016,3.672,13.464
			c2.448,9.792,5.509,19.584,7.956,29.376c0.612,3.06,1.225,6.12,2.448,9.18c0.612,1.225,1.836,4.284,1.836,4.896
			C318.24,649.98,317.628,650.592,316.404,649.368L316.404,649.368z M395.964,601.632
			C395.964,602.244,395.964,602.244,395.964,601.632L395.964,601.632z M372.708,635.292
			C373.32,634.68,372.096,635.904,372.708,635.292L372.708,635.292z M264.384,679.356
			C264.384,679.356,264.996,679.356,264.384,679.356L264.384,679.356z"/>
		<path fill="#B1440A" d="M311.508,539.208c-7.344,0-14.688,1.224-22.032,1.836c-1.224,0-4.284,0-5.508,1.836
			c-1.836,3.061-1.224,10.404-1.224,13.464c0,6.12,0,11.628,1.224,17.748c0,1.836,0.612,8.568,2.448,9.792
			c1.224,0.612,4.284,0.612,5.508,0.612c3.06,0,7.344,1.224,10.404,1.224s4.284-1.224,6.12-4.284
			c5.508-6.119,9.792-12.852,15.3-18.359c1.836-1.836,3.672-3.061,4.284-4.896c0.611-2.447-0.612-6.731-1.225-9.18
			C324.972,539.82,320.076,539.208,311.508,539.208L311.508,539.208z"/>
		<path fill="#B1440A" d="M288.252,590.616c-2.448,6.12-4.896,12.852-7.956,18.972c-1.224,3.672-6.12,8.568-6.12,12.24
			c0,2.448,4.284,7.344,6.12,8.568c7.344,5.508,15.3,7.955,23.256,12.239c3.672,1.836,11.017,7.956,15.3,6.12
			c-3.06-3.06-3.672-12.24-4.896-15.912c-1.836-7.956-4.284-15.912-6.12-23.868c-1.224-3.672-1.836-7.344-3.06-11.628
			c0-0.611-1.224-4.896-1.836-5.508s-1.836,0-2.448-0.612C299.88,591.228,288.252,590.004,288.252,590.616L288.252,590.616z"/>
		<path fill="#232323" d="M238.068,148.752c-9.792-0.612-18.36,1.836-25.092,8.568c-3.672,3.672-5.508,7.344-8.568,11.628
			c-1.836,2.448-4.284,3.672-7.344,6.12c-7.344,4.896-12.852,11.016-15.912,18.972c-1.836,3.672-2.448,7.956-3.672,11.628
			c-1.224,4.284-4.284,7.956-6.12,12.24c-1.836,4.896-3.672,9.792-3.672,14.688c0,3.672,1.836,7.344,1.224,10.404
			c-0.612,3.672-3.06,7.344-3.672,10.404c-1.224,4.896-1.836,10.404-1.224,15.912c0,4.284,1.224,8.568,2.448,13.464
			c1.224,4.896,0.612,8.568,0.612,13.464c0,4.284,0,7.956,1.836,12.24c0.612,2.448,2.448,4.284,3.06,6.732c0.612,3.06,0,6.12,0,9.18
			c0.612,7.956,5.508,12.24,9.792,18.36c4.896,6.732,15.3,13.464,20.196,3.06c4.284-8.568,4.896-20.808,5.508-29.988
			c0.612-4.896,0.612-9.792,0-14.688c-0.612-4.896,0.612-7.344,2.448-12.24s2.448-9.792,3.06-15.3
			c0.612-4.896,3.672-8.568,6.12-12.852c2.448-4.284,4.284-8.568,6.12-13.464c0.612-2.448,1.224-3.672,3.06-5.508
			s4.284-3.672,6.12-5.508c3.06-3.06,5.508-7.344,7.956-11.016c1.224-1.836,1.836-4.896,3.06-6.12c1.224-1.224,0-1.224,1.836-1.836
			c1.224-0.612,4.284,0,5.508,0c4.896,0,9.18-0.612,14.076-1.836c4.284-1.224,8.568-4.896,12.852-4.896
			c4.896-0.612,9.18,0.612,14.076,0c5.508-0.612,9.18-0.612,14.688,0.612c4.896,0.612,9.792,1.836,15.3,1.836
			c1.224,0,4.284-0.612,5.508,0c1.836,0.612,4.284,4.896,6.12,6.12c3.672,3.06,7.956,4.896,12.24,7.344
			c3.06,1.836,2.448,1.836,3.06,5.508c0.612,3.06,1.225,5.508,2.448,7.956c1.836,4.284,4.284,7.956,7.344,11.016
			c3.672,3.672,7.956,4.284,11.628,7.344c1.836,1.224,3.061,3.06,4.284,4.896c2.448,2.448,3.672,2.448,4.284,5.508
			c1.224,5.508,0.612,10.404,3.672,15.3c1.224,1.836,3.672,3.672,4.896,5.508c0.611,1.836,0,4.896-0.612,7.344
			c-0.612,4.896-1.224,9.792-0.612,14.688c0,4.896,2.448,8.568,2.448,12.852c0.612,4.284,0.612,9.18,5.508,10.404
			c3.672,1.224,8.568-1.224,8.568-5.508c0.612-2.448-1.224-3.672-1.836-5.508c-0.612-1.224,0-3.06,0-4.284
			c-0.612-2.448-1.836-4.284-1.836-7.344c-0.612-5.508,0-11.016,0.611-15.912c0.612-3.672,1.836-7.344,0.612-11.016
			c-1.836-4.284-5.508-6.732-6.732-11.016c-1.224-4.284-1.224-9.18-3.06-12.852c-1.224-2.448-4.284-4.896-6.732-7.344
			c-1.836-1.836-3.672-4.284-5.508-6.12c-3.06-3.06-6.12-4.896-8.567-7.956c-3.061-3.672-4.284-7.344-5.509-11.628
			c-1.224-4.284-0.611-9.18-4.896-12.24c-3.061-2.448-7.344-3.061-11.016-4.896c-4.896-2.448-7.345-5.508-11.629-9.18
			c-5.508-4.284-15.3-2.448-22.644-3.672c-4.896-0.612-9.792-2.448-14.688-1.836c-3.06,0-6.732,1.224-10.404,1.224
			c-4.284,0-9.18-0.612-13.464-0.612c-3.06,0-4.896,1.224-7.344,2.448c-3.06,2.448-6.12,3.06-10.404,3.672
			c-6.732,1.224-18.972-2.448-23.868,4.284c-3.672,4.896-4.896,10.404-8.568,15.3c-5.508,6.732-12.24,9.792-14.688,18.36
			c-1.224,4.284-2.448,8.568-4.284,12.852c-1.836,3.672-4.896,7.344-5.508,11.016c-1.224,4.284,0,9.18-0.612,13.464
			c-0.612,4.896-2.448,9.18-3.672,14.076c-1.836,6.12,0,13.464-0.612,19.584c-0.612,8.568-1.836,17.748-4.284,26.316l0,0
			c-1.224-1.224-2.448-3.06-3.672-4.284l0,0c-2.448-3.06-4.896-5.508-5.508-9.18c-0.612-4.284,0-8.568-0.612-12.852
			c-0.612-4.896-1.836-9.18-1.836-14.076c0-4.284,0.612-7.956,0-12.24c-1.224-7.956-4.284-15.3-3.06-23.868
			c0.612-7.344,5.508-13.464,4.896-20.808c-0.612-6.732-1.224-12.852,1.224-19.584c1.224-3.06,3.06-6.12,4.284-9.18
			s1.224-6.12,1.836-9.18c2.448-7.344,7.344-12.852,13.464-17.136c6.12-3.672,10.404-7.344,14.688-12.852
			c4.896-6.732,9.18-9.792,17.748-10.404c3.672,0,6.732-0.612,7.956-4.284C245.412,154.872,242.352,147.528,238.068,148.752
			L238.068,148.752z M255.204,203.22c-0.612,0-0.612,0-1.224,0C254.592,203.22,255.204,203.22,255.204,203.22L255.204,203.22z
			 M168.3,244.224L168.3,244.224L168.3,244.224z M213.588,268.704C214.2,268.092,213.588,268.704,213.588,268.704L213.588,268.704z
			 M206.856,295.02C206.856,295.632,206.856,295.632,206.856,295.02L206.856,295.02z M170.748,314.604v0.612V314.604
			L170.748,314.604z"/>
		<path fill="#232323" d="M306.612,133.452c-3.061,0.612-5.508,1.224-8.568,2.448c-1.836,0.612-3.672,2.448-5.508,2.448
			c-1.836,0.612-4.284-0.612-6.12-1.224c-3.672-0.612-7.344-1.224-11.628-1.224c-11.628,0.612-28.152,5.508-35.496,15.3
			c-3.06,4.284,0.612,9.792,5.508,7.956c3.06-1.224,5.508-4.284,7.956-6.12c3.672-1.836,7.344-3.672,11.628-4.284
			c7.344-1.224,14.688-1.224,20.808,1.836c5.508,2.448,7.956,3.06,14.076,0.612c5.508-2.448,10.404-3.06,15.912-1.224
			s9.792,6.732,15.301,7.956c6.731,1.224,11.628-1.224,18.972,2.448c4.896,2.448,8.567,6.12,12.852,8.568
			c4.284,2.448,9.181,2.448,13.464,3.672c4.284,1.836,7.956,4.896,10.404,8.568c3.061,4.284,5.508,11.628,9.792,14.688
			c3.061,1.836,6.732,1.836,9.792,3.06c3.061,1.224,5.508,3.672,7.344,6.732c3.061,5.508,2.448,11.628,4.284,17.748
			c2.448,6.12,8.568,9.18,9.792,15.912c1.225,6.12,0,12.24-1.224,18.36c-0.612,6.12,1.836,11.628,3.06,17.748
			c1.225,5.508,0,9.792-2.448,14.688c-1.836,3.672-1.836,7.956-3.672,11.628c-4.896,8.568-17.748,7.956-22.644,15.912
			c-3.672,5.508,1.224,9.792,6.731,7.344c2.448-1.224,4.284-3.672,7.345-4.896c3.672-1.836,7.956-2.448,11.628-4.284
			c9.792-4.896,11.628-15.3,14.076-25.092c1.836-6.732,1.836-13.464,0-20.196c-1.225-4.896-2.448-9.792-1.836-14.688
			c1.224-7.344,1.836-14.688-0.612-22.032c-1.225-3.06-2.448-6.12-4.284-9.18c-1.224-1.836-3.672-3.672-4.896-6.12
			c-1.225-1.836-0.612-5.508-1.225-7.956c-0.611-3.672-2.448-7.956-4.284-11.016c-3.06-6.12-9.18-10.404-15.3-12.24
			c-1.224-0.612-2.448-0.612-3.06-0.612c-1.836-1.224-2.448-2.448-3.061-4.284c-1.836-3.672-4.284-6.732-6.731-9.792
			c-5.508-6.732-11.628-11.016-19.584-13.464c-4.896-1.224-6.12-2.448-9.792-5.508c-6.12-4.896-12.24-9.18-20.196-10.404
			c-3.06-0.612-6.12-0.612-9.18-0.612c-3.672,0-4.896-1.836-8.568-3.672C321.3,135.288,313.956,132.228,306.612,133.452
			L306.612,133.452z M428.4,217.908C429.012,218.52,429.012,218.52,428.4,217.908L428.4,217.908z"/>
		<path fill="#232323" d="M428.4,310.32c-2.448,2.448,0,11.628,0,14.688c0.611,5.508,0,11.016,0,16.524
			c-0.612,10.404-2.448,20.808-7.956,30.6c-4.896,9.18-11.628,14.688-21.42,19.584c-1.837,1.224-12.24,3.672-11.017,6.732
			c1.836,4.284,9.792-0.612,12.24-1.836c16.523-7.956,26.928-20.196,30.6-38.556c2.448-10.404,3.061-22.032,3.061-32.436
			C433.908,323.784,433.908,304.2,428.4,310.32L428.4,310.32z M427.176,351.324C427.176,351.936,427.176,351.936,427.176,351.324
			L427.176,351.324z M423.504,366.012L423.504,366.012L423.504,366.012z"/>
		<path fill="#232323" d="M397.188,336.636c-1.836,1.836-1.836,7.956-1.836,10.404c-0.611,4.284-1.224,8.568-1.836,12.24
			c-1.836,8.568-3.672,16.524-6.12,25.092c-1.836,7.956-4.283,16.524-7.344,24.479c-1.224,2.448-4.284,7.345-1.224,9.792
			c3.06,2.448,5.508-1.224,6.731-3.06c7.345-12.24,9.792-26.928,12.24-40.392c1.224-7.344,1.836-15.3,3.061-22.644
			c0.611-3.672,2.447-9.792,1.836-13.464C401.472,336.636,399.636,334.188,397.188,336.636L397.188,336.636z"/>
		<path fill="#232323" d="M195.228,350.1c0.612,44.676,13.464,94.248,54.468,119.34c9.18,5.508,19.584,9.792,30.6,11.628
			c3.06,0.611,12.24,2.447,14.688,0c4.284-4.896-6.12-4.284-7.956-4.284c-11.016-1.225-21.42-4.896-30.6-11.017
			c-9.792-6.119-20.808-13.464-27.54-23.256c-15.912-21.42-26.928-48.96-29.988-75.276c0,0,0,0,0-0.612
			c-0.612-3.06-0.612-7.344-0.612-11.016c0-1.224,0.612-5.508,0-6.12C197.064,348.876,195.228,348.264,195.228,350.1L195.228,350.1z
			 M284.58,475.56C285.192,475.56,285.192,475.56,284.58,475.56L284.58,475.56z M198.9,366.624
			C198.9,366.624,198.9,366.012,198.9,366.624L198.9,366.624z"/>
		<path fill="#232323" d="M367.812,433.944c0.612,13.464,0.612,26.928,1.225,40.392c0,5.508-0.612,12.24,1.836,17.136
			c1.224,3.061,4.896,6.12,7.956,2.448c2.448-3.672,1.224-11.016,0.612-15.3c-0.612-6.12-1.225-12.24-2.448-18.36
			c-1.225-6.731-1.836-13.464-2.448-20.195c0-2.448,0.612-6.12-1.224-7.956C371.484,430.884,367.812,431.496,367.812,433.944
			L367.812,433.944z"/>
		<path fill="#232323" d="M233.784,301.14c-6.732,6.732,0.612,28.152,10.404,20.196c4.284-3.06,4.284-12.24,3.06-16.524
			C245.412,299.304,238.068,296.856,233.784,301.14L233.784,301.14z"/>
		<path fill="#232323" d="M331.092,304.812c-3.672,4.284-7.344,9.792-5.508,15.912c2.448,6.12,9.18,6.732,14.076,2.448
			c2.448-2.448,6.731-10.404,5.508-14.076C343.944,302.976,335.376,299.304,331.092,304.812L331.092,304.812z"/>
		<path fill="#232323" d="M329.868,301.14c-4.896,4.284-10.404,14.688-6.732,21.42c3.672,7.344,13.464,5.508,15.3,0
			c1.225-3.06,3.061-5.508,4.896-8.568c1.836-2.448,2.448-4.896,1.836-8.568C343.332,298.692,334.764,296.856,329.868,301.14
			L329.868,301.14z"/>
		<path fill="#FFFFFF" d="M266.832,148.14c-4.896,0.612-9.792,2.448-14.076,4.896c-4.284,2.448-7.956,6.732-12.852,8.568
			c-3.672,1.224-6.12,0-9.792,2.448c-2.448,1.836-4.896,3.672-7.344,4.896c-4.284,3.06-6.12,6.12-9.792,9.792
			c-4.896,4.896-12.24,6.732-16.524,12.852c-4.896,6.732-6.732,13.464-9.18,20.808c-2.448,6.732-6.12,15.3-5.508,22.644
			c0,2.448,1.224,5.508,1.224,7.956c0,3.672-3.06,6.732-3.06,10.404c-0.612,6.12,0.612,13.464,0.612,19.584
			c0,4.896,0.612,8.568,1.224,13.464c0.612,5.508-0.612,10.404,0,15.912c0.612,5.508,1.836,10.404,1.836,16.524
			c0,6.12,1.836,9.18,5.508,14.076v-0.612c1.224,1.836,2.448,3.06,3.672,4.896c4.284-12.24,4.284-26.928,4.284-39.78
			c0-6.12,1.836-11.628,3.672-17.136c2.448-6.732,0-13.464,3.06-20.196c3.672-7.344,6.12-14.688,9.18-22.644
			c2.448-6.12,8.568-9.792,12.852-14.688c3.672-4.284,5.508-9.18,8.568-14.076c3.06-5.508,6.12-6.12,12.24-6.12
			c7.344,0,15.3,0.612,22.032-3.672c4.896-3.06,6.732-3.06,12.852-3.06c6.732,0.612,12.24-0.612,18.972-1.224
			c4.284,0,8.567,1.224,12.852,1.836c5.508,0.612,10.404,1.224,15.912,1.224c4.284,0,6.12,0,9.18,3.06
			c3.061,3.06,6.12,5.508,9.792,7.956c6.12,3.06,13.465,3.672,15.301,11.016c2.447,9.18,3.06,15.912,11.016,22.032
			c4.284,3.672,7.956,7.956,12.24,12.24c1.836,1.836,3.672,3.06,4.896,5.508c2.448,4.284,1.836,9.792,3.061,14.076
			c1.224,3.672,3.672,5.508,5.508,8.568c1.836,3.672,1.224,7.344,0.612,11.016c-1.225,8.568-1.225,15.912,1.224,23.868
			c4.896-7.344,14.076-7.344,20.196-13.464c3.06-3.06,3.06-3.06,3.672-7.344c0.611-4.896,4.284-8.568,4.896-13.464
			c0.612-5.508-0.611-11.016-2.447-16.524c-1.225-4.896-0.612-8.568-1.225-13.464c-0.611-6.12-3.672-12.852-5.508-18.36
			c-2.448-6.732-4.284-13.464-6.732-20.196c-1.836-4.284-2.447-7.344-4.896-11.628c-1.224-2.448-1.224-3.672-3.672-4.896
			c-3.061-1.836-6.732-1.224-9.792-3.06c-3.061-2.448-4.896-7.956-7.344-11.016c-2.448-3.672-5.509-7.956-9.792-10.404
			c-6.12-3.672-13.465-3.06-19.585-7.344c-4.283-3.06-8.567-6.12-12.852-7.956c-6.12-2.448-11.628,0.612-17.748-1.224
			c-4.896-1.224-8.568-5.508-13.464-7.344c-5.508-2.448-10.404-1.224-15.912,1.224c-4.896,1.836-7.956,2.448-12.24,0.612
			C280.296,148.14,274.788,147.528,266.832,148.14L266.832,148.14z"/>
		<path fill="#232323" d="M400.86,537.372c-1.225,3.672,7.956,3.06,4.896-0.612C404.532,535.536,400.86,535.536,400.86,537.372
			L400.86,537.372z"/>
		<path opacity="0.2" fill="#B1440A" d="M262.548,112.644c-25.092,3.672-50.184,10.404-73.44,20.196c0,0,0,0,0.612,0
			c-58.752,25.092-108.324,69.768-139.536,126.072C21.42,312.156,9.792,373.356,17.748,432.72
			c4.284,31.212,13.464,61.812,28.152,89.964c7.344,14.076,15.3,28.152,25.092,41.004c3.672,5.509,7.956,10.404,12.24,15.301
			c2.448,3.06,4.896,5.508,7.344,8.567c1.224,1.225,2.448,3.061,3.672,4.284c2.448,1.224,1.836,1.224,4.284-0.612
			c16.524-15.3,33.66-29.987,52.632-41.615c6.732-4.284,13.464-7.956,20.808-11.628c4.896-2.448,9.18-5.509,14.076-8.568
			c5.508-3.061,10.404-6.12,14.076-11.628c1.224-1.836,1.836-3.672,3.06-4.896c0-0.611,2.448-1.224,2.448-1.224
			c1.224-2.448,1.224-7.344,1.836-11.016c1.224-6.732,2.448-13.465,5.508-19.584c2.448-4.896,7.344-7.345,7.956-12.853
			c0.612-4.896,0.612-9.18,0.612-14.076c0-3.672,0.612-6.731-1.836-9.792c-1.224-1.836-1.836-3.06-3.06-4.896
			c-7.344-11.628-12.852-22.032-15.912-36.108c-1.224-5.508-2.448-11.016-3.06-16.524c-0.612-1.836-0.612-4.284-1.224-6.12
			c-0.612-4.284-1.836-3.672-4.896-6.12c-4.896-3.672-9.18-9.792-11.628-15.912c-1.224-3.06-1.836-6.732-1.836-10.404
			c0-2.448,1.836-4.896,1.836-7.344c0-3.672-6.12-7.344-7.344-12.24c-0.612-3.672-0.612-7.344-0.612-11.628
			c0-4.284-2.448-6.732-3.672-10.404c-1.836-6.12-0.612-11.628-0.612-17.748c-0.612-7.344-3.672-14.688-3.672-22.032
			c0-3.672,0.612-6.732,1.224-10.404c0.612-3.672,3.06-7.344,3.672-11.628c0.612-2.448,0-3.672-0.612-6.12
			c-0.612-3.672,0-7.956,0.612-11.628c1.836-7.344,6.732-13.464,9.18-20.196c2.448-6.12,3.06-12.24,6.732-17.748
			c3.06-4.896,7.344-9.18,12.24-12.852c1.836-1.224,4.284-2.448,6.12-4.284c2.448-1.836,3.672-4.896,5.508-7.344
			c4.284-5.508,9.18-10.404,15.912-12.852c6.732-2.448,13.464-1.224,20.196-4.284c5.508-2.448,10.404-6.12,16.524-8.568
			c6.732-2.448,14.688-3.06,22.032-2.448c4.896,0.612,7.956,2.448,12.24,0.612c4.896-3.06,10.404-4.284,17.136-3.672
			c7.344,0.612,12.239,4.284,18.359,7.344c2.448,1.224,3.672,1.224,6.732,1.224c3.06,0,6.731,0.612,9.792,1.224
			c7.344,1.836,12.852,5.508,18.359,10.404c1.836,1.836,3.673,3.672,6.12,4.896c2.448,1.224,5.508,1.224,7.956,2.448
			c12.24,4.896,19.584,18.36,28.765,26.928c4.283,3.672,9.792,4.896,13.464,10.404c4.283,6.12,4.896,12.24,6.731,18.972
			c1.836,5.508,7.344,9.792,9.181,15.912c2.447,7.344,1.836,15.3,0.611,23.256c-0.611,4.896,0.612,9.18,1.836,14.076
			c1.836,7.344,1.836,14.076,0,21.42c-1.224,4.284-2.447,9.18-3.672,13.464c-0.612,2.448-4.284,5.508-4.284,7.956
			c0,1.836,1.225,4.284,1.836,6.12c6.12,24.48-3.06,59.976-23.867,75.276c-3.672,3.06-7.956,5.508-12.853,7.344
			c-1.836,0.612-4.896,0.612-6.12,1.224c-1.836,1.225-3.06,6.732-4.283,9.181c-3.061,6.119-7.345,11.628-9.793,17.748
			c-3.06,6.731-1.224,15.3-0.611,22.644c1.224,8.568,2.448,17.748,3.06,26.316c7.345-3.673,12.24,19.584,13.464,24.479
			c1.836,6.12,3.672,12.24,5.509,18.36c1.224,3.06,1.836,6.731,2.447,9.792c0,1.224,0,3.06,0.612,4.284
			c1.224,3.672,0,0.611,1.836,2.447c1.836-3.06,1.224-6.12,6.12-4.896c4.284,0.611,9.18,4.896,12.852,7.956
			c7.956,6.12,16.524,10.403,26.316,12.852c17.748,5.508,34.272,15.912,48.96,26.928c2.448,1.837,4.896,5.509,7.344,6.732
			c2.448,0.612,1.836,1.224,3.672-1.224c3.061-3.061,5.509-6.12,8.568-9.792c9.18-11.017,17.748-23.256,25.092-35.496
			c15.301-25.092,25.704-52.632,32.437-81.396c12.852-56.304,7.956-116.28-13.464-170.136
			c-21.42-53.244-59.977-99.756-107.712-131.58C398.412,118.764,329.868,104.076,262.548,112.644L262.548,112.644z"/>
	</g>
</g>
</svg>
