<?xml version="1.0" encoding="utf-8"?>
<!-- Generator: Adobe Illustrator 16.0.0, SVG Export Plug-In . SVG Version: 6.00 Build 0)  -->
<!DOCTYPE svg PUBLIC "-//W3C//DTD SVG 1.1//EN" "http://www.w3.org/Graphics/SVG/1.1/DTD/svg11.dtd">
<svg version="1.1" id="Layer_1" xmlns="http://www.w3.org/2000/svg" xmlns:xlink="http://www.w3.org/1999/xlink" x="0px" y="0px"
	 width="602.321px" height="594.732px" viewBox="7.302 107.5 602.321 594.732" enable-background="new 7.302 107.5 602.321 594.732"
	 xml:space="preserve">
<g id="Background">
</g>
<g id="Image_Layer">
</g>
<g id="Draw_Layer">
</g>
<g id="Draw_Layer_1_">
	<path fill="#232323" d="M516.528,635.292c0,0-1.225-1.224-0.612-0.612L516.528,635.292L516.528,635.292z"/>
	<g>
		<path fill="#232323" d="M57.528,224.028C57.528,224.028,57.528,223.416,57.528,224.028L57.528,224.028z"/>
		<path fill="#232323" d="M285.804,302.364c-0.612,0-0.612,0-1.224,0l0,0C283.356,302.976,287.028,302.364,285.804,302.364
			L285.804,302.364z"/>
		<path fill="#232323" d="M330.48,409.464c-2.448,0.612-4.896,1.836-7.345,1.836s-5.508-0.612-7.956-1.224
			c-5.508,0-10.404,2.448-15.912,3.06c-1.836,0.612-15.912-1.224-11.628,4.284c2.448,3.061,12.852,0.612,16.524-0.612
			c3.06-0.611,5.508-1.836,8.568-2.447c3.06,0,5.508,0.611,7.955,1.224c3.673,0.612,6.12-1.224,9.793-1.836
			c3.06-0.612,5.508,0,8.567,0.612c2.448,0.611,15.3,2.447,10.404-3.061C346.392,409.464,334.152,408.852,330.48,409.464
			L330.48,409.464z M297.432,413.748C296.82,414.36,296.82,414.36,297.432,413.748L297.432,413.748z M334.152,414.972
			C334.764,414.972,334.764,414.972,334.152,414.972L334.152,414.972z"/>
		<path fill="#232323" d="M217.26,358.668C217.26,358.056,217.26,358.056,217.26,358.668L217.26,358.668z"/>
		<path fill="#232323" d="M334.764,418.644c-6.731,3.061-12.239,7.956-19.584,5.509c-1.836-0.612-6.12-3.672-7.956-3.061
			c-4.284,1.225,1.225,4.896,2.448,5.508c6.732,3.673,12.853,3.673,19.584,0c1.836-1.224,4.896-2.447,6.12-4.283
			C337.212,421.704,338.436,417.42,334.764,418.644L334.764,418.644z"/>
		<path fill="#232323" d="M286.416,311.544C286.416,312.156,286.416,311.544,286.416,311.544L286.416,311.544z"/>
		<path fill="#232323" d="M373.32,308.484L373.32,308.484L373.32,308.484z"/>
		<path fill="#232323" d="M270.504,328.068c0,0.612-0.612,1.224-1.224,1.836C269.892,329.904,271.728,327.456,270.504,328.068
			L270.504,328.068z"/>
		<path fill="#232323" d="M276.624,323.172c-8.568,5.508-1.224,22.032,8.568,15.3C293.76,331.74,285.192,313.992,276.624,323.172
			L276.624,323.172z"/>
		<path fill="#232323" d="M358.02,322.56c-9.18,5.508-4.283,20.808,6.12,17.748C376.38,336.636,368.424,316.44,358.02,322.56
			L358.02,322.56z"/>
		<path fill="#232323" d="M278.46,320.724c-4.284,0-19.584,3.06-18.36,9.792c0.612,4.896,4.896,3.06,7.344,1.836
			c4.284-2.448,6.732-3.672,11.628-3.06c3.06,0,23.256,7.956,18.36-1.836C294.372,321.948,283.356,320.724,278.46,320.724
			L278.46,320.724z"/>
		<path fill="#232323" d="M354.348,324.396c-3.672,0.612-8.567,2.448-11.016,5.508c-1.836,1.836-3.06,6.12,1.224,6.732
			c3.061,0.612,6.732-3.06,10.404-3.672c4.284-0.612,7.956,0.612,12.24,2.448c3.06,1.224,7.956,4.284,11.016,2.448
			c3.672-1.836,1.836-6.12,0-9.18C371.484,321.336,361.692,322.56,354.348,324.396L354.348,324.396z M347.616,334.8
			C347.616,335.412,347.616,335.412,347.616,334.8L347.616,334.8z"/>
		<path fill="#232323" d="M305.388,309.708c-3.672,1.224-3.672,14.076,0.612,14.076S310.284,308.484,305.388,309.708
			L305.388,309.708z"/>
		<path fill="#232323" d="M282.744,307.26c-4.896,0.612-9.18,1.224-14.076,2.448c-2.448,1.224-11.016,4.284-11.016,7.956
			c0,5.508,7.956,0.612,10.404,0c4.284-1.836,9.18-2.448,14.076-3.06c5.508-0.612,11.016-0.612,16.524,0.612
			c3.06,0.612,9.792,3.06,9.18-3.06C307.224,305.424,287.64,307.26,282.744,307.26L282.744,307.26z M296.82,315.216
			C297.432,315.216,297.432,315.216,296.82,315.216L296.82,315.216z M268.668,317.664
			C268.056,318.276,268.056,318.276,268.668,317.664L268.668,317.664z"/>
		<path fill="#232323" d="M362.304,305.424c-6.12,0.612-13.464,2.448-18.972,6.12c0-2.448-1.836-4.896-4.284-2.448
			c-1.224,1.224-0.612,7.956-0.612,9.792c0,2.448,1.837,7.956,4.896,3.672c1.224-1.836,0-2.448,1.836-3.672
			c1.224-1.224,4.896-1.224,6.732-1.836c4.283-1.224,9.18-1.836,13.464-1.836c3.06,0,8.567,0.612,11.628-1.836
			C383.724,307.26,365.976,304.812,362.304,305.424L362.304,305.424z M360.468,315.828
			C359.856,315.828,359.856,315.828,360.468,315.828L360.468,315.828z"/>
		<path fill="#232323" d="M350.676,409.464c-1.224,0.612-7.344,5.508-4.284,6.732c0.612,0,4.284-1.225,4.896-1.836
			C353.124,412.524,354.348,406.404,350.676,409.464L350.676,409.464z"/>
		<path fill="#232323" d="M348.84,408.852c-1.836,1.836-4.896,3.673-3.672,6.12c1.224,3.061,3.672,1.836,5.508,0.612
			C355.572,412.524,354.96,403.344,348.84,408.852L348.84,408.852z"/>
		<path fill="#232323" d="M353.124,404.568c-1.836,0.611-2.448,1.836-3.672,3.06c-2.448,2.448-1.836,3.06-4.896,3.06
			c-3.06-0.611-5.508-1.836-9.18-1.836s-6.732,1.836-10.404,2.448s-7.344-1.836-11.016-2.448
			c-7.344-1.224-14.688,3.061-22.032,3.673c-8.568,0.611-8.568,7.956,0,7.956c3.672,0,7.344,0,11.016-1.225
			c2.448-0.612,5.508-2.448,7.957-2.448c3.06,0,6.119,1.225,9.18,1.225c4.284,0.611,6.731-1.225,10.404-1.836
			c6.119-1.836,12.239,4.284,18.359,1.224c2.448-1.224,6.732-4.896,7.344-7.344C357.408,407.016,356.184,403.956,353.124,404.568
			L353.124,404.568z"/>
		<path fill="#232323" d="M353.124,397.224c-1.836,0.612-1.224,3.061-1.224,4.284c0,3.672,1.224,3.061-0.612,6.12
			c-0.612,1.224-4.284,4.284-1.836,5.508c1.836,1.225,4.284-3.672,4.896-4.896c0.612,1.836,1.225,4.896,1.836,6.12
			c3.061,3.672,5.509,0.611,4.896-3.061C360.468,408.852,356.796,396,353.124,397.224L353.124,397.224z"/>
		<path fill="#232323" d="M350.676,395.388c-2.448,4.284,2.448,13.463,4.284,17.748c1.224,2.448,6.12,7.956,7.956,2.448
			c1.224-3.06-4.896-12.24-5.508-15.912C356.184,397.224,353.736,390.492,350.676,395.388L350.676,395.388z"/>
		<path fill="#232323" d="M318.24,318.888c0,11.628,1.224,23.256,3.06,34.884c1.225,5.508,1.225,12.24,3.672,17.136
			c1.836,3.672,5.509,4.284,6.732,0c1.224-4.284-2.448-11.628-3.061-15.912c-1.224-6.12-2.447-12.24-3.672-18.36
			c-0.611-4.284-1.224-8.568-1.224-12.852c0-1.836,0.612-6.12-1.224-7.344C320.076,315.828,318.24,316.44,318.24,318.888
			L318.24,318.888z"/>
		<path fill="#232323" d="M304.776,384.372c0,6.12,19.584,4.896,23.868,4.896c2.448,0,8.568,1.224,8.568-3.672
			c0-1.224-1.224-1.836-1.836-2.448s-6.732-1.224-4.284-0.612C327.42,381.924,304.776,377.64,304.776,384.372L304.776,384.372z"/>
		<path fill="#B1440A" d="M293.148,560.016c-6.12,0-5.508,1.225-3.06,6.732c1.836,3.672,3.672,7.344,6.12,11.016
			c5.508,9.181,10.404,17.748,14.688,27.54c3.06-0.611,3.672,1.225,6.119,2.448c1.836,0.612,3.672,0.612,6.12,1.224
			c3.672,0,6.12,1.837,7.956-1.836c2.448-3.672,2.448-9.792,3.672-14.075c1.225-6.12,3.061-12.24,4.284-18.36
			c0.612-3.061,0.612-3.061-2.448-4.896c-3.06-1.224-6.119-1.836-9.18-2.447C315.792,566.136,305.388,560.016,293.148,560.016
			L293.148,560.016z"/>
		<path fill="#B1440A" d="M334.764,612.648c-0.611,0-3.06,2.447-4.283,3.06c-1.837,0.612-3.673,0.612-6.12,0.612
			c-1.836,0-6.12-0.612-7.956,0c-1.836,0.611-3.061,4.283-4.284,6.731c0,0.612-0.612,1.225-1.224,1.836
			c-0.612,3.061-1.837,0.612,0.611,3.672c1.836,1.837,4.284,3.673,6.732,5.509c3.672,2.447,8.567,7.956,12.24,9.18
			c3.672,1.224,10.403-3.672,11.016-7.344c0.612-3.061-3.672-11.017-4.896-13.464C337.212,618.768,335.988,615.708,334.764,612.648
			L334.764,612.648z"/>
		<path fill="#232323" d="M264.996,104.688c-70.38,10.404-135.864,46.512-182.376,99.756C35.496,258.3,8.568,326.844,7.344,398.448
			c-0.612,36.107,5.508,72.828,18.36,107.1c6.12,16.524,13.464,32.437,22.032,47.736c6.732,11.628,15.3,23.256,23.256,34.271
			c17.748,25.093,44.676,48.349,70.38,65.484c29.376,19.584,62.424,33.66,96.696,41.616c39.168,9.18,79.56,9.792,119.34,3.06
			c4.896-0.612,9.18-1.836,13.464-3.672s9.792-2.448,14.076-3.672c9.18-2.448,18.359-4.896,26.928-8.568
			c18.36-6.731,36.108-15.3,52.632-25.092c-1.224,0.612-1.836,1.224,1.225-0.612c17.136-9.18,37.943-26.315,53.855-42.228
			c18.36-18.36,34.884-39.168,48.348-61.2c28.152-47.124,42.841-102.204,41.616-156.672
			c-2.448-109.548-65.483-209.916-161.567-260.1C391.68,105.912,328.032,95.508,264.996,104.688L264.996,104.688z M270.504,121.212
			c47.736-5.508,95.472-1.224,141.372,16.524c47.124,17.748,88.128,48.96,119.34,87.516c64.26,80.172,80.172,194.004,40.393,288.864
			c-21.421,50.796-58.141,95.472-104.652,126.071c0.612-0.611,1.836-1.224,2.448-1.836c-0.612,0.612-1.836,1.225-2.448,1.836
			c1.836-1.224,4.284-2.447,6.12-4.283c3.06-1.836,3.672-1.836,3.672-5.508c0-1.837-0.612-3.673-0.612-5.509
			c-1.224-7.344-2.448-15.3-4.896-22.644c-4.284-11.628-11.017-23.868-18.973-33.66c-17.136-20.196-40.392-31.824-61.199-47.124
			c-4.896-3.672-9.181-7.344-12.853-12.24c-3.672-5.508-3.672-11.016-4.284-17.748c-0.611-3.672-1.224-7.344-1.224-11.628
			c0-1.224,0-3.672,0-4.284c0-0.611-2.448-2.447-2.448-2.447c-0.611-1.836,1.225-8.568,1.836-10.404
			c0.612-4.284,1.225-8.568,1.836-12.852c0.612-6.12,1.836-6.732,5.509-11.629c1.836-2.447,3.06-5.508,4.283-7.955
			c1.225-2.448,1.836-7.956,3.673-9.181c0.611-0.611,7.344-1.224,9.18-1.224c6.12-1.225,10.404-1.836,9.18-9.181
			c-0.612-3.06-1.836-6.119-2.448-9.18c-0.611-1.836-3.06-9.18-2.447-11.016c0,0,3.672-1.224,3.672-0.612
			c1.836-0.612,3.672-2.448,4.896-4.284c1.836-3.06,2.448-7.344,3.061-10.404c0.611-6.12,0-12.852,0-18.972
			c0-6.732-2.448-13.464,0-20.196l0,0c4.896,8.568,9.792-4.284,11.016-7.956c2.448-7.956,3.672-16.524,3.672-25.092
			c0-17.748-1.836-36.72-6.731-53.856c-8.568-32.436-34.885-63.648-68.544-70.992l0,0c3.06-1.224,9.18-1.224,11.628-3.672
			c3.672-3.672-2.448-7.344-4.896-9.18c-9.18-5.508-19.584-6.732-28.764-0.612l0,0c1.224-3.672,3.672-6.732,4.284-10.404
			c1.224-7.956-7.956-6.12-12.24-2.448c-4.896,4.284-7.956,10.404-10.404,16.524c-5.508-7.344-16.524-15.912-26.316-16.524
			c-6.12,0-6.12,4.896-1.836,7.956c2.448,1.836,4.896,3.06,7.344,4.896l0,0c-23.256-1.224-47.736,15.912-62.424,31.824
			c-18.36,19.584-25.704,48.348-28.152,74.664c-1.836,19.584,0,39.168,2.448,58.752c0.612,5.508,2.448,11.016,5.508,14.688
			c1.224,1.836,0.612,0,1.836,2.448c0,0.612,0,1.836,0.612,2.448c0.612,2.448,0.612,4.896,1.224,7.344
			c1.836,6.732,4.284,12.852,7.956,18.972c2.448,3.672,2.448,4.284,1.836,8.568c0,1.224,0,2.448,0,3.06
			c-0.612,3.672-1.224,6.732-2.448,9.792c-0.612,2.448-2.448,5.509-2.448,7.956c0,4.284,3.672,4.896,6.732,1.836l0,0
			c-1.224,4.284-8.568,19.584,1.836,16.524c2.448-0.612,6.12-4.284,8.568-4.284c1.224,0,3.06,1.836,4.896,1.836
			c0,4.896-1.836,9.792-2.448,14.076l0,0c-0.612-3.06-1.836-5.508-2.448-8.568c-7.956,3.061-14.688,12.853-19.584,18.973
			c-5.508,7.956-11.016,15.912-13.464,25.704c-0.612,1.224-0.612,5.508-1.224,6.12c-0.612,0.611-1.836,0-2.448,0.611
			c-3.06,1.225-6.732,1.836-9.792,3.061c-9.18,3.06-19.584,4.283-28.764,8.567c-8.568,3.672-17.136,6.732-25.092,10.404
			c-9.18,3.672-15.912,9.18-23.256,15.912c-12.852,12.852-23.256,28.151-31.212,44.063l0,0
			c-44.676-61.199-61.2-139.535-46.512-212.976C47.124,273.6,89.964,208.116,152.388,166.5
			C187.884,142.632,227.664,127.332,270.504,121.212c-0.612,0-0.612,0-1.224,0C269.892,121.212,269.892,121.212,270.504,121.212
			L270.504,121.212z M322.524,154.872C321.912,154.872,321.912,154.872,322.524,154.872L322.524,154.872z M326.808,222.804
			c-1.836-8.568-6.12-17.136-7.344-25.704c-1.224-5.508-3.672-9.792-3.672-15.912c0-3.06,0-6.12,1.224-9.18
			c0-0.612,3.061-7.956,4.284-7.956c-1.836,7.344,1.836,9.18,7.344,6.12c9.181-4.284,15.301-5.508,24.48-0.612l0,0
			c-4.896,0.612-18.972,2.448-19.584,9.792c0,4.896,5.508,5.508,8.568,6.12c18.359,3.672,34.271,14.076,45.899,28.764
			c11.017,13.464,17.136,28.152,22.032,45.288c2.448,9.18,4.284,18.972,4.284,28.152c0,9.18-1.225,18.972-1.225,28.152
			c-5.508-5.508-7.956,4.284-9.18,7.956l0,0c-0.612-6.12-1.836-12.24-3.06-17.748c-0.612-6.12-3.061-11.016-4.896-16.524
			c-3.672-12.852-9.792-24.479-16.523-36.108c-1.836-3.672-9.181-19.584-14.688-18.972c-1.836,0.612-4.284,5.508-4.896,6.732
			c-1.225,4.284-1.837,8.568-2.448,13.464l0,0c-3.061-7.344-4.284-15.912-7.956-22.644c-1.836-3.06-4.284-6.12-7.956-3.06
			c-3.061,2.448-3.672,10.404-4.896,14.076l0,0c-1.224-3.672-1.836-6.732-3.06-10.404c-0.612-1.836-1.224-4.896-3.06-6.732
			C329.256,224.64,328.032,227.7,326.808,222.804L326.808,222.804z M233.784,206.892c9.18-11.016,21.42-21.42,34.272-27.54
			c6.12-3.06,17.748-7.956,25.092-6.12c2.448,0.612,3.06,2.448,4.896,4.284c2.448,3.06,6.12,4.896,7.956,8.568
			c3.06,6.732,6.12,14.688,7.956,22.032c0.612,3.06,1.836,6.732,1.836,9.792c0,2.448,0.612,2.448-1.836,4.896
			c-2.448,3.061-4.896,5.508-6.732,9.18l0,0c0-1.836-0.611-6.12-2.448-6.732c-3.672-1.224-7.956,5.508-9.792,7.956
			c-6.732,8.568-11.628,18.972-15.912,28.764l0,0c-1.836-6.12,1.836-14.688,3.672-20.808c1.224-3.06,9.18-14.688,2.448-15.3
			c-4.896,0-12.852,7.344-16.524,10.404c-4.896,3.672-9.792,8.568-13.464,12.852c-20.808,25.704-25.092,61.2-27.54,93.636l0,0
			c-1.224-4.896-3.06-10.404-4.284-15.3c-1.224-5.508-1.224-12.24-3.06-17.748c-2.448-6.732-5.508-1.224-7.344,2.448
			c-1.836,4.896-4.284,9.792-6.12,14.688l0,0c-3.672-37.944-1.836-83.232,22.032-115.056l0,0l0,0
			C230.724,210.564,232.56,208.728,233.784,206.892L233.784,206.892z M220.932,211.176
			C220.932,211.788,220.932,211.788,220.932,211.176L220.932,211.176z M303.552,268.704c3.672-1.224,3.672-6.12,3.672-9.18
			c0.612-4.284,1.836-8.568,3.061-12.24c2.448-7.344,4.284-15.3,9.792-21.42c2.448,7.344,4.896,14.076,6.731,21.42
			c0.612,3.672,1.836,6.732,3.061,10.404c1.224,3.06,1.224,6.732,3.06,9.18c1.225,1.836,1.225,2.448,3.672,2.448
			c0.612,0,1.836-0.612,2.448-1.224c2.448-0.612,3.061,0.612,4.284-1.836c1.836-1.836,1.224-6.12,1.224-8.568
			c0-4.284,0.612-7.956,1.225-12.24c1.836,5.508,3.672,11.628,5.508,17.136c1.224,3.672,2.448,15.912,7.956,15.912
			s4.284-7.956,4.896-11.628c0.612-6.732,2.448-13.464,3.672-20.808c7.345,13.464,14.076,29.376,19.584,44.064
			c3.061,7.956,6.12,15.3,7.345,23.868c0.611,8.568,1.224,17.136,2.447,25.704c0.612,2.448-0.611,11.628,1.225,15.3
			c3.06,4.896,4.896-1.836,6.12-4.896c0.611,8.568,3.06,21.42-0.612,29.376c-1.224,3.06-4.284,6.12-7.344,4.284
			c-3.672-1.836-0.612-5.508,0-8.568c0-1.224,1.224-4.284-0.612-4.896c-3.06-0.612-7.956,21.42-9.18,24.48
			c-3.672,11.628-6.12,23.256-11.017,34.272c-3.672,9.18-11.016,15.3-18.359,22.032c-6.732,5.508-17.748,10.404-26.316,12.24
			c-7.956,1.836-16.523,1.836-24.479,1.224c-3.672,0-7.344-0.612-11.016-1.836c-1.836-0.612-3.672-1.836-5.508-2.448
			c-0.612,0-5.508-3.672-3.672-2.448c-7.956-6.119-15.912-12.852-22.644-20.195c-6.12-6.732-14.688-16.524-16.524-24.48
			c-4.284-9.792-4.896-20.808-7.344-31.212c-0.612-1.836-1.836-14.076-3.672-14.688c-4.284-1.224-1.836,10.404-1.224,12.852
			c-2.448-0.612-3.672,0.612-6.12-0.612c-2.448-1.836-4.284-5.508-5.508-8.568c-2.448-4.284-4.896-9.792-6.12-13.464
			c-2.448-6.12-3.06-12.852-4.896-19.584c-1.224-4.284-1.224-4.284,0.612-7.956c1.224-3.672,2.448-5.508,3.672-8.568
			c0,7.956,3.672,16.524,5.508,23.868c1.224,4.284,1.836,16.524,7.344,17.748c6.12,1.224,6.732-13.464,7.956-17.748
			c1.836-7.344,3.672-15.3,4.284-23.256c1.836-17.136,4.284-34.884,11.016-50.796c2.448-6.12,4.896-12.852,9.18-18.36
			c4.284-5.508,10.404-9.792,15.3-14.076c-3.06,8.568-4.284,17.136-4.896,25.704c0,2.448-2.448,19.584,4.896,16.524
			c2.448-0.612,3.06-6.12,3.672-8.568c1.836-4.284,3.06-8.568,5.508-12.852c3.672-7.956,7.956-15.912,14.076-22.644
			C298.656,243.612,294.372,271.152,303.552,268.704L303.552,268.704z M222.768,395.388c1.224-3.672,1.836-7.344,1.836-11.016
			c3.06,2.448,7.956,6.12,12.24,3.672c1.836,8.568,0,17.748,0,26.316c-0.612-0.612-3.672-1.225-3.06-1.836
			c-2.448,1.836-7.344,3.06-10.404,4.896c0.612-2.448,6.12-20.196-2.448-15.3C221.544,399.672,222.156,397.836,222.768,395.388
			L222.768,395.388z M392.292,396.612c0.612-2.448,1.224-4.284,1.224-6.732c3.061,3.06,3.061,12.24,4.284,16.524
			c1.224,7.344-4.284,4.896-9.792,6.731C389.844,407.628,391.068,402.12,392.292,396.612L392.292,396.612z M291.924,545.94
			c3.672-5.509,3.672-7.956,0.612-13.465c-3.06-5.508-6.732-11.016-10.404-15.911c-7.956-11.017-15.3-22.645-22.644-33.66
			c-3.672-4.896-7.344-10.404-11.016-15.3c-3.06-4.896-8.568-11.017-9.792-16.524c-1.224-4.284,1.836-13.464,1.836-18.36
			c0.612-7.344,0.612-15.3,1.224-22.644c1.836,6.731,4.284,13.464,7.956,19.584c3.672,6.12,7.956,11.016,12.24,16.523
			c-1.224-1.224-0.612-0.611,0.612,1.225c0.612,1.224,1.836,2.448,2.448,3.06c1.836,2.448,3.672,4.284,5.508,6.12
			c3.672,3.672,7.344,6.12,11.628,8.568c9.18,4.284,18.36,7.344,28.765,8.567c20.808,1.225,42.84-7.956,56.304-23.867
			c-3.061,14.075-6.732,27.54-9.181,41.004c-1.836,7.956-2.447,15.912-4.283,23.256c-1.836,7.956-9.181,15.3-13.464,21.42
			c1.836-2.448-2.448,3.06-2.448,3.06c-1.225,1.225-2.448,3.061-3.672,4.284c-3.061,3.061-5.509,6.12-8.568,9.18
			c-3.06,2.448-5.508,4.896-9.18,5.509c-1.836,0-4.896-0.612-6.732-1.225c-7.956-1.836-15.912-3.672-24.48-2.447
			C288.252,550.836,290.088,548.388,291.924,545.94L291.924,545.94z M375.768,431.496
			C375.768,432.108,375.768,432.108,375.768,431.496L375.768,431.496z M25.092,438.228L25.092,438.228L25.092,438.228z
			 M243.576,566.748c-5.508-23.868-23.256-42.84-31.824-66.096c-8.568-22.645,1.836-44.064,17.136-61.2
			c1.224,15.912,12.852,30.6,22.032,42.84c9.792,13.464,18.972,27.54,29.376,41.004c2.448,3.06,4.896,6.12,6.732,9.792
			c1.224,1.224,3.672,4.284,3.672,6.12c0,3.06-7.344,9.792-9.18,11.628c-6.12,5.508-12.852,10.404-18.972,15.912
			s-11.016,12.24-17.136,17.748c0,0-0.612-6.12-0.612-3.061C245.412,576.54,244.8,571.644,243.576,566.748L243.576,566.748z
			 M362.916,449.856L362.916,449.856L362.916,449.856z M291.924,461.484C292.536,462.096,292.536,462.096,291.924,461.484
			L291.924,461.484z M197.676,478.008c1.224,0,1.836-0.611,3.06-0.611C200.124,477.396,198.288,478.008,197.676,478.008
			L197.676,478.008z M200.736,486.576c1.836-0.612,4.284-1.836,4.284-4.896c0,3.061-3.672,4.284-6.12,5.508
			C200.124,486.576,200.124,486.576,200.736,486.576L200.736,486.576z M343.332,545.328c6.732-8.568,14.076-17.136,17.136-27.54
			c3.061-11.017,4.284-22.645,6.732-33.66c0.611,18.36,1.224,35.496,6.12,53.244c4.896,17.748,12.239,33.66,18.359,50.796
			c-4.284-5.508-8.567-11.628-12.239-17.748c-3.061-4.896-4.896-10.404-8.568-14.688c-7.956-7.956-25.092-1.837-34.884-1.225
			C338.436,551.448,340.884,548.388,343.332,545.328L343.332,545.328z M197.676,487.8C196.452,487.8,196.452,487.8,197.676,487.8
			L197.676,487.8z M159.12,500.652c1.836-1.225-3.672,1.836-3.06,1.224C157.284,501.264,157.896,501.264,159.12,500.652
			L159.12,500.652z M159.12,500.652C158.508,500.652,158.508,500.652,159.12,500.652L159.12,500.652z M44.676,511.668
			C45.288,511.668,45.288,511.668,44.676,511.668L44.676,511.668z M375.156,512.28c0,1.224,0.611,2.447,0.611,3.672
			C375.768,514.728,375.156,513.504,375.156,512.28L375.156,512.28z M288.252,544.104L288.252,544.104L288.252,544.104z
			 M337.824,554.508C336.6,554.508,336.6,554.508,337.824,554.508L337.824,554.508z M293.76,613.26
			c-10.404-9.18-20.196-18.972-29.376-29.376c-0.612-0.612-3.672-3.06-3.672-4.284c0-1.836,3.06-4.283,4.284-6.119
			c4.896-5.509,10.404-9.793,15.912-14.688c-2.448,11.016,7.344,25.092,12.24,33.66c3.06,4.896,5.508,9.792,8.568,14.688
			c0.612,1.225,3.672,4.284,3.672,5.509c0,1.224-3.06,5.508-3.672,7.344C298.656,617.544,296.208,615.096,293.76,613.26
			L293.76,613.26z M288.864,560.016C288.252,560.016,288.252,560.016,288.864,560.016L288.864,560.016z M310.896,605.916
			c-5.508-12.852-13.464-23.868-19.584-36.72c-0.612-1.225-3.672-7.345-3.06-8.568c0.612-0.612,3.672-0.612,4.896-0.612
			c6.732,0,12.852,2.448,19.584,3.672c5.508,1.225,10.403,3.061,15.911,3.673c2.448,0.611,7.345,1.224,9.181,3.06
			s0.611,3.061,0,5.508c-1.836,6.12-2.448,12.853-3.672,18.973c-0.612,4.283-1.836,11.628-3.672,14.075
			c-0.612,0.612-0.612,0.612-1.225,0.612c-1.224,0-7.344,0-9.792-0.612C316.404,608.364,314.568,605.304,310.896,605.916
			L310.896,605.916z M288.252,560.628L288.252,560.628L288.252,560.628z M231.336,560.628
			C231.948,560.628,231.948,560.628,231.336,560.628L231.336,560.628z M288.252,560.628L288.252,560.628L288.252,560.628z
			 M362.304,562.464C363.528,562.464,363.528,562.464,362.304,562.464L362.304,562.464z M345.78,624.888
			c-1.836-5.508-4.284-11.016-6.12-16.523c-1.836,0-1.836-0.612-1.225-1.836c0.612-1.225,0.612-2.448,1.225-3.672
			c0.611-2.448,1.836-5.509,2.448-7.956c1.836-7.345,9.18-22.032,2.447-28.765c3.672-1.224,7.956-2.448,11.628-3.06
			c1.836,0,6.732-1.225,7.956-0.612c6.12,3.672,1.836,14.688,0,19.584c-4.896,15.912-7.344,31.824-16.523,46.512
			C346.392,627.336,346.392,626.112,345.78,624.888L345.78,624.888z M363.528,562.464
			C364.14,563.076,364.14,563.076,363.528,562.464L363.528,562.464z M369.648,567.36L369.648,567.36L369.648,567.36z
			 M369.036,567.36L369.036,567.36L369.036,567.36z M369.036,567.36L369.036,567.36L369.036,567.36z M84.456,571.644
			C84.456,571.644,85.068,572.868,84.456,571.644L84.456,571.644z M373.932,572.868c0,1.224,0,1.836,0,3.06
			C373.932,574.704,373.932,573.48,373.932,572.868L373.932,572.868z M373.932,578.376
			C373.932,578.376,373.932,578.988,373.932,578.376L373.932,578.376z M364.752,582.66c0,1.224,0,2.448-0.612,3.672
			C364.14,585.108,364.14,583.884,364.752,582.66L364.752,582.66z M253.98,585.72c0,0.612,0,0.612-0.612,0.612
			C253.368,586.332,253.98,586.332,253.98,585.72L253.98,585.72z M369.648,591.228C369.036,591.228,369.036,591.228,369.648,591.228
			L369.648,591.228z M369.036,591.228L369.036,591.228L369.036,591.228z M330.48,608.976
			C329.868,609.588,329.868,609.588,330.48,608.976L330.48,608.976z M326.808,616.32c1.836,0,4.284,0,5.509-1.225
			c0.611,0,1.836-1.836,2.447-1.836c1.225,0,3.061,9.181,3.061,9.792c1.224,3.061,4.896,9.792,4.284,12.853
			c-0.612,2.447-6.12,6.731-8.568,7.344c-5.508,1.224-14.076-7.956-18.36-11.628c-1.224-0.612-2.447-1.836-3.672-3.061
			c-1.836-1.836-1.836-0.611-1.224-3.06c0.612-1.836,2.448-4.284,3.06-6.12c1.225-3.06,1.225-2.448,3.672-2.448
			C321.3,615.708,324.36,616.32,326.808,616.32L326.808,616.32z M461.448,623.664C461.448,623.664,461.448,624.276,461.448,623.664
			L461.448,623.664z M466.344,640.188l-0.611,0.612C465.732,640.8,466.344,640.8,466.344,640.188L466.344,640.188z M477.972,647.532
			C477.972,648.144,477.972,648.144,477.972,647.532L477.972,647.532z M476.136,648.756
			C476.136,649.368,476.136,649.368,476.136,648.756L476.136,648.756z M474.912,649.98C474.3,650.592,474.3,650.592,474.912,649.98
			L474.912,649.98z M473.076,651.204C472.464,651.204,472.464,651.204,473.076,651.204L473.076,651.204z M429.012,661.608
			c-3.06,1.224-6.12,3.06-9.792,4.283C422.28,664.668,425.34,662.832,429.012,661.608L429.012,661.608z M419.832,665.892
			L419.832,665.892L419.832,665.892z M347.616,685.476C347.004,685.476,346.392,685.476,347.616,685.476L347.616,685.476z"/>
		<path fill="#FFFFFF" d="M321.3,165.276c-11.016,17.136-0.612,33.66,3.672,50.796c0.612,2.448,1.225,4.284,1.836,6.732
			c0.612,0.612,0.612,1.224,0.612,2.448c0,1.836,0.612,1.836,2.448,1.224c1.224,0.612,1.836,0.612,3.06,1.836
			c3.672,3.672,4.284,11.628,5.508,16.524c0.612-3.672,1.225-10.404,4.284-13.464c3.061-3.672,6.732-0.612,7.956,2.448
			c3.672,7.344,4.896,15.3,7.956,22.644c1.225-3.672,2.448-24.48,10.404-18.972c5.508,4.284,9.792,14.688,13.464,20.808
			c11.628,20.808,18.972,42.84,22.032,66.708c1.224-3.672,3.672-14.076,9.18-7.956c0.612,0,1.224-24.479,1.224-26.316
			c0-9.18-1.836-19.584-4.283-28.764c-4.284-17.136-11.017-32.436-22.032-46.512c-11.017-14.076-26.928-25.092-44.676-28.764
			c-3.672-0.612-9.181-1.224-9.792-5.508c-1.225-7.956,14.688-9.792,18.972-10.404c-9.18-6.12-16.524-3.06-25.092,0.612
			c-2.448,1.224-4.896,2.448-6.732,0C320.076,169.56,321.3,167.112,321.3,165.276L321.3,165.276z"/>
		<path fill="#FFFFFF" d="M288.252,173.844c-24.48,3.672-44.064,20.196-59.364,39.168l0.612-0.612
			c-23.868,31.824-26.316,77.724-22.032,115.668c1.836-4.896,4.284-9.792,6.12-14.688c1.836-3.672,4.896-9.18,7.344-2.448
			c1.836,5.508,1.836,11.628,3.06,17.748c1.224,5.508,2.448,10.404,4.284,15.3c3.06-32.436,6.12-67.32,27.54-93.636
			c4.284-4.896,8.568-9.18,13.464-12.852c3.672-3.06,11.016-10.404,15.912-10.404c7.344,0-0.612,10.404-1.836,14.076
			c-1.836,6.12-5.508,15.3-3.672,22.032c4.896-10.404,8.568-20.196,15.912-28.764c1.836-2.448,6.12-8.568,9.792-7.956
			c2.448,0.612,3.06,4.896,3.06,6.732c1.224-2.448,3.06-4.896,4.896-6.732c1.225-1.224,3.672-3.672,4.284-4.896
			c0.612-1.836-0.612-6.12-0.612-7.344c-0.611-3.672-1.836-7.344-3.06-10.404c-1.836-4.896-4.284-9.792-5.508-14.688
			c-1.225-4.284-4.284-5.508-7.344-8.568C295.596,175.68,294.372,173.232,288.252,173.844L288.252,173.844z"/>
		<path opacity="0.2" fill="#B1440A" d="M309.672,118.764c-13.464,0-26.928,0.612-39.78,2.448h0.612
			c-73.44,10.404-142.596,50.796-186.66,110.772c-45.288,60.588-64.872,137.7-53.244,212.364
			c6.732,41.616,22.644,81.396,45.9,116.28c9.18-15.912,18.36-31.212,31.212-44.063c7.344-7.345,14.688-12.24,23.868-16.524
			c4.284-1.836,7.956-3.06,12.24-4.284c4.896-1.224,8.568-3.672,12.852-6.12c8.568-3.672,18.36-5.508,27.54-8.567
			c3.06-1.225,7.344-1.225,10.404-3.061c0.612,0,1.224,0,1.836-0.611c0.612-1.225,1.224-5.509,1.224-7.345
			c2.448-9.18,7.344-17.136,12.852-24.479c4.896-6.732,11.628-16.524,19.584-18.973c0.612,3.061,1.224,6.12,2.448,8.568
			c1.224-4.896,2.448-9.792,2.448-14.076c-3.06,0-4.284-1.224-6.732-0.611c-3.06,0.611-4.896,3.672-8.568,3.672
			c-7.344,0-0.612-13.464,0-17.137c-9.18,7.956-6.12-5.508-4.896-9.18c1.224-4.896,2.448-9.792,3.06-14.688
			c0.612-3.672,0-4.284-1.836-7.956c-1.224-2.448-3.06-4.896-4.284-7.344c-3.06-6.12-4.284-12.24-5.508-18.972
			c-0.612-1.836-0.612-2.448-1.224-3.672c-1.224-1.836-2.448-3.06-3.672-5.508c-1.224-2.448-1.836-5.508-2.448-7.956
			c-3.06-17.748-4.284-36.72-3.06-55.08c1.836-25.704,7.956-53.856,23.868-74.664c14.688-19.584,42.228-39.78,67.932-38.556
			c-2.448-2.448-18.36-11.016-6.732-12.852c4.284-0.612,9.792,3.06,13.464,4.896c5.508,3.06,9.792,6.732,13.464,11.628
			c3.672-5.508,5.508-11.628,11.016-16.524c4.284-3.672,12.853-5.508,12.24,2.448c-0.611,3.672-3.06,7.344-4.284,10.404
			c9.792-5.508,19.584-5.508,29.376,0.612c3.061,1.836,9.181,6.12,4.284,9.792c-2.447,1.836-7.956,1.836-11.016,3.06
			c34.271,7.956,59.976,37.944,69.156,71.604c4.896,17.136,6.12,35.496,6.12,53.244c0,8.568-1.225,17.136-3.673,25.092
			c-1.224,3.672-6.731,16.524-11.016,7.956c-3.672,11.016,9.792,53.856-11.016,55.08c1.224,6.12,2.447,12.853,4.283,18.972
			c1.225,3.673,1.225,6.732-2.447,9.181c-2.448,1.224-7.345,1.224-10.404,1.836c-1.224,0-2.448,0-3.06,0.612
			c-3.061,1.224-0.612-0.612-2.448,1.836c-1.225,1.224-1.836,4.283-2.448,6.119c-1.836,4.896-4.896,9.793-7.956,14.076
			c-2.448,3.061-2.448,5.509-2.448,9.792c-0.611,6.12-3.06,12.853-3.06,18.973c0,2.447,0.612,1.836,1.836,4.283
			c1.224,2.448,0.612,7.956,1.224,11.017c0.612,4.284,0.612,11.016,1.836,15.912c1.225,4.896,4.896,9.18,9.181,12.852
			c6.731,6.732,15.3,11.628,23.256,17.136c17.136,11.017,34.271,22.032,47.124,38.557c7.344,9.792,14.076,21.42,17.748,33.66
			c2.447,6.731,3.672,14.075,4.283,20.808c0,1.836,1.225,4.284,0.612,6.12c-0.612,3.06-6.731,6.12-9.792,7.956
			C548.352,587.556,594.864,492.084,593.028,396s-55.08-187.272-136.477-236.844C412.488,132.84,361.08,118.764,309.672,118.764
			L309.672,118.764z"/>
	</g>
</g>
</svg>
