<?xml version="1.0" encoding="utf-8"?>
<!-- Generator: Adobe Illustrator 16.0.0, SVG Export Plug-In . SVG Version: 6.00 Build 0)  -->
<!DOCTYPE svg PUBLIC "-//W3C//DTD SVG 1.1//EN" "http://www.w3.org/Graphics/SVG/1.1/DTD/svg11.dtd">
<svg version="1.1" id="Layer_1" xmlns="http://www.w3.org/2000/svg" xmlns:xlink="http://www.w3.org/1999/xlink" x="0px" y="0px"
	 width="586.047px" height="587.387px" viewBox="16.561 108.119 586.047 587.387"
	 enable-background="new 16.561 108.119 586.047 587.387" xml:space="preserve">
<g id="Background">
</g>
<g id="Image_Layer">
</g>
<g id="Draw_Layer">
</g>
<g id="Draw_Layer_1_">
	<g>
		<path fill="#232323" d="M258.876,303.588l0.612-0.612C259.488,302.976,259.488,303.588,258.876,303.588L258.876,303.588z"/>
		<path fill="#232323" d="M256.428,273.6c-4.284,1.836-7.956,4.896-11.628,7.956c-1.836,1.224-6.12,3.672-4.284,7.344
			c3.06,4.896,8.568-0.612,11.016-2.448c4.284-3.06,7.344-6.12,12.852-5.508c4.284,0.612,9.18,2.448,13.464,3.672
			c2.448,0.612,10.404,3.672,12.852,1.836c4.284-3.672-3.06-6.12-5.508-7.344C276.624,276.048,264.384,269.928,256.428,273.6
			L256.428,273.6z M246.636,279.72L246.636,279.72L246.636,279.72z M244.8,280.944C245.412,280.944,245.412,280.944,244.8,280.944
			L244.8,280.944z"/>
		<path fill="#232323" d="M348.84,266.868c-6.12,0.612-11.016,4.284-16.523,7.344c-3.061,1.836-12.853,4.896-12.853,8.568
			c-0.612,6.12,7.956,1.224,10.404,0.612c5.508-2.448,11.016-6.732,16.523-8.568c5.509-1.224,9.792,1.224,14.076,3.672
			c3.061,1.836,11.017,7.956,14.076,3.06C378.828,273.6,353.736,266.256,348.84,266.868L348.84,266.868z"/>
		<path fill="#232323" d="M336.6,368.46c-4.896,1.224-9.792,0-14.688,0.612c-5.508,0.612-9.792,1.224-15.3,1.224
			c-4.896,0-9.792,1.836-14.688,2.448c-2.448,0-7.344-1.224-9.18-0.612c-2.448,1.224-1.836,3.06,0.612,3.672
			c4.896,0.612,9.792,0.612,15.3-0.612c5.508-1.224,11.016,1.224,16.524,0c2.448-0.612,4.284-1.224,7.345-1.224
			c3.06,0,6.119,0.612,9.18,0.612c1.836,0,6.12,0,7.344-2.448C339.66,370.908,339.048,368.46,336.6,368.46L336.6,368.46z
			 M318.852,374.58L318.852,374.58L318.852,374.58z M317.016,375.192L317.016,375.192L317.016,375.192z M304.164,375.192
			L304.164,375.192L304.164,375.192z M282.744,375.804L282.744,375.804L282.744,375.804z"/>
		<path fill="#232323" d="M312.732,299.916c0,9.792-1.225,20.808,4.283,29.376c1.225,1.836,11.628,13.464,12.853,10.404
			c0.612-1.836-6.12-6.732-7.344-8.568c-3.061-3.672-4.896-6.732-6.12-11.628c-0.612-4.284-0.612-8.568-1.225-12.852
			c0-1.224,0.612-5.508,0-6.732C314.568,298.692,312.732,296.856,312.732,299.916L312.732,299.916z M315.792,317.052
			L315.792,317.052L315.792,317.052z M320.688,328.68L320.688,328.68L320.688,328.68z"/>
		<path fill="#232323" d="M297.432,347.652c0,5.508,26.928,4.284,26.928-0.612s-12.24-2.448-15.301-2.448
			C306.612,344.592,297.432,342.144,297.432,347.652L297.432,347.652z"/>
		<path fill="#232323" d="M334.152,369.072c-3.672,3.06,1.224,7.344,4.896,3.06C343.332,367.848,337.824,366.624,334.152,369.072
			L334.152,369.072z"/>
		<path fill="#232323" d="M280.296,372.132c-3.06,0.612,1.836,4.896,3.06,3.06C285.804,373.968,282.132,371.52,280.296,372.132
			L280.296,372.132z"/>
		<path fill="#232323" d="M277.848,371.52c-1.836,3.672,6.12,8.568,7.344,3.672C286.416,372.744,279.684,368.46,277.848,371.52
			L277.848,371.52z"/>
		<path fill="#232323" d="M304.164,366.012c-0.612,0-1.836,0.612-2.448,0.612c1.836-0.612-4.284,1.836-3.672,1.836
			c-0.612,0.612-1.836,0.612-2.448,1.224c-1.224,0.612-7.956,2.448-6.12,4.284c1.836,2.448,11.016-3.06,13.464-3.06
			c2.448,0,4.284,1.836,7.344,1.224c4.896-0.612,3.672-1.836,8.567-0.612c1.836,0.612,7.345,1.836,7.956-1.224
			c1.225-3.672-6.12-3.672-7.956-3.672c1.836,0-3.06-0.612-3.06-0.612c-1.836,0-2.448,0-4.284,0
			C309.672,366.624,306.612,366.012,304.164,366.012L304.164,366.012z"/>
		<path fill="#232323" d="M267.444,291.348c-4.896,4.284,1.224,16.524,7.344,10.404
			C279.684,297.468,272.952,287.064,267.444,291.348L267.444,291.348z"/>
		<path fill="#232323" d="M337.824,288.288c-4.284,6.732,4.896,17.748,11.016,10.404C354.96,291.348,343.332,279.72,337.824,288.288
			L337.824,288.288z"/>
		<path fill="#232323" d="M269.28,290.736c-6.732,3.06-3.672,16.524,4.284,15.3C282.744,304.812,278.46,286.452,269.28,290.736
			L269.28,290.736z"/>
		<path fill="#232323" d="M274.176,291.96c-4.284,0.612-18.36,4.284-18.36,9.792c0,6.732,14.688-2.448,18.36-2.448
			c3.672-0.612,15.912,4.896,15.912-0.612C290.088,292.572,277.848,291.348,274.176,291.96L274.176,291.96z"/>
		<path fill="#232323" d="M339.048,288.9c-3.672,0.612-19.584,8.568-9.18,11.628c3.06,1.224,6.12-1.224,9.18-3.06
			c3.672-1.836,7.344-1.836,11.017-1.224c2.447,0.612,6.731,3.06,9.18,2.448c3.672-0.612,3.672-3.672,1.836-6.12
			C356.184,286.452,345.168,286.452,339.048,288.9L339.048,288.9z M356.184,290.736
			C357.408,290.736,356.184,290.736,356.184,290.736L356.184,290.736z"/>
		<path fill="#232323" d="M268.668,289.512c-8.568,1.836-5.508,22.032,3.672,18.972C281.52,306.036,277.848,287.676,268.668,289.512
			L268.668,289.512z"/>
		<path fill="#232323" d="M339.66,288.288c-1.225,4.284-3.061,10.404,1.224,14.076c3.672,3.06,9.181,2.448,11.017-2.448
			c1.224-3.06-0.612-4.284-1.225-6.732c-0.611-2.448,1.225-4.284,0-6.732C348.228,282.78,340.884,283.392,339.66,288.288
			L339.66,288.288z"/>
		<path fill="#B1440A" d="M283.356,475.56c-7.344,1.225-8.568,3.673-10.404,10.404c-2.448,7.344-3.672,15.912-4.284,23.256
			c-0.612,7.345,3.672,6.732,9.792,9.181c4.284,1.836,6.12,4.283,9.18,2.447s6.12-11.628,7.344-14.688
			c1.836-5.508,4.896-12.853,4.284-18.36C298.656,479.232,291.312,474.948,283.356,475.56L283.356,475.56z"/>
		<path fill="#B1440A" d="M268.668,522.684c-1.836,3.672-3.06,6.732-4.896,10.404c-1.836,4.896-6.12,10.404-6.732,15.3
			c0,2.448,1.224,4.896,1.224,7.345c1.224,4.896,1.836,9.791,2.448,15.3c4.896-1.836,9.792-6.12,14.688-8.568
			c3.06-1.836,6.12-3.06,8.568-4.896c4.896-3.061,3.06-5.509,2.448-11.017c0-4.284,0-9.18,0-13.464c0-6.12,0-4.896-4.896-6.12
			C279.072,526.356,269.892,521.46,268.668,522.684L268.668,522.684z"/>
		<path fill="#232323" d="M282.132,109.584C160.344,120.6,54.468,211.176,25.092,330.516c-15.3,61.2-9.792,127.295,14.688,185.436
			c23.256,55.08,63.648,100.979,113.22,132.804c50.184,32.437,109.548,48.96,168.912,46.512
			c58.752-2.447,116.892-23.256,164.016-58.752c96.696-72.828,139.536-201.96,104.652-318.24
			c-16.524-55.692-50.185-105.876-94.86-142.596c-47.124-39.78-105.876-62.424-167.076-66.708
			C313.344,107.748,297.432,107.748,282.132,109.584L282.132,109.584z M89.964,574.092c-64.872-84.456-75.888-201.348-27.54-296.208
			c48.96-94.248,148.104-153.612,254.592-151.776c59.977,1.224,117.504,22.032,164.628,58.14c0,0,0,0-0.611-0.612
			c28.151,22.032,52.632,48.96,70.38,80.172c18.359,31.824,29.376,66.708,35.496,102.204c3.06,34.272,3.06,67.32-4.896,101.591
			c-8.567,36.721-24.479,70.992-47.124,101.593l0,0c0.612-6.12-1.224-12.853-2.447-18.973c-1.225-6.731-1.837-12.852-3.673-18.972
			c-3.06-12.24-7.956-26.928-15.911-36.72c-9.181-12.24-22.032-22.032-34.885-30.601c-12.852-8.567-26.928-11.628-40.392-17.748
			c-3.06-1.224-6.12-3.06-8.568-5.508c-0.611-0.611-4.283-3.672-4.896-4.284c0-1.224,2.448-6.12,3.06-7.344
			c5.508-14.076,7.956-28.764,9.792-43.452c1.836-15.912,2.448-31.824,0-47.124c-1.836-12.24-4.896-24.48-7.344-36.72
			c-3.06-15.912-4.284-32.436-9.792-47.736c-2.448-7.344-6.12-14.076-9.18-21.42c-11.628-25.704-23.256-55.08-48.349-70.992
			c-5.508-3.672-13.464-8.568-20.195-7.344c-0.612,0-1.225,1.224-1.836,1.836c-0.612,0-3.673-1.224-4.284-1.836
			c-3.672-3.06-7.345-3.672-11.628-3.672c-6.12,0-12.24,1.224-17.748,1.224c-7.957,0.612-15.3,1.224-23.256,3.06
			c-30.6,6.732-56.916,29.376-74.052,54.468c-15.912,23.256-22.032,50.184-26.928,77.724c-2.448,12.24-4.896,23.868-6.732,36.108
			c-0.612,3.672-0.612,7.344-1.224,11.016c0,1.224-1.836,3.06-0.612,4.896c1.836,2.448,4.896,0.612,6.12-0.612l0,0
			c-2.448,9.792-3.672,18.36-8.568,27.54c-6.12,11.016,6.732,3.672,11.016-0.612l0,0c3.06,18.36,8.568,36.108,12.24,53.856
			c1.836,10.404,3.672,20.809,4.896,31.824c0.612,5.508,1.224,10.404,1.224,15.912c0,3.06,1.224,6.731,0,9.792
			c-1.836,6.731-9.792,14.688-14.076,20.196c-5.508,7.955-11.628,15.3-16.524,23.256c-11.016,15.912-20.196,31.823-25.704,50.184
			c-4.896,17.136-5.508,35.496-4.896,53.244l0,0C120.564,609.588,104.04,592.452,89.964,574.092L89.964,574.092z M305.388,582.66
			c-0.612,0-1.224,0-1.836,0c0,0,0.612,0,0,0c28.765-7.956,39.168-37.332,41.004-63.648c1.225-16.523-0.611-32.436,4.896-48.348
			c5.508-14.076,12.852-26.928,20.808-39.78c7.345-12.24,14.688-23.868,18.36-37.944c3.672-15.3,6.12-31.824,7.344-47.124
			c1.836-18.36,3.061-37.332,0.612-55.692c-1.836-15.912-7.956-29.988-16.524-43.452c-5.508-8.568-11.016-17.748-18.972-23.868
			c-5.508-4.284-12.24-8.568-13.464-15.912c-1.225-9.18,0.611-18.36,0-27.54c0-1.224-1.225-19.584-2.448-19.584
			c9.792,4.284,20.196,10.404,27.54,18.972c3.672,4.284,7.344,9.18,10.404,14.076c11.016,14.076,16.523,31.824,23.256,47.736
			c3.06,8.568,6.12,16.524,8.567,25.092c3.061,14.076,4.284,28.764,7.345,42.84c5.508,23.868,7.956,47.124,6.731,72.216
			c-0.611,14.076-0.611,29.376-5.508,42.84c-3.672,11.628-10.404,20.196-17.136,29.988c-8.568,12.239-15.912,25.704-20.809,39.779
			c-4.896,14.076-5.508,28.765-10.403,42.841C367.2,563.688,335.988,585.72,305.388,582.66L305.388,582.66z M318.852,159.156
			c4.896-0.612,10.404-0.612,15.301,1.224c1.836,0.612,4.283,1.836,6.119,2.448c2.448,1.224,2.448,1.224,2.448,4.284
			c1.225,5.508,1.225,10.404,1.225,15.912c0,3.672-0.612,4.896-3.061,7.344c-5.508,6.12-11.628,11.628-18.359,15.912
			c-3.061,2.448-6.732,5.508-11.017,6.12c-7.344,1.836-17.136,0-24.48,1.224c-6.732,0.612-12.852,0-19.584,0.612
			c-7.956,0.612-14.076,2.448-21.42,5.508c-8.568,3.06-15.3,4.896-22.032,12.24l0,0c0-2.448,0-12.24-3.06-12.852
			c-1.836,0-4.896,4.284-6.12,5.508c-3.672,3.06-3.672,5.508-2.448,9.792c0.612,1.836,1.224,3.672,1.224,4.896
			c0,0.612-1.224,1.224-1.224,1.224c-0.612,2.448-1.224,4.896-2.448,7.344c-2.448,9.18-4.284,18.36-6.12,27.54
			c-3.06,16.524-4.284,33.66-8.568,49.572c-3.672,14.688-7.344,31.212-21.42,40.392l0,0c1.836-6.12,5.508-12.24,6.732-18.972
			c0.612-3.672,1.224-6.732,1.836-10.404c0-1.224,2.448-11.016-1.224-9.18l0,0c5.508-15.3,7.344-32.436,11.016-47.736
			c3.672-16.524,7.956-33.048,13.464-49.572c3.672-12.24,10.404-20.808,20.808-29.376c11.016-9.18,22.032-18.36,33.66-25.704
			c8.568-5.508,17.748-8.568,27.54-11.628c5.508-1.224,11.016-2.448,15.912-3.06c2.448-0.612,4.284-0.612,6.732-0.612
			C312.732,159.768,317.016,160.38,318.852,159.156L318.852,159.156z M270.504,222.804c12.24,0,24.48-0.612,36.72-1.836
			c7.345-0.612,13.464-3.06,18.973-7.344c6.12-4.284,12.239-7.956,15.912-14.688c0,9.792,3.06,17.136,9.792,23.868
			c4.283,4.284,9.18,7.344,12.852,12.24c3.06,3.672,5.508,7.956,7.956,11.628c6.12,9.792,11.016,20.196,13.464,31.212
			c2.448,11.628,2.448,23.256,2.448,35.496c0,14.076,0.612,29.988-5.508,43.452c-5.509,11.016-12.24,20.196-20.196,29.376
			c-14.688,16.524-33.048,33.048-56.916,28.764c-12.24-2.447-23.868-9.792-34.272-15.912c-11.628-7.344-18.36-15.3-23.868-28.151
			c-2.448-4.284-4.284-12.24-6.12-18.36c-2.448-7.956-4.284-16.524-6.12-24.48c-3.672-14.688-4.284-29.988-2.448-44.676
			c1.224-12.24,5.508-25.092,10.404-36.108c2.448-5.508,4.896-10.404,8.568-15.3c0.612-0.612,5.508-6.12,1.836-6.12
			c-2.448,0-7.956,9.792-9.18,11.628c-9.18,13.464-15.3,29.988-17.748,45.9c-2.448,17.136-1.224,32.436,3.06,49.572
			c3.06,12.24,5.508,25.704,9.792,37.332c2.448,6.732,4.896,13.464,8.568,18.972c1.836,3.06,3.672,5.508,6.12,7.956
			c1.836,1.225,3.672,2.448,5.508,4.284c2.448,2.448,2.448,3.672,3.06,7.344c0.612,1.225,2.448,5.509,2.448,6.732
			c-0.612,2.448-5.508,4.896-7.344,7.344c-5.508,6.732-6.12,17.137-6.732,25.704c-0.612,11.628-1.224,22.645-1.836,34.272
			c0-1.836,0-3.672,0-5.508l0,0c-3.06,18.972-8.568,37.331-14.076,55.691c-3.06,10.404-6.732,20.809-11.016,31.212
			c-4.896,11.017-10.404,18.972-8.568,31.212c-11.016-7.344-15.912-21.42-18.36-33.66c0,0.612,0,0,0,0
			c-2.448-19.584,1.224-38.556,6.12-57.527c4.284-16.524,3.672-31.824,3.06-48.349c-1.224-22.031-4.284-44.063-7.956-65.483
			c-1.836-9.18-3.672-17.748-4.896-26.928c-1.224-7.344,2.448-12.852,4.284-20.196c6.12-20.196,9.18-41.004,11.628-61.812
			c0,0.612,0,0,0,0c0-2.448,0.612-5.508,1.224-7.956c1.224-8.568,1.836-18.972,7.344-25.704c2.448,1.836,6.732,3.06,8.568-0.612
			c1.224-2.448-0.612-4.284,0-6.732c0.612-4.284-1.224,0.612,1.836-3.06c0.612-0.612,1.224-1.224,1.836-1.836
			c3.672-3.061,7.344-6.12,11.628-7.344C250.92,224.64,260.712,222.804,270.504,222.804L270.504,222.804z M328.032,202.608
			C327.42,203.22,327.42,203.22,328.032,202.608L328.032,202.608z M221.544,244.836c-2.448-1.224-3.672-5.508-4.284-7.956
			c-2.448-6.12-3.06-7.344,2.448-11.628c0,4.284,1.224,7.956,2.448,12.24C222.768,239.328,225.216,244.836,221.544,244.836
			L221.544,244.836z M89.352,227.7C89.964,227.088,89.352,227.7,89.352,227.7L89.352,227.7z M223.38,244.224
			C223.38,244.836,223.38,244.836,223.38,244.224L223.38,244.224z M52.02,291.348C52.02,291.96,52.02,291.96,52.02,291.348
			L52.02,291.348z M351.9,405.18c9.18-8.567,17.748-18.36,25.092-28.764c-1.225,6.732,0,15.3-2.448,21.42
			c-0.612,2.448-0.612,1.836-3.06,2.448c-10.404,3.06-18.973,11.016-26.929,17.748c-11.628,9.18-22.644,18.972-33.66,28.764
			c-6.12,5.508-18.972,15.3-17.748,24.48c-3.06-1.225-3.06-1.836-4.284-4.896c-1.224-3.06-3.06-5.508-4.284-8.567
			c-2.448-6.732-3.672-14.076-6.12-21.421c-3.06-9.792-6.732-19.584-9.792-29.376c17.136,8.568,31.824,17.748,51.408,14.688
			C332.316,419.256,342.72,413.136,351.9,405.18L351.9,405.18z M324.36,517.788c-3.061-12.24-11.017-23.868-17.137-34.272
			c-3.06-5.508-10.404-13.464-4.896-18.972c4.284-3.672,8.568-7.344,12.852-11.016c18.36-15.912,36.108-32.437,56.305-45.9
			c1.224,1.836-3.061,6.12-3.672,7.956c-3.673,5.508-6.732,11.016-10.404,17.136c-7.344,11.628-14.076,24.48-18.973,37.332
			c-4.283,10.404-5.508,21.42-5.508,33.048c0,3.061,0.612,6.732-1.224,9.181C330.48,512.28,324.36,517.176,324.36,517.788
			L324.36,517.788z M348.228,408.24L348.228,408.24L348.228,408.24z M347.004,408.852L347.004,408.852L347.004,408.852z
			 M318.852,414.972C318.24,414.972,318.24,414.972,318.852,414.972L318.852,414.972z M253.98,499.428
			c2.448-14.076,4.284-28.151,4.284-42.228c0.612-11.628-1.836-26.929,8.568-34.272c1.836,5.508,3.06,10.404,4.284,15.912
			c0.612,1.836,1.224,4.284,1.836,6.12c0.612,1.224,0.612,2.448,1.224,3.672c-0.612,0.612-1.224,1.836-0.612,3.061
			c0.612,5.508,4.896,11.016,7.344,15.3c-18.36,0-22.032,20.195-27.54,34.271C253.368,500.04,253.368,499.428,253.98,499.428
			L253.98,499.428z M258.876,437.004L258.876,437.004L258.876,437.004z M299.88,465.768L299.88,465.768L299.88,465.768z
			 M351.288,467.604C351.288,468.216,351.288,468.216,351.288,467.604L351.288,467.604z M286.416,522.072
			c-3.06-1.225-6.732-3.061-9.792-4.284c-1.836-0.612-6.12-1.224-7.344-3.061c-3.06-4.283,1.224-15.3,1.836-19.584
			c0.612-4.896,1.836-14.075,5.508-17.136c3.672-3.06,12.24-3.06,15.912-0.611c8.568,5.508,7.344,14.688,4.896,23.256
			C295.596,505.548,291.312,519.624,286.416,522.072L286.416,522.072z M346.392,483.516
			C346.392,484.128,346.392,484.128,346.392,483.516L346.392,483.516z M199.512,488.412c0,0.612-0.612,1.224-1.224,1.836
			C198.288,489.636,198.9,489.024,199.512,488.412L199.512,488.412z M253.98,539.82c-1.224-3.672-2.448-7.345-3.672-11.017
			c0-1.224-1.224-3.672-1.224-4.896c0-1.836,0.612-1.225,1.836-3.061s1.836-3.672,3.06-5.508
			c3.672-7.956,7.956-16.523,11.016-25.092c-0.612,5.508-1.836,11.016-2.448,16.523c-0.612,4.284,0,7.345,0.612,11.629
			c0,0.611,0.612,1.224,0.612,1.836c0,1.224-1.836,3.672-1.836,4.283c-2.448,5.509-4.896,11.629-7.344,17.137
			C254.592,540.432,254.592,540.432,253.98,539.82L253.98,539.82z M291.924,549c-0.612-5.508-0.612-10.404-1.224-15.912
			c0-1.224-0.612-3.06-0.612-4.284c0-2.447,1.224-3.06,2.448-5.508c5.508-7.956,10.404-17.748,11.628-27.54
			c2.448,4.896,4.896,9.792,7.344,15.3c1.836,4.284,4.896,14.688,10.404,15.301c-7.344,11.016-18.972,18.972-29.376,26.315
			C291.924,551.448,291.924,550.224,291.924,549L291.924,549z M51.408,510.444C51.408,511.056,51.408,511.056,51.408,510.444
			L51.408,510.444z M245.412,521.46c0,0.612-0.612,1.836-0.612,3.06C244.8,523.296,244.8,522.684,245.412,521.46L245.412,521.46z
			 M260.712,569.196c-0.612-3.672-1.224-7.956-1.836-11.628c-0.612-1.836-1.836-4.896-1.836-7.345
			c0.612-4.896,4.284-11.628,6.12-16.523c0.612-2.448,3.06-11.017,4.896-11.628c2.448-0.612,9.792,3.672,12.24,4.284
			c4.284,1.224,5.508,0,6.12,4.283c0,3.061,0,6.12,0,9.181c0,3.672,0,6.731,0.612,10.403c0,4.284,1.224,4.284-1.836,6.732
			c-3.672,2.448-7.956,4.896-12.24,7.344c-3.672,2.448-7.956,5.508-12.24,7.344C261.324,571.032,260.712,569.808,260.712,569.196
			L260.712,569.196z M331.092,523.296c0,0.612,0,0.612-0.611,0.612C331.092,523.908,331.092,523.296,331.092,523.296
			L331.092,523.296z M196.452,529.416L196.452,529.416L196.452,529.416z M433.296,653.652c-4.284,2.447-9.792,4.896-14.076,6.731
			h-0.611C423.504,657.936,428.4,656.1,433.296,653.652L433.296,653.652z M421.668,659.771
			C421.056,659.771,419.832,660.384,421.668,659.771L421.668,659.771z"/>
		<path fill="#232323" d="M419.22,660.384C419.22,659.771,419.832,659.771,419.22,660.384L419.22,660.384z"/>
		<path fill="#232323" d="M299.268,379.476c-6.12,3.672,7.956,4.896,9.18,4.896c3.06,0,12.239,0.612,14.688-1.836
			c3.672-4.284-7.344-2.448-9.18-2.448c-3.06,0-6.12,0-9.18,0C303.552,379.476,300.492,378.864,299.268,379.476L299.268,379.476z"/>
		<path fill="#FFFFFF" d="M318.852,159.156c-1.836,1.224-3.06,0.612-4.896,0.612c-3.06,0-5.508,0.612-8.568,0.612
			c-3.672,0.612-7.956,1.224-11.628,1.836c-7.956,1.836-16.524,4.284-23.868,7.344c-15.3,6.732-28.764,18.972-41.616,29.376
			c-8.568,7.344-17.748,15.3-21.42,26.316c-4.896,14.688-8.568,30.6-12.852,45.9c-4.896,18.972-7.344,38.556-13.464,56.916
			c4.284-0.612,0.612,15.912,0,19.584c-1.224,6.732-4.284,12.24-6.732,18.972c13.464-9.18,17.748-25.704,21.42-40.392
			c4.284-16.524,5.508-33.048,8.568-49.572c1.836-9.18,3.06-18.36,6.12-27.54c0.612-2.448,1.224-4.896,2.448-7.344
			c0-0.612,1.224-0.612,1.224-1.224c0.612-1.836-0.612-3.06-1.224-4.896c-1.224-4.896-1.224-6.732,2.448-9.792
			c1.224-1.224,4.284-5.508,6.12-5.508c3.672,0,3.06,10.404,3.06,12.852c6.12-6.732,12.852-8.568,21.42-11.628
			c7.344-2.448,13.464-4.896,20.808-5.508c6.732-0.612,12.852,0.612,19.584-0.612c5.508-0.612,11.016-1.224,16.524-1.224
			c3.06,0,6.12,0.612,9.18,0c3.672-0.612,6.732-3.672,9.792-5.508c7.344-4.896,13.464-10.404,19.584-16.524
			c2.448-2.448,3.061-3.672,3.061-7.344c0-4.896,0-9.792-0.612-14.688c-0.612-3.06-0.612-3.672-3.06-4.896
			c-1.837-1.224-4.284-1.836-6.12-2.448C329.256,158.544,323.748,158.544,318.852,159.156L318.852,159.156z"/>
		<path fill="#FFFFFF" d="M345.78,159.156c0,5.508,2.447,11.628,2.447,17.748c0.612,8.568-0.611,16.524-0.611,25.092
			c0.611,7.956,3.672,12.24,9.792,17.136s11.016,9.18,15.912,15.912c9.18,12.852,17.748,27.54,21.42,42.84
			c4.284,17.136,4.284,36.108,3.06,53.244c-1.224,16.524-3.06,33.048-6.12,49.572c-3.06,17.136-8.567,31.212-17.748,45.899
			c-7.344,11.628-14.075,22.645-19.584,34.885c-6.731,14.688-8.567,28.151-8.567,44.063c0,29.988-7.956,67.32-41.616,77.112
			c15.3,3.672,35.496-4.284,47.124-13.464c15.912-12.853,24.479-28.152,28.764-47.736c4.284-20.196,8.568-37.944,18.973-55.692
			c8.567-14.688,20.195-26.928,25.703-42.84c5.509-16.523,5.509-35.496,6.12-52.632c0.612-15.912-1.224-31.212-3.672-46.512
			c-1.836-9.792-4.284-18.972-5.508-28.764c-1.836-9.18-2.448-18.972-4.284-28.152c-2.448-12.24-7.344-23.256-12.24-34.884
			c-6.731-15.3-11.628-29.376-22.031-42.228c-3.672-4.896-7.345-10.404-11.628-14.688c-3.673-3.672-7.956-6.732-12.24-9.18
			C354.96,163.44,348.84,159.156,345.78,159.156L345.78,159.156z"/>
		<path opacity="0.2" fill="#B1440A" d="M273.564,128.556c-84.456,12.24-159.732,61.812-202.572,135.252
			c-44.676,74.664-50.184,167.076-17.748,247.248c18.36,44.677,48.348,83.232,85.68,112.608c0-15.3-0.612-31.212,2.448-45.9
			c4.284-18.972,12.852-36.107,23.256-52.02c10.404-15.3,22.032-29.376,31.824-44.676c1.836-2.448,2.448-3.672,3.06-6.732
			c0.612-4.896,0-9.792-0.612-14.688c-0.612-11.017-1.836-22.032-3.672-33.049c-3.672-20.808-9.792-41.616-13.464-62.424
			c-2.448,2.448-4.284,5.508-7.956,6.732c-5.508,1.836-4.896-1.836-3.06-6.12c3.06-5.508,5.508-10.404,6.732-16.524
			c0-0.612,1.836-11.016,1.836-11.016c-1.224,1.224-3.06,2.448-4.896,1.836c-2.448-1.224-1.224-3.06-1.224-4.896
			c0.612-3.672,1.224-7.956,1.224-11.628c1.224-10.404,3.672-20.808,5.508-31.212c4.284-22.032,7.956-44.064,17.748-64.26
			c12.852-27.54,36.108-53.244,63.648-65.484c14.076-6.732,28.152-9.18,44.064-9.792c6.12-0.612,11.627-1.836,17.748-1.224
			c3.061,0,6.732,0.612,9.792,1.836c1.225,0.612,3.061,1.836,4.284,1.836c1.836,0,1.224-0.612,2.448-0.612
			c7.344-1.224,14.688,3.672,20.808,7.344c7.345,4.896,13.464,10.404,18.36,17.136c7.344,11.016,15.912,20.808,20.808,33.048
			c8.568,19.584,18.973,39.78,23.256,61.2c3.061,14.076,4.896,28.152,7.956,42.228c3.061,14.076,5.509,27.54,6.12,41.616
			c0.612,14.688-1.224,29.376-3.672,44.064c-1.224,7.344-2.448,15.3-4.896,22.644c-1.225,3.061-2.448,6.732-3.672,9.792
			c0,0.612-1.837,3.061-1.837,3.672c0,0.612,3.673,3.673,4.284,4.284c9.181,8.568,22.645,10.404,33.66,14.688
			c14.688,6.12,28.152,17.136,40.392,27.54c12.853,11.628,19.584,26.928,24.48,42.84c1.836,6.731,3.672,14.076,4.896,21.42
			c1.225,7.344,3.673,14.688,3.061,22.032c22.032-29.988,37.944-64.261,47.124-100.368c8.568-34.272,8.568-67.933,4.896-102.816
			c-6.119-35.496-17.136-70.38-35.496-102.204c-17.747-31.212-42.228-58.14-70.38-80.172l0.612,0.612
			C422.28,138.348,347.616,118.764,273.564,128.556L273.564,128.556z"/>
	</g>
</g>
</svg>
