<?xml version="1.0" encoding="utf-8"?>
<!-- Generator: Adobe Illustrator 16.0.0, SVG Export Plug-In . SVG Version: 6.00 Build 0)  -->
<!DOCTYPE svg PUBLIC "-//W3C//DTD SVG 1.1//EN" "http://www.w3.org/Graphics/SVG/1.1/DTD/svg11.dtd">
<svg version="1.1" id="Layer_1" xmlns="http://www.w3.org/2000/svg" xmlns:xlink="http://www.w3.org/1999/xlink" x="0px" y="0px"
	 width="587.175px" height="586.886px" viewBox="6.017 107.382 587.175 586.886"
	 enable-background="new 6.017 107.382 587.175 586.886" xml:space="preserve">
<g id="Background">
</g>
<g id="Image_Layer">
</g>
<g id="Draw_Layer">
</g>
<g id="Draw_Layer_1_">
	<g>
		<path fill="#2C2C2C" d="M244.188,334.8c-1.836,6.732,7.956,12.24,9.792,4.896C255.204,334.8,246.024,328.068,244.188,334.8
			L244.188,334.8z"/>
		<path fill="#2C2C2C" d="M329.256,328.068c-5.508,2.448-5.508,14.076,1.836,14.076C340.884,342.144,336.6,322.56,329.256,328.068
			L329.256,328.068z"/>
		<path fill="#2C2C2C" d="M248.472,329.904c-1.224,0-2.448,0-3.06,0l0,0c-2.448,0.612-4.284,0.612-4.896,2.448
			c-1.224,2.448,0,6.12,0.612,8.568c0.612,4.896,2.448,11.628,8.568,11.628c9.792,0,8.568-21.42,1.224-22.644
			C249.696,329.904,248.472,329.904,248.472,329.904L248.472,329.904z"/>
		<path fill="#2C2C2C" d="M326.196,324.396c-9.181,2.448-4.284,20.808,2.447,23.868
			C343.944,354.996,342.108,321.336,326.196,324.396L326.196,324.396z"/>
		<path fill="#2C2C2C" d="M253.98,330.516C253.368,330.516,253.368,330.516,253.98,330.516L253.98,330.516z"/>
		<path fill="#2C2C2C" d="M331.704,321.336L331.704,321.336L331.704,321.336z"/>
		<path fill="#2C2C2C" d="M317.016,318.276C315.792,319.5,318.24,317.664,317.016,318.276L317.016,318.276z"/>
		<path fill="#2C2C2C" d="M318.852,319.5C318.852,318.888,318.852,318.888,318.852,319.5L318.852,319.5z"/>
		<path fill="#2C2C2C" d="M316.404,320.724C316.404,321.336,317.016,320.724,316.404,320.724L316.404,320.724z"/>
		<path fill="#2C2C2C" d="M219.096,353.16c0,0,0,0.612,0,1.224C219.096,353.772,219.096,353.16,219.096,353.16L219.096,353.16z"/>
		<path fill="#2C2C2C" d="M224.604,307.872c-0.612,1.836-0.612,3.06-1.224,4.896c7.344-0.612,15.3,2.448,22.032,3.672
			c3.06,0.612,20.196,4.896,20.196,0c0-3.672-15.3-4.284-18.972-4.896C239.292,310.32,231.948,307.872,224.604,307.872
			L224.604,307.872z"/>
		<path fill="#2C2C2C" d="M320.076,419.868c-6.732,0.612-13.464,2.448-20.196,3.06c-5.508,0.612-11.016-1.836-16.524-1.224
			c-6.12,0.612-9.792,3.672-16.524,1.836c-1.836-0.612-6.12-3.06-7.344-2.448c-3.06,1.225,0,3.061,1.224,3.672
			c4.284,2.448,10.404,3.672,15.3,2.448c3.06-0.612,5.508-1.836,8.568-1.836s5.508,1.224,8.568,1.224
			c6.12,0.612,11.628,0,17.749-0.611c2.447-0.612,7.955,0,10.403-1.836C322.524,423.54,323.136,419.868,320.076,419.868
			L320.076,419.868z M291.924,422.928C292.536,422.928,292.536,422.928,291.924,422.928L291.924,422.928z M269.892,424.152
			C269.892,424.764,269.892,424.764,269.892,424.152L269.892,424.152z"/>
		<path fill="#2C2C2C" d="M248.472,329.904c-1.224,0-2.448,0-3.06,0c-4.284,0-10.404,3.672-12.24,7.956
			c-0.612,0.612-1.224,1.836-1.224,2.448c0,6.732,8.568-1.224,11.016-2.448c4.284-1.836,9.792-1.224,14.076,1.224
			c4.284,1.836,6.12,3.672,9.18,0c3.672-4.284,0-4.896-4.284-6.12c-3.672-1.224-7.344-2.448-11.016-3.06
			C249.696,329.904,248.472,329.904,248.472,329.904L248.472,329.904z M243.576,337.86
			C242.964,337.86,242.964,337.86,243.576,337.86L243.576,337.86z"/>
		<path fill="#2C2C2C" d="M333.54,328.068c-5.508,0-9.792,2.448-12.853,4.896c-1.836,1.224-8.567,7.344-3.672,9.18
			c0.612,0,1.225,0,1.836,0c4.284-1.224,7.345-4.896,11.629-5.508c3.06-0.612,6.119-0.612,9.18,1.224
			c2.448,1.224,3.06,1.836,5.508,1.836c3.061,0,6.732-2.448,4.284-5.508C346.392,329.904,339.048,328.068,333.54,328.068
			L333.54,328.068z M321.3,332.964L321.3,332.964L321.3,332.964z"/>
		<path fill="#2C2C2C" d="M315.792,342.144L315.792,342.144L315.792,342.144z"/>
		<path fill="#2C2C2C" d="M350.064,334.8C349.452,334.188,349.452,334.188,350.064,334.8L350.064,334.8z"/>
		<path fill="#2C2C2C" d="M306,431.496c-6.12,0.612-12.852,1.836-18.972,1.836c-1.836,0-8.568-1.224-10.404,0.612
			c-1.836,1.224-1.224,3.06,0.612,4.283c1.836,1.225,7.344,0,9.18,0c3.06,0,6.12-0.611,9.18-0.611c2.448,0,8.568,0,10.404-1.836
			C307.836,435.168,309.06,431.496,306,431.496L306,431.496z"/>
		<path fill="#2C2C2C" d="M226.44,307.872c-3.672,0.612-7.344,3.06-9.18,6.12c-1.836,2.448-3.06,6.732,1.836,5.508
			c1.836-0.612,3.06-3.06,4.896-3.672c1.224-0.612,3.672-1.224,4.896-2.448C230.724,311.544,230.112,307.26,226.44,307.872
			L226.44,307.872z"/>
		<path fill="#2C2C2C" d="M301.716,140.184c-6.12,0-12.24,0.612-17.748,1.224c-1.836,0-19.584,4.896-12.852,8.568
			c1.836,1.224,4.896-1.224,6.732-2.448c3.06-1.224,6.12-1.836,9.18-1.836c6.732,0,13.464-0.612,20.196-0.612
			c31.212,0.612,64.261,11.628,86.292,35.496c15.301,16.524,21.42,38.556,23.257,59.976c1.836,18.36,3.06,36.72,3.06,55.08
			c-0.612,11.016-1.836,22.644-4.896,33.048c-5.508,16.524-14.688,29.376-26.928,41.616c3.672-15.3,2.448-32.436,1.225-48.348
			c-0.612-6.732-0.612-14.076-1.225-21.42c-0.611-3.672-1.836-4.896-1.836-8.568c-0.612-4.284-0.612-9.18-1.836-13.464
			c-3.672-9.18-8.568,4.896-11.628,7.956c-2.448,3.06-5.508,6.732-8.568,9.792c-4.896,4.896-12.852,1.836-18.972,0.612
			s-11.628-2.448-17.748-4.896c-4.896-1.836-10.404-3.672-15.3-6.12c-1.836-0.612-3.672-2.448-5.508-3.06
			c-6.12-1.836-5.508,2.448-4.896,7.344c-4.284-1.836-7.956-8.568-12.24-9.18c-7.956-1.224-7.956,11.628-7.344,16.524
			c-8.568-7.956-17.136-18.972-21.42-29.988c-3.672-10.404-2.448-24.48,0-35.496c0.612-2.448,6.12-12.852,3.06-14.076
			c-3.672-1.224-8.568,7.956-10.404,9.792c-8.568,12.24-18.972,23.868-26.316,37.332c-6.12,10.404-9.792,21.42-14.076,32.436
			c-0.612-5.508,0-10.404,0-15.912c0-1.836,0-3.672,0.612-5.508c0-2.448,1.836-6.12,1.224-7.956
			c-7.956,17.136-12.24,34.884-15.912,53.244c-3.06,14.688-1.836,28.764-1.224,42.84c-24.48-18.972-34.272-55.692-33.048-86.292
			c1.224-32.436,10.404-67.932,28.152-94.86c12.24-18.36,33.66-34.272,55.692-37.944c6.732-1.224,12.24,0,18.972,0
			c1.836,0,3.06,0.612,3.672-1.224c0.612-2.448-6.732-2.448-7.956-2.448c-14.076-1.224-28.152,2.448-40.392,9.18
			c-33.66,18.972-50.184,53.856-58.14,89.964c-8.568,37.944-7.344,82.62,17.748,114.444l0,0c0.612,0.612,1.224,1.224,1.224,2.448
			c0-1.224,2.448,2.448,3.06,3.06c1.836,1.836,3.672,3.672,6.12,4.896c2.448,1.836,4.284,2.448,5.508,4.896
			c0.612,1.836,0.612,4.896,1.224,7.344c1.224,5.508,2.448,11.628,3.672,17.136c4.896,20.196,15.912,39.78,32.436,53.244
			c-2.448,0-4.896,1.836-6.12,3.673c-1.836,1.836-2.448,4.283-4.284,6.119c-1.836,2.448-0.612,1.225-3.06,1.225
			c-1.224,0-1.224-1.225-2.448-1.836c-3.06-1.225-7.956-1.225-11.016-1.836c-6.12-0.612-12.852,0-18.972,1.224
			c-16.524,3.061-31.824,10.404-45.9,19.584c-20.196,12.853-37.944,29.988-52.02,48.96c-3.06,4.284-4.896,6.732-4.896,11.628
			c-0.612,7.344-0.612,15.3-1.224,22.645c-0.612,7.956-0.612,15.912-0.612,23.867c0,3.673,0,7.956,0,11.629
			c0,5.508,1.836,6.731,6.12,10.403c0-1.224,0-3.672-0.612-4.896c8.568,10.403,22.032,20.195,33.048,28.151
			c6.732,4.896,13.464,9.181,20.808,12.853c5.508,3.06,10.404,7.344,15.912,11.016c6.732,3.672,13.464,7.344,20.196,10.404
			c3.06,1.224,6.12,2.448,9.18,3.672c1.836,0.612,6.732,1.836,7.344,3.06c0.612,1.225-0.612,3.673,0.612,4.896
			c0.612,0.612,1.224,1.224,1.836,1.224c1.836,0.612,3.672,1.836,4.896,2.448c3.06-27.54,2.448-55.692,4.896-83.231
			c2.448-26.316,4.896-52.021,9.792-77.725c7.344,22.032,15.912,43.452,28.152,63.648c6.12,10.403,12.852,19.584,20.196,28.764
			c4.284,4.896,8.568,9.792,12.852,14.688c3.06,3.672,6.12,8.567,10.404,11.016c7.956,4.896,20.196-10.404,25.092-15.3
			c6.12-6.12,12.24-12.24,17.748-18.36c14.076-15.912,27.54-31.824,38.556-49.572c6.732-10.403,12.853-21.42,15.3-33.048
			c0.612-2.447,3.061-13.464-1.224-13.464c-2.448,0-3.672,6.732-4.284,7.956c-5.508,16.524-14.076,30.601-23.256,44.676
			c-12.24,17.748-25.092,35.496-39.78,51.408c-4.283,4.896-9.18,9.18-13.464,13.464c-1.836,1.836-7.956,9.181-10.404,9.181
			c-3.672,0-9.18-9.792-11.016-11.629c-3.06-4.283-6.732-7.955-9.792-12.239c-14.688-17.137-26.316-36.721-36.108-56.916
			c-4.284-8.568-7.956-17.137-11.016-26.316c-1.224-3.06-1.836-6.12-3.06-9.18c0-0.612-2.448-4.284-2.448-4.284
			c0-1.836,1.224-5.508,1.836-7.344l0,0c1.224,1.224,2.448,5.508,3.06,7.344c1.224,3.06,2.448,5.508,3.672,8.568
			c1.836,3.672,3.672,7.344,5.508,10.403c3.06,4.896,6.12,9.792,9.792,14.688c9.18,12.24,18.36,25.092,27.54,37.332
			c3.06,3.672,6.12,7.956,9.18,11.628c4.284,4.896,7.956,11.016,12.852,15.3c3.672,3.061,5.508,2.448,9.792-0.612
			c3.06-2.447,6.12-4.896,9.18-7.956c1.836-1.224,3.06-3.06,4.896-4.283c0.612-0.612,1.836,0,2.448-1.225
			c1.224-1.224,1.836-3.06,2.448-4.283c0.611-0.612,1.836-1.837,2.448-2.448c1.836-1.836,3.06-3.061,4.283-4.896
			c3.061-3.06,5.509-6.731,7.956-9.792c6.12-9.18,12.24-19.584,17.137-29.376c2.447-4.896,3.06-7.344,6.119-11.628
			c1.837-3.06,3.673-5.508,6.12-8.568c8.568-12.852,18.973-26.315,23.868-41.615c0.612,0.611-0.611,7.956-0.611,9.18
			c-0.612,6.732-0.612,13.464-0.612,19.584c0,9.792-0.612,19.584-0.612,28.764c-0.612,23.868-2.448,47.736-5.508,71.604
			c-1.836,12.24-3.672,24.479-5.508,36.72c-0.612,6.12-1.225,12.24-2.448,17.748c-0.612,3.672-2.448,9.18,0,12.24
			c2.448,3.06,5.508,0.611,7.956,0c6.12-1.836,11.628-4.284,17.748-6.732c12.24-4.896,23.868-11.016,35.496-17.136
			c12.24-6.732,24.479-13.464,36.107-22.032c5.509-3.672,10.404-7.344,15.912-11.016c3.061-2.448,5.508-4.896,8.568-7.344
			c1.224-0.612,1.836-1.837,3.06-2.448c1.836-1.225,3.061-4.284,2.448,0c4.284-4.284,12.24-8.568,12.853-14.688
			c1.224-8.567,2.447-17.748,3.06-26.315c0.612-12.853,0.612-26.316,0.612-39.168c0-2.448,0-5.509,0-7.956
			c0-1.225,0-1.836-0.612-3.061c-1.836-3.06-3.672-0.611-5.508-1.836c-2.448-1.224-4.284-5.508-6.12-7.344
			c-3.06-3.672-6.732-7.344-10.404-11.016c-6.12-6.12-12.239-12.24-19.584-15.912c-4.284-1.836-9.18-3.061-13.464-2.448
			c-5.508,0.612-5.508,2.448-8.568-2.448c-5.508-9.792-9.791-17.748-20.195-22.032c-6.12-2.447-12.24-4.284-18.973-5.508
			c-5.508-1.224-10.403-3.06-15.3-4.896c-3.06-1.225-12.239-7.345-12.239,0l0,0c-2.448-3.061-4.896-3.672-7.956-4.896
			c-3.061-0.612-3.061-1.836-4.284-4.896c-0.612-1.225-2.448-6.732-3.061-7.345c-4.284-1.836,0,5.509,0.612,7.345
			c-1.224,0-1.836,1.224-2.448,1.224c1.225,2.448,0,6.732-0.611,9.792c-1.225,6.12-3.061,11.628-6.12,16.524
			c-2.448,4.283-5.509,9.18-8.568,12.852c-5.508,7.344-12.24,14.076-18.972,19.584c-4.284,3.672-8.568,6.732-13.464,9.792
			c-2.448,1.224-4.896,3.672-7.345,4.284c-3.672,1.224-7.956,0-12.852-0.612c-3.672-0.612-7.344-0.612-11.016-1.224
			c-3.06,0-3.06-0.612-5.508-1.225c-7.956-3.672-14.688-8.567-20.808-15.3c-10.404-11.016-22.644-25.704-21.42-41.004
			c17.136,10.404,31.824,17.748,52.02,18.36c16.524,0.611,29.988-3.672,43.452-12.24c16.524-10.404,28.764-24.48,37.332-42.228
			c5.508-11.017,6.732-23.869,9.792-35.497c1.224-4.896,3.061-6.12,7.344-9.18c3.672-2.448,6.12-5.508,8.568-8.568
			c6.12-7.344,11.016-15.3,15.3-23.868c6.732-15.912,9.792-32.436,9.792-49.572c0.612-25.092,0-51.408-6.731-75.276
			c-6.732-25.704-22.032-44.676-44.677-58.14C352.512,145.08,327.42,139.572,301.716,140.184L301.716,140.184z M285.192,146.304
			C284.58,146.304,284.58,146.304,285.192,146.304L285.192,146.304z M278.46,148.14C277.848,148.14,277.848,148.14,278.46,148.14
			L278.46,148.14z M213.588,304.812c4.284-4.896,5.508-12.852,7.956-18.36c2.448-5.508,4.896-10.404,7.956-15.912
			c7.956-14.076,18.972-26.316,28.152-39.168c-3.06,10.404-4.896,22.032-3.672,32.436c1.836,12.852,9.18,24.48,17.136,34.272
			c2.448,3.06,12.852,17.748,18.36,12.24c3.672-4.284-1.836-15.912,0-20.808c3.672,3.672,7.956,6.732,12.852,9.18
			c3.672,1.836,6.12-2.448,6.12-6.12c6.12,3.06,12.239,6.12,18.972,7.956c7.344,1.836,15.3,3.06,22.645,4.284
			c1.836,0,3.672,1.224,5.508,0.612c1.224,0,2.447-1.224,3.06-1.836c1.225,0,2.448,0.612,3.672,0.612
			c5.508-1.224,13.464-11.628,16.524-15.3c1.224,3.06,1.224,7.344,2.448,10.404c1.224,0,1.224,0.612,1.224,1.836
			c0,1.224,0,2.448,0,3.672c0,3.06,0.612,6.12,0.612,9.18c-3.061-1.224-4.896,2.448-6.12,4.284
			c-4.284,5.508-8.568,11.016-12.853,16.524c-2.447-11.628-13.464-19.584-24.479-20.808c7.344-0.612,12.852,1.836,19.584,4.896
			c3.06,1.224,9.18,1.224,6.12-3.672c-2.448-3.672-10.404-6.732-14.688-6.732c-11.016-0.612-22.032,3.672-33.048,4.284
			c-1.224,0-4.284-0.612-5.508,0.612c-1.836,2.448,1.224,3.06,3.06,3.672c4.284,0.612,9.181-0.612,12.853-1.224
			c-11.628,4.284-18.36,14.688-22.032,26.316c-7.956-4.896-17.136-1.836-24.48,1.836c-7.344-31.824-55.08-29.988-60.588,1.224
			c-4.896-4.284-12.24-9.792-15.912-15.3c-1.836-2.448-1.224-3.06-1.224-5.508c0-1.836,0-3.672,0.612-4.896
			c0-2.448,0.612-4.284,0.612-6.732c0.612-5.508,1.224-10.404,1.836-15.3s2.448-9.792,4.284-14.688
			c-0.612,5.508-0.612,10.404,0,15.912C209.916,298.692,210.528,308.484,213.588,304.812L213.588,304.812z M213.588,274.212
			C213.588,274.824,213.588,274.824,213.588,274.212L213.588,274.212z M373.32,285.84L373.32,285.84L373.32,285.84z
			 M335.988,375.192c7.956-0.612,14.688-6.12,18.972-12.24c1.836-3.06,4.284-6.732,6.12-9.792c1.836-3.672,1.836-7.956,3.06-11.016
			c1.836-4.284,7.345-9.18,10.404-12.852s6.12-7.344,8.568-11.628c0.611,19.584,1.224,37.332-4.896,55.692
			c-3.06,10.404-4.896,20.808-7.344,31.212c-3.06,11.016-8.568,21.42-15.3,29.987c-15.3,19.584-36.721,31.824-61.812,31.212
			c-26.316-0.611-53.244-14.688-68.544-35.495C214.2,415.584,208.08,396,204.408,378.252c-3.06-14.688-3.06-29.988-1.836-44.676
			c4.896,4.284,9.18,9.18,14.076,13.464c3.06,2.448,3.06,3.06,3.06,6.732c0,3.06,0.612,6.12,1.224,9.18
			c5.508,20.808,33.048,23.256,47.736,11.016c3.672-3.06,7.344-6.732,9.792-11.628c1.224-1.836,1.836-3.672,2.448-6.12
			c0.612-1.836,0.612-7.956,1.224-8.568c1.224-1.836,10.404-3.06,12.852-3.672c3.672-0.612,4.284-0.612,7.344,0.612
			c3.06,1.224,3.06,1.224,2.448,4.896c-0.612,3.672-0.612,7.956,0,11.628c0.612,12.852,2.448,25.704,6.732,37.332
			c-11.016,0-21.42-1.836-31.824-3.06c-2.448,0-7.344,0.612-3.06,3.671c1.836,1.836,8.568,1.225,11.016,1.836
			c7.344,0.612,15.3,1.225,22.644,1.837c4.284,0,7.956,0.611,6.731-4.896c-0.611-4.284-2.447-8.568-3.06-12.852
			c-1.836-8.568-2.448-16.524-3.672-25.092C314.568,369.684,325.584,376.416,335.988,375.192L335.988,375.192z M324.36,368.46
			c-6.12-3.06-12.853-8.568-14.688-15.3c-1.224-4.284,0.612-9.18,1.836-13.464c2.448-7.956,8.568-15.912,16.524-17.748
			c10.403-3.06,22.644,0.612,27.54,10.404c3.672,7.344,3.06,15.912-0.612,23.256c-5.508,10.404-18.36,17.748-28.764,14.076
			C325.584,369.072,324.972,368.46,324.36,368.46L324.36,368.46z M247.248,325.008c-1.836-0.612,2.448-0.612,2.448-0.612
			c1.836,0,3.672,0,5.508,0c5.508,0.612,10.404,3.06,14.076,7.344c2.448,3.06,6.12,7.344,6.12,11.628c0,1.836,0,3.06,0,4.896
			c0,0.612,0.612,1.224,1.224,1.224c0,1.836,0,3.06-0.612,4.896c-4.284,18.36-27.54,29.376-42.228,15.3
			C217.26,353.772,226.44,329.292,247.248,325.008L247.248,325.008z M274.176,359.28
			C274.176,359.892,274.176,359.892,274.176,359.28L274.176,359.28z M369.036,411.3C368.424,411.912,368.424,411.912,369.036,411.3
			L369.036,411.3z M326.808,556.344c-1.224-7.956-3.06-15.912-5.508-23.256c-1.224-3.06-1.836-5.508-3.06-8.568
			c-0.612-1.224-1.225-2.447-1.225-3.672c0-2.447-0.611-1.224,1.225-3.06c3.672-3.672,9.792-6.12,14.076-9.18
			c4.896-3.673,9.792-7.956,14.075-12.24c12.853-12.853,23.868-29.376,26.316-47.736c1.224,0.612,2.448,0.612,3.06,1.224
			c2.448,1.225,4.284,3.673,5.509,6.12c3.672,7.345,4.283,16.524,1.836,23.868c-3.672,14.076-13.464,26.928-20.809,38.557
			c-9.792,15.911-20.808,29.987-34.884,42.84C327.42,560.016,327.42,558.18,326.808,556.344L326.808,556.344z M260.712,559.404
			c-11.628-15.301-23.256-31.212-30.6-49.572c-2.448-6.12-6.732-14.076-7.956-20.808c-0.612-5.509,2.448-14.688,4.284-19.584
			c1.836-6.12,4.896-11.017,9.792-14.076c0,7.344,0,12.852,3.672,20.195c2.448,4.896,5.508,8.568,9.18,12.853
			c7.956,10.404,17.136,20.808,29.376,26.315c-3.06,1.837-1.836,7.956-2.448,10.404c-1.224,5.508-4.896,11.628-6.732,17.748
			c-1.836,6.732-2.448,14.688-4.284,21.42C263.772,562.464,261.936,560.628,260.712,559.404L260.712,559.404z M227.664,465.156
			L227.664,465.156L227.664,465.156z M170.136,469.44C169.524,469.44,169.524,469.44,170.136,469.44L170.136,469.44z
			 M331.092,501.876L331.092,501.876L331.092,501.876z M315.792,517.788L315.792,517.788L315.792,517.788z M298.044,553.284
			c-7.344-3.061-14.076-5.508-14.688-14.076c-0.612-4.284-0.612-9.18-0.612-13.464c0-1.225,0-2.448,0-3.061
			c0-4.283,0.612-3.672,4.896-3.672c2.448,0,5.508,0,7.956,0.612c3.672,0.612,10.404,0,13.463,1.836
			c2.448,1.224,3.061,7.956,3.061,11.016C313.344,537.984,305.388,556.344,298.044,553.284L298.044,553.284z M268.056,573.48
			c-0.612-1.225-1.836-2.448-2.448-3.061c4.896,0,4.896-14.076,6.12-17.748c1.224-5.508,3.06-11.016,4.896-17.136
			c0,2.448,0,5.508,0.612,7.956c0.612,1.836,1.836,3.672,1.836,5.508c1.224,1.224,1.224,2.448,0,3.672
			c-0.612,1.224-1.224,1.836-1.836,3.061C274.788,560.628,269.892,567.36,268.056,573.48L268.056,573.48z M319.464,588.168
			c-0.612-7.956-1.836-15.3-3.06-23.256c-0.612-3.672,0-14.076-3.672-16.524c1.224,0,4.283-7.344,4.283-7.956
			c1.836,6.12,3.061,12.24,3.672,18.36c0.612,3.06-0.611,12.24,4.284,11.628c2.448,0,5.509-4.284,7.345-5.508
			c3.672-3.672,7.344-7.344,11.016-11.017c-4.896,7.345-9.18,15.301-14.688,22.645C328.032,578.988,319.464,588.168,319.464,588.168
			L319.464,588.168z M296.82,608.976c-6.12-4.896-10.404-12.852-15.3-18.359c-3.672-4.284-7.344-8.568-10.404-12.853
			c2.448,0,3.672-5.508,4.896-7.344c1.224-2.448,3.06-4.896,4.284-7.956c1.224-1.836,1.836-4.896,3.672-6.12
			c2.448-1.836,0-1.224,2.448-1.224c4.284,0,8.568,4.896,13.464,4.896c2.448,0,4.896-1.224,6.732-3.06
			c0,0.612,1.224,1.836,1.836,2.448c1.224,2.448,1.836,6.731,2.448,9.18c0.611,3.061,1.224,6.12,1.836,9.18
			c0.611,4.284,3.06,12.853,1.836,17.137C313.344,596.736,299.268,610.2,296.82,608.976L296.82,608.976z M318.24,586.944
			L318.24,586.944L318.24,586.944z M318.24,593.676c0.611-0.611,1.224-1.224,1.224-1.836c0,1.225-0.612,1.836-1.836,1.836
			C317.628,593.676,317.628,593.676,318.24,593.676L318.24,593.676z M89.352,592.452L89.352,592.452L89.352,592.452z
			 M86.292,596.124c0-1.224,1.224-3.672,3.06-3.672C87.516,592.452,86.292,596.124,86.292,596.124L86.292,596.124z M504.288,601.632
			c1.224-1.836,2.448-5.508,4.896-5.508C507.348,596.124,504.9,601.02,504.288,601.632L504.288,601.632z M505.512,608.364
			c1.836-2.448,6.12-6.732,6.12-10.404c0,4.896-6.731,11.016-9.792,14.076C503.064,611.424,504.288,609.588,505.512,608.364
			L505.512,608.364z M297.432,608.976L297.432,608.976L297.432,608.976z M176.868,655.488
			C176.868,655.488,177.48,655.488,176.868,655.488L176.868,655.488z M375.768,667.729
			C375.156,667.729,375.156,667.729,375.768,667.729L375.768,667.729z M375.156,667.729L375.156,667.729L375.156,667.729z
			 M198.9,670.788c0.612-0.612,1.224-1.224,1.224-1.836C200.124,669.564,198.288,671.4,198.9,670.788L198.9,670.788z M382.5,672.012
			c0-0.611,0-0.611,0-1.224C382.5,672.012,381.888,672.624,382.5,672.012C382.5,672.624,382.5,672.624,382.5,672.012L382.5,672.012z
			 M383.112,672.624C383.724,672.012,383.112,672.624,383.112,672.624L383.112,672.624z"/>
		<path fill="#232323" d="M389.844,495.756c-3.06,0-11.016,20.809-10.403,23.256c1.836,5.509,7.344-6.12,8.567-7.956
			C388.62,509.22,395.352,495.756,389.844,495.756L389.844,495.756z M388.62,505.548C388.62,506.16,388.62,506.16,388.62,505.548
			L388.62,505.548z M388.62,506.16L388.62,506.16L388.62,506.16z"/>
		<path fill="#B1440A" d="M389.844,484.74c-4.896,14.688-15.3,27.54-23.256,40.392c-3.06,4.896-7.956,10.404-10.404,15.3
			c-8.567,18.36-18.359,36.108-32.436,50.796c-1.224,1.225-3.061,2.448-3.672,4.284c-0.612,0.612,0,1.225-0.612,2.448
			c-1.224,0-2.448,0-3.06,0.612c-1.836,1.224-3.061,3.06-4.896,4.283c-3.06,3.061-9.18,10.404-14.688,10.404
			c-4.896,0-9.18-7.956-11.628-11.016c-3.06-3.672-6.12-7.956-9.18-11.628c-9.792-12.24-18.972-25.704-28.764-37.944
			c-11.628-14.688-18.972-29.376-26.316-47.124c-0.612,1.224-0.612,2.448-1.224,4.284c-1.224,3.672,0,1.836,0.612,4.284
			c1.836,5.508,3.672,11.016,5.508,16.523c3.06,7.956,6.12,15.912,9.792,23.868c10.404,21.42,23.256,41.616,38.556,59.364
			c4.896,5.508,8.568,11.016,13.464,16.523c1.836,1.836,3.06,3.673,5.508,3.673c1.836-0.612,4.284-3.673,5.508-4.896
			c11.016-10.404,21.42-20.808,30.6-33.048c14.076-17.136,27.54-35.496,38.556-54.468c5.509-9.181,9.181-18.973,12.853-29.376
			c1.836-4.896,3.672-9.181,6.12-13.465c0-0.611,1.836-1.836,1.836-2.447c0.612-1.836,0-5.509,0.612-7.956
			C389.844,486.576,389.844,485.352,389.844,484.74L389.844,484.74z"/>
		<path fill="#232323" d="M366.588,427.212c-4.284,1.224,0,13.464,1.225,15.912c1.224,1.836,2.447,3.672,3.672,0.612
			c0.611-1.836,0-4.896-0.612-6.732C370.872,434.556,370.872,425.988,366.588,427.212L366.588,427.212z"/>
		<path fill="#2C2C2C" d="M270.504,108.972C148.716,120.6,44.676,210.564,14.688,328.68
			C-15.3,448.02,34.272,575.928,135.864,644.472c50.796,34.272,112.608,52.021,173.808,49.572
			c61.812-2.448,119.34-23.868,168.3-61.2c95.473-72.828,137.7-200.735,103.429-316.404
			c-35.496-116.28-141.372-200.736-263.16-208.692C302.328,107.136,286.416,107.136,270.504,108.972L270.504,108.972z
			 M339.048,116.316C337.824,115.704,339.048,116.316,339.048,116.316c67.32,8.568,130.968,43.452,176.256,93.636
			c47.124,52.02,73.44,120.564,73.44,190.944c0,39.168-8.568,79.56-22.645,113.831c-19.584,45.9-50.184,85.681-89.964,116.28
			c-6.731,5.508-14.076,9.18-20.808,14.076c-7.956,4.896-16.524,9.792-25.092,14.076c-17.137,8.568-35.496,15.912-54.469,20.808
			c-18.972,4.896-37.943,7.956-57.527,9.181c-9.181,0.611-18.972,0.611-28.152,0.611c-4.896,0-9.792-0.611-15.3-1.224
			c-2.448,0-4.896-0.612-7.344-0.612c-1.224,0-7.344-0.611-5.508-0.611c-67.932-9.793-130.968-43.452-176.256-94.248
			c-46.512-52.021-72.216-119.952-72.828-189.108c-0.612-38.556,7.344-79.56,22.032-113.22c0,0,0-0.612,0.612-0.612
			c35.496-89.352,121.176-156.06,216.036-172.584C280.296,112.644,310.284,112.032,339.048,116.316L339.048,116.316z
			 M262.548,115.704C261.936,115.704,261.936,115.704,262.548,115.704L262.548,115.704z M411.264,135.9L411.264,135.9L411.264,135.9
			z M125.46,173.232l-0.612,0.612C124.848,173.232,124.848,173.232,125.46,173.232L125.46,173.232z M476.136,173.232
			C476.136,173.844,476.136,173.844,476.136,173.232L476.136,173.232z M586.296,362.34L586.296,362.34L586.296,362.34z
			 M586.296,440.676C586.296,441.288,586.296,441.288,586.296,440.676L586.296,440.676z M34.884,512.892
			C35.496,513.504,35.496,513.504,34.884,512.892L34.884,512.892z M33.66,513.504L33.66,513.504L33.66,513.504z M72.216,577.152
			C72.828,577.764,72.828,577.764,72.216,577.152L72.216,577.152z M528.156,578.988L528.156,578.988L528.156,578.988z
			 M124.236,629.172C124.848,629.784,124.848,629.784,124.236,629.172L124.236,629.172z M413.1,667.729L413.1,667.729L413.1,667.729
			z M34.884,290.124C34.884,290.124,35.496,289.512,34.884,290.124L34.884,290.124z M339.048,116.316
			C339.048,116.316,339.048,115.704,339.048,116.316L339.048,116.316z"/>
		<path fill="#232323" d="M269.892,111.42c-119.34,12.24-222.156,99.756-252.756,215.424
			c-31.212,116.893,15.3,244.188,115.056,313.344c101.592,70.381,240.516,67.933,339.66-6.731
			c97.309-72.828,140.761-201.96,105.265-318.852C541.62,200.16,436.968,118.152,317.628,110.808
			C301.716,109.584,285.804,110.196,269.892,111.42L269.892,111.42z M77.724,232.596c60.588-77.724,158.508-118.728,256.428-105.876
			c96.084,12.853,180.54,77.112,220.319,165.24c11.017,25.092,18.36,52.02,22.032,79.56c1.224,11.016,1.836,22.032,1.836,33.048
			c0,6.731,0,12.852-0.611,19.584c0,3.672-0.612,6.731-0.612,10.403c0,1.225,0,3.061-0.612,4.284c0,0.612-0.612,6.12-0.612,3.672
			C567.324,515.34,528.156,580.824,471.24,625.5c-26.316,18.972-57.528,36.72-89.964,46.512
			c-22.645,6.732-46.513,11.017-70.38,11.628c-15.913,0.612-34.884-0.611-48.349-2.447c-24.48-3.673-48.96-10.404-71.604-19.584
			c3.672,1.836-3.06-1.225-3.06-1.225c-1.836-1.224-4.284-1.836-6.12-3.06c-3.672-1.836-6.732-3.061-10.404-4.896
			c-7.344-3.672-14.688-7.956-22.032-12.852c-14.076-9.18-27.54-19.584-39.78-30.601c-23.868-22.031-43.452-47.735-58.14-76.5
			c-33.66-64.26-41.004-139.536-20.808-208.08c5.508-18.36,12.852-36.108,22.032-53.244
			C59.976,257.688,69.156,245.448,77.724,232.596L77.724,232.596z M469.404,179.964L469.404,179.964L469.404,179.964z
			 M469.404,179.964C469.404,179.964,469.404,180.576,469.404,179.964L469.404,179.964z M77.724,573.48l0.612,0.611
			C77.724,574.092,77.724,573.48,77.724,573.48L77.724,573.48z M259.488,682.416C260.1,682.416,260.1,682.416,259.488,682.416
			L259.488,682.416z M335.988,682.416C335.376,682.416,334.764,682.416,335.988,682.416L335.988,682.416z"/>
		<path fill="#232323" d="M229.5,307.26c-5.508,0.612-9.18,2.448-12.852,6.732c-3.06,3.672-1.224,7.956,3.672,5.508
			c4.284-2.448,4.896-4.896,10.404-4.896c3.672,0,7.344,0.612,11.016,1.224c3.672,0.612,9.18,0.612,12.24,1.836
			c0.612,0.612,0.612,1.224,1.224,1.836c1.224,0.612,2.448,0.612,4.284,1.224c3.06,0.612,6.732,0.612,9.18,0
			c2.448-0.612,6.12-2.448,4.284-5.508c-1.224-2.448-3.672-1.836-6.12-1.836C254.592,312.768,242.352,306.036,229.5,307.26
			L229.5,307.26z M263.772,312.768C264.384,312.768,264.384,312.768,263.772,312.768L263.772,312.768z M238.068,314.604h0.612
			C238.68,314.604,238.68,314.604,238.068,314.604L238.068,314.604z"/>
		<path fill="#232323" d="M325.584,309.708c-2.448,0.612-4.896,0.612-7.344,1.224c-1.836,0-5.508-0.612-7.344,0.612
			c-1.837,1.224-1.837,4.284,0,5.508c1.836,1.224,6.119,0.612,7.955,0.612c6.12,0,12.24-1.224,18.36-2.448
			c5.508-1.224,11.016-2.448,15.912-1.224c3.06,0.612,10.404,6.732,12.24,2.448c1.836-3.672-5.509-7.344-7.956-7.956
			C346.392,304.2,335.988,307.26,325.584,309.708L325.584,309.708z M320.076,310.32C319.464,310.32,319.464,310.32,320.076,310.32
			L320.076,310.32z M347.004,313.38C346.392,313.38,346.392,313.38,347.004,313.38L347.004,313.38z"/>
		<path fill="#232323" d="M211.752,271.152c-11.628,24.48-14.076,51.408-15.3,78.336c0,3.06-1.836,11.628,0.612,14.076
			c4.284,4.896,3.672-9.18,3.672-10.404c0-9.792,0-20.808,1.224-30.6c0.612-10.404,4.896-21.42,7.344-31.212
			c1.224-4.896,3.06-10.404,4.896-15.3c0.612-1.224,1.836-3.06,1.836-4.284C214.812,270.54,212.364,269.928,211.752,271.152
			L211.752,271.152z M201.348,323.172C201.348,323.784,201.348,322.56,201.348,323.172L201.348,323.172z"/>
		<path fill="#232323" d="M214.2,266.868c-2.448,0.612-2.448,4.896-3.06,6.732c-0.612,2.448-2.448,4.896-3.06,7.344
			c0,0-1.836,5.508,1.224,3.06c0,3.06-1.836,15.912,1.224,17.136c3.672,1.224,2.448-11.628,2.448-13.464
			c0.612-5.508,2.448-11.016,3.06-16.524C216.036,269.316,216.648,265.644,214.2,266.868L214.2,266.868z"/>
		<path fill="#232323" d="M376.992,276.048c-3.672,6.732-6.12,12.24-11.017,17.748c-1.836,1.836-3.672,4.284-6.119,5.508
			c-1.837,1.224-6.12,0-7.345,1.224c-3.06,3.06,4.284,4.284,6.12,4.896c3.672,0.612,5.508-1.224,7.956-4.284
			c3.061-3.672,5.508-7.344,7.956-11.628c1.836-3.06,7.344-9.792,5.508-13.464C380.664,276.66,378.216,273.6,376.992,276.048
			L376.992,276.048z"/>
		<path fill="#232323" d="M379.44,274.824c-1.837,0.612-1.837,1.836-1.837,3.06c0,0,0.612,4.284,0.612,1.836
			c0.612,3.06,1.836,30.6,7.956,25.704C391.68,301.14,384.948,272.988,379.44,274.824L379.44,274.824z M378.828,282.168
			L378.828,282.168L378.828,282.168z M378.828,282.168C378.828,282.78,378.828,282.78,378.828,282.168L378.828,282.168z"/>
		<path fill="#232323" d="M378.828,280.332c-0.612,2.448,0.612,5.508,1.224,7.956c0,3.06,0.612,6.12,0.612,9.792
			c0.612,6.12,2.448,12.24,3.06,17.748c0.612,5.508,0.612,11.628,1.225,17.136c0,1.836-1.225,14.076,2.448,11.016
			c2.447-1.836,0.611-15.3,0.611-18.36c0-6.12,0-12.24,0-18.36c0-6.12-1.836-12.24-3.672-17.748
			c-0.612-2.448-1.224-4.896-2.448-7.344C381.888,281.556,379.44,277.272,378.828,280.332L378.828,280.332z"/>
		<path fill="#B1440A" d="M244.8,258.3c-3.06,6.732-7.956,12.852-11.628,18.972c-4.896,7.344,1.836,9.18,8.568,7.956
			c-0.612,3.06-5.508,12.24-3.672,15.3c3.06,4.896,6.732-3.06,7.956-5.508c1.224-3.06,3.06-6.12,4.896-8.568
			c1.224-1.836,4.896-4.896,4.284-7.344c-0.612-3.672-4.284-2.448-6.732-3.06c-2.448,0-4.284-0.612-6.12-1.224
			c2.448-3.672,4.284-6.732,6.732-10.404c1.224-1.836,2.448-3.672,1.836-5.508C249.084,257.076,246.024,255.852,244.8,258.3
			L244.8,258.3z"/>
		<path fill="#232323" d="M249.696,140.184c-41.004,1.224-70.38,37.944-82.62,73.44c-6.732,20.808-9.792,42.228-10.404,64.26
			c-0.612,22.032,1.836,42.84,11.628,63.036c3.672,7.956,7.956,16.524,13.464,23.868c1.836,2.448,17.748,14.688,15.912,4.284
			c-0.612-2.448-3.672-5.508-5.508-7.344c-3.06-4.284-4.896-8.568-7.344-12.852c-3.672-6.732-7.344-14.076-9.792-21.42
			c-7.344-20.196-7.344-42.228-5.508-63.036c2.448-22.644,8.568-45.9,20.196-65.484c12.852-20.808,34.884-35.496,57.528-43.452
			c5.508-1.836,11.016-3.672,17.136-3.672c3.06,0,6.732,2.448,9.18,0C282.132,142.02,253.368,140.184,249.696,140.184
			L249.696,140.184z"/>
		<path fill="#232323" d="M298.044,138.96c-8.568,0.612-16.524,2.448-25.092,4.896c-3.06,0.612-7.956,3.06-4.896,6.732
			c2.448,3.06,7.956,0,10.404-0.612c18.972-4.284,37.944,0,56.916,3.672c9.792,1.836,20.808,3.672,29.376,9.792
			c7.956,4.896,14.688,13.464,20.196,21.42c14.076,18.36,20.195,39.168,23.868,61.812c3.672,20.808,4.283,43.452,1.836,64.872
			v-0.612c-1.836,14.076-4.896,28.764-12.853,41.616c-3.672,6.12-7.956,11.628-12.24,16.524c-2.447,3.06-9.18,12.24-1.224,13.464
			s17.136-15.912,20.808-21.42c6.732-11.016,10.404-22.644,12.853-36.108c4.896-30.6,7.956-60.588,1.224-91.188
			c-6.12-28.152-22.032-54.468-42.84-74.052c-10.404-9.792-24.479-13.464-37.944-16.524
			C324.972,140.184,311.508,137.736,298.044,138.96L298.044,138.96z M411.264,310.32
			C411.264,310.932,411.264,310.932,411.264,310.32L411.264,310.32z"/>
		<path fill="#232323" d="M266.22,218.52c-1.836,0-5.508,3.672-6.732,4.896c-3.06,2.448-5.508,5.508-7.956,8.568
			c-4.896,4.896-9.792,11.016-14.688,17.136c-9.18,12.852-16.524,28.152-22.032,42.84c0-7.344,0.612-13.464,1.224-20.808
			c0-4.284-2.448-6.732-4.896-1.836c-1.224,3.672-1.224,9.792-1.224,13.464c0,4.284-0.612,8.568-0.612,12.24
			c0,2.448,0,8.568,3.672,7.956c2.448-0.612,4.896-11.016,6.12-12.852c5.508-12.852,15.3-28.764,24.48-41.004
			c1.836-3.06,6.12-7.344,8.568-11.016c2.448-3.06,5.508-8.568,9.18-10.404c-9.792,19.584-8.568,42.84,2.448,61.812
			c3.672,6.12,11.628,18.36,19.584,19.584c9.18,1.224,5.508-14.688,6.12-19.584c2.448,3.672,7.956,8.568,12.24,8.568
			c6.12,0,5.508-6.732,4.896-11.016c-0.612-2.448-0.612-6.732-3.672-7.344c-6.12-1.224-3.672,7.956-3.06,10.404l0,0
			c-2.448-1.224-4.896-3.06-6.732-4.896c-1.224-1.224-3.06-3.672-4.896-4.284c-6.12-1.224-6.732,12.852-6.732,16.524
			c0,0,0-0.612,0,0c-14.076-12.852-20.808-30.6-19.584-49.572c0.612-6.732,1.836-13.464,3.672-20.196
			C266.22,226.476,269.892,218.52,266.22,218.52L266.22,218.52z M299.88,292.572L299.88,292.572L299.88,292.572z"/>
		<path fill="#232323" d="M264.996,217.908c-7.956,4.284-14.076,10.404-20.196,16.524c-6.12,6.732-10.404,14.688-15.3,22.032
			c-7.956,11.016-14.688,22.644-18.36,36.108c-0.612,2.448-2.448,7.344-0.612,9.792c2.448,3.06,4.284,0,4.896-2.448
			c2.448-7.956,3.672-16.524,6.732-24.48c1.836-4.896,7.344-12.24,11.628-17.748c4.284-5.508,7.344-11.628,12.24-16.524
			c3.672-4.284,7.956-8.568,12.24-12.24c2.448-1.836,8.568-4.284,9.792-6.732C268.668,219.132,266.832,216.684,264.996,217.908
			L264.996,217.908z"/>
		<path fill="#232323" d="M211.14,269.316c-3.672,3.06-7.344,15.912-8.568,19.584c-2.448,6.732-3.672,14.076-4.896,21.42
			c-1.836,9.18-3.06,18.36-3.672,27.54c-0.612,4.896-1.224,9.792-1.224,15.3c0,3.672-1.836,10.404-0.612,14.076
			c1.224,3.672,4.284,3.672,5.508,0c0.612-1.836,0-5.508,0-7.344c0-2.448,0-4.896,0.612-7.344
			c1.224-11.016,1.836-22.032,4.284-33.048c1.836-9.792,3.06-19.584,5.508-29.376c1.224-5.508,3.06-10.404,4.896-15.3
			C213.588,272.988,215.424,267.48,211.14,269.316L211.14,269.316z"/>
		<path fill="#232323" d="M378.828,273.6c-3.061,1.224-4.896,7.344-6.732,10.404c-2.447,4.896-7.344,15.912-12.239,17.748
			c-1.225,0.612-11.629,0-6.12,3.06c3.06,1.836,9.18,0,11.628-1.836c6.731-4.896,11.016-16.524,14.688-23.868
			c3.672,9.792,3.061,20.196,4.284,30.6c0.612,9.18,2.448,18.36,3.061,27.54c0.611,9.792,0.611,19.584-0.612,29.376
			c0,1.836-2.448,11.016,3.06,8.568c2.448-1.224,2.448-7.956,2.448-10.404c0.612-12.852,0.612-26.928,0-40.392
			c-0.612-14.688-1.224-31.212-6.732-44.676C384.336,277.884,382.5,271.764,378.828,273.6L378.828,273.6z M361.692,301.14
			L361.692,301.14L361.692,301.14z M361.692,301.14C361.08,301.14,361.08,301.14,361.692,301.14L361.692,301.14z"/>
		<path fill="#232323" d="M514.692,523.908c-2.448,0.611-2.448,2.448-2.448,4.896c0,0.612,1.224,7.956,0.611,5.509
			c0.612,2.447,0.612,4.283,0,6.119c-0.611,3.061-0.611,3.673,0,7.345c1.225,7.344,1.225,13.464,0,20.808
			c0.612-3.672-0.611,3.672-0.611,4.284c-0.612,1.836-0.612,3.672-1.225,5.508c-0.611,3.06-1.224,8.568,3.673,8.568
			c6.119,0,7.344-13.464,7.956-17.748c1.224-9.181,1.224-18.36,0-27.54C521.424,537.372,520.812,522.072,514.692,523.908
			L514.692,523.908z"/>
		<path fill="#232323" d="M105.876,512.892c-1.836,2.448-3.672,4.896-5.508,7.956c-0.612,1.225-1.224,3.672-2.448,4.896
			c-0.612,0.612-3.06,0.612-4.284,1.224c-1.224,0.612-1.836,1.836-2.448,3.061c-2.448,1.836-3.672,1.836-5.508,4.283
			c-1.224,1.837-1.836,4.284-2.448,6.12c-3.06,7.956-6.12,16.524-6.732,25.093c0,4.283-1.224,8.567,0,12.852
			c0.612,4.284,2.448,6.12,5.508,9.18c1.836,2.448,5.508,9.792,9.792,7.345c2.448-1.225,1.224-6.732,1.224-8.568
			c0-7.956,0.612-15.912,1.836-24.48c1.836-10.403,6.12-19.584,9.18-29.376c1.224-4.896,3.06-9.18,5.508-13.464
			c1.224-1.836,3.06-3.672,1.836-6.12C109.548,510.444,107.1,511.056,105.876,512.892L105.876,512.892z"/>
		<path fill="#FFFFFF" d="M285.804,148.752c-4.284,0.612-8.568,2.448-12.852,3.06c-3.06,0.612-6.12-0.612-9.18-1.224
			c-9.792,0-19.584,4.896-28.152,9.18c-17.136,7.956-34.272,20.808-44.064,37.332c-20.196,32.436-28.152,77.724-20.196,115.056
			c3.672,17.136,11.628,34.271,21.42,48.348c2.448-22.032,3.06-44.064,7.956-65.484c1.836-9.18,5.508-18.972,10.404-26.928
			c1.836-3.06,4.284-3.672,4.896,1.224c0,3.672-1.224,7.956-1.224,11.016c4.284-8.568,8.568-16.524,14.076-24.48
			c2.448-3.06,4.284-6.732,6.732-9.792c6.12-9.792,14.688-19.584,24.48-26.316c3.06-1.836,8.568-5.508,7.344,0.612
			c-1.224,6.732-3.672,12.852-4.896,19.584c-3.06,21.42,2.448,41.616,18.36,56.304c0-4.284,0-18.36,7.344-15.912
			c3.672,1.224,7.344,7.344,11.016,8.568c0-3.06-2.448-7.956,0.612-10.404c3.672-2.448,3.672,1.836,5.508,3.672
			c1.835,1.836,4.896,3.06,7.344,3.672c8.567,4.284,18.359,7.956,27.539,9.792c3.673,0.612,7.345,1.224,11.017,1.836
			c1.836,0,4.896,1.224,6.731,1.224c3.673-0.612,7.956-6.12,9.792-9.792c2.448-3.672,4.284-7.344,6.12-11.016
			c1.225-1.836,2.448-6.12,4.896-6.12c3.06,0,4.284,4.284,5.508,6.732v-0.612c9.792,25.092,7.956,55.692,7.344,82.008
			c11.628-14.688,16.524-32.436,18.973-50.184c-1.225,3.06,0.611-4.284,0.611-5.508c0-2.448,0.612-5.508,0.612-7.956
			c0-4.896,0-9.792,0-14.688c-0.612-9.18-0.612-18.36-1.224-27.54c-2.448-22.644-7.956-45.288-20.809-64.26
			c-4.896-7.344-11.016-14.688-17.748-21.42c-7.956-7.956-17.136-11.628-28.151-13.464
			C324.972,151.2,305.388,146.916,285.804,148.752L285.804,148.752z"/>
		<path fill="#B1440A" d="M279.072,563.688c-1.836,2.448-4.896,13.465-7.956,13.465c3.672,7.344,11.628,14.075,16.524,20.808
			c2.448,3.06,4.284,5.508,6.732,8.568c2.448,2.447,2.448,3.06,5.508,1.224c2.448-1.836,4.896-3.672,6.732-6.12
			c1.836-1.836,6.12-4.896,6.731-7.344c0-1.224,0-2.448-0.611-3.672c-0.612-4.896-1.225-10.404-1.836-15.3
			c-0.612-2.448-0.612-4.896-1.225-6.732s-1.224-4.284-1.224-6.12c-0.612-3.06-1.836-3.672-3.06-6.12
			c-4.896,3.061-6.12,3.672-11.628,1.836c-2.448-0.611-5.508-2.447-7.956-3.06c-3.672-0.612-0.612-1.836-3.672,0.612
			C281.52,557.568,280.296,561.852,279.072,563.688L279.072,563.688z"/>
		<path fill="#B1440A" d="M283.356,519.012c-0.612,2.448,0,5.508,0,7.956c0,4.896,0,9.792,0.612,14.688
			c1.224,6.12,8.568,11.016,14.688,12.24c5.508,1.224,9.18-6.12,11.628-10.404c3.672-6.12,3.06-11.017,2.448-17.748
			c-0.612-4.896-1.836-3.672-6.732-4.284C298.044,519.624,290.7,518.4,283.356,519.012L283.356,519.012z"/>
		<path opacity="0.2" fill="#B1440A" d="M260.712,126.72c-72.216,10.404-139.536,48.96-183.6,107.1
			C29.376,296.244,9.792,377.028,24.48,454.14c7.956,42.841,25.704,83.232,52.02,117.504c1.224-11.016,2.448-20.195,6.732-30.6
			c2.448-6.732,6.12-11.628,9.792-17.136c6.732-9.181,14.688-17.137,22.644-25.092c17.748-16.524,39.168-30.601,62.424-37.944
			c12.24-3.672,25.704-5.508,37.944-2.448c1.836,0.612,3.06,1.836,4.284,1.836c2.448,0.612,0.612,1.225,3.06-0.611
			c3.672-3.061,4.896-10.404,11.016-10.404c-21.42-19.584-34.272-48.349-36.72-77.724c-9.18,5.508-18.972-11.628-22.644-18.36
			c-7.956-14.076-14.076-28.764-16.524-44.676c-4.284-30.6-1.224-63.648,7.956-93.024c8.568-26.928,24.48-51.408,50.184-66.096
			c12.852-7.344,28.152-11.016,42.84-8.568c6.732,1.224,11.628,3.06,18.36,1.224c5.508-1.836,11.628-2.448,17.748-3.06
			c12.852-1.224,25.091,0.612,37.944,3.06c15.3,3.06,28.152,6.732,41.004,15.3c13.464,9.18,25.704,17.748,34.272,31.824
			c6.731,11.628,11.016,24.48,12.852,37.944c3.06,18.972,4.284,37.944,4.284,56.916c0,21.42-2.448,42.228-11.628,61.2
			c-5.508,11.016-13.464,28.764-24.48,35.496c-3.672,2.448-3.672,0.612-5.508,3.672c-1.224,3.06-1.836,6.12-2.448,9.18
			c-1.224,4.896-1.836,9.181-3.672,14.076c-1.224,4.284-3.06,8.568-4.896,12.24c-1.225,3.06-3.672,6.12-3.672,9.18
			c0,1.224,0.611,3.061,1.224,4.896c0.612,3.06,1.224,6.731,3.06,9.18c1.836,1.836,3.061,1.224,5.509,1.836
			c2.447,0.612,4.283,2.448,6.119,4.284c1.225-7.956,16.524,1.836,20.809,3.06c4.284,1.225,8.567,2.448,12.852,3.061
			c6.732,1.836,14.076,3.672,19.584,7.956c7.345,4.896,10.404,12.239,14.688,19.584c1.836,3.06,1.224,3.06,4.896,2.447
			c3.672-0.611,7.345-1.224,11.628-0.611c8.568,1.836,15.301,8.567,21.42,14.688c4.284,4.284,7.956,7.956,11.629,12.24
			c2.447,2.448,4.896,6.732,7.344,8.568c1.836,1.224,3.672,0.611,5.508,1.836c5.508,3.672,6.732,17.136,7.344,23.256
			c1.225,9.18,0.612,18.359-1.224,27.54c51.408-65.484,67.932-155.448,47.736-235.62c-20.809-84.456-82.009-155.448-160.956-189.72
			C362.304,126.72,310.896,119.988,260.712,126.72L260.712,126.72z"/>
	</g>
</g>
</svg>
