<?xml version="1.0" encoding="utf-8"?>
<!-- Generator: Adobe Illustrator 16.0.0, SVG Export Plug-In . SVG Version: 6.00 Build 0)  -->
<!DOCTYPE svg PUBLIC "-//W3C//DTD SVG 1.1//EN" "http://www.w3.org/Graphics/SVG/1.1/DTD/svg11.dtd">
<svg version="1.1" id="Layer_1" xmlns="http://www.w3.org/2000/svg" xmlns:xlink="http://www.w3.org/1999/xlink" x="0px" y="0px"
	 width="583.13px" height="581.377px" viewBox="14.229 108.619 583.13 581.377"
	 enable-background="new 14.229 108.619 583.13 581.377" xml:space="preserve">
<g id="Background">
</g>
<g id="Image_Layer">
</g>
<g id="Draw_Layer">
</g>
<g id="Draw_Layer_1_">
	<g>
		<path fill="#232323" d="M284.58,149.976c-28.152,0.612-56.304,16.524-77.112,34.884c-11.628,9.792-21.42,22.644-26.928,36.72
			c-3.672,7.956-6.12,17.748-5.508,26.928c0.612,7.956,4.284,13.464,6.12,20.196c1.836,4.896-1.836,9.18-4.284,13.464
			c-3.06,4.284-4.896,8.568-6.12,13.464c-1.224,4.284-1.836,8.568,0,12.852c1.224,3.06,5.508,6.732,6.732,8.568
			c1.836,2.448-1.836,7.956-3.06,9.792c-4.284,6.12-9.18,11.628-10.404,18.972c-0.612,5.508,0.612,11.628,2.448,17.136
			c0.612,1.836,2.448,7.344,5.508,7.344c4.896-0.612,1.224-4.896,0.612-7.344c-3.06-6.12-4.896-13.464-3.06-20.196
			c1.836-7.344,8.568-12.852,11.016-19.584c3.06-8.568-3.672-10.404-6.12-17.748c-1.224-5.508,1.224-13.464,4.284-17.748
			c2.448-4.284,6.12-7.344,7.344-12.852c1.224-5.508,1.224-12.24,0.612-17.748c-1.224-12.24,1.224-24.48,6.12-36.108
			c9.792-21.42,28.152-37.332,47.736-48.96c12.852-7.344,27.54-13.464,42.228-14.688c2.448,0,11.628,1.224,13.464-0.612
			C302.94,149.976,287.028,149.976,284.58,149.976L284.58,149.976z M181.764,269.316L181.764,269.316L181.764,269.316z
			 M169.524,340.308L169.524,340.308L169.524,340.308z"/>
		<path fill="#232323" d="M174.42,363.564c-3.06,1.836-3.672,9.792-6.12,12.852c-4.284,5.508-9.792,9.792-11.628,16.524
			c-4.284,14.076,6.12,19.584,17.748,22.032c-4.284,6.732-12.24,10.404-17.748,15.912c-5.508,6.12-8.568,14.076-7.956,22.645
			c0.612,6.12,4.284,14.688,9.792,17.748h0.612c2.448,1.224,3.06,1.836,4.284,0c0.612-0.612,0.612-2.448,0.612-3.061
			c0-3.06,0-2.448-2.448-4.284c-3.672-3.06-5.508-7.956-6.12-12.852c-0.612-8.568,4.284-15.3,11.016-20.809
			c4.896-4.283,11.016-7.955,13.464-14.075c4.284-9.792-7.344-9.792-13.464-12.853c-9.18-4.896,0-15.912,4.284-20.808
			c3.06-3.672,5.508-7.344,7.344-12.24C179.928,367.848,179.928,359.892,174.42,363.564L174.42,363.564z"/>
		<path fill="#232323" d="M164.628,469.44c-0.612,0.611-2.448,2.447-1.836,3.672c0.612,0.611,0.612,0,1.224-0.612
			C164.016,471.276,164.016,470.052,164.628,469.44L164.628,469.44z"/>
		<path fill="#232323" d="M201.96,615.096c-0.612,5.508-4.284,9.181-7.956,12.24c-1.224,1.224-11.628,6.12-6.12,7.344
			c3.672,0.612,13.464-8.567,15.3-11.628c1.836-2.448,4.284-6.12,3.672-9.18c-0.612-3.672-0.612-1.836-4.284-3.672
			C201.96,612.036,201.96,613.872,201.96,615.096L201.96,615.096z"/>
		<path fill="#232323" d="M194.004,627.336L194.004,627.336L194.004,627.336z"/>
		<path fill="#232323" d="M194.004,627.336L194.004,627.336L194.004,627.336z"/>
		<path fill="#232323" d="M194.004,627.336L194.004,627.336L194.004,627.336z"/>
		<path fill="#232323" d="M182.988,450.468L182.988,450.468L182.988,450.468z"/>
		<path fill="#232323" d="M206.856,531.252c0.612,3.06,0.612,5.508,2.448,7.956c1.836,3.06,5.508,4.896,7.344,7.956
			c3.06,5.508,0.612,9.18-4.284,13.464c-2.448,2.448-5.508,3.672-8.568,6.12c-1.836,1.836-1.836,1.224-1.836,3.672
			s1.836,4.896,3.06,6.732c9.18-6.12,25.092-14.688,22.644-28.152c-1.224-6.12-5.508-11.016-10.404-15.3
			c-3.06-3.061-4.896-3.061-8.568-4.284c-1.224-0.612-2.448-0.612-3.06-1.224C206.244,528.804,206.244,530.028,206.856,531.252
			L206.856,531.252z"/>
		<path fill="#232323" d="M299.88,162.828c-0.612,3.06,22.645,11.628,25.704,13.464c10.404,6.12,18.972,15.3,26.316,25.092l0,0l0,0
			c9.18,12.24,15.3,25.704,17.748,41.004c1.836,12.24-0.612,25.092-1.225,37.332c5.508,0,7.344-18.972,7.344-22.032
			c0.612-4.896,1.836-9.792,1.225-15.3c-1.225-8.568-3.061-16.524-6.732-24.48c-6.731-14.688-17.748-28.152-29.987-38.556
			c-6.12-4.896-12.853-9.18-20.196-12.24C317.628,166.5,301.104,158.544,299.88,162.828L299.88,162.828z"/>
		<path fill="#232323" d="M278.46,168.336c-20.808,1.224-39.168,17.748-52.632,31.824c-11.016,11.628-15.912,29.988-17.748,45.288
			c-0.612,4.284-0.612,9.18-0.612,14.076c0,3.672-0.612,15.3,1.836,17.748c0.612-3.06,3.672-4.284,4.896-6.732
			c1.836-3.06,1.836-5.508,1.836-9.18c0-2.448,0-4.896,0-7.956c0.612-12.24,2.448-24.48,7.956-35.496
			c6.732-14.688,18.972-25.704,32.436-34.272c6.12-3.672,12.852-5.508,19.584-7.956c4.284-1.224,7.956-3.672,11.628-4.896
			C285.192,168.336,281.52,168.336,278.46,168.336L278.46,168.336z"/>
		<path fill="#232323" d="M248.472,249.12L248.472,249.12L248.472,249.12z"/>
		<path fill="#232323" d="M236.844,190.368c-3.672,3.06-8.568,6.732-12.24,10.404c3.06-1.836,15.912-7.956,12.852-11.628
			C237.456,189.756,236.844,190.368,236.844,190.368L236.844,190.368z"/>
		<path fill="#232323" d="M321.912,151.812c-3.061,0-11.016-0.612-12.24,2.448c-3.672,6.12,8.568,3.672,11.016,3.06
			c11.017-0.612,22.032,0.612,33.049,3.672c15.912,4.284,31.823,9.792,45.288,19.584c10.403,7.956,19.584,18.972,26.315,30.6
			c11.628,19.584,21.42,40.392,24.48,63.648c1.224,11.628-1.225,20.808-4.284,31.824c-1.836,7.956-0.612,11.016,5.508,16.524
			c4.284,3.672,7.956,7.344,11.628,11.016c6.732,6.732,0.612,17.136-2.448,23.868c-1.836,4.284-4.896,8.568-3.672,13.464
			c1.225,4.896,5.509,8.568,8.568,12.24c9.18,10.404,3.672,23.868,9.792,35.496c-0.612-7.956,0.612-16.523-0.612-24.48
			c-1.224-7.344-6.731-12.24-11.016-18.36c-4.896-6.732-3.061-11.016,0-17.748c3.06-7.344,7.344-15.3,4.284-23.256
			c-3.061-6.732-9.792-11.628-14.688-16.524c-6.731-6.12-3.06-11.016-0.612-18.36c3.673-12.24,3.673-24.48,1.225-37.332
			c-3.672-20.808-12.853-41.616-24.48-59.364c-9.18-14.688-21.42-28.152-37.332-36.72c-10.403-5.508-22.644-9.18-34.271-12.24
			C345.168,152.424,333.54,150.588,321.912,151.812L321.912,151.812z"/>
		<path fill="#232323" d="M461.448,361.116L461.448,361.116L461.448,361.116z"/>
		<path fill="#232323" d="M462.672,351.936L462.672,351.936L462.672,351.936z"/>
		<path fill="#232323" d="M461.448,361.116L461.448,361.116L461.448,361.116z"/>
		<path fill="#232323" d="M461.448,361.116L461.448,361.116L461.448,361.116z"/>
		<path fill="#232323" d="M473.076,407.628c-1.225,2.448-1.225,6.12,1.224,7.956c0-3.06,0-6.12,0-9.792
			C474.3,407.016,473.688,407.628,473.076,407.628L473.076,407.628z"/>
		<path fill="#232323" d="M468.18,384.984c1.225,3.06,3.672,6.12,6.12,8.568c-1.836-4.896-4.896-8.568-7.956-13.464
			C466.956,381.924,467.568,383.76,468.18,384.984L468.18,384.984z"/>
		<path fill="#232323" d="M389.232,368.46c-11.629,9.792-23.868,20.196-31.824,33.66c-4.284,6.731-7.344,15.3-4.896,23.256
			c1.225,4.284,3.672,7.956,6.732,11.016c1.224,1.225,4.284,4.284,4.284,5.509c0.611,4.896-9.181,13.464-11.628,17.748
			c-4.896,6.731-7.956,15.3-9.181,23.867c-1.836,15.912,14.688,22.032,26.929,25.093c-7.345,13.464-23.257,24.479-25.093,40.392
			c-0.611,5.508,1.225,10.404,5.509,14.076c5.508,4.896,15.911,6.12,18.972,12.852c0.612-4.284,0.612-11.016-2.448-14.076
			c-3.672-3.672-11.016-3.672-13.464-9.792c-2.448-6.731,6.731-15.911,10.404-21.42c3.672-4.896,7.344-9.792,11.016-14.688
			c4.896-6.732,6.12-12.853-3.06-16.524c-3.673-1.224-6.732-1.836-10.404-3.06c-18.36-5.508-7.956-25.704,0-36.108l-0.612,0.612
			c0.612-0.612,0,0,0,0c4.284-5.508,12.24-12.853,11.017-20.808c-1.836-10.404-14.076-13.465-11.629-25.704
			c2.448-11.017,11.629-20.196,19.585-28.152c3.672-3.672,7.955-7.344,11.628-11.016c1.836-1.836,4.896-3.672,3.672-6.732
			C394.74,367.236,391.068,367.236,389.232,368.46L389.232,368.46z M370.26,506.771C370.26,507.384,370.26,507.384,370.26,506.771
			L370.26,506.771z M353.124,552.672L353.124,552.672L353.124,552.672z"/>
		<path fill="#232323" d="M340.271,605.916c-6.119,3.672,3.061,11.628,6.12,14.076c5.509,3.06,11.628,1.836,17.137-1.225
			c-3.672-1.224-5.509-4.896-9.181-6.119c-1.836-0.612-3.672,0-6.12-1.225C346.392,609.588,343.944,603.468,340.271,605.916
			L340.271,605.916z"/>
		<path fill="#232323" d="M236.844,476.784c-3.672,4.896-10.404,7.956-11.016,14.688c-0.612,9.792,11.628,12.853,15.3,20.196
			c3.06,6.12-3.06,11.016-7.344,14.688c-6.732,4.896-17.136,4.896-25.092,2.447c1.224,3.061,11.016,3.061,14.076,3.672
			c4.284,0.612,9.792,1.225,14.076-0.611c6.732-3.061,14.076-11.628,12.24-18.973c-0.612-4.283-4.284-7.344-7.344-10.403
			c-2.448-1.836-7.956-6.12-8.568-9.181c-1.224-7.344,10.404-12.239,6.732-20.195C238.68,474.336,237.456,475.56,236.844,476.784
			L236.844,476.784z M232.56,491.472L232.56,491.472L232.56,491.472z M232.56,491.472C232.56,492.084,232.56,492.084,232.56,491.472
			L232.56,491.472z M234.396,526.356C233.784,526.356,233.784,526.356,234.396,526.356L234.396,526.356z"/>
		<path fill="#232323" d="M217.872,352.548l-1.836,0.612c-1.224,0.612-0.612,1.836-1.224,3.06c-0.612,3.06-1.224,6.12-1.224,9.18
			c-0.612,5.508-1.224,11.016,0,15.912s2.448,9.792,6.732,12.852c5.508,4.284,9.792,7.956,13.464,13.464
			c10.404,16.524,15.3,35.496,10.404,54.468c5.508-1.836,3.672-9.792,3.672-14.688c0-6.732,0-12.853,0-19.584
			c0-11.628-1.224-22.645-9.18-31.824c-5.508-6.12-18.972-11.016-20.196-20.196C217.872,372.132,228.888,351.936,217.872,352.548
			L217.872,352.548z"/>
		<path fill="#232323" d="M223.38,279.72c0,23.256-7.956,45.288-6.12,68.544c1.224,12.852,5.508,26.928,11.016,37.944
			c-1.224-2.448,1.224,3.672,1.224,3.672c1.224,2.448,2.448,4.284,3.06,6.732c2.448,3.672,4.284,7.344,7.344,11.016
			c5.508,6.12,12.24,11.628,18.972,15.912c-1.836-4.896-0.612-7.344-4.896-11.016c-6.12-4.896-11.628-9.792-15.3-16.524
			c-6.12-10.404-10.404-22.644-13.464-34.272c-3.672-13.464-3.672-28.152-2.448-41.616c0.612-7.956,2.448-15.912,3.06-24.48
			c0-4.284,0-7.956,0-12.24c0-1.224,0.612-3.672-0.612-4.284C225.216,277.884,223.38,278.496,223.38,279.72L223.38,279.72z
			 M227.052,384.984C227.052,384.984,227.664,384.984,227.052,384.984L227.052,384.984z"/>
		<path fill="#232323" d="M227.052,383.76C227.052,384.372,227.052,383.76,227.052,383.76L227.052,383.76z"/>
		<path fill="#232323" d="M227.052,384.372C227.052,383.76,227.052,383.76,227.052,384.372L227.052,384.372z"/>
		<path fill="#232323" d="M227.052,383.76L227.052,383.76L227.052,383.76z"/>
		<path fill="#232323" d="M227.052,384.372C227.052,384.372,227.052,383.76,227.052,384.372L227.052,384.372z"/>
		<path fill="#232323" d="M227.052,384.372L227.052,384.372L227.052,384.372z"/>
		<path fill="#232323" d="M343.944,403.956C343.944,405.18,345.78,403.956,343.944,403.956L343.944,403.956z"/>
		<path fill="#232323" d="M236.232,270.54c-4.284,0.612-11.628,3.06-14.076,6.732c-1.836,3.672,0.612,8.568,4.284,9.18
			c4.284,0.612,7.956-3.672,12.24-4.284c5.508-0.612,11.016,2.448,16.524,3.06c2.448,0.612,9.792,0,8.568-4.896
			c-0.612-2.448-7.956-5.508-9.792-6.732C248.472,271.152,242.964,269.316,236.232,270.54L236.232,270.54z"/>
		<path fill="#232323" d="M250.308,293.796c-4.284,0-15.3,2.448-17.136,6.732c-3.06,6.12,4.896,1.836,6.12,1.224
			c3.06-1.836,7.344-3.06,11.016-3.672c3.06-0.612,6.732,0,9.792,0.612c1.224,0.612,6.12,3.672,7.344,1.836
			C269.28,296.244,252.144,293.796,250.308,293.796L250.308,293.796z"/>
		<path fill="#232323" d="M250.92,293.796c-10.404,0.612-11.016,16.524-0.612,17.136C262.548,312.156,263.16,293.796,250.92,293.796
			L250.92,293.796z"/>
		<path fill="#232323" d="M325.584,293.796c-2.448,0-4.284,0.612-6.732,1.224c-2.447,0.612-11.016,3.672-11.628,6.732
			c-1.224,5.508,3.673,2.448,6.12,1.224c3.672-1.836,6.732-3.672,11.017-4.284c3.672-0.612,7.344,0,11.016,1.224
			c1.836,0.612,5.508,3.672,7.344,2.448c3.061-2.448-5.508-7.344-7.344-7.956C331.704,293.796,328.644,293.184,325.584,293.796
			L325.584,293.796z"/>
		<path fill="#232323" d="M327.42,295.632c-10.404-1.836-14.076,15.912-1.836,15.3C335.988,310.32,337.824,293.184,327.42,295.632
			L327.42,295.632z M328.644,304.812C328.644,304.812,328.032,304.812,328.644,304.812L328.644,304.812z"/>
		<path fill="#232323" d="M277.848,294.408c-1.224,1.836,0,11.628,0,13.464s-3.06,15.3-0.612,14.076
			c3.672-1.836,3.06-14.076,3.06-17.748C280.296,302.976,280.296,291.348,277.848,294.408L277.848,294.408z"/>
		<path fill="#232323" d="M321.912,368.46c-3.061,1.224-6.12,1.836-9.18,2.448c-8.568,1.224-17.749-1.224-26.316-1.224
			c-5.508,0-11.016,3.06-17.136,2.448c-2.448,0-6.12-2.448-8.568-2.448c-3.06,0.612-3.672,2.448-1.224,4.284
			c3.06,3.06,11.016,3.06,15.3,2.448c6.732-1.224,11.628-2.448,18.36-1.836c6.732,0.612,13.464,1.224,19.584,0.612
			c3.06,0,5.508-0.612,8.567-1.836c1.836-0.612,4.284-1.224,3.672-3.672C324.972,369.072,323.136,367.848,321.912,368.46
			L321.912,368.46z"/>
		<path fill="#232323" d="M302.94,377.64c-4.284,1.224-8.568,1.836-13.464,2.448c-3.06,0-6.12,0-9.18,0
			c-1.836,0-9.792-2.448-7.344,1.836c1.836,3.672,14.076,3.06,17.748,2.448c3.672,0,7.344-0.612,10.404-1.836
			c1.224-0.612,3.672-0.612,4.284-2.448C305.388,378.864,304.164,377.64,302.94,377.64L302.94,377.64z"/>
		<path fill="#232323" d="M287.64,365.4c-3.06,2.448-2.448,0.612-6.12,1.224c-3.06,1.224-6.12,4.284-9.792,4.896
			c-3.06,0.612-7.956,3.672-2.448,4.896c1.836,0.612,6.12-1.224,7.956-2.448c1.224-0.612,3.06-2.448,4.896-3.06
			c1.224-0.612,1.836,0.612,3.672,0c1.224,0,2.448-1.224,3.06-1.224c1.224,0,2.448,0.612,3.672,1.224
			c3.672,1.836,7.344,2.448,11.628,3.06c3.672,0.612,8.568,1.224,11.628,0.612c4.896-1.836,3.06-5.508-1.224-6.12
			c-6.12-1.224-12.853-0.612-18.972-3.06c0,0,0,0,0.612,0c-0.612,0-0.612,0,0,0C293.148,366.012,290.088,362.952,287.64,365.4
			L287.64,365.4z M283.356,370.296C283.356,370.296,283.356,370.908,283.356,370.296L283.356,370.296z"/>
		<path fill="#232323" d="M251.532,424.152c0,3.672-1.224,10.403,0,14.075c1.836,3.673,5.508,2.448,6.732-0.611
			c0.612-2.448,1.224-10.404,0-13.464C257.04,420.48,251.532,419.256,251.532,424.152L251.532,424.152z"/>
		<path fill="#232323" d="M351.288,400.896c-1.224,1.224-6.732,2.447-7.344,3.06c-0.612,1.224,1.224,4.284,1.224,5.508
			c1.224,4.284,3.06,22.032,10.404,18.36C361.08,425.376,353.124,400.284,351.288,400.896L351.288,400.896z"/>
		<path fill="#232323" d="M354.96,425.376c-9.792,3.06-18.972,11.016-27.54,16.524c-5.508,3.672-11.016,7.956-15.912,11.628
			c-2.448,1.836-4.896,3.672-7.956,5.508c-2.448,1.836-1.836,1.836-4.284,1.224c-5.508-1.836-11.016-7.956-15.912-11.016
			c-4.284-2.448-8.568-4.896-12.852-7.956c-3.06-1.836-9.18-9.792-13.464-7.956c-6.12,2.448,1.836,7.956,3.672,9.792
			c9.792,7.956,20.196,14.688,31.212,21.42c2.448,1.836,5.508,4.896,9.18,4.896c4.284-0.612,9.792-6.12,12.852-7.956
			c9.792-6.12,19.584-12.853,29.376-18.973c4.284-3.06,9.792-5.508,13.464-8.567C359.856,431.496,360.468,424.152,354.96,425.376
			L354.96,425.376z"/>
		<path fill="#232323" d="M252.144,432.72c-3.06,0.612-6.12,9.792-6.732,12.24c0,1.224,0,3.672,0,4.896
			c0,4.896-0.612,9.792-2.448,14.688c-1.836,6.12-3.06,4.896,0,10.404c5.508,8.567,11.628,15.912,18.972,22.644
			c3.06,3.061,6.12,6.12,8.568,9.18c2.448,3.061,4.284,7.956,8.568,4.284c1.836-1.836,3.06-6.12,3.672-8.567
			c1.836-3.672,3.672-7.345,5.508-11.017c3.672-6.731,7.956-14.076,11.628-21.42c1.224-2.448,2.448-7.344-1.836-7.956
			c-4.284-0.611-6.12,7.344-7.956,10.404c-4.896,9.18-10.404,18.36-14.688,27.54c-4.896-5.508-9.792-10.404-14.688-15.912
			s-8.568-11.628-12.852-17.136c-3.06-3.672-2.448-4.284-0.612-8.568c1.224-3.06,2.448-6.12,3.672-9.792
			C253.368,446.184,260.712,430.271,252.144,432.72L252.144,432.72z M258.876,480.456l0.612,0.612L258.876,480.456L258.876,480.456z
			 M280.908,507.384L280.908,507.384L280.908,507.384z"/>
		<path fill="#232323" d="M356.184,429.048c-4.283,2.448,0,7.956,1.225,10.404c1.224,2.448,3.672,9.792,7.956,6.731
			C369.036,443.736,361.692,425.988,356.184,429.048L356.184,429.048z"/>
		<path fill="#232323" d="M302.94,465.156c-5.508,3.06,3.672,17.136,4.896,20.808c3.061,7.344,3.672,16.524,7.344,23.868
			c4.896,9.18,12.853,0,18.36-3.672c4.284-3.061,9.18-4.896,13.464-7.956c1.224-0.612,6.732-3.672,7.344-5.508l-3.06-6.12
			c-9.792,3.06-19.584,9.18-27.54,15.3c-2.448-7.344-4.896-14.076-7.956-20.808C313.344,477.396,309.06,461.484,302.94,465.156
			L302.94,465.156z"/>
		<path fill="#232323" d="M279.072,500.652c-4.896,3.06,3.06,15.3,5.508,18.359c3.06,3.672,7.344,7.956,11.628,9.792
			c7.956,3.672,32.436-17.136,25.092-21.42c-3.06-1.224-15.3,10.404-17.748,11.628C290.088,526.968,287.028,495.756,279.072,500.652
			L279.072,500.652z"/>
		<path fill="#232323" d="M285.192,524.52c-3.06,11.017-8.568,21.421-11.628,31.824c-1.836,6.732,4.284,9.792,7.344,2.448
			c2.448-6.12,4.284-12.852,6.12-18.972c1.224-3.672,3.672-8.568,4.284-12.853c0-2.448,0.612-4.284-1.836-5.508
			C287.64,521.46,285.804,522.684,285.192,524.52L285.192,524.52z"/>
		<path fill="#232323" d="M318.24,518.4c-6.732,1.836,1.224,17.136,2.447,21.42c1.225,3.672,2.448,18.359,7.956,18.359
			c7.345,0,1.225-16.523,0-20.195C327.42,533.7,324.972,516.564,318.24,518.4L318.24,518.4z"/>
		<path fill="#232323" d="M257.652,539.208c-2.448,2.448,7.344,10.404,9.792,12.852c4.284,4.284,7.956,8.568,12.24,12.853
			c5.508,4.896,10.404,10.404,15.912,15.3c3.06,3.06,4.284,2.448,7.956,0.612c10.404-6.12,20.809-11.017,31.212-17.748
			c3.672-2.448,6.732-4.896,10.404-7.344c1.836-1.225,6.12-3.061,6.732-6.12c1.224-3.672-2.448-6.12-4.284-4.896
			c-3.672,1.224-7.345,5.508-9.792,6.732c0,0-1.225,1.224-1.836,1.224c0,0-5.509,4.896-6.12,4.896
			c-4.284,3.672-9.181,6.731-13.464,9.792c-2.448,1.836-13.464,9.792-16.524,9.18c-1.836,0-5.508-6.12-6.12-6.732
			c-3.672-3.672-7.956-6.731-11.628-10.403C278.46,556.956,260.712,536.148,257.652,539.208L257.652,539.208z M337.212,552.06
			C337.212,552.06,335.988,553.284,337.212,552.06L337.212,552.06z M335.988,553.284
			C335.988,553.284,335.376,553.284,335.988,553.284L335.988,553.284z"/>
		<path fill="#232323" d="M247.86,473.724c-4.896,1.225,1.224,17.748,1.836,22.032c2.448,11.628,2.448,29.376,4.284,43.452
			c1.224,14.076,4.896,28.152,7.344,42.84c1.224,9.18,15.912,81.396,28.764,75.888c4.284-1.836,6.732-9.18,9.18-12.852
			c3.672-6.12,7.956-11.628,12.852-17.136c9.792-10.404,18.972-21.42,26.315-33.66c3.673-5.508,6.732-11.628,9.792-17.748
			c1.837-3.672,9.792-15.3,6.12-18.972c-5.508-4.896-14.076,12.239-17.136,16.523c-8.568,12.853-15.912,25.704-24.479,38.557
			c-4.284,6.119-8.568,12.239-12.24,18.972c-4.284,6.731-6.732,14.688-11.016,20.808c-2.448-17.136-8.568-33.66-12.852-50.184
			c-3.672-13.464-5.508-27.54-8.568-41.004c-3.06-14.076-4.896-27.54-6.732-41.004C260.1,513.504,255.816,471.888,247.86,473.724
			L247.86,473.724z"/>
		<path fill="#232323" d="M136.476,628.56c0,1.837,0,7.345,0.612,8.568c0.612,0.612,4.896,2.448,6.12,3.06
			c0-1.836,0-5.508-0.612-6.731C141.984,631.62,136.476,629.172,136.476,628.56L136.476,628.56z"/>
		<path fill="#232323" d="M332.316,275.436c3.06,7.956,9.18,2.448,12.239-2.448c-4.284,0-9.18,0-13.464-0.612
			C331.704,273.6,332.316,274.212,332.316,275.436L332.316,275.436z"/>
		<path fill="#232323" d="M318.852,273.6c-4.896,0.612-14.688,2.448-17.136,7.344c-1.224,2.448,0.612,6.12,3.06,6.12
			c2.448,0.612,6.121-2.448,8.568-3.06c4.896-1.224,11.017-1.224,15.912-0.612c7.344,0.612,15.3,4.284,22.032,3.672
			c6.731-0.612,7.344-7.956,1.836-11.016c-3.672-2.448-9.18-3.06-13.464-3.672C333.54,272.376,326.196,272.376,318.852,273.6
			L318.852,273.6z"/>
		<path fill="#232323" d="M253.368,414.36c-3.672,3.672,10.404,12.852,14.076,11.016C272.34,422.928,255.816,411.912,253.368,414.36
			L253.368,414.36z"/>
		<path fill="#232323" d="M383.724,343.368c-8.567,19.584-20.808,36.108-37.332,50.184c-11.016,9.181-23.256,16.524-36.107,23.868
			c-14.688,7.956-29.376,7.956-44.676,1.836l0,0l0,0c-1.836-0.612-12.852-9.792-13.464-4.896c0,3.06,7.344,6.731,9.792,7.956
			c4.284,2.447,9.792,3.672,14.688,4.896c9.18,1.836,19.584,3.672,28.764,0.612c8.568-3.061,17.136-7.956,25.092-12.24
			c14.688-7.956,25.703-19.584,35.495-33.048c4.284-6.12,8.568-12.24,12.24-19.584c1.836-3.672,3.672-7.344,5.508-11.016
			c0.612-1.224,3.061-4.896,3.061-6.732C385.56,343.98,384.948,340.308,383.724,343.368L383.724,343.368z"/>
		<path fill="#232323" d="M375.156,254.628c-5.508,17.748-14.076,39.78-1.225,56.304c1.225,1.224,6.12,8.568,8.568,4.896
			c1.224-1.836-5.508-7.956-6.732-9.18c-3.672-4.896-4.896-10.404-6.119-14.688c-0.612-2.448-0.612-6.12,0-8.568
			c0-4.284,2.447-9.792,3.672-14.688c1.224-4.896,1.836-10.404,2.447-15.3C375.768,254.016,375.768,254.016,375.156,254.628
			L375.156,254.628z M372.096,299.916L372.096,299.916L372.096,299.916z"/>
		<path fill="#232323" d="M375.768,306.648L375.768,306.648L375.768,306.648z"/>
		<path fill="#232323" d="M388.62,299.916c-4.284,1.224-6.12,14.076-7.344,17.748c-1.225,6.732-1.836,12.852-1.225,19.584
			c0,3.672,6.12,34.272,11.628,27.54c1.836-1.836-1.224-6.732-1.836-8.568c-2.447-7.344-3.672-15.3-3.672-23.256
			c0-7.344,1.225-14.688,3.672-22.032C390.456,309.096,395.352,298.692,388.62,299.916L388.62,299.916z"/>
		<path fill="#232323" d="M471.24,400.284c-0.612,6.12-1.836,14.076,1.224,19.584c2.448,4.896,7.956,6.731,10.404,11.628
			c1.224,3.06,2.448,6.12,2.448,9.792c0.611,6.731-2.448,11.016-6.12,15.912c-8.568,11.628,3.672,17.748,6.731,28.764
			c3.061,11.628-2.448,18.972-7.956,28.764c12.853-3.672,14.688-18.972,11.017-29.987c-1.836-6.12-7.345-10.404-9.181-16.524
			c-2.447-6.731,4.284-10.404,7.345-15.3c5.508-9.18,3.06-22.645-4.284-30.6c-4.896-4.896-7.344-6.732-7.344-14.076
			c0-2.448,1.224-7.956,0-9.792C474.3,396.612,471.24,397.224,471.24,400.284L471.24,400.284z M481.644,459.648
			C481.032,460.26,481.032,460.26,481.644,459.648L481.644,459.648z"/>
		<path fill="#232323" d="M478.584,513.504c-1.224,2.448-1.836,3.061-1.224,5.508c1.224,5.508,3.672,9.181,1.224,15.3
			c-1.836,4.896-5.508,7.956-9.18,11.629c-2.448,1.836-6.12,4.283-6.732,7.956c-1.224,6.119,7.956,12.239,11.628,16.523
			c2.448,3.061,3.672,6.12,4.284,9.792c0,4.284-1.836,7.956-2.448,12.24c6.12-4.896,11.017-12.853,8.568-20.809
			c-1.224-3.672-3.672-6.731-6.732-9.792c-1.836-1.836-3.06-3.06-4.896-4.283c-2.448-2.448-2.448-2.448,0-4.896
			c4.896-5.508,9.792-10.404,11.628-17.748C485.316,530.64,485.316,512.28,478.584,513.504L478.584,513.504z M470.016,553.284
			C470.016,553.896,470.016,553.896,470.016,553.284L470.016,553.284z"/>
		<path fill="#232323" d="M266.22,566.748c-2.448,2.448,19.584,22.644,22.032,25.092c2.448,2.448,7.344,9.792,11.016,9.792
			c3.672,0.612,9.792-3.672,12.852-5.508c10.404-5.508,22.644-11.628,30.6-19.584c3.672-3.672,3.061-8.568-3.06-6.732
			c-3.061,1.225-6.732,4.284-9.18,6.12c-8.568,5.508-16.524,11.628-25.092,17.748c-1.836,1.225-3.672,3.061-5.508,3.672
			c-2.448,0.612-1.836,1.225-3.672-1.224c-4.284-4.284-7.956-8.568-12.24-12.24C281.52,580.824,267.444,564.912,266.22,566.748
			L266.22,566.748z"/>
		<path fill="#B1440A" d="M265.608,550.836c0.612,0,2.448,13.464,3.06,15.3c1.836,6.12,8.568,11.017,13.464,15.912
			c2.448,2.448,12.852,15.912,16.524,15.912c1.836,0,5.508-4.284,7.344-5.508c5.508-3.672,10.404-8.568,15.912-11.628
			c5.508-3.061,11.628-6.732,16.523-10.404c1.225-1.224,1.837-1.836,3.061-3.672s3.06-3.672,3.672-5.508
			c1.224-3.061,1.224-1.836,0-5.508c-7.344,5.508-15.3,11.016-23.256,15.3c-6.12,3.672-13.464,8.567-20.808,11.016
			c-2.448,0.612-3.672,0-6.12-1.836c-4.284-3.672-7.956-8.568-12.852-12.852c-1.224-1.225-2.448-3.061-4.284-3.673
			c-1.224-0.611-2.448,0-4.284-1.224s-1.836-4.284-3.06-6.12C271.116,555.732,265.608,552.06,265.608,550.836L265.608,550.836z"/>
		<path fill="#232323" d="M224.604,119.988C107.712,153.648,22.032,260.136,14.688,381.312c-0.612,6.732-0.612,14.076,0,20.808
			c0,7.344-1.224,17.136,1.224,24.479c1.224,3.061,1.836,4.284,2.448,8.568c0,3.06,0.612,6.732,1.224,9.792
			c1.224,7.956,2.448,15.912,4.896,23.868c6.732,28.152,17.748,55.691,33.048,80.784c14.076,23.868,31.824,45.899,52.632,64.26
			c4.896,4.896,10.404,9.18,15.912,13.464c5.508,4.896,12.24,7.956,17.748,12.24c11.628,8.567,23.256,15.3,36.108,22.032
			c110.16,53.243,245.412,29.987,332.316-56.305c86.904-86.903,110.16-222.768,56.304-333.54
			C513.468,161.604,391.68,95.508,269.28,110.808C253.98,112.644,239.292,115.704,224.604,119.988L224.604,119.988z M266.22,123.66
			c25.092-3.06,50.795-3.672,75.888,0c0,0,0,0-0.612,0c0.612,0,0.612,0,0,0c50.184,7.956,95.472,25.704,135.864,56.304
			c0,0-0.612,0-0.612-0.612C553.86,239.94,594.252,336.024,584.46,432.72c-1.224,14.076-3.672,27.54-7.344,41.004
			c-3.061,12.853-8.568,25.704-12.853,37.944c-4.283,13.464-14.076,28.764-22.031,41.616c-12.24,19.584-26.929,37.332-43.452,53.244
			c-27.54,26.315-61.2,47.735-97.309,60.588c-89.352,32.436-190.944,16.523-266.832-40.393
			c-39.78-29.376-70.992-70.991-90.576-116.279c0.612,1.224,0,0,0,0v0.611c-7.344-17.136-12.852-34.884-16.524-52.632
			c-1.224-6.731-2.448-13.464-3.06-20.196c0-1.836-0.612-3.06-0.612-4.896c0-0.612,0-1.836,0-2.448
			c-0.612-1.836-0.612-3.06,0.612-3.672c0.612-4.896-0.612-9.792-0.612-14.688c-1.224-34.884,4.896-70.38,15.912-102.816
			c23.868-67.32,73.44-124.236,136.476-157.284C204.408,137.736,235.62,128.556,266.22,123.66
			C266.22,123.66,266.832,123.66,266.22,123.66L266.22,123.66z M197.064,143.244L197.064,143.244L197.064,143.244z"/>
		<path fill="#232323" d="M196.452,143.244C197.064,143.244,197.064,143.244,196.452,143.244L196.452,143.244z"/>
		<path fill="#232323" d="M564.264,511.668L564.264,511.668L564.264,511.668z"/>
		<path fill="#232323" d="M476.136,626.112C476.136,625.5,476.748,625.5,476.136,626.112L476.136,626.112z"/>
		<path fill="#232323" d="M414.324,662.22L414.324,662.22L414.324,662.22z"/>
		<path fill="#232323" d="M241.74,468.828c-3.06,6.12-6.732,11.016-8.568,17.136c-1.224,4.284-1.224,8.568,1.224,12.853
			c1.836,3.672,6.12,5.508,7.956,9.18c1.224,2.448,0,13.464-1.836,16.523c-1.836,3.673-6.732,3.673-10.404,4.284
			c-3.06,0.612-6.732,1.225-10.404,1.836c-1.836,0-3.672,0-4.896,0c-3.06,0-4.284-1.224-4.284,1.836
			c-0.612,4.284,3.672,7.345,6.732,10.404c1.224,1.224,4.284,3.061,4.284,4.896c0,1.224-2.448,3.06-1.836,4.896
			c0,2.448,1.224,3.061,0.612,4.896c-0.612,1.836-3.06,3.672-4.284,4.896c-3.06,3.061-9.18,4.896-11.628,8.568
			c-1.836,1.836-0.612,4.284,1.224,6.731c5.508,6.12,15.3-2.447,20.808,1.836c4.896,3.673,1.836,18.36,0,22.645
			c-4.284,7.956-14.076,11.628-22.644,9.18c0.612,7.344,0,13.464-3.672,19.584c-3.06,5.508-8.568,8.568-11.628,13.464
			c-8.568,11.628,7.956,20.809,15.912,26.316c10.404,7.344,22.644,11.628,35.496,13.464c13.464,1.836,25.704,0,38.556,0
			c10.404,0,10.404-11.628,8.568-18.36c-2.448-11.016-6.732-22.031-9.18-33.048c-3.06-11.016-5.508-22.031-7.956-33.66
			c-1.224-6.119-2.448-12.239-4.284-17.748c-0.612-2.447-1.836-4.283-2.448-6.119c-0.612-2.448-1.224-4.896-1.224-7.345
			c-0.612-4.283-2.448-7.956-3.06-12.239c-0.612-4.896-0.612-10.404-0.612-15.912c0-4.284,0-9.181-1.224-12.853
			s-3.06-3.06-2.448-6.731c0-2.448,1.224-4.896,1.224-7.344c0.612-5.509,0-10.404-1.224-15.912c-1.224-4.284-3.06-6.12-3.672-10.404
			C249.696,481.68,248.472,466.992,241.74,468.828L241.74,468.828z M241.128,519.012
			C241.128,519.624,241.128,519.624,241.128,519.012L241.128,519.012z M241.128,519.624
			C241.128,520.236,241.128,520.236,241.128,519.624L241.128,519.624z M241.128,520.236
			C241.128,520.848,241.128,520.848,241.128,520.236L241.128,520.236z"/>
		<path fill="#232323" d="M277.236,684.252c0.612,0,1.224,0,1.836,0C278.46,684.252,277.848,684.252,277.236,684.252
			L277.236,684.252z"/>
		<path fill="#232323" d="M277.236,684.252L277.236,684.252L277.236,684.252z"/>
		<path fill="#232323" d="M353.736,564.3c-6.12-1.224-12.853,12.853-15.301,17.136c-5.508,7.956-11.016,16.524-17.136,24.48
			c-11.628,15.912-21.42,33.66-35.496,47.736c-3.672-5.508-12.852-4.896-11.628,3.06c0.612,4.896,6.732,11.628,11.628,12.24
			c5.508,0.612,13.464-7.344,16.524-11.017c5.508-5.508,10.404-12.239,15.3-18.359c10.404-12.24,19.584-25.704,26.928-40.393
			c3.672-7.344,6.732-14.688,9.792-21.42c1.225-3.06,4.896-7.956,4.284-11.016C359.856,564.3,356.184,562.464,353.736,564.3
			L353.736,564.3z M314.568,629.784C314.568,630.396,313.956,630.396,314.568,629.784L314.568,629.784z M290.088,649.368
			c0,0.612-0.612,0.612-0.612,1.224C289.476,649.98,289.476,649.368,290.088,649.368L290.088,649.368z M284.58,654.876
			C283.968,654.876,283.968,654.876,284.58,654.876L284.58,654.876z M287.028,654.876c0,0,0.612,0,0.612,0.612
			C287.64,655.488,287.64,654.876,287.028,654.876L287.028,654.876z"/>
		<path fill="#232323" d="M414.936,598.572c-10.403,6.731-20.808,12.852-32.436,17.136c-4.896,1.836-9.792,3.06-14.688,4.896
			c-4.284,1.225-7.956,2.448-12.24,3.673c-1.836,0.611-3.061,0.611-4.896,1.224c-1.224,0.612-3.06,0.612-4.284,0.612
			c-1.836,0.611-2.447,0.611-3.06-1.225c-4.896-4.284-9.18-8.567-16.524-4.896c-3.06,1.836-4.896,4.896-7.344,7.344
			c-3.06,3.672-6.731,7.344-9.792,11.016c-2.448,2.448-5.508,4.896-7.956,7.956c-1.224,1.225-3.06,3.061-3.672,4.896
			c-0.612,1.224-1.224,3.672-1.224,4.284c-0.612,0.611-3.06,0.611-3.672,1.836c-0.612,0.611-1.224,2.448-1.224,3.672
			c-0.612,1.224-1.224,4.284-2.448,4.896c-0.612,0.612-4.284,1.837-5.508,2.448c-4.896,3.061-10.404,7.956-5.508,14.076
			c4.284,4.896,14.076,5.508,20.196,5.508c8.568,0.612,17.136-1.836,26.316-1.224c9.792,0,18.973-1.224,28.152-3.061
			c7.956-1.224,15.912-3.672,23.256-6.731c6.732-3.061,14.688-3.061,22.032-5.508c15.912-4.284,29.988-11.628,43.452-21.42
			c6.731-4.896,14.688-9.792,14.688-18.973c0-7.956-4.896-14.688-9.792-20.808c-3.672-4.284-8.567-4.284-12.852-7.956
			c-1.836-1.836-3.061-5.508-4.896-6.12C424.116,592.452,417.996,596.736,414.936,598.572L414.936,598.572z M405.756,662.22
			C406.98,661.608,405.756,662.22,405.756,662.22L405.756,662.22z M405.144,662.832L405.144,662.832L405.144,662.832z"/>
		<path fill="#232323" d="M461.448,629.172c-5.508,3.061-10.404,6.732-15.3,10.404c-2.448,1.836-6.12,7.344,0,7.344
			c4.283,0,11.628-7.956,14.688-10.404c1.224-1.224,4.284-3.06,4.284-4.896S463.284,628.56,461.448,629.172L461.448,629.172z"/>
		<path fill="#232323" d="M464.508,626.724c-5.508,3.672-12.24,7.956-17.136,12.24c-3.672,3.061-3.061,8.568,2.448,6.732
			c5.508-1.836,12.239-6.732,16.523-10.404c2.448-1.836,5.508-3.672,4.284-6.732C469.404,626.724,466.344,624.888,464.508,626.724
			L464.508,626.724z"/>
		<path fill="#232323" d="M474.3,598.572c-1.836,1.224-1.836,2.447-3.06,3.672c-2.448,2.448-4.896,3.06-7.956,3.672
			c-5.508,1.224-11.628,1.836-16.524,1.224c-4.284-0.611-8.567-1.836-12.24-4.896c-1.836-1.836-2.447-4.896-5.508-3.061
			c-3.672,1.836-1.836,5.509,0,7.345c1.836,2.447,6.12,6.119,9.792,9.18c5.508,3.672,7.345,7.956,10.404,12.852
			c1.224,2.448,3.06,3.061,1.836,5.509c-1.836,3.06-4.896,3.06-5.508,7.344c-0.612,9.18,9.18,9.792,14.688,5.508
			c5.509-4.284,12.853-8.568,16.524-13.464c1.836-2.448,1.836-4.896,3.672-7.344c1.224-1.836,3.672-4.284,4.896-6.12
			c4.896-5.508,6.731-9.181,3.06-15.912C485.316,598.572,480.42,594.9,474.3,598.572L474.3,598.572z"/>
		<path fill="#232323" d="M428.4,606.528L428.4,606.528L428.4,606.528z"/>
		<path fill="#232323" d="M214.812,622.44c-7.956,3.672-16.524,6.731-24.48,11.628c-3.672,2.447-6.732,1.224-11.016,0.611
			c-4.284-0.611-8.568-0.611-12.852-1.836c-7.956-1.836-14.076-6.731-22.032-9.18c-6.12-1.836-12.852,3.672-9.18,9.792
			c3.06,5.508,14.688,9.792,20.196,11.628c2.448,1.224,9.18,1.836,11.016,3.672c0.612,0.612,0.612,1.836,1.224,3.061
			c1.224,1.836,2.448,3.06,4.284,3.672c6.732,4.283,16.524,4.896,24.48,6.731c3.672,0.612,6.732,1.225,9.792-0.611
			c3.06-2.448,3.672-7.345,1.836-10.404c3.672-1.224,8.568-3.061,9.792-7.344c1.836-4.284,0-7.956-4.284-9.792
			c3.672-1.836,9.18-3.061,8.568-8.568C222.156,622.44,217.872,620.604,214.812,622.44L214.812,622.44z"/>
		<path fill="#232323" d="M211.752,613.26c-7.344,3.061-12.852,9.792-20.196,12.853c-7.344,2.447-16.524,2.447-24.48,1.224
			c-7.956-0.612-15.912-3.06-23.256-6.732c-2.448-1.224-5.508-4.283-8.568-1.836c-4.896,3.672,0.612,7.956,3.672,9.181
			c15.3,8.567,36.108,13.464,53.856,10.403c9.18-1.224,17.136-6.731,24.48-12.852c2.448-2.448,6.12-4.896,4.896-9.18
			C220.32,613.26,215.424,611.424,211.752,613.26L211.752,613.26z"/>
		<path fill="#232323" d="M147.492,486.576c-12.24,6.12-14.688,19.584-17.748,31.212c-3.672,13.464-6.732,26.928-9.18,40.392
			c-2.448,14.688-3.06,29.376-4.896,44.064c-1.224,11.628,6.732,21.42,15.912,28.151c3.06,2.448,10.404,7.956,14.076,3.673
			c4.284-4.284-1.836-8.568-4.284-11.017c-3.06-3.672-5.508-9.18-9.792-11.628c-4.896-3.06-9.792-6.12-9.792-12.852
			c0-4.896,3.672-7.345,6.12-11.017c1.224-1.836,2.448-4.284,1.836-7.344c-0.612-3.06-1.836-2.448-3.672-5.508
			c-7.344-10.404,1.224-24.48,7.956-32.437c4.896-5.508,1.836-9.792,1.224-16.523c-0.612-4.896,0-9.792,1.836-14.076
			c1.224-4.284,3.06-8.568,5.508-12.24c1.224-1.224,2.448-2.448,3.06-3.672c1.224-3.06,1.224-7.344,3.06-11.016
			C148.716,485.964,148.104,485.964,147.492,486.576L147.492,486.576z"/>
		<path fill="#232323" d="M153,464.544c-9.792,4.284-18.972,17.748-22.644,27.54c-6.12,15.3-9.792,31.824-12.852,47.736
			c-2.448,12.239-3.672,25.092-4.896,37.943c-0.612,5.508,0,10.404-0.612,15.912c0,6.12-1.836,11.628,0,17.748
			c0,1.836,2.448,2.448,3.672,3.061c1.224-0.612,2.448,0,3.06,1.836c0.612,0.611,1.836,1.224,2.448,1.224
			c4.896,0,4.284-7.344,4.284-11.016c0,0.611-0.612,0-1.224-1.836c-0.612-1.837-1.836-3.673-1.836-5.509
			c0-4.283,2.448-6.731,4.284-10.403c1.224-2.448,1.836-7.956,1.836-10.404c0-3.06-3.06-4.896-3.672-8.568
			c-0.612-4.283-0.612-8.567,0.612-12.852c1.836-5.508,5.508-8.568,7.956-13.464c3.672-7.956,1.224-15.912,2.448-23.868
			c0.612-7.344,3.672-13.464,7.344-19.584c3.672-6.732,4.896-14.076,9.18-20.808c1.224-2.448,3.672-7.345,6.732-7.345
			s4.284,3.061,4.284-1.836c0-1.836,1.224-1.224-1.224-2.448c-1.224-0.611-3.672,0-4.896,1.225
			C157.896,465.768,155.448,463.32,153,464.544L153,464.544z"/>
		<path fill="#232323" d="M487.764,449.244c-2.447,0.612-2.447,3.06-1.836,5.508c-5.508-1.224-7.344,9.18-6.731,12.24
			c0.611,5.508,4.283,9.792,5.508,14.688c1.836,4.896,2.448,9.181,1.836,14.688c-1.224,4.896-0.612,8.567-3.06,12.852
			c-3.673,5.508-1.225,9.792-1.837,15.912c-0.611,7.344-3.06,13.464-7.344,20.196c-3.06,4.896-6.731,8.568-1.836,13.464
			c1.224,1.224,2.448,1.224,3.672,3.06c0.612,1.225,1.225,3.061,1.836,3.673c1.225,3.06,1.836,6.731,2.448,10.403
			c0.612,5.508-0.612,9.181-2.448,14.076c-1.224,3.061-1.836,6.732-3.672,9.792c-1.836,2.448-4.284,3.06-2.448,6.12
			c1.225,2.448,3.673,2.448,5.509,1.836s6.731-4.284,9.18-1.836c1.224,1.836-1.224,6.12,1.224,8.568
			c4.896,4.283,9.181-2.448,12.24-5.509c4.896-4.283,11.628-8.567,12.852-15.3c2.448-15.3-1.224-31.824-2.447-47.124
			C507.348,536.76,498.78,446.184,487.764,449.244L487.764,449.244z"/>
		<path fill="#232323" d="M488.376,448.632c-3.672,1.836,2.448,10.404,3.672,12.853c-2.448-3.061-4.896,0-5.508,2.447
			c-1.224,4.284-0.612,9.792,0,14.076c1.224,8.568,2.448,20.809-1.836,28.764c-1.224,2.448-9.18,6.732-4.896,10.404
			c2.448,2.448,4.284-1.224,6.12-3.06c7.344-7.345,7.956-14.688,6.732-25.092c4.284,20.195,7.956,40.392,10.403,61.199
			c1.225,9.181,3.061,22.645,3.061,33.048c0,4.896-2.448,10.404-2.448,14.688c0,6.12,4.896,3.06,7.344,0
			c6.12-7.344,8.568-12.852,8.568-22.032c0-7.956-1.224-15.912-1.836-23.868c-1.836-20.808-5.508-42.228-10.404-62.424
			C505.512,485.352,495.108,444.96,488.376,448.632L488.376,448.632z M501.84,505.548c-2.448-14.076-5.508-28.764-9.18-42.84
			c7.956,17.136,9.792,37.944,11.628,56.916C503.676,514.728,503.064,510.444,501.84,505.548L501.84,505.548z M487.152,499.428
			L487.152,499.428L487.152,499.428z"/>
		<path fill="#232323" d="M263.772,342.144c-1.224,1.224,3.672,6.12,4.284,6.732c3.672,3.06,5.508,1.836,9.792,1.224
			c1.836,0,5.508-0.612,7.956-0.612c5.508-0.612,12.24,1.224,17.136-0.612c1.836-0.612,3.672-1.224,1.224-2.448
			c-1.836-1.224-7.956,0-10.404,0c-6.732,0-12.852,1.224-18.972,1.836c-3.06,0.612-3.06,0.612-5.508-1.224
			C268.056,345.816,265.608,340.308,263.772,342.144L263.772,342.144z"/>
		<path fill="#232323" d="M325.584,290.124c-4.896,0.612-6.732,3.672-7.956,7.956c-1.224,4.896-0.612,8.568,4.284,11.016
			C337.824,315.828,337.824,287.064,325.584,290.124L325.584,290.124z"/>
		<path fill="#232323" d="M247.248,288.9c-11.016,6.12-0.612,31.212,9.792,19.584C263.16,301.752,258.876,283.392,247.248,288.9
			L247.248,288.9z"/>
		<path fill="#232323" d="M235.62,228.924c0-0.612-2.448,3.06-2.448,3.06c-0.612,1.224-1.224,3.06-1.836,4.284
			c-2.448,5.508-5.508,10.404-9.18,15.912c-2.448,3.672-4.896,7.344-7.344,11.016c-1.836,3.06-8.568,9.792-6.732,13.464
			c3.06,6.732,9.18-5.508,11.016-7.956c2.448-3.672,5.508-7.956,7.956-12.24C228.888,254.016,244.8,227.7,235.62,228.924
			L235.62,228.924z"/>
		<path fill="#232323" d="M236.232,224.028c-1.836,2.448,0,9.792,0.612,12.24c1.224,6.12,4.284,12.852,9.792,17.136
			c9.18,6.732,21.42,9.18,32.436,10.404h-0.612c15.3,1.836,30.6,4.896,45.9,4.284c6.731,0,13.464-0.612,20.195-2.448
			c3.061-0.612,8.568-1.224,11.017-3.672c3.06-2.448,1.836-6.732-1.836-7.344c-3.672-0.612-7.956,1.224-11.017,1.836
			c-4.284,1.224-8.567,1.836-13.464,2.448c-9.792,0.612-19.584,0.612-29.376,0c-12.852-1.224-25.704-1.224-37.944-4.896
			c-7.956-2.448-15.3-4.896-18.972-12.852c-0.612-1.836-1.224-3.672-1.836-6.12C239.904,233.82,239.292,220.356,236.232,224.028
			L236.232,224.028z"/>
		<path fill="#232323" d="M354.348,563.688c-3.06,1.837-3.06,4.284-4.283,7.345c-0.612,1.836-0.612,1.224-1.225,3.06
			c-1.224,1.836-2.448,3.061-3.672,4.284c-1.836,2.448-1.836,4.896-3.06,7.344c-1.225,3.672-1.225,1.836-4.896,4.896
			c-11.628,11.016,8.568,24.479,18.972,23.256c-5.508-5.508-6.731-14.076-3.672-21.42c1.225-3.061,9.181-14.076,12.853-7.956
			c3.06-4.896,4.896-11.017,3.672-17.136C367.812,561.24,359.856,560.628,354.348,563.688L354.348,563.688z"/>
		<path fill="#232323" d="M425.952,599.184c-10.404,3.061-20.196,6.732-30.601,10.404c-4.283,1.836-8.567,2.448-12.852,4.284
			c-3.672,1.836-6.12,3.672-9.792,4.284c-7.344,1.224-11.628-1.836-17.748-3.672c-2.448-0.612-2.448-0.612-4.284-1.837
			c-1.224-1.224-2.448-1.836-3.672-2.447c-1.836-0.612-3.672-1.225-4.896-1.836c-0.612,0-1.836,0-2.448-0.612
			c-0.612,0-1.836,0-2.448,0.612c-0.612-0.612-1.224-1.225-1.836-1.225c-11.628-2.448-5.508,12.24-1.836,16.524
			c1.836,3.06,5.508,7.956,8.568,9.18c1.836,1.225,4.283,0.612,6.119,1.225c1.837,0.611,4.284,2.447,6.12,3.06
			c21.42,7.956,45.9-0.612,66.708-6.732c10.404-3.06,25.093-5.508,23.868-19.584c-0.611-5.508-1.836-4.896-6.12-7.344
			C433.296,602.244,432.072,597.96,425.952,599.184L425.952,599.184z"/>
		<path fill="#232323" d="M449.82,265.644c1.836,12.852,0,24.48-4.284,37.332c-1.224,4.284-3.061,8.568-3.061,12.852
			c-0.611,7.344,5.509,11.628,11.017,15.3c13.464,9.18,3.06,21.42,1.836,34.272c-1.224,10.404,5.508,16.524,11.016,24.48
			c3.672,5.508,4.896,10.404,4.284,17.136c0,4.896-0.612,12.24,3.061,16.524c1.836,1.836,6.119,3.672,6.119-1.224
			c0-1.836-1.836-4.284-2.447-6.12c-0.612-3.672,0.611-7.956,0.611-11.628c0-4.896-1.224-11.017-3.672-15.3
			c-3.06-6.12-8.567-9.792-11.628-15.912c-3.06-6.12,0.612-13.464,2.448-19.584c2.448-7.344,4.284-15.912-0.612-22.644
			c-3.06-5.508-9.18-6.732-13.464-10.404c-4.896-4.284-2.448-11.016-1.224-16.524c1.836-7.956,2.448-15.3,2.448-23.868
			c0-3.06,1.224-11.016-1.225-14.076C452.268,265.032,449.82,263.196,449.82,265.644L449.82,265.644z M459,334.8
			C459,335.412,459,335.412,459,334.8L459,334.8z"/>
		<path fill="#232323" d="M264.384,339.696c-3.672,1.836,2.448,8.568,3.672,9.792c1.836,2.448,3.672,3.06,6.732,3.672
			c6.732,1.224,13.464,0,20.196-0.612c2.448-0.612,9.18-0.612,11.016-2.448c4.284-4.284-5.508-4.896-7.956-4.284
			c-4.896,0-9.18,0.612-13.464,0.612c-3.06,0-8.568,1.836-11.628,0.612C269.28,345.816,268.056,337.248,264.384,339.696
			L264.384,339.696z"/>
		<path fill="#232323" d="M176.868,243.612c0.612,9.792,5.508,19.584,3.06,29.376c-2.448,8.568-9.792,14.688-11.016,23.868
			c-1.224,9.18,4.284,11.628,7.344,18.972c1.836,4.896-1.224,8.568-3.672,12.852c-3.06,5.508-5.508,11.016-6.732,17.136
			c-0.612,3.672-1.836,29.376,7.344,25.092c3.672-1.836,1.224-6.12,0.612-9.18c-1.224-4.284-1.224-7.956-0.612-12.24
			c1.224-6.12,3.06-11.628,5.508-17.136c2.448-5.508,5.508-10.404,3.672-16.524s-8.568-9.792-8.568-17.136
			c0-10.404,9.792-17.748,11.016-28.152c0.612-6.732-0.612-12.852-1.836-19.584c-0.612-1.836,0-7.344-1.224-9.18
			C180.54,239.94,176.868,240.552,176.868,243.612L176.868,243.612z"/>
		<path fill="#232323" d="M370.872,237.492c1.224,13.464-0.612,25.092-3.672,37.944c-3.061,12.852-1.225,26.316,7.344,37.332
			c1.836,2.448,7.344,9.792,11.016,6.12c3.673-3.06-4.283-9.18-6.119-11.628c-9.181-12.24-7.345-27.54-5.509-42.228
			c0.612-3.672,1.836-11.628,1.225-17.136c0-3.06,0-6.732-0.612-9.18c0-1.224,0-2.448-1.224-2.448
			C372.096,235.656,370.26,236.268,370.872,237.492L370.872,237.492z"/>
		<path fill="#232323" d="M294.372,152.424c-1.836,0.612-11.016,1.224-9.792,3.672c0.612,1.224,6.732,1.224,7.956,1.224
			c6.732,1.836,13.464,3.06,20.808,3.06c2.448,0,11.017,0,11.017-3.672c0.611-4.284-8.568-3.06-11.017-3.06
			c-2.447,0-4.896,0-6.731-0.612C303.552,153.648,297.432,151.812,294.372,152.424L294.372,152.424z"/>
		<path fill="#FFFFFF" d="M324.36,157.32c-1.836,7.344-22.032,2.448-27.541,1.836c-9.18-1.836-17.136-1.836-26.316,0.612
			c-18.36,4.284-35.496,14.076-49.572,26.316c-19.584,16.524-36.72,40.392-34.884,67.32c0.612,8.568,1.836,18.972-2.448,26.316
			c-4.284,7.956-13.464,15.3-7.344,25.704c3.672,6.732,9.792,11.628,6.12,20.808c-4.896,12.852-11.628,23.256-7.956,37.944
			c9.18-5.508,3.06,11.628,1.836,13.464c-3.672,6.12-10.404,10.404-12.24,17.748c-2.448,7.956,3.06,9.792,9.18,12.24
			c6.732,2.448,11.016,5.508,6.12,12.853c-6.732,9.792-18.972,12.852-22.032,25.092c-2.448,9.18,1.224,13.464,6.12,20.195
			c1.836,3.061,1.224,0,1.224,3.061c0,0.612-0.612,1.836-0.612,2.448c-1.836,3.672,0.612,1.224-4.284,0.611
			c-2.448,0-4.284,3.061-5.508,4.896c-1.836,3.06-3.672,6.12-4.896,9.792c-1.224,3.06-1.224,7.344-2.448,10.404
			c-1.836,3.672-5.508,6.119-6.732,10.403c-2.448,5.508-3.672,12.24-3.672,18.36c0.612,7.344,3.672,11.628-1.836,17.748
			c-5.508,6.731-9.792,14.076-9.18,23.256c0,3.06,0.612,6.12,2.448,8.568c2.448,3.672,4.284,2.447,3.672,7.344
			c0,1.224,0,3.672,0,4.284c-0.612,1.224-3.06,2.447-4.284,3.672c-2.448,2.448-4.284,6.12-3.672,9.792
			c0,4.284,2.448,7.956,6.12,10.403c1.836,1.225,4.284,1.225,5.508,2.448c1.836,1.225,1.836,4.896,3.672,6.12
			c6.12,4.896,15.912,7.344,23.256,8.568c13.464,1.836,42.228,3.672,39.78-16.524c7.956,3.672,18.36,0,22.644-7.344
			c3.06-4.284,6.12-18.972,1.836-23.256c-5.508-5.508-15.912,3.672-22.032-3.061c-1.224-1.224-3.06-5.508-2.448-7.344
			s5.508-4.284,7.344-6.12c0,0,0,0-0.612,0c6.12-4.896,12.24-10.403,6.732-17.748c-1.836-2.448-6.12-4.896-7.344-7.956
			c-1.224-2.447-1.224-7.344-1.836-10.403c9.18,5.508,24.48,3.06,31.824-4.284c10.404-11.017-4.284-15.912-9.792-24.48
			c-6.732-11.016,6.732-17.748,11.628-25.704c6.732-11.016,7.344-24.479,5.508-37.332c-1.836-12.852-7.956-27.54-17.748-36.107
			c-5.508-4.896-9.792-6.12-12.24-13.464c-2.448-7.956-1.836-15.3-0.612-23.256c0-1.836,0.612-3.672,0.612-5.508
			c0-0.612,0-1.224,0-1.836c-0.612-1.224,0-2.448,1.224-2.448c0.612,0,1.224,0,1.224,0c0-1.224,0-1.836,0-3.06
			c0-2.448-0.612-4.896-0.612-7.344c-0.612-7.344,0-15.3,1.224-22.644c0.612-5.508,2.448-10.404,3.672-15.912
			c1.224-4.896,1.224-9.18,1.836-14.076c0-1.224,0.612-4.284,0-5.508c-0.612-2.448-2.448-3.06-1.836-6.12
			c1.836-6.12,13.464-8.568,18.972-8.568c4.896,0,7.956,1.836,12.24,3.672c3.06,1.836,11.016,4.896,11.016,8.568
			c-0.612,7.344-13.464,1.836-16.524,1.224c-4.284-1.224-7.956-1.836-12.24-0.612c-1.836,0.612-3.06,1.836-4.896,2.448
			c-0.612,0-3.672,0.612-3.672,0.612c-1.224,1.836,0,10.404-0.612,12.852c-0.612,4.896-1.224,9.18-1.836,14.076
			c-2.448,15.912-2.448,34.272,1.836,50.184c3.672,13.464,8.568,28.152,18.36,39.168c10.404,12.239,22.644,18.359,37.944,20.195
			c18.972,2.448,37.944-11.016,52.632-21.42c10.404-7.344,20.196-15.912,28.152-25.704c4.284-4.896,7.956-10.404,11.016-15.912
			c1.836-3.06,4.284-6.732,5.508-9.792c0.612-1.224,1.225-1.836,1.225-2.448c0.611-2.448-0.612-6.12-1.225-8.568
			c-0.611-4.896-0.611-9.792,0-14.688c0.612-4.284,1.225-4.284-1.836-6.732c-6.731-6.12-11.016-14.076-12.852-22.644
			c-2.448-12.24,2.448-23.256,4.284-34.884c3.06-20.808-5.509-42.228-18.36-58.752v0.612c-11.628-15.3-25.704-26.316-44.064-33.048
			c-1.835-0.612-9.18-2.448-8.567-5.508c1.224-3.672,8.567,0,10.403,0.612c9.181,3.06,17.748,6.732,25.093,12.24
			c15.912,12.24,30.6,28.764,37.332,47.736c3.06,8.568,5.508,18.36,3.672,26.928c-1.225,5.508-1.225,11.016-3.061,17.136
			c-3.672,16.524-1.836,30.6,9.181,44.064c1.224-3.06,2.447-11.016,5.508-12.24c3.672-0.612,3.672,3.06,3.06,5.508
			c-3.06,10.404-6.12,19.584-5.508,31.212c0.612,8.568,3.061,15.912,4.896,23.868c0.611,2.448,1.224,6.12-2.448,5.508
			c-3.672-0.612-5.508-10.404-6.12-13.464c-4.284,8.568-7.956,17.136-14.076,25.092c-6.731,9.18-13.464,17.748-21.42,25.704
			c1.836-0.611,3.06-1.836,4.284-3.06c1.836,1.836,1.836,5.508,2.448,7.956c6.731-15.3,20.808-27.54,33.048-37.944
			c2.448-1.836,6.12-4.284,7.956,0s-4.896,7.344-7.345,9.792c-4.283,3.672-8.567,7.956-12.852,12.24
			c-6.12,6.12-11.628,12.852-14.688,21.42c-3.06,8.568,0.612,13.464,5.509,19.584c4.896,6.12,6.731,11.016,2.447,17.748
			c-2.447,3.672-5.508,7.344-8.567,11.016l0.611-0.611c-4.896,6.731-11.016,16.523-10.403,25.092
			c0.611,8.567,8.567,10.403,15.3,12.24c3.06,1.224,8.568,2.447,11.016,4.896c4.896,6.12-3.06,14.688-6.731,19.584
			c-6.12,8.568-25.092,26.928-12.24,35.496c3.06,1.836,7.956,3.06,9.792,6.12c3.672,6.12,1.224,15.912-2.448,21.42
			c-3.672-7.956-12.852,7.344-14.076,9.792c-2.447,7.956,0,15.912,6.12,20.808c3.672,3.061,8.568,4.284,13.465,3.672
			c3.672-0.611,5.508-1.836,8.567-3.06c3.672-1.836,7.344-3.06,11.628-4.284c7.956-3.06,14.688-6.731,21.42-11.628
			c4.896-3.06,12.24-7.956,17.137-3.672c1.836,1.836,3.06,4.896,4.896,6.12c2.448,1.836,4.896,2.448,7.344,3.672
			c6.12,1.836,12.853,0.612,18.973,0c4.896-0.612,9.18-2.448,12.239-6.732c1.225-2.447,1.837-5.508,2.448-7.955
			c1.225-3.673,3.061-7.345,2.448-11.017c0-6.12-4.284-9.792-8.568-14.076c-3.06-3.06-8.567-6.731-7.344-12.239
			c1.224-4.896,8.568-8.568,11.628-12.24c3.061-3.061,4.896-7.344,5.508-11.017c0.612-4.283-1.836-7.344-2.447-11.628
			c-0.612-3.672,3.672-9.18,5.508-12.24c3.06-4.896,4.284-11.016,3.672-16.523s-3.06-10.404-6.12-14.688
			c-3.06-4.283-5.508-8.567-3.06-14.075c3.06-6.732,8.567-9.792,8.567-17.748c0-3.672-1.224-7.956-2.447-11.017
			c-2.448-5.508-6.732-5.508-9.793-10.403c-3.672-5.509-2.447-12.853-2.447-19.584c0.611-12.24-11.017-17.136-14.076-28.152
			c-4.284-12.24,11.628-31.212,0.612-41.004c-4.896-4.284-12.24-6.732-14.076-14.076c-1.225-6.12,2.447-13.464,3.672-19.584
			c7.344-25.092-2.448-51.408-13.464-73.44c-9.181-17.748-20.809-35.496-37.332-47.124c-9.792-6.732-20.196-11.016-31.824-14.688
			C351.288,159.768,338.436,156.708,324.36,157.32L324.36,157.32z M225.216,200.16c6.732-3.672,12.852-11.016,18.36-16.524
			c6.732-6.12,15.912-11.016,24.48-13.464c5.508-1.836,14.688-4.284,18.972,0.612c-3.672,0.612-7.344,2.448-10.404,4.284
			c-4.896,1.836-10.404,3.06-15.3,5.508c-12.24,6.12-22.644,14.688-31.212,25.704c-11.628,15.3-14.688,34.884-14.688,53.855
			c5.508-7.344,11.016-15.3,14.688-23.256c0.612-1.224,1.224-2.448,1.224-3.672c0.612-1.224,1.224-2.448,1.836-3.672
			c0-0.612,1.836-1.224,1.836-1.224c0.612-1.836-1.224-3.672,1.224-4.896c3.06-1.224,2.448,3.06,2.448,4.896
			c0.612,6.12,1.836,12.24,5.508,17.136c5.508,6.732,17.748,9.18,25.704,10.404c17.136,3.06,36.108,4.284,53.856,3.06
			c5.508-0.612,10.404-0.612,15.3-1.836c3.672-0.612,11.017-4.284,14.688-2.448c6.12,3.06,0,7.344-3.672,8.568
			c-4.284,1.224-8.568,2.448-12.24,3.06c-20.196,3.672-41.004-0.612-61.2-3.06h0.612c-6.12-2.448-14.076-2.448-20.196-4.896
			c-11.016-3.672-18.36-9.18-21.42-20.808c-2.448,11.628-9.18,20.808-15.3,29.988c-1.836,2.448-8.568,15.912-12.24,7.956
			c-0.612-2.448,0-6.732-0.612-9.18c0-1.836,0-4.284,0-6.12C206.856,238.716,212.364,216.684,225.216,200.16
			c0,0.612-0.612,0.612-0.612,0.612C225.216,200.772,225.216,200.772,225.216,200.16L225.216,200.16z M302.94,286.452
			c-9.792-9.792,23.868-14.076,28.152-14.076s9.18,0,13.464,0.612c0,0,0,0.612-0.611,0.612c4.896,1.224,15.3,3.06,12.852,9.792
			c-1.836,7.344-12.24,3.06-16.524,1.836c-6.119-1.224-12.852-1.836-18.972-1.836c-3.06,0-6.731,0.612-9.792,1.224
			C309.06,286.452,306,289.512,302.94,286.452L302.94,286.452z M233.784,304.2c-7.344-2.448,7.956-7.956,9.18-8.568
			c1.836-1.836,1.836-4.896,4.284-6.12c2.448-1.224,5.508-1.224,7.956,0c1.224,0.612,2.448,2.448,3.06,3.672
			c1.836,2.448,3.06,2.448,5.508,4.284c1.224,0.612,4.284,1.836,3.672,3.672c-0.612,1.836-5.508-1.224-7.344-1.836
			c-0.612,5.508-1.224,13.464-9.792,12.852c-6.12-0.612-7.956-6.12-7.344-11.628C241.128,300.528,236.232,304.812,233.784,304.2
			L233.784,304.2z M307.836,304.812c-4.896-4.896,9.792-8.568,11.628-9.792c3.061-2.448,4.896-5.508,9.18-4.896
			c3.061,0.612,3.673,2.448,5.509,4.284c1.836,1.224,4.283,1.836,6.12,3.672c1.836,1.836,4.896,4.896,0,5.508
			c-1.225,0-4.284-2.448-5.509-2.448c1.836,12.24-19.584,14.688-17.136,0C315.792,301.752,309.672,307.26,307.836,304.812
			L307.836,304.812z M276.012,321.948c-1.836-0.612,1.224-14.688,1.224-17.748c0-1.836-1.224-13.464,2.448-9.792
			c1.224,1.224,0.612,10.404,0.612,12.852C279.684,310.32,279.684,321.948,276.012,321.948L276.012,321.948z M268.056,350.1
			c-1.836-1.224-6.732-7.344-4.896-9.792c3.672-4.284,5.508,5.508,7.956,6.732c1.836,1.224,7.956-0.612,10.404-0.612
			c4.284,0,9.18,0,13.464-0.612c2.448,0,12.24-1.836,11.016,3.06c-0.612,2.448-8.568,3.06-11.016,3.672
			C288.864,353.772,271.728,357.444,268.056,350.1L268.056,350.1z M285.804,366.624c3.672-4.284,6.12-1.224,10.404,0
			c0,0-0.612,0-0.612-0.612c3.672,1.836,7.956,1.836,11.627,2.448c3.061,0,6.732,1.224,9.792,1.224
			c1.836,0,11.628-4.284,8.568,1.836c-1.224,1.836-8.568,3.672-10.404,4.284c-2.447,0.612-4.896,0-7.344,0
			c-6.732-0.612-14.076-1.836-20.808-1.224c-5.508,0.612-11.016,3.06-17.136,2.448c-2.448,0-6.732-0.612-8.568-2.448
			c-2.448-1.836-2.448-4.284,0.612-4.284c2.448,0,5.508,2.448,8.568,2.448s6.12-1.836,8.568-3.672
			c1.224-0.612,3.06-2.448,4.284-2.448C283.356,366.012,284.58,366.624,285.804,366.624L285.804,366.624z M286.416,380.7
			c4.284,0,8.568-1.224,12.852-1.836c1.836-0.612,7.956-1.836,6.12,2.448c-1.224,2.448-9.18,2.448-11.628,3.06
			c-5.508,0.612-12.24,0.612-17.748-1.224c-3.672-1.224-4.284-3.672-0.612-3.672C279.072,378.864,282.744,380.7,286.416,380.7
			L286.416,380.7z M468.792,411.3v-0.612c0.612,1.225,1.224,3.061,1.836,4.284C469.404,413.748,469.404,412.524,468.792,411.3
			L468.792,411.3z"/>
		<path fill="#B1440A" d="M315.792,520.848c-3.672,3.061-7.956,6.732-12.24,8.568c-4.896,1.836-7.956,0-11.628-3.06
			c-2.448,8.567-5.508,17.136-8.568,25.703c-0.612,1.837-3.06,6.12-2.448,7.345c0.612,1.836,4.284,3.672,5.508,4.896
			c4.284,3.672,7.344,7.956,11.628,11.017c1.836,1.224,0.612,1.836,3.06,1.224c0.612,0,3.06-1.836,3.672-2.448
			c2.448-1.224,5.508-3.06,7.957-4.284c6.119-3.672,11.628-7.344,17.136-11.628c-6.732,0-6.732-11.016-7.956-15.912
			C320.076,535.536,315.18,526.968,315.792,520.848L315.792,520.848z"/>
		<path fill="#B1440A" d="M301.104,469.44c-3.06,6.731-6.732,13.464-10.404,20.195c-1.836,3.672-6.732,9.181-6.12,13.464
			c0.612,4.896,6.12,11.628,9.792,14.688c3.06,2.448,4.896,4.284,8.568,1.836c2.448-1.224,4.284-3.06,6.732-4.284
			c1.225-1.224,4.896-3.06,5.508-4.284c1.225-1.836-0.611-4.896-1.224-7.344c-1.836-7.344-4.284-14.688-7.344-21.42
			C304.776,478.62,301.104,472.5,301.104,469.44L301.104,469.44z"/>
		<path opacity="0.2" fill="#B1440A" d="M266.22,123.66c0.612,0,1.224,0,1.836,0c-64.872,8.568-124.236,39.78-168.912,87.516
			c-47.736,51.408-73.44,118.728-75.276,188.496c0,4.896,0,10.404,0.612,15.3c0,1.836,0,3.672,0,4.896c0,1.836,0,3.672,0.612,4.896
			c0,1.225-0.612,2.448-1.224,3.061c-1.224,6.731,2.448,17.748,3.672,24.479c3.06,20.809,9.18,40.393,16.524,58.752v-0.611
			c17.136,36.107,37.944,69.155,67.32,96.695c0-22.031,1.224-45.288,5.508-67.319c3.06-14.688,6.732-29.988,11.628-44.677
			c3.672-10.403,12.852-26.315,23.256-30.6c-4.896-8.568-3.672-19.584,1.224-28.152c5.508-9.18,16.524-12.852,21.42-21.42
			c-6.732-1.224-15.3-3.06-17.748-9.792c-3.672-8.567,1.836-17.136,7.344-23.256c1.836-1.836,6.12-5.508,6.732-7.956
			c0.612-2.448,0-1.224-1.836-3.672c-1.224-1.224-1.836-3.672-1.836-4.896c-2.448-7.344-4.284-15.3-1.836-22.644
			c2.448-7.344,9.18-12.24,11.628-19.584c2.448-7.344-4.284-10.404-6.12-16.524c-4.284-12.852,6.732-20.808,9.792-31.824
			c1.836-6.732-1.836-11.628-3.672-17.748c-2.448-8.568-1.224-17.748,1.224-26.316c3.672-12.852,11.016-25.092,20.196-35.496
			c14.688-17.136,36.108-29.988,57.528-37.944c7.344-3.06,15.3-4.896,23.256-5.508c3.06-0.612,6.12-0.612,9.18-0.612
			c1.836,0,4.896,0,6.12,0.612c2.448,0.612,3.06,1.836,4.896,2.448c1.836,0.612,5.508,1.224,7.956,0.612
			c2.448,0,2.448-0.612,4.284-1.224c6.12-1.836,14.076-1.836,20.809-1.224c10.403,0,20.808,2.448,31.212,5.508
			c9.792,3.06,19.584,5.508,28.764,10.404c17.748,9.792,31.212,26.316,41.616,43.452c11.628,20.196,20.196,42.228,22.032,66.096
			c0.611,7.344-0.612,14.076-2.448,20.808c-1.225,6.12-5.508,16.524,0,21.42c4.284,3.672,10.403,4.896,13.464,10.404
			c5.508,8.568,1.836,18.36-1.224,27.54c-1.225,4.284-3.061,8.568-1.837,12.852c1.225,3.672,4.896,6.732,7.345,9.792
			c4.283,4.896,6.731,11.016,8.567,17.136c1.225,4.896-0.611,9.792-0.611,14.688c0,4.896,2.447,7.344,5.508,11.016
			c5.508,6.12,7.956,17.136,5.508,25.092c4.284,0.612,5.508,6.12,7.344,9.792c3.061,6.12,4.896,11.628,6.732,18.36
			c3.06,11.016,6.12,22.644,7.956,33.66c2.448,14.075,4.896,28.151,6.12,42.228c1.224,10.404,3.06,22.032,1.224,32.437
			c80.172-89.353,86.904-230.112,24.48-331.092c-17.748-28.764-40.393-53.856-66.708-74.052c0,0,0.611,0,0.611,0.612
			c-40.392-30.6-85.68-48.348-135.252-56.916h0.612C317.016,119.988,291.312,120.6,266.22,123.66L266.22,123.66z"/>
	</g>
</g>
</svg>
