<?xml version="1.0" encoding="utf-8"?>
<!-- Generator: Adobe Illustrator 16.0.0, SVG Export Plug-In . SVG Version: 6.00 Build 0)  -->
<!DOCTYPE svg PUBLIC "-//W3C//DTD SVG 1.1//EN" "http://www.w3.org/Graphics/SVG/1.1/DTD/svg11.dtd">
<svg version="1.1" id="Layer_1" xmlns="http://www.w3.org/2000/svg" xmlns:xlink="http://www.w3.org/1999/xlink" x="0px" y="0px"
	 width="606.303px" height="603.116px" viewBox="0 90.092 606.303 603.116" enable-background="new 0 90.092 606.303 603.116"
	 xml:space="preserve">
<g id="Background">
</g>
<g id="Image_Layer">
</g>
<g id="Draw_Layer">
</g>
<g id="Draw_Layer_1_">
	<g>
		<path fill="#232323" d="M233.172,303.588c-4.896,0-10.404,0.612-15.3,2.448c-3.06,1.224-11.016,3.06-11.628,6.732
			c-1.224,6.732,6.732,2.448,9.18,1.224c4.896-1.836,9.792-2.448,14.688-3.06c4.896,0,11.016-0.612,15.3,1.224
			c2.448,1.224,8.568,6.732,11.016,1.836C260.712,305.424,236.844,303.588,233.172,303.588L233.172,303.588z"/>
		<path fill="#232323" d="M331.704,281.556c-9.18,1.224-17.748,3.672-25.704,7.956c-4.284,2.448-15.912,8.568-12.24,14.688
			c0.612,1.224,2.448,1.836,3.672,1.836c2.448-0.612,1.836-2.448,3.06-4.284c2.448-3.06,7.956-3.672,11.628-4.896
			c4.284-1.224,8.567-2.448,12.852-3.672c1.836-0.612,3.672-0.612,5.509-1.224c0.611,0,9.18-1.224,5.508-0.612
			c6.12-0.612,11.016-1.224,17.136,0c3.06,0.612,6.732,0.612,5.508-3.06c-1.224-3.06-8.567-4.896-11.628-5.508
			C341.496,280.944,335.988,280.944,331.704,281.556L331.704,281.556z"/>
		<path fill="#232323" d="M235.008,319.5c-8.568,1.836-7.956,18.972,2.448,17.748C246.636,335.412,245.412,317.664,235.008,319.5
			L235.008,319.5z"/>
		<path fill="#232323" d="M324.36,302.364c-9.181-0.612-12.24,17.136-2.448,18.36C334.152,321.948,335.988,300.528,324.36,302.364
			L324.36,302.364z"/>
		<path fill="#232323" d="M237.456,321.948c-6.12,0-14.076,2.448-17.748,6.732c-1.224,1.836-2.448,4.284-0.612,5.508
			c2.448,1.836,5.508-1.224,7.344-2.448c5.508-3.06,12.852-4.896,19.584-3.672c1.836,0.612,14.076,6.12,11.628,1.224
			C255.816,324.396,244.188,321.948,237.456,321.948L237.456,321.948z"/>
		<path fill="#232323" d="M330.48,304.812c-4.284,0-9.793,1.836-14.076,4.284c-2.448,1.224-7.956,5.508-8.568,8.568
			c-0.612,1.224-0.612,3.06,1.224,4.284c2.448,1.224,3.673-1.224,5.509-2.448c3.672-3.06,7.956-5.508,12.239-6.732
			c4.284-1.224,9.181-2.448,14.076-1.224c2.448,0.612,7.344,6.12,9.792,4.896c3.672-1.836-1.224-6.12-3.06-6.732
			C342.72,304.812,336.6,304.2,330.48,304.812L330.48,304.812z M322.524,313.38C321.912,313.992,321.912,313.992,322.524,313.38
			L322.524,313.38z M313.344,320.112C312.732,320.724,313.344,320.112,313.344,320.112L313.344,320.112z M312.732,320.112
			C312.732,320.724,312.732,320.724,312.732,320.112L312.732,320.112z"/>
		<path fill="#232323" d="M267.444,326.232c0,3.672,0.612,6.732,1.224,10.404c-0.612-3.06,0,1.224,0,2.448s0,3.06,0.612,4.896
			c0,3.672,0,6.732,0.612,10.404c0,6.732,0,14.076,0,20.808c0,4.284-1.836,10.404,0,14.688c1.224,2.448,3.672,3.672,5.508,2.448
			c2.448-1.224,1.836-3.672,2.448-6.12c1.224-13.464,0-27.54,0-41.004c0-5.508,0.612-13.464-0.612-18.972
			C275.4,320.112,267.444,320.112,267.444,326.232L267.444,326.232z"/>
		<path fill="#232323" d="M306.612,377.64c-7.344,3.672-14.076,7.344-21.42,10.404c-0.612,0-5.508,3.06-0.612,3.672
			c2.448,0.612,9.792-4.284,12.24-4.896c3.672-1.836,7.956-3.06,11.016-4.896C310.284,380.7,310.284,375.804,306.612,377.64
			L306.612,377.64z"/>
		<path fill="#232323" d="M323.136,412.524c-7.956,0-17.136-0.612-24.48,1.836c-4.896,1.224-8.568,3.06-12.852,3.06
			c-5.508,0-11.016,0.612-16.524,3.672c-2.448,1.225-3.672,3.672,0,3.672c1.836,0,7.344-3.06,9.18-3.672
			c3.06-1.224,6.732-0.611,10.404-0.611c6.12,0,11.016-4.284,17.136-4.284c4.896,0,11.628,1.836,16.524,1.224
			c1.836-0.612,3.06,0.612,1.836-3.06C324.36,412.524,324.972,412.524,323.136,412.524L323.136,412.524z"/>
		<path fill="#232323" d="M285.804,417.42C285.192,417.42,285.192,417.42,285.804,417.42L285.804,417.42z"/>
		<path fill="#232323" d="M285.804,417.42L285.804,417.42L285.804,417.42z"/>
		<path fill="#232323" d="M289.476,410.688c-1.836,1.837-1.836,0-4.284,0c-1.224,0-2.448,1.225-4.284,1.837
			c-2.448,1.836-7.956,3.672-10.404,5.508c-1.224,2.448-1.224,4.284,1.224,5.508c1.224,0.612,5.508-2.448,6.12-2.448
			c0.612-0.611,1.836-1.224,2.448-1.224c0.612-0.612,1.224-0.612,1.836-1.225c0.612-0.611,1.224-0.611,1.836,0.612
			c3.06,0.612,4.284,1.225,6.732,0.612c2.448-0.612,4.896-2.448,7.344-2.448c4.284-1.224,9.18,0.612,13.464,0
			c3.061-0.612,6.732-1.836,4.284-5.508c-1.224-3.672-6.732-3.672-9.792-3.672C300.492,407.628,293.76,407.016,289.476,410.688
			L289.476,410.688z"/>
		<path fill="#232323" d="M311.508,422.316c-7.344,0.611-14.688,2.447-21.42,4.283c-2.448,0.612-8.568,1.225-10.404,3.061
			c-1.836,2.448-0.612,5.508,2.448,6.12c3.06,0.611,7.956-1.836,11.016-2.448c3.672-1.224,7.956-2.448,11.628-3.061
			c2.448-0.611,7.344-0.611,9.18-3.06C315.18,425.376,313.956,421.704,311.508,422.316L311.508,422.316z"/>
		<path fill="#232323" d="M293.148,410.076c0,3.06,15.912,6.731,15.912,1.836C309.06,408.24,293.148,405.792,293.148,410.076
			L293.148,410.076z"/>
		<path fill="#232323" d="M312.12,409.464c-4.284,2.448,6.12,6.732,7.956,5.508C324.36,413.136,314.568,408.24,312.12,409.464
			L312.12,409.464z"/>
		<path fill="#232323" d="M309.06,411.912c-1.836,6.731,16.524,9.18,15.912,2.448C324.36,409.464,310.284,406.404,309.06,411.912
			L309.06,411.912z"/>
		<path fill="#232323" d="M324.972,411.3c-0.611,0.612-5.508,2.448-4.896,2.448c-1.836,0-9.792-2.448-7.956,1.836
			c0.612,2.448,7.956,1.836,10.404,1.224c0.611,0,2.447,0.612,3.06,0C325.584,416.196,324.36,411.912,324.972,411.3L324.972,411.3z"
			/>
		<path fill="#232323" d="M275.4,416.808c-2.448,0.612-5.508,3.061-7.956,3.061c-1.836,0-4.896-1.836-6.12-1.225
			c-2.448,1.837,3.672,4.896,4.896,5.509c3.06,1.224,5.508-1.225,6.732-1.836C274.176,421.704,281.52,415.584,275.4,416.808
			L275.4,416.808z M267.444,419.868L267.444,419.868L267.444,419.868z"/>
		<path fill="#232323" d="M322.524,415.584c0,1.836,1.224,2.448,2.447,1.224c0.612-0.611,0-3.672,0-4.896
			C323.748,412.524,322.524,413.748,322.524,415.584L322.524,415.584z"/>
		<path fill="#232323" d="M320.076,413.748c-4.284,2.448,5.508,6.12,7.956,4.284C331.704,414.36,321.912,411.912,320.076,413.748
			L320.076,413.748z M323.136,413.748L323.136,413.748L323.136,413.748z"/>
		<path fill="#232323" d="M338.436,408.852c-2.447,0-4.283,1.225-6.731,1.836c-1.224,0-5.508,0-4.284,0.612
			c-2.448-0.612-8.568-2.448-9.792,1.225c-0.612,1.836,0.612,2.447,1.836,3.672c0.612,0.611,7.344,1.224,5.508,0.611
			c4.284,0.612,9.181,0.612,12.853-2.447C339.048,413.748,343.332,408.852,338.436,408.852L338.436,408.852z"/>
		<path fill="#B1440A" d="M358.02,530.028c-5.508,1.836-11.016,3.672-16.523,6.12c-3.672,1.836-7.344,3.672-11.016,4.896
			c-4.284,1.836-9.181,1.836-12.853,3.061c-1.836,0.611-11.016,4.896-12.24,6.731s1.224,7.344,1.835,9.792
			c1.225,4.896,1.836,9.792,3.061,14.076c1.224,6.731,2.448,13.464,3.672,20.196c0,0.611,0,3.672,0.612,3.672
			c1.836,1.836,12.239,0.611,15.3,0.611c4.896,0,9.792-0.611,14.688-0.611c3.061,0,3.061,0,4.284-2.448
			c1.225-1.836,1.836-4.284,2.448-6.732c2.448-5.508,6.731-13.464,6.731-19.584c0-4.283-3.06-8.567-3.06-12.852
			c0-4.896,1.224-9.792,2.448-14.076c0.611-1.224,1.224-3.06,1.836-4.284c0.612-0.611,1.224-1.836,1.224-3.06
			c0-1.836-0.611-1.836-0.611-3.061C359.244,532.476,358.02,531.252,358.02,530.028L358.02,530.028z"/>
		<path fill="#B1440A" d="M347.004,608.364c-4.896,1.224-9.792,1.224-14.688,1.224c-3.673,0-7.345,0-11.629,0
			c-1.224,0-4.283-0.612-5.508-0.612c-1.836,1.225-4.284,7.956-4.896,9.792c-1.225,2.448-4.284,6.12-4.896,8.568
			c-0.612,2.448,0.612,6.12,1.835,9.18c1.836,6.732,3.061,14.076,5.509,20.809c1.224,3.06,3.06,6.731,4.283,9.792
			c0.612,1.836,2.448,8.567,4.284,9.792c2.448,1.836,14.688-1.225,17.748-1.225c2.448,0,4.896-0.611,7.344-1.224
			c-1.836-4.896,1.225-12.24,2.448-17.136c1.225-5.508,4.896-12.24,5.508-17.748c0-2.448,0.612-1.225-0.611-4.284
			c0-0.612-0.612-1.224-0.612-1.836c-0.612-2.448-1.224-5.508-1.224-7.956c-0.612-3.061-1.225-6.12-2.448-9.18
			C349.452,613.872,347.004,610.812,347.004,608.364L347.004,608.364z"/>
		<path fill="#232323" d="M208.692,105.3C111.384,137.736,35.496,219.132,11.016,318.276
			c-24.48,97.308,1.224,208.692,72.828,280.296c16.524,16.523,34.884,32.436,54.468,45.288
			c20.808,14.075,42.84,23.868,65.484,33.048c-1.836-0.612,1.224,0.611,1.836,0.611c1.836,0.612,3.672,1.225,5.508,1.837
			c3.672,1.224,7.956,2.447,12.24,3.06c10.404,3.06,20.196,4.896,30.6,6.732c19.584,3.06,39.168,4.896,59.364,4.283
			c38.557-1.224,77.112-9.792,112.608-25.703c15.3-6.732,28.764-14.076,42.228-23.257c12.24-7.956,22.645-17.136,33.66-25.704
			c27.54-22.031,48.96-51.407,66.708-81.396c39.78-68.544,47.736-154.836,25.704-230.724
			c-20.808-70.38-67.932-132.192-130.968-171.36c-67.32-41.616-149.328-55.08-226.44-37.944
			C227.052,99.792,217.872,102.24,208.692,105.3L208.692,105.3z M77.112,567.972c-42.84-55.691-64.26-124.848-59.976-194.616
			c4.284-67.932,33.66-132.804,80.784-181.152c47.736-48.96,112.608-80.172,180.54-85.68c69.156-5.508,137.7,14.076,193.392,54.468
			c62.425,45.288,104.04,115.668,114.444,192.168c0,0,0,0,0-0.612c0,0.612,0,0.612,0,0c7.956,55.692-1.836,114.444-26.928,165.24
			l0,0c-11.017-19.584-28.765-31.824-48.96-39.78c-9.181-3.672-18.36-7.344-26.928-12.24c-4.896-3.06-9.181-6.119-14.076-9.792
			c-1.836-1.224-4.896-4.896-7.345-3.672c0.612-0.611-4.896-7.344-6.731-7.344c-5.508-1.224-4.896,4.896-3.061,7.956
			c3.673,4.896,12.853,14.076,6.12,19.584c-6.12,5.508-15.912,7.956-15.3,17.748c0.612,12.24,15.3,8.568,23.256,8.568
			c9.181,0.611,11.628,9.792,6.12,15.911c-1.836,2.448-6.12,5.509-6.731,8.568c-1.225,5.508,3.06,7.344,7.956,7.344
			c4.896-0.611,9.18-3.06,14.075-1.224c4.284,1.836,6.12,6.12,5.509,10.404c-1.225,7.344-12.24,12.239-5.509,20.195
			c6.12,6.732,17.748,9.792,9.792,20.809c-3.06,4.284-8.567,6.731-9.18,12.24c-0.612,4.283,1.836,8.567,4.896,11.016
			c-13.464,12.24-27.54,22.644-42.841,31.824c-3.672,2.447-7.344,4.283-11.016,6.12c-0.612,0.611-4.284,3.06-4.896,2.447
			c-1.225,0-3.061-3.672-3.673-4.896c-1.224-1.836-4.283-6.12-6.731-3.061c-1.225,4.284,4.284,10.404,5.508,11.628
			c-1.836,1.225-3.672,1.837-6.12,3.061c-0.612-3.061-2.448-6.732-2.448-10.404c0-3.06,2.448-4.284,4.284-6.731c0,0,0.612-0.612,0,0
			c1.224-0.612,12.24-9.181,4.284-9.181c-3.061,0-9.18,6.12-11.017,7.956c-3.06,3.061-3.672,6.732-2.447,11.017
			c0.611,2.447,1.836,4.896,1.836,7.344c1.224,1.836,0.611,3.06-1.225,3.06c-1.224,0.612-2.447,1.225-3.672,1.225
			c0.612,0-1.224,0-2.447,0c-2.448-0.612-5.509-3.061-8.568-3.672c-4.896-1.225-8.568,1.836-10.404,6.119
			c-5.508-5.508-13.464-4.896-15.3-13.464c-0.612-3.06,0.612-6.12,0-9.18c-0.612-4.896-4.284-3.06-4.896,1.224
			c-1.837-6.119-3.673-12.852-3.061-18.972c0.612-5.508,3.061-11.016,3.672-15.912c1.225-6.731,2.448-11.016,0-17.748
			c-2.448-6.731-7.344-12.24-10.403-18.972c1.224,2.448-0.612-2.448-1.225-3.672c-0.612-2.448-0.612-4.284-0.612-6.732
			c0-4.896,1.225-9.18,3.673-13.464c3.672-7.956,9.18-11.628,15.911-16.523c6.732-4.896,5.509-13.465,9.181-20.196
			c1.836-3.672,4.896-6.732,7.956-9.18c3.06-1.837,6.12-3.673,7.956-7.345s1.224-7.344,2.447-11.016
			c1.837-4.284,4.896-7.344,7.956-11.016c3.061-3.673,18.36-14.076,11.017-18.973c-6.12-3.672-17.136,10.404-20.196,14.688
			c-3.06,3.06-6.12,6.731-7.956,11.016s-0.612,8.568-1.836,12.24c-1.224,3.06-5.508,5.508-7.956,8.568
			c-3.06,3.672-4.896,7.344-6.731,11.628c-1.225,3.672-1.225,9.792-3.673,12.239c-2.447,3.672-8.567,5.509-11.628,8.568
			c-1.224-4.896-3.06-9.792-9.18-7.344c-1.836,0.611-3.672,3.06-6.12,3.672c-1.224,0.612-2.448,1.224-3.672,1.836
			c-2.448,1.224-2.448,1.224-1.224,0.612c-2.448,1.224-5.509,1.836-8.568,3.06c17.748-13.464,37.944-26.928,48.96-47.124
			c2.448-4.896,4.896-10.404,7.344-14.688c3.061-5.509,6.732-10.404,9.181-15.912c2.447-4.896,3.672-10.404,5.508-15.912
			c1.224-5.508,4.284-11.628,5.508-16.524c0.612,3.672,1.836,6.732,3.06,9.792c0.612,0.612,1.225,1.836,1.837,2.448
			c0.611,1.836,0.611,0.612,0,2.448c-0.612,3.06-1.837,4.896-0.612,8.567c1.224,3.061,3.06,5.509,6.12,6.12
			c6.12,1.225,13.464-1.224,19.584-1.836c3.672,0,10.403,0,12.852-2.448c1.225-1.224,1.836-3.672,2.448-5.508
			c0-2.448-1.836-4.896-1.836-6.731s0-0.612,0.612-2.448c0.611-1.224,2.447-3.061,3.06-4.284c1.224-2.448,2.448-4.896,3.672-7.956
			c1.224-4.896,3.061-21.42-2.448-24.48c7.345-7.344,11.017-16.524,10.404-26.928c0-3.672-0.612-7.344-1.224-10.404
			c-0.612-2.448-1.836-4.896-1.836-7.344c0-1.836,0-3.672,0.611-6.12c1.836-8.568,2.448-17.748,1.225-26.928
			c-0.612-4.284-3.672-17.748-9.792-17.136c0.611-22.032-9.792-41.004-18.36-60.588c0,0,0,0.612,0.612,0.612
			c-3.672-8.568-7.956-18.972-14.688-26.316c-3.06-3.06-5.508-4.284-8.568-7.956c-1.836-2.448-3.672-5.508-6.119-7.956
			c-7.345-7.956-15.912-14.688-23.868-22.644c-10.404-10.404-18.973-19.584-32.437-25.704c-11.628-4.896-23.868-7.956-36.107-9.18
			c-11.017-1.224-22.645,0.612-33.66-0.612c-0.612-0.612,1.836,0.612-0.612-2.448c-1.836-2.448-4.284-3.672-6.732-4.284
			c-6.732-1.836-14.076,0-20.196,2.448c-9.18,3.06-18.972,6.732-26.928,12.24c-2.448,1.836-4.896,3.672-7.344,5.508
			c-0.612,0.612-1.836,2.448-3.06,2.448l-3.672-1.836c-1.224,0-1.836,0-3.06,0c-7.956,1.224-30.6,10.404-26.928,21.42
			c-15.3,0-29.988,3.06-39.168,17.136c-4.284,6.732-3.06,16.524,7.344,13.464c6.732-1.836,11.628-6.12,17.748-9.18
			c0,0-0.612,0.612,0,0c-9.792,9.18-11.628,26.316-10.404,38.556c0.612,7.344,1.836,14.076,4.284,20.808
			c0.612,1.836,2.448,5.508,2.448,7.344c-0.612,2.448,0-0.612-1.224,1.836c-5.508,9.18-4.284,22.032-2.448,31.824
			c1.224,6.732,2.448,14.076,5.508,20.808c2.448,4.896,4.896,9.18,7.344,14.076c2.448,4.896,0,9.792-1.224,15.3
			c-0.612,4.896-1.224,9.18-0.612,14.076c0.612,6.12,1.224,11.628,4.896,16.524c1.836,2.448,4.284,4.896,6.12,7.344
			c1.224,2.448,0.612,3.06,0,5.508c-3.672,14.688,0.612,23.868,7.956,36.108c0.612,0.612,1.224,1.836,1.224,2.448
			c0.612,3.06,1.224,6.732,1.836,9.18c0,1.225,0,4.284,0,5.509c-1.224,5.508-7.956,6.731-12.852,7.955
			c-6.12,1.837-12.852,4.284-18.972,7.345c-6.12,3.06-11.016,7.344-15.3,12.852c0,0.612-6.732,15.3-4.284,15.3
			c-3.672-0.611-6.12,3.672-8.568,6.12c-4.284,4.284-8.568,8.568-12.852,12.24c-7.956,7.344-16.524,14.688-23.868,23.256
			c-11.628,13.464-17.748,28.765-23.256,45.9l0,0C79.56,571.032,78.336,569.196,77.112,567.972L77.112,567.972z M227.052,161.604
			c0-2.448-1.224-4.896-0.612-6.12s4.896-3.06,6.12-4.284c5.508-3.06,11.016-4.284,16.524-6.732
			c6.12-2.448,11.628-6.12,17.748-7.344c2.448,0,13.464-1.836,14.076,1.836c0.612,3.672-7.344,5.508-9.18,6.12
			c-5.508,0.612-11.016-0.612-15.912,0.612c-5.508,1.224-9.792,4.284-13.464,8.568c-4.284,4.284-9.18,7.344-14.688,10.404
			C227.052,163.44,227.052,162.828,227.052,161.604L227.052,161.604z M280.296,138.348
			C280.908,138.348,280.908,138.348,280.296,138.348L280.296,138.348z M280.908,138.96C281.52,138.96,281.52,138.96,280.908,138.96
			L280.908,138.96z M280.908,138.96C280.908,139.572,280.908,139.572,280.908,138.96L280.908,138.96z M262.548,138.96
			C261.936,139.572,261.936,139.572,262.548,138.96L262.548,138.96z M280.908,139.572L280.908,139.572L280.908,139.572z
			 M421.056,248.508c-5.508-9.18-10.403-18.36-14.688-28.764c-3.672-10.404-9.792-18.972-15.912-27.54
			c-6.12-8.568-17.136-15.3-26.316-20.808c-11.016-7.344-21.42-15.3-31.823-22.644c15.911,4.284,29.376,9.792,42.228,19.584
			c6.12,4.896,10.404,7.956,16.524,13.464c9.792,8.568,18.972,15.912,24.479,27.54c3.061,6.732,5.508,14.076,6.12,21.42
			c0.612,6.732,0,13.464,0.612,20.196C422.28,249.732,421.668,249.12,421.056,248.508L421.056,248.508z M236.844,149.364
			C236.232,149.976,236.232,149.976,236.844,149.364L236.844,149.364z M218.484,154.872
			C219.096,154.872,218.484,154.872,218.484,154.872L218.484,154.872z M218.484,154.872c1.224,0,3.06,2.448,3.672,4.284
			c1.224,4.284-1.224,11.016-5.508,13.464c-1.224-3.06-4.896-3.672-5.508-7.344c-0.612-1.836,0.612-3.672,0.612-4.896
			c0.612-1.836-0.612-1.836,0.612-3.06c0.612-0.612,3.672-1.836,4.896-1.836C216.036,156.096,216.036,155.484,218.484,154.872
			L218.484,154.872z M197.676,249.732c-9.18-1.836-18.36-8.568-20.196-18.36c-1.224-10.404,3.06-25.092,10.404-32.436
			c3.06-3.06,7.956-4.284,11.628-6.732c5.508-3.06,9.792-7.956,14.688-11.628c10.404-6.732,22.032-4.284,33.048-6.732
			c10.404-2.448,20.196-6.732,30.6-10.404c12.24-4.284,26.316-6.12,39.167-3.06c18.973,3.672,29.988,22.644,45.9,31.212
			c10.404,5.508,18.972,9.18,22.032,21.42c1.224,5.508,1.836,11.016,4.284,15.912c1.836,3.672,4.283,7.344,6.731,11.016
			c6.12,9.18,14.076,17.748,17.748,28.152c2.448,6.12,2.448,12.24,3.672,18.972c0.612,4.284,4.284,12.852,1.225,16.524
			c-6.732,8.568-19.584-8.568-22.032-13.464c-5.508-9.18-14.076-15.912-18.972-25.092c-11.017-20.808-20.809-41.004-42.229-52.632
			c-23.868-12.852-55.08-12.852-79.56-4.284c-11.628,4.284-24.48,7.956-33.66,15.3c-5.508,4.896-10.404,10.404-14.688,16.524
			C205.632,244.836,203.184,249.732,197.676,249.732L197.676,249.732z M160.344,187.92c0.612,0,3.06-1.836,4.284-2.448
			c2.448-1.224,4.896-1.836,7.344-2.448c5.508-1.224,11.628-0.612,17.136,0c-4.896,1.836-9.792,3.672-14.076,5.508
			c-3.672,1.836-10.404,6.12-12.24,6.732c-2.448,1.224-4.896,1.836-7.956,1.836C155.448,194.652,160.344,189.756,160.344,187.92
			L160.344,187.92z M166.464,184.248L166.464,184.248L166.464,184.248z M159.12,188.532L159.12,188.532L159.12,188.532z
			 M154.224,196.488C154.224,197.1,154.224,197.1,154.224,196.488L154.224,196.488z M200.736,261.36
			c0.612-1.224,0.612-2.448,1.224-4.284c0.612,0,1.224,0,1.836-0.612c0.612-1.224,1.836-2.448,2.448-3.672
			c2.448-3.06,6.12-6.732,9.18-9.792c6.732-7.956,14.688-14.076,24.48-18.972c20.808-9.792,41.616-15.912,64.872-12.852
			c-3.672-0.612,3.672,0.612,3.672,0.612c1.836,0.612,3.672,0.612,5.508,1.224c3.672,1.224,7.344,2.448,10.404,3.672
			c6.731,3.06,13.464,7.344,18.972,12.24c11.628,11.016,17.748,25.704,24.48,40.392c3.06,6.732,7.344,12.24,12.239,17.748
			c4.896,5.508,8.568,12.24,14.688,16.524c9.792,7.344,31.824,12.852,33.66-4.896c6.731,7.956,5.508,18.36,4.283,28.152
			c-1.224,9.792-4.283,19.584-9.792,26.316c-3.06,4.284-6.731,3.672-11.016,5.508c0.612-3.672,4.284-23.256-3.672-21.42
			c-3.672,0.612-3.672,6.732-3.672,9.792c-0.612,4.896-1.225,10.404-1.836,15.3c-0.612,6.12-1.836,12.24-2.448,18.36
			c-1.836,9.18-4.896,17.136-9.18,25.704c-3.673,7.956-7.345,15.912-12.853,23.256c-6.12,7.956-12.852,15.3-19.584,22.032
			c-12.852,12.852-31.212,18.972-49.572,17.748c-9.792-0.612-18.972-3.061-27.54-7.345c-4.284-2.447-8.568-4.896-12.852-7.344
			c-2.448-1.224-7.344-6.732-9.792-6.732c-1.224,0-6.732-6.119-7.956-7.344c-3.06-3.06-6.12-6.12-8.568-9.18
			c-4.896-5.508-10.404-10.404-15.3-16.524c-10.404-13.464-18.36-29.988-20.808-47.124c-2.448-17.748,0-35.496-1.836-52.632
			c-0.612-7.956-2.448-15.912-3.672-24.48c-0.612-4.284-1.224-7.956-1.836-12.24c0-1.836,0-3.672,0-4.896
			c0-0.612,0.612-6.12,0-4.284c0-1.836,0.612-3.06,0.612-4.896C199.512,267.48,200.736,261.36,200.736,261.36L200.736,261.36z
			 M279.072,211.788h-0.612C278.46,211.788,278.46,211.788,279.072,211.788L279.072,211.788z M74.052,213.624
			C73.44,213.624,73.44,213.624,74.052,213.624L74.052,213.624z M435.132,296.244c-0.612-1.224-3.672-3.06-3.672-4.896
			c-0.612-1.836,1.836-6.732,2.448-9.18c1.224-6.732,1.836-12.852,2.448-19.584c1.224-12.24,0-25.092-3.061-36.72
			c2.448,6.732,6.732,12.24,9.18,18.972c2.448,7.344,5.509,14.076,7.956,21.42c3.061,8.568,5.509,17.136,6.12,25.704
			c0.612,4.896,0.612,9.18,0,14.076c-0.611,3.06-1.836,5.508-2.447,8.568c-2.448-4.284-6.12-7.956-9.792-11.016
			c-1.837-1.224-3.673-2.448-5.509-4.284c-0.611,0-1.224-0.612-1.224,0C436.356,298.692,435.744,297.468,435.132,296.244
			L435.132,296.244z M348.84,236.88l0.612,0.612C349.452,237.492,349.452,236.88,348.84,236.88L348.84,236.88z M197.676,318.276
			c-4.896-11.628-8.568-23.256-12.24-35.496c-3.672-13.464-9.18-27.54-9.18-41.616c0,0,2.448,4.284,3.06,4.896
			c1.836,2.448,3.672,3.672,6.12,5.508c1.836,1.224,3.672,2.448,5.508,3.672c1.224,0.612,4.284,1.836,4.896,2.448
			c0.612,0.612-1.224,6.732-1.836,7.956c-0.612,3.672-1.224,7.344-1.224,10.404c-0.612,7.956,1.224,15.912,2.448,23.868
			c1.224,7.344,3.672,14.076,4.284,21.42C198.9,320.112,198.288,318.888,197.676,318.276L197.676,318.276z M198.288,339.696
			c3.06-4.896-9.18-11.628-12.24-14.688c-4.896-4.284-7.344-10.404-9.792-16.524c-1.224-2.448-1.836-5.508-1.836-8.568
			c-0.612-3.672-1.836-6.12-2.448-9.18c-1.224-6.732-1.836-14.076,0-20.808c3.672,20.808,10.404,40.392,22.032,58.14
			c0.612,1.224,1.836,2.448,3.06,3.672c1.836,0,1.836,0.612,1.224,2.448c0,1.224,0,3.06,0,4.284c0,5.508,0,10.404,0,15.912
			c0,9.792,1.224,19.584,4.284,29.376c-6.12-6.12-13.464-11.016-16.524-20.196c-2.448-8.568-1.836-17.748,0.612-26.316
			C189.72,339.084,195.84,343.98,198.288,339.696L198.288,339.696z M459.612,317.052c2.447-4.896,3.672-11.016,4.283-16.524
			c3.673,3.672,4.896,9.792,5.509,14.688c0-1.836,0,1.224,0,1.224c0,1.224,0,2.448,0,3.672c0,3.06,0,6.12,0,8.568
			c-0.612,6.12-3.061,12.852-5.509,18.36c-0.611,1.836-3.06,6.12-4.896,7.956s-7.344,4.284-7.344,7.344
			c-1.836-4.284-4.896-7.956-7.956-11.628c-1.836-2.448-4.896-6.732-7.956-6.732c4.896-12.852,3.672-25.704,3.06-39.78
			c3.061,3.06,6.732,6.12,9.181,9.18c2.447,3.06,4.896,7.956,6.119,12.24c0.612,1.836,1.836,7.956,4.896,4.896
			c3.06-2.448-1.224-11.628-2.448-14.076C457.164,318.276,458.388,318.276,459.612,317.052L459.612,317.052z M456.552,306.648
			C456.552,307.26,456.552,307.26,456.552,306.648L456.552,306.648z M432.072,334.8C432.072,335.412,432.072,335.412,432.072,334.8
			L432.072,334.8z M429.012,343.98C429.012,344.592,429.012,344.592,429.012,343.98L429.012,343.98z M445.536,403.344
			c1.836-3.672-2.448-6.12-4.284-8.568c-2.448-3.06-4.896-6.12-7.344-9.18c-2.448-3.672-4.896-7.344-6.732-11.016
			c-1.224-2.448-1.224-7.956-3.672-9.18c4.896-4.284,6.12-9.18,8.568-15.3c5.508,5.508,9.792,12.24,13.464,18.36
			c1.224,1.836,4.284,7.956,7.344,6.12c3.061-1.836-0.612-6.12-1.836-7.956c6.12,4.284,14.076-9.18,15.912-12.852
			c2.448,9.792,2.448,21.42-3.672,29.988c-3.061,3.672-6.732,6.732-10.404,9.792c-4.896,4.284-0.612,6.12,3.672,3.061
			c0.612,4.896,1.225,10.403,0,15.912c-0.611,2.447-3.672,12.239-6.12,13.464c-1.836,0.611-7.956-1.225-10.403-1.225
			c-1.836,0-4.284,0-6.12,0.612c-1.225,0.612-2.448,1.836-3.672,1.836c-1.836-5.508-4.284-9.792-4.896-15.912
			c-0.611-5.508,0-11.628,3.061-15.912C432.684,397.224,441.864,410.688,445.536,403.344L445.536,403.344z M422.28,355.608
			C422.28,356.22,422.28,356.22,422.28,355.608L422.28,355.608z M422.28,368.46v0.612C421.668,369.072,422.28,369.072,422.28,368.46
			L422.28,368.46z M206.244,369.684C206.244,370.296,206.244,370.296,206.244,369.684L206.244,369.684z M427.176,373.968
			C427.788,374.58,427.788,374.58,427.176,373.968L427.176,373.968z M464.508,383.148
			C463.896,383.148,463.896,383.148,464.508,383.148L464.508,383.148z M421.056,391.716c3.672-1.224,6.12-1.836,6.12-6.732
			C427.176,388.656,424.728,391.716,421.056,391.716L421.056,391.716z M234.396,435.168c-4.896-0.612-9.792-4.284-14.076-6.12
			c-5.508-2.448-11.016-4.896-15.912-9.18c-9.792-8.568-11.628-20.196-8.568-31.824c2.448,1.224,6.732,4.896,9.18,1.224
			c3.06,9.18,7.344,18.36,13.464,26.316c5.508,7.956,12.852,13.464,19.584,20.196C236.844,435.168,235.62,435.168,234.396,435.168
			L234.396,435.168z M212.364,391.104C212.976,391.716,212.976,391.716,212.364,391.104L212.364,391.104z M323.136,477.396
			c22.645-1.225,38.557-14.688,52.632-30.601c6.732-7.956,13.465-15.912,17.748-25.092c4.896-9.18,10.404-18.972,13.465-28.764
			c0.611,4.896,0,10.404,0.611,15.912c0.612,3.673,1.225,7.345,1.225,11.629c-1.225,9.18-4.896,18.359-7.956,27.539
			c-0.612,1.837-4.284,8.568-6.732,12.24c-2.448,4.284-5.508,9.181-7.956,13.464c-3.672,6.12-7.956,13.464-12.852,18.36
			c-3.672,3.672-7.345,7.956-11.628,11.628c-5.509,4.896-11.628,8.568-17.748,12.24c-4.896,3.672-9.792,7.956-14.688,11.628
			c-0.612,0.612-1.224,1.836-1.836,2.448c-0.612,0-3.06-2.448-4.284-3.061c-3.06-2.448-6.12-4.896-9.18-7.344
			c-10.404-7.956-22.032-15.912-30.6-25.704c-9.18-9.792-14.688-23.868-18.36-36.107
			C282.132,468.828,301.716,478.008,323.136,477.396L323.136,477.396z M421.056,395.388c-0.611,1.224,0,6.12,0,7.956
			C421.056,400.896,421.056,397.836,421.056,395.388L421.056,395.388z M421.668,411.912c0,0.612-0.612,1.836-0.612,2.448
			C421.056,413.136,421.668,412.524,421.668,411.912L421.668,411.912z M415.548,416.808
			C415.548,417.42,415.548,417.42,415.548,416.808L415.548,416.808z M189.108,655.488c-20.196-10.404-40.392-20.196-58.752-33.66
			c-1.224-0.612-3.06-1.836-3.672-2.448c-1.836-2.448-1.224,0-0.612-2.448c0.612-2.447,2.448-4.283,2.448-6.731
			c0.612-4.284-0.612-8.568-1.836-12.24c-0.612-4.284-1.224-9.792,1.224-13.464c1.836-2.448,4.284-3.672,6.732-5.508
			c1.224-0.612,2.448-1.225,3.06-1.836c0.612-1.225,0-2.448,0.612-3.061c0.612-1.224,2.448-1.836,2.448-3.672
			s-3.06-3.06-4.284-4.284c-3.672-3.672-6.732-9.18-5.508-14.076c0.612-4.283,4.284-8.567,8.568-10.403
			c3.06-1.225,9.792,0,11.016-3.672c1.224-3.672-1.836-3.672,0-7.345c2.448-4.896,7.344-8.567,9.792-13.464
			c3.06-4.896,3.672-9.18,0.612-14.076c-3.06-5.508-6.12-9.792-6.732-15.911c-0.612-11.629,8.568-19.584,18.36-24.48
			c5.508-2.448,11.016-4.896,17.136-6.12c5.508-1.224,10.404-3.06,13.464-8.567c6.12,5.508,16.524,7.344,23.868,9.792
			c4.896,1.224,9.18,3.672,14.688,4.896c3.06,0.612,9.18,1.224,12.24,0c1.224,7.344,3.672,18.36,0.612,25.704
			c-3.06,6.731-15.3,10.404-7.956,18.972c6.12,6.732,11.016,12.24,12.24,22.032c0.612,3.06,0,6.732-2.448,9.18
			c-3.06,2.448-7.344,1.836-9.18,5.509c-4.896,8.567,9.18,13.464,11.628,18.972c3.06,6.12-6.12,14.688-6.732,20.808
			c-1.224,9.792,5.508,13.464,12.24,18.973c7.956,6.119,7.344,12.239,0,18.972c-3.06,3.06-7.344,5.508-7.344,10.404
			c0,4.283,3.06,7.955,4.896,11.016c1.836,2.448,3.06,6.12,4.896,8.568c2.448,2.447,2.448,11.016,0.612,14.688
			c-2.448,4.896-7.956,6.732-12.852,3.672c-3.06-1.836-5.508-8.567-9.18-7.956c-4.284,0-4.896,9.181-9.18,10.404
			c1.224,0,6.12,1.836,6.732,1.836c1.224-0.612,2.448-3.06,3.06-4.284c3.06,3.061,6.12,6.12,11.016,6.732
			c-7.956-1.225-15.3-3.061-23.256-4.896c-3.672-0.611-6.732-1.836-10.404-2.447c-4.284-1.225-7.956-1.225-9.792-6.12
			c1.836,2.447,2.448,3.06,5.508,4.283c2.448,1.225,6.12,1.837,9.18,2.448c-5.508-3.06-7.956-9.792-12.852-13.464
			c-4.896-3.06-10.404,0.612-7.956,6.732c-5.508-1.836-11.628-4.284-17.136-6.732C190.944,656.1,190.944,656.1,189.108,655.488
			C190.944,656.1,189.72,655.488,189.108,655.488L189.108,655.488z M452.268,452.304C452.88,452.304,452.88,452.304,452.268,452.304
			L452.268,452.304z M263.772,454.14c0.612,1.225,0.612,2.448,1.224,3.672C264.384,455.976,263.772,455.364,263.772,454.14
			L263.772,454.14z M467.568,462.096C468.18,462.708,468.18,462.708,467.568,462.096L467.568,462.096z M414.324,469.44l-0.612,0.611
			C413.712,470.052,414.324,470.052,414.324,469.44L414.324,469.44z M460.224,471.276L460.224,471.276L460.224,471.276z
			 M310.896,531.864c-4.284,0-9.181-0.612-13.464-0.612c-3.06,0-7.956,0.612-11.016-0.612c-2.448-1.224-4.896-5.508-6.732-7.956
			c-1.836-3.06-4.284-5.508-6.12-8.567c-3.672-6.12-7.344-13.464-10.404-20.196c0,0-1.836-3.06-1.836-3.672
			c0-1.836,1.224-4.284,1.836-6.12c0.612-3.672,0.612-6.732-1.224-10.404c5.508,13.464,12.24,25.093,23.256,34.272
			c11.016,8.568,22.644,17.136,34.884,23.868C317.016,531.864,313.956,531.864,310.896,531.864L310.896,531.864z M398.412,484.128
			C397.8,484.74,397.8,484.74,398.412,484.128L398.412,484.128z M260.1,489.024L260.1,489.024L260.1,489.024z M153,489.636
			c0,1.225-0.612,2.448-1.224,3.061C152.388,492.084,153,490.86,153,489.636L153,489.636z M151.164,493.92L151.164,493.92
			L151.164,493.92z M258.264,502.488c-1.224-1.225-2.448-1.836-3.672-3.061c1.224-1.224,2.448-1.836,3.06-3.06
			c2.448,4.284,0-0.612,0,2.448c0,3.06,1.224,5.508,1.836,8.567C258.876,505.548,258.264,504.324,258.264,502.488L258.264,502.488z
			 M157.896,506.771C157.896,506.771,157.896,507.384,157.896,506.771L157.896,506.771z M267.444,517.788
			c0.612-0.612,3.06,3.06,3.672,4.284c3.06,4.283,4.896,9.792,7.956,14.076c3.06,3.672,8.568,3.06,12.852,3.672
			c5.508,0.611,11.016,1.224,16.524,1.224c-4.896,2.448-13.464,4.896-12.852,11.628c0.612,3.672,2.448,7.344,3.06,11.016
			c0.612,3.673,1.836,7.956,2.448,11.629c1.224,7.956,3.06,15.3,3.672,23.256c0,1.836,1.836,5.508,1.836,7.344
			c0,2.448-4.284,7.956-5.508,10.404c-6.12-18.36-11.628-36.721-17.748-54.469c-3.06-8.567-4.896-17.136-8.568-25.092
			c-1.224-3.672-4.284-6.731-5.508-9.792C268.668,523.296,268.668,520.236,267.444,517.788c-0.612,0.612-0.612,1.836-1.836,1.836
			C266.832,519.012,266.832,518.4,267.444,517.788L267.444,517.788z M264.996,520.236
			C264.384,520.236,264.384,520.236,264.996,520.236L264.996,520.236z M474.912,523.908h0.612
			C474.912,524.52,474.912,524.52,474.912,523.908L474.912,523.908z M473.688,526.356
			C473.076,526.968,473.076,526.968,473.688,526.356L473.688,526.356z M552.636,528.192
			C552.636,526.968,553.248,528.192,552.636,528.192L552.636,528.192z M375.156,528.804L375.156,528.804L375.156,528.804z
			 M486.54,528.804C487.152,528.804,487.152,528.804,486.54,528.804L486.54,528.804z M321.3,544.104
			c8.568-1.836,16.524-6.119,24.48-9.18c2.447-0.612,10.403-5.508,12.852-4.896c0.612,0,1.225,3.672,1.225,4.283
			c0,0.612,1.224,1.225,1.224,1.837c0,0.611-1.836,3.06-1.836,3.672c-0.612,1.224-1.225,2.447-1.225,3.06
			c-3.672,9.18-3.06,16.524-0.611,25.704c1.224,6.12-3.061,14.688-5.508,20.808c-1.836,2.448-3.061,8.568-4.896,9.792
			c-1.224,1.225-6.12,0-7.956,0.612c-3.06,0-5.508,0.612-8.567,0.612c-4.284,0-8.568,0-12.853,0s-3.672,0-4.284-3.672
			c-1.224-6.12-1.836-12.24-3.06-17.748c-1.225-5.509-2.448-11.017-3.672-16.524c-0.612-2.448-3.061-9.18-1.836-11.016
			c0.612-1.225,3.672-1.836,4.896-2.448c1.225-0.612,2.448-1.224,4.284-2.448c1.224-0.612,2.448-1.836,3.672-1.836
			C318.852,544.104,319.464,544.716,321.3,544.104L321.3,544.104z M265.608,531.864c1.224,1.836,1.836,3.06,3.06,4.896
			C268.056,534.924,266.832,533.088,265.608,531.864L265.608,531.864z M142.596,531.864
			C142.596,532.476,142.596,532.476,142.596,531.864L142.596,531.864z M369.036,531.864
			C369.036,532.476,369.036,532.476,369.036,531.864L369.036,531.864z M366.588,536.76c1.225-0.611,2.448-2.448,2.448-4.284
			C369.036,534.312,367.812,536.148,366.588,536.76L366.588,536.76z M365.364,537.372c-0.612,0-0.612,0-1.225,0
			C364.752,537.372,365.364,537.372,365.364,537.372L365.364,537.372z M259.488,547.164L259.488,547.164L259.488,547.164z
			 M490.824,547.776C490.212,547.776,490.212,547.776,490.824,547.776L490.824,547.776z M102.816,549
			C102.816,549.612,102.816,549.612,102.816,549L102.816,549z M362.304,552.672C361.692,553.284,361.692,553.284,362.304,552.672
			L362.304,552.672z M493.271,554.508C492.66,554.508,493.884,555.732,493.271,554.508L493.271,554.508z M493.271,555.12
			L493.271,555.12L493.271,555.12z M361.08,564.3L361.08,564.3L361.08,564.3z M496.944,566.748
			C497.556,567.36,497.556,567.36,496.944,566.748L496.944,566.748z M364.14,569.196C364.14,569.808,364.14,569.808,364.14,569.196
			L364.14,569.196z M134.028,569.196l0.612,0.611C134.64,569.808,134.64,569.808,134.028,569.196L134.028,569.196z M364.14,569.808
			L364.14,569.808L364.14,569.808z M364.14,571.032L364.14,571.032L364.14,571.032z M364.14,571.644L364.14,571.644L364.14,571.644z
			 M364.14,572.256L364.14,572.256L364.14,572.256z M364.14,572.256C364.14,572.868,364.14,572.868,364.14,572.256L364.14,572.256z
			 M364.14,572.868C364.14,573.48,364.14,573.48,364.14,572.868L364.14,572.868z M364.14,573.48
			C363.528,574.092,363.528,574.092,364.14,573.48L364.14,573.48z M363.528,574.704
			C363.528,575.316,363.528,575.316,363.528,574.704L363.528,574.704z M363.528,575.316
			C363.528,575.928,363.528,575.928,363.528,575.316L363.528,575.316z M363.528,575.928
			C363.528,576.54,363.528,576.54,363.528,575.928L363.528,575.928z M362.916,577.152L362.916,577.152L362.916,577.152z
			 M354.348,604.08c-1.224-2.448,2.448-9.18,3.672-11.016c1.837-4.284,3.061-8.568,4.284-13.465c0,1.225,3.061,4.896,3.672,6.12
			c1.225,2.448,2.448,6.12,1.836,9.181c-1.836,6.119-7.955,10.403-11.016,15.911C356.184,608.976,354.96,606.528,354.348,604.08
			L354.348,604.08z M91.188,584.496c0,1.224,4.896,5.508,5.508,6.12C94.86,588.78,93.024,586.944,91.188,584.496L91.188,584.496z
			 M261.324,586.944C261.324,587.556,261.324,587.556,261.324,586.944L261.324,586.944z M126.684,586.944
			C126.684,587.556,126.684,587.556,126.684,586.944L126.684,586.944z M500.616,598.572c1.836-1.836,3.672-3.672,6.12-5.508
			c-2.448,2.447-4.896,4.896-7.345,7.344C500.004,599.184,500.004,599.184,500.616,598.572L500.616,598.572z M498.168,594.288
			L498.168,594.288L498.168,594.288z M498.168,594.9C498.168,594.9,498.168,595.512,498.168,594.9L498.168,594.9z M499.392,599.796
			c-0.611,0.612-0.611,0.612-1.224,1.224C498.168,601.02,498.78,600.408,499.392,599.796L499.392,599.796z M496.944,601.632
			c-0.612,0-0.612,0.612-1.225,0.612C496.332,602.244,496.944,602.244,496.944,601.632L496.944,601.632z M495.72,603.468
			l-0.611,0.612C495.108,604.08,495.108,603.468,495.72,603.468L495.72,603.468z M340.884,609.588
			c6.732-0.612,5.508-1.836,7.956,4.284c0.612,2.448,1.836,4.284,2.448,6.731c1.224,3.061,0.612,6.12,1.224,9.181
			c0.612,1.836,1.225,4.284,1.836,6.12c0.612,1.836,0.612,1.224,0,3.672c-0.611,3.672-2.447,7.344-3.672,11.016
			c-1.836,6.12-6.731,17.748-4.284,24.48c-5.508,0.611-10.403,1.224-15.3,1.836c-1.836,0-7.956,1.836-9.792,0.611
			c-1.224-0.611-3.06-6.119-3.672-7.955c-3.06-6.732-6.12-12.24-7.344-19.584c-1.225-6.12-4.284-12.853-4.896-18.973
			c-0.612-3.06,0-3.06,1.224-5.508c1.836-2.448,3.06-5.508,4.284-7.956c1.224-2.448,3.06-7.344,4.896-7.956
			c1.224-0.612,3.06,0,4.284,0C327.42,610.2,334.152,610.2,340.884,609.588L340.884,609.588z M270.504,610.812
			C270.504,611.424,270.504,611.424,270.504,610.812L270.504,610.812z M119.34,612.036
			C119.34,612.036,118.728,612.648,119.34,612.036L119.34,612.036z M506.124,616.32c1.224-1.225,2.448-1.836,3.672-3.061
			c-2.448,1.836-4.896,3.672-7.344,6.12C503.676,618.156,504.9,617.544,506.124,616.32L506.124,616.32z M129.744,621.216
			C129.132,620.604,130.356,621.216,129.744,621.216L129.744,621.216z M370.26,625.5L370.26,625.5L370.26,625.5z M264.384,629.172
			L264.384,629.172L264.384,629.172z M264.384,629.172C264.384,629.784,264.384,629.784,264.384,629.172L264.384,629.172z
			 M263.772,630.396L263.772,630.396L263.772,630.396z M263.772,630.396C263.772,631.008,263.772,631.008,263.772,630.396
			L263.772,630.396z M373.32,648.144C373.32,648.144,372.708,648.756,373.32,648.144L373.32,648.144z M189.72,655.488
			L189.72,655.488L189.72,655.488z M402.084,657.936C401.472,657.936,401.472,657.936,402.084,657.936L402.084,657.936z
			 M400.248,660.384c0.612-3.672,3.672-1.836,6.12-1.224c-1.836,0.611-4.284,1.836-6.12,2.448
			C399.636,661.608,400.248,660.384,400.248,660.384L400.248,660.384z M212.976,659.16L212.976,659.16L212.976,659.16z
			 M211.14,659.771C211.752,659.771,211.752,659.771,211.14,659.771L211.14,659.771z M399.636,660.384L399.636,660.384
			L399.636,660.384z M268.668,660.996C268.668,661.608,268.668,661.608,268.668,660.996L268.668,660.996z M207.468,662.22
			c2.448,0.612,4.896,1.836,7.344,2.448C212.364,664.056,209.916,662.832,207.468,662.22L207.468,662.22z M268.056,663.444
			C268.056,664.056,268.056,664.056,268.056,663.444L268.056,663.444z M250.308,664.668
			C250.92,665.28,250.92,665.28,250.308,664.668L250.308,664.668z M388.62,664.668C389.232,664.668,389.232,664.668,388.62,664.668
			L388.62,664.668z M266.832,665.892C266.22,666.504,266.22,666.504,266.832,665.892L266.832,665.892z M263.772,668.952
			C263.16,669.564,263.16,669.564,263.772,668.952L263.772,668.952z M258.264,675.072h0.612
			C258.876,675.072,258.876,675.072,258.264,675.072L258.264,675.072z"/>
		<path fill="#232323" d="M149.94,478.008c-4.284,5.508-7.344,12.24-11.628,17.748c-3.06,3.672-6.12,7.956-9.18,11.628
			c-0.612,1.225-7.956,11.017-0.612,9.181c2.448-0.612,6.732-8.568,8.568-10.404c3.06-3.672,6.12-7.956,9.18-12.24
			c0.612-1.224,1.224-2.448,1.836-3.06c0-1.225,0.612-1.836,1.836-1.836c0.612-0.612,1.836-1.225,2.448-2.448
			C152.388,484.74,151.776,475.56,149.94,478.008L149.94,478.008z M150.552,479.844L150.552,479.844L150.552,479.844z"/>
		<path fill="#232323" d="M87.516,582.66c0,4.896,5.508,9.792,8.568,12.852c1.224,1.225,3.06,4.896,4.896,4.896
			c3.672,0.611,3.06-3.061,1.836-4.896c-2.448-4.284-7.956-7.344-10.404-11.628c-0.612-0.612-0.612-2.448-1.224-3.06
			C89.964,580.212,87.516,580.212,87.516,582.66L87.516,582.66z M92.412,583.271L92.412,583.271L92.412,583.271z M92.412,583.271
			C92.412,583.271,92.412,583.884,92.412,583.271L92.412,583.271z"/>
		<path fill="#232323" d="M130.968,566.748c-1.836,1.836-1.224,5.508,1.224,6.732c-4.896,1.836-4.284,5.508,1.224,4.283
			c2.448-0.611,5.508-1.224,7.344-3.06C146.268,570.42,134.64,563.076,130.968,566.748L130.968,566.748z"/>
		<path fill="#232323" d="M253.368,495.756c0,1.836-1.224,4.284-1.224,6.12s1.224,3.672,1.836,4.896
			c1.224,3.672,6.732,10.403,9.18,3.06c1.224-3.06-1.224-11.628-2.448-14.688C259.488,492.084,252.756,490.248,253.368,495.756
			L253.368,495.756z"/>
		<path fill="#232323" d="M258.876,505.548c-1.836,1.224,2.448,12.24,3.06,14.076s2.448,14.688,6.732,11.016
			C271.116,527.58,261.936,503.712,258.876,505.548L258.876,505.548z M259.488,509.832L259.488,509.832L259.488,509.832z"/>
		<path fill="#232323" d="M264.384,510.444c-4.284,1.224,0.612,11.628,1.224,14.075c0.612,3.061,1.224,12.24,5.508,12.24
			c5.508,0,0.612-9.792,0-12.852C270.504,520.848,268.668,509.22,264.384,510.444L264.384,510.444z"/>
		<path fill="#232323" d="M267.444,514.116c-3.672,1.224-0.612,12.852,0,14.688c0.612,6.12,1.836,12.24,3.672,18.36
			c0.612,1.836,0.612,4.896,3.672,5.508s3.672-1.836,3.672-4.284c0-6.12-3.672-13.464-4.896-19.584
			C272.34,525.132,272.34,512.892,267.444,514.116L267.444,514.116z M267.444,528.804
			C267.444,528.192,267.444,528.192,267.444,528.804L267.444,528.804z"/>
		<path fill="#FFFFFF" d="M293.148,160.38c-11.628,1.836-22.644,6.732-33.048,10.404c-5.508,1.836-11.016,3.672-16.524,4.284
			c-5.508,0.612-11.016,0-17.136,1.224c-12.24,2.448-18.972,12.852-29.988,17.748c-4.284,1.836-7.344,3.06-10.404,7.344
			c-3.672,5.508-6.12,12.24-7.956,18.36c-3.06,12.852,1.836,22.032,13.464,26.928c2.448,1.224,6.12,3.06,8.568,2.448
			c4.284-1.224,7.344-7.344,9.792-11.016c8.568-11.016,17.748-18.36,30.6-23.868c7.956-3.06,16.524-6.732,24.48-8.568
			c25.092-6.12,54.468-4.896,75.888,9.18c10.404,6.732,18.972,15.912,25.092,26.316c5.509,9.18,9.181,18.972,14.688,27.54
			c3.06,4.896,6.731,7.956,9.792,12.24c3.672,4.284,6.12,9.18,9.792,13.464c3.06,4.284,17.748,17.748,20.196,6.12
			c1.224-6.12-1.836-12.852-3.061-18.972c-0.612-6.732-1.836-12.24-4.896-18.972c-4.284-9.18-12.24-17.748-17.748-26.316
			c-3.061-4.284-5.508-8.568-7.345-13.464c-1.836-6.732-2.447-12.852-5.508-18.972c-5.508-10.404-19.584-12.24-28.151-20.196
			c-6.732-6.12-13.465-11.628-21.42-17.136C321.3,159.768,307.224,158.544,293.148,160.38L293.148,160.38z"/>
		<path fill="#FFFFFF" d="M176.256,240.552c-0.612,0,5.508,26.928,6.12,29.376c1.224,4.896,2.448,9.792,3.672,14.688
			c3.672,12.24,7.956,24.48,12.852,36.72c0.612-6.732-3.06-14.076-3.672-20.808c-1.224-7.956-2.448-15.912-2.448-23.868
			c0-3.06,3.672-17.136,1.836-18.972c-0.612-1.224-4.284-1.836-5.508-3.06c-1.836-1.224-4.284-2.448-6.12-3.672
			C182.376,249.12,175.032,242.388,176.256,240.552L176.256,240.552z"/>
		<path fill="#232323" d="M451.044,443.124c-1.836,1.836,2.448,6.12,3.672,4.284C456.552,445.572,452.268,441.9,451.044,443.124
			L451.044,443.124z"/>
		<path fill="#232323" d="M449.82,436.392c-9.181,5.509,3.06,23.257,10.403,15.301C465.732,446.184,457.776,432.108,449.82,436.392
			L449.82,436.392z"/>
		<path fill="#232323" d="M426.564,440.676c-6.732,1.836-8.568,17.748,1.224,15.3C435.132,453.528,436.356,437.616,426.564,440.676
			L426.564,440.676z"/>
		<path fill="#232323" d="M452.88,440.676c-4.896,3.061,1.836,12.24,4.284,15.3c1.224,1.836,9.18,12.24,9.792,4.284
			c0.612-3.06-3.061-7.344-4.896-10.403C460.224,446.796,457.776,438.228,452.88,440.676L452.88,440.676z"/>
		<path opacity="0.2" fill="#B1440A" d="M264.384,108.36c-77.724,11.016-148.716,53.244-194.616,117.504
			c-46.512,65.484-64.26,149.328-45.9,228.275c9.792,42.841,29.376,83.845,56.916,118.116c5.508-14.688,10.404-29.376,20.808-42.228
			c11.016-13.464,25.092-23.868,37.332-36.721c4.896-4.896,9.18-10.403,11.628-17.136c3.06-7.344,6.732-12.852,13.464-17.136
			c5.508-3.672,12.24-6.732,18.972-8.568c5.508-1.836,15.3-2.448,17.136-9.792c0-0.611-0.612-3.06,0-4.284c0-0.611,0-1.224,0-1.224
			c0.612-1.224,0.612-2.448-0.612-3.672c-0.612-2.448,0-4.896-1.224-7.344c-2.448-4.896-6.12-9.181-7.956-14.076
			c-2.448-6.732-3.06-12.853-1.836-20.196c0.612-1.836,1.224-3.672,1.836-5.508c0-3.06,0-2.448-1.836-4.896
			c-3.06-3.672-5.508-7.344-7.344-11.628c-1.836-5.508-2.448-11.628-2.448-17.136c0-6.732,4.284-14.076,3.06-20.808
			c-1.224-5.508-5.508-11.628-7.956-16.524c-3.672-7.344-4.896-15.912-6.12-24.48c-1.224-7.956-2.448-18.972,1.836-26.316
			c1.224-1.836,2.448-2.448,2.448-4.284c0-2.448-1.836-7.344-3.06-9.792c-4.896-17.136-7.344-43.452,6.732-56.916
			c-5.508,1.836-10.404,6.732-15.912,8.568c-7.956,3.06-14.688-2.448-10.404-10.404c3.06-6.732,9.18-12.852,15.912-15.912
			c3.672-1.836,7.344-1.836,11.628-2.448c4.284-0.612,7.956-1.836,12.852-1.224c-0.612-12.24,15.3-18.36,25.092-20.808
			c3.06-0.612,3.672-0.612,6.732,0c3.06,0.612,1.836,1.224,4.896-1.224c2.448-1.836,4.896-3.672,7.344-5.508
			c7.344-5.508,15.912-7.956,24.48-11.628c5.508-2.448,11.628-4.284,17.748-4.284c3.06,0,6.732,0.612,9.792,2.448
			c1.836,1.224,2.448,4.284,3.672,5.508c1.224,0.612,3.672,0,4.896,0c3.06,0,6.12,0.612,9.18,0.612c5.508,0,10.404-0.612,15.912,0
			c12.24,0.612,25.092,3.06,36.108,7.344c13.464,4.896,22.644,12.24,32.436,22.644c7.956,7.956,16.524,14.688,24.48,22.644
			c5.508,5.508,9.792,14.076,16.523,18.36c4.896,3.06,8.568,10.404,11.628,15.3c2.448,4.284,4.284,8.568,6.12,13.464
			c0,0,0-0.612-0.611-0.612c8.567,19.584,18.972,38.556,18.359,60.588c7.956-1.224,9.792,17.748,10.404,22.032
			c0.611,8.568-1.836,15.912-2.448,24.48c-0.612,6.12,3.06,14.076,3.06,20.808c0,10.404-3.06,19.584-10.403,26.928
			c4.896,2.448,4.284,14.688,3.672,19.583c-0.612,4.896-2.448,9.792-5.508,14.076c-0.612,1.225-3.061,3.061-3.061,4.284
			c0,0.612,1.836,3.672,2.448,4.896c0.612,2.447,0,4.283-0.612,6.119c0,2.448,0,2.448,0.612,4.896s0,6.12,1.836,7.956
			c0.612,0,2.448,0.612,3.061,0.612c1.224,0.611,2.447,1.836,3.672,3.06c3.06,2.448,5.508,4.284,8.567,6.12
			c7.956,5.508,15.912,9.792,24.48,12.852c6.12,2.448,11.628,4.284,17.136,6.732c16.524,7.344,30.601,20.196,39.168,36.107
			c25.704-50.184,34.272-109.548,26.928-165.24v0.612C570.996,235.044,482.256,137.736,367.2,111.42
			C332.928,105.3,298.656,103.464,264.384,108.36L264.384,108.36z"/>
	</g>
</g>
</svg>
