<?xml version="1.0" encoding="utf-8"?>
<!-- Generator: Adobe Illustrator 16.0.0, SVG Export Plug-In . SVG Version: 6.00 Build 0)  -->
<!DOCTYPE svg PUBLIC "-//W3C//DTD SVG 1.1//EN" "http://www.w3.org/Graphics/SVG/1.1/DTD/svg11.dtd">
<svg version="1.1" id="Layer_1" xmlns="http://www.w3.org/2000/svg" xmlns:xlink="http://www.w3.org/1999/xlink" x="0px" y="0px"
	 width="605.564px" height="602.986px" viewBox="0 89.841 605.564 602.986" enable-background="new 0 89.841 605.564 602.986"
	 xml:space="preserve">
<g id="Background">
</g>
<g id="Image_Layer">
</g>
<g id="Draw_Layer">
</g>
<g id="Draw_Layer_1_">
	<g>
		<path fill="#232323" d="M276.624,282.168c-7.956,1.836-11.628,17.136-1.224,18.36C286.416,301.14,288.864,279.72,276.624,282.168
			L276.624,282.168z"/>
		<path fill="#232323" d="M278.46,279.108c-4.896,0.612-9.792,1.836-13.464,4.896c-2.448,1.836-10.404,7.344-8.568,11.016
			c1.836,4.284,6.732,0,9.18-1.836c3.672-3.06,9.18-4.896,14.076-4.896s7.956,3.06,10.404,7.344c1.836,3.672,7.956,8.568,9.18,1.224
			c0.612-3.672-3.672-10.404-6.12-12.852C288.864,279.72,283.356,278.496,278.46,279.108L278.46,279.108z"/>
		<path fill="#232323" d="M326.196,299.304c-3.061,1.836-3.061,9.792-3.061,12.852c0,4.896,0,9.792,1.225,14.076
			c1.836,7.956,4.283,17.136,10.403,23.256c-8.567,1.836-15.912,0.612-23.867-3.672c-1.837-1.224-7.957-4.896-8.568,0
			c-0.612,3.06,4.284,5.508,6.731,6.732c7.345,4.896,14.688,5.508,22.645,3.672c2.448-0.612,7.344-1.836,8.567-4.284
			c1.225-3.672-3.672-9.18-4.896-12.24c-3.06-6.732-4.896-15.3-5.508-23.256C329.868,313.38,333.54,295.02,326.196,299.304
			L326.196,299.304z M321.3,350.1C321.912,350.1,321.912,350.1,321.3,350.1L321.3,350.1z"/>
		<path fill="#232323" d="M274.176,360.504c-1.224,1.224-3.06,6.732-3.06,8.568c0,2.448,1.836,6.732,4.284,3.06
			c3.06,4.284,8.568,6.732,13.464,7.956c6.732,1.836,12.24,0,18.972,0c4.284,0,7.344,3.672,11.628,3.672
			c5.508,0,12.24,0,17.136-1.836c0,2.448,2.448,3.672,4.284,3.06c1.836-1.224,3.061-4.896,3.672-7.344
			c0.612-2.448,4.284-7.956,0.612-9.792c-3.06-1.224-6.732,4.284-9.18,5.508c-4.284,2.448-9.792,2.448-14.076,3.672
			c-4.284,1.224-6.732-0.612-11.016-1.836c-4.896-1.224-9.792,0-14.688-1.224c-4.896-0.612-10.404-3.06-14.076-6.12
			C280.296,366.012,277.236,357.444,274.176,360.504L274.176,360.504z"/>
		<path fill="#232323" d="M531.828,604.08C531.828,604.08,531.828,603.468,531.828,604.08L531.828,604.08z"/>
		<path fill="#232323" d="M320.076,386.82c-0.612,0,0,0,1.224,0C320.688,386.82,320.688,386.82,320.076,386.82L320.076,386.82z"/>
		<path fill="#232323" d="M276.624,275.436c-6.732,1.224-7.344,12.852-1.224,15.3C286.416,295.02,287.64,272.988,276.624,275.436
			L276.624,275.436z M282.132,283.392C282.132,284.004,282.132,283.392,282.132,283.392L282.132,283.392z"/>
		<path fill="#232323" d="M276.624,274.212c-5.508,1.224-9.792,9.18-7.956,14.688c1.224,4.284,5.508,10.404,11.016,7.344
			c2.448-1.224,1.836-3.672,3.06-5.508c1.224-2.448,3.06-4.284,3.06-7.344C285.804,278.496,282.744,272.988,276.624,274.212
			L276.624,274.212z"/>
		<path fill="#19468F" d="M247.248,429.66c0.612,0-4.896,5.508-5.508,5.508c-2.448,1.836-4.284,4.284-6.732,6.732
			c-3.06,4.283-1.836,11.628-2.448,17.136c0,4.896-1.836,14.688,1.836,18.36c0.612,0.611,4.284,1.836,4.896,1.836
			c2.448,0.611,2.448,0,4.896-2.448c0.612-0.612,1.224-1.836,2.448-2.448c4.284-5.508,8.568-11.016,14.076-15.3
			c0.612-0.612,4.284-2.448,4.284-3.061c0-0.611-1.224-4.896-1.224-5.508c-0.612-3.06-1.836-6.12-2.448-9.18
			c-0.612-1.836-0.612-6.732-1.836-7.956C257.652,432.72,247.86,429.66,247.248,429.66L247.248,429.66z"/>
		<path fill="#19468F" d="M250.92,479.844c-0.612,0-4.284,4.284-4.896,4.896c-1.836,1.836-3.672,2.447-6.732,2.447
			c-1.836,0-4.896-1.836-6.732-1.224s-4.284,4.896-5.508,6.732c-3.672,5.508-8.568,9.792-12.24,14.688
			c-3.06,4.284-3.06,9.181-5.508,13.464c-0.612,0.612-1.836,2.448-1.836,2.448c-0.612,2.448,1.836,7.344,3.06,9.792
			c2.448,6.732,5.508,12.853,8.568,18.36c4.896,9.18,10.404,17.748,14.688,26.928c3.672-6.12,9.18-9.792,14.688-14.076
			c7.344-5.508,15.3-10.403,22.032-17.136c2.448-2.448,4.284-3.061,3.672-6.12c0,0.612,0,0,0,0
			c-1.224-11.628-4.284-22.644-9.18-33.66C260.1,498.816,253.368,490.248,250.92,479.844L250.92,479.844z"/>
		<path fill="#232323" d="M265.608,92.448C140.76,108.36,34.884,203.22,7.956,326.844C-18.36,447.408,33.66,574.704,135.864,642.636
			c106.488,70.992,249.696,66.097,351.289-11.016c45.899-34.884,80.783-82.008,100.367-136.477
			c22.645-61.812,23.868-131.58,4.284-194.003C553.248,180.576,440.028,94.284,313.344,90
			C297.432,89.388,281.52,90.612,265.608,92.448L265.608,92.448z M20.808,353.16c9.18-64.26,40.392-124.848,87.516-169.524
			C159.12,135.9,226.44,107.748,296.82,105.912c40.392-1.224,80.784,6.732,118.116,22.032c-1.224-0.612,0.612,0-0.611,0
			c22.644,11.016,44.063,22.032,64.26,37.332c18.972,14.688,36.72,32.436,51.408,51.408c29.988,37.944,49.572,85.68,56.916,134.028
			c3.672,25.704,3.672,52.632,0.611,78.336c0,0,0,0,0-0.612c0,0.612,0,0.612,0,0c-6.731,46.513-23.867,90.576-50.796,128.521l0,0
			c-3.672-17.136-11.628-33.048-20.808-47.736c-5.508-8.567-4.284-17.136-6.12-26.315c-1.224-7.956-4.284-14.688-9.18-21.42
			c-5.508-7.956-12.853-14.076-22.032-18.36c-7.344-3.672-15.3-6.12-22.644-9.792c-7.345-3.672-14.688-9.18-18.36-16.524
			c-4.284-7.344-6.12-17.748-6.12-26.315c-0.612-17.136,5.508-34.884,7.956-51.408s3.672-33.66,3.672-50.796
			c0-34.272-11.016-68.544-27.54-98.532c-9.792-17.136-20.808-33.048-37.332-44.064c-15.912-10.404-33.048-15.912-52.02-18.36
			c-11.628-1.224-23.868-3.06-35.496,0c-2.448,0.612-5.508,1.836-7.956,2.448c-3.06,1.224-6.732,6.732-9.18,7.344
			c-1.836,0.612-5.508-1.224-7.344-1.224c-2.448,0-5.508,0-7.956,0.612c-16.524,3.672-28.764,14.076-39.78,26.316
			c-11.016,12.24-20.808,25.092-29.376,39.168c-18.972,30.6-32.436,63.648-42.84,97.92c-9.792,33.048-18.972,66.708-30.6,99.756
			c-5.508,16.524-15.3,29.376-26.316,42.84c-9.18,11.628-18.972,23.868-24.48,37.332c-1.836,4.284-3.06,7.956-3.672,12.24
			c0,1.836,0.612,12.852,0.612,12.852c-4.896,4.896-10.404,10.404-12.852,17.137l0,0C22.644,470.664,13.464,410.688,20.808,353.16
			L20.808,353.16z M279.072,170.784c-7.344-12.24-4.284-34.884,12.24-37.332c16.524-3.06,36.72,1.224,52.632,6.732
			c15.911,5.508,31.823,15.3,42.84,27.54c12.24,13.464,21.42,31.212,28.764,47.736c4.284,9.792,8.568,20.196,11.017,30.6
			c2.447,8.568,3.06,17.136,4.283,25.704c0-0.612,0,0,0,0c3.061,22.644,3.061,47.736,0,70.38
			c-2.447,20.808-11.628,40.392-7.956,61.2c1.836,9.792,3.672,18.973,10.404,26.316c6.732,7.956,15.3,13.464,25.092,17.748
			c15.912,6.731,32.437,13.464,39.168,31.212l0,0c-6.731-6.732-14.688-11.017-23.868-12.853c-9.18-1.836-18.359-0.611-27.54-0.611
			c-8.567,0-14.075-3.061-21.42-7.344c-8.567-4.896-18.972-5.509-27.54-0.612c-7.956,4.896-13.464,12.24-23.256,14.688
			c-7.344,1.836-17.136,1.836-18.359-6.731c-0.612-2.448-0.612-3.672,0.611-6.12c2.448-4.284,5.509-7.344,7.345-11.628
			c3.672-6.732,6.731-14.076,9.792-20.809c17.136-37.332,29.987-75.888,22.644-116.892c-3.672-20.196-14.076-36.72-19.584-55.692
			c-6.12-18.972-1.224-38.556-9.18-56.916c-7.345-17.136-20.809-34.884-39.78-38.556c-7.344-1.224-15.912-0.612-23.256,1.224
			c-4.896,1.224-9.792,3.672-14.076,6.12c-2.448,1.224-8.568,7.344-10.404,7.344C279.684,172.62,279.684,172.008,279.072,170.784
			L279.072,170.784z M70.38,493.92c2.448-14.688,14.076-26.928,22.644-38.556c7.956-10.404,16.524-19.584,22.644-30.601
			c6.12-11.016,9.792-23.256,14.076-35.496c3.672-12.24,7.956-25.092,11.628-37.332c9.792-34.884,20.196-70.992,34.884-104.652
			c12.24-28.152,25.704-57.528,47.124-80.172c11.016-11.628,26.928-25.092,44.064-23.868c4.896,0.612,3.672,0,3.672,3.06
			c0,4.284-1.836,8.568-1.836,12.852c0,7.956,3.06,11.628,7.956,17.136c-3.06,3.06-8.568,4.896-12.24,7.344
			c-4.896,3.672-8.568,7.344-12.24,12.24c-9.792,12.852-17.136,26.928-22.032,42.228c-4.284,14.688-6.732,29.376-8.568,44.676
			c-2.448,17.136-6.12,34.271-7.344,51.408c-1.224,14.076,0,28.152,1.224,42.228c1.224,15.3,4.284,34.884-4.896,48.348
			c-1.836,2.448-4.284,3.672-6.12,6.12c-0.612,0.612-1.224,3.061-1.836,3.672c-1.836,1.225-7.344,1.836-9.792,2.448
			c-4.284,1.225-7.956,3.061-12.24,4.896c-4.896,2.447-10.404,4.896-15.3,7.956c-6.12,3.672-12.24,8.567-18.972,10.403
			c-14.076,4.896-28.764,5.508-42.84,11.017c-14.076,5.508-22.644,15.3-33.66,25.704l0,0C69.768,496.368,70.38,495.144,70.38,493.92
			L70.38,493.92z M287.028,176.292c12.24-8.568,29.988-10.404,43.453-4.896c13.464,5.508,25.703,23.256,30.6,36.72
			c-6.12-4.896-15.912-1.836-23.256-3.672c-7.956-1.836-13.464-6.732-18.36-12.24c-9.18-11.016-19.584-19.584-34.884-14.076
			C285.192,177.516,285.804,176.904,287.028,176.292L287.028,176.292z M281.52,181.188c7.956-3.06,14.688-2.448,21.42,2.448
			c1.224,0.612,6.12,6.12,6.732,6.732c4.896,6.12,9.18,13.464,16.524,17.748c5.508,3.672,12.239,5.508,18.972,5.508
			c3.06,0,6.732-0.612,9.792,0c2.448,0.612,4.896,3.672,7.956,1.836c2.448,12.852,1.224,25.704,5.508,38.556
			c1.225,4.896,2.448,11.016,5.508,14.688c2.448,3.672,4.284,7.344,5.509,11.628c1.836,4.284,2.447,8.568,3.672,12.852
			c1.836,5.508,4.284,11.016,4.284,16.524c0,6.732-1.225,14.076-2.448,20.808c-0.612,3.672-0.612,9.792-1.225,11.628
			c-2.447,7.956-4.896,15.912-8.567,23.868c-1.225,2.448-1.836,5.508-3.672,7.956c-0.612,1.224-1.836,3.06-2.448,4.284
			c0,0.612-3.672,4.284-1.836,2.448c-12.853,16.523-31.212,32.436-50.185,42.228c-11.627,7.956-32.436-3.06-42.84-9.18
			c-7.344-4.284-14.076-9.18-20.196-13.464c-5.508-4.284-13.464-11.016-16.524-16.524c-4.284-5.508-11.016-11.628-12.852-18.36
			c-2.448-7.956-1.224-18.972-1.224-26.928c0-19.584,4.284-39.168,6.12-58.752c1.836-18.972,4.284-38.556,12.24-56.304
			c6.732-15.912,17.136-34.272,33.048-41.616c0,0,0.612,0.612,1.224,0.612C277.848,181.8,280.296,181.8,281.52,181.188
			L281.52,181.188z M392.292,337.86c1.224-7.956,1.836-15.912,1.836-23.868c-0.612,8.568-0.612,17.136-2.448,25.092
			C391.68,339.084,391.68,338.472,392.292,337.86L392.292,337.86z M386.784,328.68v0.612
			C386.784,329.292,386.784,329.292,386.784,328.68L386.784,328.68z M384.948,331.74
			C384.948,332.352,384.948,332.352,384.948,331.74L384.948,331.74z M374.544,407.016c-0.612-4.283-0.612-14.688-4.896-16.523
			c11.016-13.464,18.972-32.436,22.031-49.572c0,6.12-0.611,12.24-1.224,17.748c0.612-3.06-0.612,3.06-0.612,3.672
			c-0.611,2.448-0.611,4.284-1.224,6.732c-1.224,4.896-2.448,9.792-3.672,14.688c-2.448,9.18-6.12,18.36-9.792,27.54
			C374.544,410.076,374.544,408.852,374.544,407.016L374.544,407.016z M371.484,375.192c-0.612,1.836-1.836,3.06-2.448,4.284
			C370.26,378.252,370.872,377.028,371.484,375.192L371.484,375.192z M216.648,434.556c-1.224,0-1.836,0-3.06,0
			c14.076-12.239,12.852-33.048,11.628-49.572c1.836,3.06,4.896,6.12,6.732,9.18c1.224,3.06,1.836,7.956,2.448,11.016
			c1.224,5.508,1.224,11.017,2.448,16.524c-4.896-3.061-8.568,1.836-11.016,5.508c-1.224,1.836-3.06,4.284-4.284,6.12
			C219.708,435.78,220.32,434.556,216.648,434.556L216.648,434.556z M364.752,385.596
			C364.752,386.208,364.752,386.208,364.752,385.596L364.752,385.596z M259.488,428.436c-2.448-1.224-4.284-1.224-6.732-1.836
			c-1.836,0-7.344-0.611-8.568-2.447c-1.224-1.225,0-7.345-0.612-9.181c-0.612-4.284-1.836-7.956-2.448-12.239
			c1.224,4.896,11.016,9.18,15.3,11.628c5.508,3.672,11.016,6.731,16.524,9.792c-3.06,0.611-12.852,1.224-12.852,4.896
			C260.1,429.048,259.488,429.048,259.488,428.436L259.488,428.436z M235.62,410.688C235.62,411.3,235.62,411.3,235.62,410.688
			L235.62,410.688z M335.376,411.912C334.764,411.912,334.764,411.912,335.376,411.912L335.376,411.912z M335.988,413.136
			C335.376,413.748,335.376,413.748,335.988,413.136L335.988,413.136z M373.932,425.376c1.225-3.06,1.225-6.12,1.225-9.18
			c0,3.06,0.611,11.628-4.284,11.628C372.708,427.824,373.932,427.212,373.932,425.376L373.932,425.376z M314.568,431.496
			c6.731-2.448,13.464-5.508,19.584-9.792c-3.672,2.448-7.345,4.284-11.017,6.12c-2.448,1.224-4.284,1.836-6.731,3.06
			C316.404,430.884,312.732,432.108,314.568,431.496L314.568,431.496z M334.152,421.704
			C334.152,422.316,334.152,422.316,334.152,421.704L334.152,421.704z M315.792,432.72c6.732-1.836,12.24-6.12,17.748-9.792
			c-3.06,11.628-4.284,23.256-7.344,34.885c-1.836,6.119-6.12,8.567-11.017,12.239c-11.016,8.568-22.032,17.748-31.824,26.929
			c-2.448-11.017-6.732-21.421-9.792-32.437c-1.836-5.508-3.06-11.016-5.508-15.912c-1.836-4.896-5.508-10.404-6.12-15.912
			c3.06,0,6.12-1.836,9.792-2.447c3.06-0.612,7.956,0,10.404-1.837c0,0,14.076,4.896,15.912,5.509
			C304.164,434.556,310.284,433.944,315.792,432.72L315.792,432.72z M274.788,423.54C274.176,423.54,274.176,423.54,274.788,423.54
			L274.788,423.54z M274.176,423.54C273.564,423.54,273.564,423.54,274.176,423.54L274.176,423.54z M342.72,424.764
			C342.72,425.376,342.72,425.376,342.72,424.764L342.72,424.764z M282.744,427.824c0.612-0.612,0.612-1.225,0.612-1.836
			L282.744,427.824L282.744,427.824z M219.708,452.304c1.836-7.344,4.896-14.076,9.18-20.195c0.612-1.225,1.224-3.061,2.448-4.284
			c2.448-3.061,0.612-1.225,3.672-0.612c1.224,0.612,4.284,1.836,5.508,2.448c-9.18,7.956-15.3,17.748-22.032,28.152
			C218.484,456.588,219.096,454.14,219.708,452.304L219.708,452.304z M369.036,427.824L369.036,427.824L369.036,427.824z
			 M370.26,427.824L370.26,427.824L370.26,427.824z M370.872,427.824C370.26,427.824,370.26,427.824,370.872,427.824
			L370.872,427.824z M236.844,478.62c-3.672-1.224-3.672-1.836-4.284-6.732c0-3.06,0-6.731,0-10.403
			c0-5.509-0.612-12.853,1.224-17.748c1.836-4.284,8.568-9.792,12.852-12.24c2.448-1.836-1.224-1.225,3.06-1.225
			c1.836,0,5.508,1.225,6.732,2.448c2.448,1.836,0.612-1.224,1.836,3.061c1.224,3.06,1.836,6.731,3.06,9.792
			c0.612,2.447,1.836,4.896,1.836,7.344c0.612,3.06,0.612,2.448-1.836,4.284c-4.284,3.672-8.568,7.344-11.628,12.24
			c-1.836,2.447-4.284,6.119-6.732,8.567C239.904,480.456,241.128,479.844,236.844,478.62L236.844,478.62z M253.98,430.884
			C253.98,430.884,253.98,431.496,253.98,430.884L253.98,430.884z M262.548,432.108L262.548,432.108L262.548,432.108z
			 M262.548,432.108C262.548,432.72,262.548,432.72,262.548,432.108L262.548,432.108z M210.528,433.944c0.612,0,1.836,0,2.448,0
			C212.364,433.944,211.14,433.944,210.528,433.944L210.528,433.944z M209.304,433.944
			C208.692,433.944,208.692,433.944,209.304,433.944L209.304,433.944z M341.496,434.556
			C341.496,435.78,341.496,435.78,341.496,434.556L341.496,434.556z M210.528,443.736
			C211.14,443.736,210.528,443.736,210.528,443.736L210.528,443.736z M212.976,480.456c3.06-2.448,4.284-7.956,6.12-11.016
			c2.448-4.284,4.896-8.568,6.732-12.24c-0.612,4.284-0.612,8.567-0.612,12.852c0,4.896,0.612,7.345-2.448,11.628
			c-2.448,3.672-4.896,7.345-7.956,11.017c-2.448,3.06-6.732,6.731-8.568,10.403c0.612-4.896,1.224-9.18,1.836-14.075
			c0-1.837,0-6.732,1.224-7.345C209.916,481.068,212.364,481.068,212.976,480.456L212.976,480.456z M277.848,536.148
			c-1.224-12.24-3.06-23.868-7.956-34.885c-2.448-4.896-6.12-9.18-9.18-14.076c-1.224-1.836-2.448-3.672-3.06-5.508
			c-0.612-1.836-0.612-4.896-2.448-6.12c3.672-4.283,7.344-7.956,11.016-12.239c1.836,8.567,4.284,17.136,6.732,25.704
			c1.224,4.283,3.06,16.523,9.792,16.523c3.672,0,6.12-4.284,8.568-6.731c3.06-3.061,6.732-6.12,10.404-9.181
			c6.12-5.508,12.24-11.016,18.972-15.3c-7.344,11.016-14.688,22.032-21.419,33.66c-6.732,10.404-12.24,22.032-19.584,31.824
			C277.848,538.596,277.848,537.372,277.848,536.148L277.848,536.148z M315.18,470.052L315.18,470.052L315.18,470.052z
			 M242.352,487.188c3.06-1.224,4.896-4.896,7.344-6.119c3.06-1.225,0-1.225,1.224,0c0.612,0.611,1.224,4.283,1.836,5.508
			c0.612,1.836,1.836,3.672,2.448,4.896c1.224,2.448,3.06,4.896,4.284,6.732c6.732,12.24,11.628,25.704,13.464,39.168
			c0.612,4.284,1.224,5.508-1.224,8.568c-4.284,4.896-10.404,9.18-15.912,12.852c-7.956,5.508-17.748,11.016-22.644,20.196l0,0
			c-3.672-7.344-7.344-14.688-11.628-21.42c-3.06-5.509-6.732-11.628-9.18-17.137c-1.836-3.672-6.12-12.239-5.508-16.523
			c0-0.612,1.836-2.448,1.836-3.061c0.612-1.836,1.224-3.672,1.836-5.508c1.836-5.508,4.284-8.567,7.956-12.852
			s7.344-8.568,10.404-13.464c1.836-3.061,1.836-3.672,5.508-3.061C236.844,487.188,239.904,487.8,242.352,487.188L242.352,487.188z
			 M502.452,495.756C502.452,496.368,502.452,496.368,502.452,495.756L502.452,495.756z M502.452,496.368L502.452,496.368
			L502.452,496.368z M502.452,496.368C501.84,496.368,501.84,496.368,502.452,496.368L502.452,496.368z M501.84,496.368
			L501.84,496.368L501.84,496.368z M501.84,496.368L501.84,496.368L501.84,496.368z M501.228,497.592
			C500.616,498.204,500.616,498.204,501.228,497.592L501.228,497.592z M477.36,619.38
			C476.748,619.992,476.748,619.992,477.36,619.38L477.36,619.38z M414.324,656.1C414.324,656.712,414.324,656.712,414.324,656.1
			L414.324,656.1z"/>
		<path fill="#232323" d="M309.672,190.98L309.672,190.98L309.672,190.98z"/>
		<path fill="#232323" d="M309.672,190.98L309.672,190.98L309.672,190.98z"/>
		<path fill="#232323" d="M354.96,285.228c-3.06,0.612-5.508,3.06-8.568,4.284c3.061,0.612,1.225,0,0,1.836
			c-0.611,1.836-1.836,2.448-3.06,3.672s-2.448,2.448-3.672,3.672c-3.061,4.284,1.224,10.404,5.508,6.12
			c1.836,3.06,6.12,4.284,9.18,3.06c2.448-0.612,3.672-2.448,4.896-4.284c0.612-0.612,1.836-3.672,1.836-3.672
			c4.896-1.836,14.076,18.972,19.584,8.568c3.06-6.12-7.344-15.912-12.24-18.36c-2.448-1.224-5.508-0.612-7.956-1.836
			C358.632,287.676,358.632,285.228,354.96,285.228L354.96,285.228z"/>
		<path fill="#232323" d="M367.2,211.176c0.611,11.628,0,22.644,1.224,34.272c0.612,6.12,2.448,11.628,3.672,17.748
			c1.225,5.508,1.836,11.016,3.672,16.524c3.673,11.628,9.181,22.032,12.24,33.66c1.225,4.284,2.448,12.852,5.508,15.912
			c4.284,4.284,6.732-1.224,6.732-4.896c-0.612-11.016-4.284-21.42-7.956-31.824c-1.836-4.284-4.284-8.568-6.12-12.852
			c-1.836-4.896-3.672-9.792-6.12-14.076c-4.896-9.18-7.956-17.136-8.567-28.152c-0.612-5.508,0-11.628,0-17.136
			c0-1.836,0.611-7.956,0-9.18C369.648,210.564,366.588,208.116,367.2,211.176L367.2,211.176z"/>
		<path fill="#232323" d="M351.288,283.392c-7.344,1.836-6.12,11.628-5.508,17.136c0.611,3.06,0,6.12,3.06,7.956l4.896,1.224
			C365.364,308.484,362.304,280.332,351.288,283.392L351.288,283.392z"/>
		<path fill="#232323" d="M275.4,277.272c-2.448,1.224-2.448,4.284-3.06,6.732c-0.612,2.448-1.836,4.284-3.06,7.344
			c-1.224,5.508,3.06,12.24,9.18,9.792C289.476,296.856,284.58,271.152,275.4,277.272L275.4,277.272z M274.176,291.348
			L274.176,291.348L274.176,291.348z M279.072,291.96L279.072,291.96L279.072,291.96z"/>
		<path fill="#232323" d="M269.892,254.016c-6.12,1.836-12.852,4.896-18.36,8.568c-1.224,1.224-6.732,4.284-3.672,6.12
			c0.612,0,2.448,0,3.06,0c1.836,0,2.448,0,4.284-1.224c6.732-3.06,12.852-6.12,19.584-6.12c7.344,0,15.3,1.836,22.032,3.672
			c2.448,0.612,4.896,2.448,7.344,4.284c1.836,1.836,3.06,4.284,6.12,4.284c9.18,0,0-10.404-3.061-12.852
			C298.656,254.628,280.908,251.568,269.892,254.016L269.892,254.016z M313.344,266.868
			C313.344,267.48,313.344,267.48,313.344,266.868L313.344,266.868z M303.552,268.704
			C303.552,269.316,303.552,269.316,303.552,268.704L303.552,268.704z"/>
		<path fill="#232323" d="M351.9,265.644c-1.836,1.224-17.137,12.24-6.12,14.076c3.06,0.612,6.12-3.06,7.956-4.896
			c3.672-2.448,7.344-4.284,11.628-3.672c3.06,0.612,6.12,3.06,9.18,1.224s1.836-4.896-0.612-6.732
			C368.424,261.972,358.02,262.584,351.9,265.644L351.9,265.644z"/>
		<path fill="#232323" d="M294.984,384.372c-3.672,6.732,27.541,7.956,25.704,2.448c-1.224-2.448-11.016,0-13.464,0
			C304.776,386.208,295.596,382.536,294.984,384.372L294.984,384.372z"/>
		<path fill="#232323" d="M353.124,284.004c-12.24,2.448-9.792,31.824,2.448,25.704c4.896-2.448,7.344-9.792,6.731-14.688
			C362.304,290.736,358.632,283.392,353.124,284.004L353.124,284.004z M352.512,291.348L352.512,291.348L352.512,291.348z
			 M352.512,291.348c1.836,3.06,1.836,6.12,0.612,9.18C351.9,297.468,351.288,294.408,352.512,291.348L352.512,291.348z
			 M353.736,298.692C353.736,299.304,353.736,299.304,353.736,298.692L353.736,298.692z M354.348,302.976L354.348,302.976
			L354.348,302.976z"/>
		<path fill="#232323" d="M250.92,263.808c-1.836,0.612-4.284,1.836-4.284,4.284c0,1.836,3.06,3.06,4.284,3.06
			C257.652,270.54,254.592,261.972,250.92,263.808L250.92,263.808z M248.472,265.644
			C248.472,265.644,247.86,265.644,248.472,265.644L248.472,265.644z"/>
		<path fill="#FFFFFF" d="M293.76,132.84c-10.404,1.224-15.912,7.344-17.748,17.748c-1.224,8.568,0.612,14.688,4.284,22.032
			c13.464-9.18,26.316-15.912,42.84-15.3c17.136,1.224,29.376,12.852,38.557,26.928c5.508,8.568,9.792,17.748,11.016,28.152
			c1.224,8.568,0.612,17.136,1.224,25.704c1.836,20.196,14.076,36.72,19.584,55.692c12.24,41.004,3.672,81.396-12.852,119.952
			c-4.284,9.18-8.568,18.972-12.853,28.152c-1.224,2.447-2.447,4.283-3.672,6.731c-1.836,3.672-5.508,7.344-7.344,11.017
			c-2.448,4.896,0,11.016,5.508,12.852c9.181,2.448,18.36-1.224,25.704-6.732c8.568-6.731,16.524-13.464,28.764-11.016
			c8.568,1.836,14.688,9.18,23.257,11.016c9.792,1.836,20.195-0.611,29.987,0c10.404,1.225,20.196,6.12,28.152,13.465
			c-1.836-7.956-11.016-17.137-17.748-21.421c-6.732-4.283-14.688-6.731-22.032-10.403c-9.792-4.284-18.359-9.792-25.092-17.748
			c-6.731-7.344-8.568-17.136-10.404-26.316c-3.672-20.808,5.509-41.004,7.956-61.2c3.061-22.644,3.061-47.736,0-70.38v0.612
			c0-16.524-6.119-35.496-12.852-50.184c-7.344-17.136-17.136-34.884-28.764-50.184c-10.404-12.852-25.093-23.256-40.393-29.376
			C332.316,135.288,312.12,131.616,293.76,132.84L293.76,132.84z"/>
		<path fill="#FFFFFF" d="M266.22,143.244c-26.316,0-45.9,25.092-59.364,44.676c-17.136,25.092-29.988,53.856-40.392,82.62
			c-11.628,31.824-20.196,64.26-30.6,96.696c-6.732,20.196-11.016,42.228-22.644,60.588c-14.076,23.256-40.392,42.84-44.676,70.992
			c7.956-7.345,14.688-16.524,24.48-22.032c12.852-6.732,27.54-9.792,41.616-12.853c14.076-2.447,24.48-10.403,36.72-17.136
			c4.896-2.448,10.404-5.508,15.912-7.344c3.06-1.225,6.732-2.448,9.792-3.672c4.284-1.225,3.06-0.612,5.508-4.284
			c3.672-4.896,7.344-7.344,9.792-12.853c3.06-7.956,2.448-16.523,2.448-25.092c-0.612-15.3-2.448-30.6-2.448-45.288
			c0-17.136,3.06-33.66,5.508-50.796c2.448-15.3,3.06-30.6,6.732-45.288c4.284-18.36,11.016-35.496,21.42-50.796
			c4.284-6.12,8.568-11.628,14.688-16.524c2.448-1.836,4.896-3.672,7.344-4.896c1.836-1.224,4.896-1.836,6.732-3.672
			c-4.284-4.896-7.956-7.956-7.956-14.688c0-4.284,0.612-7.956,1.224-11.628C270.504,145.08,271.728,143.244,266.22,143.244
			L266.22,143.244z"/>
		<path opacity="0.2" fill="#19468F" d="M265.608,108.36c-72.828,10.404-138.312,47.736-184.212,104.652
			C37.332,267.48,15.912,336.636,18.972,406.404c1.836,40.392,12.24,80.172,30.6,116.279c1.224-4.283,3.672-7.344,6.12-10.403
			c1.836-2.448,5.508-4.896,5.508-7.345c0.612-4.283-0.612-8.567,0-12.852c0.612-4.284,1.836-7.956,3.672-11.628
			c6.12-14.688,17.136-28.152,27.54-40.392c12.24-14.076,20.196-29.376,26.316-47.125c6.732-20.196,12.24-40.392,18.36-60.588
			c10.404-33.048,19.584-66.096,34.884-97.308c14.688-29.376,32.436-58.752,56.916-81.396c10.404-9.18,25.704-17.748,39.78-16.524
			c2.448,0,4.896,1.224,6.732,0c1.836-0.612,3.672-3.672,5.508-4.896c1.836-1.224,3.672-1.836,5.508-3.06
			c4.896-1.836,10.404-3.06,15.912-3.06c32.436-1.836,69.156,8.568,91.8,32.436c14.076,14.688,24.48,33.66,32.437,52.02
			c7.344,16.524,12.239,33.66,15.3,52.02c4.896,34.272,1.224,69.768-6.12,102.816c-3.672,16.524-4.896,33.048,1.836,49.572
			c6.732,15.912,25.704,20.809,39.78,27.54c15.912,7.345,29.376,21.42,32.436,39.168c1.836,9.181,0.612,18.973,5.508,27.54
			c4.284,6.732,8.568,12.853,11.628,20.196c4.284,9.18,7.956,18.36,9.792,28.152c27.54-38.557,44.064-82.62,50.797-129.132
			c-1.225,2.447,0-0.612,0-1.225c0-1.836,0.611-3.06,0.611-4.896c0.612-3.061,0.612-6.12,0.612-9.792
			c0.612-6.732,0.612-14.076,0.612-20.809c0-12.852-0.612-25.704-2.448-37.944c-3.061-23.256-9.792-46.512-18.36-68.544
			c-17.748-44.676-47.124-84.456-84.456-114.444c-21.42-17.748-45.288-29.988-70.38-42.228l0.612,0.612
			C367.812,108.36,316.404,101.628,265.608,108.36L265.608,108.36z M20.808,353.16L20.808,353.16L20.808,353.16z"/>
	</g>
</g>
</svg>
