<?xml version="1.0" encoding="utf-8"?>
<!-- Generator: Adobe Illustrator 16.0.0, SVG Export Plug-In . SVG Version: 6.00 Build 0)  -->
<!DOCTYPE svg PUBLIC "-//W3C//DTD SVG 1.1//EN" "http://www.w3.org/Graphics/SVG/1.1/DTD/svg11.dtd">
<svg version="1.1" id="Layer_1" xmlns="http://www.w3.org/2000/svg" xmlns:xlink="http://www.w3.org/1999/xlink" x="0px" y="0px"
	 width="595.034px" height="596.341px" viewBox="12.47 101.388 595.034 596.341"
	 enable-background="new 12.47 101.388 595.034 596.341" xml:space="preserve">
<g id="Background">
</g>
<g id="Image_Layer">
</g>
<g id="Draw_Layer">
</g>
<g id="Draw_Layer_1_">
	<g>
		<path fill="#232323" d="M261.324,146.916c-1.836,1.224-4.896,1.224-7.344,1.836c-4.284,1.224-7.956,3.06-12.24,4.896
			c-7.956,4.284-14.688,11.628-20.196,19.584c-6.732,9.18-10.404,20.808-14.076,31.212c-3.672,11.016-7.344,22.644-9.792,34.272
			c-1.836,11.016-1.224,22.644-2.448,33.66c-0.612,5.508-1.836,11.016-3.06,15.912c-1.224,6.12-1.836,12.24-3.06,18.36
			c-4.284,17.748-10.404,34.272-12.852,52.632c-1.836,11.016-1.224,22.032,0.612,33.048c1.224,5.508,2.448,10.404,3.06,15.912
			c0,1.224,0.612,6.731,1.836,7.344c3.672,1.836,3.06-3.672,2.448-4.896c-0.612-11.628-3.672-23.868-3.06-35.496
			c0-12.24,3.06-23.868,6.732-35.496c3.06-10.404,7.344-20.196,10.404-29.988c3.06-11.016,4.896-22.032,6.12-33.048
			c1.836-17.748,0-35.496,3.672-53.244c1.836-9.792,6.12-19.584,9.792-28.764c2.448-6.732,4.896-12.852,8.568-17.748
			c6.732-9.18,15.912-17.136,26.316-21.42c2.448-1.224,5.508-1.224,7.956-2.448c1.836-0.612,3.672-0.612,4.284-3.06
			C265.608,148.14,263.16,146.304,261.324,146.916L261.324,146.916z M219.096,192.204L219.096,192.204L219.096,192.204z"/>
		<path fill="#232323" d="M267.444,147.528c-17.748,4.896-33.048,12.24-45.9,25.704c-12.852,14.076-19.584,30.6-23.256,48.96
			c-3.672,19.584-4.284,39.168-6.12,58.752c-0.612,7.956-1.224,15.3-2.448,23.256c-1.224,6.732-3.672,13.464-4.896,20.196
			c-3.06,12.24-5.508,23.256-5.508,35.496c0,2.448-1.224,14.688,1.224,15.912c2.448,0.612,2.448-1.224,3.06-3.06
			c0-1.224,0-2.448,0.612-3.672c0,0,0.612-6.12,0.612-4.284c2.448-19.584,9.18-37.944,14.076-57.528
			c4.896-18.36,4.284-36.72,5.508-55.08c1.224-14.688,3.672-28.764,7.344-42.84c4.284-17.136,14.076-31.212,26.928-43.452
			c5.508-4.896,12.24-8.568,18.972-11.628c1.224-0.612,3.06-1.224,4.284-1.836c1.836-0.612,6.732-1.224,7.344-3.06
			C269.892,148.752,268.668,146.916,267.444,147.528L267.444,147.528z"/>
		<path fill="#232323" d="M275.4,181.188c-1.836,7.956-4.284,14.688-7.956,22.644c-3.672,7.344-7.956,15.912-12.852,22.644
			s-11.016,11.628-16.524,17.136c-4.896,4.896-9.18,10.404-13.464,16.524c-7.956,11.628-12.24,25.092-15.3,38.556
			c-1.224,4.284-1.836,9.18-1.836,13.464c0,2.448-1.224,9.792,0.612,11.628c3.06,3.672,4.284-0.612,4.284-3.06
			c0.612-4.284,0.612-8.568,1.224-12.852c-0.612,2.448,0.612-2.448,0.612-3.06c0.612-2.448,1.224-4.896,1.836-6.732
			c1.224-4.284,3.06-8.568,4.896-12.852c-0.612,2.448,1.836-4.284,2.448-5.508c1.224-2.448,3.06-5.508,4.284-7.956
			c2.448-4.284,6.12-8.568,9.18-12.852c6.732-9.18,13.464-17.748,19.584-27.54c5.508-8.568,11.016-18.36,15.912-27.54
			c2.448-4.896,4.896-9.18,6.12-14.688c0.612-1.224,2.448-6.732,1.224-7.956C277.236,179.964,275.4,179.964,275.4,181.188
			L275.4,181.188z M253.98,226.476C253.98,227.088,253.98,227.088,253.98,226.476L253.98,226.476z"/>
		<path fill="#232323" d="M388.008,276.66c-2.448,1.224,2.448,6.732,3.672,6.732c3.061,0.612,1.225-2.448,1.225-3.06
			C391.68,279.108,390.456,275.436,388.008,276.66L388.008,276.66z"/>
		<path fill="#232323" d="M389.844,274.212c-3.672,1.224,2.448,14.688,6.12,12.852C397.8,286.452,392.292,273.6,389.844,274.212
			L389.844,274.212z"/>
		<path fill="#232323" d="M386.784,272.988c-3.672,1.836,6.12,14.688,9.18,12.24C398.412,283.392,389.844,271.764,386.784,272.988
			L386.784,272.988z"/>
		<path fill="#232323" d="M388.008,273.6c-3.672,2.448,4.284,16.524,7.956,14.076C399.636,285.84,391.68,271.764,388.008,273.6
			L388.008,273.6z"/>
		<path fill="#232323" d="M392.904,285.228c-3.061,0.612,0.611,4.284,1.836,3.672c2.447,0,1.836-2.448,0-3.06
			C396.576,286.452,393.516,285.228,392.904,285.228L392.904,285.228z"/>
		<path fill="#232323" d="M389.844,277.884c-4.284,2.448,3.672,12.24,7.344,11.016C402.084,287.064,392.904,276.048,389.844,277.884
			L389.844,277.884z"/>
		<path fill="#232323" d="M392.904,285.228c-1.836,1.836,3.06,5.508,4.283,3.06C397.8,287.064,394.128,284.004,392.904,285.228
			L392.904,285.228z"/>
		<path fill="#232323" d="M385.56,274.212c-0.611,3.06,1.837,7.956,4.284,10.404c3.061,3.672,7.956,4.896,12.24,6.12
			c3.672,1.224,7.344,3.06,11.628,2.448c2.448-0.612,7.344-4.284,5.508-7.344c-1.224-1.836-7.956-1.224-9.792-1.224
			c-3.06-0.612-6.12-1.836-9.18-3.06c-3.672-1.836-4.896-4.284-7.344-7.344C390.456,272.376,386.172,269.316,385.56,274.212
			L385.56,274.212z M386.172,277.272C386.784,277.272,386.784,277.272,386.172,277.272L386.172,277.272z"/>
		<path fill="#232323" d="M380.664,265.032c-2.448,2.448,9.18,13.464,11.628,15.3c5.508,4.896,11.628,7.956,18.972,9.18
			c1.836,0,7.345,0,4.284-3.06c-0.612-0.612-3.672-0.612-4.896-1.224c-5.509-0.612-9.181-2.448-13.465-6.12c0,0,0,0,0.612,0
			C394.74,277.272,383.724,261.972,380.664,265.032L380.664,265.032z"/>
		<path fill="#232323" d="M216.036,286.452c-0.612,3.672-1.836,7.344-2.448,11.016c-0.612,2.448-0.612,9.18,2.448,3.672
			c1.836-3.06,2.448-7.956,2.448-11.628c0-1.224,1.224-3.672,0-4.284C217.872,285.228,216.648,285.228,216.036,286.452
			L216.036,286.452z"/>
		<path fill="#232323" d="M219.096,272.376c-3.06,7.344-6.732,14.076-9.18,21.42c-1.224,3.672-2.448,7.344-4.896,10.404
			c-2.448,3.06-6.732,5.508-9.18,7.956c-1.224,1.224-4.896,3.06-4.896,4.896c0.612,1.836,4.284,0.612,5.508,0.612
			c5.508-1.836,11.016-6.732,15.3-11.016c0.612-0.612,1.836-2.448,3.06-3.06c0.612,0,1.836,1.224,2.448,0.612
			c1.836-1.836,1.836-6.732,2.448-9.792c1.224-5.508,2.448-11.016,4.284-17.136c0.612-1.836,1.836-3.672,0-5.508
			C222.768,271.764,219.096,271.764,219.096,272.376L219.096,272.376z"/>
		<path fill="#232323" d="M226.44,263.196c-2.448,3.672-4.284,6.732-6.12,11.016c-4.284,10.404-4.284,23.256-6.12,35.496
			c0,1.836-0.612,13.464,3.672,7.956c1.224-1.836,0.612-5.508,0.612-7.956c0-3.672,0-6.732,0.612-10.404
			c0-1.224,1.224-6.732,1.836-9.792c1.224-4.284,2.448-8.568,3.672-12.852c1.224-3.06,4.896-7.344,5.508-10.404
			C230.724,263.196,228.276,259.524,226.44,263.196L226.44,263.196z M220.32,274.212C220.32,273.6,220.32,273.6,220.32,274.212
			L220.32,274.212z"/>
		<path fill="#232323" d="M203.796,336.024c-0.612,3.06-6.12,20.808,1.224,19.584c4.284-0.612,1.224-8.568,1.224-11.628
			c0-2.448,1.224-4.896,1.224-6.732C206.856,335.412,205.02,333.576,203.796,336.024L203.796,336.024z"/>
		<path fill="#232323" d="M200.736,344.592c-1.836,1.836,0,7.344,0.612,9.792c0.612,2.448,3.672,9.18,5.508,3.672
			C207.468,355.608,205.02,339.696,200.736,344.592L200.736,344.592z"/>
		<path fill="#232323" d="M200.124,347.652c-0.612,4.284,1.224,8.568,2.448,12.24c0.612,1.836,1.224,5.508,3.06,6.12
			c3.06,0.612,2.448-1.836,2.448-3.672c0-4.284-2.448-9.792-3.672-14.076c-0.612-1.836,0-2.448-1.836-3.06
			C201.96,345.816,200.124,346.428,200.124,347.652L200.124,347.652z M205.02,348.876L205.02,348.876L205.02,348.876z
			 M205.02,349.488C205.02,350.1,205.02,350.1,205.02,349.488L205.02,349.488z"/>
		<path fill="#232323" d="M202.572,348.876c-5.508,1.836,1.836,25.092,6.732,23.868c4.284-1.224-0.612-11.016-1.224-13.464
			C206.856,356.22,207.468,347.652,202.572,348.876L202.572,348.876z"/>
		<path fill="#232323" d="M203.184,354.996c-1.836,0.612,3.06,17.136,4.284,19.584c2.448,6.12,6.732,12.24,11.628,16.524
			c1.836,1.836,4.284,4.284,6.12,6.12c1.224,1.836,4.284,7.345,5.508,2.448c1.224-4.896-10.404-12.852-13.464-15.912
			c-1.836-1.836-4.896-7.956-6.732-11.628C209.916,370.908,205.632,354.384,203.184,354.996L203.184,354.996z M211.14,373.356
			L211.14,373.356L211.14,373.356z"/>
		<path fill="#232323" d="M201.348,353.772c-3.06,0.612,1.224,10.404,1.836,12.24c0.612,1.836,1.224,4.896,3.672,4.284
			c1.224-0.612,0-3.06,0.612-2.448C206.856,365.4,203.796,353.16,201.348,353.772L201.348,353.772z"/>
		<path fill="#232323" d="M197.064,353.16c0.612,6.732,2.448,12.852,5.508,18.972c1.224,2.448,8.568,14.688,11.016,6.12
			c0.612-2.448-2.448-6.732-3.672-9.18c-1.836-3.06-3.06-6.732-3.672-9.792c-0.612-3.06,0-7.344-3.06-9.18
			C200.736,348.264,196.452,350.1,197.064,353.16L197.064,353.16z M205.02,355.608C205.02,356.22,205.02,356.22,205.02,355.608
			L205.02,355.608z"/>
		<path fill="#232323" d="M199.512,359.28c-5.508,1.836,6.12,17.748,7.956,20.808c4.896,7.956,11.628,13.464,17.748,20.196
			c1.836,1.836,4.896,8.567,7.344,9.18c3.672,0.612,2.448-2.448,1.836-4.284c-2.448-6.731-9.18-9.792-12.24-15.3
			c-4.284-5.508-8.568-11.016-12.852-16.524C206.856,370.296,201.96,358.668,199.512,359.28L199.512,359.28z"/>
		<path fill="#232323" d="M401.472,356.22c0.612,9.792,1.225,20.196,1.225,30.6c0,9.18-3.061,16.524-7.345,24.48
			c-4.283,8.568-7.955,17.136-10.403,25.704c-0.612,3.061-3.672,22.032,3.06,18.972c3.061-1.224,3.672-10.403,4.284-13.464
			c1.224-4.284,2.448-8.567,3.672-12.852c3.061-8.568,6.732-17.136,7.956-26.316c1.224-8.568,1.836-17.136,1.836-25.704
			c0-4.896,0-9.18-0.612-14.076c0-1.224,0.612-5.508-0.611-7.344C403.92,355.608,400.86,353.772,401.472,356.22L401.472,356.22z"/>
		<path fill="#232323" d="M401.472,383.148c-1.224,1.224-1.224,6.12-1.224,7.344c-0.612,3.06-1.224,6.12-1.836,9.792
			c-0.612,1.836-3.672,14.076,1.836,10.403c3.672-1.836,3.06-11.628,3.672-14.688c0-3.06,0.612-5.508,1.224-8.568
			C404.532,386.208,404.532,380.088,401.472,383.148L401.472,383.148z"/>
		<path fill="#232323" d="M235.62,408.852C235.62,408.852,235.62,408.24,235.62,408.852L235.62,408.852z"/>
		<path fill="#232323" d="M400.248,322.56C400.248,322.56,400.86,321.948,400.248,322.56L400.248,322.56z"/>
		<path fill="#232323" d="M409.428,474.336C409.428,474.336,408.816,473.724,409.428,474.336L409.428,474.336z"/>
		<path fill="#232323" d="M413.712,474.336C414.324,474.948,413.712,473.112,413.712,474.336L413.712,474.336z"/>
		<path fill="#232323" d="M546.516,581.436C546.516,580.824,546.516,580.824,546.516,581.436L546.516,581.436z"/>
		<path fill="#232323" d="M553.248,585.108C553.248,585.108,553.248,584.496,553.248,585.108L553.248,585.108z"/>
		<path fill="#232323" d="M263.16,282.78c-11.016,1.224-23.256,4.284-31.212,11.628c-1.836,1.836-7.956,9.18-1.224,9.18
			c1.836,0,4.896-3.06,6.732-4.284c2.448-1.836,5.508-3.06,7.956-4.284c6.12-2.448,11.628-3.06,17.748-3.06
			c6.12,0,12.24,1.836,18.36,1.224c6.732-0.612,6.732-6.12,0.612-8.568C275.4,282.168,269.28,282.168,263.16,282.78L263.16,282.78z
			 M248.472,292.572C246.636,293.184,247.86,292.572,248.472,292.572L248.472,292.572z M235.62,299.916
			C235.008,300.528,235.008,300.528,235.62,299.916L235.62,299.916z"/>
		<path fill="#232323" d="M353.124,276.048c-6.12,0.612-12.24,1.836-17.748,4.284c-3.672,1.224-11.016,3.06-11.016,7.956
			c0.611,5.508,8.567,1.224,11.016,0c6.12-2.448,12.852-4.284,19.584-5.508c-2.448,0.612,1.836,0,1.836,0
			c1.224,0,2.448,0.612,3.672,0.612c3.672,1.224,7.344,2.448,11.017,4.284c3.06,1.224,14.688,7.344,15.3,0.612
			c0.611-5.508-10.404-7.344-14.076-8.568C367.2,277.272,359.856,275.436,353.124,276.048L353.124,276.048z M337.824,285.228
			C337.212,285.84,337.212,285.84,337.824,285.228L337.824,285.228z M335.988,288.288L335.988,288.288L335.988,288.288z"/>
		<path fill="#232323" d="M334.152,280.332c-3.061,0.612-9.181,3.06-11.017,5.508c-2.448,4.284,1.836,5.508,4.896,4.284
			c2.448-0.612,9.18-3.06,10.403-5.508C340.271,282.168,337.212,279.72,334.152,280.332L334.152,280.332z"/>
		<path fill="#232323" d="M351.9,276.048c-4.284,0.612-7.956,1.224-12.24,3.06c-3.672,1.224-11.017,3.06-13.464,5.508
			c-2.448,2.448-1.836,5.508,1.836,5.508s9.18-3.672,12.852-4.896c4.896-1.224,9.181-1.836,14.076-1.836
			c3.672,0,9.792,2.448,12.852,0.612c5.509-2.448,0.612-6.12-2.447-6.732C361.08,276.66,356.796,276.048,351.9,276.048
			L351.9,276.048z"/>
		<path fill="#232323" d="M257.652,301.752c-11.628,3.06-7.956,25.092,4.284,21.42C273.564,319.5,269.892,298.08,257.652,301.752
			L257.652,301.752z"/>
		<path fill="#232323" d="M350.064,295.632c-5.509,3.672-6.732,9.792-4.284,15.912c1.836,4.896,6.12,8.568,11.628,4.284
			c3.672-3.06,6.12-9.792,4.896-14.688C361.08,296.856,354.96,291.96,350.064,295.632L350.064,295.632z"/>
		<path fill="#232323" d="M254.592,304.2c-5.508,1.836-12.852,6.12-16.524,11.016c-1.224,1.836-3.672,5.508-1.224,6.732
			c2.448,1.224,6.12-2.448,7.956-3.06l0,0c7.344-6.12,15.912-9.792,23.868-6.12c1.836,0.612,4.896,3.672,6.732,2.448
			c3.06-1.836-0.612-6.12-2.448-7.956C268.668,302.364,260.712,302.364,254.592,304.2L254.592,304.2z M245.412,318.276
			C244.8,318.888,245.412,318.276,245.412,318.276L245.412,318.276z"/>
		<path fill="#232323" d="M352.512,296.244c-4.896,0.612-10.403,3.06-14.688,5.508c-3.061,1.836-8.568,7.956-3.061,11.016
			c4.284,1.836,10.404-4.896,13.464-6.12c7.345-3.06,12.24-1.836,19.584,0.612c-0.611,0,1.225,0.612,0,0c0,0,0.612,0,0.612,0.612
			c0.612,0.612,9.18,6.732,7.956-0.612C374.544,298.692,358.632,295.632,352.512,296.244L352.512,296.244z M375.156,305.424
			C375.768,306.036,375.156,305.424,375.156,305.424L375.156,305.424z M367.812,307.26L367.812,307.26L367.812,307.26z"/>
		<path fill="#232323" d="M331.092,369.072c-5.508,1.836-11.016,4.284-15.912,6.732c-4.896,2.448-7.956,3.672-12.852,1.224
			c-4.284-1.836-9.18-6.12-13.464-6.732c-1.836-0.612-4.284,0-4.284,2.448c0,2.448,3.06,3.672,4.284,4.284
			c7.344,4.284,15.3,11.016,24.479,7.344c4.896-1.836,9.181-5.508,13.464-7.956c1.836-0.612,6.12-2.448,6.732-4.284
			S332.928,368.46,331.092,369.072L331.092,369.072z M302.328,377.028L302.328,377.028L302.328,377.028z"/>
		<path fill="#232323" d="M326.196,426.6c-5.509,1.836-11.628,3.061-17.748,3.672c-2.448,0-4.896-1.224-7.344-1.224
			c-3.672,0-1.836,2.448,0.612,3.672c4.896,1.836,11.628,0.612,17.136,0c2.448-0.611,5.509-0.611,7.956-1.836
			C328.032,429.66,329.868,425.376,326.196,426.6L326.196,426.6z"/>
		<path fill="#232323" d="M310.284,302.976c-2.448,2.448-0.612,15.3-0.612,18.36c0.612,6.732,1.225,13.464,3.061,19.584
			c0.611,1.836,1.224,6.732,3.06,7.344c3.06,1.224,1.836-3.06,1.836-4.896c-1.224-5.508-3.06-11.628-4.284-17.136
			c-1.224-4.284-0.611-9.792-0.611-14.076C312.732,311.544,313.344,299.304,310.284,302.976L310.284,302.976z"/>
		<path fill="#232323" d="M326.196,396c-8.568,0-17.748,1.224-26.316,2.448c-6.732,1.224-13.464,3.672-20.196,4.284
			c-2.448,0-10.404-0.612-10.404,3.06c0,3.06,5.508,4.284,7.344,5.508c4.284,2.448,7.956,4.284,12.24,6.732
			c6.732,3.672,12.24,6.731,20.195,6.731c10.404,0,19.584-2.447,28.152-7.956c4.284-2.447,8.568-5.508,12.24-8.567
			c2.448-2.448,4.284-6.732,1.224-8.568c-1.836-1.224-6.12-1.224-8.567-1.836C336.6,396,331.704,395.388,326.196,396L326.196,396z
			 M300.492,400.896c7.344-0.612,14.688,0.611,21.42,0c6.12-0.612,11.016,0,17.136,1.224c-0.612,2.448-0.612,5.508-2.448,7.344
			c-1.836,2.448-7.344,4.284-9.792,5.508c-6.12,3.061-13.464,4.284-20.195,4.284c-9.18,0-22.032-4.284-20.196-14.688
			C290.7,402.732,295.596,401.508,300.492,400.896L300.492,400.896z"/>
		<path fill="#232323" d="M349.452,392.328c-1.225,4.896-1.225,9.792-1.225,14.688c0,1.836-0.611,6.12,0.612,7.956
			c1.836,1.836,3.061,0.612,3.672-1.224c1.225-3.672,0-9.18,0-12.852c0-1.837,0.612-4.896,0-6.732
			C352.512,391.716,350.676,389.268,349.452,392.328L349.452,392.328z"/>
		<path fill="#232323" d="M271.728,399.672c-3.06,1.225-4.284,13.464-0.612,14.688C277.236,415.584,276.624,397.224,271.728,399.672
			L271.728,399.672z"/>
		<path fill="#232323" d="M297.432,101.628C169.524,107.748,56.304,197.1,22.644,320.724
			C-9.18,435.78,35.496,566.748,130.968,637.74c52.02,38.556,114.444,60.588,179.316,59.976c56.916,0,113.22-16.523,160.956-47.735
			c51.408-33.66,91.188-81.396,113.832-137.7c25.092-61.2,29.376-129.132,11.628-192.78c-16.524-59.364-50.796-113.832-99.145-153
			c-42.84-34.884-96.084-56.916-151.164-63.648C330.48,101.628,313.956,101.016,297.432,101.628L297.432,101.628z M85.068,576.54
			c-41.004-54.468-62.424-121.176-58.14-189.72c4.284-69.768,33.66-135.864,83.232-184.824
			c51.408-51.408,120.564-80.784,193.392-82.62c56.305-1.224,113.22,15.3,161.568,46.512
			c68.544,44.676,115.668,116.28,127.296,197.676c0,0,0-1.836,0,0c0,0.612,0,0,0,0c3.672,18.36,3.672,41.616,1.836,61.2
			c-1.836,26.316-7.344,52.021-16.523,76.5c-4.284,12.24-9.793,24.48-16.524,36.108c-3.06,4.896-5.508,10.404-8.568,15.3
			c-1.836,3.061-3.672,5.508-5.508,8.568c-0.612,0.611-3.672,6.12-4.284,6.12c-0.611,0-3.672-2.448-4.283-3.061
			c-2.448-1.836-4.896-3.06-7.956-4.284c-4.284-2.447-8.568-3.672-13.465-5.508c-9.18-3.06-19.584-4.896-28.764-8.567
			c-6.12-2.448-12.24-5.509-17.748-7.956c-6.12-2.448-12.24-4.896-17.136-8.568c-3.061-2.448-6.732-4.896-7.956-7.956
			s-1.836-5.508-3.672-7.956s-4.284-3.672-5.508-5.508c-4.896-6.732-3.673-18.973-5.509-26.928
			c-3.06-10.404-9.18-20.196-12.239-30.601c-4.284-16.523,3.06-32.436,6.12-48.348c4.896-25.092,4.896-48.96,1.224-74.052
			c-2.448-18.36-3.061-37.944-4.284-57.528c-1.836-25.704-9.792-47.736-22.032-70.38c-10.403-20.196-25.092-36.72-45.288-47.124
			c-17.136-9.18-37.943-10.404-56.916-11.016c-20.808-0.612-39.168,5.508-55.692,16.524c-19.584,12.852-31.824,35.496-39.78,56.916
			c-4.284,12.852-6.12,25.704-6.732,39.168c-0.612,12.852,0,25.704-2.448,37.944c-5.508,26.316-16.524,50.184-17.748,77.724
			c0,6.12,1.224,12.24,0.612,18.36c-0.612,4.284-3.06,9.18-4.896,12.852c-1.224,3.672-2.448,7.956-3.672,11.628
			c-1.836,4.896-6.12,9.181-9.792,13.464c-12.852,15.301-22.032,33.048-24.48,53.244c-1.224,7.344-0.612,14.688-1.224,22.645
			c0,11.016-1.836,21.42-5.508,31.823c-3.672,10.404-9.792,18.36-17.136,26.929c-3.06,3.672-6.12,7.344-7.956,11.628
			c-3.672,6.12-4.896,12.239-6.12,18.972l0,0C92.412,585.72,88.74,581.436,85.068,576.54L85.068,576.54z M264.384,154.26
			c13.464-3.672,26.316-4.896,39.78-3.06c10.404,1.224,20.808,1.836,30.6,4.896c9.181,2.448,17.748,7.956,25.093,13.464
			c18.972,14.688,29.987,33.66,39.779,55.08c9.181,19.584,11.628,41.004,12.853,61.812c1.224,15.912,3.672,33.048,6.12,48.348
			c3.06,19.584,2.447,42.228-1.225,62.424c-1.836,10.404-5.508,20.196-7.344,29.988c-0.612,4.284-1.224,8.568-0.612,12.853
			c0.612,3.06-1.224,12.852,1.225,15.3c2.447,4.896,3.06,11.016,5.508,15.912c2.448,4.896,4.896,9.18,6.731,14.688
			c-7.344-5.508-14.075-4.284-22.644-0.612c-5.508-15.911-11.628-34.884-8.568-51.407c1.225-8.568,3.672-17.748,6.732-26.316
			c3.672-9.792,4.284-20.196,5.508-30.6c0.612-5.508,1.224-11.016,1.836-16.524c0-3.672,1.836-5.508,2.448-8.568
			c1.836-7.956,1.836-16.524,1.224-25.092c-0.611-9.18-1.836-17.748-2.447-26.928c-0.612-6.12-3.673-17.136-11.629-11.016
			c-0.611-4.284,0-9.18-1.836-12.852c-1.224-4.284-4.896-7.956-7.956-11.016c-8.567-9.18-20.808-14.076-31.823-18.972
			c-18.973-8.568-38.557-17.748-53.856-31.824c-7.956-7.344-15.3-15.912-18.36-26.316c-0.612-1.836,0-5.508-1.224-7.344
			c-2.448-5.508-4.896,1.836-5.508,4.284c-7.344,23.256-21.42,42.84-37.332,60.588c-8.568,9.18-16.524,20.808-21.42,33.048
			c-1.224,3.672-2.448,7.956-3.06,11.628c-0.612,1.836-1.836,6.12-1.224,7.344c2.448,3.06,3.672-3.672,3.672-4.896
			c1.224-4.284,3.06-8.568,4.284-12.852c-0.612,1.224,1.224-3.06,1.836-3.672c1.224-1.836,1.836-3.672,3.06-5.508
			c2.448-4.284,4.896-7.956,7.956-11.628c5.508-7.344,12.24-14.076,18.36-20.808c12.24-14.688,20.196-30.6,27.54-47.736
			c3.672,14.688,15.912,28.152,27.54,37.332c12.24,9.792,25.704,17.136,39.78,23.868c14.688,6.732,29.987,12.852,39.168,26.316
			c1.836,3.06,3.672,6.12,5.508,9.18c0.612,1.224,1.836,3.06,2.448,4.896c0.611,1.224-0.612,1.836,0.611,3.06
			c3.672,3.06,4.284-5.508,6.732-3.672c0,0,0,0-0.612-0.612c1.225,1.224,1.836,4.896,1.836,4.896c1.225,8.568,0,17.136,0.612,25.704
			s1.224,17.748,0,26.316c-0.612,3.672-1.836,6.12-2.448,9.18c-0.611,2.448,0,5.508,0,8.568c0,9.18-0.611,18.972-1.224,28.764
			c0-1.836-0.612,3.06-0.612,3.06c-0.611,1.836-0.611,3.672-1.224,5.509c-1.224,3.06-2.448,6.119-3.672,9.18
			c-3.061,6.731-6.732,12.852-10.404,18.972c-9.18,14.076-20.196,26.928-33.66,36.72c-27.54,20.809-61.812,3.061-85.068-14.688
			c1.836,1.224-3.06-2.448-3.672-3.061c-1.224-1.224-2.448-2.447-3.672-4.283c-3.06-3.672-5.508-7.345-7.956-11.017
			c-4.284-7.956-7.956-16.523-11.628-25.092c0.612,1.224,0-0.612,0-0.612c-1.224-2.447-2.448-4.896-3.06-7.955
			c0,0.611-1.224-6.732-0.612-3.673c-1.224-7.956-2.448-15.912-4.284-23.256c-1.836-7.956-4.896-15.912-6.732-24.48
			c-1.836-7.344-1.836-14.688-1.224-22.644c0.612-3.672,0.612-7.344,1.224-11.016c0-1.224,1.224-4.284,0-5.508
			c-1.224-1.224-3.06-0.612-3.06,1.224c0.612-1.836,0.612-4.284,0.612-6.12c0-0.612,0.612-6.12,0.612-3.672
			c0.612-3.06-1.224-8.568-4.284-4.284c-1.224,1.224-1.224,6.12-1.836,7.344c-1.224,3.06-1.836,5.508-2.448,8.568
			c-3.06,11.628-10.404,22.032-13.464,33.66s-2.448,23.868,0,34.884c3.06,12.24,5.508,24.48,6.12,37.332
			c0.612,12.853-0.612,25.704-2.448,37.944c-0.612,4.896-9.18,34.884-4.284,36.107c5.508,1.225,9.792-30.6,11.016-34.884
			c2.448-12.852,3.06-25.704,2.448-39.168s-3.06-26.316-6.12-39.78c-3.06-14.076-1.836-28.764,3.06-42.228
			c-0.612,12.852,0,28.152,4.284,40.392c1.836,5.508,4.896,9.792,9.792,13.464s4.896,11.016,7.344,16.524
			c4.896,11.016,11.016,22.032,16.524,33.048c3.06,6.732,6.12,15.3,8.568,21.42c-0.612-1.224,2.448,6.12,1.224,3.672
			c3.06,7.956,5.508,15.912,9.18,23.257c3.672,8.567,7.956,16.523,11.016,25.703c5.508,16.524,7.344,34.885,2.448,51.408
			c-2.448,7.956-6.732,15.3-12.24,22.032c-5.508,6.732-12.852,12.24-14.688,22.032c-1.224,7.956,1.224,17.136,1.836,25.092
			c1.224,9.18,0.612,18.36-2.448,26.928c-1.836,4.284-4.284,7.956-7.344,11.628c-0.612,1.225-3.06,4.284-4.284,4.896
			c-1.836,0.611-6.12-1.836-7.344-1.836c-10.404-3.061-20.808-6.732-30.6-11.017c3.06,1.225-0.612,0-1.836-0.611
			c-1.224-0.612-2.448-1.225-4.284-1.836c-3.06-1.225-6.12-3.061-9.18-4.284c-6.12-3.061-12.24-6.12-18.36-9.792
			c-5.508-3.061-11.016-6.732-16.524-10.404s-12.24-7.344-16.524-12.24c-2.448-2.447-1.224-6.12-1.224-9.792
			c0-3.06,0.612-6.731,1.836-9.792c1.224-5.508,4.284-10.403,7.344-15.3c6.732-9.18,14.688-16.523,18.36-27.54
			c0.612,1.836,2.448,3.672,2.448,5.508c0,3.061,3.672,8.568,4.284,11.628c1.224,3.673,0,17.748,4.896,17.137
			c6.12-0.612,3.06-15.912,2.448-19.584c-3.672-9.792-7.344-17.748-9.792-25.704c-4.896-15.3-5.508-31.212-4.896-47.124
			c1.224-17.136,7.344-31.824,13.464-47.736c5.508-14.688,11.016-28.151,12.24-44.676c1.224-17.136-1.224-33.66-0.612-50.796
			c0.612-16.524,5.508-32.436,10.404-48.348c2.448-7.344,4.284-14.688,6.12-22.644c1.836-8.568,1.224-16.524,1.224-25.092
			c-0.612-19.584,1.224-37.332,7.956-55.692c4.896-12.852,11.628-25.704,19.584-36.72c0,0,0,0.612-0.612,0.612
			c7.956-9.792,18.36-18.36,28.764-22.644C260.1,151.812,261.936,154.872,264.384,154.26L264.384,154.26z M135.864,172.62
			C137.088,172.008,135.864,172.62,135.864,172.62L135.864,172.62z M217.26,313.992c0-0.612,0-1.224,0.612-1.836
			c0,1.836-0.612,3.672-0.612,5.508c0,0-0.612,0-1.224,0C216.036,316.44,216.648,315.216,217.26,313.992L217.26,313.992z
			 M213.588,324.396c1.224-1.836,0.612-1.224,3.06-2.448c-1.224,11.016-1.836,21.42,1.224,32.436
			c2.448,10.404,6.12,20.808,7.956,31.212c0-1.224,0.612,2.448,0.612,3.672c-9.792-8.568-13.464-22.644-15.3-35.496
			C208.692,344.592,206.856,332.352,213.588,324.396L213.588,324.396z M218.484,390.492
			C219.096,391.104,219.096,391.104,218.484,390.492L218.484,390.492z M143.208,463.932c4.284-22.644,23.868-36.107,34.272-55.08
			c0,9.181-0.612,18.36-3.672,26.929c-3.06,8.567-6.12,16.523-9.792,24.479c-7.344,17.137-13.464,33.048-14.076,51.408
			c-0.612,9.18,0,17.748,1.836,26.316c0.612,4.283,2.448,8.567,3.06,12.852c0.612,3.061,0.612,2.448-1.836,4.284
			c-1.836,1.836-3.06,3.06-4.896,4.896c-13.464,12.24-29.988,21.42-44.676,33.66c1.224-13.464,8.568-23.868,15.912-34.884
			c7.344-11.016,12.852-22.644,15.912-35.496C140.76,503.712,140.148,483.516,143.208,463.932L143.208,463.932z M201.348,446.184
			L201.348,446.184L201.348,446.184z M320.688,483.516c11.629-0.611,20.196-3.672,29.377-10.403
			c9.18-6.732,17.748-14.076,25.092-23.256c0.611,8.567,5.508,17.748,7.956,25.703c1.224,4.896,3.672,8.568,5.508,12.853
			c1.836,3.06,4.896,7.344,4.896,11.016c0,5.509-2.447,11.628-3.06,17.137c-0.612,5.508-1.224,11.016-2.448,17.136
			c-1.836,11.016-4.284,22.032-4.896,33.048c-1.225,11.628-0.612,22.645-1.225,34.272c0,3.06,0,3.06-1.224,4.896
			c-1.224,1.224-2.448,1.836-3.672,3.061c-3.672,3.672-6.732,8.567-10.404,12.239c-8.568,9.181-20.196,15.912-29.988,23.868l0,0
			c0,0,0,0,0.612-0.612c-1.836,1.837-4.284,3.061-6.731,4.896c-5.509,4.284-10.404,7.956-16.524,11.628
			c-6.732,3.672-10.404,1.836-17.136-1.836c-5.508-3.06-9.792-7.344-14.076-12.24c-4.284-4.896-4.896-11.628-6.732-17.748
			c-1.836-6.731-3.672-12.852-4.896-19.584c-0.612-3.672-1.224-12.24-4.896-14.688c15.3-18.36,21.42-41.616,20.196-65.484
			c-0.612-12.24-3.672-23.868-8.568-34.884s-9.18-22.032-12.24-33.66C282.132,472.5,300.492,484.74,320.688,483.516L320.688,483.516
			z M163.404,462.096L163.404,462.096L163.404,462.096z M328.644,476.172C328.032,476.172,328.032,476.172,328.644,476.172
			L328.644,476.172z M531.216,575.316l-0.612-0.612C531.216,575.316,531.216,575.928,531.216,575.316L531.216,575.316z
			 M135.252,599.796C135.252,600.408,135.252,600.408,135.252,599.796L135.252,599.796z M132.192,611.424L132.192,611.424
			L132.192,611.424z M354.96,631.62C354.348,631.62,354.348,631.62,354.96,631.62L354.96,631.62z M260.712,646.308
			c0.612,0.612,0.612,1.225,0,1.837C260.712,647.532,260.712,646.92,260.712,646.308L260.712,646.308z M417.384,667.116h0.612
			C417.384,667.116,417.384,667.116,417.384,667.116L417.384,667.116z M394.74,675.072c0.611,0,0.611,0,1.224-0.612
			C394.74,675.684,394.128,675.684,394.74,675.072L394.74,675.072z M246.636,679.968c1.224,0,3.672,0.612,4.896,1.225
			C249.696,680.58,248.472,680.58,246.636,679.968L246.636,679.968z M350.676,684.864h-0.611
			C350.064,684.864,350.064,684.864,350.676,684.864L350.676,684.864z M272.952,684.864c0,0,3.06,0.611,3.672,0.611
			C275.4,685.476,273.564,684.864,272.952,684.864L272.952,684.864z"/>
		<path fill="#CC66FF" d="M221.544,375.804c-3.672,1.836-2.448,12.852-3.06,16.524c0,2.448-1.224,7.344,0.612,9.792
			c1.836,3.06,3.672,1.224,4.896-0.612c1.836-4.896,1.224-12.24,1.836-17.136C225.828,381.924,227.052,372.744,221.544,375.804
			L221.544,375.804z"/>
		<path fill="#CC66FF" d="M400.86,349.488c-4.896,1.224,1.224,18.972,4.896,17.748C410.04,366.624,405.756,348.264,400.86,349.488
			L400.86,349.488z"/>
		<path fill="#CC66FF" d="M219.708,396.612c-9.18,1.836-13.464,16.523-8.568,23.868c1.836,3.06,5.508,5.508,9.792,5.508
			c3.672,0,11.016-5.508,9.18-9.792c-1.836-4.896-4.896,1.836-7.344,1.224c-3.06-0.612-1.836-6.12-1.224-7.956
			c1.224-3.672,1.224-1.836,3.672-3.06c1.836-0.612,3.672-0.612,4.284-3.061C231.336,397.836,223.992,395.388,219.708,396.612
			L219.708,396.612z M222.156,405.18C222.768,405.792,222.768,405.792,222.156,405.18L222.156,405.18z M221.544,416.808
			L221.544,416.808L221.544,416.808z M221.544,416.808C222.156,417.42,222.156,417.42,221.544,416.808L221.544,416.808z
			 M223.38,417.42L223.38,417.42L223.38,417.42z"/>
		<path fill="#CC66FF" d="M217.26,422.928c-1.224,3.061-1.836,6.12-2.448,8.568c-0.612,3.06-1.836,2.448-3.672,4.896
			c-3.06,3.673-1.836,11.628,4.284,9.792c6.732-2.447,2.448-7.956,1.836-11.628c0-3.672,2.448-6.731,3.06-10.403
			C220.932,422.928,218.484,419.256,217.26,422.928L217.26,422.928z M213.588,435.168L213.588,435.168L213.588,435.168z
			 M214.2,438.228C214.2,438.228,213.588,438.228,214.2,438.228L214.2,438.228z M214.2,438.228c1.224,1.837,1.224,0,1.836,2.448
			c0,1.225-1.224,1.836-2.448,1.836c0.612,0-0.612,0-0.612-1.224l0,0l0,0C212.976,440.064,212.976,438.84,214.2,438.228
			L214.2,438.228z M214.812,438.84C215.424,438.84,215.424,438.84,214.812,438.84L214.812,438.84z M213.588,438.84L213.588,438.84
			L213.588,438.84z M215.424,438.84L215.424,438.84L215.424,438.84z M215.424,438.84L215.424,438.84L215.424,438.84z M213.588,441.9
			C213.588,442.512,213.588,441.9,213.588,441.9L213.588,441.9z M215.424,441.9C214.812,442.512,214.812,442.512,215.424,441.9
			L215.424,441.9z M213.588,441.9C213.588,441.9,213.588,442.512,213.588,441.9L213.588,441.9z M213.588,442.512L213.588,442.512
			L213.588,442.512z M213.588,442.512L213.588,442.512L213.588,442.512z"/>
		<path fill="#CC66FF" d="M221.544,420.48c0,4.896,0,9.791,0.612,14.688c0.612,3.672,1.224,8.568,0.612,11.628
			c-0.612,3.061-3.672,5.508-1.224,9.18c2.448,3.673,7.956,1.837,10.404-1.224c2.448-3.06,3.672-7.344,1.224-10.404
			c-1.224-1.224-2.448-1.836-4.284-2.447c-2.448-1.225-1.836,0.611-2.448-3.061c-0.612-4.896-0.612-9.792-1.224-14.688
			c0-1.225,0.612-4.284-1.224-4.896C223.38,418.032,221.544,418.644,221.544,420.48L221.544,420.48z M228.888,446.184
			c1.836,0.612,2.448,1.836,2.448,2.448c0,1.836-3.06,6.732-5.508,4.896c-2.448-1.836,1.224-3.672,1.224-4.284
			C227.664,447.408,227.052,446.184,228.888,446.184L228.888,446.184z M230.724,446.796L230.724,446.796L230.724,446.796z
			 M230.724,446.796L230.724,446.796L230.724,446.796z M231.336,449.856L231.336,449.856L231.336,449.856z M230.724,451.08
			L230.724,451.08L230.724,451.08z M225.216,452.916L225.216,452.916L225.216,452.916z M225.828,453.528L225.828,453.528
			L225.828,453.528z M227.664,453.528L227.664,453.528L227.664,453.528z M225.828,453.528
			C226.44,453.528,226.44,453.528,225.828,453.528L225.828,453.528z M225.828,453.528L225.828,453.528L225.828,453.528z
			 M227.664,453.528C227.052,453.528,227.052,453.528,227.664,453.528L227.664,453.528z M226.44,453.528L226.44,453.528
			L226.44,453.528z"/>
		<path fill="#CC66FF" d="M227.664,415.584c-3.672,1.224,4.284,15.912,5.508,18.36c0.612,1.224,1.224,1.836,1.224,3.06
			s-1.224,3.061-0.612,4.896c0.612,2.447,2.448,4.283,4.896,4.283c4.284,0,6.732-6.119,4.896-9.792
			c-0.612-1.224-1.836-2.447-3.06-2.447c-0.612,0-3.06,0.611-3.672,0c-1.836-0.612-3.672-7.956-4.284-9.181
			C232.56,423.54,230.724,414.972,227.664,415.584L227.664,415.584z M239.292,439.452
			C239.904,439.452,239.904,439.452,239.292,439.452L239.292,439.452z"/>
		<path fill="#CC66FF" d="M220.32,447.408c-7.956,12.852,15.912,17.136,15.912,3.06c0-3.672-1.836-9.18-4.896-10.403
			C226.44,439.452,222.156,444.348,220.32,447.408L220.32,447.408z M225.216,449.856
			C225.828,450.468,225.216,449.856,225.216,449.856L225.216,449.856z M225.828,451.08L225.828,451.08L225.828,451.08z"/>
		<path fill="#CC66FF" d="M211.14,435.78c-1.836,3.06-3.672,7.344-0.612,10.403c3.06,2.448,7.344,1.225,9.18-1.836
			C222.768,439.452,215.424,428.436,211.14,435.78L211.14,435.78z M217.872,442.512C217.26,442.512,217.26,442.512,217.872,442.512
			L217.872,442.512z"/>
		<path fill="#CC66FF" d="M225.216,403.344c0,2.448,3.06,3.672,3.672,0.612C229.5,401.508,225.216,400.284,225.216,403.344
			L225.216,403.344z"/>
		<path fill="#CC66FF" d="M223.992,402.12c-5.508,2.448-12.24,11.628-7.956,17.136c3.06,3.672,15.3,1.836,15.3-3.06
			c0-3.672-3.672-3.672-6.12-2.448c-1.224,0.612-3.06,3.672-3.672,3.672c-6.12,0,2.448-9.18,2.448-9.18h0.612
			C228.276,407.016,228.276,400.284,223.992,402.12L223.992,402.12z M220.932,417.42C221.544,417.42,221.544,417.42,220.932,417.42
			L220.932,417.42z M230.724,418.644C230.112,419.256,230.724,418.644,230.724,418.644L230.724,418.644z M225.828,408.24
			L225.828,408.24L225.828,408.24z"/>
		<path fill="#CC66FF" d="M402.084,355.608c-3.06,0.612,0.612,6.732,1.224,7.956c0,0.612,1.225,8.568,4.284,7.956
			c3.672-0.612-1.224-9.792-1.836-11.628C405.756,360.504,404.532,354.996,402.084,355.608L402.084,355.608z"/>
		<path fill="#CC66FF" d="M401.472,357.444c-3.06,0.612,1.225,10.404,3.061,12.24c0.611,1.224,1.836,3.06,3.672,1.224
			c1.224-1.836-1.836-7.344-2.448-8.568C405.144,362.34,403.92,356.832,401.472,357.444L401.472,357.444z"/>
		<path fill="#CC66FF" d="M403.92,367.848c-4.284,4.284,3.672,8.568,3.061,14.076c0,1.836-7.956,11.016-1.225,7.956
			c4.896-1.836,7.344-10.404,6.732-14.688C411.876,372.744,407.592,364.788,403.92,367.848L403.92,367.848z"/>
		<path fill="#CC66FF" d="M405.144,386.208c-6.119,1.836,3.061,15.3,3.673,18.36c0,3.06-1.837,4.283,1.224,7.344
			c1.836,1.836,5.508,1.836,7.344,0s1.836-4.284,1.224-6.732c-1.224-3.06-3.06-1.224-5.508-3.06
			C410.04,399.672,411.264,384.372,405.144,386.208L405.144,386.208z"/>
		<path fill="#CC66FF" d="M407.592,386.208c-1.224,2.448,3.061,3.06,4.284,4.896s0.612,4.284,2.448,6.12
			c2.447,3.061,7.956,1.836,10.403-0.611c3.673-4.284-0.611-9.792-5.508-9.792c-3.06,0-3.06,1.836-6.12,1.224
			C411.264,387.432,408.816,383.76,407.592,386.208L407.592,386.208z M416.16,394.164C416.16,394.776,416.16,394.776,416.16,394.164
			L416.16,394.164z"/>
		<path fill="#CC66FF" d="M402.084,392.328c0,6.731-0.612,13.464-0.612,20.196c0,2.447,1.225,11.016,4.284,5.508
			c2.448-4.284,0.612-12.24,1.224-17.136c0-1.837,1.225-7.957-0.611-9.181C405.144,389.268,402.084,389.88,402.084,392.328
			L402.084,392.328z"/>
		<path fill="#CC66FF" d="M397.188,416.196c-5.508,7.344,6.12,15.3,11.629,8.567C414.324,417.42,402.084,408.24,397.188,416.196
			L397.188,416.196z"/>
		<path fill="#232323" d="M220.932,355.608c-2.448,0.612,1.836,10.404,2.448,12.24c0.612,4.896,1.224,9.792,1.836,14.688
			c0-1.836,0,2.448,0.612,2.448c0,1.836,0.612,3.672,0.612,5.508c0.612,1.836,0.612,7.344,2.448,9.18
			c6.12,4.284,3.06-11.016,3.06-12.852C230.724,383.148,224.604,354.384,220.932,355.608L220.932,355.608z"/>
		<path fill="#232323" d="M222.768,360.504c-2.448,0.612,1.224,15.912,4.284,14.076C229.5,373.356,225.828,359.28,222.768,360.504
			L222.768,360.504z"/>
		<path fill="#232323" d="M227.664,394.164c0,1.836,0,7.956,1.224,9.18c3.06,3.061,1.836-3.672,1.836-4.896
			c0,0.611,0-4.284-0.612-4.896C230.112,392.94,227.664,391.104,227.664,394.164L227.664,394.164z"/>
		<path fill="#232323" d="M225.828,394.776c0,3.672,0,9.18,1.836,12.24c1.836,3.061,4.284,1.836,4.896-1.224
			c0.612-2.448,0-7.956-1.224-10.404C230.724,391.716,225.828,390.492,225.828,394.776L225.828,394.776z"/>
		<path fill="#232323" d="M226.44,395.388c0.612,3.671,0.612,7.956,2.448,11.627c1.224,2.448,3.06,4.896,3.672,0.612
			c0.612-2.448-1.224-6.731-1.836-8.568c0-1.224,0-4.284-1.224-4.896C228.276,392.94,225.828,393.552,226.44,395.388L226.44,395.388
			z M230.724,399.06C230.724,399.672,230.724,399.672,230.724,399.06L230.724,399.06z"/>
		<path fill="#232323" d="M227.052,392.328c0,2.448,0,6.12,0.612,8.568c0.612,2.447,2.448,3.672,3.06,0
			c0-1.837-0.612-4.896-0.612-6.732c0-0.612,0-2.448-0.612-3.06C228.276,390.492,227.052,391.104,227.052,392.328L227.052,392.328z"
			/>
		<path fill="#232323" d="M225.828,392.328c0,2.448,0,12.24,3.672,12.24c2.448,0,1.836-1.225,1.836-3.061
			c0-0.611-0.612-5.508-0.612-3.672c0-1.836,0-5.508-1.224-6.732C228.276,389.268,225.828,389.88,225.828,392.328L225.828,392.328z"
			/>
		<path fill="#232323" d="M225.216,391.716c0,7.956,1.836,16.524,4.896,23.868c1.224,3.06,3.06,4.896,4.896,7.956
			c1.224,1.836,4.896,7.344,4.284,1.224s-4.896-12.852-6.732-18.359c-1.224-3.061-2.448-6.732-3.06-9.792
			c0-1.224,0-4.284-0.612-5.508C227.664,390.492,225.216,389.268,225.216,391.716L225.216,391.716z"/>
		<path fill="#232323" d="M400.248,364.788c-2.448,0.612,0,7.344,0,9.18c0,1.224,0,9.18,3.06,4.896
			C404.532,377.028,403.308,363.564,400.248,364.788L400.248,364.788z"/>
		<path fill="#232323" d="M399.636,363.564c-1.836,1.836-0.611,6.12-0.611,8.568c0,1.224,0,2.448,0,4.284
			c0,0.612,0.611,5.508,0,3.672c0,1.224,0,5.508,1.224,6.12c2.448,1.224,3.06-2.448,3.06-3.672c0.612-3.672,0.612-7.344,0-11.016
			C404.532,370.296,404.532,358.668,399.636,363.564L399.636,363.564z M404.532,370.908
			C404.532,370.908,404.532,370.296,404.532,370.908L404.532,370.908z"/>
		<path fill="#232323" d="M400.248,375.804c0,9.18-1.224,17.136-3.061,26.316c-1.224,7.344-1.836,18.36-4.283,23.256
			c-1.225,2.448-4.896,9.18-4.284,11.628c1.224,4.896,3.672-0.612,4.896-2.448c3.061-7.344,7.345-13.464,8.568-21.42
			c1.224-7.344,1.836-15.912,1.836-23.868c0-3.06-0.612-5.508-0.612-8.568c0-1.224,0.612-4.284,0-5.508
			C402.084,374.58,400.248,373.356,400.248,375.804L400.248,375.804z M402.696,408.852
			C402.696,407.628,402.696,407.628,402.696,408.852L402.696,408.852z"/>
		<path fill="#232323" d="M399.024,354.384c-3.673,1.224,0,8.568,0.611,11.016c0.612,1.836,0.612,7.956,3.061,7.344
			C405.756,371.52,401.472,353.16,399.024,354.384L399.024,354.384z"/>
		<path fill="#232323" d="M397.8,355.608c-0.612,7.956,1.836,16.524,1.836,24.48c0,3.672,0,7.344,0,11.016
			c0.612,3.06,2.448,5.508,3.672,1.224c1.225-6.12-0.611-14.688-1.224-20.808c-0.612-3.672-1.224-7.344-1.224-11.016
			c0-0.612,0-4.896-0.612-5.508C399.024,353.16,397.8,353.772,397.8,355.608L397.8,355.608z"/>
		<path fill="#CC66FF" d="M217.26,407.628c0,3.672-0.612,9.792,1.836,12.853c2.448,3.672,7.344,1.836,8.568-1.837
			c0.612-3.06,0.612-11.628-1.224-14.075C223.38,401.508,216.648,402.732,217.26,407.628L217.26,407.628z"/>
		<path fill="#CC66FF" d="M220.932,398.448c-1.836,3.672,0.612,10.403,2.448,14.076c1.224,2.447,6.12,9.18,7.344,1.836
			c0.612-3.061-2.448-8.568-3.06-12.24C227.052,400.284,223.992,392.94,220.932,398.448L220.932,398.448z M227.664,403.956
			C227.664,404.568,227.664,403.956,227.664,403.956L227.664,403.956z M224.604,414.36
			C224.604,414.36,225.216,414.972,224.604,414.36L224.604,414.36z"/>
		<path fill="#232323" d="M225.828,394.164c-1.836,1.224,0.612,6.12,2.448,5.508C230.724,399.672,228.276,392.94,225.828,394.164
			L225.828,394.164z"/>
		<path fill="#232323" d="M225.828,393.552c-2.448,3.061,3.06,18.36,4.284,21.42c0.612,1.836,2.448,5.509,3.672,6.12
			c1.836,1.225,4.284,0.612,4.284-2.448c0-2.447-3.06-6.731-3.672-8.567s-1.836-3.672-2.448-6.12
			C231.336,402.732,228.276,391.104,225.828,393.552L225.828,393.552z"/>
		<path fill="#232323" d="M401.472,384.984c0,0-0.611,4.284,0,3.672c-0.611,3.672,1.836,4.284,3.061,0.612
			c0-1.224,0.611-4.284,0-4.896C403.308,383.148,401.472,383.148,401.472,384.984L401.472,384.984z"/>
		<path fill="#232323" d="M401.472,381.924c0,0-0.611,5.508,0,3.06c-1.224,6.732-1.836,12.852-3.06,18.972
			c-0.612,3.06-3.061,7.956-2.448,11.016c0.612,3.672,3.672,3.061,5.508,0.612s2.448-7.956,2.448-10.404
			c0.612-4.284,1.224-8.567,1.836-12.852c0.612-2.448,2.448-7.956,1.225-10.404C405.144,380.088,401.472,378.252,401.472,381.924
			L401.472,381.924z M400.248,392.328C400.248,392.94,400.248,392.94,400.248,392.328L400.248,392.328z M403.92,396.612
			C403.92,397.224,403.92,397.224,403.92,396.612L403.92,396.612z"/>
		<path fill="#232323" d="M399.636,354.384c-1.224,0.612,0,3.06,0,2.448c2.448,6.12,2.448,11.628,2.448,17.748
			c0,2.448-1.224,15.912,2.448,9.18C406.98,380.7,403.308,352.548,399.636,354.384L399.636,354.384z M403.308,371.52
			C403.308,372.132,403.308,372.132,403.308,371.52L403.308,371.52z"/>
		<path fill="#232323" d="M399.636,353.772c-3.672,0.612-1.224,8.568-0.611,10.404c3.672,6.732,0.611-7.344,0.611-7.956
			C402.696,358.056,402.084,353.16,399.636,353.772L399.636,353.772z M399.024,356.22L399.024,356.22L399.024,356.22z"/>
		<path fill="#232323" d="M400.248,354.384c-1.836,0.612,0,6.732,1.836,5.508C402.696,358.668,402.084,353.772,400.248,354.384
			L400.248,354.384z"/>
		<path fill="#FFFFFF" d="M289.476,149.364c-8.568,0-16.524,3.672-24.48,4.284c-3.06,0-4.896-0.612-7.956,0.612
			c-11.016,4.284-19.584,11.016-26.928,20.196c0,0,0-0.612,0.612-0.612c-13.464,18.36-22.032,39.78-25.092,63.036
			c-1.224,10.404-0.612,20.808-0.612,31.212c0,13.464-2.448,27.54-6.12,41.004c7.956-6.12,10.404-12.24,12.852-21.42
			c3.06-11.016,7.956-21.42,14.688-30.6c7.344-9.792,16.524-18.36,23.868-28.152c7.344-9.792,13.464-20.808,18.972-31.824
			c1.836-3.672,3.06-7.956,4.896-11.628c0.612-1.224,1.224-6.12,2.448-6.732c3.06-1.836,3.672,1.224,3.672,3.672
			c1.836,10.404,6.12,18.36,13.464,25.704c14.688,15.912,34.272,25.704,53.856,34.272c11.628,5.508,24.479,10.404,34.271,18.972
			c6.12,5.508,9.792,12.852,16.524,17.748c0,0,0,0-0.612,0c4.896,3.672,9.181,5.508,15.3,6.12
			c-0.611-17.136-3.06-34.884-8.567-51.408c-6.12-17.136-15.912-36.108-28.152-49.572c-11.016-12.852-26.315-25.092-43.452-29.376
			C318.852,151.812,303.552,149.364,289.476,149.364L289.476,149.364z"/>
		<path opacity="0.2" fill="#CC66FF" d="M307.836,119.376C220.32,120.6,137.088,161.604,83.844,231.372
			C33.048,298.692,14.688,386.82,33.66,469.44c10.404,44.676,31.824,86.292,62.424,120.563c1.836-4.284,1.836-9.792,4.284-14.076
			c1.224-3.06,2.448-5.508,4.284-7.956c4.896-7.344,12.24-13.464,16.524-21.42c7.344-12.852,11.628-26.315,12.24-41.004
			c0-10.404,0-20.196,1.836-30.6c1.836-12.853,7.344-26.929,14.076-37.332c6.12-9.181,17.136-17.136,20.196-28.152
			c1.224-5.508,4.284-11.016,6.12-15.912c3.06-7.956,0.612-17.136,0.612-25.704c0.612-13.464,3.672-27.54,7.344-41.004
			c3.06-12.24,6.732-23.256,7.956-35.496c1.224-11.628,2.448-23.868,3.06-35.496c1.836-29.988,5.508-61.2,26.928-83.844
			c9.18-9.792,16.524-18.972,29.376-23.256c7.956-3.06,17.136-4.896,25.704-6.732c13.464-3.06,26.928-1.224,41.004-0.612
			c12.24,0.612,23.868,2.448,34.884,7.956c30.601,14.688,47.736,42.84,60.588,73.439c12.853,30.6,9.181,63.036,12.853,94.86v-0.612
			c3.06,22.644,5.508,44.676,2.448,67.32c-1.836,11.628-4.284,22.644-7.345,34.271c-2.447,7.956-3.06,14.688-2.447,22.645
			c0.611,9.792,5.508,19.584,9.18,28.152c4.284,10.403,4.896,20.195,7.344,31.212c1.224,4.896,2.448,4.896,5.508,8.567
			c3.672,3.672,4.284,8.568,6.732,12.24c6.12,9.18,20.808,13.464,30.6,17.748c21.42,9.792,45.9,12.24,65.484,26.928
			c41.616-58.752,58.14-130.968,48.96-202.572v0.612c0-0.612,0-1.224,0-1.836c0,0,0,0,0,0.612
			c-15.912-114.444-107.1-210.528-220.32-236.844C351.288,121.824,329.868,119.376,307.836,119.376L307.836,119.376z"/>
	</g>
</g>
</svg>
