<?xml version="1.0" encoding="utf-8"?>
<!-- Generator: Adobe Illustrator 16.0.0, SVG Export Plug-In . SVG Version: 6.00 Build 0)  -->
<!DOCTYPE svg PUBLIC "-//W3C//DTD SVG 1.1//EN" "http://www.w3.org/Graphics/SVG/1.1/DTD/svg11.dtd">
<svg version="1.1" id="Layer_1" xmlns="http://www.w3.org/2000/svg" xmlns:xlink="http://www.w3.org/1999/xlink" x="0px" y="0px"
	 width="607.939px" height="610.188px" viewBox="4.061 93.035 607.939 610.188"
	 enable-background="new 4.061 93.035 607.939 610.188" xml:space="preserve">
<g id="Background">
</g>
<g id="Image_Layer">
</g>
<g id="Draw_Layer">
</g>
<g id="Draw_Layer_1_">
	<g>
		<path fill="#232323" d="M569.771,564.3C569.771,564.912,570.384,563.688,569.771,564.3L569.771,564.3z"/>
		<path fill="#232323" d="M577.729,577.764c0.611,0,0.611-0.611,0.611-1.224C578.34,577.152,578.34,577.152,577.729,577.764
			L577.729,577.764z"/>
		<path fill="#232323" d="M292.536,315.828c-6.12,0-13.464,1.836-18.972,4.896c-4.284,2.448-4.896,9.792,1.224,9.792
			c5.508,0.612,12.852-4.284,18.36-5.508c6.732-1.224,12.852,0.612,18.972,0.612s12.24-1.224,18.36-1.224
			c6.731-0.612,7.344-4.896,0-6.732c-6.12-1.224-12.24,0-18.36,0S299.268,315.828,292.536,315.828L292.536,315.828z
			 M308.448,317.052C309.06,317.664,309.06,317.664,308.448,317.052L308.448,317.052z"/>
		<path fill="#232323" d="M224.604,332.352c-7.956,2.448-7.956,17.136,1.224,17.748C236.232,350.1,236.232,328.68,224.604,332.352
			L224.604,332.352z"/>
		<path fill="#232323" d="M227.664,336.024c-4.896,0-18.36,1.836-20.808,7.956c-1.836,5.508,4.284,3.672,6.732,2.448
			c3.672-1.836,7.344-3.672,11.628-4.284c3.06-0.612,6.732-0.612,10.404-0.612c2.448,0,6.732,2.448,8.568,0.612
			C247.86,336.636,229.5,336.024,227.664,336.024L227.664,336.024z M241.128,342.756
			C241.128,343.368,241.128,343.368,241.128,342.756L241.128,342.756z"/>
		<path fill="#232323" d="M312.12,330.516c-8.568,0.612-17.748,0-23.868,6.732c-1.224,1.836-4.284,6.732,0.612,6.12
			c2.448-0.612,5.508-5.508,7.956-6.732c8.568-3.06,19.584-1.224,28.152-2.448c3.061-0.612,5.509-1.224,1.836-3.672
			C324.36,328.68,315.792,329.904,312.12,330.516L312.12,330.516z M301.104,336.024
			C300.492,336.024,300.492,336.024,301.104,336.024L301.104,336.024z M300.492,336.024L300.492,336.024L300.492,336.024z"/>
		<path fill="#232323" d="M308.448,327.456c-11.628,0.612-9.18,22.032,3.06,17.748C320.688,342.144,318.24,327.456,308.448,327.456
			L308.448,327.456z"/>
		<path fill="#232323" d="M223.992,333.576c-11.016,3.06-4.896,22.032,4.896,16.524C235.62,346.428,232.56,331.128,223.992,333.576
			L223.992,333.576z M226.44,342.144L226.44,342.144L226.44,342.144z"/>
		<path fill="#232323" d="M234.396,338.472c-1.224,0-4.896-0.612-6.12,1.224c-0.612,1.836,0.612,3.06,1.836,3.06
			c3.06,1.224,6.732-1.224,9.792,1.224c1.224,0.612,1.224,3.06,3.06,2.448c1.224-0.612,1.224-1.836,1.224-3.06
			C243.576,337.86,238.068,338.472,234.396,338.472L234.396,338.472z M239.292,342.756
			C239.904,342.756,239.904,342.756,239.292,342.756L239.292,342.756z M239.904,343.368L239.904,343.368L239.904,343.368z
			 M239.904,343.368L239.904,343.368L239.904,343.368z"/>
		<path fill="#232323" d="M243.576,339.084c-2.448,0.612,0,7.344,1.836,5.508C246.636,343.368,245.412,338.472,243.576,339.084
			L243.576,339.084z"/>
		<path fill="#232323" d="M241.128,343.368c0,4.284,6.732,4.284,6.732,0C247.86,339.084,241.128,339.084,241.128,343.368
			L241.128,343.368z"/>
		<path fill="#232323" d="M285.804,340.92c0,4.284,6.732,4.284,6.732,0S285.804,336.636,285.804,340.92L285.804,340.92z"/>
		<path fill="#232323" d="M258.876,336.024c0,10.404,0,20.196,0,30.6c0,5.508-0.612,10.404-0.612,15.912
			c0,1.836-2.448,14.076,2.448,9.792c2.448-2.448,1.836-11.628,2.448-14.688c0-5.508,0.612-11.016,0.612-16.524
			c0-5.508,0-11.016,0-16.524c0-1.836,0.612-6.732,0-8.568C261.936,334.8,258.264,332.964,258.876,336.024L258.876,336.024z"/>
		<path fill="#232323" d="M285.192,396c-6.732,0-14.076,1.836-20.196,3.672c-2.448,0.612-7.344,1.225-9.18,3.061
			c-2.448,3.06,0,5.508,3.06,5.508s6.732-1.836,9.792-2.448c3.672-0.612,6.732-1.836,10.404-2.448
			c2.448-0.611,7.956-0.611,9.18-3.06C288.252,398.448,287.028,396,285.192,396L285.192,396z"/>
		<path fill="#232323" d="M297.432,422.928c-6.12,0.612-11.628,1.836-17.748,3.672c-2.448,0.612-4.896,1.836-7.344,1.836
			c-1.836,0-3.672-1.836-6.12-2.447c-3.672-0.612-13.464,0-15.3,3.06c-1.224,1.224-1.224,3.061,0.612,4.896
			c1.836,1.836,4.896,0,6.732,0c2.448-0.612,4.896-1.225,7.344-0.612c2.448,0.612,4.284,2.448,6.732,2.448
			c6.12,0.611,12.852-2.448,18.36-3.672c3.672-0.612,14.688-0.612,16.523-4.284C310.284,422.316,300.492,422.928,297.432,422.928
			L297.432,422.928z M263.16,432.72C262.548,432.72,262.548,432.72,263.16,432.72L263.16,432.72z"/>
		<path fill="#232323" d="M296.82,437.004c-9.18,1.224-19.584,4.896-28.764,3.061h-0.612c-1.224,0-8.568-0.612-4.284,3.06
			c3.06,2.448,11.628,1.224,14.688,0.612c4.896-0.612,9.792-1.836,14.688-2.448c1.224,0,4.896,0,5.508-1.836
			C299.268,437.616,298.044,436.392,296.82,437.004L296.82,437.004z M280.296,439.452
			C279.684,439.452,279.684,439.452,280.296,439.452L280.296,439.452z M268.056,440.064
			C268.056,440.064,267.444,439.452,268.056,440.064L268.056,440.064z"/>
		<path fill="#232323" d="M307.224,329.904c-6.12,1.836-6.731,9.18-2.448,12.852c1.836,1.224,4.284,2.448,6.121,0.612
			c3.06-3.06-1.225-3.672-2.448-5.508c-1.225-3.06,1.224-1.224,3.06-1.224C317.628,335.412,310.896,329.292,307.224,329.904
			L307.224,329.904z M309.06,336.024L309.06,336.024L309.06,336.024z M308.448,336.024
			C308.448,336.024,307.836,336.024,308.448,336.024L308.448,336.024z M308.448,336.024L308.448,336.024L308.448,336.024z
			 M308.448,336.636C307.836,336.636,307.836,336.636,308.448,336.636L308.448,336.636z M307.836,336.636
			C307.836,337.248,307.836,337.248,307.836,336.636L307.836,336.636z"/>
		<path fill="#232323" d="M301.104,334.8c-3.06,0.612-7.956,1.224-10.404,3.06c-1.836,1.224-3.672,4.284,0,5.508
			c2.448,0.612,7.956-2.448,9.792-3.06c1.224-0.612,3.06-0.612,3.672-2.448C304.164,336.024,302.94,334.188,301.104,334.8
			L301.104,334.8z"/>
		<path fill="#232323" d="M315.18,418.644c-2.447,0.612-8.567,3.673-9.792,5.509c-0.612,0.611-1.224,1.836-0.612,3.06
			c1.224,1.836,2.448,0.612,3.672,0.612c3.06,0,4.896-1.225,7.344-3.672C316.404,422.928,319.464,416.808,315.18,418.644
			L315.18,418.644z"/>
		<path fill="#232323" d="M313.344,419.256c-1.836,1.225-6.731,2.448-7.956,4.896c-1.224,2.447,1.224,4.283,3.671,4.283
			c1.837,0,7.345-3.06,8.568-4.896C318.852,421.092,316.404,417.42,313.344,419.256L313.344,419.256z"/>
		<path fill="#232323" d="M311.508,424.764c-1.836,0.612-8.568,3.061-3.06,3.672c0.611,0,4.284-1.224,4.284-1.836
			C312.732,425.376,312.732,424.152,311.508,424.764L311.508,424.764z"/>
		<path fill="#232323" d="M248.472,427.212c-3.06,0.612-3.672,3.672-1.836,6.12c1.836,1.224,5.508,1.224,7.344,0.612
			c2.448-0.612,4.896-3.061,2.448-5.509C254.592,426.6,250.308,427.212,248.472,427.212L248.472,427.212z"/>
		<path fill="#232323" d="M288.864,93.672C160.344,102.24,48.348,194.04,14.688,317.664C-2.448,380.7,1.224,449.244,25.092,510.444
			c22.032,55.08,59.976,103.428,107.712,137.088c53.244,37.332,117.504,56.916,182.375,55.691
			c63.648-1.836,123.013-23.256,173.809-60.588c46.512-34.271,82.62-80.784,103.428-134.64
			c23.256-59.977,27.54-126.684,11.016-188.496c-32.436-121.788-140.76-212.976-265.607-224.604
			C321.912,93.06,305.388,92.448,288.864,93.672L288.864,93.672z M271.728,111.42c78.948-9.792,160.956,12.852,222.768,63.648
			c16.523,14.076,31.824,29.376,45.288,46.512c0,0,0-0.612-0.612-0.612c30.601,40.392,51.408,87.516,58.141,137.7v-0.612
			c7.955,59.976-1.837,121.788-30.601,176.868l0,0c-6.12-9.18-12.852-15.912-23.868-18.972c-9.18-2.448-18.359-4.896-27.54-7.956
			c-9.18-3.061-18.972-6.732-26.315-12.853c-8.568-7.344-16.524-16.523-23.868-25.092c-9.792-10.403-17.136-21.42-23.868-33.66
			c-3.06-5.508-5.508-4.896-11.016-4.896c-3.672,0-7.345-1.224-11.017-1.836c-4.284-0.612-9.18-1.225-13.464-1.836
			c-1.224,0-5.508,0-6.12-0.612c-1.224-0.612-1.836-3.06-3.06-4.284c-0.612-0.611-1.225-1.224-1.836-1.836
			c-0.612-0.611-3.061-0.611-3.061-1.224c-1.224-1.224-0.611-6.732-1.224-8.568c-0.612-3.672-0.612-6.731-1.224-10.403
			c-1.225-11.628-1.837-23.256-0.612-34.884c7.344,7.344,13.464,1.224,18.359-4.896c7.345-9.18,13.465-17.748,14.688-29.376
			c1.224-11.016,0-21.42-3.06-32.436c-0.612-3.06,0-3.672,0.611-6.12c0-1.836-0.611-4.284-1.224-6.12
			c-1.836-6.12-3.672-11.628-4.284-17.748c-1.224-9.792,0.612-19.584,1.224-29.988c0.612-12.852-3.06-22.644-11.628-32.436
			c-14.075-15.912-25.092-34.272-41.004-48.348c-9.792-8.568-18.972-15.912-31.824-17.748c-11.016-1.224-22.644,0.612-33.66,2.448
			c0,0,0,0,0.612,0c-0.612,0-0.612,0,0,0c-15.912,1.836-30.6-4.896-45.9,1.836c-7.344,3.672-14.076,9.18-20.196,14.688
			c-2.448,2.448-4.896,4.284-6.732,6.732c-1.836,1.836-3.672,3.06-4.896,4.896s-1.224,3.06-3.06,4.896
			c-12.24,12.24-29.988,19.584-40.392,33.66c-8.568,12.24-14.076,25.704-17.136,39.78c-3.672,16.524-3.06,36.108,3.06,52.02
			c3.672,9.18,10.404,16.524,16.524,23.868c1.224,1.836,3.06,3.672,4.284,5.508c1.836,2.448,5.508,5.508,6.732,7.344
			c1.224,3.06,0.612,9.18,1.224,12.852c0.612,4.896,1.836,9.792,3.672,14.688c1.836,7.344,4.896,14.688,7.344,22.032
			c6.12,17.136,12.852,32.437,23.868,46.512c5.508,7.345,9.792,14.688,15.3,22.032c3.06,4.284,14.688,12.853,11.016,17.748
			c-0.612,0.612-3.672,1.836-4.284,3.061c-1.224,1.224-3.06,3.06-4.284,4.283c-0.612,0.612-1.836,1.836-2.448,2.448
			c-1.836,1.836-2.448,4.284-3.672,6.732c-1.836,2.448-4.896,4.284-7.344,5.508c0.612-0.612,0,0,0,0
			c-4.284,4.284-13.464,3.06-19.584,3.06c-7.344,0-14.076,0-21.42,0.612c-8.568,0.612-12.852,3.06-18.972,9.18
			c-3.672,3.673-7.344,7.345-11.628,10.404c-2.448,1.836-6.12,2.448-8.568,4.284c-4.896,3.06-8.568,7.956-11.628,12.24
			c-4.284,6.731-8.568,13.464-11.628,20.808c-6.732,14.688-12.852,29.988-18.36,45.288C61.812,560.016,31.212,500.04,23.256,435.78
			c-8.568-64.872,5.508-131.58,39.168-187.272c18.36-30.6,42.84-57.528,70.992-79.56l-0.612,0.612
			c39.78-30.6,86.904-50.796,137.088-57.528h-0.612c1.224,0,0,0,0,0C270.504,111.42,271.116,111.42,271.728,111.42L271.728,111.42z
			 M187.272,327.456c-9.792-13.464-18.972-25.092-20.808-42.84c-1.836-16.524-0.612-32.436,4.896-48.348
			c3.06-8.568,7.344-17.136,12.852-24.48c4.284-4.896,9.18-8.568,14.688-12.852c4.284-3.672,8.568-7.344,12.852-10.404
			c3.672-3.06,11.016-6.732,12.852-10.404c0.612-1.224,0-1.836,0.612-3.06c0.612-0.612,2.448-2.448,3.06-2.448
			c1.836-1.836,4.284-3.672,6.12-5.508c12.24-10.404,23.868-18.36,41.004-15.912c5.508,0.612,11.016,1.836,16.524,1.836
			c10.404,0,20.196-2.448,30.601-1.836c17.747,0.612,29.987,14.076,40.392,26.928c6.732,7.956,11.628,16.524,17.748,25.092
			c5.508,7.956,14.688,13.464,19.584,21.42c4.896,7.956,3.672,18.972,3.06,28.152c-0.611,6.12-0.611,12.852-0.611,18.972
			c0,3.06,2.447,10.404,1.224,12.24c-0.612,1.224-4.284,1.836-5.508,3.06c-1.836,1.836-3.672,3.672-4.896,5.508
			c-1.836,3.06-1.836,7.344-3.672,10.404c-1.224,2.448-2.448,2.448-4.284,4.284c-2.447,1.836-3.672,4.284-4.283,6.732
			c-1.837,3.672-3.061,7.956-3.673,12.24l0,0c-3.672-9.18-8.567-17.136-13.464-25.092c-2.447-3.672-4.284-7.956-7.956-11.016
			c-5.508-4.896-11.628-3.06-18.359-1.836c-6.732,1.836-11.017,0.612-17.137-3.06c-3.06-1.224-9.18-6.12-11.016-1.224
			c-0.612,2.448,1.224,5.508,2.448,7.344c1.836,4.284,6.731,11.016,6.731,15.3c-17.748,1.836-35.496,3.06-52.02-5.508
			c-3.672-1.836-6.732-4.896-9.792-7.956c-1.836-1.836-6.732-9.18-7.956-3.672c-0.612,3.06,1.224,7.956,2.448,11.016
			c1.224,4.284,3.672,9.792,3.672,14.688c-7.956-1.836-9.18-9.18-12.24-15.3c-3.672-8.568-7.956-15.912-15.3-21.42
			c-5.508-4.284-11.628-7.344-16.524-12.24c-3.06-3.06-5.508-7.344-7.344-11.628c-1.224-3.06-1.224-8.568-3.06-11.016
			c-4.284-6.12-7.956,13.464-8.568,17.136c-1.836,8.568-3.672,17.748-3.672,26.316c0,14.076-0.612,28.152-0.612,41.616l0,0
			C188.496,329.292,187.884,328.068,187.272,327.456L187.272,327.456z M201.348,254.016c3.06,9.792,8.568,17.748,17.136,23.868
			c7.956,6.12,14.076,11.628,18.36,20.808c4.284,8.568,7.956,22.032,20.196,21.42c9.18-0.612-1.224-20.808-2.448-26.316
			c14.688,17.748,37.332,21.42,59.364,18.972c1.224,0,2.448-0.612,3.06-0.612c4.896-0.612,8.568-1.224,7.345-7.344
			c-0.612-3.672-3.061-11.016-5.509-13.464c5.509,3.06,11.017,4.896,17.137,3.672c5.508-0.612,11.628-4.896,16.523-0.612
			c4.284,3.672,6.732,11.628,9.181,16.524c2.447,5.508,5.508,10.404,7.956,15.912c-1.225-3.06,1.224,2.448,1.224,3.06
			c0.612,1.836,1.836,4.284,2.448,6.12c1.224,2.448,4.283,6.12,7.344,3.672c1.836-1.836,1.224-5.508,1.836-7.956
			c0-3.672,0.612-7.344,1.836-11.016c1.224-3.06,2.448-7.344,4.896-9.18c1.836-1.836,4.283-1.836,6.119-4.284
			c1.836-3.06,3.061-6.732,4.896-9.792c1.836-3.06,4.284-4.284,6.732-6.732c1.836,4.896,2.447,9.792,3.672,14.688
			c1.836,6.12,3.672,11.628,4.283,17.748c1.225,11.016,0.612,22.032-7.344,29.988c-2.448,3.06-7.956,12.852-12.852,11.628
			c-6.12-1.224-4.284-11.016-9.181-10.404c-5.508,0.612-4.283,14.076-4.283,17.748c-0.612,4.284-0.612,9.18-0.612,13.464
			c0,1.836,0,4.284,0,6.12c0,0.612-0.612,4.896,0,3.06c0,0-0.612,6.121-0.612,4.284c-1.224,9.792-3.672,18.973-9.18,27.54
			c-5.508,8.568-12.853,16.524-20.808,23.257c-7.345,6.119-16.524,10.403-25.704,14.688c-8.568,3.672-17.748,8.568-26.928,9.792
			s-20.196-0.612-29.376-2.448c-7.956-1.836-14.076-6.12-19.584-12.239c-6.732-8.568-12.24-18.36-18.36-26.929
			c-6.12-8.567-11.628-17.748-15.912-27.54c-9.792-22.644-18.36-47.736-18.36-72.216c3.672,7.344,19.584-5.508,25.092-5.508
			c3.06,0,6.12,1.224,8.568,3.06c1.836,1.224,4.284,3.06,6.732,3.06c3.06,0,6.12-5.508,6.12-7.956c0-4.284-6.732-5.508-10.404-6.12
			c-4.284-0.612-7.956-2.448-12.24-2.448c-4.896,0-8.568,2.448-12.852,4.896c-3.06,1.836-9.792,4.284-11.628,7.344
			c0-7.956-1.224-16.524-0.612-24.48c0-3.672,0.612-7.956,0.612-11.628c0-2.448,0-4.284,0.612-6.732c0-0.612,0.612-6.12,0-3.672
			C196.452,272.376,198.9,263.196,201.348,254.016L201.348,254.016z M320.076,307.26L320.076,307.26L320.076,307.26z
			 M390.456,311.544L390.456,311.544L390.456,311.544z M295.596,480.456c9.18-0.612,17.748-4.284,26.316-7.956
			c9.18-4.284,18.359-7.344,26.315-13.464c14.076-9.792,28.152-25.704,33.049-42.84c0,1.836,0.611,4.284,1.224,6.12
			c0,1.224,1.836,4.283,1.836,5.508c0,2.448-4.284,7.344-5.508,9.18c-4.896,7.344-10.404,14.076-16.524,20.809
			c-12.239,12.852-25.092,25.703-39.168,36.72c-10.403,8.567-27.54,11.628-38.556,20.808c-4.284-6.731-11.016-12.24-15.3-17.748
			c-3.06-3.672-6.12-7.344-9.18-11.016c-2.448-3.672-1.836-7.344-1.836-11.628C268.668,479.844,283.968,481.68,295.596,480.456
			L295.596,480.456z M326.196,566.136c-6.12-14.688-19.584-27.54-31.824-38.556c-1.224-1.224-3.06-2.448-4.284-3.672
			c-1.836-3.061-1.836-1.225-0.612-3.672c1.836-2.448,6.732-4.284,9.792-5.509c7.344-3.06,14.688-6.119,21.419-10.403
			c14.076-9.181,26.316-21.42,37.944-33.048c12.24-12.24,23.256-25.093,31.824-40.393c3.06,6.12,7.956,12.24,12.852,17.748
			c1.225,1.225,6.732,6.732,6.732,7.956c-0.612,1.225-4.896,4.284-6.12,5.508c-4.284,4.284-6.732,10.404-9.792,15.912
			c-3.672,5.508-4.896,12.24-9.18,17.748c-8.568,12.853-18.36,24.48-28.152,36.72c-9.18,12.24-18.972,25.093-29.988,35.496
			C326.196,567.36,326.196,566.748,326.196,566.136L326.196,566.136z M366.588,431.496
			C365.976,432.108,365.976,432.108,366.588,431.496L366.588,431.496z M402.696,433.332c6.731,1.224,17.136,2.448,22.031,3.06
			c3.061,0.612-0.611,4.284-1.224,5.509c-1.836,3.06-4.896,6.119-7.344,9.18c-1.225-1.836-2.448-3.672-3.672-5.508
			c-0.612-0.612-4.284-6.12-2.448-3.672C406.98,439.452,405.144,436.392,402.696,433.332L402.696,433.332z M254.592,464.544
			C254.592,465.156,254.592,465.156,254.592,464.544L254.592,464.544z M272.34,685.476c-4.896-0.611-9.792-1.224-14.688-2.447
			c-2.448-0.612-10.404-1.225-12.24-3.061s-1.224-10.403-1.836-13.464c-0.612-4.896-1.224-9.18-1.224-14.076
			c-1.224-18.359-1.224-37.332-1.224-56.304c0-19.584,0.612-39.78,0.612-59.364c0-9.18,0-18.972,0-28.151
			c0-4.284,0-8.568,0.612-12.853c0.612-5.508,3.06-7.344,7.344-10.403c-1.836,17.747-3.672,37.943-1.224,54.468
			c1.224,11.628,4.896,23.868,7.956,35.496c2.448,9.792,2.448,20.195,2.448,30.6s1.224,20.809,3.672,30.6
			c0.612,2.448,2.448,7.345,5.508,6.732c3.672-0.612,7.344-8.568,9.792-11.016c6.732-8.568,14.688-15.912,22.032-23.868
			s15.912-14.688,23.868-22.645c3.06-3.06,5.508-6.12,7.956-9.792c1.224-1.224,2.448-3.06,3.06-4.283c0,0,0.612-1.225,0,0
			c5.508-7.345,12.24-13.465,17.748-20.809c-15.912,24.48-25.704,50.796-36.72,77.112c-5.508,13.464-9.792,26.928-13.464,41.004
			c-0.612,3.06-1.224,6.12-1.836,9.792c-0.612,1.836-1.224,7.956-2.448,9.18c-1.224,1.225-10.404-0.611-12.24-0.611
			C280.296,686.7,276.012,686.088,272.34,685.476L272.34,685.476z M243.576,491.472L243.576,491.472L243.576,491.472z
			 M253.368,525.132c-0.612-11.016,1.224-22.644,1.224-33.66c3.06,4.284,6.732,8.568,10.404,12.853
			c4.284,4.896,9.792,8.567,13.464,12.852c-7.344,0-14.688,3.061-18.36,9.792c-3.672,6.732-3.06,16.524-3.672,23.868
			c-0.612-4.284-1.224-8.568-1.836-12.852c0.612,2.447-0.612-4.284-0.612-4.896C253.368,531.252,253.368,528.192,253.368,525.132
			L253.368,525.132z M184.212,509.832L184.212,509.832L184.212,509.832z M277.848,517.788
			C278.46,517.788,278.46,517.788,277.848,517.788L277.848,517.788z M288.252,520.236
			C288.252,520.848,288.252,520.848,288.252,520.236L288.252,520.236z M274.176,575.928c-1.224-9.18-4.284-17.748-5.508-26.315
			c-0.612-3.061,0.612-18.973-3.06-18.973c2.448-3.06,5.508-5.508,9.792-5.508c1.224,0,2.448,0,3.06,0
			c3.06-0.612,2.448-0.612,4.284,1.224c8.568,7.956,16.524,16.524,23.868,25.704c1.836,2.448,3.672,3.061,2.447,6.12
			c-1.224,4.284-5.508,11.628-9.18,13.464C296.82,572.256,274.788,578.376,274.176,575.928L274.176,575.928z M546.516,525.132
			L546.516,525.132L546.516,525.132z M151.164,533.088L151.164,533.088L151.164,533.088z M247.86,541.656
			C247.86,542.268,247.86,542.268,247.86,541.656L247.86,541.656z M261.324,581.436c3.672-1.224,1.836-9.792,1.836-12.852
			c0-6.12,0-12.24,0-18.36c1.224,7.956,3.06,15.301,4.284,23.257c1.224,7.344-1.836,12.852-4.284,19.584
			C263.16,588.78,261.936,585.108,261.324,581.436L261.324,581.436z M351.288,550.836L351.288,550.836L351.288,550.836z
			 M306,590.616c0-4.896-1.224-11.017,0-15.912c1.224-4.896,4.896-9.792,7.344-14.076c3.061,4.284,4.896,12.24,9.792,15.3
			c-4.896,6.732-11.016,11.628-17.136,17.137C306,591.84,306,591.228,306,590.616L306,590.616z M274.176,583.884
			c1.836-0.612,23.868-6.12,24.48-5.508c0.612,0.612-1.224,9.792-1.224,11.628c0,2.448,0.612,5.508,0,7.956
			c-0.612,3.06-1.224,3.672-3.06,5.508c-9.18,9.792-17.748,19.584-26.928,29.988l0,0l0,0c0.612-5.508,0-10.404,0-15.912
			c0-6.12,1.224-12.24,2.448-18.36C270.504,598.572,273.564,583.884,274.176,583.884L274.176,583.884z M500.004,618.768
			c-0.612,0.612-1.224,0.612-1.836,1.225C499.392,619.992,500.004,619.38,500.004,618.768L500.004,618.768z M498.168,620.604
			c-3.672,3.061-7.344,6.732-11.016,9.181C490.824,626.724,494.496,623.664,498.168,620.604L498.168,620.604z M320.688,637.74
			c0.612-0.612,0,0-0.611,1.836C320.688,637.74,320.688,637.128,320.688,637.74L320.688,637.74L320.688,637.74z M425.952,665.28
			c1.836-0.612,3.672-1.225,4.896-2.448C429.624,663.444,425.952,665.28,425.952,665.28L425.952,665.28z M425.34,665.28
			L425.34,665.28L425.34,665.28z M424.728,665.28L424.728,665.28L424.728,665.28z M422.28,667.729
			C422.28,667.729,421.668,667.729,422.28,667.729L422.28,667.729z M235.008,677.52C235.008,678.744,235.008,677.52,235.008,677.52
			L235.008,677.52z M305.388,687.924C306.612,687.924,305.388,687.924,305.388,687.924L305.388,687.924z"/>
		<path fill="#0A874F" d="M298.656,578.376c-6.732,1.836-13.464,3.672-20.808,4.896c-3.06,0.611-3.06,0-4.284,2.447
			c-0.612,1.225-0.612,3.061-1.224,4.896c-1.836,7.344-3.06,14.688-4.284,21.42c-0.612,7.344,0.612,14.076-0.612,21.42l0,0
			c6.12-6.12,11.016-12.852,16.524-18.972c2.448-3.061,5.508-5.508,7.956-8.568c1.224-1.224,3.06-3.06,4.284-4.284
			c1.836-2.448,1.224-2.448,1.224-5.508c0-3.672,0-7.956,0-11.628C298.656,582.66,298.044,578.988,298.656,578.376L298.656,578.376z
			"/>
		<path fill="#0A874F" d="M279.072,524.52c-4.896,0.612-9.792,1.225-12.852,6.12c4.284,1.225,3.06,15.301,3.06,18.973
			c0.612,6.731,3.06,12.852,4.284,19.584c0,1.224,0.612,7.344,1.224,7.956c0.612,0.611,2.448,0,3.672-0.612
			c6.732-0.612,14.076-2.448,20.808-4.284c3.06-1.224,3.672-2.448,6.12-5.508c1.224-2.448,4.896-6.732,4.896-9.792
			c0-2.448-1.836-4.284-3.672-6.12c-4.896-6.12-9.792-12.24-15.912-17.748c-1.836-1.836-3.672-3.06-4.896-4.284
			C282.132,525.744,283.356,523.908,279.072,524.52L279.072,524.52z"/>
		<path fill="#FFFFFF" d="M262.548,150.588c-7.344,1.224-14.076,4.896-19.584,9.18c-6.12,4.896-13.464,10.404-17.748,15.912
			c0,0-0.612,1.836-0.612,2.448c-0.612,0.612-3.06,2.448-3.672,3.06c-2.448,1.836-4.284,3.672-6.732,5.508
			c-1.836,1.836-4.284,3.06-6.12,4.896c-4.284,3.672-9.18,7.344-13.464,11.016c-24.48,19.584-31.824,52.02-28.152,82.008
			c1.224,9.792,3.672,18.972,9.18,26.928c4.284,6.732,9.18,12.24,13.464,18.36c1.224-13.464,0.612-28.152,0.612-41.616
			c0-9.18,1.836-17.748,3.672-26.316c0.612-3.06,4.284-23.256,8.568-17.136c1.224,2.448,1.224,7.344,2.448,9.792
			c1.836,4.896,4.284,9.18,7.344,12.852c4.896,4.896,11.016,7.956,16.524,12.24c7.344,5.508,11.628,12.852,15.3,21.42
			c2.448,6.12,4.284,14.076,12.24,15.3c-0.612-5.508-3.06-11.016-4.284-16.524c-0.612-1.836-3.06-8.568-1.224-10.404
			c2.448-3.672,6.732,3.672,8.568,5.508c3.06,3.06,6.12,5.508,9.792,7.344c15.912,8.568,34.272,7.344,51.408,5.508
			c-1.225-6.12-4.896-12.24-7.344-17.748c-1.225-2.448-3.061-6.12,0.611-7.344c3.061-1.224,9.181,3.672,11.628,4.896
			c6.12,3.06,10.404,2.448,16.524,0.612c12.24-3.06,18.36,3.672,23.868,13.464c4.896,8.568,9.792,16.524,13.464,25.092
			c0.612-4.284,1.836-8.568,3.672-12.24c1.224-2.448,1.836-4.896,3.672-6.12c1.836-1.836,3.672-1.836,4.896-3.672
			c1.836-3.06,1.836-6.732,3.06-9.792c1.836-4.896,5.508-6.732,9.792-9.792c2.448-1.836,1.836-1.224,1.224-4.284
			c-0.611-3.06-0.611-5.508-1.224-8.568c-0.612-6.12,0-11.628,0-17.748c0.612-9.18,1.836-19.584-2.448-27.54
			c-1.836-4.284-5.508-7.344-9.18-10.404c-4.284-3.672-7.956-7.956-11.016-12.852c-6.12-8.568-11.628-17.748-18.36-25.704
			c-6.12-6.732-12.852-14.688-20.196-19.584c-7.344-5.508-15.912-6.732-25.092-6.732c-11.016,0-21.42,2.448-32.436,1.224
			C277.848,151.2,270.504,149.976,262.548,150.588L262.548,150.588z"/>
		<path opacity="0.2" fill="#0A874F" d="M271.728,111.42c-0.612,0-1.224,0-1.836,0c0.612,0,0.612,0,1.224,0
			c-50.796,7.344-97.92,26.928-138.312,58.14c0.612-0.612,1.224-0.612,1.836-1.224C84.456,206.28,47.736,260.748,31.212,321.948
			c-17.748,64.26-12.24,135.252,15.3,195.84c14.688,32.436,35.496,62.424,61.2,87.516c7.344-18.972,14.076-39.779,24.48-57.527
			c5.508-9.792,11.016-18.36,22.032-22.645c9.792-4.284,14.076-14.688,22.644-19.584c7.956-4.284,20.196-3.06,28.764-3.06
			c11.016,0,21.42,1.224,29.376-7.344c1.836-2.448,2.448-4.896,4.896-7.345c1.224-1.224,2.448-2.447,3.672-3.672
			c2.448-1.836,4.284-4.284,6.732-6.12h1.836c0,0,0-3.06,0-3.672c-1.224-4.284-7.956-9.792-11.016-14.076
			c-6.12-9.18-12.852-18.359-18.972-27.54c-7.956-10.403-12.852-22.031-17.748-34.271c-3.672-9.792-7.344-19.584-9.792-29.988
			c-1.836-5.508-3.06-11.628-3.672-17.748c-0.612-2.448,0-5.508-0.612-7.956c-1.224-3.672,0-0.612-1.836-2.448
			c-1.224-1.224-2.448-2.448-3.672-3.672c-6.12-7.956-13.464-15.3-18.972-24.48c-6.12-11.016-8.568-24.48-8.568-37.332
			c0-20.808,5.508-41.616,17.136-59.364c7.344-11.016,18.36-17.136,28.152-25.092c2.448-1.836,4.896-3.672,7.344-5.508
			c1.224-1.224,3.06-2.448,4.284-3.672c0.612-0.612,1.224-1.224,1.836-1.224c1.836-0.612,1.836-1.224,1.836-3.06
			c3.06-4.284,7.344-7.956,11.016-11.016c9.792-9.18,19.584-18.36,33.66-20.196c11.628-1.836,23.256,3.06,34.884,1.224
			c-0.612,0-0.612,0-1.224,0c21.42-3.06,41.004-6.12,58.752,8.568c8.568,7.344,17.136,15.3,23.868,23.868
			c6.731,7.956,11.628,17.136,18.359,24.48c6.732,7.956,14.076,14.688,16.524,25.092c2.448,10.404,0,21.42-0.612,32.437
			c-0.611,10.404,1.836,18.972,4.284,28.764c1.224,3.06,0.612,4.896,0.612,7.956c0,1.836,0.611,4.284,1.224,6.732
			c1.225,4.896,2.448,9.792,2.448,15.3c0.612,14.688-1.836,26.928-11.016,38.556c-6.12,7.344-12.24,18.36-22.645,9.792
			c-1.836,4.284-0.612,11.016-0.612,15.3c0,4.896,0,9.18,0.612,14.076c0.612,6.12,1.224,11.628,1.836,17.748
			c0,1.225,0,5.508,0.612,6.12s2.448,0.612,3.672,1.224c1.836,1.225,2.448,4.896,4.284,5.509c0.611,0.611,4.896,0,6.12,0.611
			c3.06,0.612,5.508,1.225,8.567,1.225c3.061,0.611,6.12,0.611,9.792,1.224c2.448,0.612,4.284,1.224,6.732,1.224
			s4.896-1.224,7.344,0c2.448,1.225,3.672,4.284,4.284,6.12c1.836,3.672,4.284,7.956,6.731,11.628
			c3.673,5.509,7.345,10.404,11.628,15.301c13.465,15.911,27.54,33.048,47.124,40.392c9.792,3.672,20.196,6.732,30.601,9.792
			c12.852,3.06,20.808,9.18,28.152,20.196c28.764-53.856,38.556-116.28,30.6-176.256c0,0.612,0,1.224,0,1.836
			c-5.508-52.02-26.316-100.368-57.528-140.76c0,0.612,0.612,0.612,0.612,1.224C491.436,160.38,419.22,118.764,340.884,110.808
			C317.628,108.36,294.372,108.36,271.728,111.42L271.728,111.42z M229.5,499.428C228.888,499.428,230.112,498.816,229.5,499.428
			L229.5,499.428z"/>
	</g>
</g>
</svg>
