<?xml version="1.0" encoding="utf-8"?>
<!-- Generator: Adobe Illustrator 16.0.0, SVG Export Plug-In . SVG Version: 6.00 Build 0)  -->
<!DOCTYPE svg PUBLIC "-//W3C//DTD SVG 1.1//EN" "http://www.w3.org/Graphics/SVG/1.1/DTD/svg11.dtd">
<svg version="1.1" id="Layer_1" xmlns="http://www.w3.org/2000/svg" xmlns:xlink="http://www.w3.org/1999/xlink" x="0px" y="0px"
	 width="597.381px" height="596.088px" viewBox="12.411 93.06 597.381 596.088"
	 enable-background="new 12.411 93.06 597.381 596.088" xml:space="preserve">
<g id="Background">
</g>
<g id="Image_Layer">
</g>
<g id="Draw_Layer">
</g>
<g id="Draw_Layer_1_">
	<g>
		<path fill="#232323" d="M315.792,225.864c-12.852,4.284-23.868,11.628-32.436,23.256c-9.18,12.24-11.628,26.316-14.076,41.004
			c-4.284,22.032-5.508,45.9-18.36,64.872c-4.284,6.12-9.18,11.628-14.076,17.136c-3.672,4.896-7.956,10.404-12.852,14.076
			c-5.508,4.284-12.24,5.508-18.36,7.956c-2.448,1.224-5.508,3.672-2.448,6.12c1.836,2.448,6.732,0.612,9.18,0
			c14.076-3.061,22.644-12.24,31.212-23.256c9.18-12.24,18.36-24.48,23.256-39.168c7.956-23.868,7.344-56.916,15.912-77.724
			c0.612-1.836,4.896-9.792,7.956-13.464c-1.224,1.224,2.448-2.448,2.448-2.448c1.224-1.224,2.448-2.448,3.672-3.672
			c2.448-2.448,5.508-4.896,8.568-6.732c3.06-1.836,6.12-2.448,9.18-4.284c0.611-0.612,4.283-0.612,3.06-3.06
			C317.628,226.476,316.404,225.252,315.792,225.864L315.792,225.864z"/>
		<path fill="#232323" d="M351.9,211.788c-11.017,0.612-21.42,4.896-30.601,10.404c-2.448,1.836-4.896,3.06-7.344,4.896
			c-1.836,1.224-7.344,2.448-7.956,4.284c-1.836,5.508,12.24-1.836,14.076-3.06c12.24-6.12,25.092-11.628,39.168-11.016
			c6.731,0,13.464,0.612,20.196,2.448c5.508,1.224,13.464,3.672,17.136,7.344c4.284,4.284,9.18,7.956,12.852,13.464
			c4.896,7.956,6.732,20.196,7.956,28.152c1.225,13.464-1.224,26.316-1.224,39.78c0,6.12,1.836,12.852,1.224,18.972
			c-0.611,6.12-2.448,11.628-3.06,17.748c-1.225,11.016-6.12,20.196-10.404,30.6c-2.448,5.508-3.672,11.628-5.508,17.136
			c-0.612,3.06-1.836,6.732-2.448,10.404c-0.612,1.836-1.224,3.672-1.224,4.896c0,0.611-1.836,4.896-0.612,1.836
			c-8.568,19.584-25.092,36.107-43.452,45.899c-7.956,4.284-17.748,7.345-26.928,7.956c-11.628,1.225-20.808-1.224-30.6-7.956
			c-15.3-10.403-28.152-24.479-35.496-41.004c-3.06-7.344-5.508-15.912-9.18-23.868c-1.224-2.448-3.672-12.852-7.344-12.852
			c-4.896,0,1.836,11.016,1.836,11.016c5.508,13.464,9.18,28.152,16.524,40.392c7.956,14.076,18.972,24.479,31.824,33.66
			c13.464,9.18,28.152,12.852,44.064,8.567c14.688-4.284,29.376-13.464,41.004-23.256c11.628-10.404,20.809-23.256,26.316-37.944
			c2.448-6.731,3.672-14.075,5.508-21.419c1.836-9.18,4.896-17.748,7.956-26.316c2.448-7.344,2.448-15.3,3.672-22.644
			c1.836-9.792,1.224-17.136,0-26.928c-1.836-16.524,3.061-33.048,0-49.572c-3.06-17.136-8.568-31.824-23.868-41.616
			C382.5,213.624,366.588,211.176,351.9,211.788L351.9,211.788z M395.964,227.088L395.964,227.088L395.964,227.088z
			 M415.548,328.068C415.548,328.68,415.548,328.68,415.548,328.068L415.548,328.068z M256.428,413.748L256.428,413.748
			L256.428,413.748z M383.112,426.6l-0.612,0.612C383.112,427.212,383.112,426.6,383.112,426.6L383.112,426.6z M325.584,462.708
			C324.36,462.708,324.36,462.708,325.584,462.708L325.584,462.708z"/>
		<path fill="#232323" d="M395.964,227.088L395.964,227.088L395.964,227.088z"/>
		<path fill="#232323" d="M395.964,227.088L395.964,227.088L395.964,227.088z"/>
		<path fill="#232323" d="M416.16,268.092L416.16,268.092L416.16,268.092z"/>
		<path fill="#232323" d="M416.16,268.092L416.16,268.092L416.16,268.092z"/>
		<path fill="#232323" d="M419.832,316.44L419.832,316.44L419.832,316.44z"/>
		<path fill="#232323" d="M256.428,413.748C256.428,414.36,256.428,413.748,256.428,413.748L256.428,413.748z"/>
		<path fill="#232323" d="M253.98,419.256C253.368,418.644,253.368,418.644,253.98,419.256L253.98,419.256z"/>
		<path fill="#232323" d="M253.98,419.256L253.98,419.256L253.98,419.256z"/>
		<path fill="#232323" d="M253.98,419.256L253.98,419.256L253.98,419.256z"/>
		<path fill="#232323" d="M253.98,419.868C253.98,419.256,253.98,419.256,253.98,419.868L253.98,419.868z"/>
		<path fill="#232323" d="M253.98,420.48C253.98,419.868,253.98,419.868,253.98,420.48L253.98,420.48z"/>
		<path fill="#232323" d="M315.792,225.864c-6.12,4.284-13.464,7.344-19.584,11.628c-1.224,1.224-14.076,11.628-6.732,10.404
			c2.448-0.612,6.732-5.508,9.18-6.732c2.448-1.836,5.508-3.672,8.568-5.508c3.061-1.836,7.345-3.06,9.792-5.508
			c0.612-0.612,2.448-1.836,1.836-3.06C318.24,225.252,317.016,225.252,315.792,225.864L315.792,225.864z M293.148,244.224
			C293.148,244.836,293.148,244.836,293.148,244.224L293.148,244.224z"/>
		<path fill="#232323" d="M434.52,541.044c-6.119,17.136-11.628,36.108-9.18,54.468c0-11.016,0-22.031,3.061-32.436
			c3.06-11.017,7.344-21.42,9.792-32.437c-0.612,2.448,0,0,0-1.224C437.58,533.088,435.744,536.76,434.52,541.044L434.52,541.044z"
			/>
		<path fill="#232323" d="M391.68,412.524c-5.508,17.136-16.523,30.6-25.704,45.899c-8.567,14.076-11.628,31.212-11.016,47.736
			c0.612,17.136,7.344,32.436,9.18,48.96c1.836,17.136-6.12,31.824-10.403,47.736c-1.836,6.731-2.448,14.075-3.061,20.808
			c0,4.284-0.611,8.568-0.611,12.852c0,4.896,3.06,4.896,3.672,0c2.447-12.852,2.447-25.703,6.731-38.556
			c5.508-15.912,13.464-29.988,11.628-47.124c-1.224-16.523-7.956-31.824-8.567-47.736c-1.225-17.136,2.447-32.436,11.628-47.124
			c5.508-7.956,9.792-17.136,13.464-26.315c1.836-4.284,3.06-8.568,4.896-12.853c0.612-1.224,2.448-4.283,1.225-5.508
			C394.128,411.3,392.292,411.3,391.68,412.524L391.68,412.524z"/>
		<path fill="#232323" d="M242.964,390.492c-3.06,0.612,3.06,23.868,4.284,27.54c3.06,10.403,7.344,19.584,12.852,28.764
			c4.284,7.956,9.792,14.688,15.3,22.032c4.896,7.344,9.18,15.3,14.076,23.256c4.284,7.344,8.568,15.3,13.464,22.644
			c6.12,9.792,13.464,18.973,19.584,28.765c6.119,9.18,10.403,18.359,12.852,28.764c1.224,3.672,1.836,7.956,1.836,11.628
			c0,3.061,0.612,6.12,0.612,8.568c0,1.836-1.225,6.731,0,8.567c0,1.225,2.447,0.612,3.06,0c1.836-0.611,1.836-6.119,1.836-7.956
			c0.612-3.672,0.612-7.956,0.612-12.239c-0.612-10.404-2.448-21.42-7.344-30.601c-9.181-19.584-23.868-36.107-34.884-54.468
			c-5.508-8.568-11.016-17.748-16.524-26.316c-6.12-8.567-13.464-16.523-18.972-25.092c-5.508-8.567-10.404-17.136-14.076-26.928
			c-1.836-4.896-3.06-9.18-3.672-14.076C246.636,400.284,246.024,389.268,242.964,390.492L242.964,390.492z M331.092,559.404
			C331.092,560.016,331.092,560.016,331.092,559.404L331.092,559.404z"/>
		<path fill="#232323" d="M239.904,378.252c-3.06,0.612-1.224,4.284-0.612,5.508c0,0,1.224,0.612,1.224,1.224
			c0-0.612,0.612,4.896,0.612,4.284c0.612,3.672,1.224,6.732,2.448,10.404c0.612,1.836,0.612,7.344,3.06,6.732
			c3.06-0.612,1.224-8.568,0.612-10.404C246.024,393.552,243.576,377.028,239.904,378.252L239.904,378.252z"/>
		<path fill="#232323" d="M208.08,588.78c1.224,13.464-0.612,25.704-2.448,39.168c-0.612,6.12-1.224,12.239-1.836,18.359
			c0,2.448-1.224,11.628,1.224,12.853c0-12.24,3.672-23.868,4.896-35.496c1.224-12.24,0.612-25.092-1.836-37.332
			C208.08,586.944,208.08,588.168,208.08,588.78L208.08,588.78z"/>
		<path fill="#232323" d="M362.916,555.12c-4.896,2.448-9.792,4.896-15.3,4.284c-2.448,0-6.732-3.061-9.792-2.448
			c-3.672,0.612-2.448,3.06,0,4.284c4.896,2.447,12.852,3.672,18.359,2.447c2.448-0.611,5.509-1.836,7.345-3.672
			C364.752,558.18,366.588,553.284,362.916,555.12L362.916,555.12z M358.02,557.568C357.408,558.18,357.408,558.18,358.02,557.568
			L358.02,557.568z"/>
		<path fill="#232323" d="M361.692,550.224c-6.732,5.509-12.853,6.732-21.421,9.181c-7.344,1.836-6.119,8.567,1.225,9.18
			s13.464-3.672,18.36-8.568c1.836-1.836,7.344-4.283,7.344-7.344C367.2,549.612,363.528,548.388,361.692,550.224L361.692,550.224z
			 M359.856,551.448C359.244,552.06,359.244,552.06,359.856,551.448L359.856,551.448z M351.288,556.344
			C350.676,556.956,350.676,556.956,351.288,556.344L351.288,556.344z"/>
		<path fill="#232323" d="M333.54,558.18c-1.836,5.508,18.972,6.732,17.748,1.225c-0.612-3.061-6.732-1.225-8.568-1.836
			C340.884,557.568,334.152,554.508,333.54,558.18L333.54,558.18z M341.496,557.568
			C342.108,557.568,342.108,557.568,341.496,557.568L341.496,557.568z M342.108,557.568L342.108,557.568L342.108,557.568z"/>
		<path fill="#232323" d="M276.012,305.424c-7.956,2.448-7.956,19.584,2.448,17.136
			C287.028,320.112,285.804,301.752,276.012,305.424L276.012,305.424z"/>
		<path fill="#232323" d="M271.116,303.588c-5.508,3.06,7.956,6.732,9.18,7.956c3.06,1.836,10.404,10.404,13.464,8.568
			C301.104,317.052,278.46,299.916,271.116,303.588L271.116,303.588z M283.968,313.992
			C284.58,313.992,284.58,313.992,283.968,313.992L283.968,313.992z M284.58,313.992
			C285.192,314.604,285.192,314.604,284.58,313.992L284.58,313.992z"/>
		<path fill="#232323" d="M307.836,430.271C307.836,430.884,309.06,430.271,307.836,430.271L307.836,430.271z"/>
		<path fill="#232323" d="M368.424,276.048c-4.284,0.612-36.72,9.18-25.092,16.524c4.284,3.06,10.404-3.672,14.076-4.896
			c6.12-2.448,12.852-3.672,18.972-3.06c6.12,0.612,12.24,2.448,18.36,4.284c1.836,0.612,4.896,1.836,6.731,0.612
			c2.448-1.836,0.612-3.672-0.611-4.896c-3.673-3.06-9.792-4.284-14.076-5.508C381.276,276.66,375.156,275.436,368.424,276.048
			L368.424,276.048z"/>
		<path fill="#232323" d="M273.564,280.332c-1.836-0.612,1.224,4.896,1.836,5.508c1.836,1.836,4.896,2.448,7.344,3.672
			c3.672,1.836,12.852,7.344,15.912,2.448c3.672-6.12-6.12-8.568-10.404-9.792C284.58,279.72,276.624,275.436,273.564,280.332
			L273.564,280.332z"/>
		<path fill="#232323" d="M365.364,297.468c-6.12,0.612-17.748,5.508-20.196,11.628c-1.224,3.06,0,6.732,4.284,6.12
			c2.448-0.612,4.284-3.06,6.12-4.896c0.611,6.12,7.344,7.956,12.24,4.896c3.06-2.448,2.447-5.508,4.896-7.956
			c1.224-1.224,5.508,0,7.344,0c3.061,0.612,11.628,2.448,8.568-4.284C384.336,296.244,371.484,296.244,365.364,297.468
			L365.364,297.468z"/>
		<path fill="#232323" d="M309.672,319.5c0,6.732-1.224,13.464-1.836,20.196c0,1.836-1.836,16.524,2.448,11.628
			c1.224-1.224,1.224-6.12,1.224-7.956c0.612-3.672,0.612-7.344,1.225-10.404c0-3.672,0.611-6.732,0.611-10.404
			c0-1.224,0.612-3.06-1.224-3.672C311.508,317.664,310.284,318.276,309.672,319.5L309.672,319.5z"/>
		<path fill="#232323" d="M322.524,375.192c-3.673,0-22.645-2.448-22.645,3.672c0,5.508,17.136,3.06,20.808,3.06
			c3.061,0,19.585,1.224,20.196-3.06C342.108,373.968,325.584,375.192,322.524,375.192L322.524,375.192z"/>
		<path fill="#232323" d="M354.348,407.628c-1.836,1.224-5.508,3.06-6.731,3.672c-7.956,3.672-15.912,3.061-24.48,4.284
			c-9.18,1.836-15.3,0-23.868-3.672c-1.836-0.612-9.792-5.508-9.792-1.836c0,1.836,8.568,4.896,10.404,5.508
			c4.896,2.448,9.792,4.284,15.3,4.896c3.061,0,8.568-0.612,10.404-0.612h0.612c6.731-1.225,11.628,1.836,18.359-1.225
			c3.061-1.224,6.732-3.06,9.181-5.508c1.224-0.611,3.672-1.836,3.672-3.672C356.796,408.24,355.572,407.016,354.348,407.628
			L354.348,407.628z M347.616,411.3L347.616,411.3L347.616,411.3z M324.972,419.256
			C324.972,419.868,324.972,419.868,324.972,419.256L324.972,419.256z"/>
		<path fill="#232323" d="M341.496,408.852C341.496,409.464,341.496,408.852,341.496,408.852
			C342.108,408.24,342.108,408.24,341.496,408.852L341.496,408.852z"/>
		<path fill="#232323" d="M306,425.376c-3.06,5.508,17.136,7.956,19.584,7.956s25.092-2.448,18.972-7.956
			c-0.611-0.612-11.628,1.836-13.464,1.836c-6.731,0.612-14.076,1.224-20.195-1.836l0,0C309.672,424.764,306.612,423.54,306,425.376
			L306,425.376z"/>
		<path fill="#232323" d="M310.896,425.376C310.896,425.376,310.284,425.376,310.896,425.376L310.896,425.376z"/>
		<path fill="#232323" d="M240.516,375.192c-3.672,1.836,1.836,9.18,2.448,12.24c1.224,3.672,1.836,7.956,3.06,11.627
			c1.836,6.12,3.672,11.628,4.896,17.748c0.612,3.061,2.448,9.181,6.732,5.509c3.06-3.061-0.612-8.568-1.224-12.24
			c-1.224-5.508-1.836-10.404-3.672-15.912C251.532,390.492,246.024,372.132,240.516,375.192L240.516,375.192z M250.92,416.196
			C250.92,416.808,250.92,416.808,250.92,416.196L250.92,416.196z"/>
		<path fill="#232323" d="M247.248,397.224c-3.672,1.225,1.224,19.584,2.448,23.257c1.836,6.731,5.508,14.688,8.568,20.808
			s6.732,12.24,10.404,18.36c1.836,3.06,3.672,6.731,6.732,8.567c1.836,1.836,4.896,3.061,6.732,0
			c2.448-3.06-0.612-6.731-2.448-9.18c-4.284-6.732-7.344-14.688-11.628-21.42c-4.284-6.732-6.732-14.688-11.016-22.032
			C255.204,413.136,250.308,396,247.248,397.224L247.248,397.224z M253.98,430.271C253.98,430.884,253.98,430.884,253.98,430.271
			L253.98,430.271z"/>
		<path fill="#232323" d="M271.728,446.796c-3.672,2.448,3.06,12.24,4.284,15.3c1.836,6.12,3.06,11.628,6.12,17.137
			c2.448,4.896,4.896,9.18,8.568,12.852c3.06,3.672,7.344,12.852,12.852,12.852c12.853-0.611-4.896-23.867-7.344-27.54
			C292.536,473.112,276.624,443.736,271.728,446.796L271.728,446.796z M274.788,458.424
			C275.4,458.424,275.4,458.424,274.788,458.424L274.788,458.424z M293.148,495.756c0,0.612,0.612,0.612,0.612,1.225
			C293.76,496.368,293.148,496.368,293.148,495.756L293.148,495.756z"/>
		<path fill="#232323" d="M280.296,452.304c-6.12,3.672,2.448,12.24,4.284,16.524c3.06,6.731,5.508,14.076,8.568,21.42
			c3.06,6.732,6.732,13.464,9.792,20.196c1.836,3.672,6.732,15.912,11.628,15.912c6.731-0.612,0-13.465-1.225-16.524
			c-3.06-7.956-6.731-15.3-10.404-22.644C301.104,481.068,288.252,448.02,280.296,452.304L280.296,452.304z"/>
		<path fill="#232323" d="M372.096,446.796c-2.447,0-3.672,2.448-4.896,4.284c-0.612,1.224-1.225,1.836-2.448,2.448
			c-0.612,0.611-2.448,0-3.672,1.224c-2.448,2.448-2.448,9.792-3.061,12.852c-0.611,3.673-1.224,7.956-1.836,12.853
			c0,2.448-1.224,4.896-0.611,7.344c0.611,1.225,1.836,2.448,1.836,3.672c0,1.225,0,3.061-0.612,4.284
			c-0.612,6.732,0,12.853,1.224,19.584c1.225,6.732,2.448,13.464,3.673,19.584c1.224,5.508,3.06,14.076,3.672,17.136
			c0,1.225,0.611,3.061,0.611,4.284c0-1.224,0,5.508,0.612,6.732c1.836,1.836,3.061,0,3.672-1.836
			c2.448-5.509,1.836-14.688,1.225-20.196c-0.612-9.792-1.836-18.36-3.061-28.152c-1.224-12.239-1.836-24.479,0-36.107
			c0.612-5.509,1.836-10.404,3.061-15.912C373.32,457.812,377.604,446.796,372.096,446.796L372.096,446.796z"/>
		<path fill="#232323" d="M414.936,249.12c0,3.672-0.611,8.568,0,12.24c1.225,4.896,3.673,1.836,3.061-1.836
			c0-1.224,0-5.508-0.612-7.956c0-0.612,0.612-3.06-0.611-3.672C416.771,247.284,415.548,247.896,414.936,249.12L414.936,249.12z"/>
		<path fill="#232323" d="M393.516,222.192c-1.836,1.836,5.509,7.956,6.732,9.18c2.448,3.06,4.896,5.508,6.12,9.18
			c3.06,8.568,4.896,17.748,6.12,26.928c-0.612-3.06,0,0.612,0,1.224c0,1.224,0,3.06,0.611,4.284c0,3.06,0,6.12,0,8.568
			c0,6.732-0.611,13.464-0.611,20.808c0,11.016,3.06,22.644,3.06,33.66c0,11.628-4.896,22.644-9.792,33.048
			c-1.836,4.284-5.508,9.18-6.731,14.076c-1.225,4.896,3.06,9.792,7.956,6.732c4.283-2.448,4.283-9.792,4.896-14.076
			c0.612-6.12,2.448-12.24,4.284-18.36c3.672-10.404,6.731-22.644,7.344-33.66c0-5.508-1.224-10.404-1.836-15.3
			c-1.224-6.12-1.224-12.24-0.612-18.36c0-7.344,0-14.688,0-22.644s0-16.524-4.283-23.868
			C414.936,241.164,395.964,219.132,393.516,222.192L393.516,222.192z M414.936,330.516
			C414.936,331.128,414.936,331.128,414.936,330.516L414.936,330.516z"/>
		<path fill="#232323" d="M402.696,234.432C402.696,233.82,402.696,233.82,402.696,234.432L402.696,234.432z"/>
		<path fill="#232323" d="M402.696,234.432L402.696,234.432L402.696,234.432z"/>
		<path fill="#232323" d="M419.832,332.964c-0.612,17.136-6.12,34.272-12.24,50.184c-3.06,7.956-6.12,16.524-8.567,25.092
			c-0.612,1.836-4.284,9.792-1.837,11.016c3.061,1.836,5.509-6.12,6.732-7.956c6.12-13.464,11.628-27.54,15.912-41.616
			c1.836-6.12,3.06-12.852,3.672-18.972c0.612-4.284,0.612-8.568,1.224-12.852c0-1.224,0.612-3.672,0-4.896
			C422.892,331.128,419.832,330.516,419.832,332.964L419.832,332.964z"/>
		<path fill="#232323" d="M409.428,373.356c-3.06,9.18-3.06,17.748-5.508,26.928c0,1.224-0.612,2.448-1.224,3.672
			c0,1.836-0.612,2.448-2.448,1.836c-2.448,1.836-3.061,2.448-4.284,5.508c-1.836,4.284-3.06,8.568-5.508,12.853
			c-5.508,9.18-10.404,18.359-15.912,27.54c-1.224,1.224-6.12,7.956-3.672,9.18c1.836,1.224,3.06-1.836,4.284-3.061
			c9.18-10.403,18.359-21.42,25.092-33.659c4.896-8.568,7.956-17.748,9.18-27.54c0.612-4.896,0.612-10.404,1.836-15.3
			c0.612-1.836,2.448-6.732,1.225-7.956C411.876,372.132,410.04,372.132,409.428,373.356L409.428,373.356z M410.652,384.984
			C410.652,385.596,410.652,385.596,410.652,384.984L410.652,384.984z M373.32,455.364L373.32,455.364L373.32,455.364z"/>
		<path fill="#232323" d="M414.936,248.508c-3.06,0.612,0.612,24.48,0.612,28.152c0.612,8.568-0.612,17.136,0.612,26.316
			c2.448,17.136-0.612,32.436-4.284,48.96c-0.612,3.672-6.12,20.196,3.672,16.524c5.508-1.836,7.344-14.076,8.568-18.972
			c1.836-9.18,3.672-18.36,1.836-27.54c-1.224-7.344-3.061-14.076-3.672-21.42c-0.612-7.956-1.225-16.524-1.836-24.48
			C419.832,272.376,418.608,246.672,414.936,248.508L414.936,248.508z M413.712,252.792L413.712,252.792L413.712,252.792z
			 M416.16,303.588C416.16,304.2,416.16,304.2,416.16,303.588L416.16,303.588z"/>
		<path fill="#232323" d="M414.324,299.916c0.611,15.3,0.611,31.824-1.836,47.124c-2.448,14.688-10.404,26.928-15.912,40.392
			c-2.448,6.12-4.284,15.3-5.508,22.644c-0.612,4.284-3.061,11.628-1.225,15.3c3.061,6.12,7.956,0,9.181-3.06
			c-0.612,1.836,0,0.611,0.611-0.612c0.612-1.224,1.225-2.448,1.225-3.672c1.224-3.061,2.447-6.12,3.06-9.181
			c1.836-6.119,1.836-12.239,3.06-18.972c0.612-5.508,3.673-11.016,6.12-15.912c2.448-5.508,4.284-11.628,5.509-17.748
			c1.836-9.18,3.06-17.136,2.447-26.316c-0.611-6.732-1.224-13.464-2.447-19.584c-0.612-3.06,0-6.732-1.225-9.792
			c0-0.612,0-1.836-1.224-2.448C415.548,298.692,414.324,298.692,414.324,299.916L414.324,299.916z"/>
		<path fill="#CC66FF" d="M272.34,476.784c-5.508,3.06,18.36,26.928,20.808,29.376c7.344,7.344,11.628,17.136,16.524,26.315
			c13.464,25.093,25.092,53.244,22.032,82.009c0,0,0,0,0-0.612c0,0.612,0,0.612,0,0c0,0.612-0.612,2.448-0.612,3.06l0,0
			c0,1.836-1.224,3.672-1.224,6.12s1.224,4.284,3.06,1.836c1.225-1.836,1.225-5.508,1.836-7.344
			c0.612-3.672,1.225-7.956,1.836-11.628c1.836-18.36,0.612-35.496-6.731-52.632c-6.732-16.524-15.912-33.66-29.376-45.9
			c-4.896-4.284-9.792-7.344-14.076-12.239c-3.06-3.061-5.508-6.732-7.956-10.404C277.848,483.516,274.788,474.948,272.34,476.784
			L272.34,476.784z"/>
		<path fill="#CC66FF" d="M205.02,563.688c-3.06,0.612,1.836,13.465,1.836,15.912c0.612,3.061,0.612,6.12,0.612,9.181
			c0.612,11.016,0,22.031-1.836,33.048c-1.224,9.792-2.448,19.584-2.448,29.988c0,1.836-0.612,4.896,0,6.731
			c1.224,2.448,11.016,4.284,14.076,4.896c-1.224-18.36,1.836-36.721-0.612-55.08C216.648,603.468,211.752,562.464,205.02,563.688
			L205.02,563.688z"/>
		<path fill="#CC66FF" d="M373.32,515.952c0,6.12-1.836,12.24-1.836,18.359c-0.612,10.404,0.611,20.196-1.225,29.988
			s-6.12,18.36-9.18,27.54c-3.061,7.956-4.284,18.972-5.508,25.704c-0.612,4.284-1.836,18.36,3.06,19.584
			c6.12,1.836,5.508-9.792,6.12-12.852c1.836-11.628,4.896-23.868,9.18-34.885c4.284-11.628,7.345-24.479,6.12-37.332
			c-1.224-7.344-3.06-15.3-3.06-22.644c0-3.06,0-6.732,0.611-9.792c0-0.612,0.612-3.672,0-4.284
			C375.156,514.116,373.32,514.116,373.32,515.952L373.32,515.952z"/>
		<path fill="#CC66FF" d="M440.64,472.5c-1.224,2.448-0.611,7.956-0.611,10.404c0,3.06-0.612,6.12-1.225,8.567
			c-1.224,7.345-3.672,14.688-5.508,22.032c-3.672,14.688-9.792,28.152-14.076,42.84c-3.672,12.853-5.508,26.928-3.672,39.78
			c1.224,10.404,3.672,22.644,11.017,30.6c1.224,1.836,3.06,3.061,5.508,2.448c3.06-1.224,1.836-2.448,0.611-4.284
			c-1.836-4.284-3.672-7.344-4.896-11.628c-3.061-10.403-3.061-23.256-2.448-34.271c1.225-17.748,8.568-33.66,12.853-50.796
			c2.447-9.181,3.672-20.196,5.508-29.988c1.224-6.12,1.836-12.24,1.836-18.36c0-1.836,0.612-4.284,0-6.12
			C446.148,471.276,442.476,469.44,440.64,472.5L440.64,472.5z M438.804,530.028C438.804,530.64,438.804,530.64,438.804,530.028
			L438.804,530.028z M438.192,530.64L438.192,530.64L438.192,530.64z"/>
		<path fill="#CC66FF" d="M282.744,518.4c-1.836,1.224,0.612,5.508,1.224,6.731c2.448,6.732,4.284,14.076,5.508,21.42
			c3.672,15.912,4.284,31.212,3.672,47.736c-1.836,23.256-3.06,49.572,12.24,69.156c2.448,2.447,10.404,14.075,14.688,4.284
			c1.836-4.896-4.284-12.24-6.12-16.524c-6.12-13.464-7.956-26.928-8.568-41.616c0-18.972-0.612-36.107-6.12-54.468
			c-2.448-7.344-4.896-14.076-7.956-20.809C290.088,531.252,286.416,516.564,282.744,518.4L282.744,518.4z"/>
		<path fill="#232323" d="M429.012,476.784c-3.672,15.3-7.344,30.6-12.852,45.288c-4.284,12.852-9.18,25.704-11.628,39.168
			c-4.284,25.704-2.448,51.408,8.567,74.664c2.448,4.896,4.896,12.852,9.181,17.136c4.896,4.284,11.016-0.612,9.18-6.12
			c-1.224-4.284-3.672-8.568-5.508-12.852c-11.628-28.152-12.24-57.528-3.672-86.904c4.896-16.524,11.016-33.048,15.3-50.184
			c1.224-5.509,6.12-15.912,3.672-21.421C440.028,470.052,430.848,470.052,429.012,476.784L429.012,476.784z"/>
		<path fill="#232323" d="M329.868,404.568c-4.896,0-10.404,0.611-15.3,1.836c-1.836,0.611-11.017,1.836-6.732,4.896
			c1.836,1.225,11.628-2.448,14.076-3.06c3.06-0.612,9.18-0.612,11.016-0.612s11.628,2.448,7.345-1.836
			C339.048,403.956,332.316,404.568,329.868,404.568L329.868,404.568z"/>
		<path fill="#232323" d="M281.52,297.468c-1.836,0-8.568,0-9.792,1.224c-2.448,3.672,3.672,2.448,5.508,2.448
			c6.732,0,12.852,1.224,18.972,1.836c1.836,0,6.732,1.224,7.956-1.224c1.224-1.836-1.224-3.06-2.448-3.672
			c-2.448-0.612-6.12,0-8.568-0.612C289.476,297.468,285.804,296.856,281.52,297.468L281.52,297.468z M290.088,301.752
			L290.088,301.752L290.088,301.752z"/>
		<path fill="#232323" d="M331.704,299.916c-1.836,1.836-3.672,3.06-5.508,4.896s-2.448,1.836-5.509,1.836
			c-3.06,0-9.791,1.224-12.852-1.224c-2.448-1.836-1.224-6.12-4.284-7.344c-2.448-1.224-3.672,0.612-3.672,3.06
			c0.612,3.672,3.672,7.956,6.732,9.18c4.284,1.836,9.792,1.224,14.688,1.224c6.732,0,7.956-1.836,11.628-7.344
			C335.988,300.528,337.824,295.02,331.704,299.916L331.704,299.916z M335.988,300.528
			C335.988,301.14,335.376,301.14,335.988,300.528L335.988,300.528z M325.584,306.648
			C324.972,307.26,324.972,307.26,325.584,306.648L325.584,306.648z"/>
		<path fill="#232323" d="M304.164,298.08C304.164,298.08,303.552,298.08,304.164,298.08L304.164,298.08z"/>
		<path fill="#232323" d="M309.06,308.484c-15.3,1.836-8.567,28.764-23.255,32.436c-7.344,1.836-15.3,1.836-22.644,3.672
			c-1.836,0.612-6.12,1.224-4.284,3.672c1.224,2.448,7.344,1.224,9.18,1.224c7.956,0,17.136,0.612,24.48-2.448
			c6.12-2.448,8.568-10.404,11.016-15.912c1.836-4.284,4.284-14.688,8.568-17.136c1.836-1.224,4.284,0,4.284-3.06
			C315.792,307.872,311.508,307.872,309.06,308.484L309.06,308.484z M294.984,332.352
			C294.372,332.964,294.372,332.964,294.984,332.352L294.984,332.352z M276.012,342.144
			C275.4,342.756,275.4,342.756,276.012,342.144L276.012,342.144z"/>
		<path fill="#232323" d="M272.952,297.468c-5.508,1.224-1.836,6.12,1.836,6.732c4.284,0.612,8.568,0,12.852,0
			c2.448,0,9.792-0.612,11.628,1.224c2.448,2.448,2.448,8.568,6.12,10.404c4.896,1.836,4.896-2.448,4.284-5.508
			c-1.224-3.672-3.06-8.568-6.732-10.404c-4.284-1.836-10.404-0.612-14.688-1.224C283.356,297.468,277.848,296.244,272.952,297.468
			L272.952,297.468z M298.044,304.2C298.656,304.2,298.656,304.2,298.044,304.2L298.044,304.2z"/>
		<path fill="#232323" d="M313.344,307.872c-3.06,0-11.628,0.612-7.956,5.508c2.448,3.06,11.016,1.224,14.688,1.224
			c2.448,0,12.852,0,9.18-4.896C327.42,307.26,316.404,307.872,313.344,307.872L313.344,307.872z"/>
		<path fill="#232323" d="M359.856,292.572c-7.956,0-19.585,0-25.704,4.896c-5.509,4.284-9.181,9.792-8.568,17.748
			c1.224,8.568,4.284,17.136,7.956,24.48c1.224,1.836,3.06,8.568,6.12,7.344c3.672-1.224,0.611-6.732,0-9.18
			c-3.061-7.344-6.12-15.3-7.344-23.868c-0.612-4.284-0.612-6.12,1.836-9.18c2.447-3.06,3.672-2.448,7.956-2.448
			c8.567,0,17.747,0.612,26.315,0.612c4.896,0,9.18,0,14.076,0c2.448,0,4.284,0,6.732,0c1.224,0,8.567,0.612,6.119,0
			c3.061,0.612,11.017,0,7.345-5.508c-1.836-2.448-7.956-2.448-10.404-3.06c2.448,0.612,0,0-1.224,0
			c-1.836,0-3.673-0.612-5.509-0.612c-3.06,0-6.731-0.612-9.792-0.612C370.26,293.184,365.364,292.572,359.856,292.572
			L359.856,292.572z M332.316,309.096L332.316,309.096L332.316,309.096z"/>
		<path fill="#232323" d="M395.352,296.244c-4.896,0-3.672,5.508,0,6.732c3.673,1.224,7.345,0.612,11.017,0.612
			c3.06,0,8.567,0.612,6.731-4.284c-1.224-3.06-3.672-3.06-5.508-3.06C403.92,296.244,399.636,296.244,395.352,296.244
			L395.352,296.244z"/>
		<path fill="#232323" d="M391.68,296.244c-1.836,0-3.672,1.836-3.06,3.672c0.612,2.448,2.448,1.836,4.284,2.448
			c2.447,0.612,3.06,1.836,4.283,3.672c1.225,1.836,1.225,4.896,3.673,5.508c1.836,0.612,6.119-3.672,7.344-4.896
			c1.224-1.224,4.284-3.672,2.448-5.508c-1.225-1.224-3.061,0-3.673,1.224c-0.611-3.06-3.06-1.836-4.283,0
			C400.86,298.692,395.964,296.244,391.68,296.244L391.68,296.244z M391.68,302.976h0.612H391.68L391.68,302.976z M393.516,303.588
			C394.128,303.588,394.128,303.588,393.516,303.588L393.516,303.588z M399.636,307.872
			C399.636,308.484,399.636,308.484,399.636,307.872L399.636,307.872z"/>
		<path fill="#232323" d="M410.652,300.528c-3.061,1.836-6.12,4.284-8.568,7.344c-1.224,1.836-2.448,9.18,1.836,5.508
			c1.836-1.836,3.061-5.508,4.896-7.344c0.611-0.612,3.672-1.836,3.672-3.06C413.1,301.14,411.876,299.916,410.652,300.528
			L410.652,300.528z"/>
		<path fill="#232323" d="M404.532,299.916c-7.345,1.836-9.181,18.36-11.017,24.48c-1.224,4.284-3.06,9.792-5.508,12.852
			c-1.836,3.06-4.284,2.448-7.956,3.06c-9.18,0.612-18.972,0.612-28.151,1.224c-3.673,0-9.792-1.224-12.24,1.224
			c-2.448,1.836-2.448,7.344,1.836,7.344c11.628,1.224,25.092,0.612,36.107-1.836c4.284-1.224,10.404-3.06,13.465-6.12
			c3.672-3.672,5.508-10.404,7.956-15.3c-0.612,2.448,0.611-1.836,1.224-2.448c0.612-1.224,1.224-3.06,1.836-4.284
			c1.836-3.06,2.448-6.12,4.284-9.18c0.612-1.836,3.06-4.284,3.672-6.732C409.428,301.752,406.98,299.304,404.532,299.916
			L404.532,299.916z M384.948,345.204C384.336,345.204,384.336,345.204,384.948,345.204L384.948,345.204z"/>
		<path fill="#232323" d="M326.808,313.38c-2.447,0.612,5.509,32.436,9.181,34.884c1.224,0.612,4.284,2.448,5.508,1.836
			c3.672-1.836,0.612-6.12-0.612-7.956c-3.06-5.508-7.344-12.852-9.18-17.136C331.092,322.56,329.256,312.768,326.808,313.38
			L326.808,313.38z"/>
		<path fill="#232323" d="M335.376,348.264L335.376,348.264L335.376,348.264z"/>
		<path fill="#232323" d="M404.532,303.588c-7.345,9.792-11.017,21.42-15.912,32.436c-2.448,6.12-4.284,5.508-10.404,6.12
			c-2.448,0-6.731,0-9.18,1.224c-2.448,1.836-3.061,4.896-0.612,5.508c1.836,0.612,6.732-0.612,7.956-0.612
			c1.836,0,3.672-0.612,5.508-0.612c4.284-0.612,10.404-1.836,13.464-5.508c6.12-7.344,7.956-20.196,9.181-29.376
			c0,1.836,0.611-2.448,0.611-2.448c0.612-1.224,1.225-2.448,1.225-3.672c0-0.612,1.836-1.836,1.224-2.448
			C406.98,302.976,405.756,302.364,404.532,303.588L404.532,303.588z M397.8,337.86C397.8,338.472,397.8,338.472,397.8,337.86
			L397.8,337.86z M385.56,341.532C384.948,341.532,384.948,341.532,385.56,341.532L385.56,341.532z M384.948,341.532
			L384.948,341.532L384.948,341.532z"/>
		<path fill="#232323" d="M539.172,568.584L539.172,568.584L539.172,568.584z"/>
		<path fill="#232323" d="M298.044,93.06c-91.8,3.672-177.48,50.184-230.724,124.848C14.076,292.572-1.836,391.104,25.704,479.232
			c7.344,23.867,17.748,47.123,31.212,68.544c10.404,17.136,35.496,45.899,34.884,45.288c31.824,34.271,70.992,60.588,114.444,76.5
			l0,0c4.896,1.836,9.792,3.672,14.076,5.508c8.568,3.06,17.136,4.283,26.316,6.731c20.808,5.508,42.84,7.345,64.872,7.345
			c44.064,0,88.128-9.793,127.908-28.765c75.888-36.107,134.64-104.04,158.508-184.824c7.344-24.479,11.017-49.571,11.628-75.275
			c0.612-12.24,0-25.092-1.224-37.332c-0.612-6.732-1.836-13.464-2.448-20.196c-0.612-2.448-0.612-7.344-2.448-8.568
			c-1.224-0.612-6.731,0.612-8.567,0.612c13.464,59.976,3.672,127.296-23.256,182.376c-9.181,18.36-20.196,36.108-32.437,52.021
			c0,0,0,0,0-0.612c-2.448,3.06-4.896,6.12-7.344,9.18l0,0c-1.836-31.212-14.688-66.096-38.557-86.903
			c-9.18-7.956-21.42-13.464-32.436-19.584c-7.344-4.284-6.732-1.225-6.732-9.792c0-9.792,0-18.973,0.612-28.765
			c0-26.315-0.612-52.02-0.612-78.336c0-14.076,0.612-28.152,1.837-42.228c1.224-14.688,0-28.764-1.225-42.84
			c-1.224-13.464-1.836-27.54-6.731-40.392c-1.836-4.896-4.284-9.792-6.12-15.3c-1.836-4.896-3.672-10.404-6.732-14.688
			c1.225,2.448,2.448,4.284,3.061,6.732c-1.225-3.06,1.224,1.836-1.225-1.836c-1.224-2.448-1.836-4.284-3.06-6.12
			c-1.836-3.672-4.284-7.344-6.732-11.016c-4.896-6.12-10.403-12.24-17.136-16.524c-6.12-3.672-12.24-6.732-18.36-10.404
			c-3.672-1.836-7.344-4.284-11.016-4.896c-1.836,0-4.896,1.224-6.732,0.612c-3.06-0.612-7.344-4.896-10.403-6.12
			c-9.181-3.672-17.137-4.284-25.093-4.284c-14.688-0.612-28.764,1.224-42.839,4.896c-29.376,7.344-55.692,23.256-76.5,45.288
			c-18.36,19.584-32.436,44.064-44.676,67.932c-9.18,17.748-17.748,36.72-23.256,56.304c-4.896,17.136-6.12,35.496-6.12,53.244
			c0-8.568,0.612-17.136,1.224-26.316c-3.06,20.808-3.672,42.84-1.836,63.648c0.612,11.628,3.06,22.644,5.508,34.271
			c1.836,6.12,3.06,12.24,4.896,18.36c0.612,1.836,5.508,16.524,4.284,17.748c-0.612,0.612-0.612,2.448,0,3.06
			c-22.644-1.224-37.944,15.912-47.736,34.272c-5.508,9.792-9.18,21.42-13.464,31.824c-2.448,5.508-4.284,11.016-6.732,16.523
			c-1.224,3.061-3.06,5.508-0.612,7.956c-0.612-0.611,0-0.611,0,0c-9.792-12.24-18.36-25.092-26.316-38.556
			c-5.508-9.792-11.016-22.645-15.912-31.212C21.42,440.064,18.36,369.072,39.78,302.976
			c22.032-66.096,67.932-123.012,127.908-158.508c32.436-18.972,67.932-31.824,105.876-36.72c0,0,0,0-0.612,0
			c60.588-7.344,121.788,2.448,175.644,31.824c51.408,28.152,93.637,70.992,119.952,123.624
			c7.344,14.076,12.853,29.376,17.748,44.676c1.836,6.12,3.061,11.628,4.896,17.748c0,1.224,0.611,1.836,0.611,3.06
			c0,0,0.612,3.06,0.612,3.672c1.224,0.612,7.956-0.612,9.18-0.612c-20.808-107.712-104.04-197.676-209.916-227.664
			C361.08,95.508,329.256,91.836,298.044,93.06L298.044,93.06z M198.9,125.496C198.288,125.496,198.288,125.496,198.9,125.496
			L198.9,125.496z M334.152,153.648c-4.896,0-9.181,0.612-14.076,1.224C324.972,154.26,329.868,153.648,334.152,153.648
			L334.152,153.648z M320.688,154.872c-0.611,0-1.224,0-1.836,0C319.464,155.484,320.076,154.872,320.688,154.872L320.688,154.872z
			 M372.708,155.484L372.708,155.484L372.708,155.484z M291.312,161.604c17.748-6.12,36.72-7.344,55.08-5.508
			c9.792,1.224,17.748,1.224,23.868,9.18c1.225,1.836,3.061,4.284,5.508,1.224c1.225-1.836-1.224-4.284,2.448-4.284
			c1.225,0,3.061,1.836,4.284,2.448c4.896,3.06,9.18,5.508,14.076,7.956c17.748,8.568,29.988,28.152,36.107,46.512
			c10.404,30.6,11.629,63.648,12.24,95.472c0.612,37.332-3.672,74.664-1.836,111.996c0.612,18.973,4.284,37.332,4.284,56.305
			c0,4.896-1.224,9.18-2.448,14.076c-1.224,5.508-1.224,10.403-2.448,15.911c-1.224,5.509-3.06,12.24-4.283,16.524
			c-5.509,19.584-12.853,38.556-12.853,59.976c0,11.628,0.612,23.257,6.12,33.66c1.836,4.284,4.284,7.956,6.732,11.628
			c2.447,3.672,4.283,9.792,7.344,12.853c-36.108,18.972-76.5,29.987-117.504,31.823c-20.809,1.225-41.616,0-62.424-3.06
			c-5.508-0.612-11.016-1.836-16.524-3.06c-4.284-1.225-5.508-0.612-6.12-4.896c-0.612-6.12-1.836-13.464-2.448-18.972
			c-1.224-11.017,0-26.316,1.836-38.557c1.836-14.688,2.448-29.376,0-44.063c-2.448-14.688-8.568-28.764-14.688-42.229
			c-4.284-8.567-9.18-17.136-12.852-26.315c-1.836-3.672-3.06-10.404-4.284-15.3c-0.612-4.896,0.612-17.137-3.672-19.584
			c-9.792-4.896-5.508,18.359-4.896,22.031c1.836,10.404,4.284,20.809,8.568,30.601c5.508,14.688,12.24,28.764,15.912,44.063
			c4.284,17.137,3.672,33.66,2.448,51.408c-1.224,19.584,0,37.332,3.672,56.916l0,0c-4.284-1.224-8.568-2.448-12.852-4.284
			c-3.672-1.224-10.404-2.447-13.464-4.896c-3.672-3.061-1.224-16.524-0.612-22.032c1.836-16.524,5.508-36.108,3.06-51.408
			c-3.672-22.032-18.972-38.556-26.928-59.364c-3.06-7.344-4.284-15.3-6.12-23.256c-1.836-8.567,0-17.136,1.224-25.704
			c1.224-7.344,2.448-14.688,3.06-22.644c0.612-3.06,4.284-15.912,1.836-18.36c-2.448-2.447-3.672,0-4.896,1.836
			c-1.836,4.284-1.224,10.404-2.448,15.301c-0.612,3.672-1.836,7.956-2.448,11.628c-0.612,4.283-1.836,8.567-3.06,12.852l0,0
			c-1.836-18.36-7.344-34.884-10.404-53.244c-3.672-22.031-2.448-45.288-1.224-67.32c3.06-52.632,25.704-102.816,58.14-144.432
			C235.008,188.532,261.324,171.396,291.312,161.604L291.312,161.604z M266.832,160.992
			C266.22,160.992,266.22,160.992,266.832,160.992L266.832,160.992z M265.608,161.604c-0.612,0.612-1.224,0.612-2.448,1.224
			C264.384,162.216,264.996,161.604,265.608,161.604L265.608,161.604z M378.828,162.216
			C379.44,162.216,379.44,162.216,378.828,162.216L378.828,162.216z M372.708,164.052c0.612-0.612,1.224-0.612,2.448-0.612
			c-1.225,0.612-3.061,1.224-4.284,1.224C371.484,164.052,372.096,164.052,372.708,164.052L372.708,164.052z M375.156,163.44
			L375.156,163.44L375.156,163.44z M369.648,164.052L369.648,164.052L369.648,164.052z M82.008,214.848
			C82.008,215.46,82.008,215.46,82.008,214.848L82.008,214.848z M165.852,280.944c-0.612,1.224-1.224,1.836-1.224,3.06
			C165.24,282.78,165.852,281.556,165.852,280.944L165.852,280.944z M452.88,294.408c0,3.06,0,6.12,0,8.568
			C452.88,299.916,452.88,296.856,452.88,294.408L452.88,294.408z M449.82,402.732c0-21.42,2.447-42.229,2.447-63.648
			c0,24.48-3.06,48.96-3.06,73.44C449.82,408.852,449.82,405.792,449.82,402.732L449.82,402.732z M451.044,471.888
			c0-6.12,0.612-12.239,0.612-18.972c0,7.344-0.612,14.688-0.612,22.032C450.432,474.336,450.432,473.112,451.044,471.888
			L451.044,471.888z M161.568,478.62L161.568,478.62L161.568,478.62z M161.568,478.62L161.568,478.62L161.568,478.62z
			 M159.12,479.844L159.12,479.844L159.12,479.844z M169.524,480.456c0,3.06,0.612,6.12,0.612,9.18
			C170.136,486.576,169.524,483.516,169.524,480.456L169.524,480.456z M166.464,501.876c0,1.224,0,2.448,0,3.672
			C166.464,504.324,166.464,503.1,166.464,501.876L166.464,501.876z M167.076,640.188c2.448-11.016,2.448-22.031,1.224-33.048
			c-1.836-11.016-4.896-22.031-6.12-33.659c-2.448-22.032,3.06-43.452,4.284-65.484c1.836,0.612,2.448,11.628,3.06,14.076
			c1.836,6.12,3.672,11.628,6.12,17.136c5.508,12.24,14.076,23.256,19.584,36.108c4.896,12.239,7.344,25.704,7.956,39.168
			c0.612,14.076-3.672,27.54-4.284,41.004C187.884,651.816,176.868,646.308,167.076,640.188L167.076,640.188z M530.604,578.988
			C529.992,579.6,529.992,579.6,530.604,578.988L530.604,578.988z M527.544,582.048c0,0.612-0.612,0.612-0.612,1.224
			C526.932,582.66,527.544,582.66,527.544,582.048L527.544,582.048z M517.752,592.452
			C517.752,593.676,517.752,593.064,517.752,592.452L517.752,592.452z M488.376,619.38c3.06-2.448,5.508-4.284,8.568-6.731
			C493.884,615.096,490.824,617.544,488.376,619.38L488.376,619.38z M151.164,630.396c0-0.612,0-1.225,0-1.837
			C151.776,629.784,151.776,630.396,151.164,630.396L151.164,630.396z M455.328,641.412
			C454.716,642.024,454.716,642.024,455.328,641.412L455.328,641.412z M198.9,667.116
			C199.512,667.116,199.512,667.116,198.9,667.116L198.9,667.116z"/>
		<path fill="#232323" d="M488.376,619.38L488.376,619.38L488.376,619.38z"/>
		<path fill="#232323" d="M438.804,529.416L438.804,529.416L438.804,529.416z"/>
		<path fill="#232323" d="M430.236,619.992L430.236,619.992L430.236,619.992z"/>
		<path fill="#232323" d="M361.692,557.568c-3.061,0-6.732,2.447-10.404,3.06c-3.061,0.612-5.508,0.612-6.732,3.672
			c-1.224-1.836-3.06-1.224-4.284,0c-1.224,1.836,0.612,4.896,0.612,6.12c1.225,5.508,1.225,11.016,1.225,16.524
			c0,5.508,0,12.239-0.612,18.972c-1.836,18.36-3.672,38.556,1.224,56.916c1.225,4.284,3.061,9.18,4.896,13.464
			c1.224,2.448,3.06,4.896,6.12,3.672c3.672-1.836,1.836-4.896,1.224-7.956c-4.284-16.523-3.06-35.496-1.224-52.632
			c1.224-12.24,4.283-24.479,7.344-36.108C362.916,578.988,370.872,557.568,361.692,557.568L361.692,557.568z M354.348,618.768
			v0.612V618.768L354.348,618.768z"/>
		<path fill="#FFFFFF" d="M332.316,155.484c-17.748,0-34.884,3.06-51.408,9.792h0.612c-25.704,11.016-47.124,25.704-64.872,47.124
			c-15.3,18.972-26.928,40.392-37.944,61.812c-12.24,24.48-18.972,51.408-20.808,78.948c-1.224,20.808-2.448,42.84,0,64.26
			c2.448,20.808,9.18,41.004,11.628,62.424c0.612-4.284,1.836-7.956,2.448-12.24c0.612-3.672,1.224-6.731,2.448-10.403
			c1.224-5.508,1.224-12.24,3.06-17.136c0.612-1.837,2.448-4.896,4.896-2.448c2.448,2.448-1.224,12.852-1.224,15.912
			c-1.224,7.956-2.448,16.523-3.672,24.479c-1.224,8.568-3.06,17.136-1.224,25.704c1.836,7.956,3.06,15.3,6.12,23.256
			c7.344,20.196,22.644,37.332,26.928,59.364c0-3.061-0.612-6.12-1.224-9.792c-0.612-3.06-3.06-7.344-3.06-9.792
			s1.836-3.061,3.672-1.836c1.836,1.224,2.448,6.12,3.06,7.956c3.06,9.792,4.896,20.196,6.12,29.988
			c1.224,11.628,2.448,23.256,1.836,34.884c-0.612,6.731-0.612,14.076-0.612,20.808c0,1.224-0.612,4.284,0,4.896
			c0.612,0.611,3.06,1.224,3.672,1.224c3.06,1.224,6.732,2.448,9.792,3.061c-0.612-7.345-2.448-14.688-3.672-22.032
			c-1.224-9.792-1.224-20.196,0-29.988c1.224-17.748,2.448-34.884-1.224-52.632c-3.672-15.3-9.792-29.988-15.912-44.676
			c-4.284-9.792-7.344-20.196-8.568-30.601c-0.612-4.284-5.508-27.54,4.284-24.479c5.508,1.836,3.672,14.688,4.284,19.584
			c1.224,5.508,2.448,11.016,4.284,15.912c5.508,14.075,14.076,26.928,19.584,41.004c7.344,18.359,11.016,36.72,9.18,56.916
			c-1.224,18.359-5.508,36.107-3.06,54.468c0,2.448,1.224,9.18,1.836,12.852c0,1.836,0,5.509,1.224,7.345
			c1.836,2.447,12.24,3.06,15.3,3.672c6.12,1.224,11.628,1.836,17.748,3.06c23.868,3.061,47.736,3.061,71.604,0
			c-4.284-11.628-7.344-22.032-7.956-34.271c-1.225-17.137,2.448-34.272,2.448-51.408c-0.612,1.836-1.225,12.24-4.896,7.956
			c-0.612,7.344-0.612,16.523-3.672,23.868c-1.224,3.06-3.06,3.672-3.672,0c0-1.837,1.224-4.284,1.224-6.12l0,0
			c0-1.225,0.612-1.836,0.612-3.061v0.612c3.672-34.272-13.464-64.872-28.152-94.248c-7.344-14.688-22.032-23.256-29.988-37.332
			c-0.612-1.836-4.284-7.344,0-6.12c1.836,0.612,4.896,8.568,6.12,10.404c4.284,6.731,9.792,11.628,15.912,16.523
			c-3.672-7.956-8.568-14.688-12.852-22.031c-3.672-6.12-7.956-12.853-12.24-17.748c-7.956-11.628-15.912-23.256-20.808-36.721
			c-4.284-10.403-6.12-22.031-8.568-33.048c0-1.224-0.612-7.956-1.224-8.568c-1.836-1.836-2.448,0-4.284,1.836
			c-4.896,4.896-9.792,9.18-16.524,11.628c-3.672,1.224-11.628,4.896-15.3,3.06c-9.18-4.896,9.18-9.792,11.016-10.404
			c12.852-5.508,20.196-17.136,28.764-27.54c9.792-11.628,15.912-24.48,18.972-39.168c4.896-22.644,4.284-49.572,16.524-69.768
			c7.344-11.628,17.748-22.032,31.212-26.316c6.731-2.448,12.852-6.732,19.584-9.792c6.12-2.448,12.24-4.284,18.36-5.508
			c11.628-1.224,23.867,0,34.884,3.672c13.464,4.896,24.479,14.688,32.436,26.316c5.508,7.956,5.508,17.748,5.508,26.928
			c0,11.016-0.611,23.256,1.225,33.66c2.448,14.076,5.508,26.316,2.448,40.392c-2.448,13.464-6.12,26.928-11.017,39.78
			c-1.224,4.284-3.06,7.956-4.284,11.628c-1.224,3.672-1.836,7.956-3.06,11.628c-2.448,7.956-6.12,15.912-11.017,22.645
			c-6.119,9.18-12.852,17.136-19.584,25.704c-2.447,3.06-4.283,5.508-4.896,9.18c-1.836,8.568-2.448,16.524-2.448,25.092
			c0,12.853,1.225,25.092,3.061,37.944c0.611-3.061,0.611-14.076,3.06-14.076c3.06,0,1.224,17.136,1.224,20.196
			c0.612,8.567,3.673,17.136,3.673,26.315c0,6.732-1.225,13.464-3.061,20.196c-4.284,14.688-9.792,28.152-12.24,43.452
			c-0.611,3.672,0,11.628-3.06,13.464c-7.956,4.284-6.12-15.912-6.12-19.584c-1.224,9.18-1.836,18.972-2.448,28.764
			c0,6.732,0,13.464,1.225,20.196c0,1.836,0.611,7.344,2.447,9.18c1.225,1.225,6.732-0.611,9.181-0.611
			c27.54-5.508,54.468-14.688,79.56-27.54c-3.672-6.12-7.344-12.24-10.404-18.36c-6.731,6.732-12.852-9.792-14.688-14.076
			c1.836,8.568,5.508,16.524,8.568,23.868c1.836,4.284,6.731,11.628,1.836,15.3c-8.568,6.732-16.524-16.523-18.973-22.031
			c-5.508-11.629-8.567-24.48-8.567-37.332c-0.612-21.42,3.06-41.616,10.403-61.812c4.284-12.852,8.568-25.704,12.24-38.556
			c1.225-5.508,1.836-13.464,4.896-18.973c1.224-1.836,2.447-3.06,4.896-3.672c1.225,0,2.448,0,3.672,0
			c1.225,0,1.836,0.612,2.448,1.225c0-0.612,0.612-0.612,0.612-1.225c2.448,0,3.672-1.836,5.508,1.225c0.612,1.224,0,4.284,0,5.508
			c0,6.12-0.612,12.24-1.836,17.748c-1.836,11.016-3.672,22.032-6.12,33.048c4.896-11.628,5.508-25.704,7.956-37.944
			c3.06-14.688-1.224-31.212-2.448-46.512c-3.06-31.824-1.224-63.036,0.612-94.86c1.836-31.212,0.612-63.648-3.672-94.86
			c-4.284-31.212-15.912-67.932-45.9-82.62c-4.896-2.448-9.18-4.896-13.464-7.344c-1.224-0.612-3.06-2.448-4.284-2.448
			c-2.448,0-1.224,0.612-1.836,2.448c-4.896,2.448-6.731,0-9.18-3.672C361.08,154.26,343.332,155.484,332.316,155.484
			L332.316,155.484z M299.88,653.652c-7.956-17.748-7.956-36.108-6.732-55.08c0.612-9.792,1.224-19.584,0.612-29.376
			c-1.224-11.017-3.06-22.032-6.12-33.048c-0.612-3.061-1.224-6.12-2.448-9.181c-0.612-1.836-1.836-3.672-2.448-5.508
			c-0.612-3.672,1.836-3.672,3.672-0.612c4.284,7.956,7.956,18.973,11.016,27.54c4.284,12.24,7.344,25.704,7.956,38.557
			c0.612,12.852-1.224,26.315,1.224,39.168c1.836,11.016,5.508,21.42,11.016,31.212c1.836,3.672,4.896,7.344,1.836,11.016
			c-4.896,6.732-11.016-1.836-14.076-5.508l0.612,0.612c0.612,0.611-1.836-1.836-0.612-1.225
			C302.94,659.771,301.716,656.712,299.88,653.652L299.88,653.652z"/>
		<path fill="#232323" d="M597.924,328.68c-1.224,1.224,0,11.016,3.061,7.956C602.208,335.412,600.372,326.232,597.924,328.68
			L597.924,328.68z"/>
		<path fill="#232323" d="M596.7,323.172c-3.672,1.224-0.612,17.136,3.672,14.688C602.82,336.024,600.984,321.948,596.7,323.172
			L596.7,323.172z"/>
		<path fill="#232323" d="M595.476,322.56c-4.283,1.224,0,18.972,4.896,16.524C603.432,337.248,599.76,321.336,595.476,322.56
			L595.476,322.56z"/>
		<path fill="#232323" d="M595.476,322.56c-4.896,1.224,0,21.42,4.896,17.748C603.432,337.86,599.76,321.336,595.476,322.56
			L595.476,322.56z"/>
		<path fill="#232323" d="M594.252,323.172c-3.672,1.224,1.836,17.748,4.896,15.912C601.596,337.86,597.312,322.56,594.252,323.172
			L594.252,323.172z"/>
		<path fill="#232323" d="M594.252,323.172c-4.284,1.224-1.224,7.344-0.612,10.404c0.612,3.672,1.225,6.732,1.836,10.404
			c1.225,7.344,8.568,3.06,7.956-3.06C603.432,336.024,602.208,320.724,594.252,323.172L594.252,323.172z"/>
		<path fill="#232323" d="M594.252,323.172c-3.672,1.224-1.224,9.18,0,11.628c1.836,2.448,5.508,1.836,6.12-1.224
			C600.984,329.904,598.536,321.948,594.252,323.172L594.252,323.172z"/>
		<path fill="#232323" d="M596.088,323.172c-4.896,1.224,2.448,21.42,5.508,19.584C604.656,340.92,599.76,321.948,596.088,323.172
			L596.088,323.172z"/>
		<path fill="#232323" d="M596.088,318.276c-6.12,1.836-3.06,9.18-2.448,13.464c1.225,4.284,1.225,15.3,7.956,14.688
			c6.732-1.224,3.061-9.792,1.836-13.464C603.432,328.68,602.82,316.44,596.088,318.276L596.088,318.276z"/>
		<path opacity="0.2" fill="#CC66FF" d="M274.176,107.748c-0.612,0-0.612,0-1.224,0
			C273.564,107.748,273.564,107.748,274.176,107.748c-25.704,3.672-49.572,10.404-72.828,20.196c0,0,0,0,0.612,0
			c-108.324,45.9-180.54,157.284-176.256,275.4c1.224,34.884,9.18,68.544,22.032,100.98v-0.612
			c3.672,11.628,11.016,23.256,17.136,34.272c7.344,12.852,15.912,25.092,25.092,36.107c-1.836-1.836-1.224-3.06,0-5.508
			c2.448-5.508,4.896-11.628,6.732-17.136c4.284-11.017,8.568-22.645,14.076-33.048c9.792-18.973,25.704-36.108,48.348-34.885
			c-0.612-4.896-1.224-9.18-2.448-14.075c-1.836-6.12-3.06-12.24-4.896-18.36c-3.06-11.016-5.508-21.42-6.732-32.437
			c-2.448-21.42-1.836-44.063,0.612-66.096c1.836-18.36,5.508-34.884,11.628-52.02c6.732-17.136,14.688-33.66,23.256-49.572
			c6.732-12.852,15.3-25.704,23.868-37.944c11.628-15.3,24.48-27.54,39.168-39.78c7.956-6.732,17.748-9.792,27.54-14.076
			c7.956-3.672,15.3-6.732,23.868-8.568c16.524-4.284,33.66-6.12,50.796-4.284c6.12,0.612,12.239,1.836,17.748,4.284
			c2.447,1.224,3.672,2.448,6.12,3.672c2.447,1.836,3.672,1.224,6.731,0.612c6.12-0.612,10.404,2.448,15.3,5.508
			c9.181,4.896,18.36,9.18,25.704,17.136c7.956,8.568,14.076,17.748,18.972,28.764c-1.224-2.448-1.836-4.896-3.06-7.344
			c4.284,7.344,7.344,16.524,11.016,24.48c5.509,12.852,6.732,26.928,8.568,41.004c1.224,11.628,3.061,23.256,2.448,34.884
			c0,15.3-1.836,29.988-1.836,45.288c-0.612,24.48,0.611,48.348,0.611,72.216c0,8.568,0,17.137,0,25.704c0,3.672,0,7.956,0,11.628
			c0,3.061-1.836,11.628,0,14.076c0-0.611,6.732,3.061,2.448,0.612c1.836,1.224,4.284,2.448,6.12,3.672s3.672,2.448,6.12,3.672
			c5.508,3.061,11.016,5.508,15.912,9.18c29.988,18.36,44.676,59.977,47.124,93.637c2.448-3.061,4.896-6.12,7.344-9.181
			c0,0,0,0,0,0.612c23.868-31.212,41.616-66.096,51.408-104.04c9.18-35.496,13.464-75.276,6.731-111.384
			c0-14.076-5.508-29.988-9.18-43.452c-9.18-31.212-23.868-61.2-42.84-87.516c-38.556-52.632-94.248-91.188-155.448-108.324
			C352.512,105.3,312.732,102.852,274.176,107.748L274.176,107.748z"/>
	</g>
</g>
</svg>
