<?xml version="1.0" encoding="utf-8"?>
<!-- Generator: Adobe Illustrator 16.0.0, SVG Export Plug-In . SVG Version: 6.00 Build 0)  -->
<!DOCTYPE svg PUBLIC "-//W3C//DTD SVG 1.1//EN" "http://www.w3.org/Graphics/SVG/1.1/DTD/svg11.dtd">
<svg version="1.1" id="Layer_1" xmlns="http://www.w3.org/2000/svg" xmlns:xlink="http://www.w3.org/1999/xlink" x="0px" y="0px"
	 width="597.546px" height="596.78px" viewBox="8.223 101.395 597.546 596.78"
	 enable-background="new 8.223 101.395 597.546 596.78" xml:space="preserve">
<g id="Background">
</g>
<g id="Image_Layer">
</g>
<g id="Draw_Layer">
</g>
<g id="Draw_Layer_1_">
	<g>
		<path fill="#232323" d="M287.028,265.644c-3.06,0.612-6.12,1.224-9.18,1.836c-1.836,0.612-4.896,0.612-6.12,1.836
			c-4.284,3.672,0,7.344,3.672,7.956c10.404,1.836,22.032,0,33.048,1.224c3.672,0.612,7.956,3.672,11.016,2.448
			c6.732-1.836,2.448-8.568-1.224-11.016C309.06,264.42,296.82,264.42,287.028,265.644L287.028,265.644z"/>
		<path fill="#232323" d="M290.7,282.78c-7.956,5.508,0,20.808,8.568,14.688C306,291.96,298.656,277.272,290.7,282.78L290.7,282.78z
			 M287.64,290.124C287.64,290.124,287.64,290.736,287.64,290.124L287.64,290.124z"/>
		<path fill="#232323" d="M290.7,283.392c-3.06,0.612-9.18,0.612-11.628,2.448c-1.836,1.836-1.836,5.508,0.612,6.732
			c3.06,1.836,7.956-0.612,11.016-1.224c4.284-0.612,8.568-0.612,12.24,0c3.06,0.612,7.956,3.672,11.016,1.836
			c3.672-2.448,0.612-5.508-1.836-7.344C306.612,282.168,297.432,282.78,290.7,283.392L290.7,283.392z"/>
		<path fill="#232323" d="M362.916,283.392c-8.568,3.672-4.284,17.748,4.284,15.3C376.38,296.856,371.484,281.556,362.916,283.392
			L362.916,283.392z"/>
		<path fill="#232323" d="M362.916,284.616c-3.06,0.612-7.956,1.224-9.792,3.672c-1.836,2.448-0.612,5.508,2.448,6.12
			c3.06,0.612,6.731-1.836,9.792-2.448c4.284,0,7.956,0.612,11.628,1.836c3.06,0.612,7.956,2.448,10.404,0
			c2.447-3.06,0-6.12-3.061-7.344C378.216,283.392,369.648,283.392,362.916,284.616L362.916,284.616z M371.484,291.96
			C372.096,291.96,372.096,291.96,371.484,291.96L371.484,291.96z"/>
		<path fill="#232323" d="M328.644,375.804c-3.06,0.612-17.747,3.06-18.359,6.12c-1.225,6.12,15.912-0.612,18.972-1.224
			c-1.224,0,1.836,0.612,3.061,0.612c1.836,0.612,3.06,1.836,4.896,1.836c4.284,1.224,7.344-1.224,11.016-1.836
			c3.673-0.612,18.973,6.12,18.973-0.612c0.611-6.12-16.524-6.12-20.196-5.508c-2.448,0.612-5.508,2.448-8.568,2.448
			C334.764,378.864,332.316,375.804,328.644,375.804L328.644,375.804z M339.66,378.864
			C339.048,378.864,339.048,378.864,339.66,378.864L339.66,378.864z M331.704,381.924L331.704,381.924L331.704,381.924z"/>
		<path fill="#232323" d="M346.392,387.432c-4.283,0-9.18,0-13.464,0c-3.06,0-9.792,1.836-3.06,3.06c3.672,1.224,9.18,0,13.464,0
			c1.224,0,4.284,0.612,4.896-1.224C347.616,388.656,347.616,387.432,346.392,387.432L346.392,387.432z"/>
		<path fill="#232323" d="M318.852,343.98c-3.06,4.896,30.601,15.3,35.496,11.016c2.448-1.836,1.836-4.896-0.611-6.732
			c-2.448-1.836-7.956-0.612-11.017-1.224c-6.12-0.612-12.239-1.224-18.359-3.672C323.136,343.98,320.076,341.532,318.852,343.98
			L318.852,343.98z"/>
		<path fill="#232323" d="M290.7,281.556c-9.18,2.448-6.732,20.808,3.672,18.36C304.164,298.08,301.716,278.496,290.7,281.556
			L290.7,281.556z M294.372,291.96L294.372,291.96L294.372,291.96z"/>
		<path fill="#232323" d="M365.364,282.168c-9.181,0.612-11.017,18.36-0.612,18.972C375.156,301.14,376.38,281.556,365.364,282.168
			L365.364,282.168z M369.648,292.572C369.648,293.184,369.648,292.572,369.648,292.572L369.648,292.572z"/>
		<path fill="#232323" d="M308.448,268.704c-0.612,1.224-0.612,2.448-0.612,3.672c-3.06-1.224-7.344,0.612-4.896,4.284
			c1.836,1.836,6.12,2.448,8.568,4.284c2.448,1.836,3.061,5.508,6.732,5.508c4.284,0,6.12-4.284,6.12-7.956
			c0-4.284-1.225-7.956-4.896-10.404C316.404,266.256,310.896,264.42,308.448,268.704L308.448,268.704z"/>
		<path fill="#232323" d="M307.224,266.868c-1.835,0-8.568-0.612-8.568,2.448s6.732,1.836,8.568,1.836
			c1.836,0,9.792,1.224,7.956-3.06C314.568,266.256,309.06,266.868,307.224,266.868L307.224,266.868z"/>
		<path fill="#232323" d="M298.044,263.808c-1.836,0-2.448,1.836-2.448,3.06c0.612,1.836,3.06,1.836,4.284,2.448
			c3.06,0.612,11.017,3.06,14.076,1.224c3.06-2.448,0.612-4.896-1.224-5.508C308.448,263.196,301.716,263.808,298.044,263.808
			L298.044,263.808z"/>
		<path fill="#232323" d="M296.208,263.808c-6.12,0.612-11.628,1.836-17.748,3.06c-1.836,0.612-4.896,0.612-5.508,3.06
			c-0.612,1.836,0.612,3.672,2.448,3.672c1.224,0,4.284-1.224,5.508-1.224c3.672-0.612,6.732-0.612,10.404-0.612
			c6.732,0,13.464-0.612,20.196,0c4.896,0,2.448,1.836,5.508,5.508c3.672,4.896,6.732-1.224,5.509-4.896
			c-1.836-5.508-5.509-7.956-11.017-7.344c-3.06,0-5.508,0-7.956,0C301.104,263.808,298.656,263.808,296.208,263.808
			L296.208,263.808z M315.792,272.376C315.792,272.988,315.792,272.988,315.792,272.376L315.792,272.376z"/>
		<path fill="#232323" d="M329.868,375.192c-7.344,0-13.464,4.284-20.809,4.896c-1.836,0-8.567,0-6.12,4.284
			c1.224,2.448,7.344,1.836,9.18,1.224c6.12-0.612,14.688-5.508,20.808-4.284c2.448,0.612,9.792,3.672,7.345-1.836
			C338.436,375.804,332.928,375.192,329.868,375.192L329.868,375.192z M340.271,378.864
			C340.271,379.476,340.271,378.864,340.271,378.864L340.271,378.864z"/>
		<path fill="#232323" d="M194.616,123.66C78.336,170.784,2.448,288.9,8.568,414.36c6.12,121.788,88.128,230.111,203.796,268.668
			c60.588,20.195,127.296,20.195,187.884,0c29.376-9.792,56.916-24.48,82.008-42.841c24.48-18.359,45.288-39.779,64.26-63.647
			c35.496-44.676,55.08-104.04,58.752-161.568c3.673-63.036-12.852-126.072-47.735-178.704
			C489.6,132.84,360.468,80.82,239.292,108.972C223.992,112.644,208.692,117.54,194.616,123.66L194.616,123.66z M47.124,507.384
			C20.196,441.9,18.36,367.848,42.228,301.752c22.644-61.812,67.32-115.056,124.848-148.104
			c57.528-33.048,126.684-44.676,192.168-32.436c64.872,12.852,124.236,48.348,166.464,99.756
			c48.96,59.976,70.38,138.924,60.588,215.424c0,0,0,0,0-0.611c0,0.611,0,0.611,0,0c-5.508,39.779-18.972,76.5-39.78,110.771
			c-12.239-13.464-25.703-25.704-39.779-37.332c-10.404-9.18-21.42-17.748-34.272-23.256c-14.688-6.731-30.6-10.404-45.899-15.3
			c-6.732-1.836-13.465-4.284-18.973-8.568c-1.836-1.224-6.731-4.284-7.344-6.731c-0.612-1.836,2.448-6.12,3.672-9.181
			c6.12-14.688,11.628-29.376,15.912-44.676c3.672-12.852,8.568-24.48,9.792-37.944c3.672-33.048,3.672-64.872-2.448-97.308
			c-4.896-28.152-17.748-57.528-34.271-80.784c-9.792-13.464-23.256-25.092-37.944-31.824c-15.3-7.344-31.212-5.508-47.124-7.956
			c-1.836,0-3.672-0.612-4.896-0.612c-1.224,0.612-2.448,2.448-3.06,2.448c-1.836,0.612-6.732-1.836-9.18-2.448
			c-4.284-0.612-8.568-0.612-12.852-0.612c-16.524,1.224-32.436,11.016-45.288,20.196c-28.152,21.42-45.9,50.796-55.08,84.456
			c-4.896,17.136-6.732,35.496-7.344,53.244c-0.612,17.748,1.836,34.884,2.448,52.02c0.612,9.792,0.612,19.584,1.836,29.376
			c1.224,8.568,4.896,17.748,4.896,26.316c0,9.792,0,18.972-2.448,28.151c-1.224,5.509-8.568,16.524-3.672,21.421
			c-22.032,11.016-45.9,16.523-66.096,31.823c-16.524,12.853-33.048,25.704-44.676,43.452
			C56.916,528.192,52.02,517.788,47.124,507.384L47.124,507.384z M229.5,457.2c-17.748-7.956-31.212-29.376-37.944-47.124
			c-6.732-17.136-7.344-35.496-8.568-53.856c-1.836-22.644-4.896-44.676-3.06-67.932c1.836-23.256,7.344-45.288,17.748-66.096
			c9.18-18.972,23.868-36.108,41.004-48.96c7.956-6.12,16.524-11.628,25.704-15.3c11.016-4.896,20.196-4.284,31.212-2.448
			c2.448,0.612,3.06-0.612,4.896-1.224c0,0,1.836,1.224,2.448,1.224c4.284,0.612,8.568,1.224,12.852,1.836
			c9.792,0.612,20.196,0,29.376,3.06c20.808,6.732,34.884,24.48,44.676,43.452c6.732,12.852,12.853,25.704,18.36,39.168
			c7.956,19.584,11.016,40.392,14.688,60.588v-0.612c3.673,28.152,3.061,55.692-6.12,82.62c-9.18,26.316-15.3,56.916-33.659,78.948
			c0.611-4.284,3.672-14.688,0-17.748c-1.225-1.224-7.345,0.612-7.345-1.836c0-3.672-0.611-4.896,1.836-7.956
			c1.225-1.224,1.837-1.836,2.448-3.672c0-1.224-0.611-1.836-1.224-1.836c0-1.224-0.612-3.672,0-6.12
			c1.224-5.508,3.06-10.404,5.508-15.912c0.612-2.448,1.836-4.284,2.448-6.731c0.612-0.612,3.06-7.344,2.448-5.509
			c4.283-9.792,7.344-19.583,9.792-30.6c1.836-8.568,2.447-17.136,4.283-25.092c1.225-4.284,2.448-9.18,3.673-13.464
			c1.224-4.284,5.508-7.344,6.731-11.628c0.612-3.672-1.224-6.732-4.896-4.284c-3.673,1.836-6.732,8.568-9.181,11.628l0,0
			c4.284-16.524,10.404-32.436,9.181-50.184c-1.225-14.688-6.12-31.824-12.853-45.288c-5.508-11.016-10.404-22.032-17.136-31.212
			c-8.568-11.016-23.868-20.196-37.332-13.464c-1.225,0.612-2.448,1.224-3.672,1.836c-5.508,2.448-5.508,3.06-7.344,2.448
			c-3.061-0.612-6.732-3.06-9.793-3.672c-6.731-1.836-14.075-3.672-20.808-1.836c-14.688,3.06-25.092,18.36-30.6,31.212
			c-10.404,25.704-10.404,53.244-9.18,80.172c0.612,14.688,1.224,29.376-2.448,43.452c-1.836,6.732-3.672,12.852-6.732,18.972
			c-3.672,7.344-7.344,14.688-8.568,23.256l0,0c-2.448-7.344-5.508-14.076-6.732-22.032c-0.612-1.836-0.612-3.672-1.224-5.508
			c-1.224-4.284-3.672-4.284-4.284,0c-1.224,13.464,0.612,27.54,4.284,40.392c1.224,3.672,2.448,7.344,3.06,11.628
			c0.612,3.06,1.836,5.508,3.06,9.18c2.448,6.732,5.508,12.853,9.18,18.973c-4.896-3.061-14.688-9.792-17.136-1.225
			c-2.448,7.956-1.224,17.748-2.448,26.316C230.112,457.812,230.112,457.812,229.5,457.2L229.5,457.2z M334.764,195.876
			c7.956-5.508,14.688-6.12,22.645-0.612c7.956,5.508,12.24,14.688,15.912,23.256c2.447,6.12,7.344,15.3,9.792,23.256
			c3.06,9.18,5.508,18.36,7.956,28.152c-2.448-7.344-17.137-5.508-22.645-4.896c4.284-0.612-3.06,0.612-3.06,0.612
			c-1.225,0-2.448,0.612-4.284,0.612c-2.448,0-4.896,0.612-7.344,0c-2.448,0-3.672-1.224-5.509,1.224
			c-0.611,1.224,0.612,6.12,0,6.732c-0.611-2.448-3.06-4.896-4.896-2.448c-2.448,1.836-0.612,6.732-0.612,9.18
			c1.225,7.344,3.061,14.076,5.508,20.808c4.284,13.464,6.732,27.54,8.568,41.004c0,0.612,0,3.06,1.224,4.284
			c1.837,3.06,5.509,1.836,6.732-1.224c0.612-1.836-0.612-4.896-0.612-7.344c-0.611-3.672-1.224-7.344-1.836-11.016
			c-3.06-15.3-9.18-29.988-12.239-45.288c5.508,4.896,15.3-4.896,21.42-4.896c4.896,0,21.42,3.06,20.195-6.732
			c3.672,16.524,0.612,32.436-3.672,48.96c-1.836,7.344-3.06,14.688-3.06,22.032c0,4.284,2.448,13.464,8.567,7.956
			c-2.447,13.464-5.508,26.928-9.792,39.78c-1.836,6.732-3.672,14.076-6.731,20.808c-1.836,4.284-7.344,9.18-11.628,12.24
			c-8.568,6.731-22.645,7.956-33.048,6.119c-4.284-0.611-8.568-1.224-12.853-1.836c-2.448-0.611-5.508-0.611-7.956-1.224
			c-1.836-0.612-3.672-0.612-5.508-0.612c-0.612,0-4.896-0.611-2.448-0.611c-8.568-1.225-17.136-0.612-25.092-3.672
			c-7.344-3.061-12.852-7.956-17.748-14.076c-1.836-2.448-9.18-12.24-9.792-17.136c-0.612-6.12,1.836-14.688,4.284-19.584
			c3.06-7.344,9.18-12.852,12.852-19.584c3.672-6.12,6.12-12.852,7.956-19.584c3.06-14.688-1.224-31.212-4.284-45.9
			c-2.448-14.688-3.06-29.988-0.612-44.064c2.448-16.524,7.956-30.6,23.256-39.168c6.732-3.672,14.076-6.12,22.032-6.12
			c3.672,0,6.12,1.224,9.18,2.448c2.448,0.612,3.06,0.612,5.508,0C331.092,197.1,334.152,196.488,334.764,195.876L334.764,195.876z
			 M280.908,211.788C280.296,211.788,280.296,211.788,280.908,211.788L280.908,211.788z M275.4,220.356v0.612V220.356L275.4,220.356
			z M269.28,249.732C269.28,250.344,269.28,250.344,269.28,249.732L269.28,249.732z M355.572,331.74L355.572,331.74L355.572,331.74z
			 M249.696,407.628c-2.448-1.836-5.508-4.284-6.732-6.731c-1.224-3.061-2.448-6.732-3.06-9.792
			c-1.836-6.12-3.672-12.852-4.284-19.584c1.836,6.12,4.896,16.524,10.404,20.196c3.06,1.836,0.612-1.224,3.672,1.836
			c1.224,1.224,1.836,3.672,3.06,5.508c1.836,4.284,4.284,8.568,7.344,12.24c-0.612-1.224,2.448,3.061,2.448,3.061
			C257.04,413.136,253.368,410.688,249.696,407.628L249.696,407.628z M318.24,454.752c-14.688-6.12-28.152-14.076-41.616-20.808
			c-11.628-5.509-25.092-12.24-30.6-25.093c6.12,5.509,11.016,11.017,17.748,15.912c6.732,4.896,14.076,8.568,21.42,11.628
			c7.344,3.061,14.688,5.509,22.644,7.956c5.508,1.836,8.568,6.732,12.852,11.017C319.464,454.752,318.852,454.752,318.24,454.752
			L318.24,454.752z M181.152,452.916c3.06-9.792,4.896-18.972,4.896-28.764c4.284,7.956,9.18,16.523,15.3,23.867
			c-1.836,1.225-4.284,2.448-6.12,3.673c1.224-7.345-13.464,3.06-14.688,3.672C180.54,454.752,181.152,453.528,181.152,452.916
			L181.152,452.916z M353.736,435.168c7.344-1.224,14.075-4.284,19.584-9.792c0,3.672,0,3.06-3.672,4.896
			c-1.836,1.224-3.673,2.447-5.509,3.672c-4.283,2.447-8.567,5.508-13.464,7.344c-4.284,1.836-9.18,1.836-14.076,3.672
			c-3.672,1.224-7.344,5.508-10.403,8.568c-3.061-4.896-7.956-10.404-12.24-14.076c-4.896-4.284-12.24-6.732-18.36-9.18
			c0.612,0,0.612,0,0,0c1.224,0,3.672,0.611,3.06,0.611C316.404,432.72,335.988,438.228,353.736,435.168L353.736,435.168z
			 M321.3,426.6C321.3,426.6,322.524,426.6,321.3,426.6L321.3,426.6z M296.82,429.66L296.82,429.66L296.82,429.66z M335.376,514.116
			c-20.808-26.316-47.736-50.796-75.888-68.544c6.732-0.612,0-11.017-1.224-13.464c7.956,5.508,16.524,10.403,25.092,15.911
			c8.568,5.509,16.524,10.404,26.928,12.24c2.448,0.612,4.896,1.225,7.344,1.225c0.612,0,1.224,0,1.836,0
			c1.224-0.612,2.448,0,2.448,1.836c3.06,1.836,4.284,2.447,7.956,1.836c6.731,0,12.852-1.836,18.359-4.284
			c7.956-2.448,18.36-9.792,23.868-17.748c0,1.224,0,3.06,1.225,4.284c-4.896,1.836-8.568,8.567-11.017,12.852
			c-3.672,5.508-7.344,11.628-9.792,18.36c-5.508,12.24-10.403,25.704-14.076,38.556
			C337.212,516.564,335.988,515.34,335.376,514.116L335.376,514.116z M341.496,451.692c9.792,0,18.972-6.732,26.928-11.628
			c-7.344,10.403-21.42,15.911-33.048,18.972c-0.612,0-4.284,0-6.12,0C332.316,455.364,335.988,451.692,341.496,451.692
			L341.496,451.692z M375.156,440.676L375.156,440.676L375.156,440.676z M309.672,444.348L309.672,444.348L309.672,444.348z
			 M375.768,446.796C376.38,446.796,376.38,446.796,375.768,446.796L375.768,446.796z M378.828,450.468
			c0.612,0.612,1.224-0.611,0.612,1.225C379.44,451.08,379.44,450.468,378.828,450.468L378.828,450.468z M339.048,451.08
			C338.436,451.692,338.436,451.692,339.048,451.08L339.048,451.08z M337.824,451.692L337.824,451.692L337.824,451.692z
			 M208.08,454.14C208.08,454.14,208.08,454.752,208.08,454.14L208.08,454.14z M378.828,455.976
			C378.828,455.976,378.216,455.976,378.828,455.976L378.828,455.976z M397.188,460.872
			C397.188,460.872,397.188,461.484,397.188,460.872L397.188,460.872z M355.572,495.144
			C355.572,495.756,355.572,495.756,355.572,495.144L355.572,495.144z M68.544,547.164c0.612-0.612,1.224,0,1.224,1.836
			C69.156,548.388,68.544,547.776,68.544,547.164L68.544,547.164z M344.556,678.744L344.556,678.744L344.556,678.744z"/>
		<path fill="#232323" d="M317.628,460.26c-3.06,6.12-6.731,12.24-10.404,18.36c-1.224,1.836-3.06,3.06-1.835,5.508
			c1.224,3.06,4.896,3.06,6.732,1.224s2.448-4.896,3.06-6.731c1.836-3.061,3.672-6.732,5.508-9.792
			c1.225-2.448,4.284-5.508,3.061-8.568C322.524,457.812,318.852,457.812,317.628,460.26L317.628,460.26z"/>
		<path fill="#232323" d="M328.032,457.2c-6.12,6.12,4.284,12.852,7.956,17.136c3.06,3.061,11.016,17.748,16.523,11.016
			c4.284-5.508-4.284-15.911-7.344-18.972C342.108,461.484,334.152,451.08,328.032,457.2L328.032,457.2z"/>
		<path fill="#232323" d="M325.584,459.648c-4.896,7.344-9.18,15.3-13.464,23.256c-1.224,2.447-5.508,7.344-4.284,10.403
			c1.224,3.673,4.896,3.061,7.344,1.225c4.896-5.508,7.345-14.688,10.404-20.809c1.836-3.06,6.12-7.956,6.12-11.628
			S327.42,456.588,325.584,459.648L325.584,459.648z"/>
		<path fill="#232323" d="M328.032,461.484c-3.672,3.672,11.016,17.136,14.076,20.195c1.836,1.836,11.628,18.973,14.075,9.181
			c1.225-4.896-9.792-14.688-12.852-17.748C341.496,470.664,332.316,457.812,328.032,461.484L328.032,461.484z"/>
		<path fill="#232323" d="M232.56,359.28c0,3.672,0.612,6.732,1.224,10.404c0.612,1.836,0.612,2.448,0,3.672
			c-0.612,1.224-1.836,1.836-2.448,3.06c-1.224,3.672,1.224,9.18,2.448,12.852c1.224,4.284,11.628,33.048,18.972,22.644
			c1.224,1.836,3.06,5.508,5.508,6.12c2.448,1.224,4.896-0.612,4.284-3.672c-0.612-3.061-4.896-7.345-6.732-10.404
			c-2.448-3.672-4.284-7.344-6.732-11.016c-1.836-3.06-4.284-5.508-5.508-8.568c-1.836-3.672-3.06-7.956-4.896-11.628
			c-1.836-3.06-2.448-6.732-2.448-10.404c0-1.224,0-3.06-0.612-4.284C234.396,357.444,232.56,356.832,232.56,359.28L232.56,359.28z"
			/>
		<path fill="#232323" d="M230.724,353.16c-1.836,2.448-1.224,7.956-0.612,11.016c0,3.672,0,7.344,0.612,11.016
			c0.612,7.344,2.448,15.3,4.284,22.032c2.448,9.181,6.12,18.36,9.792,26.929c2.448,5.508,4.896,15.3,10.404,18.972
			c4.284,3.06,4.284-1.224,3.06-4.284c-1.836-4.284-4.284-7.956-6.12-12.24c-1.224-2.447-1.836-4.283-3.06-7.344
			c-5.508-12.852-10.404-28.764-12.24-40.392c-0.612-6.732-1.224-14.076-1.224-20.808
			C235.62,356.832,235.008,349.488,230.724,353.16L230.724,353.16z"/>
		<path fill="#232323" d="M372.096,421.092c-5.508,3.061-12.239,6.12-16.523,10.404c-4.896,4.896-0.612,8.568,4.896,7.344
			c5.508-1.224,11.017-5.508,15.912-8.568C381.276,426.6,378.216,417.42,372.096,421.092L372.096,421.092z"/>
		<path fill="#232323" d="M377.604,411.912c-3.672,1.836-3.672,14.688-3.672,18.359c-0.611,5.509-3.06,12.853-0.611,18.973
			c1.224,2.448,3.672,3.06,4.896,4.896c1.225,1.836,0,6.732,0,8.568c0,2.448-0.611,6.12,1.225,7.956s4.283,1.224,6.119-0.612
			c2.448-3.672,1.837-12.852,1.225-17.136c-0.612-4.896-4.284-4.896-5.508-9.18c-0.612-3.672,0-8.568,0.611-12.24
			c0-1.225,0-3.061,0-4.284s0-3.06,0-4.284c0,0,0.612-6.12,0-3.672C382.5,416.808,383.112,409.464,377.604,411.912L377.604,411.912z
			 M377.604,452.916C377.604,453.528,377.604,453.528,377.604,452.916L377.604,452.916z"/>
		<path fill="#232323" d="M392.904,372.744c-2.448,12.24-6.732,23.868-10.404,36.107c-1.224,4.284-4.284,11.629-3.06,15.912
			c1.836,6.12,3.672-0.611,4.283-3.672c1.836-7.956,3.061-15.3,5.509-23.256c1.836-4.896,3.672-9.792,4.896-14.688
			c0.612-1.836,3.06-7.956,2.448-9.792C395.352,372.132,393.516,370.908,392.904,372.744L392.904,372.744z"/>
		<path fill="#FFFFFF" d="M276.624,154.26c-12.852,1.836-25.092,9.792-35.496,17.136c-11.016,7.956-21.42,17.748-29.988,28.764
			c-17.136,22.644-27.54,50.796-30.6,78.948c-1.224,13.464-2.448,26.316-1.224,39.78c0.612,13.464,3.06,26.316,3.672,39.168
			c0.612,12.24,1.224,25.092,4.284,36.72c3.06,12.852,8.568,25.092,15.912,36.108c4.284,6.732,9.18,12.853,15.3,18.36
			c1.836,1.836,9.792,8.568,12.24,7.344c1.224-0.612,1.224-9.18,1.224-11.016c0.612-3.672,0.612-7.956,1.224-11.628
			c1.224-10.404,7.956-7.345,14.688-3.672c-9.792-25.093-20.808-50.796-16.524-78.336c0.612-3.672,2.448-6.12,4.284-1.224
			c0.612,1.836,0.612,3.672,1.224,5.508c1.224,7.344,3.06,15.3,6.732,22.032c1.224-12.852,9.18-23.868,12.852-35.496
			c4.284-14.688,5.508-29.376,4.284-44.676c-1.836-26.928-3.672-56.304,6.732-81.396c4.896-12.24,11.016-22.644,22.032-30.6
			c5.508-4.284,12.24-6.12,19.583-5.508c3.061,0,6.732,1.224,9.792,1.836c3.673,1.224,7.956,3.672,11.629,4.284
			c1.836,0,1.836,0,3.672-1.224c1.836-0.612,3.06-1.836,4.896-2.448c3.061-1.224,6.12-2.448,9.792-2.448
			c7.344,0,14.076,3.06,19.584,7.344c11.628,8.568,17.136,22.644,23.256,34.884c6.732,13.464,11.628,28.764,14.688,43.452
			c3.672,20.196-3.061,37.944-7.956,56.916c2.448-3.06,5.508-9.792,9.18-11.628c2.448-1.224,5.508,0,5.508,3.06
			c0,3.672-3.672,6.732-5.508,9.792c-1.836,3.672-2.448,7.956-3.672,11.628c-4.284,15.912-4.284,32.436-9.792,48.348
			c-4.284,12.24-6.732,25.092-10.404,37.944c-1.836,5.508-1.836,11.016-1.836,17.136c0,1.224-0.611,3.672,0,4.896
			c0.612,1.225,0-1.224,1.836,1.225c3.672,4.284,3.672,7.956,3.672,13.464c15.912-23.256,22.645-51.408,31.213-77.724
			c8.567-25.704,8.567-52.632,4.896-78.948c0,0.612,0,0.612,0,1.224c-1.224-26.316-10.404-52.02-20.196-75.888
			c-13.464-30.6-33.659-69.768-71.604-70.992c-8.568,0-17.136-0.612-25.704-1.836c-0.612,0-1.836-0.612-2.448-0.612
			c-0.612,0-1.224-0.612-1.836-1.224c-0.612,0.612-1.224,0.612-1.224,1.224c-2.448,0-4.284,0-6.732-0.612
			C287.028,154.26,282.132,153.648,276.624,154.26L276.624,154.26z"/>
		<path opacity="0.2" fill="#232323" d="M269.28,118.764c-70.38,9.792-134.64,45.9-179.928,100.368
			C42.84,275.436,20.808,348.876,26.316,421.704c3.06,41.004,15.912,80.784,36.108,116.28c12.24-17.748,28.764-31.824,46.512-44.677
			c19.584-14.075,42.84-20.195,64.26-30.6c-4.896-4.896,2.448-15.912,3.672-21.42c2.448-8.568,3.06-17.748,2.448-26.316
			c0-7.344-2.448-14.688-3.672-21.42c-1.836-9.18-1.836-17.748-2.448-26.928c-0.612-15.3-2.448-30.6-3.06-45.9
			c-0.612-15.912,1.224-32.436,3.06-48.348c4.284-33.048,18.36-66.096,41.616-89.964c11.628-11.628,23.868-20.808,38.556-28.152
			c6.732-3.672,14.076-6.732,22.032-7.344c4.284-0.612,8.568-0.612,12.852,0c2.448,0.612,8.568,3.06,11.016,2.448
			c0.612,0,1.836-2.448,3.06-2.448c1.224-0.612,1.836,0,3.06,0c1.835,0,3.06,0.612,4.896,0.612
			c8.567,1.224,17.136,0.612,25.092,1.836c16.524,2.448,31.824,11.628,44.064,22.644c11.016,10.404,19.584,23.256,26.315,36.72
			c6.732,12.852,13.464,27.54,17.748,41.616c4.284,14.688,6.12,30.6,7.344,45.9c1.225,15.3,2.448,31.212,0.612,47.124
			c-1.224,14.076-2.448,28.152-6.12,41.616c-4.284,13.464-7.344,27.541-12.24,41.004c-3.06,7.956-6.731,15.912-9.792,23.256
			c-0.611,1.224-3.06,5.508-3.06,6.12c0,1.224,3.06,3.672,3.672,4.284c3.06,3.06,7.344,5.508,11.628,7.344
			c15.3,7.344,32.437,9.18,48.348,15.912c14.688,5.508,27.54,14.076,39.169,24.479c15.3,12.24,29.987,25.704,43.451,40.393
			c20.809-33.66,33.66-71.604,39.78-110.772v0.612c9.18-69.156-7.956-139.536-47.124-197.676
			c-37.944-55.692-95.472-96.696-159.731-113.832C343.332,116.316,306,114.48,269.28,118.764L269.28,118.764z"/>
	</g>
</g>
</svg>
