<?xml version="1.0" encoding="utf-8"?>
<!-- Generator: Adobe Illustrator 16.0.0, SVG Export Plug-In . SVG Version: 6.00 Build 0)  -->
<!DOCTYPE svg PUBLIC "-//W3C//DTD SVG 1.1//EN" "http://www.w3.org/Graphics/SVG/1.1/DTD/svg11.dtd">
<svg version="1.1" id="Layer_1" xmlns="http://www.w3.org/2000/svg" xmlns:xlink="http://www.w3.org/1999/xlink" x="0px" y="0px"
	 width="610.892px" height="609.665px" viewBox="0 96.426 610.892 609.665" enable-background="new 0 96.426 610.892 609.665"
	 xml:space="preserve">
<g id="Background">
</g>
<g id="Image_Layer">
</g>
<g id="Draw_Layer">
</g>
<g id="Draw_Layer_1_">
	<g>
		<path fill="#232323" d="M241.128,268.704c-3.672,0-6.732,0-9.792,2.448c-2.448,1.836-7.344,7.956-2.448,9.18
			c4.284,1.224,7.956-4.896,11.628-5.508c1.836,0,2.448,0,4.284,0.612c0.612,0,6.12,2.448,4.896,1.836
			c5.508,2.448,11.628,4.896,17.136,6.732c2.448,0.612,11.016,2.448,6.732-2.448c-3.672-3.672-11.628-6.732-16.524-8.568
			C252.144,270.54,246.636,268.704,241.128,268.704L241.128,268.704z M242.352,274.824
			C241.74,274.824,241.74,274.824,242.352,274.824L242.352,274.824z"/>
		<path fill="#232323" d="M344.556,265.644c-5.508,0.612-34.271,8.568-29.987,15.912c3.06,4.896,12.239-1.836,15.912-3.672
			c5.508-2.448,12.239-4.284,17.136-5.508c6.12-0.612,10.403,3.06,15.912,6.12c1.836,1.224,7.956,4.284,6.731-0.612
			c-0.611-3.06-8.567-6.12-11.016-7.956C354.96,267.48,350.064,265.032,344.556,265.644L344.556,265.644z"/>
		<path fill="#232323" d="M255.204,285.84c-6.732,3.06-5.508,17.748,3.06,14.076c3.06-1.224,6.12-5.508,5.508-9.18
			C263.16,287.676,258.264,284.616,255.204,285.84L255.204,285.84z"/>
		<path fill="#232323" d="M338.436,285.228c-10.403,1.224-9.792,18.972,1.225,17.136
			C349.452,301.14,350.064,284.004,338.436,285.228L338.436,285.228z"/>
		<path fill="#232323" d="M252.144,286.452c-3.672,0.612-8.568,2.448-11.628,4.896c-3.672,3.672-1.224,6.12,3.06,3.672
			c4.284-2.448,5.508-4.284,11.016-4.284c3.06,0,7.956,1.224,9.18,1.836c1.836,0.612,5.508,3.06,6.12,3.672
			c1.224,1.224,4.896,5.508,6.12,2.448c0.612-1.836-2.448-4.896-3.672-5.508C267.444,288.288,259.488,285.228,252.144,286.452
			L252.144,286.452z M257.652,290.736L257.652,290.736L257.652,290.736z M252.756,290.736
			C252.144,290.736,252.144,290.736,252.756,290.736L252.756,290.736z M276.012,296.856
			C276.012,297.468,276.012,297.468,276.012,296.856L276.012,296.856z M270.504,296.244L270.504,296.244L270.504,296.244z"/>
		<path fill="#232323" d="M340.884,285.228c-6.12,0-19.584,3.06-20.808,10.404c-1.836,7.956,12.24-2.448,14.688-3.06
			c3.672-1.224,7.956-0.612,11.628,0.612c3.061,0.612,6.12,4.284,8.568,4.284c4.896,0.612,0.612-4.896-0.612-6.12
			c-2.447-3.06-6.731-5.508-9.792-5.508c-0.611,0,0,0,0,0l0,0C343.944,285.228,341.496,285.228,340.884,285.228L340.884,285.228z
			 M356.796,294.408C357.408,295.02,357.408,295.02,356.796,294.408L356.796,294.408z"/>
		<path fill="#232323" d="M285.804,301.752c0,10.404-1.224,20.808-2.448,31.212c0,0.612-0.612,4.284-0.612,5.508
			c0,1.836-0.612,11.628,3.06,6.12c1.836-2.448,1.836-9.18,2.448-12.852c0.612-4.896,1.224-9.792,1.836-14.688
			c0.612-4.284,0.612-8.568,0.612-13.464c0-1.224,0.612-3.672-1.224-4.284C287.64,299.304,285.804,299.916,285.804,301.752
			L285.804,301.752z M283.356,333.576C283.356,332.964,283.356,332.352,283.356,333.576L283.356,333.576z"/>
		<path fill="#232323" d="M299.268,348.264c-4.284,0-17.748-1.224-19.584,3.06c-3.06,7.344,15.3,3.06,17.748,3.06
			c3.672,0,17.748,1.224,18.972-3.06C318.852,345.816,302.94,348.264,299.268,348.264L299.268,348.264z"/>
		<path fill="#232323" d="M323.748,380.088c-10.404,2.448-21.42,2.448-31.212,3.672h-0.612c-2.448,0.612-6.12,0-9.18,0
			c-1.836,0-12.24-3.06-12.852-3.06c-2.448,2.448,14.076,6.12,16.524,6.12c7.344,1.224,15.912,0,23.256,0
			c4.284,0,8.568-0.612,12.24-2.448c1.224-0.612,3.672-1.224,3.672-2.448C326.196,380.7,325.584,379.476,323.748,380.088
			L323.748,380.088z M279.072,383.148C279.684,383.148,279.684,383.148,279.072,383.148L279.072,383.148z M292.536,383.76
			C292.536,383.76,293.148,383.76,292.536,383.76L292.536,383.76z"/>
		<path fill="#232323" d="M304.776,372.744c-4.284,0-6.732,2.448-10.404,2.448c-2.448,0-4.284-1.836-7.344-1.224
			c-2.448,0-4.284,1.224-6.12,2.448c-1.224,0.612-4.896,1.836-5.508,3.672c-0.612,3.672,3.672,1.224,4.284,0.612
			c4.896-1.836,6.732-3.06,12.24-1.836c4.896,1.224,7.956-1.836,12.852-1.224c3.672,0.612,11.016,6.732,14.076,5.508
			C326.808,378.864,307.224,372.744,304.776,372.744L304.776,372.744z M294.984,375.192L294.984,375.192L294.984,375.192z
			 M296.208,375.804C295.596,375.804,295.596,375.804,296.208,375.804L296.208,375.804z M294.984,375.804L294.984,375.804
			L294.984,375.804z M305.388,377.028C306,377.028,306,377.028,305.388,377.028L305.388,377.028z M309.06,377.64
			C309.672,378.252,309.672,378.252,309.06,377.64L309.06,377.64z M309.06,377.64C309.672,378.252,309.672,378.252,309.06,377.64
			L309.06,377.64z M298.044,374.58L298.044,374.58L298.044,374.58z"/>
		<path fill="#232323" d="M278.46,389.88c-3.06,5.508,15.3,7.344,17.748,6.732c3.672,0,20.196,0,21.42-3.672
			c1.836-4.284-4.284-2.448-6.12-2.448c-4.896,0.612-9.792,0.612-14.688,1.224c-3.672,0-7.344,0-11.016-0.612
			C284.58,390.492,280.296,386.82,278.46,389.88L278.46,389.88z"/>
		<path fill="#232323" d="M282.132,97.344C154.224,107.136,43.452,198.936,10.404,322.56
			c-32.436,121.788,15.3,254.592,118.116,327.42c97.92,69.768,235.008,75.888,337.212,10.403
			c53.855-34.271,97.308-83.231,121.787-142.596c24.48-59.364,29.988-126.072,15.301-188.496
			C572.22,203.22,460.224,108.36,331.092,97.344C315.18,96.12,298.656,96.12,282.132,97.344L282.132,97.344z M265.608,107.136
			L265.608,107.136L265.608,107.136z M73.44,580.824C11.628,499.428-4.284,389.88,33.048,293.796
			c35.496-91.188,118.116-159.732,214.2-179.316c56.916-12.24,117.504-6.12,171.36,16.524c0,0,0,0-0.612,0c0.612,0,0.612,0,0,0
			c63.647,26.316,116.28,74.664,148.104,135.864c33.049,63.036,41.616,137.088,24.48,206.244
			c-9.792,39.779-27.54,76.5-52.021,108.936l0.612-0.612c-0.612,1.225,0,0,0,0c-19.584,25.093-42.84,47.124-68.544,64.261l0,0
			c10.404-23.868,12.24-48.96,8.568-74.664c-1.836-15.3-6.12-30.601-14.076-44.676c-5.508-10.404-13.464-19.584-20.196-29.376
			c-2.448-3.673-4.896-7.345-7.956-11.017c-6.12-8.568-12.852-14.688-20.196-22.032l0,0c4.284,0,7.956,0,12.24,0
			c2.448,0,4.896,0,7.344,0.612c1.837,0,5.509,1.836,7.345,1.224c6.12-1.836-2.448-15.3-4.284-18.359
			c-1.224-3.061-2.448-4.896-3.672-8.568c-12.853-35.496-9.181-72.216-4.896-108.936c3.672-35.496,3.672-71.604-1.224-107.1
			c-3.672-27.54-13.464-56.304-35.496-74.052c-11.016-9.18-25.092-14.076-39.168-17.136c-7.344-1.836-15.3-2.448-22.645-1.836
			c-4.283,0.612-7.344,0.612-11.628,0c-6.731-1.224-13.464-3.06-20.808-2.448c-7.956,0.612-14.688,3.06-22.032,6.12
			c-10.404,4.896-20.196,11.016-29.376,17.748c-53.244,41.004-80.784,112.608-75.888,178.704c1.836,27.54,9.792,55.08,12.852,82.621
			c1.836,14.075,3.06,28.764,0.612,42.84c-0.612,2.447-1.224,5.508-1.836,7.956c-0.612,1.836-0.612,3.672-2.448,4.896
			c-1.224,1.225-4.284,0.612-5.508,0.612c-3.672-0.612-6.12-3.061-9.18-3.672c-1.836-0.612-2.448,0-3.672,1.224
			c-1.836,3.061,0,9.792,1.224,12.853c1.224,3.672,3.06,7.344,6.732,9.792h-0.612c-13.464,0.611-23.868,15.911-31.212,25.092
			c-8.568,10.403-15.912,21.42-23.256,33.048c-10.404,16.523-20.196,33.048-30.6,48.96C82.008,591.228,77.724,586.332,73.44,580.824
			L73.44,580.824z M182.376,482.292c8.568-13.464,10.404-29.376,9.792-45.288c0-16.523-1.836-32.436-4.284-48.96
			c-3.06-22.644-9.792-44.676-9.792-67.32c0-28.764,4.284-57.528,14.688-84.456c8.568-22.644,23.256-42.84,40.392-59.976
			c12.24-11.628,27.54-21.42,41.616-29.988c10.404-6.12,22.032-12.24,34.271-11.016h-0.611c-3.06,1.224-1.836,4.896,0.611,5.508
			c3.061,0.612,7.956-1.836,9.792-2.448c3.061-0.612,6.732-1.836,9.792-1.836c12.853-1.224,25.093,1.836,36.721,5.508
			c22.644,7.956,35.496,21.42,45.899,42.228c12.853,25.704,14.688,57.528,15.301,86.292c0.611,30.6-3.673,60.588-6.732,91.188
			c-3.672,34.272,0,70.992,19.584,100.368l0,0c-7.344-1.224-15.912-1.836-23.256-1.836c-3.061,0-7.344-0.611-8.568,2.448
			c-1.224,2.448,1.225,7.344,1.836,9.792l0,0c-15.912-4.896-34.884-2.448-50.796,0.612c-7.956,1.224-15.912,3.06-23.256,6.731
			c-6.12,3.061-10.404,9.792-16.524,11.017c0-0.612,1.225-1.836,1.225-1.836c0-5.509,0-10.404,0.611-15.912
			c0.612-4.284,1.225-8.568,2.448-12.853c4.284-14.076,13.464-26.315,22.645-37.943c11.628-15.912,18.972-33.661,25.092-52.632
			c6.731-20.808,13.464-42.228,18.972-63.036c7.956-28.764,7.344-63.648-7.956-89.352c-4.896-8.568-11.628-17.748-20.195-22.644
			c-8.568-4.896-17.748-4.284-26.929-2.448c-3.672,0.612-7.344,1.836-10.403,3.06c-3.061,1.224-11.628,3.06-12.853,7.344
			c-1.224,7.344,11.628,1.224,14.688,0c11.016-3.672,23.868-7.344,34.271-0.612c9.181,6.12,15.912,17.136,20.809,26.928
			c4.896,10.404,6.731,21.42,7.344,32.436c0.612,11.628,1.224,23.868-1.225,35.496c0-4.896-1.836,4.896-1.836,5.508
			c-0.611,3.06-2.447,8.568-2.447,9.792c-1.836,14.076-7.956,28.152-12.24,42.228c-4.284,14.688-9.18,29.376-15.3,42.84
			c-4.896,11.628-15.301,17.137-25.704,24.48c-11.017,7.344-26.316,14.688-39.78,11.016c-7.344-1.836-12.24-5.508-18.36-11.628
			c-9.18-9.18-17.748-19.584-25.092-29.988c-7.956-11.628-15.912-24.48-18.972-38.556c-3.06-14.076-4.896-28.764-6.12-42.84
			c-1.224-15.912-2.448-32.436,1.224-47.736c3.06-15.3,11.016-26.928,23.256-36.108c-1.836,1.224,3.06-1.836,3.672-2.448
			c1.836-1.224,4.284-2.448,6.12-3.672c3.672-1.836,7.956-3.672,12.24-4.896c9.18-3.06,18.36-4.896,27.54-6.12
			c1.836,0,8.568-1.836,4.284-4.896c-1.836-1.836-9.792,0.612-12.24,0.612c-10.404,1.224-20.196,3.672-30.6,7.344
			c-25.092,9.792-42.84,30.6-44.064,58.14c-1.836,30.6,6.12,60.588,11.628,90.576c3.672,19.584,5.508,39.78,5.508,59.977
			c0,5.508,0,11.016-1.224,15.911c-0.612,3.061-1.836,7.345-3.672,10.404c-2.448,3.672-6.732,6.732-9.18,9.792
			c-4.896,4.896-8.568,10.404-12.24,15.912c-4.896,6.732-11.628,12.852-20.196,14.076c-11.016,1.836-17.136-6.12-17.136-16.524
			c3.672,1.836,9.792,5.508,14.688,3.061l0,0c-1.224,2.447-3.672,4.896-3.672,7.344S180.54,485.964,182.376,482.292L182.376,482.292
			z M258.264,217.296C258.264,217.908,258.264,217.908,258.264,217.296L258.264,217.296z M12.852,360.504
			C12.852,359.28,12.852,360.504,12.852,360.504L12.852,360.504z M232.56,440.064c2.448-10.404,1.836-21.421,1.224-32.437
			c-0.612-12.24-1.836-23.868-3.672-36.108c4.896,11.628,11.628,23.256,19.584,33.048c6.12,7.344,5.508,22.644,6.732,31.823
			c1.224,6.732,2.448,13.465,3.672,20.196c0.612,1.836,0.612,6.12,3.06,5.508c3.06,0,1.836-5.508,1.836-7.344
			c-1.224-13.464-3.672-26.316-5.508-39.168c9.792,11.016,22.032,22.032,37.944,22.644c16.524,0.612,31.211-9.792,44.064-18.359
			c-10.404,14.076-20.809,28.764-24.48,45.899c-0.611,4.284-1.224,9.181-1.224,13.465c0,3.672-1.224,4.896-1.836,9.18
			c0,2.448-1.224,5.508,0,7.344c1.836,4.284,7.344,2.448,11.016,1.225c-2.447,4.283-5.508,7.955-8.567,11.628
			c-1.225,1.836-3.061,4.896-4.896,6.119c-1.836,1.225-1.836,0.612-4.284,0c-7.344-1.224-22.032,0-27.54,5.509
			c-5.508,5.508-8.568,15.3-12.852,22.031c-6.12,9.181-12.852,17.748-19.584,26.316c-23.256,30.6-44.064,66.708-49.572,105.264
			c-16.524-6.731-31.824-14.688-46.512-24.479c-7.344-4.896-14.688-9.792-22.032-15.3c-1.224-0.612-2.448-1.836-3.672-2.448
			c0.612-0.612,0.612-1.224,1.224-1.836c0.612-1.836,3.06-4.284,4.284-6.12c3.06-4.284,5.508-9.18,8.568-13.464
			c4.284-7.344,10.404-14.076,13.464-21.42c3.672-7.956,6.12-16.524,9.18-24.48c6.12-17.748,10.404-35.496,14.688-53.244
			c2.448,1.225,4.896,1.837,7.956,3.061c5.508,2.448,11.016,4.284,15.912,7.956c5.508,3.672,6.732,9.18,7.956,15.912
			c1.836,12.239,1.836,24.479,0,36.72c-1.224,6.12-1.836,12.852-2.448,18.36c0,1.836-1.224,5.508-1.224,7.344
			c0.612,1.836,1.224,2.448,1.224,4.284c-0.612,3.06-9.792,12.239-6.732,14.688c3.672,3.061,7.956-7.344,9.792-9.792
			c3.672-6.12,7.344-11.628,11.016-17.748c7.344-11.628,14.076-23.256,21.42-35.496c7.344-12.239,13.464-23.256,12.852-38.556
			c-0.612-7.344-1.836-14.688-3.06-22.032c-1.836-6.731-4.896-12.852-6.732-20.196c9.792-0.611,18.972-0.611,28.764-2.447
			s18.972-4.284,28.764-7.345c3.672-1.224,11.016-1.836,13.464-4.283c2.448-2.448,1.224-4.896-1.836-4.896
			c-3.672,0-9.18,3.061-13.464,3.672c-4.896,1.225-9.18,3.061-14.076,3.672c-7.344,1.836-15.3,2.448-23.256,2.448
			c-4.284,0-8.568,0-12.852,0c-3.672,0-10.404-1.224-12.852,2.448c-4.284,6.12,3.672,15.912,4.896,21.42
			c0.612,2.448,0.612,2.448,0,4.284c-0.612,2.448-1.836,4.284-3.06,6.731c-1.836,4.896-3.672,9.181-4.896,14.076
			c-6.732,20.196-9.792,41.004-18.36,61.2c2.448-15.912,2.448-32.437-1.836-48.348c-4.284-15.301-20.808-20.196-33.66-25.093
			c1.836-1.224,23.256-12.852,16.524-17.136c4.896-3.06,9.18-7.344,12.852-11.628c2.448-2.448,2.448-4.896,4.896-7.344
			c5.508-6.12,11.628-13.464,17.748-18.973c4.284-3.672,8.568-7.344,12.852-10.403c2.448-1.836,10.404-5.508,11.016-8.568
			c1.836-6.12-7.344,0-9.18,0.612C242.964,432.72,233.172,438.228,232.56,440.064L232.56,440.064z M356.796,391.104
			C356.796,391.716,356.796,391.716,356.796,391.104L356.796,391.104z M12.852,441.288
			C12.852,440.676,12.852,443.124,12.852,441.288L12.852,441.288z M225.828,454.752L225.828,454.752L225.828,454.752z
			 M277.236,466.38C276.624,466.38,276.624,466.38,277.236,466.38L277.236,466.38z M343.944,484.128
			C343.332,484.74,343.332,484.74,343.944,484.128L343.944,484.128z M188.496,490.86L188.496,490.86L188.496,490.86z
			 M181.152,495.756C181.764,495.756,181.152,495.756,181.152,495.756L181.152,495.756z M227.052,561.852
			c6.12-18.972,7.956-39.779,16.524-58.752c3.06,12.24,4.284,24.48-0.612,36.108c-2.448,5.508-6.12,9.792-9.18,14.688
			c-3.672,6.119-7.956,12.852-11.628,18.972C224.604,569.196,225.828,565.524,227.052,561.852L227.052,561.852z M242.964,503.712
			C242.964,504.324,242.964,504.324,242.964,503.712L242.964,503.712z M176.868,511.668
			C176.256,511.668,176.868,511.668,176.868,511.668L176.868,511.668z M148.104,589.392L148.104,589.392L148.104,589.392z
			 M121.176,628.56C120.564,629.784,121.176,629.172,121.176,628.56L121.176,628.56z M212.364,637.128
			C212.364,637.74,212.364,637.74,212.364,637.128L212.364,637.128z M198.288,675.072c3.06,1.224,6.732,2.447,9.792,3.672
			C205.02,677.52,201.348,676.296,198.288,675.072L198.288,675.072z M345.78,692.82c7.344-1.225,14.688-2.448,21.42-3.672
			C360.468,690.372,352.512,692.208,345.78,692.82L345.78,692.82z M266.832,692.82c-0.612,0-0.612,0-1.224,0
			c2.448,0.611,5.508,0.611,7.956,1.224C271.728,693.432,269.28,693.432,266.832,692.82L266.832,692.82z"/>
		<path fill="#232323" d="M195.228,693.432C195.228,693.432,193.392,692.82,195.228,693.432L195.228,693.432z"/>
		<path fill="#232323" d="M253.98,422.316L253.98,422.316L253.98,422.316z"/>
		<path fill="#232323" d="M320.688,196.488c-3.06,0-6.731,3.672-9.18,4.896c-2.448,1.224-4.284,1.224-6.732,1.224
			c-3.672,0-17.136-1.224-15.912,4.284c1.224,4.896,18.972,3.06,22.032,0.612c1.224-0.612,1.224-1.836,1.836-2.448
			c1.224-0.612,3.06-1.224,4.896-2.448C318.24,202.608,326.196,196.488,320.688,196.488L320.688,196.488z"/>
		<path fill="#FFFFFF" d="M302.328,135.288c-12.852,2.448-23.868,8.568-34.272,15.912c-12.852,8.568-25.704,16.524-36.72,27.54
			c-17.136,17.748-30.6,37.332-39.168,60.588c-9.792,26.928-14.076,56.304-13.464,85.068c0.612,25.092,7.956,48.96,11.016,74.052
			c1.836,17.748,4.284,36.72,2.448,55.08c-1.224,9.18-3.06,17.748-7.344,25.704c-1.224,1.836-4.284,7.955-6.732,3.672
			c-1.224-2.448,1.836-6.732,3.06-9.181c-4.896,0.612-10.404,0.612-14.688-3.06c-1.836,5.508,3.06,13.464,7.956,15.912
			c7.344,3.06,15.912-0.612,22.032-4.896c6.12-4.896,9.18-11.628,13.464-17.136c4.896-6.12,11.628-10.404,15.912-17.136
			c5.508-8.568,4.896-20.809,4.896-30.601c-0.612-28.764-5.508-56.304-11.016-84.456c-2.448-12.24-4.284-24.48-5.508-37.332
			c-1.836-14.076-1.836-29.988,2.448-43.452c7.344-21.42,25.092-34.272,45.288-41.004c8.568-3.06,17.136-4.896,25.704-6.12
			c6.12-0.612,11.016-0.612,17.136-1.224c3.06,0,5.508-0.612,7.344-2.448c1.836-1.224,1.836-1.836,3.672-3.06
			c1.836-1.224,4.284-1.836,6.732-2.448c3.672-1.224,7.344-2.448,11.628-3.672c15.912-3.672,29.376-0.612,39.779,12.24
			c7.956,9.792,14.688,21.42,17.748,33.66c7.345,27.54,3.672,55.692-4.896,82.008c-6.12,20.196-11.628,40.392-18.972,59.976
			c-3.061,7.956-6.12,16.524-9.793,23.868c-4.283,7.956-9.18,15.3-14.688,22.645c-7.956,10.403-15.912,22.031-19.584,34.884
			c-1.224,3.672-1.836,6.732-2.448,10.404c-0.612,2.447,0,20.808-1.836,20.808c2.448-0.612,3.672-1.224,5.508-3.672
			c3.061-3.061,6.732-5.508,11.017-7.956c7.344-3.672,15.3-5.508,23.256-6.732c16.523-2.447,34.884-5.508,50.796-0.611
			c-2.448-8.568-3.672-12.24,7.344-12.24c7.344,0,15.3,0,23.256,1.836c-2.447-5.508-6.12-9.792-8.567-15.3
			c-3.672-7.956-6.12-15.912-8.568-24.48c-4.284-17.748-4.896-34.884-3.672-52.632c1.836-29.988,7.344-58.752,7.344-89.352
			c0-29.988-0.611-63.648-13.464-91.8c-7.956-17.748-18.972-33.66-36.72-41.616c-13.464-6.732-29.988-11.016-45.288-10.404
			c-3.672,0-7.344,0.612-11.017,1.836c-3.06,0.612-7.344,3.06-9.791,3.06c-3.061,0-4.896-3.672-1.225-4.896
			C307.224,135.288,304.776,135.288,302.328,135.288L302.328,135.288z"/>
		<path fill="#C2C2C2" d="M267.444,110.808C186.66,121.824,111.996,166.5,65.484,233.82C17.136,302.976,0.612,391.716,21.42,473.724
			c11.628,45.288,34.272,87.517,64.872,123.013c10.404-17.137,20.808-34.272,31.824-51.408
			c6.732-11.017,14.076-22.032,22.644-31.824c7.344-9.18,17.136-23.256,29.988-23.868c-4.284-4.896-9.792-14.076-7.344-21.42
			c1.224-4.284,3.672-1.836,6.732-0.611c2.448,1.224,6.12,2.447,9.18,1.836c4.284-0.612,4.284-3.061,5.508-7.345
			c0.612-2.447,1.224-4.896,1.836-7.956c1.224-6.731,0.612-13.464,0.612-20.195c-0.612-30.601-8.568-59.364-12.852-89.353
			c-9.18-61.2,11.628-129.132,53.244-174.42c16.524-18.36,42.84-39.168,68.544-42.84c7.344-1.224,14.076,0.612,20.808,1.836
			c4.896,1.224,8.568,1.224,13.465,0.612c15.3-1.836,30.6,2.448,44.063,7.956c59.364,23.256,59.976,102.204,58.752,156.06
			c-0.612,36.72-10.404,72.828-6.12,109.548c1.836,14.076,4.896,28.152,10.404,41.004c1.836,4.284,12.852,21.42,4.896,22.032
			c-3.672,0.612-8.567-1.224-12.239-1.836c-4.284,0-8.568-0.612-13.464-0.612c6.119,6.12,12.239,11.628,17.748,18.973
			c2.447,3.06,4.896,6.731,7.344,10.403c7.344,10.404,15.3,20.196,22.032,30.601c15.3,26.315,19.584,61.2,15.3,91.188
			c-1.225,10.404-4.896,20.809-9.181,30.601c26.316-17.137,49.572-39.78,68.544-64.261l-0.611,0.612
			c75.888-97.92,80.784-236.232,13.464-340.272c-18.36-27.54-41.004-52.632-67.32-72.828c0,0,0,0,0.612,0.612
			c-20.196-15.912-42.84-28.764-66.708-39.168c0,0,0.612,0,0.612,0.612C370.872,111.42,318.852,104.076,267.444,110.808
			L267.444,110.808z"/>
	</g>
</g>
</svg>
