<?xml version="1.0" encoding="utf-8"?>
<!-- Generator: Adobe Illustrator 16.0.0, SVG Export Plug-In . SVG Version: 6.00 Build 0)  -->
<!DOCTYPE svg PUBLIC "-//W3C//DTD SVG 1.1//EN" "http://www.w3.org/Graphics/SVG/1.1/DTD/svg11.dtd">
<svg version="1.1" id="Layer_1" xmlns="http://www.w3.org/2000/svg" xmlns:xlink="http://www.w3.org/1999/xlink" x="0px" y="0px"
	 width="600.131px" height="597.255px" viewBox="6.537 97.344 600.131 597.255"
	 enable-background="new 6.537 97.344 600.131 597.255" xml:space="preserve">
<g id="Background">
</g>
<g id="Image_Layer">
</g>
<g id="Draw_Layer">
</g>
<g id="Draw_Layer_1_">
	<path fill="#232323" d="M553.86,232.596c0.611,0,0.611,0,0.611-0.612C554.472,232.596,553.86,232.596,553.86,232.596
		L553.86,232.596z"/>
	<g>
		<path fill="#232323" d="M236.232,345.816L236.232,345.816L236.232,345.816z"/>
		<path fill="#232323" d="M236.844,345.816C236.232,345.816,236.232,345.816,236.844,345.816L236.844,345.816z"/>
		<path fill="#232323" d="M333.54,326.232c-11.628,0-21.42,6.732-31.212,12.24c-3.06,1.836-11.628,7.344-3.06,9.792
			c4.284,1.224,12.852-4.896,16.524-6.732c4.896-2.448,9.18-5.508,14.688-6.12c3.672-0.612,6.731-0.612,10.403,0
			c1.836,0,5.508,1.836,7.345,1.836c6.119-0.612,1.836-6.12-1.225-7.956C342.72,326.232,337.824,325.62,333.54,326.232
			L333.54,326.232z"/>
		<path fill="#232323" d="M314.568,437.616c-6.12,0-12.24,0-17.749,2.448c-5.508,2.447-7.956,4.283-14.076,2.447
			c-3.672-1.224-5.508-1.224-9.18-0.611c-2.448,0.611-5.508,0.611-8.568,1.224c-1.836,0.612-2.448-0.612-3.06,1.836
			c-0.612,3.06,3.672,4.284,5.508,4.284c3.06,0,5.508-1.225,8.568-1.225c2.448,0,3.672,0.612,6.12,1.837
			c7.344,2.447,11.628-1.225,17.748-4.896c4.896-2.448,10.404-3.06,15.912-3.06c1.836,0,6.12,0.611,6.12-2.448
			C321.912,436.392,316.404,437.616,314.568,437.616L314.568,437.616z M309.06,441.9C308.448,442.512,308.448,442.512,309.06,441.9
			L309.06,441.9z"/>
		<path fill="#232323" d="M309.06,450.468c-7.344,0.612-14.076,3.061-21.419,3.672c-2.448,0-14.688-3.06-13.464,3.061
			c7.956,0,16.524,1.224,24.48-0.612c3.06-0.612,6.732-1.224,9.792-2.448C309.06,453.528,313.956,450.468,309.06,450.468
			L309.06,450.468z"/>
		<path fill="#232323" d="M307.836,441.288c-0.612,2.448-3.06,7.956-1.836,10.404c1.224,3.672,5.508,1.224,6.732-1.225
			c1.224-1.836,1.836-8.567,0.611-10.403C312.12,438.84,308.448,438.84,307.836,441.288L307.836,441.288z"/>
		<path fill="#232323" d="M309.672,448.02c-0.612,2.448-0.612,7.345,1.836,3.061C313.344,448.02,309.672,445.572,309.672,448.02
			L309.672,448.02z"/>
		<path fill="#232323" d="M268.668,360.504c-3.672,1.224-0.612,12.852-0.612,15.3c0,6.732,0,12.852,0,19.584
			c0,4.896,0,9.792-0.612,15.299c0,3.061-0.612,9.793,4.284,6.12c2.448-1.836,1.836-10.403,2.448-13.464
			c0.612-4.896,0.612-9.792,0.612-14.688C274.176,385.596,274.788,359.28,268.668,360.504L268.668,360.504z M267.444,364.788
			L267.444,364.788L267.444,364.788z"/>
		<path fill="#232323" d="M304.776,403.956c-1.224,0.612-1.836,3.06-2.448,4.896c-1.224,4.284-1.224,6.732-5.508,7.956
			c-4.284,1.225-9.18,2.448-13.464,3.061c-2.448,0.612-12.852,0-12.852,3.672c0,6.731,23.256-1.224,26.316-1.836
			c6.12-1.224,8.568-2.448,10.404-8.568C307.836,411.912,310.284,400.896,304.776,403.956L304.776,403.956z M299.88,415.584
			L299.88,415.584L299.88,415.584z"/>
		<path fill="#232323" d="M321.3,340.92c-9.18,3.06-5.508,20.808,4.896,17.748C335.376,356.22,331.092,337.86,321.3,340.92
			L321.3,340.92z"/>
		<path fill="#232323" d="M338.436,343.98c-3.06,1.224-8.567,1.224-11.628,1.836c-4.283,0.612-9.18,1.836-13.464,2.448
			c-3.672,0.612-8.568,1.224-7.956,5.508c0.612,5.508,6.12,4.284,9.792,3.672c7.956-1.224,17.748-1.836,25.704-3.672
			C347.616,352.548,345.168,341.532,338.436,343.98L338.436,343.98z M338.436,343.98C337.824,343.98,337.824,343.98,338.436,343.98
			L338.436,343.98z"/>
		<path fill="#232323" d="M316.404,340.308c-4.284,3.672-6.12,11.016-2.448,15.912s12.24,4.284,16.524,0
			C340.271,347.04,327.42,329.292,316.404,340.308L316.404,340.308z M326.808,349.488L326.808,349.488L326.808,349.488z"/>
		<path fill="#232323" d="M320.076,339.696c-9.18,5.508-6.732,25.704,5.508,20.196C335.988,354.996,331.092,333.576,320.076,339.696
			L320.076,339.696z"/>
		<path fill="#4A944A" d="M328.644,562.464c-2.447,4.896-9.792,4.896-14.688,5.508c-2.448,0.612-5.508,0.612-7.956,0.612
			c-2.448,0.612-2.448,0-4.284,1.836c-1.224,1.224-1.836,2.448-3.06,3.672c-2.448,3.061-4.896,6.12-5.508,9.792
			c-0.612,4.284,0,8.568,0.612,12.853c0.612,6.731,0.612,14.688,3.06,20.808c3.672,8.568,10.404,15.3,14.076,23.868
			c0-2.448,3.673-7.344,4.896-9.18c1.836-3.673,4.284-6.732,6.12-9.792c4.284-6.732,8.568-14.076,12.24-21.421
			c3.06-6.119,6.119-11.016,4.896-17.748c-1.224-4.896-3.672-9.18-6.12-13.464C332.316,568.584,328.032,562.464,328.644,562.464
			L328.644,562.464z"/>
		<path fill="#4A944A" d="M318.24,511.056c-4.284,1.225-8.568,1.836-12.24,3.061c-1.224,0-3.06,0.611-4.284,1.224
			c-1.836,1.836-1.224,6.12-0.612,8.568c0.612,10.403,0.612,20.808,1.224,31.824c0,4.283,0.612,6.731,4.896,7.344
			c3.061,0.611,7.345-0.612,11.017-1.225c6.731-0.611,6.12-1.836,7.344-9.18s3.06-15.912,3.06-23.256
			c1.225-1.224,0.612-2.448-0.611-3.061c-0.612-1.224-1.225-1.836-1.836-3.06c-1.225-1.836-3.061-4.284-4.284-6.12
			C320.076,514.728,318.852,512.892,318.24,511.056L318.24,511.056z"/>
		<path fill="#232323" d="M306,97.344c-63.648,1.836-124.848,19.584-176.256,57.528c-48.96,36.108-86.292,85.68-106.488,143.208
			c-41.616,116.892-3.672,251.532,93.024,329.256c48.348,39.168,109.548,62.424,171.36,66.708s124.848-11.628,177.48-44.676
			c104.04-64.872,160.344-191.556,135.864-312.12c-12.24-60.588-42.841-116.28-88.129-158.508
			c-44.676-41.616-101.592-69.156-162.18-77.724C335.988,98.568,320.688,97.344,306,97.344L306,97.344z M85.068,569.196
			c-50.184-65.484-70.38-150.553-52.632-230.724c17.136-75.888,64.872-141.984,131.58-181.152
			c66.096-38.556,145.656-48.348,219.096-26.316c74.052,22.032,135.863,77.112,170.136,146.268
			c38.556,78.336,36.72,175.644-4.896,252.756c-11.628-9.792-24.479-16.524-34.884-27.54c-10.403-10.404-19.584-20.809-30.6-30.601
			c-6.12-4.896-12.24-10.403-20.196-11.016c-1.224,0-4.284,0.612-5.508,0.612c-1.225-0.612-1.225-1.836-2.448-3.061
			c-1.836-3.672-4.284-6.731-7.344-9.18c-4.896-5.508-12.24-11.017-18.972-14.076c-7.956-3.672-14.076,0-20.196,5.508l0,0
			c-1.836-7.344-6.732-13.464-11.017-19.584c-1.836-2.448-8.567-14.076-12.239-10.404l0,0c0-6.731,0-13.464-0.612-20.808
			c12.24,1.224,18.36-14.076,23.256-22.644c6.12-11.628,11.017-24.48,13.464-37.944c1.225-7.344,4.284-15.912,1.225-22.644
			c-1.225-3.06-4.284-5.508-5.509-7.956c-1.224-3.06,1.836-11.016,1.836-14.688c0.612-11.628,0.612-23.868-1.224-35.496
			c-2.448-14.076-9.18-25.704-17.136-37.332c-12.853-18.36-26.928-36.108-46.512-48.348c-9.792-6.12-23.257-12.24-34.885-14.076
			c-8.567-1.224-17.748,1.836-26.928,2.448c-23.868,1.224-48.348,7.956-69.156,19.584c-23.256,12.852-40.392,33.048-49.572,58.14
			c-4.284,11.628-5.508,24.48-6.732,36.72c-1.224,12.24-1.224,25.092,2.448,37.332c3.672,12.24,11.016,24.48,18.36,34.272
			c3.672,4.896,4.896,6.732,6.732,12.24c2.448,7.344,4.284,14.688,6.12,22.032c6.12,25.092,14.076,50.795,31.824,70.38
			c-3.672,0.611-6.12,3.672-9.18,5.508c-2.448,1.836-4.896,0.611-8.568,1.224c-9.18,1.224-16.524,7.956-21.42,14.688
			c-5.508,7.344-8.568,15.911-11.628,24.479c-0.612,2.448-1.224,3.672-3.06,5.508c-1.224,1.225-3.672,2.448-4.896,4.284
			c-3.06,3.061-6.12,7.344-8.568,11.016c-2.448,3.673-2.448,4.284-6.12,5.509c-3.672,1.224-7.344,3.06-10.404,4.896
			c-6.732,4.896-11.628,11.628-16.524,17.748c-6.12,7.344-12.24,15.3-17.748,23.256c-5.508,7.345-12.852,14.688-15.912,23.868l0,0
			C93.636,579.6,89.352,574.704,85.068,569.196L85.068,569.196z M287.64,158.544c9.18-0.612,18.36-2.448,27.54-1.836
			c11.017,0.612,23.868,7.956,33.048,13.464c15.301,9.792,25.704,24.48,36.108,38.556c7.344,9.792,14.076,20.196,18.36,31.212
			c4.896,12.24,6.12,25.704,6.731,38.556c0,4.896-0.611,9.792-0.611,14.688c0,2.448,0,3.06-1.225,4.284
			c-1.836,1.836-4.896,2.448-6.731,4.284c-4.896,4.284-12.24,12.852-15.912,18.36c-1.225-4.896,0.611-10.404-0.612-15.912
			c-1.224-6.12-2.448-12.852-4.896-18.36c-4.284-9.792-12.24-18.972-22.032-23.868c-10.404-5.508-22.032-8.568-34.272-8.568
			c-13.464,0.612-23.868,4.896-36.107,8.568c20.195-9.18,41.004-15.3,63.036-17.748c4.896-0.612,9.792-1.224,14.688-1.224
			c1.225,0,17.136,0.612,12.853-4.896c-2.448-3.06-20.196,0-23.868,0.612c-4.284,0.612-7.956,0.612-12.24,1.224
			c-11.628,1.836-22.645,4.284-34.272,8.568c-14.076,4.896-25.092,11.628-37.332,18.972c-2.448,1.836-0.612,1.836-3.06,1.224
			c-2.448-0.612-3.672-4.896-3.672-6.732c0.612-6.732,9.18-13.464,14.688-16.524c3.672-2.448,7.956-3.672,12.24-5.508
			c2.448-1.224,6.732-1.836,8.568-3.672c2.448-1.836,2.448-4.284-1.224-4.896c-1.836,0-6.12,1.836-7.344,2.448
			c-12.24,4.284-37.944,14.688-32.436,32.436l0,0c-1.224-0.612-3.672-1.836-4.284-1.836c-4.896-1.836-4.284-11.016-3.06-14.688
			c4.284-9.792,14.688-15.912,23.256-20.808c1.224-0.612,4.896-1.836,3.672-4.284c-1.224-2.448-5.508,0.612-6.732,1.836
			c-4.896,2.448-9.792,5.508-14.076,9.18c-7.344,6.732-14.076,15.912-9.792,26.316l0,0c-11.628-5.508-16.524-14.076-13.464-26.928
			c1.836-9.18,7.956-17.748,14.688-23.868c16.524-14.688,36.108-24.479,59.364-24.479c4.896,0,9.18,0,13.464-1.224
			c-0.612,0,3.672-1.224,3.672-1.224c2.448-2.448-1.225-4.284-4.284-5.508c-9.792-5.508-23.256-3.06-34.272-1.224
			c-18.36,3.672-36.108,10.404-49.572,23.868c-14.688,14.688-25.092,39.78-10.404,58.14l0,0c-9.18-1.224-16.524-3.672-18.972-14.076
			c-1.224-4.896,0-9.18,0.612-14.076c0.612-3.06,1.836-8.568-2.448-8.568c-7.344-0.612-8.568,15.912-7.956,20.808
			c0.612,7.956,4.896,14.688,11.016,19.584c-2.448,1.224-5.508-0.612-7.956-1.224c-4.284-1.224-4.284-3.06-6.12-6.12
			c-0.612-1.836-2.448-4.284-3.672-1.224c-1.836,3.06,2.448,8.568,4.896,10.404c2.448,1.836,4.284,1.836,6.732,3.06
			c-13.464,13.464-17.748,39.78-15.3,57.528c-4.896-7.956-9.792-17.136-11.628-26.316c-2.448-10.404-1.836-20.808-1.224-31.212
			c1.224-18.36,4.896-34.884,13.464-52.02c8.568-17.136,23.868-31.824,41.004-41.004c8.568-4.284,17.136-8.568,26.316-11.016
			c5.508-1.836,11.016-3.06,17.136-4.284C278.46,159.768,283.968,159.768,287.64,158.544L287.64,158.544z M267.444,183.636
			L267.444,183.636L267.444,183.636z M270.504,280.332c1.224-3.06,9.792-6.12,12.24-7.344c4.896-2.448,9.792-4.896,15.3-6.12
			c9.18-3.06,19.584-4.896,29.988-4.284c18.972,0.612,39.168,11.016,46.512,29.376c2.448,5.508,3.672,11.628,5.508,17.748
			c1.225,4.284,0.612,12.24,4.284,15.3c6.12,5.508,14.688-10.404,18.972-14.076c1.836-1.836,7.345-6.732,10.404-5.508
			c3.672,1.224,3.06,7.956,2.448,11.016c-0.612,7.956-4.896,20.196-6.732,25.704c-4.896,11.016-9.18,22.032-15.912,31.212
			c-1.224,1.836-6.731,9.792-9.18,7.956c-1.224-1.224,0.612-4.896-2.448-4.896c-2.447,0-2.447,4.284-2.447,3.672
			c-3.061,20.809-10.404,44.064-22.032,61.812c-12.24,17.748-22.645,34.884-43.452,43.451c-18.36,7.345-39.78-9.18-52.632-21.42
			c-14.688-14.075-31.212-26.928-40.392-45.288c-4.284-9.18-6.12-20.195-8.568-29.988c-3.06-11.628-6.732-23.256-8.568-34.884
			c3.06,2.448,6.12,0,9.18-0.612c4.284-0.612,7.956,0,11.628,0.612c-0.612,0.612-0.612,3.06-1.224,3.672
			c-1.224,1.224-2.448,0-3.672,1.224c-3.06,2.448-0.612,3.672,1.224,4.896c0.612,0,1.224,0,2.448,0c0,0.612,0,1.224,0.612,1.836
			c0.612,1.224,1.224,3.06,2.448,3.672c1.836,2.448,4.896,3.06,7.344,3.06c6.732-0.612,7.344-6.12,11.628-8.568
			c1.836-1.224,4.896-0.612,3.672-3.672c-0.612-1.224-1.836-0.612-3.06-1.836c-1.224-0.612-1.224-1.224-1.836-3.06
			c2.448,0,7.344,1.224,8.568,0c3.672-3.672-4.284-4.896-6.732-5.508c-3.06-0.612-6.12-1.836-9.18-3.06
			c-6.732-2.448-32.436-10.404-34.884,2.448c-0.612-1.224-1.836-2.448-1.836-3.672c0-0.612,1.224-1.224,1.224-2.448
			c-0.612-3.06-3.06-3.672-4.284-6.12c-2.448-5.508-1.836-13.464-1.224-18.972c1.224-13.464,4.896-26.316,12.24-37.332
			c6.12-9.792,17.136-11.016,28.152-9.18c6.12,0.612,12.852,2.448,18.36,4.896C257.652,276.048,267.444,284.616,270.504,280.332
			L270.504,280.332z M313.956,262.584C313.344,262.584,313.344,262.584,313.956,262.584L313.956,262.584z M201.96,288.9
			C201.96,289.512,201.96,289.512,201.96,288.9L201.96,288.9z M413.712,304.812L413.712,304.812L413.712,304.812z M405.756,307.26
			C405.756,307.872,405.756,307.872,405.756,307.26L405.756,307.26z M384.948,321.336
			C384.336,321.336,384.336,321.336,384.948,321.336L384.948,321.336z M307.224,502.488c-1.224-4.284-4.896-6.12-6.731-9.181
			c19.584-2.447,36.72-15.911,48.96-30.6c14.076-16.524,22.032-35.496,28.151-55.692c0,6.732,0.612,13.465,1.225,20.196
			c0,3.061,1.224,6.732,1.224,9.792c0,2.448-1.836,4.896-3.06,7.344c-4.896,9.792-11.017,19.584-18.36,27.54
			s-16.523,14.076-25.704,20.196c-4.284,2.448-9.18,5.508-13.464,8.568c-3.672,3.06-7.344,3.672-12.24,4.896
			C307.224,503.712,307.224,503.1,307.224,502.488L307.224,502.488z M220.32,417.42L220.32,417.42L220.32,417.42z M357.408,556.344
			c-6.12-14.076-15.912-24.479-25.092-36.72c-2.448-3.06-11.017-11.628-9.792-15.912c0.611-1.836,6.119-4.284,7.956-4.896
			c3.672-1.837,6.731-4.284,10.403-6.12c11.628-6.732,22.645-15.912,30.601-26.929c8.567-11.628,17.136-26.315,19.584-40.392
			c6.12,9.792,12.852,19.584,10.403,31.824c-2.447,13.464-7.956,25.704-12.852,38.556c-4.896,12.24-9.18,25.092-15.3,36.72
			c-3.061,6.732-6.12,12.853-9.181,19.584c0,1.225-3.06,9.181-3.672,9.181C359.244,561.852,358.02,557.568,357.408,556.344
			L357.408,556.344z M363.528,428.436C363.528,429.048,363.528,429.048,363.528,428.436L363.528,428.436z M444.924,457.2
			C445.536,457.812,445.536,457.812,444.924,457.2L444.924,457.2z M248.472,459.648c0,0.611,0,3.06-0.612,4.283
			C247.86,462.708,247.86,461.484,248.472,459.648L248.472,459.648z M341.496,462.096
			C341.496,462.708,341.496,462.708,341.496,462.096L341.496,462.096z M268.056,570.42c-3.672-7.344-4.896-17.748-6.12-25.704
			c-1.836-9.792-3.672-20.196-5.508-29.988c-3.06-16.523-7.956-33.048-3.672-50.184c7.956,8.568,15.3,18.36,25.704,23.868
			c4.896,2.448,10.404,4.284,15.3,7.344c1.224,1.224,3.672,3.672,5.508,4.896c2.448,2.447,2.448,3.06,0,6.119
			c-7.344,7.956-13.464,16.524-17.136,26.316c-2.448,6.732-4.896,14.076-7.344,20.809
			C272.952,556.344,267.444,569.196,268.056,570.42L268.056,570.42z M179.316,492.696L179.316,492.696L179.316,492.696z
			 M179.316,493.308C178.704,493.92,178.704,493.92,179.316,493.308L179.316,493.308z M301.104,503.1
			C301.104,503.712,301.104,503.712,301.104,503.1L301.104,503.1z M322.524,503.712
			C322.524,504.324,322.524,504.324,322.524,503.712L322.524,503.712z M300.492,504.324L300.492,504.324L300.492,504.324z
			 M250.92,512.28c0-1.225-0.612-2.448-0.612-3.672c0.612,4.283,1.836,7.956,2.448,12.239
			C252.144,517.788,251.532,515.34,250.92,512.28L250.92,512.28z M304.776,561.852c-2.448-2.447-1.224,0.612-2.448-3.06
			c-0.612-1.836-0.612-4.896-0.612-6.732c0-3.06-0.612-6.119-0.612-9.18c0-7.344-1.224-14.688-0.612-22.032
			c0-4.283,0-5.508,4.284-6.12c3.06-0.611,11.016-4.283,13.464-3.06c1.224,0.612,3.672,6.12,4.284,7.956
			c1.224,1.836,2.447,3.672,4.283,5.508c0.612,1.225,1.225,1.836,2.448,3.061c0,0.611-0.611,0.611-0.611,1.224
			c0.611,7.344-1.837,15.912-3.061,22.644c-0.612,2.448-0.612,7.345-2.448,9.181C320.688,561.852,306.612,563.076,304.776,561.852
			L304.776,561.852z M162.18,512.892C162.18,513.504,162.18,513.504,162.18,512.892L162.18,512.892z M285.192,597.348
			c-3.672-5.508-7.956-11.016-11.628-16.523c-2.448-3.672-2.448-4.896-0.612-9.181c1.224-3.672,2.448-7.344,3.672-11.628
			c4.896-12.852,9.18-28.151,17.748-38.556c0.612,7.344,0.612,15.3,1.224,22.644c0,6.12,2.448,13.465,1.836,19.584
			c-1.224,5.509-9.18,10.404-11.016,16.524c-1.836,5.508-1.224,12.852-0.612,18.36C285.804,597.96,285.804,597.348,285.192,597.348
			L285.192,597.348z M287.64,532.476L287.64,532.476L287.64,532.476z M331.704,553.284c1.224-5.508,3.672-11.628,3.672-17.748
			c5.508,7.344,11.016,14.688,15.3,22.644c0.612,1.836,1.836,3.061,2.448,4.896c1.836,3.06,1.836,2.448,0.612,5.508
			c-1.225,3.672-6.12,7.956-8.568,11.016c-0.612-4.896-6.732-25.092-14.688-22.644C331.092,555.732,331.092,554.508,331.704,553.284
			L331.704,553.284z M370.26,553.284C370.872,552.672,370.26,553.284,370.26,553.284L370.26,553.284z M323.136,560.016
			L323.136,560.016L323.136,560.016z M323.136,560.628C322.524,560.628,322.524,560.628,323.136,560.628L323.136,560.628z
			 M308.448,567.972c4.284-0.611,7.956-1.224,12.239-1.836c1.837-0.611,4.284-0.611,5.509-1.836c0.611,0,1.836-2.448,1.836-2.448
			c3.672,7.345,9.18,12.853,11.016,20.809c1.836,7.344-1.836,12.852-5.508,18.972c-3.672,6.732-7.344,13.464-11.628,20.196
			c-1.836,2.448-3.672,4.896-4.896,7.956c-1.836,3.06-3.672,8.567-6.731,11.628l0,0c-3.061-6.732-7.956-11.628-11.628-17.748
			c-3.672-6.12-4.284-11.016-5.508-17.748c-0.612-6.12-1.224-12.24-1.224-18.972c0-4.896,1.224-7.345,4.284-11.017
			c1.224-1.836,3.06-4.284,4.284-5.508C304.164,567.972,304.776,568.584,308.448,567.972L308.448,567.972z M522.648,569.808
			l-0.612,0.612C522.036,570.42,522.648,570.42,522.648,569.808L522.648,569.808z M112.608,575.316L112.608,575.316L112.608,575.316
			z M109.548,596.736c0,1.224,6.12,6.12,7.344,6.731C114.444,601.02,111.996,599.184,109.548,596.736L109.548,596.736z
			 M136.476,620.604c3.672,2.448,9.18,6.732,14.076,9.792C145.656,627.336,140.76,623.664,136.476,620.604L136.476,620.604z"/>
		<path fill="#232323" d="M246.024,457.812c-3.672,18.973-4.284,37.944-1.836,56.916c2.448,17.748,7.344,35.496,9.792,53.244
			c0.612,4.284,1.224,8.568,1.836,12.853c0.612,3.06,0.612,8.567,2.448,11.016c1.224,1.836,4.284,2.448,6.12,1.225
			c2.448-1.837,1.224-5.509,1.224-7.956c-1.836-15.912-4.896-31.824-7.344-48.349c-3.06-15.912-5.508-32.436-5.508-48.96
			c0-7.956,0-15.912,1.224-24.479c0.612-3.061,1.836-6.732-1.836-7.956C249.696,454.14,246.636,455.364,246.024,457.812
			L246.024,457.812z M253.98,566.748C253.98,567.972,253.98,567.972,253.98,566.748L253.98,566.748z M265.608,586.332v0.612
			C266.22,586.944,265.608,586.944,265.608,586.332L265.608,586.332z"/>
		<path fill="#232323" d="M233.172,358.056c-3.06,0-22.644-3.672-21.42,3.06c1.224,6.12,16.524,1.224,20.196,0.612
			c0,0,3.06,2.448,4.284,3.06c2.448,0.612,5.508,0,7.956,0c1.836,0,4.896,0.612,6.732-1.224
			C255.204,358.668,236.844,353.772,233.172,358.056L233.172,358.056z"/>
		<path fill="#232323" d="M325.584,250.344c-10.404,0.612-22.644,3.06-32.436,7.344c-5.508,2.448-11.016,5.508-16.524,9.18
			c-1.224,0.612-14.076,9.792-7.344,9.18c1.836,0,5.508-4.284,6.732-5.508c2.448-1.836,5.508-3.672,8.568-5.508
			c6.12-3.672,12.24-6.732,18.972-7.956c1.224,0,4.284-1.224,5.508-0.612c0,0,0.612,2.448,1.225,3.06
			c1.224,1.224,1.836,1.224,3.672,1.224c5.508,0.612,11.628-1.836,17.136-1.224c5.508,0,11.017,2.448,16.524,3.06
			c6.731,1.224,11.628,3.06,17.136,8.568c9.18,9.18,12.852,19.584,15.912,32.436c0.612,3.06,1.224,6.732,1.836,10.404
			c0,1.836-0.612,4.896,0.612,6.732c3.672,6.12,6.731-1.836,6.731-4.896c0-9.792,0-20.808-3.06-30.6
			c-3.672-11.628-13.464-22.644-23.868-28.764C351.9,250.344,337.824,249.12,325.584,250.344L325.584,250.344z M307.224,257.076
			C306.612,257.076,306.612,257.076,307.224,257.076L307.224,257.076z M293.76,260.748L293.76,260.748L293.76,260.748z
			 M381.276,307.872v0.612C381.276,308.484,381.276,308.484,381.276,307.872L381.276,307.872z"/>
		<path fill="#232323" d="M209.916,264.42c-12.24,7.344-20.196,17.136-22.644,31.824c-1.224,7.344-1.224,14.688-0.612,22.644
			c0.612,6.12,1.224,18.972,6.732,22.644c8.568,6.12,4.284-13.464,3.672-17.136c-1.224-8.568-1.224-18.36,0-27.54
			c1.224-7.344,3.06-15.3,8.568-20.808c2.448-2.448,7.344-3.672,8.568-6.732C216.648,266.868,213.588,262.584,209.916,264.42
			L209.916,264.42z"/>
		<path fill="#FFFFFF" d="M302.94,157.32c-15.3,1.836-29.988,2.448-45.288,6.732c-17.136,4.896-31.824,12.852-45.288,23.868
			c-23.868,19.584-34.272,47.736-36.72,77.724c-0.612,10.404-1.224,20.808,0.612,30.6c1.836,9.18,6.12,17.136,10.404,25.704
			c-2.448-19.584-0.612-42.229,17.748-53.856c-4.284-0.612-14.688-7.956-11.628-13.464c1.836-3.06,3.06,0,3.672,1.224
			c1.836,3.672,1.836,4.896,6.12,6.732c0,0,0,0-0.612,0c2.448,1.224,5.508,2.448,7.956,1.224
			c-6.732-6.12-11.016-14.688-11.016-23.868c0-3.672,3.672-21.42,10.404-15.3c2.448,2.448,0.612,6.732,0,9.18
			c-1.224,4.284-1.224,9.18,0,13.464c2.448,9.792,9.18,12.24,18.36,12.852c-12.24-16.524-7.344-38.556,4.896-53.244
			c12.24-14.688,28.764-23.256,47.124-27.54c11.016-2.448,23.256-4.896,34.272-3.06c2.448,0.612,13.464,3.672,12.24,7.344
			c-0.612,1.224-2.448,0-3.672,0.612c-3.061,0.612-5.509,1.836-8.568,2.448c-11.016,0.612-20.808,0-31.824,3.672
			c-5.508,1.836-11.628,4.896-16.524,7.956c-4.896,3.06-7.956,6.12-12.852,9.792c-7.344,6.12-14.076,13.464-17.748,22.644
			c-1.836,5.508-2.448,12.24-1.224,18.36c1.836,6.732,7.956,10.404,13.464,12.852c-4.284-11.628,4.284-22.032,13.464-28.764
			c3.06-1.836,11.628-9.18,15.3-9.18c7.344,0.612-7.956,9.18-9.792,9.792c-10.404,6.731-26.316,25.704-7.956,32.436
			c-3.06-14.688,12.24-24.48,23.868-29.376c3.672-1.836,11.016-5.508,15.3-5.508c7.344,0.612,0,4.896-2.448,6.12
			c-9.792,3.672-31.212,10.404-31.824,23.868c0,2.448,1.224,5.508,3.06,6.12c2.448,1.224,3.06,0,4.896-1.836
			c5.508-3.672,11.016-6.732,17.136-9.792c13.464-6.732,28.152-11.628,42.84-14.076c5.508-1.224,11.017-1.836,16.524-2.448
			c4.284-0.612,8.567-0.612,13.464-1.224c3.672,0,7.956-0.612,12.24-0.612c3.06,0,7.344,2.448,2.447,4.284
			c-4.283,1.836-12.239,1.224-16.523,1.224c-5.508,0.612-11.628,1.224-17.136,1.836c-7.345,1.224-14.688,2.448-21.421,4.284
			c18.973,0,37.944-0.612,51.408,14.688c6.732,7.344,12.24,15.3,14.076,25.092c1.836,8.568,1.836,17.136,1.836,25.704
			c4.284-4.896,7.956-11.016,13.464-14.688c1.225-1.224,3.672-1.836,4.896-3.06c1.836-1.224,1.224-1.836,1.224-4.284
			c0-4.284,0.612-8.568,0.612-12.852c-0.612-24.48-6.732-44.676-20.196-64.872c-8.567-12.24-17.136-24.48-28.151-34.884
			c-7.956-7.956-16.524-13.464-26.929-18.36C323.748,158.544,315.18,156.096,302.94,157.32L302.94,157.32z"/>
		<path opacity="0.2" fill="#4A944A" d="M303.552,119.376c-82.62,1.224-160.956,37.944-214.2,101.592
			c-54.468,65.484-75.276,155.448-56.304,238.068C44.064,505.548,66.096,549,97.92,584.496c3.06-9.18,10.404-15.912,15.912-23.868
			s11.628-15.3,17.748-23.256c4.896-6.12,9.792-12.853,16.524-17.748c3.672-2.448,7.344-3.672,11.016-5.508s3.672-2.448,6.12-6.12
			c2.448-3.672,4.896-7.344,7.956-10.404c1.224-1.836,3.06-2.448,4.896-4.284s2.448-3.672,3.672-6.731
			c3.06-8.568,6.12-17.136,12.24-24.48c5.508-6.731,12.24-12.852,20.808-14.076c3.672-0.611,5.508,0.612,8.568-1.224
			s5.508-4.896,9.18-5.508c-15.912-17.748-24.48-41.004-29.988-64.26c-1.224-6.732-3.06-12.852-4.896-19.584
			c-1.224-4.896-2.448-10.404-4.284-14.688c-2.448-4.896-6.732-8.568-9.792-13.464c-2.448-4.284-4.896-8.568-7.344-12.852
			c-12.852-23.256-11.016-53.244-4.896-78.948c5.508-23.256,18.972-43.452,37.332-58.14c19.584-14.688,43.452-23.868,67.932-28.152
			c6.12-1.224,12.852-1.224,18.972-1.836c6.12-0.612,11.627-1.836,17.136-2.448c9.18-0.612,17.136,2.448,25.703,6.12
			c22.032,9.18,39.168,24.48,53.244,44.064c7.345,9.792,14.688,19.584,20.196,31.212c6.12,12.852,6.732,26.316,7.344,40.392
			c0,5.508,0.612,11.016,0,16.524c0,2.448-0.611,4.896-1.224,7.344c0,0.612-1.225,3.672-1.225,4.284s1.225,1.224,1.837,1.836
			c1.224,3.06,4.283,6.12,5.508,9.792c1.224,4.896-1.225,12.24-1.836,17.136c-2.448,12.852-6.12,24.48-11.628,36.108
			c-4.896,9.792-11.628,28.152-25.093,26.928c0.612,6.732,0,13.464,0.612,20.808c3.672-3.06,5.508,1.225,7.344,3.672
			c1.836,2.448,4.284,4.896,6.12,7.956c4.284,6.12,8.568,11.628,10.404,18.973c6.731-5.509,12.24-9.181,20.808-4.896
			c6.732,3.672,13.464,9.18,18.36,14.076c2.448,2.448,4.896,5.508,6.731,8.568c1.225,2.447,0.612,2.447,3.061,3.06
			c1.836,0.612,4.284-0.612,6.12,0c7.956,0.612,14.076,6.12,19.584,11.628c10.403,9.18,19.584,19.584,29.988,29.376
			c11.016,10.404,23.256,17.748,34.884,27.54c36.107-67.32,41.616-149.328,17.136-221.544
			c-24.479-69.768-77.724-128.52-143.82-160.956C386.172,128.556,344.556,119.376,303.552,119.376L303.552,119.376z"/>
	</g>
</g>
</svg>
