<?xml version="1.0" encoding="utf-8"?>
<!-- Generator: Adobe Illustrator 16.0.0, SVG Export Plug-In . SVG Version: 6.00 Build 0)  -->
<!DOCTYPE svg PUBLIC "-//W3C//DTD SVG 1.1//EN" "http://www.w3.org/Graphics/SVG/1.1/DTD/svg11.dtd">
<svg version="1.1" id="Layer_1" xmlns="http://www.w3.org/2000/svg" xmlns:xlink="http://www.w3.org/1999/xlink" x="0px" y="0px"
	 width="594.146px" height="592.461px" viewBox="9.018 105.3 594.146 592.461" enable-background="new 9.018 105.3 594.146 592.461"
	 xml:space="preserve">
<g id="Background">
</g>
<g id="Image_Layer">
</g>
<g id="Draw_Layer">
</g>
<g id="Draw_Layer_1_">
	<g>
		<path fill="#232323" d="M239.904,317.052c-6.12,1.224-12.24,4.284-16.524,9.18c-0.612,0.612-6.12,5.508-3.06,6.732
			c2.448,0.612,5.508-4.896,7.344-6.12c2.448-1.836,5.508-3.672,8.568-4.284s5.508,0.612,8.568,0
			c3.06-0.612,3.672-2.448,1.224-4.284C244.8,315.828,241.74,316.44,239.904,317.052L239.904,317.052z"/>
		<path fill="#232323" d="M236.844,319.5c-10.404,0.612-9.792,16.524,1.224,15.912C247.248,334.8,246.024,319.5,236.844,319.5
			L236.844,319.5z"/>
		<path fill="#232323" d="M310.284,305.424c-7.956,2.448-9.18,15.912,1.224,15.3C321.3,320.112,318.24,302.976,310.284,305.424
			L310.284,305.424z M313.344,312.156L313.344,312.156L313.344,312.156z"/>
		<path fill="#232323" d="M316.404,302.364c-4.896,0-9.792,1.224-14.076,3.672c-2.448,1.224-10.404,5.508-9.18,8.568
			c1.836,5.508,6.12-0.612,8.568-1.224c1.836-0.612,1.836,0,4.284,0s4.896-1.836,7.344-1.836c4.284-0.612,7.956,0.612,12.24,1.836
			c1.836,0.612,4.284,1.836,6.12,0C340.271,306.648,320.076,302.364,316.404,302.364L316.404,302.364z"/>
		<path fill="#232323" d="M236.844,317.664c-7.344,1.224-13.464,6.12-18.36,11.016c-1.224,1.224-3.672,3.06-3.06,5.508
			c1.224,4.896,7.344,0.612,9.18-0.612c4.284-2.448,7.956-6.12,12.852-7.344c3.672-1.224,6.12,0.612,9.792,0
			s4.896-4.896,1.836-7.344C246.636,317.052,239.904,317.052,236.844,317.664L236.844,317.664z"/>
		<path fill="#232323" d="M317.628,386.82c-5.508,5.508-17.136,4.284-23.868,6.12c-6.732,1.836-15.912,6.732-22.032,5.508h-0.612
			c-5.508-0.612-10.404,0.611-15.912,3.06c-1.224,0.612-4.896,1.836-3.06,3.672c1.224,1.225,4.284-0.611,4.896-1.224
			c0,0,0,0,0.612,0c7.344-3.672,15.3-0.612,23.868-2.448s20.196-5.508,26.928-6.12c3.672-0.612,8.567-0.612,11.628-3.672
			C322.524,389.268,321.3,383.148,317.628,386.82L317.628,386.82z M268.056,402.12L268.056,402.12L268.056,402.12z M264.996,402.12
			C264.384,402.12,264.384,402.12,264.996,402.12L264.996,402.12z M257.04,404.568C257.04,404.568,257.652,403.956,257.04,404.568
			L257.04,404.568z M271.728,398.448C271.728,398.448,271.116,398.448,271.728,398.448L271.728,398.448z"/>
		<path fill="#232323" d="M301.104,367.236c-7.956,0.612-15.912,4.284-23.868,6.12c-3.06,0.612-10.404,0.612-12.852,3.06
			c-2.448,2.448,0.612,4.284,3.06,4.896c3.672,0.612,9.18-1.836,12.852-2.448c4.284-1.224,8.568-2.448,12.852-3.672
			c2.448-0.612,8.568-0.612,9.792-3.06C304.776,370.296,304.164,366.624,301.104,367.236L301.104,367.236z"/>
		<path fill="#232323" d="M296.208,405.18c-6.12,2.448-13.464,2.448-20.196,3.061c-2.448,0-5.508-0.612-7.956-0.612
			c-3.06,0-3.672,1.836-1.224,3.672c4.284,3.672,15.912,0,20.196-0.612c2.448-0.611,7.344-0.611,9.18-3.06
			C296.208,407.628,298.656,403.956,296.208,405.18L296.208,405.18z M289.476,407.016L289.476,407.016L289.476,407.016z"/>
		<path fill="#232323" d="M556.92,567.36c-0.612,0.611-4.284,6.12-3.672,7.344C553.86,572.868,555.696,568.584,556.92,567.36
			L556.92,567.36z"/>
		<path fill="#232323" d="M262.548,108.36C141.984,125.496,39.78,220.356,15.3,339.696C3.06,400.284,8.568,464.544,33.048,520.848
			c24.48,55.692,65.484,102.816,116.892,134.028c107.712,65.484,248.472,55.08,345.78-25.092
			c94.86-77.112,132.192-209.916,90.576-325.584C544.68,187.308,432.072,106.524,308.448,105.3
			C293.148,105.3,277.848,106.524,262.548,108.36L262.548,108.36z M196.452,143.244c85.68-36.108,184.824-26.928,262.548,23.868
			c76.5,50.184,123.624,136.476,126.072,228.276c1.224,51.408-12.24,102.816-37.944,147.492c-8.568-9.18-17.136-17.748-27.54-24.479
			c-8.568-5.509-17.748-9.181-26.316-12.853c-12.239-5.508-25.703-9.792-36.72-17.748c-9.792-6.731-18.359-14.076-26.928-22.032
			c-1.836-1.224-4.284-3.06-5.508-4.896c-1.225-1.836-1.225-4.284-2.448-6.12c-3.06-7.956-7.344-15.912-14.076-21.42
			c-5.508-4.896-12.24-8.568-18.972-11.016c-4.284-1.836-0.612,2.447-3.061-2.448c-1.224-3.061-1.836-7.956-1.836-11.017
			c-0.611-5.508-1.224-11.016-0.611-16.523c0.611-5.508,0.611-11.016,0.611-16.524c0-1.836-0.611-4.284,0-6.12
			c0.612-2.448-0.611-0.612,1.836-2.448c3.061-1.836,7.345-2.448,10.404-4.896c6.732-5.508,10.404-13.464,12.24-21.42
			c3.672-13.464,6.731-31.212,2.448-44.064c-1.225-3.06-2.448-5.508-4.896-7.344c-1.224-1.224-5.508-2.448-6.12-3.06
			c-1.224-1.836,1.836-9.18,1.836-11.016c1.225-4.896,2.448-10.404,3.672-15.3c3.673-16.524,7.345-32.436-1.836-48.348
			c-8.567-14.688-20.808-26.928-35.496-35.496c-13.464-8.568-28.151-14.688-44.063-16.524c-17.748-1.836-34.884-3.672-52.632-2.448
			c-7.956,0.612-15.912,1.224-23.256,3.672c-9.18,2.448-17.136,7.344-25.092,12.24c-15.3,9.18-27.54,21.42-34.272,37.944
			c-6.732,16.524-12.852,33.048-13.464,51.408c-0.612,17.748,3.672,36.108,11.628,51.408c1.836,3.06,8.568,17.748,14.076,12.852
			c3.06-2.448,1.224-9.792,1.224-12.852c0-5.508-0.612-11.628-0.612-17.136c0-21.42-1.224-41.616,6.732-61.812
			c-0.612,1.836,0-0.612,0.612-1.224c0.612-1.836,1.224-3.06,2.448-4.896c1.224-3.06,3.06-5.508,4.284-8.568
			c4.284,6.12,12.852,10.404,18.972,14.688c7.344,4.896,14.688,6.732,23.256,7.344c18.972,1.836,36.72,0,52.632-9.792
			c1.836-1.224,6.731-6.732,8.567-6.732c2.448-0.612,8.568,3.672,11.017,5.508c7.344,4.284,13.464,9.792,16.523,17.748
			c6.12,17.748,7.345,35.496,15.912,52.632c-4.284,0.612-8.567,1.224-12.852,1.224c-3.061,0-9.792-0.612-12.853,1.224
			c-1.224-3.06-2.447-5.508-4.896-7.344c3.06-1.836,3.672-6.12,0.612-8.568c-2.448-1.836-7.956-1.224-11.629-1.224
			c-7.955,0.612-16.523,0-23.868,2.448c-1.836,0.612-3.672,1.836-4.896,1.836s-2.448-1.224-3.672-0.612
			c-3.06,1.224-1.836,4.284-2.448,6.732c-1.224,3.06-3.672,4.896-5.508,8.568c-1.224,3.06-1.836,6.12-2.448,9.18
			c-4.896-6.12-18.972-1.224-23.256,3.06c-1.836-2.448-4.284-3.672-6.12-6.12c-3.06-2.448-1.224-4.896-3.06-7.956
			c-2.448-5.508-10.404-3.06-14.688-1.836c-6.12,1.836-13.464,4.896-19.584,7.956c-2.448,1.224-5.508,3.06-7.344,4.896
			c-1.224,1.836-2.448,6.12,1.224,5.508c-1.224,1.836-1.836,3.672-2.448,5.508c-0.612,1.224-0.612,5.508-1.224,6.12
			c-1.224,1.224-4.896,0.612-6.12,1.224c-4.896,2.448-3.672,7.956-2.448,12.852c2.448,10.404,5.508,20.196,10.404,29.988
			c1.224,2.448,2.448,4.284,4.284,6.12c1.224,1.224,2.448,1.836,3.672,3.672c0.612,1.836,1.224,3.672,1.836,5.508
			c1.836,4.896,4.284,9.792,6.12,15.3c2.448,6.732,5.508,13.465,8.568,20.196c1.224,3.061,3.06,5.508,4.896,7.956
			c1.836,1.836,4.896,3.672,6.732,6.12c1.224,2.448,1.836,13.464,1.836,15.912c-0.612,4.284-8.568,8.567-11.628,12.24
			c-1.836,1.836-3.06,4.896-5.508,6.731c-1.836,1.836-3.672,1.836-6.732,2.448c-7.344,1.836-14.688,6.731-21.42,9.792
			c-9.792,4.896-18.36,9.792-28.764,14.076c-13.464,5.508-25.704,12.239-34.272,24.479c-2.448,3.672-6.12,7.344-7.956,11.017
			c-3.672,6.731-6.12,14.688-9.18,22.031c-2.448,7.956-4.284,15.912-4.896,24.48c-0.612,6.12-2.448,13.464-1.224,19.584l0,0
			C47.736,542.268,15.3,452.916,26.928,366.012c0,0,0,0,0,0.612c0-1.224,0-0.612,0,0c9.18-74.052,48.96-141.372,107.712-187.272
			c0,0,0,0-0.612,0C153,165.276,173.808,153.036,196.452,143.244L196.452,143.244z M194.004,304.812
			c-10.404-26.316-9.18-53.244,0-79.56c4.896-13.464,11.628-25.704,22.644-34.884c9.792-8.568,23.868-17.136,36.72-20.196
			c13.464-3.672,28.764-4.896,42.228-4.284c14.076,0.612,29.375,0.612,42.839,4.896c25.093,7.344,48.349,27.54,55.692,52.632
			c2.448,7.344,1.836,14.688,0.612,22.644c-0.612,7.956-1.225,16.524-2.448,24.48c0,3.06-0.612,5.508-0.612,8.568
			c-0.611,4.284,0,4.284-2.447,6.12c-3.061,1.836-6.12,2.448-8.568,5.508c-2.448,2.448-3.672,6.12-4.896,9.792l0,0
			c-5.508-8.568-9.18-18.972-11.628-28.764c-1.836-9.792-2.447-20.196-6.12-29.376c-4.283-10.404-12.239-17.748-22.031-23.256
			c-3.672-1.836-7.956-3.672-11.628-4.896c-5.509-1.224-7.345,0-11.017,3.672c-8.568,7.344-20.196,13.464-31.212,14.076
			c-11.628,0.612-24.48,2.448-35.496-1.836c-5.508-2.448-11.016-6.12-16.524-9.18c-2.448-1.224-4.896-3.06-7.344-4.896
			c-1.224-1.224-2.448-3.06-4.284-4.284c-7.344-3.06-14.076,16.524-15.912,20.808c-9.792,23.256-7.344,48.96-6.732,73.44l0,0
			C194.616,306.036,194.616,305.424,194.004,304.812L194.004,304.812z M392.292,284.004L392.292,284.004L392.292,284.004z
			 M47.124,287.676L47.124,287.676L47.124,287.676z M387.396,298.692c3.672-3.06,8.567-6.732,12.239-1.836
			c4.284,6.12,3.672,17.748,3.061,25.092c-0.612,15.912-1.225,34.271-18.36,41.616c0-4.284,0-7.956,0.612-12.24
			c0-1.836-1.836-7.956-4.284-4.896c-1.224,0.612-1.224,6.732-1.224,7.956c0,5.508,0.611,10.404,0.611,15.912
			c1.225,18.972-2.448,36.108-14.688,51.408c-9.792,12.852-28.152,20.808-43.452,24.479c-9.792,2.448-19.584,3.672-29.988,3.672
			c-9.792,0-18.36,1.225-27.54-1.836c-9.18-3.672-16.524-12.239-23.256-18.972c-6.732-6.731-12.24-17.748-15.912-26.928
			c1.224,1.836-0.612-1.836-0.612-2.448c-0.612-1.836-1.224-3.06-2.448-4.896c-1.224-3.06-3.06-5.508-4.896-8.568
			c-3.06-5.508-6.732-10.404-9.18-16.524c-2.448-4.896-4.284-9.792-5.508-14.688c-1.836-4.896-7.344-14.688-5.508-20.196
			c2.448,0.612,3.06,0,5.508-0.612c1.224,12.24,11.628,25.704,24.48,28.152c12.24,1.836,26.316-6.732,31.824-17.136
			c0,4.284-1.224,14.688,1.836,17.748c6.12,6.732,4.896-14.688,4.284-17.136c-0.612-7.956-1.224-15.912-1.836-23.868
			c0-2.448-0.612-3.06,1.224-4.284c1.224-0.612,4.284,0,5.508,0c2.448,0,6.732,1.224,8.568-1.224
			c1.224,8.568,3.672,15.912,11.016,20.808c7.344,4.896,15.3,9.18,23.868,6.732c15.3-4.896,25.092-18.36,25.092-34.272
			c6.12,0.612,14.076-1.224,20.196-2.448c2.448-0.612,6.732-2.448,7.956-1.224c2.448,1.224,3.061,4.896,5.508,6.12
			c5.509,3.672,7.345-0.612,7.345-5.508c0-2.448,0-5.508,1.224-7.344C383.724,298.08,384.948,301.14,387.396,298.692
			L387.396,298.692z M294.984,305.424c4.284-4.284,11.016-5.508,17.136-6.732c4.896-1.224,13.464-3.672,18.36-0.612
			c10.403,6.732,4.896,25.092-1.225,32.436c-3.06,4.284-7.956,6.732-12.852,9.18c-7.345,3.06-12.853,1.836-19.584-1.836
			c-10.404-6.732-18.36-22.032-8.568-32.436C289.476,307.26,293.148,307.26,294.984,305.424L294.984,305.424z M321.3,297.468
			C320.688,297.468,320.688,297.468,321.3,297.468L321.3,297.468z M381.888,301.14L381.888,301.14L381.888,301.14z M217.872,316.44
			c3.672-0.612,6.732-1.836,9.792-2.448c1.836-0.612,3.672-1.224,5.508-1.836c3.672-0.612,1.224,0,3.06,0.612
			c2.448,0.612,4.896,2.448,7.344,2.448c0.612-1.224,1.224-1.224,1.836-0.612c0.612,0.612,1.224,0.612,1.224,1.224
			c1.836,1.224,3.06,3.06,4.284,4.896c7.344,11.628,1.224,27.54-10.404,34.272c-7.344,4.284-13.464,4.896-20.808,0.612
			c-4.896-3.06-9.18-9.18-11.628-15.3c-2.448-6.732-1.836-14.688,1.836-20.808c0.612-0.612,0.612-1.836,1.224-1.836
			C215.424,315.828,214.812,317.052,217.872,316.44L217.872,316.44z M212.976,317.664L212.976,317.664L212.976,317.664z
			 M326.196,333.576C325.584,333.576,325.584,333.576,326.196,333.576L326.196,333.576z M399.024,349.488L399.024,349.488
			L399.024,349.488z M395.352,355.608L395.352,355.608L395.352,355.608z M230.724,359.28L230.724,359.28L230.724,359.28z
			 M281.52,459.648c37.944-0.612,78.336-13.465,97.308-49.572c1.224,9.18,1.836,18.359,3.06,27.54
			c0.612,2.448,0.612,5.508,1.225,7.956c1.224,3.672,1.224,2.447-0.612,5.508c-1.836,2.448-6.12,6.12-7.956,6.732
			c-11.016,8.567-24.479,17.747-37.944,25.092c-6.119,3.672-12.852,6.12-18.972,10.403c-5.508,3.673,0,7.956,3.672,11.017
			c-6.731,0-13.464,2.448-20.196,3.672c1.224-2.448,5.508-3.672,5.508-6.732c0-3.06-4.284-4.896-6.12-6.731
			c-6.732-4.284-14.076-8.568-21.42-12.853c-6.732-3.672-14.076-7.344-20.808-12.239c-1.836-1.225-3.672-3.061-4.896-4.284
			c-1.224-1.836-1.224-1.836-1.224-4.284c-0.612-3.672,0-7.956-0.612-12.24C260.1,457.2,271.116,459.648,281.52,459.648
			L281.52,459.648z M391.068,449.244c0,0,4.896,14.076,3.06,17.136c-1.836,3.061-7.344,5.508-10.404,7.344
			c-3.672,2.448-7.344,4.896-10.403,7.345c-6.732,4.283-15.301,8.567-19.584,15.912c-3.672,6.731-4.284,15.3-6.12,22.644
			c-6.732-9.792-18.36-14.076-26.929-22.032c12.853-7.956,26.316-15.3,37.944-23.868c6.12-4.283,12.24-8.567,17.748-13.464
			c2.448-1.836,4.896-5.508,7.956-6.731c0.612-1.225,1.224-1.836,1.836-1.225c0.612,0.612,1.225,0.612,1.836,0.612
			C389.232,451.08,390.456,451.08,391.068,449.244L391.068,449.244z M374.544,457.812L374.544,457.812L374.544,457.812z
			 M241.74,460.872c0,0.612-0.612,0.612-1.224,1.224C241.128,462.096,241.74,461.484,241.74,460.872L241.74,460.872z
			 M273.564,515.952c-11.628-14.076-18.972-28.765-23.868-45.9c0.612,0,5.508,4.896,6.732,5.508
			c3.06,2.448,6.732,4.896,10.404,6.732c6.12,3.672,12.852,7.344,18.972,11.628c3.06,2.448,6.732,4.284,9.792,6.732
			c3.672,3.06,2.448,3.06,0,6.731c-4.284,6.732-8.568,14.076-12.24,20.809C279.684,523.908,276.624,520.236,273.564,515.952
			L273.564,515.952z M473.076,504.936C473.076,504.936,474.3,506.16,473.076,504.936L473.076,504.936z M159.732,512.892
			C159.732,512.892,160.344,512.892,159.732,512.892L159.732,512.892z M317.628,561.24c-7.956-1.225-11.016-9.792-15.3-15.912
			c-2.448-3.061-9.18-8.568-9.18-12.24c0-2.448,4.284-12.24,6.12-14.688c3.06-3.061,13.464-3.673,17.748-4.284
			c5.509-0.612,7.956-0.612,12.24,2.448c4.896,3.06,12.853,8.567,12.24,14.688c-0.612,5.508-4.284,11.628-7.344,16.524
			C330.48,553.896,325.584,561.852,317.628,561.24L317.628,561.24z M286.416,538.596c0.612-0.611,0.612-1.224,1.224-1.224
			c1.836,3.06,4.896,6.12,6.732,8.568C291.924,543.492,289.476,541.044,286.416,538.596L286.416,538.596z M320.076,566.136
			c0,0,3.06-0.611,3.672-0.611c-0.612,0.611-1.224,1.836-1.836,2.447C321.3,567.36,320.688,566.748,320.076,566.136L320.076,566.136
			z M526.932,573.48c1.225-1.225,1.836-2.448,3.061-3.673C529.38,569.808,526.32,573.48,526.932,573.48L526.932,573.48z
			 M476.748,623.664c-0.612,0-0.612,0.612-1.224,0.612C476.136,624.276,476.748,623.664,476.748,623.664L476.748,623.664z
			 M135.252,624.888c-0.612,0-0.612-0.611-1.224-0.611c4.284,3.06,7.956,6.12,12.24,9.18
			C143.208,630.396,138.924,627.948,135.252,624.888L135.252,624.888z M135.864,625.5C136.476,625.5,136.476,625.5,135.864,625.5
			L135.864,625.5z M341.496,680.58C340.884,680.58,340.884,680.58,341.496,680.58L341.496,680.58z"/>
		<path fill="#B1440A" d="M318.24,513.504c-4.896,0.612-16.524,1.224-18.972,4.896c-1.836,2.447-6.12,11.628-6.12,14.075
			c0,3.673,6.12,8.568,8.568,11.629c3.672,4.283,7.344,14.075,12.853,15.911c13.464,5.509,23.256-16.523,26.315-26.315
			c1.836-6.732-0.611-10.404-6.12-14.688C329.256,514.728,324.972,512.892,318.24,513.504L318.24,513.504z"/>
		<path fill="#FFFFFF" d="M286.416,165.276c-18.972,0.612-36.72,3.672-53.244,13.464c-14.076,8.568-26.316,17.748-34.272,32.436
			c-14.076,28.152-18.36,65.484-4.896,94.86c-0.612-21.42-3.06-45.288,3.672-66.096c1.836-5.508,4.284-10.404,6.732-15.912
			c1.836-3.672,4.284-9.18,7.956-11.628c3.672-3.06,5.508,0.612,8.568,3.06c4.896,4.284,10.404,7.344,15.912,10.404
			c11.628,6.732,22.032,7.344,34.884,6.732c4.896,0,10.404,0,15.3-1.224c6.12-1.836,12.24-4.896,17.136-8.568
			c3.672-2.448,7.956-7.344,12.24-8.568c3.672-1.224,8.567,1.224,11.628,2.448c9.18,4.284,18.359,9.792,24.479,18.972
			c6.12,9.18,7.345,20.808,9.181,31.824c1.836,11.628,6.119,23.256,12.239,33.66c1.225-4.284,3.061-7.956,6.12-11.016
			c2.448-2.448,7.956-3.06,9.792-5.508c1.836-1.836,1.225-9.18,1.225-12.24c0.611-3.672,0.611-6.732,1.224-10.404
			c1.224-9.792,3.06-20.808,2.448-30.6c-0.612-9.792-6.12-18.972-11.628-26.928C362.304,171.396,323.748,164.052,286.416,165.276
			L286.416,165.276z"/>
		<path fill="#232323" d="M192.78,320.724c0,3.672,0,8.568,2.448,11.628c3.672,4.896,11.016,2.448,12.24-2.448
			c1.224-4.284,1.224-12.24-3.06-15.3C199.512,311.544,192.168,315.216,192.78,320.724L192.78,320.724z"/>
		<path fill="#C2C2C2" d="M267.444,123.66c-48.96,6.732-94.86,26.316-133.416,56.304l0.612-0.612
			c-58.752,45.9-98.532,113.832-108.324,187.272v-0.612c-12.24,86.292,22.032,176.868,83.844,236.844
			c-0.612-7.956,0.612-15.912,1.836-23.868c1.836-11.017,5.508-20.809,9.18-31.212c6.12-15.912,16.524-31.212,31.212-39.78
			c7.956-4.896,17.748-7.344,26.316-11.628c7.344-3.672,14.688-7.956,22.032-11.628c4.284-2.448,9.18-4.896,13.464-6.732
			c2.448-0.611,4.896-0.611,6.732-1.836c2.448-0.612,3.06-2.448,4.284-4.284c2.448-3.672,6.12-6.731,9.18-9.792
			c3.06-3.06,6.12-3.672,6.12-7.956c0-3.672,0-11.016-1.224-14.075c-1.224-3.061-5.508-5.509-7.956-8.568
			c-6.12-7.956-9.792-18.36-12.852-27.54c-1.224-3.06-2.448-6.12-3.672-9.792c-1.224-2.448-2.448-4.896-3.06-7.956
			c-1.224-3.672-3.06-4.284-5.508-7.344c-4.284-5.508-6.732-13.464-8.568-20.196c-2.448-7.956-6.732-17.136-4.896-25.092
			c0-0.612,1.224-1.224,1.224-1.836c0-0.612-0.612-1.224-1.224-1.836c0-1.836-0.612-4.896-1.224-6.732
			c-1.224-4.896-5.508-9.18-7.956-14.076c-9.18-18.972-11.628-41.004-8.568-61.812c1.836-10.404,6.12-18.972,9.18-28.764
			c4.284-11.016,8.568-21.42,16.524-29.988c15.3-16.524,36.72-27.54,58.752-30.6c22.644-3.06,45.288-1.224,67.32,1.836
			c20.809,3.06,42.841,14.688,57.528,29.988c7.956,7.956,15.912,17.136,20.196,28.152c4.284,10.404,3.06,20.808,0.611,31.212
			c-1.224,5.508-2.447,11.628-3.672,17.136c-1.224,4.896-5.508,14.076-4.283,18.36c0.611,2.448,7.956,5.508,9.792,8.568
			c3.06,4.896,3.06,11.016,3.06,15.912c0,17.748-2.448,44.064-18.972,54.468c-1.836,1.224-4.284,2.448-6.12,3.06
			c-3.672,1.224-3.061,1.224-3.061,4.896c0,3.06,0,6.12,0,9.18c0,4.284-0.611,8.568-0.611,12.852c0,3.671,0.611,6.732,0.611,11.016
			c0,4.283,0.612,7.956,1.225,12.239c0,0.612,0.611,4.284,0.611,4.284h2.448c3.061,1.225,5.508,2.448,7.956,3.672
			c9.18,5.509,16.524,11.628,21.42,21.42c1.836,3.673,3.061,7.956,4.896,11.629c1.836,3.06,4.896,5.508,7.344,7.955
			c6.732,6.12,13.464,12.24,20.808,17.748c13.464,9.181,26.929,15.301,42.229,21.421c12.24,4.896,24.479,11.016,34.884,19.584
			c6.732,5.508,12.24,11.628,18.36,17.747c42.84-73.439,48.96-164.016,18.359-243.576
			c-25.092-74.052-86.292-134.028-161.567-160.956C358.02,122.436,312.12,117.54,267.444,123.66L267.444,123.66z"/>
	</g>
</g>
</svg>
