<?xml version="1.0" encoding="utf-8"?>
<!-- Generator: Adobe Illustrator 16.0.0, SVG Export Plug-In . SVG Version: 6.00 Build 0)  -->
<!DOCTYPE svg PUBLIC "-//W3C//DTD SVG 1.1//EN" "http://www.w3.org/Graphics/SVG/1.1/DTD/svg11.dtd">
<svg version="1.1" id="Layer_1" xmlns="http://www.w3.org/2000/svg" xmlns:xlink="http://www.w3.org/1999/xlink" x="0px" y="0px"
	 width="606.516px" height="606.556px" viewBox="0 97.126 606.516 606.556" enable-background="new 0 97.126 606.516 606.556"
	 xml:space="preserve">
<g id="Background">
</g>
<g id="Image_Layer">
</g>
<g id="Draw_Layer">
</g>
<g id="Draw_Layer_1_">
	<g>
		<path fill="#232323" d="M252.756,169.56c-14.688,5.508-29.376,16.524-36.72,31.212c-8.568,17.748-11.628,37.944-12.24,57.528
			c0,7.344,0,14.076,0,21.42c0,2.448,0,6.12,0.612,8.568c1.224,4.896,6.732,5.508,7.956,0.612c0.612-3.06-0.612-7.956-0.612-11.628
			c-0.612-6.12-0.612-11.628-0.612-17.748c0.612-11.016,1.836-22.644,4.284-33.048c2.448-11.016,6.12-22.644,13.464-31.824
			c6.732-7.956,14.688-13.464,24.48-17.748c-1.224,0.612,0.612,0,1.224-0.612c0.612-0.612,1.836-1.224,1.836-2.448
			C257.04,170.784,254.592,168.336,252.756,169.56L252.756,169.56z"/>
		<path fill="#232323" d="M274.788,165.276c-17.136,1.836-33.048,9.792-44.064,23.256c-3.06,3.672-1.224,4.284,1.836,1.836
			c3.06-2.448,5.508-5.508,8.568-7.956c6.12-4.284,13.464-6.732,20.808-7.956c13.464-2.448,26.928,0,39.78,2.448
			c16.524,3.06,29.988,9.18,42.229,21.42c10.403,11.016,17.136,23.868,22.644,37.944c3.061,7.956,5.508,16.524,6.732,25.092
			c0.611,3.672,0.611,7.344,1.224,10.404c0.612,3.672,0,9.18,1.224,12.24c1.225,2.448,3.673,4.896,6.732,3.06
			c2.448-1.224,2.448-4.284,2.448-6.732c0.611-7.344,0-15.3-1.225-22.644c-2.447-17.748-8.567-34.884-17.136-50.184
			c-9.18-15.912-23.868-29.988-41.616-36.72C309.672,165.888,290.7,163.44,274.788,165.276L274.788,165.276z M239.904,183.024
			L239.904,183.024L239.904,183.024z"/>
		<path fill="#232323" d="M198.9,290.736c-13.464,3.06-11.016,22.644-9.792,32.436c-1.224,2.448,1.836,13.464,3.672,17.748
			c1.836,6.12,6.12,11.628,12.852,14.076c6.12,1.836,10.404-3.06,4.284-6.732c-6.732-4.284-8.568-8.568-9.792-15.912
			c-0.612-4.284-6.732-34.272,1.836-33.048c2.448,0.612,3.672,4.284,6.732,4.284c3.672,0,4.896-3.672,3.06-6.12
			C209.304,291.96,203.184,289.512,198.9,290.736L198.9,290.736z"/>
		<path fill="#232323" d="M377.604,287.064c-6.731,1.224-14.688,22.032-6.731,20.808c6.12-0.612,3.672-20.196,12.852-9.792
			c6.732,7.956,6.12,23.868,4.896,33.66c-1.224,7.344-4.896,18.972-14.076,12.852c-1.836-1.224-2.448-3.06-4.896-1.836
			c-2.448,1.224-1.225,3.672,0,5.508c1.836,3.06,4.896,4.896,7.955,5.508c11.017,1.836,16.524-9.792,18.36-18.36
			c2.448-9.792,2.448-21.42-0.612-31.212C392.904,296.244,387.396,285.228,377.604,287.064L377.604,287.064z M379.44,294.408
			C378.828,294.408,378.828,294.408,379.44,294.408L379.44,294.408z M375.768,299.304
			C375.156,299.304,375.156,299.304,375.768,299.304L375.768,299.304z"/>
		<path fill="#232323" d="M368.424,340.308c-2.448,1.224-1.836,7.344-2.448,9.792c-0.611,4.284-0.611,8.568-1.224,13.464
			c-1.224,8.568-3.672,17.136-7.956,24.48c-6.12,12.853-17.136,24.48-28.152,33.048c-6.119,4.896-12.852,9.181-19.584,12.24
			c-7.344,3.06-15.3,2.448-23.255,1.836c-16.524-1.836-31.212-9.792-44.064-20.196c1.836,1.225-2.448-2.447-2.448-2.447
			c-1.224-1.225-2.448-2.448-3.672-3.673c-0.612-0.611-1.224-1.836-1.836-2.447c-3.672-4.896-6.732-10.404-9.18-15.912v0.612
			c-0.612-1.224-1.224-2.448-1.836-4.284c-2.448-6.12-4.284-12.852-5.508-19.584c-0.612-3.06-0.612-6.732-1.224-9.792
			c0-1.224,0-9.18-3.06-6.12c-2.448,1.836,0.612,15.912,0.612,18.36c0.612,4.896,1.224,9.792,2.448,14.688
			c3.06,11.016,7.956,21.42,15.3,29.988c7.956,9.18,19.584,15.3,29.988,21.42c10.404,6.12,22.644,7.956,34.884,7.956
			c25.092-0.612,46.512-22.032,60.588-41.616c6.732-9.792,11.017-20.196,13.464-31.212
			C372.096,367.236,376.38,336.024,368.424,340.308L368.424,340.308z M364.752,364.176L364.752,364.176L364.752,364.176z
			 M223.992,389.268C224.604,389.268,224.604,389.268,223.992,389.268L223.992,389.268z M234.396,406.404
			C234.396,407.016,234.396,407.016,234.396,406.404L234.396,406.404z"/>
		<path fill="#232323" d="M268.668,164.664c-51.408,1.836-61.2,66.096-64.26,105.876c-0.612,6.12-0.612,12.24,0,18.36
			c0,2.448,0,5.508,1.224,7.344c1.836,2.448,5.508,3.06,7.344,0c2.448-3.672-0.612-13.464-0.612-18.36
			c0-6.732,0.612-13.464,1.224-20.196c1.836-19.584,4.284-41.004,15.912-58.752c6.732-10.404,16.524-20.196,28.152-25.704
			c3.672-1.836,7.344-3.06,11.628-3.672c1.836,0,6.12,1.224,7.956,0.612c3.06-1.224,2.448-3.672,0-5.508
			C275.4,164.664,270.504,164.664,268.668,164.664L268.668,164.664z"/>
		<path fill="#232323" d="M323.748,235.044c-15.3,3.06-28.764,13.464-44.064,15.912c-8.568,1.224-17.748-0.612-26.316-2.448
			c-11.016-1.836-31.824-11.628-37.332,3.06c-2.448,6.732-4.284,14.076-4.896,20.808c-0.612,4.896-0.612,9.792-0.612,14.688
			c0,1.836-0.612,6.12,0,7.344c1.224,2.448,3.06,2.448,4.284,0c1.224-3.06,0-9.792,0.612-13.464c0-1.224,0.612-4.284,0.612-4.284
			c0.612-4.284,1.224-8.568,2.448-12.852c0.612-2.448,1.836-10.404,3.672-12.24c1.836-1.224,6.732,0,8.568,0
			c8.568,1.836,16.524,4.284,25.704,6.12c9.18,1.224,17.748,3.06,26.928,1.836c9.18-1.836,17.748-5.508,26.316-8.568
			c7.956-3.06,15.912-7.344,24.48-6.732c9.792,0,15.3,3.672,20.195,12.24c4.896,9.18,7.345,19.584,8.568,29.988
			c0.612,5.508,1.224,22.644,9.792,13.464c4.284-4.284,12.852-16.524,7.956-23.256c-6.732-8.568-8.568,9.792-9.18,12.24
			c-0.612-14.688-3.061-33.048-12.853-44.676C350.676,233.208,335.988,231.984,323.748,235.044L323.748,235.044z M222.156,250.344
			L222.156,250.344L222.156,250.344z M222.156,250.344C222.156,250.344,221.544,250.956,222.156,250.344L222.156,250.344z
			 M221.544,250.956C221.544,251.568,221.544,251.568,221.544,250.956L221.544,250.956z"/>
		<path fill="#232323" d="M335.988,235.044c-19.584,0.612-34.272,14.688-53.244,17.136c-7.956,1.224-15.3,0-23.256-1.836
			c-7.344-1.836-14.688-5.508-22.032-6.732c-4.896-0.612-11.016-1.836-15.3,0.612c-5.508,3.06-9.18,13.464-11.016,19.584
			c-0.612,3.06-3.672,10.404-2.448,13.464c2.448,4.896,4.896,0.612,6.12-1.836c2.448-7.344,3.06-17.748,9.18-23.256
			c1.836-1.836,2.448-0.612,4.284-1.224c3.06-0.612,4.284-1.224,7.956,0c7.956,1.836,14.688,6.12,22.644,7.956
			c9.18,1.224,17.136,1.224,26.316-0.612c8.568-1.836,15.912-6.12,23.868-9.18c14.076-6.12,32.437-12.24,44.677,0
			c6.12,6.12,8.567,14.688,10.403,22.644c1.225,4.896,2.448,9.18,2.448,14.076c0,4.284-0.612,9.18,0.612,13.464
			c0.611,3.672,3.672,6.732,7.344,4.284c3.06-2.448,2.448-9.18,2.448-12.852c0-8.568-1.836-16.524-4.284-23.868
			C366.588,249.12,355.572,235.044,335.988,235.044L335.988,235.044z M330.48,241.776
			C329.868,241.776,329.868,241.776,330.48,241.776L330.48,241.776z M227.052,249.732
			C227.664,250.344,227.664,250.344,227.052,249.732L227.052,249.732z M226.44,249.732L226.44,249.732L226.44,249.732z
			 M224.604,250.956L224.604,250.956L224.604,250.956z"/>
		<path fill="#232323" d="M274.176,313.992c-0.612,6.732-1.836,14.076-2.448,20.808c0,1.836-3.06,12.24,1.836,10.404
			c3.06-1.224,2.448-15.3,2.448-18.36c0-3.672,1.224-7.956,1.224-11.016c0-0.612,0.612-2.448,0-3.06
			C275.4,312.768,274.176,312.768,274.176,313.992L274.176,313.992z"/>
		<path fill="#232323" d="M267.444,350.712C267.444,350.712,266.832,350.1,267.444,350.712L267.444,350.712z"/>
		<path fill="#232323" d="M321.3,307.872c-3.06,0-12.852,2.448-14.076,4.896c-1.835,3.06,1.225,4.284,3.673,3.06
			c6.119-2.448,12.852-4.284,18.972-3.672c1.836,0,11.016,1.224,6.12-2.448C332.928,307.26,324.36,307.26,321.3,307.872
			L321.3,307.872z M310.896,315.216C311.508,315.216,311.508,315.216,310.896,315.216L310.896,315.216z"/>
		<path fill="#232323" d="M321.912,302.364c-10.404,1.224-7.344,18.972,1.836,18.972
			C334.152,321.336,331.704,301.14,321.912,302.364L321.912,302.364z"/>
		<path fill="#232323" d="M244.188,309.096c-3.06,0.612-6.732,1.836-9.18,3.672c-3.06,1.836-4.284,6.12,0.612,5.508
			c3.672-0.612,6.12-3.672,9.792-4.284c3.06-0.612,6.732,0,9.792,0.612c1.224,0,4.896,2.448,6.12,1.224
			c1.836-1.836-0.612-3.672-1.836-4.284C255.816,309.096,249.084,308.484,244.188,309.096L244.188,309.096z"/>
		<path fill="#232323" d="M244.8,306.648c-5.508,3.06-4.284,15.912,3.06,14.688C257.04,320.112,252.144,302.364,244.8,306.648
			L244.8,306.648z"/>
		<path fill="#232323" d="M323.748,291.348c-6.12,0.612-11.628,2.448-17.136,4.896c-1.836,0.612-6.12,1.836-4.284,4.896
			c1.836,2.448,5.508,0,7.344-0.612c7.344-3.06,17.136-3.06,25.092-1.836c2.448,0.612,5.509,1.224,7.956,2.448
			c1.225,0.612,2.448,1.836,3.672,1.836c3.061,0,3.673-3.06,1.836-4.284C342.72,294.408,331.704,290.736,323.748,291.348
			L323.748,291.348z"/>
		<path fill="#232323" d="M238.68,295.632c-3.672,0-15.3,3.06-15.3,7.956s10.404-1.836,12.852-2.448c1.836-0.612,5.508,0,7.956,0
			c5.508,0.612,11.628,1.836,17.136,4.284c1.224,0.612,3.672,3.06,5.508,3.06c2.448,0,3.06-2.448,1.836-4.284
			c-1.836-3.06-8.568-5.508-11.628-6.12C250.92,296.244,244.8,295.632,238.68,295.632L238.68,295.632z"/>
		<path fill="#232323" d="M211.752,329.292c-3.06,1.836,2.448,31.824,4.896,31.824c3.672,0,0-15.912-0.612-18.36
			C215.424,341.532,214.2,327.456,211.752,329.292L211.752,329.292z"/>
		<path fill="#232323" d="M369.036,323.784c-3.061,0.612-1.836,15.3-1.836,17.748c0,3.672-3.672,21.42-0.612,22.644
			C370.872,366.012,374.544,321.948,369.036,323.784L369.036,323.784z"/>
		<path fill="#232323" d="M322.524,372.132c0,1.836-0.612,20.196,6.119,14.688c2.448-1.836,0.612-9.18,0-12.24
			c0-1.836,0-4.284-1.836-4.896C324.972,368.46,322.524,369.684,322.524,372.132L322.524,372.132z"/>
		<path fill="#232323" d="M323.748,377.028c-4.284,0-9.792,4.284-14.688,5.508c-4.284,1.224-9.792,2.448-13.463,1.836
			c-4.284-0.612-9.792-0.612-15.3,0.612c-4.896,2.448-11.016,4.896-16.524,2.448c-1.836-0.612-7.956-3.06-4.896,1.224
			c1.224,2.448,7.956,3.06,10.404,3.06c7.344,0,14.076-3.672,21.42-3.06c7.956,1.224,14.076,1.836,22.032-1.224
			c3.672-1.224,8.567-3.672,11.628-6.12C324.972,380.7,328.032,377.028,323.748,377.028L323.748,377.028z M302.328,384.984
			C301.716,384.984,301.716,384.984,302.328,384.984L302.328,384.984z M267.444,388.656L267.444,388.656L267.444,388.656z
			 M295.596,384.984L295.596,384.984L295.596,384.984z"/>
		<path fill="#232323" d="M302.94,391.716c-6.12,1.224-11.628,4.896-18.36,4.896c-1.836,0-7.956-1.836-9.18-1.224
			c-3.06,1.224-0.612,2.448,1.836,3.06c6.12,1.836,11.628,2.448,17.136,0.611c2.448-0.611,8.568-1.224,9.792-3.06
			S306,390.492,302.94,391.716L302.94,391.716z"/>
		<path fill="#232323" d="M362.304,386.208c0,6.12,0,12.24,1.225,18.36c1.224,4.896,5.508,6.119,5.508,0
			c0.612-5.509,0-11.628-0.612-17.136c0-1.224,0-3.06-1.224-3.672C365.364,382.536,362.304,383.76,362.304,386.208L362.304,386.208z
			"/>
		<path fill="#232323" d="M225.828,403.344c0,2.448-1.224,17.748,3.06,17.137c3.06-0.612,1.224-7.345,1.224-9.793
			c0-1.836,0.612-6.119,0-7.344C228.888,401.508,225.828,399.672,225.828,403.344L225.828,403.344z"/>
		<path fill="#232323" d="M227.052,417.42c-1.836,0-4.284,0-6.12,0.612c-3.06,1.836-4.896,8.567-5.508,11.016
			c-3.06,7.344-4.896,15.912-6.12,23.868c-0.612,1.836-3.672,12.852,1.224,11.628c2.448-0.612,2.448-8.568,3.06-11.016
			c1.836-7.956,3.672-15.912,6.12-23.256c0.612-1.837,2.448-8.568,4.284-9.792c0.612,0,1.224,0,1.836,0
			c1.224-0.612,3.06,0.611,3.672-1.225C228.888,419.256,228.276,417.42,227.052,417.42L227.052,417.42z M211.752,459.648
			L211.752,459.648L211.752,459.648z"/>
		<path fill="#232323" d="M370.872,403.344c-4.896,1.836-7.956,6.12-10.404,9.792c-6.731,7.956-13.464,14.688-22.032,20.809
			c-23.867,15.912-54.468,19.584-80.171,6.731c-5.508-3.06-11.628-5.508-17.136-9.792c-2.448-1.836-11.016-13.464-14.688-10.403
			c-4.896,4.283,18.972,19.584,22.644,21.42c12.24,6.731,25.092,12.239,39.168,13.464c12.852,1.224,23.868-2.448,35.496-6.732
			c12.852-4.896,25.092-11.016,34.271-21.42c4.896-4.896,12.24-12.852,14.688-19.584c1.224,0,4.284,13.464,5.508,15.3
			c2.448,7.345,4.284,14.688,6.12,22.032c0.612,3.06,3.061,7.344,1.836,10.404c-1.224,3.672-6.731,7.344-9.792,10.403
			c-1.224,1.225-7.956,6.12-6.12,8.568c2.448,3.672,7.956-2.448,9.792-4.284c3.672-3.06,7.956-7.344,11.628-11.628
			c4.284-5.508,1.836-12.24-0.611-18.359c-2.448-7.345-4.896-14.076-7.956-21.421C380.664,414.36,377.604,400.896,370.872,403.344
			L370.872,403.344z M371.484,408.24C370.872,408.24,370.872,408.24,371.484,408.24L371.484,408.24z M299.88,447.408
			C298.656,448.02,298.656,448.02,299.88,447.408L299.88,447.408z M386.172,453.528C386.172,454.14,386.172,454.14,386.172,453.528
			L386.172,453.528z"/>
		<path fill="#232323" d="M208.692,460.26c-2.448,2.448,13.464,13.464,15.3,14.688c7.956,6.12,16.524,11.016,26.316,14.076
			c9.792,2.447,20.196,3.672,29.988,4.283c4.896,0.612,19.584,1.836,20.808-4.896c1.224-7.344-9.18-3.672-12.24-3.061
			c-7.956,0.612-15.912-0.611-23.868-1.224c-10.404-1.224-20.808-4.284-29.988-8.568c-4.896-2.447-9.792-4.896-14.688-7.956
			C219.096,466.38,210.528,458.424,208.692,460.26L208.692,460.26z"/>
		<path fill="#232323" d="M176.868,447.408c-3.672,4.284,1.224,11.628,3.06,15.912c1.836,4.283,4.284,8.567,6.12,12.852
			c2.448,4.896,5.508,11.628,9.792,15.3c4.284,3.061,10.404,1.836,10.404-4.284C206.856,478.62,182.988,440.676,176.868,447.408
			L176.868,447.408z"/>
		<path fill="#232323" d="M136.476,467.604c-3.06,3.061-1.836,11.017-2.448,14.688c0,4.896-0.612,9.792-0.612,14.688
			c0,4.283-0.612,6.731,3.672,9.18c4.284,2.448,7.956,2.448,7.344-3.672c0-4.896-1.224-9.181-1.224-14.076c0-4.284,0-7.956,0-12.24
			C143.208,473.724,141.984,460.872,136.476,467.604L136.476,467.604z M143.82,497.592
			C143.82,498.204,143.82,498.204,143.82,497.592L143.82,497.592z"/>
		<path fill="#232323" d="M209.304,452.916c0,0.612-6.732,4.284-7.344,4.284c-1.836,1.224-3.672,1.836-5.508,3.06
			c-4.896,3.672-2.448,9.181,3.672,7.344c3.672-1.224,9.18-4.283,12.24-7.344C214.2,458.424,214.2,452.916,209.304,452.916
			L209.304,452.916z"/>
		<path fill="#232323" d="M181.152,465.156c-3.672,0.611-7.344,4.284-11.016,6.12c-4.896,3.06-9.792,5.508-14.688,7.956
			c-4.896,2.447-9.792,3.672-14.688,6.119c-4.896,2.448-6.732,9.792,0,10.404c3.06,0.612,6.732-1.836,9.18-3.06
			c6.12-2.448,12.24-5.509,18.36-8.568c4.896-3.06,11.016-5.508,15.912-9.792C187.884,471.888,187.272,464.544,181.152,465.156
			L181.152,465.156z"/>
		<path fill="#232323" d="M135.864,485.964c-6.12,1.224-11.628,4.284-17.136,6.12c-6.732,2.448-13.464,3.672-20.808,4.284
			c-4.896,0.611-10.404,1.224-15.3,2.448c-7.956,1.836-11.016,4.896-12.852,13.464c-3.06,12.852-3.672,28.151-5.508,41.615
			c-0.612,6.12-1.224,12.24-1.836,17.748c0,2.448-0.612,4.896-0.612,7.345c0,3.06,0.612,3.672,2.448,6.731
			c1.836,3.061,4.284,5.508,6.732,8.568c0.612-14.076,2.448-27.54,3.672-41.616c0.612-6.732,1.224-13.464,1.836-20.808
			c0.612-3.672,0.612-7.345,0.612-10.404c0-1.836,0-9.18,1.224-11.016c1.224-0.612,4.896-0.612,6.732-1.225
			c3.06-0.611,6.732-1.224,9.792-1.836c8.568-1.224,17.136-3.06,25.092-6.12c4.896-1.836,9.792-4.896,15.3-6.12
			c3.06-0.611,6.732-1.224,6.732-4.896C141.372,487.188,138.924,485.352,135.864,485.964L135.864,485.964z"/>
		<path fill="#232323" d="M435.132,448.632c-12.852,0-25.092,8.568-35.496,14.688c-4.896,3.06-11.016,4.896-17.136,5.508
			c-4.896,0-9.792-0.612-14.688,0.612c-6.12,1.836-11.629,3.672-18.36,3.06c-5.508-0.612-11.628-1.224-17.136-1.224
			c-4.284,0-11.017-1.225-14.688,2.447c-4.284,4.284-1.224,12.24,1.224,16.524c-3.06,1.224-6.119,1.836-9.18,3.672
			c-4.284,2.448-1.836,1.836-1.836,6.12c0,3.06,0.612,0-0.612,1.836c-1.224,1.836-6.731,1.224-9.18,3.672
			c-3.672,4.284,0,13.464,0,18.36c0,3.06-0.612,6.731,0.612,9.792c1.224,3.06,4.896,3.672,4.896,6.12v-0.612
			c0,1.836-0.612,3.672-0.612,5.508c-0.612,4.284-1.224,8.568,0.612,12.853c1.836,4.283,6.12,4.896,8.568,7.344
			c1.836,1.836,1.836,6.731,2.448,9.18c0.611,4.284,0.611,7.956,0.611,12.24c-0.611,7.344,3.672,13.464,4.896,20.196
			c0.611,4.283,0.611,9.18,0.611,13.464c0,3.06,1.837,6.731,1.837,9.792c0,4.284-1.837,8.567-1.225,12.852
			c0.612,3.672,2.448,7.344,4.284,11.017c3.672,7.956,5.508,14.688,6.12,23.256c0,2.448,0,6.731,1.224,8.567
			c1.836,3.061,5.508,3.061,6.732-0.611c0.611-1.836-0.612-5.508-0.612-7.956s0-5.508-0.612-7.956
			c-0.611-6.12-1.836-11.017-4.283-16.524c-1.836-4.283-5.509-9.18-5.509-14.688c0-4.896,1.837-9.792,1.225-14.688
			c0.612,3.061,0-1.224,0-1.836c0-1.836,0-3.06,0-4.896c0-3.672,0.612-6.732,0-10.404c-0.612-7.344-4.284-13.464-4.896-20.808
			c-1.224-7.345-1.836-14.076-4.284-20.809c-1.224-2.448-1.836-4.896-3.672-6.731s-4.896-1.836-6.119-4.284
			c-3.061-5.508,1.836-12.24,0.611-18.36c-0.611-3.672-3.06-3.06-4.896-4.896c-1.836-1.836-1.224-4.896-1.836-7.956
			c-0.612-3.672-1.224-6.732-1.836-10.404s-0.612-2.448,1.836-3.672c4.896-2.448,10.404-4.284,6.732-11.017
			c3.061-1.224,7.956-1.836,11.017-3.672c5.508-3.06,0-9.792,0-14.688c11.628,0,25.092,3.06,36.72,0.612
			c5.508-1.225,9.792-3.061,15.3-3.061c6.12,0.612,11.628,0,17.748-1.836c11.016-4.284,19.584-12.852,29.988-18.36
			c2.447-1.224,4.896-2.447,7.956-3.06c1.836-0.612,5.508,0,7.344-1.224C441.252,451.692,438.192,448.02,435.132,448.632
			L435.132,448.632z M308.448,501.876L308.448,501.876L308.448,501.876z M308.448,501.876
			C308.448,502.488,308.448,502.488,308.448,501.876L308.448,501.876z M308.448,502.488
			C308.448,502.488,308.448,503.1,308.448,502.488L308.448,502.488z"/>
		<path fill="#232323" d="M438.192,449.244c-1.225-1.225-6.732,0.612-4.896,3.06c1.224,1.836,7.344,0,9.18,0
			c7.956,0,14.688,5.509,22.032,9.181c6.732,3.672,13.464,7.956,20.809,11.016c6.731,3.06,14.075,4.896,20.808,7.956
			c7.344,3.06,12.24,6.12,17.748,11.628c6.12,6.12,11.628,9.792,20.196,10.404c9.18,1.224,14.688,1.836,22.031,7.956
			c6.12,4.896,7.956,10.403,12.24,16.523c1.225-3.672,4.284-7.956,3.061-11.628c-1.225-3.672-5.509-7.344-8.568-9.18
			c-6.12-4.284-12.852-8.568-20.196-10.404c-6.12-1.836-12.24-1.836-17.136-6.12c-4.896-4.284-9.18-9.792-14.688-12.852
			c-12.852-7.344-28.151-7.956-41.615-14.076C466.344,456.588,452.88,447.408,438.192,449.244L438.192,449.244z"/>
		<path fill="#232323" d="M589.356,534.312C589.356,534.312,589.968,533.7,589.356,534.312L589.356,534.312z"/>
		<path fill="#232323" d="M429.624,580.212c-9.18,1.836-3.672,15.912-5.508,22.032c-1.225,4.284-3.672,7.344-3.061,12.24
			c0.612,4.283,3.061,7.344,5.509,10.403c2.447,3.061,6.731,5.508,7.344,9.792c0.611,4.284-2.448,9.181-3.061,14.076
			c-0.611,8.568,7.956,14.688,6.12,23.256c2.448-1.224,10.404-3.672,11.628-6.12c1.225-3.06-2.447-9.792-3.672-12.239
			c-3.06-6.732,2.448-13.465,1.225-20.809c-0.612-4.896-3.673-8.567-6.732-12.24c-2.448-2.447-6.12-5.508-6.732-8.567
			c0-2.448,2.448-6.732,3.061-9.181c0-1.224,0.611-10.403-0.612-10.403c5.508,2.448,10.404,4.284,15.912,6.12
			c10.404,3.672,20.808,3.672,31.824,1.836c11.016-1.836,22.644-4.284,33.66-3.061c4.283,0.612,11.016,3.672,14.688,2.448
			s7.344-8.568,9.18-11.628c-7.956,3.672-17.747-1.224-26.315-1.224c-10.404-0.612-20.196,1.836-29.988,3.06
			s-19.584,1.836-29.376-1.224C447.984,585.72,436.968,578.988,429.624,580.212L429.624,580.212z"/>
		<path fill="#232323" d="M386.784,451.08c-3.672,6.731,15.912,15.912,20.808,13.464c7.344-3.672-1.836-8.568-4.896-9.792
			C399.636,453.528,390.456,445.572,386.784,451.08L386.784,451.08z"/>
		<path fill="#232323" d="M311.508,479.232c-4.284,1.836-8.568,3.06-12.852,4.896c-2.448,0.612-6.12,1.224-7.956,3.06
			c-6.732,6.12,4.896,6.12,8.568,6.12c4.284,0,7.956-1.836,12.24-3.06c2.448-0.612,8.568-1.224,9.792-4.284
			C323.136,480.456,315.792,478.008,311.508,479.232L311.508,479.232z"/>
		<path fill="#232323" d="M244.8,102.24C123.012,125.496,25.092,225.864,4.284,348.264c-11.016,63.648-1.224,129.132,27.54,186.66
			c26.928,53.856,70.38,99.756,123.012,129.744c55.692,31.824,121.176,44.676,184.824,36.72
			c59.976-7.344,116.28-33.048,162.18-72.828c96.084-83.231,130.968-221.544,83.844-339.66S419.832,92.448,291.924,97.344
			C276.012,97.956,260.712,99.792,244.8,102.24L244.8,102.24z M38.556,514.116C16.524,460.26,10.404,400.896,22.644,343.98
			c12.24-56.304,41.004-107.712,83.232-147.492c86.292-82.62,220.32-101.592,326.196-45.288
			c104.651,55.692,165.852,174.42,148.716,292.536c-8.568,56.916-34.272,110.771-72.828,152.388
			c-41.004,44.676-96.084,74.052-155.448,85.068c-113.22,21.42-234.396-31.212-294.372-129.744
			C50.796,539.208,44.064,526.968,38.556,514.116L38.556,514.116z M73.44,223.416L73.44,223.416L73.44,223.416z M73.44,223.416
			L73.44,223.416L73.44,223.416z"/>
		<path fill="#940000" d="M372.096,407.628c-1.224,3.06-3.672,6.12-6.12,9.18c-5.508,7.345-11.628,14.076-18.972,19.584
			c-12.852,9.181-29.988,16.524-45.9,18.973c-17.748,2.448-34.272-3.672-49.572-11.628c-7.956-4.284-15.3-8.568-21.42-15.301
			c-1.224-1.224-4.896-6.731-5.508-6.731c-1.836-0.612-1.836,0.612-2.448,1.836c-3.672,4.284-4.896,12.24-6.12,17.136
			c-1.224,4.284-3.06,9.181-3.06,13.464c0,2.448,1.224,5.509-1.224,7.345c13.464,13.464,35.496,20.808,53.856,23.256
			c14.076,1.836,28.152,2.447,41.616-2.448c1.836-0.612,3.672-1.836,5.509-2.448c0.611,0,3.06,0,3.672-0.611
			c1.224-1.225,0.611-3.673,2.447-4.896s3.673-1.224,5.509-1.836c7.344-0.612,15.3,0,22.644,0.612
			c7.956,0.611,14.076-1.836,22.032-3.672c3.06-0.612,3.672-0.612,6.12-2.448c1.836-1.225,3.06-3.061,4.896-4.896
			c1.225-1.836,3.672-3.06,4.896-5.508c1.224-2.448,1.224-2.448,0-5.508c-2.448-8.568-3.672-16.524-6.12-25.092
			c-1.225-3.061-2.448-6.732-3.061-9.792C374.544,414.36,372.096,409.464,372.096,407.628L372.096,407.628z"/>
		<path fill="#940000" d="M207.468,463.32c-3.06,1.836-5.508,3.672-9.18,4.896c2.448,4.284,10.404,15.3,7.956,20.809
			c-6.12,13.464-18.972-11.017-20.808-15.301c-7.344,6.732-18.36,11.628-27.54,15.912c-3.672,1.836-9.18,2.448-12.24,4.896
			c-2.448,1.836-1.836,0-1.836,3.06c0,4.284,3.06,11.017-4.284,9.792c-6.12-1.224-6.12-6.12-6.12-11.628
			c-4.284,1.224-7.956,3.672-12.24,4.896c-7.344,3.06-14.688,4.283-22.644,6.119c-5.508,1.225-10.404,1.837-15.912,2.448
			c-1.224,0-4.284,0-4.896,0.612c-1.224,1.224-1.224,7.956-1.224,9.792c-0.612,11.016-1.836,22.032-2.448,33.048
			c-0.612,4.896-0.612,9.18-1.224,14.076c-0.612,4.896,0,6.12,3.06,9.792c2.448,3.06,4.896,6.12,7.344,9.18
			c38.556,44.064,89.964,76.5,146.88,91.188c33.66,8.567,69.156,11.016,103.428,6.731c-1.224-7.344-0.612-15.3-3.672-22.644
			c-2.448-6.12-6.12-11.628-7.344-17.748c-0.612-4.284,1.224-7.956,1.224-12.24c0-3.06-1.224-6.12-1.836-9.18
			c-1.225-8.568-0.612-15.912-3.672-24.48c-2.448-6.12-1.836-10.403-1.836-16.523c0-3.672-1.225-7.344-1.836-11.017
			c-1.225-4.283-0.612-4.283-4.284-6.12c-8.568-5.508-7.344-15.3-6.12-23.867v0.611c0.612-2.447-3.672-3.672-4.896-6.12
			c-1.224-2.447-0.612-6.119-0.612-8.567c0-4.896-3.06-13.464-1.224-17.748c1.224-3.061,4.284-3.672,7.344-4.896
			c3.06-1.224,2.448,0,2.448-3.06c0-1.224-1.224-1.836-0.611-3.672c0.611-1.225,2.448-2.448,3.672-3.061
			c2.448-1.224,5.508-2.447,7.956-3.672c0-0.611-0.612-2.448-1.225-3.06c-0.611,0-4.283,1.224-5.508,1.224
			c-3.06,1.224-6.12,2.448-9.18,3.061c-3.672,0.611-6.732,0.611-10.404,0.611c-11.016,0.612-22.032-0.611-32.436-2.448
			c-12.24-1.836-22.644-6.119-33.048-13.464c-4.284-3.06-7.956-6.12-12.24-9.18c-1.836-1.224-3.672-3.06-4.896-3.672
			C209.304,464.544,208.08,464.544,207.468,463.32L207.468,463.32z"/>
		<path fill="#940000" d="M435.132,591.84c0,4.896,1.224,9.18,0,14.076c-1.836,5.508-3.06,6.732,1.224,11.016
			c4.284,4.896,9.181,8.568,10.404,15.301c1.225,5.508-0.611,10.403-1.836,15.3c23.868-13.464,44.676-30.601,63.648-50.796
			c-15.301,0-29.988,6.12-45.9,4.283c-6.732-0.611-13.464-3.06-20.196-6.119C440.64,593.676,436.968,591.84,435.132,591.84
			L435.132,591.84z"/>
		<path fill="#940000" d="M390.456,459.036c-1.224,0-9.18,9.18-9.792,10.404c6.12,0.611,13.464-2.448,18.36-5.509
			C397.188,462.708,392.904,459.036,390.456,459.036L390.456,459.036z"/>
		<path fill="#232323" d="M413.1,555.12c-5.508,5.508,7.956,20.808,11.017,24.479c2.448,3.672,5.508,6.732,9.18,9.181
			c1.224,0.611,3.061,1.836,4.896,1.836c3.06-0.612,1.836-2.448,3.06-4.284c1.836-3.06,4.284-3.672,0-6.732
			c-3.672-2.447-9.18-3.06-12.852-6.119C425.952,571.032,417.996,550.224,413.1,555.12L413.1,555.12z M436.968,578.376
			C437.58,578.988,437.58,578.988,436.968,578.376L436.968,578.376z"/>
		<path fill="#232323" d="M466.344,569.808c-4.284,3.673-9.792,7.345-15.3,9.181c-2.448,0.611-4.896,0.611-7.956,0.611
			c-3.06,0-6.732-2.447-9.792-1.836c-2.448,0.612-3.672,2.448-3.672,4.896c0.612,3.06,3.672,3.672,6.12,4.284
			c2.448,0.611,6.731,0,8.567,1.224c1.837,0.612,3.061,3.672,6.12,4.896c4.896,1.836,11.628,1.836,16.524,1.836
			c4.284,0,14.688-0.612,17.748-4.284c4.896-6.12-5.508-5.508-8.568-4.896c-6.731,1.225-12.852,2.448-19.584,1.836
			c5.508-2.447,14.076-4.896,17.136-10.403C477.36,570.42,472.464,565.524,466.344,569.808L466.344,569.808z M468.18,586.944
			C467.568,586.944,467.568,586.944,468.18,586.944L468.18,586.944z"/>
		<path fill="#232323" d="M429.624,583.884c-3.06,11.628-11.016,20.196-20.808,26.928c-3.673,2.448-11.017,4.896-13.465,9.181
			c-4.283,6.12,4.284,7.344,8.568,6.12c11.016-3.672,21.42-14.076,27.54-23.868c1.224-1.836,3.06-4.896,4.284-6.732
			c1.224-2.447,0.611-4.896,1.224-7.956c0.612-1.836,1.225-4.284-0.612-5.508C433.296,580.212,430.236,581.436,429.624,583.884
			L429.624,583.884z M427.176,590.004C427.176,590.616,427.176,590.616,427.176,590.004L427.176,590.004z M411.876,608.976
			L411.876,608.976L411.876,608.976z"/>
		<path fill="#232323" d="M242.352,293.796c-4.896,0.612-8.568,2.448-12.852,4.284c-1.224,0.612-9.792,5.508-4.896,6.732
			c2.448,0.612,9.18-3.06,12.24-3.06c5.508-0.612,11.016,1.224,16.524,2.448c4.284,0.612,9.792,4.284,13.464,4.284
			s5.508-4.284,2.448-7.344c-2.448-2.448-9.18-4.284-12.24-4.896C252.756,294.408,247.248,293.184,242.352,293.796L242.352,293.796z
			 M254.592,304.2c0.612,0,0.612,0,1.224,0C255.204,304.812,254.592,304.2,254.592,304.2L254.592,304.2z"/>
		<path fill="#232323" d="M324.972,288.288c-4.284,0.612-25.704,4.896-23.868,11.628c1.224,4.284,4.896,3.06,7.956,1.836
			c4.896-1.836,9.792-3.06,15.301-3.06c5.508,0,11.016,0.612,16.523,1.836c2.448,0.612,14.076,4.896,13.464,0
			c0-3.06-9.792-6.732-12.239-7.956C337.212,290.124,331.092,288.288,324.972,288.288L324.972,288.288z M303.552,295.632
			L303.552,295.632L303.552,295.632z"/>
		<path fill="#232323" d="M346.392,299.304c-4.283,2.448,3.061,7.344,5.509,3.672C353.124,300.528,348.228,298.08,346.392,299.304
			L346.392,299.304z"/>
		<path fill="#232323" d="M350.064,301.14c-1.837,1.836,2.447,3.06,3.06,1.224C353.736,300.528,351.288,299.916,350.064,301.14
			L350.064,301.14z"/>
		<path fill="#232323" d="M276.012,312.768c-1.836,11.628-3.672,23.868-6.12,35.496c-0.612,3.672-4.896,11.628-1.224,14.076
			c3.06,2.448,12.852,0.612,16.524,0.612c6.12,0,11.628,0,17.748,0c4.284-0.612,11.016-3.672,3.672-6.12
			c-9.792-3.672-23.868-1.224-33.66,0c2.448-9.18,2.448-18.36,3.672-27.54c0.612-4.284,0.612-7.956,1.224-11.628
			c0-1.224,1.836-4.284,0-4.896C277.236,312.156,276.012,311.544,276.012,312.768L276.012,312.768z"/>
		<path fill="#FFFFFF" d="M271.728,173.232c-5.508,0-10.404,0.612-15.912,2.448c-4.896,1.224-8.568,4.896-12.852,7.956
			c-6.732,6.12-12.24,12.852-16.524,20.196c-8.568,15.912-11.016,34.884-12.852,52.632c1.836-3.06,1.836-7.956,4.896-10.404
			c2.448-2.448,7.956-3.672,11.628-3.672c8.568,0,15.3,3.672,23.256,5.508c12.852,3.06,25.092,3.06,37.332-1.224
			c16.523-6.12,31.824-14.688,49.572-12.852c18.359,1.836,28.151,20.196,33.048,36.72c-1.225-26.316-12.853-55.692-31.824-74.664
			c-10.404-9.792-22.032-15.912-36.108-18.36C294.984,175.68,283.356,172.62,271.728,173.232L271.728,173.232z"/>
		<path fill="#232323" d="M204.408,348.876c-2.448,4.284,5.508,9.792,9.18,7.956C220.32,353.772,208.08,342.756,204.408,348.876
			L204.408,348.876z"/>
		<path opacity="0.2" fill="#940000" d="M261.324,121.212c-73.44,10.404-141.984,50.184-187.272,109.548
			c-44.676,59.364-65.484,135.252-55.08,209.305c5.508,42.84,20.808,83.844,44.676,119.34c1.224-13.464,3.06-26.929,4.896-40.393
			c1.224-7.956,2.448-17.136,11.016-19.584c6.732-1.836,13.464-2.447,19.584-3.06c7.956-1.225,15.912-3.061,23.868-6.12
			c3.06-1.224,6.732-1.836,9.18-3.672c3.06-1.836,2.448-1.225,2.448-4.896c0-2.447,0-4.283,0-6.731c0-3.672,3.06-15.3,7.956-7.345
			c2.448,3.673,0.612,11.629,0.612,16.524c7.956-2.448,16.524-6.731,23.256-11.016c4.284-2.448,9.792-7.956,14.688-8.568
			c-1.836-3.672-9.792-15.912-3.06-18.36c3.672-1.224,6.732,3.061,8.568,5.509c1.224,1.836,6.12,9.18,7.956,9.792
			c1.224,0,6.12-3.672,7.344-4.896c1.836-1.224,3.672-1.836,4.896-3.672c1.836-1.836,1.836-1.836,2.448-4.896
			c1.836-8.567,3.672-17.136,7.956-25.092c1.224-2.447,2.448-4.896,4.896-6.12c1.224-0.611,3.06,0.612,3.672,0
			c0.612-0.611-0.612-9.792-0.612-11.016c0-4.284-2.448-7.344-4.284-11.016c-1.836-4.284-3.06-7.956-4.284-12.24
			c-1.836-7.956-2.448-17.136-2.448-25.704c-5.508,1.224-14.688-4.896-18.36-9.18c-4.896-6.732-6.12-17.136-6.732-25.092v0.612
			c-0.612-7.344-1.836-14.688,0-22.032c1.836-6.732,7.956-12.852,15.3-9.792c-1.224-21.42-1.836-42.84,2.448-64.26
			c2.448-11.016,5.508-23.256,12.24-32.436c5.508-7.956,12.852-14.076,20.808-18.972c17.748-12.24,36.72-11.628,57.528-9.18
			c13.464,1.224,26.928,3.672,38.556,10.404c11.016,6.732,20.808,16.524,27.54,27.54c8.567,12.24,14.076,28.152,17.748,42.84
			c1.836,7.956,2.447,15.912,3.06,23.868c0,3.672,1.836,14.076-2.448,16.524c14.076,4.284,15.912,24.48,15.301,37.332
			c-0.612,6.732-1.225,15.3-4.896,21.42c-3.672,6.12-12.24,10.404-18.36,6.12c0,4.284,0,9.18-1.224,13.464
			c-1.224,6.12-3.672,11.628-4.284,17.136c-0.611,1.836,0.612,3.672,0.612,6.12c0,3.672-0.612,9.18,0.612,12.24
			c1.224,3.672,0,1.225,3.672,1.836c3.672,0.612,4.896,3.672,6.12,6.732c3.672,9.18,7.344,18.359,10.403,27.54
			c1.225,3.672,1.836,9.792,3.672,12.852c1.225,1.836,6.12,3.672,7.956,4.896c1.836,0.611,3.672,1.836,5.509,2.447
			c2.447,0.612,2.447,0.612,4.896,0c4.896-1.224,9.18-4.896,13.464-6.119c5.508-1.837,9.792-1.837,15.3-1.837
			c6.732,0,11.628,0.612,17.748,3.061c3.061,1.224,6.12,3.06,9.181,4.284c6.731,3.06,13.464,6.731,20.808,9.18
			c9.792,3.672,19.584,4.896,29.376,8.568c10.404,4.284,15.912,15.3,25.704,18.972c8.568,3.061,15.912,3.672,23.868,8.568
			c26.315-72.216,22.644-155.448-11.628-225.216c-34.272-66.708-94.248-119.952-164.628-143.82
			C349.452,119.376,305.388,115.704,261.324,121.212L261.324,121.212z"/>
	</g>
</g>
</svg>
