<?xml version="1.0" encoding="utf-8"?>
<!-- Generator: Adobe Illustrator 16.0.0, SVG Export Plug-In . SVG Version: 6.00 Build 0)  -->
<!DOCTYPE svg PUBLIC "-//W3C//DTD SVG 1.1//EN" "http://www.w3.org/Graphics/SVG/1.1/DTD/svg11.dtd">
<svg version="1.1" id="Layer_1" xmlns="http://www.w3.org/2000/svg" xmlns:xlink="http://www.w3.org/1999/xlink" x="0px" y="0px"
	 width="603.311px" height="602.201px" viewBox="2.408 93.211 603.311 602.201"
	 enable-background="new 2.408 93.211 603.311 602.201" xml:space="preserve">
<g id="Background">
</g>
<g id="Image_Layer">
</g>
<g id="Draw_Layer">
</g>
<g id="Draw_Layer_1_">
	<path fill="#232323" d="M251.532,181.8C251.532,182.412,251.532,181.8,251.532,181.8L251.532,181.8z"/>
	<path fill="#232323" d="M248.472,182.412c0.612-0.612,0.612-1.224,1.224-1.224C249.084,181.8,248.472,182.412,248.472,182.412
		L248.472,182.412z"/>
	<path fill="#232323" d="M246.636,405.792C246.636,405.792,247.248,405.18,246.636,405.792L246.636,405.792z"/>
	<g>
		<path fill="#232323" d="M238.068,307.26c-6.732,4.284-5.508,17.748,3.672,17.748C255.204,325.008,248.472,301.14,238.068,307.26
			L238.068,307.26z"/>
		<path fill="#232323" d="M239.904,307.872c-3.06,0-9.792,1.224-11.628,3.672c-0.612,1.224,0,4.896,0,6.732
			c1.224,0,2.448,0.612,3.672,0.612c2.448,0,4.896-1.836,7.344-2.448c6.12-0.612,9.792,3.672,14.688,4.284
			c6.732,1.224,4.284-6.12,0.612-8.568C250.308,309.708,244.8,307.872,239.904,307.872L239.904,307.872z"/>
		<path fill="#232323" d="M311.508,304.812c-11.016,6.732,0.612,24.48,10.404,16.524
			C330.48,314.604,321.912,298.692,311.508,304.812L311.508,304.812z"/>
		<path fill="#232323" d="M315.792,306.036c-4.284,0.612-19.584,5.508-15.3,12.24c3.672,6.12,15.3-4.284,20.808-3.672
			c3.672,0.612,17.136,8.568,15.3,0.612C335.376,307.872,321.912,304.812,315.792,306.036L315.792,306.036z M313.344,315.828
			C312.12,316.44,312.12,316.44,313.344,315.828L313.344,315.828z"/>
		<path fill="#232323" d="M327.42,287.064c-8.568,2.448-16.523,3.672-25.092,6.12c-2.448,0.612-8.568,1.224-9.792,3.672
			c-2.448,3.672,1.836,4.284,4.284,3.672c1.224-0.612,2.448-1.224,3.672-1.836c0.612,0,4.896-3.06,3.06-1.836
			c9.792-3.672,18.36-3.672,27.54,0c3.672,1.224,10.404,6.12,14.688,6.12c3.06,0,5.508-1.836,4.284-5.508
			c-1.225-2.448-4.284-3.672-6.732-4.896C338.436,290.124,332.928,288.288,327.42,287.064L327.42,287.064z"/>
		<path fill="#232323" d="M309.06,291.348c-3.06,0.612-5.508,1.224-8.567,1.836c-1.224,0.612-1.836,1.224-3.06,1.836
			c-1.836,0.612-4.896,0.612-4.284,3.672C293.76,306.648,316.404,297.468,309.06,291.348L309.06,291.348z M296.82,297.468
			L296.82,297.468L296.82,297.468z"/>
		<path fill="#232323" d="M327.42,287.064c-7.344,1.836-14.688,3.06-21.42,4.896c-3.06,0.612-7.956,1.224-10.404,3.672
			c-1.836,1.836-3.06,4.284-0.612,6.12c1.836,1.836,4.284,0,6.12-0.612c6.732-2.448,14.076-4.284,20.808-4.284
			c7.344,0,12.24,0.612,18.972,3.06c2.448,0.612,8.568,2.448,7.956-1.836c0-1.836-4.896-4.896-6.12-6.12
			C339.048,290.124,331.704,285.84,327.42,287.064L327.42,287.064z"/>
		<path fill="#232323" d="M268.668,307.872c0,9.792,0,20.196-1.836,29.988c-0.612,6.12-2.448,12.852-4.896,18.36
			c-0.612,1.836-4.284,5.508-3.06,7.344c1.224,4.284,4.284,0,4.896-1.836c4.284-9.792,6.732-20.808,7.956-31.212
			c0.612-6.12,1.224-12.852,1.224-18.972c0-0.612,0.612-3.06,0-4.284C272.34,305.424,268.668,304.2,268.668,307.872L268.668,307.872
			z"/>
		<path fill="#232323" d="M278.46,369.072c-6.12,0-12.852,0.612-18.972,1.224c-2.448,0.612-7.344,1.224-4.896,4.896
			c1.836,2.448,6.732,1.224,9.18,1.224c4.284,0,8.568,0,12.852-0.612c2.448,0,5.508,0,7.956-0.612c1.836,0,6.732,0.612,8.568-0.612
			c4.896-3.06,0-4.896-3.672-5.508C286.416,368.46,282.744,369.072,278.46,369.072L278.46,369.072z"/>
		<path fill="#232323" d="M264.996,397.224c-1.224,0-20.196,4.284-12.852,8.568c1.836,1.224,4.896-0.612,6.732-1.224
			c3.672-1.225,6.732-1.836,10.404-1.225c2.448,0.612,4.896,1.836,7.956,1.836c3.672,0,6.732-2.447,10.404-2.447
			c7.956-0.612,15.912,3.672,23.868,3.06c1.836,0,5.508,0,4.284-3.672c-0.612-1.836-4.896-1.836-6.732-1.836
			c-4.284-0.612-9.18-1.225-13.463-1.225c-5.508,0-10.404,1.225-15.3,1.225C274.788,400.284,270.504,396.612,264.996,397.224
			L264.996,397.224z"/>
		<path fill="#232323" d="M263.772,407.016c-2.448,1.225-2.448,4.896,0,6.732c1.836,0,3.672,0,5.508,0.612
			c5.508,0.611,9.792,0.611,15.3,0c4.284,0,8.568-1.225,12.852-2.448c-1.836-4.284-11.628-1.225-14.688-1.836
			c-3.06,0-6.12-0.612-9.18-1.225C269.892,407.628,266.22,405.18,263.772,407.016L263.772,407.016z"/>
		<path fill="#232323" d="M287.028,93.672c-78.336,4.284-153.612,39.78-206.244,97.92C28.152,249.732,1.224,324.396,2.448,402.12
			c0,40.392,9.792,79.56,26.316,115.668c4.284,9.18,9.792,17.136,14.688,26.316c4.896,8.567,9.792,16.523,15.3,23.867
			c5.508,7.956,11.628,15.912,18.36,23.257c5.508,6.119,11.628,11.628,17.136,17.748c23.256,25.092,54.468,45.287,85.68,59.363
			c36.108,16.524,75.276,25.704,114.444,26.928c78.336,2.448,155.448-26.315,212.976-78.947c3.061-3.061,6.732-6.12,9.792-9.181
			c1.836-1.836,3.061-3.06,4.896-4.896c0.612-0.612,3.672-4.896,3.672-3.061c6.12-7.956,12.24-14.688,18.36-22.644
			c7.344-9.18,13.464-18.972,19.584-28.764c11.628-19.584,21.42-41.004,28.151-62.424c14.688-46.513,17.748-96.696,9.181-145.044
			c-15.912-89.964-74.053-168.912-154.836-211.752C397.8,102.852,342.108,90.612,287.028,93.672L287.028,93.672z M78.336,569.196
			c-47.124-62.425-65.484-146.269-51.408-222.768c15.3-80.784,64.872-152.388,135.864-193.392
			c74.052-43.452,165.24-49.572,244.8-18.972c77.112,29.988,138.312,96.084,164.628,173.808
			c25.092,75.888,17.137,160.344-22.032,229.5c-4.896,8.568-9.791,16.523-15.3,23.868c0,0-5.508-17.137-6.12-17.748
			c-3.672-9.792-7.956-17.137-15.911-23.256c-2.448-1.836-6.732-4.896-8.568-7.345c-1.836-1.836-2.448-4.896-3.672-7.344
			c-1.836-2.448-3.672-4.284-5.508-6.12c-5.509-4.896-14.688-8.567-11.017-17.748c3.672-9.18,15.3-15.912,20.196-25.704
			c5.508-12.239,1.836-23.867-7.956-32.436c-7.956-7.344-20.808-11.628-24.48-22.644c-3.06-9.792,4.896-15.3,8.568-23.256
			c12.24-22.644-6.12-41.004-20.196-56.916c-7.956-8.568-8.567-18.36-7.344-29.376c0-1.836,1.836-9.18-2.448-7.344
			c-1.836,1.224-1.836,5.508-1.836,7.344c-1.224,13.464-0.611,24.48,8.568,35.496c6.12,7.344,12.852,14.688,15.912,24.48
			c1.836,3.672,2.448,11.628,1.836,17.136s-4.284,9.792-7.344,14.688c-6.732,9.792-4.896,21.42,3.06,29.988
			c7.344,7.345,17.136,12.24,23.868,20.809c8.568,11.016,2.448,21.42-6.12,30.6c-7.956,7.956-17.748,17.748-13.464,29.988
			c3.672,9.792,14.076,15.912,17.136,26.315c3.061,10.404-3.672,22.032-11.628,28.152c-5.508,4.284-11.628,6.12-15.3,12.24
			c-3.061,5.508-3.061,11.016-8.568,15.3c-4.896,4.284-11.628,7.344-17.748,9.792c-12.239,4.284-25.704,6.12-37.332,4.896
			c-6.731-0.612-15.3-3.673-22.031-6.12h0.611c-11.628-4.896-23.868-11.017-30.6-22.032c-3.672-6.12-5.508-14.076-2.448-20.809
			c2.448-5.508,4.284,1.225,6.732,4.284c4.896,5.508,12.852,11.017,20.195,11.017c9.792,0,12.24-12.853,9.792-20.196
			c-2.447-7.956-11.016-4.896-17.136-7.956c-7.344-4.284-7.344-14.076-4.896-21.42c2.447-7.956,9.792-10.404,14.075-17.136
			c3.061-6.12,4.896-12.853-2.447-15.301c-4.284-1.224-6.12-1.836-7.345-6.119c-1.836-6.12,0-12.853,1.225-18.973
			c2.448-10.403,17.136-14.688,23.256-23.256c4.896-6.731,5.508-14.688,4.284-22.644c0-1.225-1.225-3.672-1.225-4.896
			c0-1.836,1.836-4.896,2.448-6.12c1.836-4.896,3.672-10.404,5.508-15.3c1.225-3.672,1.836-7.956,2.448-11.628
			c0-1.224,0.612-6.12,1.224-7.344c0.612-0.612,3.061-1.224,4.284-1.224c7.956-3.672,15.3-9.792,18.973-17.748
			c2.447-4.896,12.239-36.72,3.672-36.72l0,0c4.283-4.284,8.567-9.18,13.464-14.076c3.06-3.06,6.731-4.284,9.18-7.956
			c6.732-10.404,6.12-28.152,1.224-39.168c-5.508-12.852-14.075-22.644-24.479-31.824c-4.896-4.284-9.18-7.956-12.852-14.076
			c-3.673-6.12-6.12-12.24-9.792-18.36c-7.956-11.628-20.196-18.972-33.049-23.868c-15.3-6.12-28.764-6.12-44.676-3.06
			c-3.06,0.612-6.731,0.612-9.792,1.224c-1.224,0-2.448,0.612-3.672,0.612c-1.836,0-2.448-0.612-4.284-0.612
			c-6.731,0-14.076,1.836-21.42,1.836c-14.076,0-28.152,0.612-42.228,3.672c-27.54,6.12-50.796,24.48-61.2,50.796
			c-4.896,12.852-6.732,25.092-6.12,38.556c0,6.12,0.612,12.24,1.224,18.972c0,6.732-1.224,12.852-1.836,18.972
			c0,3.06,0,6.732,0.612,9.792c0.612,1.836,1.224,3.06,1.224,4.284c-0.612,1.836-2.448,4.896-3.06,6.732
			c-1.836,3.672-3.672,7.344-6.12,11.016c-7.956,12.852-16.524,24.48-20.196,39.168c-3.672,14.688-3.672,29.988,1.224,44.064
			c3.672,11.628,9.792,25.092,2.448,36.107c-4.896,7.956-9.792,14.076-12.24,23.257c-1.836,7.955-2.448,16.523,0,23.867
			c1.836,4.284,4.896,9.792,3.06,14.076c-2.448,5.508-10.404,10.404-14.076,14.688c-9.792,10.403-18.972,20.195-24.48,33.66
			c-5.508,14.075-9.18,28.764-11.628,43.451l0,0C89.964,582.66,83.844,575.928,78.336,569.196L78.336,569.196z M187.884,295.02
			c-3.06-7.344-0.612-15.912-0.612-23.868s-1.224-15.3-1.224-23.256c0-17.748,2.448-33.048,12.852-47.736
			c10.404-14.688,25.092-26.928,42.228-32.436c18.972-5.508,38.556-4.896,58.14-6.732c7.956-0.612,14.688-3.06,22.644-3.672
			c9.18-0.612,18.36-2.448,26.928-1.836c16.524,0.612,37.332,10.404,47.124,23.868c4.284,6.12,6.732,14.076,9.792,20.808
			c3.672,8.568,9.792,14.688,17.136,20.808c8.568,7.956,17.748,17.136,22.032,28.764c1.836,4.284,1.836,9.18,1.836,13.464
			c0,2.448,0,4.896,0,7.956c0,1.224,0,2.448-0.611,3.06c-0.612,2.448-0.612,1.836-2.448,3.06c-4.284,3.06-8.568,5.508-12.24,8.568
			c-3.06,2.448-6.12,5.508-8.568,8.568c-2.447,3.06-4.283,6.732-7.344,9.18c-3.06,2.448-7.344,4.284-11.628,6.12
			c-3.06,1.224-6.731,2.448-9.792,3.06c-3.06-9.792-5.508-19.584-9.792-29.376c-3.06-7.344-6.12-14.076-8.568-21.42
			c-4.283-17.748-12.852-34.884-26.315-47.736c-16.524-15.3-44.064-13.464-64.26-6.732c-7.956,2.448-17.748,7.956-25.704,5.508
			c-4.896-1.224-9.18-3.06-14.076-3.672c-7.344-0.612-14.688,2.448-20.196,7.344c-4.284,3.672-8.568,9.18-10.404,14.688
			c-1.224,3.06-4.284,15.3,0,16.524c5.508-11.016,14.076-31.212,28.764-29.988c-0.612,0.612,3.672,0,4.896,0
			c1.836,0,3.06,0.612,4.896,0.612c7.956,1.836,16.524-1.224,24.48-3.06c21.42-5.508,53.856-12.24,68.543,9.792
			c4.896,7.956,11.017,16.524,14.076,25.092c3.672,9.792,4.896,19.584,9.181,29.376c3.06,6.732,6.119,12.852,8.567,18.972
			s4.284,23.868,12.853,24.48c3.672,0.612,9.792-2.448,12.852-4.284c7.956-3.672,17.136-7.344,23.256-14.076c0,0.612,0,0,0,0
			c-1.224,9.18-1.836,18.36-4.896,26.928c-3.672,9.18-9.181,14.688-17.748,20.196l0,0c0.611-3.06,3.06-9.18-1.225-10.404
			c-3.06-0.612-3.672,1.224-4.896,3.06c-3.672,5.508-4.896,11.016-6.12,17.136c-0.612,4.896-1.836,12.852-4.284,18.36
			c-3.06,7.956-6.12,14.688-10.403,22.032c-5.509,9.18-11.017,16.523-18.973,23.256c-8.567,7.344-17.748,11.628-26.928,16.524
			c-12.24,6.731-23.868,14.075-37.332,15.911c1.836-0.611-3.06,0-4.284,0c-3.06,0-6.12-0.611-9.18-1.224
			c-5.508-1.224-11.628-3.06-16.524-6.732c-7.344-6.119-11.016-15.911-15.3-24.479c-3.672-7.956-7.956-15.912-11.628-23.868
			c-3.672-9.792-5.508-20.196-7.956-29.988c-2.448-10.404-6.732-20.196-6.732-31.212c0-5.508,1.224-11.016,2.448-15.912
			c0.612-6.12,0.612-12.852,0.612-18.972c0-4.896-0.612-5.508,4.284-7.956c4.284-2.448,9.792-1.836,14.076,0
			c3.06,1.836,14.076,12.24,14.688,4.284c0-4.284-2.448-4.284-6.12-6.12c-4.284-1.836-7.956-3.672-12.24-5.508
			c-1.224-0.612-4.284-2.448-5.508-2.448c-3.06-0.612-7.956,1.836-10.404,3.672l0,0c-0.612-22.644,3.06-53.856,19.584-70.992
			c-10.404,0-17.136,14.688-20.808,23.256c-7.344,17.748-10.404,36.108-9.18,53.244c1.224,25.092-0.612,48.96,7.344,73.44
			c3.06,9.18,5.508,18.36,7.956,28.152c2.448,8.567,6.12,17.136,9.18,25.092c3.672,8.568,6.12,16.524,12.852,23.868
			c4.284,4.896,9.792,9.18,15.912,12.24c2.448,1.224,8.568,1.836,10.404,4.283c1.224,1.225,1.224,1.225,1.224,3.672
			c-0.612,11.629,0.612,23.257,0,34.272c0,6.732-0.612,12.24-4.896,17.748c-6.12,7.344-13.464,14.076-20.808,20.196
			c-3.672,3.06-7.344,4.896-4.284,10.403c3.06,6.12,11.628,5.509,11.016,13.464c-0.612,6.732-9.18,11.017-15.3,9.181
			c-5.508-1.225-8.568-6.12-11.628-9.792c-11.016-14.076-18.972,12.24-25.704,18.359c-5.508,4.896-14.076,5.509-20.808,3.673
			c-6.12-1.837-8.568-4.896-11.016-10.404c-1.224-2.448-2.448-5.508-6.12-4.896c-2.448,0.612-3.672,3.672-5.508,5.509
			c-3.672,3.06-8.568,3.06-13.464,2.447c-14.076-1.836-16.524-12.852-15.912-25.704c1.224-18.359,20.808-29.376,17.748-48.348
			c0-1.224-1.224-3.672-1.224-4.896c0-0.612,1.224-0.612,1.224-1.225c0-4.284-1.224-3.06-3.06-5.508
			c-1.836-1.836-0.612-4.896-0.612-6.732c-0.612-3.672-2.448-6.731-2.448-10.403c-0.612-7.345,1.836-15.3,5.508-21.42
			c4.896-7.956,13.464-12.24,16.524-21.42c5.508-16.524-7.344-32.437-8.568-46.512c-6.12-30.6,12.852-56.916,23.256-83.232l0,0
			c1.224,2.448,3.06,5.508,3.672,8.568C188.496,305.424,190.332,299.916,187.884,295.02
			C187.884,295.632,187.884,295.632,187.884,295.02L187.884,295.02z M42.228,283.392C41.616,283.392,41.616,283.392,42.228,283.392
			L42.228,283.392z M320.076,455.364c12.24-5.508,25.704-11.017,36.72-18.973c12.24-8.567,22.032-18.359,31.212-29.987
			c-1.224,9.18-3.672,16.523-12.24,21.42c-6.731,4.896-14.688,8.567-15.3,17.136c-0.611,4.284-0.611,7.956-1.224,12.24
			c-0.612,4.896-1.225,9.18,0,14.076c1.224,3.672,3.06,6.731,7.344,8.567c3.061,1.225,6.732-0.611,6.732,3.672
			c0,1.225-1.225,6.732-3.672,8.568c-3.061,3.672-7.345,5.508-9.792,9.792c-4.284,6.732-5.509,18.36-1.837,25.704
			c1.837,4.284,5.509,6.731,9.793,7.956c3.672,1.224,8.567,0,10.403,3.06c1.836,3.061,0,9.792-2.448,12.24
			c-3.06,3.672-8.567,1.224-12.239,0c0,0-4.284-2.448-6.12-3.06c-3.672-3.061-7.344-13.464-12.853-8.568
			c-4.896,4.284-4.896,13.464-3.672,18.972c3.061,14.688,16.524,23.256,28.765,29.376c-4.896,10.404-12.24,20.196-18.973,29.988
			c-3.672,4.896-6.731,9.792-11.628,14.076c-2.448,1.836-4.896,4.284-6.731,6.731c-0.612,0.612-3.672,4.896-3.061,3.673
			c-6.731,8.567-14.076,15.911-22.032,23.256c-3.671,3.06-6.731,6.731-9.792,9.792c-1.836,1.836-5.508,4.896-7.956,5.508
			c-1.836,0.612-4.896,0-6.732-0.612c-11.016-0.611-21.42-2.448-32.436-4.284c-4.896-0.611-11.628-1.224-15.912-3.672
			c-1.836,0-3.06-0.611-2.448-3.06c-0.612-1.836-0.612-3.06-1.224-4.896c-0.612-3.06-1.224-5.508-1.836-8.567
			c-1.224-4.284-3.06-9.181-3.672-14.076c-0.612-4.896-0.612-10.404-0.612-15.3c-0.612-11.017-0.612-22.032,0.612-32.437
			c0.612-4.284,1.224-9.18,1.836-12.852c0.612-5.508,3.672-11.628,3.672-17.137c1.224,1.837,0.612,1.225,1.224,1.837
			c3.672,3.672,6.732,9.792,13.464,11.628c6.12,1.836,14.076-0.612,18.36-4.896c4.896-5.508,4.896-14.688-0.612-19.584
			c-1.224-1.224-4.896-2.448-5.508-3.672c-0.612-2.448,2.448-3.06,4.284-4.896c10.404-7.345,22.644-17.748,25.704-30.601
			c3.672-14.688,1.836-31.824,1.836-46.512c4.896,0.612,11.628-2.448,15.912-4.284C309.672,460.26,314.568,457.812,320.076,455.364
			L320.076,455.364z M372.708,480.456C373.32,481.068,373.32,481.068,372.708,480.456L372.708,480.456z M372.708,481.068
			C373.32,481.068,373.32,481.068,372.708,481.068L372.708,481.068z M371.484,488.412L371.484,488.412L371.484,488.412z
			 M123.624,531.252C123.012,532.476,123.012,532.476,123.624,531.252L123.624,531.252z M255.204,546.552
			C255.204,547.164,255.204,547.164,255.204,546.552L255.204,546.552z M257.652,549C258.264,549.612,258.264,549.612,257.652,549
			L257.652,549z M373.32,552.672L373.32,552.672L373.32,552.672z M258.264,557.568C258.264,558.18,258.264,558.18,258.264,557.568
			L258.264,557.568z M473.076,558.18C472.464,558.792,472.464,558.792,473.076,558.18L473.076,558.18z M218.484,580.212
			C218.484,580.212,217.872,581.436,218.484,580.212L218.484,580.212z M168.912,581.436L168.912,581.436L168.912,581.436z
			 M182.988,583.884C184.212,584.496,184.212,584.496,182.988,583.884L182.988,583.884z M347.004,622.44l-0.612,0.611
			C346.392,623.052,346.392,622.44,347.004,622.44L347.004,622.44z M218.484,666.504
			C218.484,667.729,218.484,667.116,218.484,666.504L218.484,666.504z M356.184,675.684c-3.06,0.612-6.119,1.225-9.18,1.836
			c0.612,0-6.731,1.225-4.284,0.612c-0.611,0-0.611,0-1.224,0C347.004,677.52,351.9,676.296,356.184,675.684L356.184,675.684z
			 M304.776,680.58c2.448,0,5.508,0,7.957,0C311.508,679.968,305.388,679.356,304.776,680.58L304.776,680.58z"/>
		<path fill="#232323" d="M317.628,398.448c-1.224,0.611-4.896,1.224-5.508,2.448c-1.836,1.836-1.224,4.283,1.836,4.283
			c1.224,0,3.672-1.836,4.284-2.447C318.852,401.508,321.3,396,317.628,398.448L317.628,398.448z"/>
		<path fill="#FFFFFF" d="M343.332,154.872c-4.896,0.612-9.792,1.224-14.688,1.836c-4.896,0.612-10.403,0-15.3,1.224
			c-9.18,1.836-17.748,3.06-27.54,3.672c-20.196,1.224-41.616,1.836-59.364,12.24c-15.3,9.18-28.764,23.868-35.496,40.392
			c-7.956,18.972-3.06,37.944-3.672,57.528c-0.612,8.568-1.224,15.912,1.224,24.48c1.224,4.896,0,9.792-1.224,14.688
			c-0.612-3.06-2.448-6.12-3.672-8.568c-3.672,8.568-6.732,16.524-11.016,24.479c-4.284,8.568-9.18,17.748-11.016,26.928
			c-3.672,15.3-3.06,29.376,2.448,44.676c5.508,14.688,9.792,31.212-1.836,44.063c-5.508,5.508-10.404,10.404-13.464,17.748
			c-3.06,8.568-2.448,15.3-0.612,23.868c0.612,2.448,0,5.508,1.224,7.344c1.224,1.225,3.06,1.225,3.672,3.672
			c0.612,1.837-1.224,3.061-1.224,4.896c0,4.284,1.836,7.956,1.224,12.852c-1.224,8.568-7.344,14.688-11.628,22.032
			c-4.284,6.732-6.12,13.464-6.12,21.42c0,6.12,0.612,14.688,6.12,18.973c4.284,3.672,12.24,4.283,17.748,3.672
			c4.896-0.612,10.404-11.017,15.3-7.345c4.284,3.061,3.672,9.792,9.18,12.24c6.732,3.672,16.524,3.672,23.256-0.612
			c6.12-4.283,7.956-12.239,12.24-17.747c1.836-2.448,6.12-6.732,9.792-5.509c2.448,0.612,4.284,3.061,5.508,4.896
			c3.06,4.284,6.732,9.18,12.852,9.792c7.344,0.612,15.912-6.732,12.24-14.076c-2.448-5.508-14.688-8.568-10.404-15.912
			c0.612-1.224,3.672-3.06,4.896-3.672c4.284-3.672,7.956-6.731,12.24-11.016c5.508-5.509,12.24-11.628,13.464-20.196
			c1.836-13.464,0-26.928,0-39.78c0-1.224,0.612-3.06,0-3.672c-0.612-2.448-4.896-2.448-7.344-3.672
			c-7.344-3.06-14.076-7.956-19.584-13.464c-7.344-7.344-9.792-15.3-13.464-25.092c-3.672-9.181-6.732-17.748-9.792-26.929
			c-6.12-22.032-15.3-45.288-14.688-68.543c0-6.732,0.612-13.464,0.612-20.808c-0.612-9.792-1.224-19.584,0-29.376
			c1.836-18.972,8.568-36.72,20.196-51.408c3.06-4.284,4.896-4.284,9.18-4.284c-16.524,16.524-20.808,48.348-19.584,70.992
			c4.284-2.448,8.568-4.284,12.852-2.448c4.896,2.448,10.404,4.896,15.3,7.344c3.06,1.224,8.568,3.06,6.12,7.344
			c-2.448,5.508-13.464-6.12-17.748-7.344c-4.284-1.224-8.568-0.612-12.24,1.836c-4.896,3.06-3.672,7.344-3.672,12.852
			c0,9.792-2.448,19.584-3.06,29.376c0,8.568,2.448,15.912,4.896,23.868c2.448,8.568,4.284,16.524,6.12,25.092
			c3.672,14.688,11.016,27.54,17.748,41.616c3.672,7.956,8.568,17.136,16.524,21.42c7.956,4.284,19.584,6.732,28.764,4.896
			c14.076-2.448,25.705-11.629,37.944-17.748c13.464-6.732,28.765-15.912,37.332-29.376c9.181-14.076,18.36-29.988,20.196-46.513
			c1.224-6.732,2.448-12.852,5.508-18.972c1.225-1.836,1.836-4.284,4.284-4.284c5.508,0,3.06,7.344,2.448,10.404
			c18.359-10.404,20.808-28.152,22.644-47.124c-3.06,1.224-5.508,4.284-7.956,6.12c-1.836,1.224-3.672,2.448-6.12,3.06
			c-3.672,1.836-7.956,3.672-12.239,5.508c-6.732,3.06-12.853,5.508-17.137-2.448c-2.447-4.896-3.672-11.016-4.896-15.912
			c-1.836-6.12-4.896-11.628-7.344-17.136c-4.896-10.404-7.345-20.196-10.404-30.6c-3.061-11.016-9.792-22.644-17.136-31.824
			c-9.792-12.24-26.316-12.852-41.004-11.628c-15.3,1.224-29.376,7.344-44.064,8.568c-4.896,0-9.18-1.224-14.076-1.224
			c-6.732,0-12.852,3.06-17.136,8.568c-1.224,1.224-1.836,3.06-2.448,4.284c-3.672,5.508-6.732,11.016-9.792,17.136
			c-3.672-1.224-1.836-10.404-1.224-13.464c1.224-5.508,4.896-9.792,8.568-14.076c4.284-5.508,12.24-11.016,19.584-11.628
			c5.508,0,10.404,1.224,15.3,3.06c7.956,2.448,15.3,0,22.644-2.448c19.584-6.732,44.676-12.24,63.648,0
			c7.956,5.508,13.464,13.464,18.972,21.42c6.12,8.568,9.792,17.748,12.852,28.152c1.836,7.956,4.896,14.688,7.956,22.644
			c4.284,10.404,7.345,20.808,10.404,31.212c10.404-1.836,20.808-7.344,27.54-16.524c4.896-6.732,11.016-12.852,17.748-17.136
			c1.836-1.224,3.672-1.836,4.896-3.06c1.836-1.224,2.447-2.448,2.447-5.508c0.612-4.896,0.612-9.792,0-14.688
			c-1.224-12.852-11.628-25.092-20.808-33.66c-6.732-6.12-12.853-11.628-17.136-18.972c-4.284-7.344-6.732-15.3-11.017-22.644
			C387.396,164.664,362.304,153.648,343.332,154.872L343.332,154.872z M296.208,302.976c-2.448-0.612-5.508-4.284-3.06-6.732
			c1.224-1.224,3.672-1.836,4.896-1.836c3.06-0.612,6.732-1.836,9.792-2.448c8.568-1.836,18.36-6.12,26.316-3.672
			c3.672,1.224,15.3,5.508,16.523,9.792c1.225,7.344-7.344,3.672-10.404,2.448c-7.344-3.06-15.911-3.672-23.256-2.448
			c-3.672,0.612-7.956,1.836-11.627,3.06C302.94,301.14,298.044,303.588,296.208,302.976L296.208,302.976z M300.492,317.664
			c-3.06-5.508,6.12-8.568,9.18-11.016c4.896-4.284,7.956-3.06,14.076-0.612c3.672,1.224,14.076,4.896,13.464,9.792
			c-0.612,5.508-9.18,0.612-11.628-0.612c-1.224,5.508-4.896,9.18-11.016,7.344c-1.225-0.612-2.448-1.224-3.672-1.836
			c-0.612-0.612-1.837-1.224-1.837-2.448c-0.611,0.612-1.224,0.612-1.836,1.224C304.164,319.5,302.328,320.724,300.492,317.664
			L300.492,317.664z M260.1,365.4c-3.06-1.836,4.284-13.464,4.896-16.524c1.836-6.732,2.448-13.464,3.06-20.196
			c0-3.06,0-6.732,0.612-9.792c0-1.224-0.612-17.136,4.284-12.852c2.448,1.836,0.612,9.792,0.612,12.24
			c0,4.896-0.612,10.404-1.224,15.3C271.116,337.248,264.996,367.848,260.1,365.4L260.1,365.4z M228.276,316.44
			c0-2.448-0.612-4.284,1.224-6.12c3.672-3.06,11.628-4.284,15.3-2.448c4.284,1.836,10.404,3.06,12.852,7.344
			c1.224,2.448,1.836,4.896-1.224,5.508c-2.448,0.612-5.508-1.836-7.344-2.448c-1.224,9.18-13.464,7.956-15.3-0.612
			c-2.448,1.224-3.672-0.612-5.508,0C228.276,317.664,228.276,317.052,228.276,316.44L228.276,316.44z M263.772,369.684
			c7.344-1.224,15.3-1.224,22.644-0.612c2.448,0,12.24,0,9.792,4.896c-1.224,2.448-11.628,1.836-14.076,1.836
			c-4.284,0-8.568,0-12.852,0.612c-3.06,0-9.792,1.836-12.852,0.612c-2.448-1.224-2.448-4.284,0-6.12
			C257.652,369.684,262.548,369.684,263.772,369.684L263.772,369.684z M252.144,405.792c-7.344-4.284,12.24-8.568,14.076-8.568
			c4.896,0,9.18,3.061,14.076,3.061c5.508-0.612,10.404-1.836,15.912-1.225c4.896,0,9.792,1.836,14.688,1.836
			c1.836,0,7.344-3.672,9.18-1.836c1.224,2.448-4.896,6.12-6.12,6.732c-6.732,1.836-15.912-3.06-22.644-3.06
			c-6.732-0.612-12.24,3.06-18.972,1.224c-4.284-1.224-6.732-1.224-11.016,0C258.876,404.568,254.592,407.628,252.144,405.792
			L252.144,405.792z M263.772,413.136c-3.672-2.448-1.224-6.731,2.448-6.731c3.06-0.612,7.956,2.447,11.016,2.447
			c4.284,0.612,8.568,0.612,12.852,0.612c2.448,0,6.12-1.224,7.344,1.836c-5.508,1.225-9.18,2.448-14.688,2.448
			c-4.896,0.612-9.18,0.612-14.076,0C266.832,413.136,264.996,413.136,263.772,413.136L263.772,413.136z"/>
		<path fill="#232323" d="M449.82,282.168c0,1.224-0.612,6.12,1.224,4.896C454.716,285.84,449.82,279.108,449.82,282.168
			L449.82,282.168z"/>
		<path fill="#232323" d="M450.432,280.332c-1.224,1.224-1.836,10.404-1.224,12.24c1.836,3.672,2.448-2.448,3.06-3.672
			C452.268,288.288,453.492,277.272,450.432,280.332L450.432,280.332z"/>
		<path fill="#FFFFFF" d="M448.596,284.616c-7.344,3.672-12.852,12.24-18.359,18.36c7.956,0.612-0.612,27.54-2.448,33.048
			c-2.448,6.732-6.12,12.852-12.24,17.136c-3.06,2.448-7.344,3.672-10.404,5.508c-2.447,1.836-1.836,1.836-3.06,4.284
			c-0.612,1.836-0.612,4.284-1.224,6.12c-1.225,7.344-3.672,14.688-6.12,21.42c-0.612,1.836-1.836,4.284-2.448,6.12
			c-1.224,3.672-0.612,1.224,0,4.896s1.224,7.344,1.224,11.017c-0.611,15.911-15.3,21.42-25.092,31.212
			c-3.06,3.06-3.672,6.731-4.284,10.403c-1.224,5.509-3.06,15.912,3.673,18.973c4.896,2.447,9.18,0.611,9.18,7.956
			c-0.612,8.567-6.732,12.239-11.628,17.748c-4.896,4.896-6.732,13.464-5.508,20.195c1.836,7.956,7.955,10.404,15.3,11.628
			c7.956,1.225,9.792,9.181,7.956,16.524c-2.448,10.404-11.017,11.016-19.584,6.731c-3.672-1.836-6.732-4.283-9.181-6.731
			c-1.224-1.224-4.896-7.956-6.12-7.956c-1.836,0-2.447,6.12-3.06,7.344c-0.612,4.284,0.612,8.568,1.836,12.24
			c5.508,13.464,19.584,20.196,32.437,25.704h-0.612c7.344,2.448,15.912,5.508,22.032,6.12c13.464,1.224,29.376-1.225,42.84-7.345
			c5.508-2.447,12.24-6.119,15.912-11.016c4.896-6.12,4.283-12.852,10.403-18.36c3.061-2.447,7.345-4.283,10.404-6.731
			c5.508-4.284,9.792-11.017,11.628-17.748c4.284-14.688-9.792-22.645-15.3-33.66c-8.568-15.912,6.12-26.316,15.3-36.72
			c4.284-5.508,8.568-12.24,6.732-19.584c-1.836-6.732-7.956-11.628-12.853-15.912c-10.403-8.568-24.479-17.136-21.42-33.048
			c1.225-5.508,4.284-9.18,7.344-14.076c4.284-6.732,4.896-15.912,3.061-23.868c-3.672-14.076-15.3-22.032-22.032-34.272
			c-3.672-7.344-4.284-14.688-3.672-23.256c0-3.06,0-6.12,0.612-8.568C449.208,287.064,450.432,284.004,448.596,284.616
			L448.596,284.616z M423.504,408.24L423.504,408.24L423.504,408.24z"/>
		<path fill="#C2C2C2" d="M266.832,116.928c-81.396,11.628-154.836,57.528-198.9,126.684
			c-43.452,67.32-55.692,149.94-36.108,227.052c3.06,11.016,6.12,22.032,10.404,32.436c3.672,9.181,7.344,18.973,11.628,28.152
			c11.628,20.808,25.092,40.392,41.616,57.528c4.896-19.584,7.344-39.168,17.748-56.305c4.284-6.731,9.18-12.239,14.688-17.748
			c3.06-3.06,6.12-6.119,8.568-8.567c2.448-2.448,7.956-6.12,9.18-9.792c0.612-2.448-0.612-5.508-1.224-7.956
			c-1.836-5.508-3.672-9.792-3.672-15.912c0-9.792,2.448-20.808,7.956-29.376c3.06-4.284,6.732-7.956,8.568-13.464
			c1.224-4.896,0.612-9.792-0.612-14.688c-1.836-8.567-6.12-16.523-7.344-25.092c-4.284-21.42,1.836-42.84,12.852-60.588
			c5.508-8.568,11.628-16.524,15.912-26.316c0.612-1.224,2.448-3.672,2.448-4.284c0-0.612,0-1.224,0-1.836
			c-0.612-4.896-1.836-9.18-1.224-14.076c0.612-9.18,1.224-17.136,0.612-26.316c-0.612-9.792-0.612-19.584,0.612-29.376
			c2.448-17.748,11.628-34.884,24.48-47.736c14.076-14.076,33.66-21.42,53.244-24.48c9.792-1.224,20.196-1.836,29.988-1.836
			c4.896,0,9.792,0,14.688-0.612c4.896-0.612,8.568-0.612,12.852-0.612c9.792,0,19.584-3.06,29.376-3.672
			c11.016-0.612,21.42,2.448,31.212,6.732c8.568,3.672,18.36,9.18,24.48,16.524c6.12,6.732,9.18,14.688,13.464,22.032
			c4.896,9.18,13.464,14.688,20.808,22.032c6.732,6.12,11.628,14.076,15.912,22.032c4.896,8.568,6.12,18.36,4.896,28.152
			c-0.612,5.508-3.061,9.792-4.284,14.076c-0.612,2.448,0.611,4.284,0.611,6.12c0.612,8.568-2.447,15.912,0.612,24.48
			c3.061,7.956,9.18,12.852,14.688,18.972c12.239,12.852,21.42,31.824,11.628,48.96c-3.061,5.508-8.568,9.792-9.181,17.136
			c-0.611,9.792,9.181,15.912,15.912,20.808c7.344,4.896,15.3,11.016,18.36,19.584c3.672,9.792-0.612,20.195-6.732,27.54
			c-4.896,6.12-14.688,12.239-15.912,20.195c-1.224,7.956,9.792,12.24,14.076,17.137c3.672,3.672,4.896,8.567,7.345,11.628
			c2.447,2.448,5.508,4.896,8.567,7.344c7.344,6.12,11.628,12.852,15.3,21.42c0.612,0.612,6.732,20.196,6.732,20.196
			c48.348-67.32,65.484-153,44.064-233.784c-21.421-83.844-82.009-154.836-161.568-189.72
			C369.648,116.928,317.628,110.808,266.832,116.928L266.832,116.928z"/>
	</g>
</g>
</svg>
