<?xml version="1.0" encoding="utf-8"?>
<!-- Generator: Adobe Illustrator 16.0.0, SVG Export Plug-In . SVG Version: 6.00 Build 0)  -->
<!DOCTYPE svg PUBLIC "-//W3C//DTD SVG 1.1//EN" "http://www.w3.org/Graphics/SVG/1.1/DTD/svg11.dtd">
<svg version="1.1" id="Layer_1" xmlns="http://www.w3.org/2000/svg" xmlns:xlink="http://www.w3.org/1999/xlink" x="0px" y="0px"
	 width="601.348px" height="594.789px" viewBox="8.262 100.787 601.348 594.789"
	 enable-background="new 8.262 100.787 601.348 594.789" xml:space="preserve">
<g id="Background">
</g>
<g id="Image_Layer">
</g>
<g id="Draw_Layer">
</g>
<g id="Draw_Layer_1_">
	<g>
		<path fill="#232323" d="M296.208,303.588c-9.18,0.612-12.852,19.584-1.836,18.36C302.94,321.336,306.612,302.976,296.208,303.588
			L296.208,303.588z"/>
		<path fill="#232323" d="M364.14,312.156c-7.344,3.06-11.016,19.584,0.612,17.136C373.32,326.844,372.096,308.484,364.14,312.156
			L364.14,312.156z M367.812,321.336C367.2,321.948,367.812,321.336,367.812,321.336L367.812,321.336z"/>
		<path fill="#232323" d="M291.924,305.424c-2.448,0.612-19.584,6.12-14.688,9.792c2.448,1.224,9.18-2.448,11.016-3.06
			c4.284-1.224,7.956-1.224,12.24,0.612c3.06,1.224,4.896,4.896,7.956,6.12c4.284,2.448,6.12,0,3.672-4.284
			C307.836,307.26,299.88,304.2,291.924,305.424L291.924,305.424z"/>
		<path fill="#232323" d="M363.528,313.38c-3.672,0.612-12.853,4.284-14.076,8.568c-1.225,6.732,9.18-0.612,11.016-1.224
			c3.672-0.612,14.688,3.672,16.524-0.612C380.664,313.992,367.2,312.768,363.528,313.38L363.528,313.38z"/>
		<path fill="#232323" d="M338.436,314.604c0,9.792,1.225,18.972,3.061,28.152c0.612,1.836,6.12,18.36,9.18,13.464
			c1.225-1.836-3.06-9.18-3.672-11.016c-1.224-4.284-1.836-7.956-3.06-12.24c-0.612-5.508-1.225-11.016-1.836-15.912
			c0-1.224,0-3.672-1.225-4.284C340.271,312.156,338.436,312.768,338.436,314.604L338.436,314.604z"/>
		<path fill="#232323" d="M341.496,358.056c-5.508,1.224-11.016,3.06-17.136,3.672c-1.836,0-6.12-0.612-7.345,1.224
			c-1.836,3.672,3.672,3.672,5.509,3.672c6.119,0,12.852,0.612,18.972-0.612c1.836-0.612,4.284-1.224,4.896-3.672
			C347.004,359.28,343.944,357.444,341.496,358.056L341.496,358.056z M326.196,361.116L326.196,361.116L326.196,361.116z"/>
		<path fill="#232323" d="M317.628,388.044c-3.06,0-6.731,1.224-9.792,1.224c-1.836,0-4.284-1.224-6.12,0.612
			c-3.06,3.672,1.836,5.508,4.284,5.508c5.508,0.612,10.404-1.836,15.912-1.224c2.448,0,3.672,1.224,6.12,0.612
			c1.836-0.612,3.672-2.448,6.12-2.448c4.283,0,8.567,5.508,12.239,4.896c6.732-1.224-3.672-4.896-4.896-5.508
			c-1.836-0.612-3.672-1.836-5.508-1.836c-2.448-0.612-4.284,0.612-6.732,0.612C324.972,390.492,321.912,388.044,317.628,388.044
			L317.628,388.044z"/>
		<path fill="#232323" d="M311.508,400.284c-2.448,8.567,33.048,11.628,29.988,2.448c-1.224-4.284-11.628-1.225-15.3-1.836
			C323.136,400.284,312.732,395.388,311.508,400.284L311.508,400.284z M325.584,400.896L325.584,400.896L325.584,400.896z"/>
		<path fill="#232323" d="M165.24,671.4C165.24,671.4,164.628,671.4,165.24,671.4L165.24,671.4z"/>
		<path fill="#232323" d="M256.428,411.3L256.428,411.3L256.428,411.3z"/>
		<path fill="#232323" d="M272.34,102.852C149.328,117.54,45.288,209.952,16.524,330.516c-14.688,61.2-9.792,127.295,14.688,185.436
			c23.868,56.304,64.872,105.264,116.892,138.312c51.408,33.048,113.22,48.96,175.032,45.9
			c61.812-3.061,121.177-25.704,170.137-61.812c45.899-34.271,80.783-85.067,99.756-138.924
			c20.808-59.363,22.032-125.46,3.672-186.048c-37.944-120.564-149.94-206.856-276.013-212.364
			C304.776,100.404,288.252,101.016,272.34,102.852L272.34,102.852z M269.892,117.54c75.888-9.792,153,10.404,214.2,57.528
			l-0.611-0.612c59.976,47.124,97.92,113.832,109.548,189.108v-0.612c9.18,67.932-6.12,137.088-42.841,194.616
			c-4.283,6.731-9.18,14.075-14.075,20.195c-1.836,2.448-6.732,10.404-9.181,9.792c-1.224,0-3.672-4.284-4.283-4.896
			c-1.837-2.448-4.284-4.284-6.12-6.732c-5.509-5.508-10.404-11.628-15.912-17.136c-9.181-9.792-17.748-20.196-25.704-30.6
			c-8.568-11.629-16.524-23.868-29.988-30.601c-10.403-4.896-22.032-10.404-33.048-14.076c-9.18-3.06-18.36-3.672-27.54-5.508
			c-3.672-0.612-20.808-6.731-23.256-2.448c-3.061-6.12-6.12-12.239-9.18-18.972c-3.672-7.344-6.732-17.748-15.912-20.196l0,0
			c7.956-4.896,15.912-11.628,21.42-18.359l0,0c-1.225,3.06-7.344,9.792-1.225,11.016c4.284,0.612,6.732-6.12,8.568-9.18
			c6.12-10.404,9.18-22.645,15.912-33.048l0,0c-1.224,5.508-1.836,11.016-3.06,16.524c-1.225,6.732-3.673,17.136-1.225,23.256
			c4.284,9.792,9.792-2.447,10.404-6.731c1.836-7.956,3.06-15.912,4.896-23.256c3.672-12.24,6.732-25.092,10.404-37.333
			c4.284-12.852,9.18-25.092,12.852-37.944c11.017-34.272,17.137-77.724,1.837-111.384c-7.345-15.3-18.973-31.824-33.66-40.392
			c-7.345-4.284-14.688-7.956-23.256-7.956c-4.284,0-9.792,1.836-14.076-0.612c-3.672-1.836-6.12-4.896-9.792-6.732
			s-7.344-3.672-11.017-4.896c-7.956-2.448-17.748-3.06-26.315-3.06c-18.36,0-36.108,6.732-48.348,19.584
			c-1.224-3.06-6.732,0.612-8.568,1.224c-4.284,0.612-9.18,0-13.464,0.612c-10.404,1.836-19.584,7.344-27.54,14.076
			c-22.032,17.136-31.824,42.228-34.884,69.156c-3.06,25.704-3.672,51.408,0.612,77.112c4.284,25.704,7.344,52.02,4.896,77.724
			c-0.612,7.344-2.448,14.688-4.284,22.032c-1.836,3.672-4.896,11.016-1.836,14.076c7.956,7.344,20.808-15.301,22.644-18.973v0.612
			c-1.224,3.06-7.344,16.524-2.448,18.36c6.12,1.836,11.016-12.853,12.852-16.524c0,0.612,0,0.612,0,0
			c-1.224,3.06-2.448,6.732-3.672,9.792c-0.612,2.448-1.836,4.284-2.448,6.732c-0.612,1.224-0.612,3.06-1.224,4.283
			c-0.612,1.225,0.612,0.612-0.612,1.836c-0.612,0.612-2.448,1.225-3.672,1.225c-6.732,3.06-12.24,7.956-18.36,12.24
			c-7.344,5.508-14.076,10.403-19.584,17.748c-11.628,14.075-16.524,30.6-17.748,48.348c-0.612,15.912-1.224,31.824,0.612,48.348
			c1.836,20.196,4.284,42.229,11.016,61.812l0,0C71.604,586.944,26.316,502.488,22.032,414.972
			c-4.284-92.412,37.332-181.764,109.548-238.68C171.972,144.468,219.096,124.884,269.892,117.54L269.892,117.54z M250.92,168.948
			c19.584-22.032,61.2-22.032,84.456-5.508c5.508,3.672,8.568,6.732,15.3,6.732c8.568,0,14.076,0.612,21.42,4.896
			c12.853,7.344,21.42,17.136,29.376,28.764c17.748,24.48,18.36,59.364,14.076,88.128c-1.836,12.852-3.672,24.48-8.567,36.108
			c-6.12,14.688-11.017,30.6-15.301,45.9c-3.672,14.076-7.956,27.54-10.403,41.616c0,1.836-1.225,11.016-2.448,11.016
			c-2.448,0,0-13.464,0.612-15.912c2.447-15.299,4.896-30.6,11.016-44.675c6.12-13.464,8.568-27.54,10.404-41.616
			c4.283-28.152,3.672-58.14-15.912-80.784c-7.345-8.568-18.36-17.748-29.988-15.912c-1.836,0-4.284,0.612-6.12,0
			c-1.224-0.612-2.448-1.836-4.284-2.448c-3.672-0.612-7.344,1.224-10.403,2.448c-18.36,6.12-34.272,17.748-45.289,33.048
			c-6.732,9.18-12.852,18.972-15.912,29.988c-1.836,6.732-3.06,13.464-4.284,20.808l0,0c0-15.912,4.896-31.212,10.404-45.9
			c2.448-7.344,4.896-14.076,8.568-20.808c1.836-3.06,3.672-6.12,5.508-8.568c1.224-1.836,3.06-3.672,4.284-4.896
			c1.224-2.448,1.836-3.672-1.224-2.448c-3.672,1.224-7.956,4.284-11.016,6.732c-6.12,4.284-11.628,8.568-17.136,14.076
			c-7.956,7.344-14.688,15.3-21.42,24.48c-5.508,7.956-10.404,17.136-16.524,24.48c-2.448-2.448-2.448-8.568-3.672-11.628
			c-1.836-3.672-4.896-7.344-8.568-8.568s-5.508,0.612-7.344-2.448c-6.732-10.404-5.508-24.48-4.284-36.108
			c1.836-15.912,9.18-29.988,19.584-42.228c2.448-2.448,7.344-5.508,8.568-8.568c1.224-3.672-1.224-1.836,2.448-4.896
			c2.448-1.836,13.464-9.792,10.404-14.076l0,0C249.084,168.948,249.696,170.172,250.92,168.948L250.92,168.948z M258.264,162.216
			C257.652,162.216,257.652,162.216,258.264,162.216L258.264,162.216z M132.804,169.56
			C133.416,168.948,132.804,169.56,132.804,169.56L132.804,169.56z M236.844,174.456L236.844,174.456L236.844,174.456z
			 M228.276,183.024c2.448-3.06,6.12-8.568,10.404-8.568C235.62,177.516,230.112,181.188,228.276,183.024L228.276,183.024z
			 M173.808,431.496c12.24-33.66,6.12-69.156,0.612-103.428c-3.06-18.36-3.672-36.108-2.448-54.468
			c1.224-20.196,3.672-42.228,13.464-60.588c8.568-16.524,25.092-34.272,44.064-37.944c-1.224,0-4.896,5.508-5.508,6.732
			c-2.448,4.284-1.836,8.568,3.672,8.568l0,0c-13.464,13.464-23.868,28.152-26.928,47.736c-1.224,8.568-1.836,17.136,0,25.704
			c0.612,3.672,2.448,7.344,4.284,11.016c0.612,0.612,1.836,3.06,1.836,4.284c0,1.836-4.284,4.284-5.508,6.732
			c-1.836,3.672-1.836,7.956-1.836,11.628c0,6.732,3.06,12.852,0.612,19.584c-5.508,15.912-0.612,34.884,0.612,52.021
			c0.612,9.18,2.448,18.36,0,27.54c-1.836,7.956-4.896,14.688-7.956,22.031c0.612-6.119,3.06-14.688,4.284-21.42
			c0-1.835,1.836-7.344,0.612-9.18c-2.448-5.508-3.06,6.12-3.672,7.344c-3.672-3.672-6.12,9.18-7.344,11.627
			c-2.448,9.181-6.12,20.809-14.076,26.929l0,0C173.196,433.332,173.196,432.108,173.808,431.496L173.808,431.496z M229.5,181.188
			L229.5,181.188L229.5,181.188z M80.172,222.192C79.56,222.804,79.56,222.804,80.172,222.192L80.172,222.192z M338.436,231.372
			L338.436,231.372L338.436,231.372z M297.432,261.36c8.568-11.016,20.808-21.42,33.66-27.54c3.061-1.224,6.12-2.448,9.18-2.448
			c2.448,0,4.284,1.224,6.732,1.836c3.672,0.612,7.344-0.612,11.016,0c9.181,1.224,12.24,11.016,14.688,18.972
			c3.672,13.464,3.672,28.152,4.896,42.228c-5.508,0-31.212,8.568-26.928,15.912c2.448,4.284,9.18,0,12.24-1.836
			c4.896-2.448,9.792-4.284,15.3-5.508c1.225,7.956,0.612,16.524,1.225,24.48c0.611,7.344,1.836,15.3,0,22.644
			c-1.837,11.628-3.673,24.48-9.181,35.496c-6.731,13.463-18.359,28.152-29.988,37.332c-6.119,4.896-12.239,9.792-20.808,10.404
			c-9.792,0.612-19.584-1.836-28.764-4.896c-18.36-6.731-34.884-16.523-48.348-30.6c-14.076-14.076-18.36-31.824-18.36-51.408
			c0-4.896,2.448-3.06,6.12-6.12c1.836-1.836,5.508-6.732,1.224-7.956c-1.836-0.612-2.448,1.224-3.672,1.836
			c-3.06,1.836-7.344,2.448-10.404,0.612c-6.732-3.672-7.956-17.136-9.792-23.868s-3.06-15.912,1.224-22.032
			c1.224-1.836,4.896-6.12,7.956-4.896c2.448,1.224,3.06,8.568,3.672,11.016c1.224,4.284,1.836,9.792,5.508,12.852
			c4.284,3.672,9.18,0.612,12.24-3.06c7.344-7.956,11.016-18.972,17.748-26.928c6.12-7.956,12.852-14.688,20.808-21.42
			c-7.344,14.076-9.792,28.764-12.24,44.676c-1.224,8.568-3.06,17.748-2.448,26.928c0,4.284,0.612,8.568,0.612,12.852
			c0.612,4.896,2.448,9.792,3.672,14.688c4.284,17.136,9.792,33.048,14.076,50.184c1.224,3.672,5.508,23.256,10.404,22.032
			c4.896-1.225-3.06-17.137-4.284-20.196c-3.06-10.404-6.12-20.808-8.568-31.212c-1.224-5.508-2.448-11.628-4.284-17.136
			c-0.612-2.448-1.224-5.508-1.836-7.956c0-1.224-0.612-2.448-0.612-3.672c0-0.612-0.612-4.896-0.612-2.448
			c-1.224-7.956-1.224-16.524,0-24.48c0.612-4.284,1.836-9.18,2.448-13.464c0.612-3.06,1.836-9.18,4.284-12.24
			c1.836-2.448,11.628-3.06,15.3-1.836c3.06,1.224,6.732,4.284,9.18,6.732c3.06,2.448,12.24,12.24,15.912,5.508
			c2.448-4.896-4.896-9.18-7.956-11.628c-3.672-3.06-7.956-6.12-12.852-7.956c-5.508-1.836-10.404-1.224-15.912-1.224
			C287.028,276.048,291.924,268.704,297.432,261.36L297.432,261.36z M316.404,243C315.792,243.612,315.792,243.612,316.404,243
			L316.404,243z M392.904,309.096c2.447-2.448-1.225-5.508-3.061-6.732c-2.448-2.448-3.672-2.448-4.284-6.12
			c-0.611-3.672-0.611-7.344-1.224-11.016c-1.836-12.852-3.06-25.704-6.12-37.944c3.672,3.672,8.568,9.18,11.017,14.076
			c2.447,6.12,4.283,13.464,4.896,20.196c1.224,12.24,0.612,25.704-1.224,37.944c0-1.224,0,0,0,0
			c-0.612,8.568-3.061,20.808-6.12,29.988c1.224-14.076,1.836-28.152,0.611-42.228C388.62,308.484,390.456,310.932,392.904,309.096
			L392.904,309.096z M271.728,321.336C271.728,321.948,271.728,321.948,271.728,321.336L271.728,321.336z M209.304,390.492
			c1.224-9.792-0.612-20.808-1.224-31.212c-0.612-10.404-1.836-21.42-2.448-31.824c1.224,3.06,2.448,6.12,3.672,9.18
			c1.224,2.448,4.896,3.672,5.508,5.508c1.224,2.448-0.612,9.792-0.612,12.852c0,3.672-0.612,7.344-0.612,10.404
			c-0.612,6.732-1.224,13.464-2.448,19.584c-0.612,5.508,0,12.24-4.284,15.3C208.08,397.224,208.692,393.552,209.304,390.492
			L209.304,390.492z M318.852,460.26c-3.672-2.448-6.731-6.12-10.403-8.567c-4.284-3.673-9.792-5.509-14.688-8.568
			c-5.508-3.06-11.016-5.508-16.524-8.568c-6.732-3.672-14.076-6.12-21.42-9.792c-7.344-3.672-13.464-9.18-20.808-13.464
			c-4.896-2.448-9.792-4.896-14.688-7.956c-2.448-1.224-3.06-1.836-3.672-3.672c-0.612-3.06,0.612-7.956,1.224-11.016
			c0.612-6.12,1.836-12.24,1.836-18.36c4.284,22.032,18.972,39.168,37.332,50.796c17.748,11.628,44.064,24.48,65.484,20.809
			c-3.061,2.447,1.224,8.567,0,12.239C323.136,454.14,319.464,460.26,318.852,460.26L318.852,460.26z M256.428,473.724
			c-17.748-9.792-37.944-15.911-55.692-27.54c-3.672-2.447-3.06-3.06-1.836-6.731c1.224-4.284,2.448-8.568,3.672-12.24
			c1.224-4.284,3.06-7.956,4.284-12.24c0.612-1.836,1.224-7.956,2.448-9.18c5.508,5.508,12.24,8.568,18.972,12.24
			c6.12,3.672,11.628,7.956,17.136,11.628c7.344,4.896,15.912,7.344,23.868,11.016c8.568,4.284,16.524,9.792,25.704,13.464
			c-6.732,4.284-12.24,11.017-18.36,16.524c-1.836,1.836-3.672,4.284-6.12,6.12c-3.06,3.06-3.06,3.06-7.344,1.224
			C261.936,476.784,258.876,475.56,256.428,473.724L256.428,473.724z M195.84,411.3C195.228,411.912,195.228,411.912,195.84,411.3
			L195.84,411.3z M380.052,425.988C380.052,426.6,380.052,426.6,380.052,425.988L380.052,425.988z M329.256,454.752
			c0.612-3.06,0-6.12-1.224-9.18c3.672,0,6.731-4.896,10.403-2.448c2.448,1.836,4.284,8.568,5.509,10.404
			c4.896,10.403,8.567,20.808,12.852,31.212c-3.672-4.284-6.731-8.568-9.18-12.853c-1.836-3.672-4.284-7.956-7.345-10.403
			c-4.283-3.061-8.567-2.448-13.464-2.448C327.42,457.812,328.644,456.588,329.256,454.752L329.256,454.752z M197.676,444.348
			L197.676,444.348L197.676,444.348z M321.3,457.2L321.3,457.2L321.3,457.2z M306,472.5c-3.672-2.448-7.956-4.284-12.24-6.12
			c1.836-2.448,4.896-4.284,7.344-6.12c3.06-2.448,2.448-3.06,5.508,0c2.447,2.448,4.896,4.896,7.344,6.732
			c1.836,1.224,3.672,1.836,4.896,3.06c-1.836,0-6.119,2.448-7.955,3.061C307.224,474.336,308.448,474.336,306,472.5L306,472.5z
			 M323.748,468.828c-0.612-4.284,9.792-1.836,11.016,1.224C333.54,470.052,323.748,469.44,323.748,468.828L323.748,468.828z
			 M301.104,477.396c-4.284-1.837-8.568-3.673-12.852-5.509C289.476,470.664,301.104,476.172,301.104,477.396L301.104,477.396z
			 M335.988,510.444c-4.896-4.896-9.792-9.181-14.076-14.076c-2.448-2.448-4.284-4.896-6.732-7.344
			c-1.224-1.225-6.12-6.12-6.12-8.568c5.509-2.448,11.629-4.896,17.748-4.896c4.284,0,7.345,0,10.404,3.673
			c1.224,1.224,2.448,3.06,3.672,4.283c1.836,2.448,3.672,4.896,5.508,7.345c1.837,2.447,8.568,10.403,7.956,13.464
			c0,1.836-4.896,4.283-6.731,5.508c-1.836,1.224-3.672,3.672-5.508,3.672c-1.225,1.836-2.448,1.224-3.673,0
			C337.824,512.28,337.212,511.668,335.988,510.444L335.988,510.444z M342.108,530.64c-9.792-8.567-20.196-15.3-31.212-22.031
			c-12.24-7.345-23.256-17.137-34.884-24.48c1.836-3.06,4.896-5.508,7.344-7.956c1.224,3.672,11.628,6.12,14.688,7.344
			c3.06,1.225,4.284,1.836,6.12,4.284c2.448,3.061,4.284,6.12,6.732,8.568c4.896,6.12,9.791,11.628,15.911,16.523
			c3.673,3.061,10.404,9.792,15.912,6.732c0.612,4.896,2.448,9.18,3.061,14.076C345.168,533.088,343.944,531.864,342.108,530.64
			L342.108,530.64z M363.528,481.068C363.528,481.68,364.14,482.292,363.528,481.068L363.528,481.068z M366.588,508.608
			c-1.836-1.837-6.12-4.284-6.731-6.732c3.06,2.448,5.508,2.448,7.344,5.508c1.224,2.448,3.06,4.284,4.284,6.732
			C370.26,512.892,368.424,511.056,366.588,508.608L366.588,508.608z M416.771,601.02c-5.508-9.18-9.791-17.136-17.747-23.867
			c-5.509-4.896-11.017-9.792-17.137-14.688c-5.508-4.896-11.628-9.792-17.748-14.688c-2.447-1.837-4.896-4.284-7.344-6.12
			c-3.06-3.061-3.06-7.345-4.284-11.628c-0.611-3.673-1.836-6.732-2.447-10.404c-0.612-3.672,1.224-4.284,3.672-6.732
			c3.672-3.06,4.283-5.508,7.344-1.836c2.448,2.448,4.896,5.509,6.731,8.568c9.792,13.464,19.584,26.928,31.212,39.78
			c6.732,7.344,12.853,15.3,17.748,23.867c1.837,3.061,7.345,11.017,6.732,14.076C424.116,598.572,419.22,601.632,416.771,601.02
			L416.771,601.02z M393.516,542.268c0.612,0.612,1.225,1.225,1.225,1.837C394.128,543.492,393.516,542.88,393.516,542.268
			L393.516,542.268z M378.216,566.136C378.216,566.136,377.604,567.36,378.216,566.136L378.216,566.136z M426.564,598.572
			c0.611,0,0.611,0.611,0,1.224C426.564,599.796,426.564,599.184,426.564,598.572L426.564,598.572z M421.056,599.796
			L421.056,599.796L421.056,599.796z M498.168,617.544c-0.612,0.612-1.224,1.224-1.836,1.836
			C496.944,618.768,497.556,618.156,498.168,617.544L498.168,617.544z M433.296,660.996c-4.284,2.448-10.404,4.284-14.076,6.732
			c0,0,0,0-0.611,0C423.504,665.28,428.4,662.832,433.296,660.996L433.296,660.996z M407.592,672.012
			C409.428,671.4,407.592,672.012,407.592,672.012L407.592,672.012z M397.188,675.072
			C397.188,675.072,397.8,675.684,397.188,675.072L397.188,675.072z"/>
		<path fill="#0A874F" d="M324.972,476.172c-4.896-0.612-11.628,3.061-15.912,4.896c4.284,7.344,10.404,13.464,16.524,19.584
			c3.06,3.06,6.12,6.119,9.18,9.18c0.612,0.612,1.836,1.836,2.448,2.448c3.061,3.06,3.061,2.447,6.732,0.611
			c2.447-1.224,9.792-5.508,10.403-7.956c0.612-1.836-3.672-6.731-4.896-8.567c-1.836-3.061-3.672-5.508-5.508-7.956
			c-1.836-1.836-3.061-4.284-4.896-6.12C335.376,475.56,331.704,475.56,324.972,476.172L324.972,476.172z"/>
		<path fill="#0A874F" d="M358.632,508.608c-1.836,1.836-4.896,3.672-6.731,5.508s-2.448,1.836-1.836,4.896
			c0.611,2.448,1.224,4.896,1.836,7.345c0.611,2.447,1.224,4.896,1.836,7.344c0.611,3.06,0.611,4.896,2.447,7.344
			c0.612,0.612,1.836,1.836,2.448,2.448c12.24,11.628,25.704,22.644,38.556,33.048c7.345,6.12,12.853,13.464,17.748,21.42
			c1.837,3.06,3.061,4.896,6.12,1.836c4.284-3.672,0.612-7.956-1.224-12.24c-7.956-15.912-21.42-28.151-31.824-42.228
			C385.56,541.656,361.692,506.771,358.632,508.608L358.632,508.608z"/>
		<path fill="#FFFFFF" d="M285.804,153.036c-7.344,1.224-15.3,2.448-22.032,6.12c-3.06,1.836-6.12,3.672-9.18,6.12
			c-0.612,0.612-1.836,3.06-3.06,3.06c-1.836,0.612-1.224,0-3.06,0c1.836,4.896-7.344,11.628-10.404,14.076
			c-2.448,2.448-2.448,4.896-5.508,7.956c-3.06,2.448-5.508,5.508-7.956,8.568c-9.792,11.628-15.912,25.704-17.748,41.004
			c-1.224,11.016-1.836,23.256,4.284,33.66c1.836,3.672,2.448,2.448,6.732,3.06c3.672,0.612,6.12,2.448,8.568,5.508
			c3.06,4.284,3.06,9.792,5.508,14.076c3.672-2.448,6.12-8.568,7.956-12.24c3.06-4.896,6.12-9.792,9.792-14.076
			c6.12-8.568,13.464-16.524,21.42-23.868c4.896-4.896,10.404-9.18,15.912-12.852c1.836-1.224,4.284-2.448,6.12-3.672
			c0.612-0.612,4.896-3.672,5.508-3.06c2.448,0.612,1.224,1.836,0,3.06c-7.956,11.016-14.076,21.42-18.36,34.272
			c-5.508,15.912-11.016,31.212-11.016,47.124c1.836-6.12,1.836-12.24,3.672-18.36c3.06-11.016,8.568-20.808,14.688-29.988
			c11.016-14.688,24.48-26.928,41.616-33.66c4.284-1.836,8.568-3.672,12.853-4.284c3.672-0.612,4.896,1.836,8.567,2.448
			c1.225,0,4.284-0.612,5.508-0.612c2.448,0,4.896,0,7.956,0.612c6.732,1.836,12.24,6.12,17.137,11.016
			c24.479,22.032,24.479,56.916,20.195,86.904c-1.224,7.956-2.447,15.912-4.284,23.256c-2.447,9.18-6.731,16.524-9.791,25.092
			c-1.225,4.284-10.404,53.244-7.345,53.244c3.061-7.956,3.672-17.748,5.508-25.703c3.061-12.241,6.732-23.869,9.792-36.108
			c3.673-12.852,8.568-25.704,13.465-38.556c4.283-11.016,6.119-21.42,7.344-33.048c3.06-22.644,2.448-46.512-3.672-68.544
			c-3.672-13.464-12.853-24.48-21.42-34.884c-6.732-7.956-17.137-15.912-27.54-18.972c-6.12-1.836-12.853,0.612-18.973-1.224
			c-4.896-1.836-9.792-6.732-14.075-9.18C317.628,153.036,299.88,151.2,285.804,153.036L285.804,153.036z"/>
		<path fill="#FFFFFF" d="M228.888,175.068c-17.748,3.672-33.048,18.972-41.616,34.272c-10.404,18.36-14.076,40.392-15.3,61.2
			c-1.224,18.972-1.224,38.556,1.836,57.528c2.448,14.076,4.896,28.152,6.12,42.228c1.836,22.644,0,43.452-7.344,64.26
			c7.344-5.508,11.628-17.136,14.076-25.704c0.612-2.447,4.284-17.748,7.344-13.463c0-1.224,0.612-11.628,3.672-7.956
			c1.224,1.224,0,6.12-0.612,7.344c-0.612,7.957-2.448,15.912-4.284,23.256c6.732-13.464,9.792-27.54,8.568-42.228
			c-0.612-7.956-1.224-16.524-2.448-25.092c-1.224-9.18-2.448-18.972-1.224-28.764c0.612-3.06,1.224-5.508,2.448-7.956
			c0.612-3.06,0.612-4.896,0-7.956c-1.224-7.344-2.448-15.912,1.836-22.644c0.612-1.224,3.06-3.06,3.672-4.284
			c0.612-1.224,0,0,0-1.836c-0.612-3.06-3.06-6.732-4.284-9.792c-2.448-7.344-2.448-15.3-1.836-23.256
			c2.448-22.032,12.24-38.556,27.54-53.856c-4.284-1.224-6.732-3.06-4.284-7.956C223.38,181.188,227.052,175.068,228.888,175.068
			L228.888,175.068z"/>
		<path opacity="0.2" fill="#0A874F" d="M269.892,117.54c-25.092,3.672-49.572,10.404-72.828,20.196c0.612,0,1.836-0.612,0,0
			c-1.224,0.612-3.06,1.224-4.284,1.836c-1.836,1.224-4.284,1.836-6.12,3.06c-4.896,2.448-9.792,4.896-14.076,7.344
			c-9.18,4.896-18.36,10.404-26.928,16.524c-15.912,11.016-29.988,23.256-43.452,36.72c-28.152,29.376-50.796,65.484-64.26,104.04
			C12.24,381.924,17.748,465.156,54.468,534.924c20.808,40.393,52.632,76.5,88.74,101.592
			c-10.404-33.048-12.852-67.932-11.628-102.815c0.612-18.36,3.06-34.884,14.076-50.796c9.18-12.853,23.256-24.48,36.72-32.437
			c1.836-1.224,3.672-1.836,6.12-2.448c0.612,0,2.448-0.611,2.448-1.224c1.224-1.224,0-1.224,0.612-2.448
			c0.612-2.447,1.224-4.283,2.448-6.731c1.836-4.284,3.06-8.568,4.896-12.853c-1.836,3.672-6.732,18.36-12.852,16.524
			c-4.896-1.224,1.224-14.688,2.448-18.36c-4.284,6.732-9.18,17.748-18.36,19.584c-7.344,1.225-5.508-5.508-4.284-10.403
			c1.224-4.896,2.448-9.792,3.672-15.301c4.896-24.479,2.448-51.408-1.224-75.888c-3.672-25.704-6.12-50.184-4.284-76.5
			c2.448-27.54,7.344-53.856,26.316-74.664c7.956-8.568,17.136-15.912,27.54-20.196c5.508-2.448,10.404-3.06,16.524-3.672
			c3.06,0,5.508,0.612,7.956-0.612c1.836-0.612,6.732-3.672,7.956-0.612c12.852-12.24,28.152-18.972,46.512-19.584
			c14.076-0.612,28.152,1.224,40.392,7.956c6.12,3.672,9.18,7.956,16.524,7.344c6.731-0.612,12.852,0,19.584,2.448
			c17.748,7.344,28.151,20.196,38.556,35.496c10.404,15.3,14.076,33.66,14.076,52.02c0.612,19.584-2.448,37.944-6.732,56.916
			c-3.06,15.3-9.792,28.764-14.076,43.452c-3.672,12.24-6.731,23.868-10.403,36.108c-2.448,8.568-4.896,17.136-6.732,26.316
			c-0.611,4.284-1.836,17.748-8.567,15.912c-9.792-2.448-1.225-36.108,0.611-43.452c-7.344,9.792-10.403,22.644-15.912,33.66
			c-1.224,2.448-3.672,9.18-7.956,8.568c-5.508-1.225,0-7.956,1.225-11.017c-6.12,6.732-13.464,14.076-21.42,18.36
			c8.567,2.448,11.016,11.628,15.3,18.972c3.06,6.732,6.731,13.464,9.792,19.584c3.06-3.672,8.568,0,12.852,0.612
			c5.509,1.224,10.404,2.448,15.912,3.06c11.017,1.837,21.42,3.673,31.212,7.956c12.853,5.509,26.929,9.792,36.721,20.196
			c12.239,12.24,21.42,28.152,33.048,41.004c11.628,13.464,23.868,26.316,36.107,39.78c19.584-21.42,34.885-47.736,46.513-74.664
			c0,0,0,0.612-0.612,0.612c20.196-47.736,26.928-100.368,20.196-151.776v0.612C581.4,285.84,543.456,219.132,483.48,172.008
			c0.611,0.612,0.611,0.612,1.224,1.224C423.504,127.944,345.78,107.136,269.892,117.54L269.892,117.54z"/>
	</g>
</g>
</svg>
