<?xml version="1.0" encoding="utf-8"?>
<!-- Generator: Adobe Illustrator 16.0.0, SVG Export Plug-In . SVG Version: 6.00 Build 0)  -->
<!DOCTYPE svg PUBLIC "-//W3C//DTD SVG 1.1//EN" "http://www.w3.org/Graphics/SVG/1.1/DTD/svg11.dtd">
<svg version="1.1" id="Layer_1" xmlns="http://www.w3.org/2000/svg" xmlns:xlink="http://www.w3.org/1999/xlink" x="0px" y="0px"
	 width="600.367px" height="597.855px" viewBox="5.454 96.189 600.367 597.855"
	 enable-background="new 5.454 96.189 600.367 597.855" xml:space="preserve">
<g id="Background">
</g>
<g id="Image_Layer">
</g>
<g id="Draw_Layer">
</g>
<g id="Draw_Layer_1_">
	<g>
		<path fill="#232323" d="M262.548,148.14c-11.628,0-24.48,4.896-34.272,9.792c-12.24,5.508-22.032,15.3-31.824,24.48
			c-11.016,11.016-19.584,23.868-23.868,39.168c-4.284,13.464-6.732,29.988-4.284,44.064c1.224,6.732,4.284,12.852,8.568,17.748
			c1.224,1.224,16.524,12.852,15.912,5.508c0-2.448-4.284-4.284-5.508-5.508c-1.836-1.224-3.672-3.06-5.508-4.896
			c-5.508-6.12-7.956-14.076-7.344-22.644c0.612-14.076,5.508-29.376,12.24-41.616c7.344-13.464,18.36-23.868,29.988-34.272
			c6.732-6.12,14.688-11.016,23.256-14.688c6.732-2.448,14.076-6.732,21.42-7.344c4.284-0.612,15.3,3.672,15.3-4.284
			C275.4,148.14,266.22,148.14,262.548,148.14L262.548,148.14z"/>
		<path fill="#232323" d="M217.872,418.032c0,1.836-1.224,1.224-1.836,3.06c-0.612,1.836-0.612,3.672-0.612,6.12
			c0.612,6.12,2.448,11.016,5.508,15.912c3.06,4.284,7.344,8.568,11.628,12.24c2.448,1.836,4.896,3.672,7.344,6.12
			c1.836,1.224,5.508,6.119,7.344,6.119c6.12,0.612-4.896-7.955-6.12-9.18c-4.896-4.284-9.18-8.568-12.24-14.688
			c-2.448-4.896-6.12-10.404-7.956-15.912c-0.612-2.448-0.612-4.896-0.612-7.344c0-0.612,0-2.448-0.612-3.061
			C219.708,416.196,217.872,416.808,217.872,418.032L217.872,418.032z M220.32,421.704L220.32,421.704L220.32,421.704z
			 M233.784,449.856L233.784,449.856L233.784,449.856z M236.232,457.2C236.232,457.812,236.232,457.812,236.232,457.2L236.232,457.2
			z"/>
		<path fill="#232323" d="M367.812,183.636c-3.06,1.836,2.448,6.732,3.061,7.956c9.18,12.852,8.568,30.6,7.956,45.288
			c-0.612,13.464-1.836,29.376-6.12,42.228c-3.672-3.672-8.568-2.448-11.016,1.836l0,0c-1.836-18.36,1.224-37.332-2.448-55.692
			c-1.836-8.568-6.12-18.36-12.24-24.48c-7.344-6.732-17.136-6.12-25.704-3.06c-4.284,1.836-9.792,3.06-14.076,5.508
			c-3.672,1.836-4.896,6.12,0.612,6.12c4.284,0,10.404-3.672,14.688-4.896c3.672-1.224,8.567-2.448,12.239-1.224
			c7.956,2.448,10.404,14.688,11.628,22.032c1.836,9.792,2.448,19.584,3.061,29.376s1.224,18.972,3.672,28.764
			c0.612,3.06,1.836,12.852,6.731,11.628c4.284-1.224,4.284-9.18,7.956-11.016c2.448,3.06,4.896,7.956,9.181,4.284
			c3.672-2.448,4.284-10.404,5.508-14.688c3.06-11.016,6.12-21.42,7.344-32.436c1.225-11.016-0.611-23.256-4.284-34.272
			c-1.836-4.284-3.672-9.18-6.119-13.464C376.992,190.368,370.872,181.8,367.812,183.636L367.812,183.636z M366.588,282.78
			C367.2,282.78,367.2,282.78,366.588,282.78L366.588,282.78z M366.588,282.78L366.588,282.78L366.588,282.78z M366.588,282.78
			C365.976,282.78,365.976,282.78,366.588,282.78L366.588,282.78z"/>
		<path fill="#232323" d="M358.02,172.62c-4.283,1.224,4.896,9.792,6.12,10.404c1.225,1.836,7.956,11.016,10.404,6.732
			c2.448-3.672-11.016-14.688-13.464-16.524C361.692,173.232,359.244,172.008,358.02,172.62L358.02,172.62z"/>
		<path fill="#232323" d="M236.232,280.944c-5.508,0-11.016,0.612-15.912,1.224c-1.836,0-7.344,0-8.568,1.224
			c-1.836,3.06,2.448,2.448,3.672,2.448c9.18,0,18.36-1.836,27.54,1.224c3.06,1.224,4.896,3.06,7.344,4.284
			c3.672,1.836,9.18-0.612,6.732-5.508C253.98,280.944,241.128,280.944,236.232,280.944L236.232,280.944z"/>
		<path fill="#232323" d="M321.3,280.332c-7.344,0-13.464,2.448-20.196,4.284c-2.448,0.612-5.508,0.612-6.732,3.672
			c-2.448,5.508,3.672,7.344,7.344,5.508c1.224-0.612,2.448-1.836,3.672-2.448c2.448-1.224,6.12-1.836,8.568-2.448
			c6.731-1.224,12.852,0,18.972,1.224c1.836,0.612,15.3,3.672,11.628-3.06C341.496,282.168,326.808,280.332,321.3,280.332
			L321.3,280.332z"/>
		<path fill="#232323" d="M281.52,189.756c-12.24-0.612-23.868,5.508-31.212,15.912c-7.956,11.628-9.792,23.256-9.792,36.72
			c0,9.18,0.612,18.36-5.508,26.316c-3.672,4.896-9.18,7.956-14.688,10.404c-6.732,2.448-10.404,1.836-17.136,1.224
			c-4.896-0.612-4.284,3.06-0.612,4.896c3.672,1.836,8.568,1.836,12.852,1.224c10.404-1.836,21.42-7.344,26.928-16.524
			c7.344-11.016,4.896-25.704,4.896-37.944c0.612-11.628,6.732-23.868,16.524-29.988c5.508-3.672,12.24-5.508,18.972-4.896
			c3.672,0.612,7.956,1.224,10.404,3.672c1.836,1.224,2.448,4.284,4.284,4.896c1.836,1.224,4.896,0.612,4.896-2.448
			c0.612-1.836-2.448-5.508-3.672-6.732c-2.448-2.448-5.508-3.672-8.568-4.896C288.252,190.98,282.744,190.368,281.52,189.756
			L281.52,189.756z M257.04,208.116C256.428,208.728,256.428,208.728,257.04,208.116L257.04,208.116z"/>
		<path fill="#232323" d="M238.068,280.332c-6.732,0-15.912,1.224-22.032,3.672c-1.224,0.612-6.732,0-6.732,2.448
			c0,1.836,3.672,1.836,4.896,1.224c7.344-0.612,15.3-2.448,22.644-1.836c4.896,0.612,8.568,1.836,12.24,4.896
			c2.448,1.836,7.344,3.06,6.732-1.836C255.816,282.168,242.964,280.332,238.068,280.332L238.068,280.332z"/>
		<path fill="#232323" d="M321.3,280.944c-1.836,0.612-4.896,0-6.731,0c-2.448,0.612-4.896,1.224-7.956,1.836
			c-3.672,1.224-12.853,2.448-10.404,7.344c1.836,4.284,6.12,1.224,9.18,0s7.344-2.448,10.404-2.448c0.612,0,0.612,0,0,0
			c2.448,0,4.896-0.612,7.956-0.612c3.672,0,7.344,0,11.628,0.612c1.224,0,6.12,1.836,6.732,0.612
			C344.556,282.78,324.36,280.332,321.3,280.944L321.3,280.944z M340.271,286.452L340.271,286.452L340.271,286.452z
			 M315.792,288.288L315.792,288.288L315.792,288.288z"/>
		<path fill="#232323" d="M233.172,299.916c-1.836,1.836-7.344,1.224-9.792,3.672c-3.06,3.672,0,3.672,3.06,2.448
			c6.12-2.448,12.852-3.672,19.584-0.612c1.224,0.612,4.284,3.06,6.12,3.06c4.284,0.612,1.836-3.06-0.612-4.284
			C246.024,299.916,239.904,298.692,233.172,299.916L233.172,299.916z"/>
		<path fill="#232323" d="M236.232,297.468c-6.12,5.508,2.448,17.748,8.568,11.016C249.084,303.588,242.352,291.96,236.232,297.468
			L236.232,297.468z"/>
		<path fill="#232323" d="M310.284,298.692c-3.061,5.508,3.672,15.912,8.567,9.18C323.748,301.752,315.18,290.124,310.284,298.692
			L310.284,298.692z"/>
		<path fill="#232323" d="M313.956,296.856c-3.672,0-7.344,1.224-10.404,3.672c-1.836,1.224-5.508,6.732-0.612,6.732
			c1.224,0,1.836-0.612,3.06-1.224c3.672-1.836,6.12-3.06,9.792-3.06s6.12,0.612,9.18,2.448c2.448,1.224,6.732,1.836,4.284-2.448
			C327.42,298.08,318.24,296.244,313.956,296.856L313.956,296.856z M313.344,302.976
			C312.732,302.976,312.732,302.976,313.344,302.976L313.344,302.976z"/>
		<path fill="#232323" d="M310.284,296.856c-5.508,7.956,5.508,20.196,11.016,9.792C324.36,299.304,315.792,287.676,310.284,296.856
			L310.284,296.856z M313.956,303.588L313.956,303.588L313.956,303.588z M317.628,304.2
			C317.628,304.812,317.628,304.812,317.628,304.2L317.628,304.2z"/>
		<path fill="#232323" d="M238.68,295.02c-7.344,1.224-6.732,15.912,0.612,16.524C248.472,312.156,248.472,293.184,238.68,295.02
			L238.68,295.02z"/>
		<path fill="#232323" d="M265.608,302.364c-1.836,1.836-0.612,6.732-0.612,9.18c0,6.12,0,12.24-1.836,18.36
			c-1.224,6.12-3.06,12.24-4.284,18.972c-0.612,1.836-4.284,12.24,0.612,11.016c3.06-0.612,5.508-11.628,6.12-14.688
			c1.224-4.896,3.06-10.404,3.672-15.3c1.224-5.508,1.224-11.628,1.224-17.136C270.504,310.32,270.504,297.468,265.608,302.364
			L265.608,302.364z"/>
		<path fill="#232323" d="M291.924,362.34c-6.732,0-13.464,0.612-20.808,1.224c-2.448,0-9.792,0-7.344,4.896
			c1.224,2.448,4.896,1.224,6.732,1.224c6.732-0.612,12.852-1.224,19.584-1.224c2.448,0,6.732,0,6.12-3.672
			C295.596,362.34,293.148,361.728,291.924,362.34L291.924,362.34z"/>
		<path fill="#232323" d="M298.044,386.82c-7.344,0-13.464,2.448-20.196,4.284c-5.508,1.836-9.792-3.06-15.3-3.06
			c-1.836,0-12.24,1.224-7.956,4.284c1.224,1.224,4.896-0.612,6.732-0.612c2.448,0,3.672,0,6.12,0.612
			c3.06,1.224,6.12,3.06,9.18,3.06c4.284-0.612,8.568-3.672,12.852-4.284h-0.612c3.672-0.612,7.344,0,10.404-0.612
			C305.388,390.492,302.94,386.82,298.044,386.82L298.044,386.82z"/>
		<path fill="#232323" d="M293.76,396c-5.508,2.448-11.016,3.672-17.136,3.06c-4.284,0-7.344-0.611-11.628-2.447
			c-2.448-1.224-6.12-1.224-3.06,2.447c4.284,4.896,15.912,4.896,21.42,4.284c3.06-0.611,6.12-1.836,9.18-3.672
			C294.372,399.06,298.044,396,293.76,396L293.76,396z"/>
		<path fill="#232323" d="M273.564,374.58c-3.672,1.836-7.344,0-10.404,4.284c-1.224-3.06-4.284,0.612-5.508,1.836
			c-1.836,0-3.06-1.224-5.508,0c-0.612,0.612-3.06,1.836-3.672,2.448c-1.836,1.836-1.836,3.06,0.612,3.672
			c1.224,0.612,1.224,0,1.836-0.612c1.224,0,3.672,0.612,4.284,0c1.224-0.612,2.448-1.836,3.06-1.836
			c0.612,0,0.612,0.612,1.836,0.612c0.612,0,2.448-1.224,3.06-1.224c1.224,0,0.612,0,1.836,0c1.224,0,2.448,0.612,3.06,0
			c1.836-0.612,3.672-2.448,4.896-3.672c1.224-1.224,3.06-1.836,3.06-4.284C277.848,375.192,276.012,372.744,273.564,374.58
			L273.564,374.58z"/>
		<path fill="#232323" d="M281.52,372.744c-2.448,0.612-3.672,1.836-3.672,4.896c0,3.672,0,6.732,3.672,7.344h3.06
			c0.612,0,3.06,0,3.672,0c3.06-0.612,1.224-1.224,4.284-0.612c1.224,0,1.836,1.224,3.06,1.224c2.448,0.612,4.896-0.612,7.344-0.612
			c2.448,0,4.284,1.224,6.732,1.224c2.448,0.612,6.732,1.224,8.568-0.612c3.06-3.06-0.612-4.896-3.061-4.896
			c-4.283-1.224-9.18-1.836-13.464-2.448c-1.224,0-3.06,0-3.672-0.612c-1.836-0.612-3.06-1.224-4.896-1.836
			C289.476,375.192,283.968,372.132,281.52,372.744L281.52,372.744z M278.46,381.924L278.46,381.924L278.46,381.924z"/>
		<path fill="#232323" d="M252.144,382.536c-1.836,1.224-9.18,0.612-8.568,4.896c0.612,4.284,5.508,0.612,7.344-0.612l0.612-0.612
			c0.612-0.612,2.448-1.224,2.448-2.448C253.98,383.148,252.756,381.924,252.144,382.536L252.144,382.536z"/>
		<path fill="#232323" d="M338.436,256.464c-4.283,4.284-7.955,8.568-12.239,12.852c-1.225,1.224-11.017,9.792-7.956,10.404
			c1.836,0.612,8.567-7.956,9.792-8.568c2.448-2.448,4.896-5.508,7.344-7.956c0.612-0.612,4.896-4.896,4.896-5.508
			S339.66,255.24,338.436,256.464L338.436,256.464z"/>
		<path fill="#232323" d="M291.924,304.2c-3.06,2.448-6.732,5.508-9.792,7.956c-1.836,1.224-12.24,8.568-7.344,8.568
			c1.224,0,5.508-3.672,6.12-4.896c2.448-1.836,4.284-3.672,6.732-5.508c1.224-1.224,3.06-2.448,4.284-3.672
			c0.612-0.612,1.836-1.224,1.836-1.836C293.76,304.812,293.148,303.588,291.924,304.2L291.924,304.2z"/>
		<path fill="#232323" d="M254.592,338.472c-6.12,6.12-12.24,11.628-18.36,17.748c-1.224,1.224-17.136,15.3-16.524,16.524
			c1.224,2.448,20.808-17.136,22.032-18.36c5.508-5.508,11.628-9.792,13.464-17.136C255.204,337.86,255.204,338.472,254.592,338.472
			L254.592,338.472z"/>
		<path fill="#232323" d="M342.108,321.336c-6.732,8.568-14.688,15.912-22.032,23.868c-4.284,4.284-8.568,9.18-12.853,13.464
			c-1.224,0.612-7.956,6.732-2.448,4.896c3.672-1.224,7.344-6.732,9.792-9.18c3.672-4.284,7.956-7.956,11.628-12.24
			c4.284-4.284,8.567-8.568,12.852-13.464c1.224-1.224,4.284-3.672,4.284-5.508C343.332,323.172,343.944,319.5,342.108,321.336
			L342.108,321.336z"/>
		<path fill="#232323" d="M258.876,402.12c-1.836,3.06-3.672,6.731-5.508,10.404c-2.448,4.896,0.612,3.672,2.448,0
			c1.224-1.837,1.836-3.673,3.06-5.509c0.612-0.611,2.448-3.06,1.836-3.672C260.1,402.732,259.488,400.896,258.876,402.12
			L258.876,402.12z"/>
		<path fill="#232323" d="M208.692,112.644c-72.216,24.48-133.416,77.112-168.912,144.432C1.836,328.68-4.896,414.36,20.808,490.86
			c3.06,9.18,6.732,18.359,11.016,27.54c0.612,1.836,1.836,3.672,2.448,4.896c0,0,1.224,0,1.224,0.612
			c0.612,0.611,1.224,2.448,1.836,3.06c1.836,3.061,3.06,6.732,4.896,10.404c7.956,14.076,15.3,27.54,25.092,40.392
			c4.896,6.12,9.792,11.628,14.688,16.524c6.12,5.508,10.404,12.24,16.524,17.748c12.852,12.24,26.928,23.256,41.616,32.436
			c53.244,34.884,119.952,53.244,184.212,48.96c41.004-2.447,81.396-13.464,118.115-31.823c6.732-3.061,14.688-6.12,20.196-10.404
			c6.732-4.896,15.3-10.404,22.645-15.912c15.3-11.628,29.987-24.479,42.84-39.168c6.731-7.344,12.852-15.3,18.972-23.256l0,0
			c3.672-6.732,8.568-12.853,12.853-18.972c6.731-10.404,12.239-20.809,17.748-31.824c10.403-22.645,18.359-47.124,23.256-72.216
			c9.18-52.021,5.508-106.488-12.853-156.061c-34.271-92.412-112.607-164.016-208.08-189.108
			C323.748,91.224,263.772,93.672,208.692,112.644L208.692,112.644z M265.608,108.972
			C266.22,108.972,264.996,108.972,265.608,108.972L265.608,108.972z M304.164,112.032c62.424,0,123.012,20.808,173.196,58.752
			l-0.612-0.612c1.224,1.224,0,0,0,0c85.68,66.708,128.52,179.316,104.652,286.416c-6.732,29.988-17.748,58.752-33.66,85.068l0,0
			c-3.061-14.688-6.732-31.212-15.912-43.452c-10.404-14.688-26.316-26.316-41.616-35.496C475.524,454.14,459,451.692,443.7,445.572
			c-6.732-3.061-13.464-5.508-20.196-8.568c-4.896-1.836-15.912-9.792-16.523,0.612l0,0c-10.404-7.956-21.421-15.912-32.437-23.868
			c-3.672-3.061-7.956-7.956-12.852-9.792c-1.225-0.612-1.225,0.612-2.448,0c-0.612-0.612-1.225-1.224-1.836-1.836
			c-2.448-2.448-4.896-5.508-6.732-7.956c-1.224-1.836-1.836,0.612-1.836-3.672c0-6.732,0.612-13.464,0.612-20.196
			c0-3.06,0-5.508,0.612-8.568c0.611-4.896,3.06-4.284,6.731-7.344c13.464-11.016,16.524-31.824,17.748-48.348
			c0-3.672-0.612-8.568,0-12.24c0.612-4.284,4.284-8.568,6.12-12.852c3.06-7.344,5.508-15.3,6.732-23.256
			c3.672-18.972,1.224-37.332-4.896-55.08c-5.508-17.136-18.36-28.764-33.048-39.78c-15.912-11.628-34.272-18.36-54.468-18.972
			c-6.12,0-11.628,0-17.136,2.448c-3.06,1.224-4.896,2.448-8.568,2.448c-10.404,0-18.972,1.224-28.764,5.508
			c-10.404,4.284-20.808,9.792-29.988,15.912c-3.672,2.448-7.344,5.508-11.016,8.568c-1.836,1.836-3.672,3.672-5.508,5.508
			c-0.612,1.224-1.836,1.836-2.448,3.06c0,0-2.448,3.06-1.224,1.836c-0.612,0.612-1.836,2.448-1.224,1.836
			c-5.508,7.344-11.016,17.136-15.3,25.704c-7.956,17.136-15.3,41.004-3.672,58.14c2.448,3.672,5.508,6.732,8.568,9.792
			c1.836,1.224,9.18,4.896,9.792,6.732c0,0.612-1.836,6.12-2.448,7.344c-0.612,2.448-0.612,5.508-0.612,7.956
			c0,5.508,0,11.016,0,17.136c0.612,7.956,3.06,16.524,8.568,22.644c0.612,1.224,1.836,1.836,2.448,2.448
			c1.224,0.612,3.672,1.224,4.284,1.836c1.224,1.224,1.836,6.732,2.448,9.792c3.06,11.628,6.12,23.256,11.628,33.66
			c1.224,3.06,2.448,4.284,3.06,7.344c0,3.061,0.612,8.568-0.612,11.628c-0.612,1.225-1.836,3.061-3.06,4.284
			c-1.224,1.836-1.836,4.896-3.06,6.12c-2.448,3.672-9.18,6.12-12.852,8.568c-6.12,3.672-12.24,7.956-17.748,11.628
			c-2.448,1.836-5.508,3.672-7.956,5.508c-4.284,3.06-4.284,6.12-6.732,10.404c-1.836,3.06-0.612,1.836-4.284,3.06
			c-4.896,2.448-9.18,6.12-13.464,9.18c-3.672,2.448-7.344,5.509-11.016,7.345c-15.3,9.18-32.436,15.912-48.96,22.644
			c-14.688,6.12-26.928,13.464-35.496,27.54l0,0c-3.672-6.732-6.732-14.076-9.792-20.808c0,0,0,0,0,0.611c0-0.611,0-0.611,0,0
			c-19.584-47.735-26.316-99.144-20.196-149.94l0,0l0,0c12.852-95.472,74.664-179.928,162.18-220.932
			c25.704-12.24,53.244-20.196,81.396-23.868h-0.612C277.848,113.256,291.312,112.032,304.164,112.032L304.164,112.032z
			 M269.28,157.932c3.672,0,6.732-2.448,10.404-3.672c4.284-1.836,7.956-2.448,12.852-2.448c9.18,0,18.36,0.612,26.928,3.06
			c7.956,2.448,14.688,4.896,22.032,9.18c3.672,2.448,7.344,4.896,11.016,7.344c-0.611-0.612,3.061,1.836,1.836,1.224
			c7.956,6.12,17.137,13.464,22.032,23.256c-0.612-1.224,1.836,4.284,1.836,4.896c1.225,4.284,2.448,7.956,3.672,12.24
			c1.836,7.956,3.672,15.912,3.672,23.868c0.612,15.912-4.283,33.048-10.403,47.736c0.611-1.224,0-0.612-0.612,1.224
			c-2.448-14.688-12.852,1.836-15.912,6.12c0-23.256-0.612-47.736-7.956-69.768c-3.06-9.18-7.956-21.42-17.748-25.704
			c-8.567-3.672-17.136,3.06-24.479,5.508c-1.836,0.612-4.896,1.224-5.508,3.06s1.224,3.672,3.06,3.672
			c3.672,0.612,9.792-3.672,13.464-4.896c7.344-3.06,12.24-2.448,17.136,4.284c10.404,14.076,12.853,36.72,14.076,53.856
			c0.612,9.792,0,20.196,0.612,29.988c0.612,4.284,2.448,11.016,7.956,7.956c4.284-2.448,6.12-9.18,7.956-12.852
			c0-1.224,0,0.612,0,0c4.284,14.688,3.06,34.272-2.448,47.736c-1.836,4.284-5.508,10.404-9.792,12.852l0,0
			c0.612-3.672,0.612-7.344,1.224-11.016c0.612-3.672,1.836-7.344,2.448-11.628c0.612-3.06,0.612-6.12,1.224-9.18
			c0.612-3.06,3.061-7.956,1.225-10.404c-5.508-8.568-9.18,12.24-9.18,14.688c-0.612,7.344,1.224,14.688-0.612,22.032
			c-2.448,11.628-5.508,23.868-9.792,34.884c-4.896,12.24-11.628,29.988-22.032,39.168c-11.628,10.403-27.54,15.912-43.452,15.912
			c-15.3-0.612-28.152-11.017-39.168-20.809c-5.508-4.896-11.016-9.792-14.688-15.912c-3.672-6.12-5.508-12.852-7.956-19.584
			c-4.284-12.24-7.956-25.092-9.18-37.332c-0.612-4.896-0.612-9.792-1.224-14.688c0-4.896,0.612-9.792,0.612-14.076
			c0-1.836,1.224-15.3-4.284-11.628c-1.836,1.836-1.224,10.404-1.836,12.852c-0.612,4.896-1.224,9.792,0,14.688
			c0.612,3.672,2.448,6.732,3.06,10.404c0.612,2.448,0.612,5.508,0.612,7.956l0,0c-6.12-4.896-9.18-14.076-9.792-22.032
			c-0.612-7.956-1.224-20.196,1.224-28.152c2.448-6.732,3.06-3.672,7.956-3.672c4.284-0.612,2.448-3.672-0.612-4.896
			c-1.224-0.612-2.448-0.612-3.672-0.612c-0.612,0-3.06,1.224-3.672,1.224c-2.448-0.612-9.18-6.732-11.016-8.568
			c-7.344-7.956-11.016-16.524-9.792-27.54c2.448-20.808,12.24-41.616,25.092-58.14c-1.836,2.448,1.836-2.448,2.448-2.448
			c1.224-1.224,2.448-2.448,3.672-4.284c3.06-2.448,6.12-5.508,9.18-7.956c6.12-4.284,12.24-7.956,18.36-11.628
			c7.344-3.672,15.3-7.956,23.256-9.792c3.06-0.612,6.12-1.836,9.18-1.836c0.612,0,1.836,0,2.448,0c0,0.612,0,0.612,0.612,1.224
			C267.444,157.32,267.444,157.932,269.28,157.932L269.28,157.932z M372.096,190.368L372.096,190.368L372.096,190.368z
			 M189.72,191.592C189.108,191.592,189.108,191.592,189.72,191.592L189.72,191.592z M77.112,217.908
			C77.112,218.52,77.112,218.52,77.112,217.908L77.112,217.908z M171.36,248.508L171.36,248.508L171.36,248.508z M196.452,290.736
			L196.452,290.736L196.452,290.736z M196.452,290.736L196.452,290.736L196.452,290.736z M196.452,290.736L196.452,290.736
			L196.452,290.736z M281.52,438.228c15.3-0.611,29.376-7.344,40.392-17.747c10.404-9.793,15.3-24.48,20.808-36.721
			c-0.611,14.688,1.225,28.765,2.448,42.84c0.612,4.284,1.836,9.792,1.224,14.076c-0.611,4.896-4.283,11.017-6.731,14.688
			c-1.225,2.448-3.672,4.284-5.508,6.12c-4.896,4.896-9.181,10.403-15.301,14.075c-2.447,1.837-4.896,3.061-7.955,4.284
			c-1.837,1.225-3.673,1.836-4.896,3.061c-1.224,1.224-1.836,3.06-3.06,3.672c-2.448,1.836-7.956,2.448-10.404,3.672
			c-3.672,1.224-6.732,2.448-10.404,3.672c-1.224-4.284-2.448-8.568-4.896-12.24c-2.448-3.672-5.508-4.896-9.18-6.731
			c-9.18-4.896-17.748-9.181-25.092-16.524c-3.06-3.06-6.732-5.508-9.792-9.18c-1.836-1.836-7.956-8.568-7.956-11.628
			c0-1.225,1.836-2.448,1.836-3.672c0.612-2.448-0.612-6.732-0.612-9.181c0-4.896,0-10.403-0.612-15.912
			c7.956,7.345,14.688,14.688,24.48,20.196C260.712,435.168,269.892,438.84,281.52,438.228L281.52,438.228z M321.3,480.456
			c13.464-6.732,26.928-23.256,30.601-37.944c3.672-14.076,0-28.764,0.611-42.84c6.12,9.18,12.24,17.748,16.524,28.152
			c4.284,9.792,2.448,20.195,0.612,30.6c-4.284,23.256-11.017,45.9-15.912,68.544c-6.12-9.792-10.404-21.42-15.912-31.824
			c-1.836-3.672-4.284-9.18-7.956-12.239c-3.672-2.448-8.568-1.836-12.24-0.612C318.24,481.68,319.464,481.068,321.3,480.456
			L321.3,480.456z M319.464,653.652c5.508-20.809,11.628-41.004,17.136-61.812c3.061-9.792,6.12-20.196,9.181-29.988
			c3.06-9.18,5.508-20.195,9.792-28.764c8.567-17.748,12.239-39.168,15.912-58.752c2.447-10.404,4.283-21.42,4.896-31.824
			c0.612-10.403-4.284-18.972-9.18-27.54c7.956,6.732,15.912,12.24,24.479,18.36c4.284,3.06,8.568,6.12,12.24,9.18
			c2.448,1.836,3.061,1.836,3.672,4.896c0.612,2.448,0.612,4.896,1.225,7.344c3.672,20.196,5.508,41.004,6.119,61.812
			c0,10.403-0.611,20.195,3.061,30.6c1.836,4.896,3.672,6.12,0.612,11.016c-1.837,3.672-5.509,7.345-8.568,11.017
			c-6.732,7.956-13.464,17.136-20.808,24.479c-7.345,7.345-15.301,14.076-22.032,22.032c-15.3,17.748-33.048,34.272-50.796,50.184
			C317.016,660.996,318.24,657.324,319.464,653.652L319.464,653.652z M235.62,519.624c-4.284-18.36-11.628-36.108-15.912-54.468
			c-1.836-7.956-5.508-16.524-5.508-25.092c0-7.345,1.836-12.853,4.284-19.584c0,1.836,0.612,3.06,1.224,4.283
			c0.612,1.836,0.612,4.284,0.612,6.732c0,3.06,0,5.508,1.224,7.956c3.06,8.567,9.792,14.688,16.524,20.808
			c3.672,3.672,7.344,6.732,11.628,9.792c4.896,3.061,9.18,4.284,14.076,6.732c4.284,1.836,12.24,7.956,12.24,12.852
			c-7.344-7.344-18.36-17.136-25.704-3.672c-6.12,11.628-9.792,24.48-13.464,36.72C236.232,522.072,236.232,520.848,235.62,519.624
			L235.62,519.624z M188.496,443.736c7.344-4.896,14.076-9.792,21.42-14.688c-1.224,8.568,0,17.136,2.448,25.704
			c2.448,9.792,4.896,19.584,7.956,29.376c2.448,9.18,6.12,18.36,8.568,27.54c2.448,7.344,3.06,15.3,5.508,22.644
			c5.508,17.137,8.568,36.108,12.852,53.856c4.284,20.196,11.016,39.168,15.912,59.364c-11.628-20.196-28.152-35.496-46.512-50.185
			c-9.18-7.344-17.748-14.688-25.704-23.256c-3.672-4.284-7.956-8.567-11.628-13.464c-3.06-3.672-7.344-7.956-9.792-12.24
			c-2.448-4.283-2.448-11.016-3.06-15.912c-0.612-5.508-0.612-11.628,0-17.136c0-4.284,0.612-7.344,1.836-11.628
			c0-1.836,1.224-3.672,0-4.896c-1.224-1.837-3.672-1.225-4.284-2.448c-1.836-2.448,1.836-12.24,3.06-14.688
			c1.836-5.508,3.672-10.403,5.508-15.912c1.224-4.283,2.448-9.792,5.508-13.464C179.928,449.244,184.824,446.796,188.496,443.736
			L188.496,443.736z M214.812,432.72L214.812,432.72L214.812,432.72z M411.264,465.768
			C411.264,466.992,411.264,466.992,411.264,465.768L411.264,465.768z M260.712,484.74
			C261.324,484.74,261.324,484.74,260.712,484.74L260.712,484.74z M272.34,496.368c-3.06-4.284-7.956-9.181-12.852-11.628
			c6.12,0,11.016,9.18,15.912,12.24C273.564,496.98,272.952,497.592,272.34,496.368L272.34,496.368z M257.652,506.771
			c-1.836-1.224-5.508-2.447-6.732-4.283c-1.836-2.448-1.224,0.611-1.224-2.448c0-3.672,4.284-10.404,6.732-13.464
			c-0.612,3.672,10.404,10.404,13.464,12.24c-4.896,1.836-11.016,3.06-9.792,9.18C258.876,507.384,258.264,507.384,257.652,506.771
			L257.652,506.771z M325.584,490.248c2.448,0,0,9.18,0,9.792c-1.836,4.284-4.896,8.568-6.732,12.852
			c-4.283,7.345-7.344,15.301-11.016,22.645c-0.612,1.836-1.836,4.284-3.06,5.508c-1.836,1.836-1.224,1.224-4.284,1.224
			c-4.284-0.611-7.956-0.611-12.24-0.611c-1.836,0-10.404,2.447-11.628,1.224c-1.836-1.224-3.06-8.568-3.672-11.016
			c-1.224-3.672-3.06-7.956-4.284-11.628c-0.612-3.061-3.672-9.792-3.06-12.24c0.612-3.061,4.284-1.225,7.344-2.448
			c7.956-2.448,16.524-4.284,23.868-7.344c3.672-1.225,7.956-3.061,12.24-4.284c2.448-0.612,4.896-1.836,7.345-1.836
			c0.611,0,6.731-1.224,4.284-0.612C322.524,490.248,324.36,490.248,325.584,490.248L325.584,490.248z M326.808,496.368
			c0,0.612,0,0.612,0,1.224C326.808,496.368,326.808,496.98,326.808,496.368L326.808,496.368z M325.584,601.632
			c-3.06-9.792-6.12-19.584-10.404-28.764c-1.836-4.896-3.672-9.181-4.896-14.076c-1.225-3.06-3.061-9.18-3.061-12.24
			c0.612-3.06,4.284-7.344,5.509-10.403c2.447-4.896,4.283-9.181,6.731-14.076c3.672-7.956,9.792-15.912,12.24-24.48
			c4.284,9.18,8.568,18.36,13.464,26.928c1.224,2.448,3.06,4.284,4.896,6.732c0.611,0.612,1.836,1.224,2.447,1.836
			c0.612,1.836-1.836,6.12-2.447,7.956c-0.612,2.448-1.837,4.896-2.448,7.344c-6.732,19.584-12.853,39.168-20.196,58.141
			C326.808,605.304,326.196,603.468,325.584,601.632L325.584,601.632z M162.792,503.1L162.792,503.1L162.792,503.1z M267.444,643.86
			c-6.12-23.868-12.852-47.736-17.748-71.604c-2.448-12.24-6.732-23.868-10.404-36.107c-2.448-9.181,4.284-21.421,7.344-29.988
			c4.284,3.06,12.852,6.731,14.688,11.628c2.448,6.12,3.672,12.852,6.12,18.972c1.836,4.284,2.448,8.568,5.508,12.24
			c0.612,1.224,1.224,0.612,1.836,1.224c0.612,1.225-0.612,4.896-0.612,6.12c0,3.672-0.612,7.344-0.612,11.017
			c-1.836,26.315-6.12,52.632-5.508,79.56C268.056,645.696,267.444,644.472,267.444,643.86L267.444,643.86z M265.608,506.16
			C264.996,506.16,264.996,506.16,265.608,506.16L265.608,506.16z M282.132,680.58c-2.448-4.896-5.508-9.792-7.956-15.3
			c-0.612-1.225-2.448-4.284-1.836-6.12c1.224,0,1.836-0.612,1.836-1.836c0-1.225,0.612-2.448,0.612-3.061
			c1.224-11.628,0.612-23.868,0.612-36.107c0-11.628,0.612-22.645,1.836-34.272c0.612-6.12,1.224-12.24,1.836-18.359
			c0-3.061,0.612-6.12,0.612-9.181c0-1.836,1.224-6.12,0-7.956c3.672-0.611,7.956-0.611,11.628-0.611
			c2.448,0,9.18-0.612,11.628,0.611c1.836,1.225,2.448,7.345,3.06,10.404c1.224,3.672,2.448,7.344,3.672,11.016
			c3.061,7.345,6.12,14.076,8.568,21.42c1.224,3.061,4.284,20.196,7.956,20.196c-5.509,15.3-9.181,31.212-13.464,47.124
			c-1.837,6.732-3.673,13.464-6.12,20.196c-0.612,1.836-0.612,3.06-1.836,3.672s-5.508,0-7.344,0
			C291.312,681.192,286.416,681.192,282.132,680.58L282.132,680.58z M170.136,549.612
			C170.136,550.224,170.136,550.224,170.136,549.612L170.136,549.612z M212.364,666.504c-12.24-4.284-23.868-9.18-35.496-15.3
			c-5.508-3.061-11.016-6.12-16.524-9.18c-1.836-1.225-7.344-3.061-7.956-4.896c-0.612-1.224,1.224-7.344,1.836-8.568
			c4.284-24.479,9.792-49.571,9.792-74.664c16.524,26.316,44.064,41.616,66.096,62.425c9.18,8.567,15.912,17.748,23.256,27.54
			c7.956,11.016,15.912,23.867,20.808,36.107c-1.836,0-3.672-0.612-5.508-0.612c-0.612,0-6.12-0.611-1.836,0
			C247.86,676.908,230.112,672.624,212.364,666.504L212.364,666.504z M310.896,679.968c2.447-5.508,8.567-9.792,13.464-14.076
			c5.508-4.896,11.016-9.18,16.523-14.075c11.628-9.792,21.42-20.809,31.212-32.437c9.181-10.404,19.584-20.196,29.376-29.376
			c4.896-4.896,9.792-9.18,13.464-14.688c3.061-4.284,7.956-7.956,9.792-12.853c3.673,7.344,4.896,15.3,7.345,23.256
			c2.447,7.956,5.508,15.3,8.567,23.256c3.061,7.956,6.12,15.301,7.956,23.257c0.612,1.836,0.612,3.672,1.225,5.508
			c0.611,3.06,0.611,2.447-1.225,4.284c-3.06,3.06-8.567,4.896-12.24,6.731c-29.987,15.912-63.035,26.316-96.695,31.212
			c4.896-0.612-4.284,0.612-5.508,0.612c-2.448,0-4.896,0.612-7.345,0.612c-5.508,0.611-11.016,0.611-17.136,0.611
			C310.896,681.192,310.896,680.58,310.896,679.968L310.896,679.968z M88.128,581.436c0-0.611,0-0.611,0.612-1.224
			C88.74,581.436,88.74,581.436,88.128,581.436L88.128,581.436z M460.836,633.456c0.612-0.612,1.836-1.224,2.448-1.224
			L460.836,633.456L460.836,633.456z M146.88,633.456C146.268,633.456,146.268,633.456,146.88,633.456L146.88,633.456z
			 M413.1,659.16c-0.611,0-0.611,0.611-1.224,0.611C412.488,659.771,413.1,659.771,413.1,659.16L413.1,659.16z"/>
		<path fill="#232323" d="M267.444,175.68c-17.748,1.836-31.824,15.3-37.332,31.824c-5.508,15.912-1.836,36.108-12.852,49.572
			c-5.508,6.732-14.688,12.852-23.256,12.852c-3.06,0-4.896-1.224-7.344-2.448c-3.06-1.836-7.956-1.224-6.12,3.672
			c3.06,7.956,15.912,7.344,22.032,6.12c8.568-1.836,16.524-7.956,22.644-14.688c7.344-8.568,9.792-19.584,11.628-29.988
			c2.448-12.24,4.896-22.644,12.24-33.048c0,0,0,0,0,0.612c6.12-7.956,17.136-14.688,27.54-12.852
			c4.284,0.612,9.792,4.284,12.852,7.956c2.448,3.06,1.836,10.404,7.344,10.404c4.284,0,4.896-4.284,4.896-7.956
			c-0.612-5.508-3.672-9.18-7.956-12.852C285.804,178.74,277.848,175.068,267.444,175.68L267.444,175.68z"/>
		<path fill="#232323" d="M282.132,190.368c-22.032,1.836-34.884,23.868-38.556,43.452c-1.836,10.404-0.612,23.868-6.12,33.048
			c-4.284,7.344-11.016,11.628-19.584,13.464c-2.448,0.612-4.896,0.612-7.344,1.224c-1.224,0-4.896-0.612-6.12,0
			c-4.896,2.448,1.224,4.896,3.672,4.896c7.956,0,17.748-2.448,24.48-7.344c7.956-6.12,12.852-13.464,14.688-23.256
			c1.224-6.12,1.836-11.628,3.06-17.748c1.836-11.016,6.12-21.42,15.3-28.764c5.508-4.284,20.196-14.076,25.092-6.732
			c1.836,2.448,3.672,6.732,7.344,6.732c3.06,0,4.896-2.448,4.284-5.508c-0.612-3.672-5.508-8.568-8.568-10.404
			C290.7,190.98,286.416,189.756,282.132,190.368L282.132,190.368z"/>
		<path fill="#232323" d="M298.044,203.22c-2.448,1.224-0.612,3.672,1.224,3.672c-1.224,6.12,8.568,3.672,10.404,1.224
			c1.225-1.224,1.225-3.06,0-4.284c-1.836-1.836-3.06-0.612-4.284,0c-0.612,0-4.284-0.612-3.06-0.612
			C301.104,203.22,299.268,202.608,298.044,203.22L298.044,203.22z"/>
		<path fill="#232323" d="M293.148,146.304c-4.284,0.612-23.868,1.224-22.032,7.956c1.224,4.284,6.12,2.448,8.568,1.836
			c4.284-0.612,7.956-1.224,12.24-1.224c9.792-0.612,18.36,3.06,28.152,6.12c8.567,2.448,15.912,4.284,23.256,9.792
			c-0.612-0.612,0.612,0.612,0,0c13.464,10.404,23.868,23.868,29.988,39.78c2.447,6.732,4.284,13.464,5.508,20.196
			c0.612,3.672,1.224,7.956,1.224,11.628c0,3.06-0.611,10.404,1.836,12.852c3.672,3.672,4.284-3.06,4.284-5.508
			c0-4.896,0.612-10.404,0-15.3c0-9.792-1.836-19.584-5.508-28.764c-6.732-15.912-18.36-30.6-31.824-41.004
			c-8.567-6.732-17.136-9.792-27.54-12.24C312.12,148.752,303.552,145.08,293.148,146.304L293.148,146.304z"/>
		<path fill="#232323" d="M252.144,485.964c-1.224,4.284-7.344,16.524-4.284,20.808c2.448,3.061,3.672,1.225,6.12,0.612
			c3.672-0.612,4.284,0.612,5.508-3.672c0.612-2.448,2.448-6.12,1.836-8.568c-0.612-2.447-1.224-3.672-1.224-6.119
			c0-1.837,0-3.673-1.836-4.896C256.428,481.68,253.368,483.516,252.144,485.964L252.144,485.964z M249.084,499.428
			C249.084,499.428,248.472,500.652,249.084,499.428L249.084,499.428z"/>
		<path fill="#232323" d="M257.04,489.024c-2.448,1.836-2.448,4.896-0.612,6.731c0.612,0.612,3.06,1.836,3.06,3.061
			c0,0.611-1.224,3.672-1.224,4.283c-1.836-1.224-4.284-3.672-6.732-2.447c-1.836,1.224-2.448,3.06-1.224,4.896
			c1.836,3.061,9.792,8.568,12.852,4.896c1.224-1.836,0.612-4.284,1.836-6.12c1.836-3.672,0.612,0,3.06-1.836
			c0.612-0.612,1.224-0.612,1.836-1.225c1.224-1.836,0.612-3.06,0-4.896c-0.612-1.225-1.836-2.448-3.06-3.672
			c0,0-3.06-2.448-1.836-1.225l-0.612-0.611C263.16,489.636,260.1,487.188,257.04,489.024L257.04,489.024z M264.384,490.86
			L264.384,490.86L264.384,490.86z"/>
		<path fill="#232323" d="M251.532,493.308c-1.836,3.673-4.896,8.568-6.12,12.24c-1.224,6.12,6.732,7.956,11.016,9.792
			c1.836,1.225,4.896,3.061,7.344,2.448c2.448-0.612,3.672-3.672,2.448-5.508c-1.836-4.284-9.18-6.12-12.852-7.956
			c1.224-2.448,4.896-6.732,4.284-9.792C257.04,492.084,252.756,490.248,251.532,493.308L251.532,493.308z"/>
		<path fill="#232323" d="M277.848,500.652c-4.896,0-4.284,7.956-4.896,11.628c-0.612,4.896-1.836,9.18-3.06,14.076
			c-1.224,3.672-3.672,9.18-1.224,12.852c1.836,3.06,5.508,3.672,7.956,1.836s2.448-4.896,3.06-7.344
			c0.612-5.508,1.224-10.404,2.448-15.912C282.132,513.504,287.028,496.98,277.848,500.652L277.848,500.652z"/>
		<path fill="#232323" d="M288.252,494.532c-4.896,3.06-4.284,10.403-4.896,15.3c-0.612,6.12-1.836,11.628-2.448,17.748
			c-0.612,4.284-2.448,10.404-0.612,14.688c1.224,4.284,7.344,6.732,10.404,3.061c3.06-3.672,3.06-11.017,4.284-15.3
			c0.612-4.284,1.836-7.956,2.448-12.24c1.224-4.896,4.284-12.24,3.06-17.136C298.656,494.532,292.536,492.084,288.252,494.532
			L288.252,494.532z"/>
		<path fill="#232323" d="M303.552,492.696c-4.284,12.852-6.732,26.315-8.568,39.779c-0.612,4.284-2.448,10.404,1.836,13.465
			c4.896,3.06,8.568-1.225,9.792-5.509c3.672-11.016,3.06-23.256,6.12-34.884c0.611-3.672,3.672-9.792,1.836-13.464
			C312.12,486.576,305.388,487.188,303.552,492.696L303.552,492.696z"/>
		<path fill="#232323" d="M318.852,486.576c-3.06,1.836-3.672,7.344-4.896,10.404c-1.224,4.283-2.448,7.955-3.672,12.239
			c-0.612,3.672-3.061,9.181,0.612,12.24c2.447,1.836,5.508,0.612,7.344-1.224c1.836-2.448,1.836-6.12,2.447-8.568
			c1.225-4.284,2.448-8.568,3.673-12.24c1.224-3.06,3.672-7.344,1.224-10.403C324.36,485.964,321.3,485.352,318.852,486.576
			L318.852,486.576z"/>
		<path fill="#232323" d="M284.58,540.432c-4.284,2.448-3.672,14.076-4.284,18.36c-1.224,10.404-1.836,20.808-1.836,31.212
			c-0.612,21.42,0,42.229,0.612,63.648c0,4.896,0.612,9.792,0.612,14.688c0,3.672-0.612,9.792,1.836,12.24
			c2.448,3.06,6.12,2.448,7.956-1.224c1.836-4.284,0-11.628,0-15.912c-0.612-21.42-1.224-42.229,0-63.648
			c0.612-12.24,1.224-24.479,1.836-36.72C291.924,559.404,295.596,534.312,284.58,540.432L284.58,540.432z"/>
		<path fill="#232323" d="M290.088,547.164c0,3.672-1.224,6.731-1.836,10.404c-0.612,4.896-0.612,9.792-0.612,14.688
			c0,10.404,1.224,20.809,1.836,31.212c1.224,20.196,5.508,40.393,7.344,60.588c0.612,3.673,1.224,22.032,9.18,15.912
			c2.448-1.836,2.448-7.344,2.448-10.403c0.611-5.509,0.611-11.017,0.611-16.524c-0.611-20.196-3.06-40.392-5.508-59.976
			c-1.224-11.017-2.448-22.032-3.06-33.049c0-4.283,1.224-12.239-1.224-15.911C296.208,540.432,290.088,542.268,290.088,547.164
			L290.088,547.164z M307.836,673.236L307.836,673.236L307.836,673.236z M307.836,673.848
			C307.836,674.46,307.836,674.46,307.836,673.848L307.836,673.848z"/>
		<path fill="#232323" d="M299.88,544.104c-8.568,1.837-2.448,18.36-1.836,23.868c1.224,7.956,3.672,15.912,6.12,24.48
			c2.448,8.567,4.284,17.136,6.732,25.704c0.611,3.672,3.06,17.748,9.791,12.239c3.673-3.672,0-15.3-0.611-19.584
			c-1.836-9.18-4.896-18.359-6.732-28.151c-1.836-8.568-3.06-17.136-4.896-25.704c-0.612-3.672-1.225-8.568-1.836-11.628
			C305.388,542.88,301.104,539.82,299.88,544.104L299.88,544.104z"/>
		<path fill="#232323" d="M276.624,565.524c-1.224,4.896,12.852,4.896,15.912,4.896s19.584,1.224,18.36-3.672
			c-1.225-3.672-12.853-1.836-15.3-1.836c-3.672,0-6.732,0-10.404-0.612C282.744,564.912,277.236,562.464,276.624,565.524
			L276.624,565.524z"/>
		<path fill="#232323" d="M298.044,583.884c-4.896,0-25.092-2.448-25.092,4.284c0,7.344,19.584,4.284,23.868,4.284
			c4.284,0,22.032,2.448,22.032-4.896C318.852,581.436,301.104,583.884,298.044,583.884L298.044,583.884z"/>
		<path fill="#232323" d="M321.3,602.856c-10.403,0-21.42,1.836-31.212,4.283c-3.06,0.612-5.508,1.836-8.568,1.836
			c-1.836,0-5.508-0.611-7.344,0c-4.896,2.448-0.612,6.12,2.448,6.732c4.896,0.612,9.792-0.612,14.688-1.836
			c5.508-1.224,11.628-1.836,17.136-3.061c5.508-0.611,11.016-1.224,15.912-3.06c1.836-0.612,4.896-1.836,3.06-4.284
			C326.196,602.244,323.136,602.856,321.3,602.856L321.3,602.856z"/>
		<path fill="#232323" d="M315.792,624.276c0,0-6.12,1.224-3.672,0.611c-0.612,0-0.612,0-1.224,0
			c-7.345,1.225-16.524,3.672-24.48,4.896c-4.284,0.612-9.792,0-13.464,1.224c-3.06,1.225-4.284,4.896-0.612,6.732
			c3.06,1.836,9.792,0,12.852-0.612c4.896-0.612,9.792-1.224,14.688-2.448c7.344-1.224,17.136-1.224,22.645-5.508
			C328.032,625.5,318.852,623.664,315.792,624.276L315.792,624.276z M322.524,629.172L322.524,629.172L322.524,629.172z
			 M285.192,630.396C284.58,630.396,284.58,630.396,285.192,630.396L285.192,630.396z M310.896,625.5
			C310.896,625.5,311.508,625.5,310.896,625.5L310.896,625.5z"/>
		<path fill="#232323" d="M301.104,649.98c-5.508,0.611-10.404,0.611-15.912,1.224c-4.284,0-9.18-0.612-13.464,0.612
			c-3.672,0.611-5.508,4.283-2.448,7.344c2.448,1.836,9.792,0.611,13.464,0.611c8.568,0,18.36,0.612,26.928-1.224
			c3.061-0.612,6.732-4.284,3.061-7.344C309.672,648.756,304.164,649.98,301.104,649.98L301.104,649.98z"/>
		<path fill="#232323" d="M304.164,542.268c-7.956,2.448,11.016,44.677,13.464,50.797c3.672,9.18,6.12,18.359,4.284,28.151
			c-1.836,10.404-6.12,20.196-9.792,30.601c-1.836,4.896-3.672,9.18-5.508,14.075c-0.612,1.837-1.836,4.896-3.061,6.732
			c-1.836,1.836-3.672,1.224-6.732,1.224c-4.896,0-10.404-0.611-14.688,0c-4.284,0.612-6.732,5.509-2.448,8.568
			c3.06,2.448,10.404,1.224,14.076,1.836c4.284,0,10.404,1.224,14.076-1.836c3.061-3.06,4.896-9.18,6.12-12.852
			c1.836-4.896,3.06-9.792,4.284-14.688c3.06-11.628,7.956-23.256,10.403-34.884c2.448-12.24-1.836-24.48-6.731-35.496
			c-1.836-4.284-4.896-14.076-6.732-20.809C312.732,558.792,309.672,541.044,304.164,542.268L304.164,542.268z M321.3,584.496
			C320.688,584.496,320.688,584.496,321.3,584.496L321.3,584.496z"/>
		<path fill="#232323" d="M274.176,526.968c0,3.061,0,6.12,0,9.792c0,1.836-0.612,6.12,0,7.956c0.612,1.225,1.224,0.612,1.836,1.225
			c3.06,1.224,3.06-0.612,3.06-3.061c0-3.672-1.224-3.672-3.06-5.508c-1.224-1.836,0.612-5.508,0-7.956
			C276.624,527.58,274.176,523.908,274.176,526.968L274.176,526.968z M274.176,543.492
			C274.176,544.104,274.176,543.492,274.176,543.492L274.176,543.492z"/>
		<path fill="#232323" d="M265.608,506.16c-5.508,3.06,6.12,6.731,7.344,7.344c4.896,1.836,9.792,3.672,14.688,4.896
			c3.672,1.224,23.868,10.403,26.316,6.119c3.672-5.508-17.136-9.18-20.196-10.403c-4.896-1.225-9.792-2.448-14.076-4.284
			C276.624,509.832,268.056,504.936,265.608,506.16L265.608,506.16z"/>
		<path fill="#232323" d="M300.492,493.308c-1.224,4.284,19.584,10.404,20.808,5.509
			C322.524,493.92,301.716,488.412,300.492,493.308L300.492,493.308z"/>
		<path fill="#232323" d="M273.564,534.924c0,2.448,1.836,3.061,3.672,3.672c0.612,0,6.12,0.612,4.896,0.612
			c0.612,0,0.612,0,1.224,0c4.284,0.612,11.628,1.836,17.136,1.836c1.836,0,6.12,0.612,7.956-1.224
			c1.836-2.448-0.612-4.284-2.448-4.896c-5.508-2.448-12.852-1.836-18.36-2.448C283.968,531.864,273.564,528.804,273.564,534.924
			L273.564,534.924z M282.744,539.208C282.744,539.208,282.744,538.596,282.744,539.208L282.744,539.208z"/>
		<path fill="#232323" d="M313.956,618.768c0.612,6.732,0,14.076,0,21.42c0,2.448-0.612,7.345,1.836,8.568
			c3.06,1.836,4.284-1.836,4.284-3.672c0.611-4.896-1.225-11.628-1.225-16.523c0-2.448-0.611-4.896-1.224-7.345
			c0-0.611,0-3.06-0.612-3.672C315.792,616.32,313.956,616.932,313.956,618.768L313.956,618.768z"/>
		<path fill="#232323" d="M280.296,545.94c-5.508,1.836-3.672,18.359,2.448,15.3C287.028,558.792,287.64,543.492,280.296,545.94
			L280.296,545.94z"/>
		<path fill="#232323" d="M274.176,538.596c-5.508,1.836,4.896,8.568,7.344,7.345C287.028,543.492,276.624,537.984,274.176,538.596
			L274.176,538.596z"/>
		<path fill="#232323" d="M323.136,492.696c-1.224,4.284-6.731,9.792-4.284,14.076c1.225,1.836,3.061,3.06,5.509,2.447
			c1.224,0,1.836-0.611,3.06-1.224c0.612-0.612,2.448-4.284,1.224-1.224c1.837-4.284,3.673-7.345,2.448-11.628
			c-0.611-1.837,0-4.284-3.06-4.896C326.196,489.024,323.748,490.248,323.136,492.696L323.136,492.696z M328.644,505.548
			C328.644,505.548,328.644,504.936,328.644,505.548L328.644,505.548z"/>
		<path fill="#232323" d="M328.032,489.024c-3.061,1.224-4.284,3.672-3.672,6.731c0.611,1.836,3.06,4.896,2.447,6.732
			c-0.611,2.447-6.731,2.447-4.283,6.731c1.836,2.448,4.283,1.225,6.119,0.612c3.673-1.224,9.181-3.061,8.568-7.956
			c0-0.612-0.612-1.224-1.836-1.836c0-0.612,0-1.224,0.612-1.836c-0.612-1.836-0.612-3.061-1.225-4.284
			C334.152,490.86,331.704,488.412,328.032,489.024L328.032,489.024z"/>
		<path fill="#FFFFFF" d="M285.192,154.872c-2.448,0.612-4.896,0.612-7.344,1.224c-3.06,0.612-3.06,1.836-5.508,3.06
			c-3.672,1.224-8.568-1.224-12.852-0.612c-9.18,1.224-20.196,6.12-28.764,11.016c-9.792,5.508-17.748,13.464-25.704,20.808
			c-8.568,8.568-15.912,17.136-21.42,28.152c-8.568,17.136-15.912,44.064-2.448,59.976c1.224,1.836,3.06,3.06,4.896,4.284
			c1.224,1.224,3.06,2.448,4.284,3.06c2.448,1.224,2.448,0,5.508,0c1.836,0,7.344,0.612,6.732,3.672
			c0,4.284-4.896,0.612-6.732,1.224c-7.344,1.836-4.896,20.196-4.896,25.704c0,9.792,1.836,22.032,10.404,28.764
			c-0.612-5.508-1.224-9.792-3.06-15.3c-2.448-7.344-1.224-15.3,0-22.644c0-1.836,0-12.24,4.284-8.568
			c2.448,1.836,0.612,11.628,0.612,14.688c-0.612,6.732,0,13.464,0.612,20.196c0.612,10.404,2.448,20.196,4.896,29.988
			c3.06,13.464,8.568,30.6,18.36,41.004c9.792,10.403,21.42,20.195,34.884,26.315s31.212,3.061,43.452-3.672
			c7.345-4.284,14.076-7.956,18.973-15.3c3.672-5.508,6.731-11.016,9.18-17.136c6.731-12.852,11.628-26.316,14.688-40.392
			c1.836-7.956,3.673-14.688,3.061-23.256c-0.612-5.508-1.225-24.48,5.508-26.316c7.956-1.836,1.836,16.524,1.224,19.584
			c-0.611,4.284-1.224,7.956-2.447,12.24c-0.612,3.672-0.612,7.956-1.836,12.24c4.896-1.836,8.567-9.792,9.792-12.852
			c5.508-13.464,7.344-33.048,2.447-47.736c-3.06,3.672-3.672,9.18-7.344,12.24c-4.896,4.284-7.956-0.612-8.568-5.508
			c-1.224-9.18-0.611-18.972-1.224-28.764c-1.836-18.972-1.224-41.616-14.076-57.528c-6.12-7.956-11.628-5.508-19.584-2.448
			c-3.672,1.224-7.344,3.06-11.016,3.672c-2.448,0.612-2.448,0-4.284,0c-2.448,0,0-0.612-0.612-1.224
			c-1.224-0.612-2.448,0.612-3.672,0c-4.284-1.836-4.896-7.956-9.792-9.18c-4.896-0.612-10.404,2.448-14.076,4.284
			c-9.18,4.896-15.912,12.852-19.584,22.644c-3.06,8.568-4.284,17.748-4.896,26.928c-1.224,12.24-7.956,21.42-18.36,26.928
			c5.508-0.612,11.016-1.836,16.524-0.612c3.06,0.612,7.956,2.448,10.404,4.284c2.448,2.448,1.836,7.344-2.448,7.344
			c-2.448,0-4.284-2.448-6.732-3.06c-3.672-1.836-7.344-3.06-11.628-3.672c-7.344-0.612-14.688,2.448-22.032,1.836
			c-1.836,0-2.448-1.224-3.672-1.224c-1.224,0.612-3.06,0.612-4.896,0c-1.836-0.612-5.508-1.836-4.284-4.896
			c1.836-2.448,8.568,0.612,11.628,0c4.284-0.612,8.568-1.836,12.852-4.284c7.956-4.284,14.688-11.016,15.912-20.196
			c1.224-7.344,0-15.3,0.612-23.256c1.224-22.032,15.912-45.288,40.392-44.064c-10.404-7.344-26.316,1.836-32.436,10.404
			c0,0,0,0,0-0.612c-10.404,14.688-10.404,31.824-15.912,48.348c-4.896,14.076-17.136,26.928-31.824,29.376
			c-6.12,1.224-15.3,0.612-18.972-4.896c-1.224-1.836-2.448-4.284,0-6.12c3.06-1.836,4.284,1.224,6.12,2.448
			c13.464,6.732,29.988-9.792,34.272-21.42c4.896-14.076,3.06-29.376,9.18-43.452c5.508-12.24,15.3-23.256,28.764-27.54
			c14.076-4.284,27.54,0.612,37.332,11.628c2.448,3.06,3.06,5.508,4.284,9.18c0.612,2.448,0.612,4.896,3.06,5.508
			c2.448,0,7.344-2.448,9.792-3.672c4.284-1.836,8.568-3.672,12.853-4.896c18.972-3.672,29.376,15.3,31.823,31.824
			c1.225,5.508,1.837,53.856,2.448,53.856c3.061-4.284,7.345-5.508,11.017-1.836c3.06-9.18,4.283-20.196,5.508-29.988
			c0.612-8.568,1.836-16.524-0.612-25.092c-5.508-21.42-16.523-39.168-33.66-53.244c0,0,0,0,0.612,0.612
			c-7.956-6.12-15.912-7.956-25.704-10.404c-5.508-1.836-11.016-3.672-16.524-4.896C296.208,153.648,290.7,154.26,285.192,154.872
			L285.192,154.872z M318.24,279.72c-3.061,0,2.447-4.284,2.447-4.284c1.837-1.836,3.673-4.284,6.12-6.12
			c2.448-2.448,4.896-5.508,7.345-7.956c1.224-1.224,3.06-4.284,4.896-4.896c3.672-1.224-2.448,5.508-3.06,6.12
			c-2.448,3.06-5.508,5.508-7.956,8.568C324.972,273.6,321.912,277.884,318.24,279.72L318.24,279.72z M301.104,284.004
			c1.836,0,4.896-1.836,6.732-2.448c3.672-1.224,7.344-1.836,11.016-1.836c3.673,0,7.956,0,11.629,1.224
			c3.672,1.224,11.016,1.836,13.464,5.508c3.672,6.12-9.181,3.06-11.017,3.06c-5.508-1.224-11.016-2.448-17.136-1.836
			c-3.06,0-7.956,0.612-11.016,2.448c-1.224,0.612-2.448,1.836-4.284,3.06c-3.672,1.836-9.18,0-7.344-4.896
			C294.372,285.84,298.044,284.004,301.104,284.004L301.104,284.004z M301.104,305.424c-1.224-2.448,1.224-4.284,3.06-5.508
			c2.448-1.836,4.284-2.448,6.732-4.284c1.836-1.836,3.06-3.06,5.508-2.448c3.06,0.612,3.06,2.448,4.896,3.672
			c2.448,1.836,7.344,1.836,9.181,4.896c4.283,6.732-6.732,1.224-7.956,0.612c-1.225,7.956-11.628,11.016-12.853,1.224
			C306.612,305.424,302.94,309.096,301.104,305.424L301.104,305.424z M222.768,306.648c-1.224-2.448,3.672-4.284,4.896-4.896
			c2.448-1.224,4.896-1.224,6.732-3.06c1.836-1.224,1.836-3.06,4.284-3.672c2.448-0.612,4.284,0.612,6.12,3.06
			c1.224,1.836,1.224,2.448,2.448,3.672c1.836,1.224,6.732,3.06,7.344,4.896c0.612,4.896-6.732-0.612-8.568-1.224
			c-1.836,4.896-6.732,9.18-10.404,3.672c-2.448-3.672,0-6.12-5.508-4.284C228.276,305.424,223.992,309.096,222.768,306.648
			L222.768,306.648z M258.264,359.28c-4.284-1.224,4.284-28.152,5.508-31.824c1.224-6.12,1.224-12.24,1.224-18.36
			c0-2.448-1.224-6.732,1.836-7.956c6.732-1.224,3.06,25.704,2.448,29.376C268.056,335.412,263.16,360.504,258.264,359.28
			L258.264,359.28z M272.952,320.724c-0.612-1.224,18.972-17.748,20.196-16.524C294.984,305.424,274.788,323.172,272.952,320.724
			L272.952,320.724z M302.94,364.176c-1.224-1.224,17.136-18.36,19.584-21.42c3.672-3.672,6.731-7.344,10.403-11.016
			c1.836-2.448,4.284-4.284,6.12-6.732c0.612-0.612,4.284-6.12,4.896-3.06c0.611,2.448-7.345,8.568-8.568,9.792
			c-3.672,4.284-7.956,7.956-11.628,12.24C321.912,346.428,304.776,366.012,302.94,364.176L302.94,364.176z M220.932,373.968
			c-2.448-0.612,3.672-5.508,4.284-5.508c4.284-3.672,7.956-7.956,11.628-11.628c6.12-6.12,12.24-12.24,18.972-18.36
			c-2.448,7.344-7.956,11.628-13.464,17.136c-3.672,3.672-6.732,7.344-10.404,10.404
			C228.888,367.848,223.992,373.356,220.932,373.968L220.932,373.968z M266.22,369.072c-4.284,0-3.06-4.896,0-6.12
			c3.672-1.224,8.568-0.612,11.628-0.612c4.284-0.612,11.016-1.836,14.688-0.612s3.672,4.284,0,5.508
			c-3.06,1.224-7.956,0.612-11.016,0.612C277.236,368.46,271.728,369.072,266.22,369.072L266.22,369.072z M278.46,383.148
			c-0.612-4.284-1.836-10.404,3.672-11.016c1.836,0,3.672,1.224,4.896,1.224c1.836,0.612,4.284,0.612,5.508,1.224
			c1.836,0.612,2.448,1.224,3.672,1.836c1.836,0.612,4.284,0,6.12,0.612c3.672,0.612,7.344,1.836,11.016,2.448
			c6.732,1.224,6.12,6.732-0.611,6.12c-3.673,0-6.732-1.836-10.404-1.836c-1.836,0-4.284,1.224-6.12,0.612
			c-2.448-0.612-3.672-2.448-6.12-1.836C288.864,383.76,279.072,387.432,278.46,383.148L278.46,383.148z M272.34,374.58
			c2.448-1.224,5.508-0.612,4.896,2.448c0,2.448-3.672,4.896-5.508,6.12c-1.836,1.836-3.06,1.224-4.896,1.224
			c-0.612,0-1.836-0.612-2.448-0.612c-1.836,0-3.672,3.672-4.896,0.612c-2.448,3.06-5.508,0.612-8.568,2.448
			c-1.836,0.612-3.672,3.672-6.12,2.448c-2.448-1.224-1.836-3.06-0.612-4.284s4.284-1.836,6.12-3.06
			c1.224-0.612,1.836-1.224,3.672-1.836c1.836-0.612,2.448,0,4.284,0c0.612-0.612,1.836-2.448,2.448-3.06
			c1.224-0.612,1.836,1.224,3.06,0.612c1.224-0.612,1.836-1.836,3.672-2.448C268.668,375.192,271.116,375.192,272.34,374.58
			L272.34,374.58z M279.684,390.492c4.284-1.836,9.18-3.06,14.076-3.672c1.836,0,6.12-0.612,7.956,0
			c6.12,4.284-11.016,4.284-12.852,4.284h0.612c-6.732,1.224-11.628,5.508-18.972,3.06c-3.672-1.224-6.732-3.06-11.016-2.448
			c-1.836,0-9.792,1.224-4.896-3.06c1.224-1.224,7.956-1.224,10.404-0.612c2.448,0.612,4.896,1.836,6.732,2.448
			C275.4,392.328,277.236,391.716,279.684,390.492L279.684,390.492z M277.848,399.06c3.672,0,7.344-0.611,11.016-1.224
			c1.224-0.612,4.896-2.448,6.12-1.836c3.06,1.836-4.284,5.508-5.508,6.12c-3.06,1.224-6.732,1.836-9.792,1.836
			s-18.972-0.612-18.972-6.12c0.612-3.672,5.508,0,7.344,0.612C271.116,399.06,274.788,399.06,277.848,399.06L277.848,399.06z
			 M252.144,416.196c-1.836-1.225,3.06-7.956,3.672-9.181c0.612-1.224,3.06-7.344,4.284-3.672c0,1.225-2.448,4.896-3.06,6.12
			C257.04,410.076,253.98,416.808,252.144,416.196L252.144,416.196z M196.452,290.736L196.452,290.736L196.452,290.736z
			 M196.452,290.736L196.452,290.736L196.452,290.736z M196.452,290.736L196.452,290.736L196.452,290.736z"/>
		<path fill="#C2C2C2" d="M264.996,114.48c0.612,0,0.612,0,1.224,0C168.3,127.944,80.172,194.04,42.84,285.84
			c-9.792,23.256-16.524,48.348-19.584,73.44v-0.612c-6.732,50.796,0.612,102.816,20.196,150.552v-0.611
			c3.06,7.344,6.12,14.075,9.792,21.42c7.344-11.017,15.3-18.973,27.54-24.48c6.732-3.06,14.076-6.12,20.808-9.18
			c11.628-4.896,23.868-10.404,34.884-17.136c7.956-4.896,14.688-10.404,22.032-15.301c1.224-1.224,3.06-1.836,4.284-3.06
			c0.612,0,1.836,0,1.836,0c2.448-2.448,1.836-7.956,4.896-10.404c3.06-3.06,7.956-5.508,11.628-7.956
			c3.672-2.447,7.344-5.508,11.628-7.956c5.508-3.672,14.076-6.731,17.748-11.628c1.836-1.836,2.448-5.508,3.672-7.956
			c1.224-1.836,2.448-3.06,2.448-4.896c0.612-2.448,0.612-7.344,0.612-10.404c-0.612-3.06-2.448-5.508-3.672-8.568
			c-3.672-8.568-6.12-17.136-9.18-26.316c-0.612-1.836-0.612-3.06-1.224-4.896c-0.612-2.448-0.612-8.568-2.448-10.404
			c0.612,0.612-4.284-1.836-3.672-1.224c-1.224-0.612-2.448-1.836-3.06-3.06c-0.612-1.224-1.836-2.448-2.448-3.672
			c-4.896-7.344-6.12-15.3-6.732-23.868c0-8.568-1.224-19.584,3.06-26.928c-9.792-3.672-15.912-11.016-20.808-20.196
			c-5.508-10.404-3.672-22.644-1.224-33.66c5.508-23.256,15.912-41.616,32.436-58.14c7.344-7.344,15.3-14.688,25.092-19.584
			c7.956-4.284,16.524-6.732,25.092-9.18c4.284-1.224,8.568-1.836,12.24-1.836c3.06,0,6.12,1.224,9.18,1.224
			c4.284,0,8.568-3.06,13.464-3.672c6.12-1.224,12.852-0.612,18.972,0c25.092,2.448,45.899,15.3,64.26,32.436
			c7.344,7.344,12.24,14.688,15.912,24.48c3.672,10.404,6.12,22.032,7.344,33.66c0.612,12.24-1.836,23.868-4.896,34.884
			c-1.225,4.284-2.448,7.956-4.284,11.628c-1.225,3.06-2.448,5.508-3.672,7.956c0,0.612-1.225,1.836-1.836,2.448
			c-0.612,1.224,0,4.284,0,6.12c0,17.748-3.061,47.736-20.809,57.528c-2.447,1.224-3.06,1.224-3.672,4.896
			c0,1.836-0.611,3.672-0.611,5.508c0,3.06-0.612,6.732-0.612,10.404c0,3.672-0.612,6.732-0.612,10.404c0,1.224,0,3.06,0,4.284
			c0.612,2.448,0.612,1.224,1.836,2.448c2.448,2.448,5.508,7.957,8.568,9.792c0.612,0,0.612,0.611,0.612,1.224
			c1.224,0.612,1.836-0.612,3.06,0c3.06,0.612,6.732,4.896,9.18,7.344c3.672,3.061,7.956,6.12,12.24,9.181
			c7.956,5.508,15.3,11.016,23.256,17.136c2.448-9.792,12.24-2.448,18.36,0c6.731,2.448,13.464,5.508,19.584,7.956
			c15.3,6.731,31.824,8.567,46.512,17.748c14.688,9.18,29.988,20.195,40.392,34.884c8.568,12.24,12.24,28.764,15.912,43.452
			c56.916-94.86,51.408-217.872-11.628-308.448c-16.523-23.868-37.332-45.288-59.976-63.036c0.612,0.612,1.224,1.224,1.836,1.224
			C417.996,124.884,340.884,104.688,264.996,114.48L264.996,114.48z"/>
	</g>
</g>
</svg>
