<?xml version="1.0" encoding="utf-8"?>
<!-- Generator: Adobe Illustrator 16.0.0, SVG Export Plug-In . SVG Version: 6.00 Build 0)  -->
<!DOCTYPE svg PUBLIC "-//W3C//DTD SVG 1.1//EN" "http://www.w3.org/Graphics/SVG/1.1/DTD/svg11.dtd">
<svg version="1.1" id="Layer_1" xmlns="http://www.w3.org/2000/svg" xmlns:xlink="http://www.w3.org/1999/xlink" x="0px" y="0px"
	 width="589.748px" height="588.851px" viewBox="10.108 105.07 589.748 588.851"
	 enable-background="new 10.108 105.07 589.748 588.851" xml:space="preserve">
<g id="Background">
</g>
<g id="Image_Layer">
</g>
<g id="Draw_Layer">
</g>
<g id="Draw_Layer_1_">
	<g>
		<path fill="#232323" d="M292.536,309.096C292.536,309.096,293.148,309.096,292.536,309.096L292.536,309.096z"/>
		<path fill="#232323" d="M324.972,310.32c0,0.612,1.836-0.612,2.448-1.224C326.808,309.708,326.196,310.32,324.972,310.32
			L324.972,310.32z"/>
		<path fill="#232323" d="M266.22,162.828c-19.584,3.672-40.392,17.136-55.08,29.988c-14.076,12.24-23.868,28.764-28.764,47.124
			c-3.06,10.404-4.284,22.032-1.836,33.048c1.224,6.732,4.284,14.076,7.956,20.196c2.448,3.672,4.896,7.344,8.568,10.404
			c1.224,1.224,9.792,6.12,9.18,1.224c-3.672,0-6.12-4.896-7.956-7.344c-3.672-4.284-6.732-9.18-8.568-14.688
			c-4.284-11.016-5.508-22.032-3.672-33.66c3.672-23.256,15.912-44.064,34.272-58.14c9.18-7.956,25.704-17.748,39.168-22.644
			c3.672-1.224,7.344-2.448,11.016-2.448c2.448,0,7.956,1.224,9.792,0c3.06-1.224,1.224-2.448-1.224-3.06
			C274.788,161.604,269.892,162.216,266.22,162.828L266.22,162.828z"/>
		<path fill="#232323" d="M312.732,156.708c-7.344,1.224-15.3,4.896-22.645,4.896c-1.836,0-10.404-1.224-11.628,0
			c-4.284,3.672,6.12,3.672,7.344,3.672c4.896,0,9.18-1.224,14.076-2.448c18.972-4.284,38.556-1.836,56.916,4.896
			c27.54,9.792,53.244,28.152,64.872,56.916c3.672,8.568,4.896,18.36,6.12,27.54c0.612,4.896,1.224,9.18,1.836,14.076
			c0,4.284,1.224,9.18,0.612,13.464c0,3.06-7.345,18.36-3.061,20.196c5.508,2.448,9.792-17.136,10.404-20.196
			c4.896-29.988-6.12-61.2-25.704-83.232c-11.628-12.852-25.704-22.032-41.616-28.764
			C352.512,159.768,332.316,154.26,312.732,156.708L312.732,156.708z"/>
		<path fill="#232323" d="M290.088,161.604L290.088,161.604L290.088,161.604z"/>
		<path fill="#232323" d="M290.088,161.604L290.088,161.604L290.088,161.604z"/>
		<path fill="#232323" d="M367.2,171.396L367.2,171.396L367.2,171.396z"/>
		<path fill="#232323" d="M427.176,291.96c-0.611,0.612-0.611,1.836-1.224,2.448C427.176,293.796,427.176,291.348,427.176,291.96
			L427.176,291.96z"/>
		<path fill="#232323" d="M419.22,308.484c-5.508,1.224-0.611,11.628,0,15.3c0.612,7.344-0.611,14.076-3.672,20.808
			c-4.896,9.18-16.523,26.316-26.928,26.316c-1.836,0-11.628-1.224-7.344,2.448c2.447,2.448,11.016,0.612,13.464,0
			c8.567-3.06,15.912-12.24,21.42-19.584c5.508-7.344,9.18-15.3,9.792-24.48C425.952,325.62,426.564,306.648,419.22,308.484
			L419.22,308.484z M418.608,332.964L418.608,332.964L418.608,332.964z M416.16,341.532L416.16,341.532L416.16,341.532z"/>
		<path fill="#232323" d="M380.052,376.416c-1.836,4.284-5.508,6.732-7.956,9.792c-1.836,3.06-0.611,5.508,3.672,4.284
			c3.061-1.224,6.732-6.12,7.956-9.18c0.612-1.224,1.836-3.06,1.225-4.284C383.724,374.58,381.276,374.58,380.052,376.416
			L380.052,376.416z M376.992,381.924L376.992,381.924L376.992,381.924z"/>
		<path fill="#232323" d="M271.728,296.856c-2.448,6.732-4.284,13.464-4.284,20.196c0,2.448,3.06,20.196,6.732,12.24
			c1.224-2.448-1.224-7.344-1.224-9.792c0-3.06,0-6.732,0.612-9.792c0.612-3.672,2.448-7.344,2.448-11.016
			C275.4,296.856,272.952,292.572,271.728,296.856L271.728,296.856z"/>
		<path fill="#232323" d="M241.74,343.98C241.128,345.204,241.74,343.368,241.74,343.98L241.74,343.98z"/>
		<path fill="#232323" d="M291.924,346.428C292.536,347.04,292.536,346.428,291.924,346.428
			C291.924,345.816,291.924,345.816,291.924,346.428L291.924,346.428z"/>
		<path fill="#232323" d="M219.708,291.348c0-0.612,0.612-0.612,0.612-1.224C220.32,290.736,220.32,291.348,219.708,291.348
			L219.708,291.348z"/>
		<path fill="#232323" d="M249.084,391.716c-1.836,5.508,30.6,8.568,33.66,1.836c1.836-4.896-11.628-1.224-14.688-1.224
			c-3.672,0-7.344,0-11.016-0.612C255.204,391.104,250.308,388.656,249.084,391.716L249.084,391.716z M271.728,391.716
			C271.116,391.716,271.116,391.716,271.728,391.716L271.728,391.716z"/>
		<path fill="#232323" d="M256.428,371.52c-4.284,0.612-7.344,3.06-11.016,4.896c-1.836,0.612-7.956,1.224-5.508,4.284
			c-2.448-0.612-11.628-5.508-10.404,0c1.224,4.284,15.3,6.732,18.972,6.732c7.344,0,14.076-3.06,22.032-1.224
			c7.344,1.836,12.852,3.06,20.196,1.224c2.448-0.612,7.344-1.224,8.568-3.06c1.836-1.836,0.612-3.06-1.836-3.672
			c-2.448-0.612-3.06,0.612-5.508,0c-4.284-1.224-7.956-2.448-12.24-3.672c-4.284-1.224-8.568-3.06-12.852-3.06
			c-1.224,0-3.672,1.224-4.896,0.612C260.712,373.968,259.488,370.908,256.428,371.52L256.428,371.52z M248.472,381.312
			c-1.836,0-4.284,0-6.12-0.612c5.508,0,9.792-4.896,14.688-4.896c2.448,0,4.896,1.224,7.956,1.224
			c7.344,0,14.688,4.284,22.032,6.732c-5.508,0.612-10.404-0.612-15.3-1.836C263.772,379.476,256.428,381.312,248.472,381.312
			L248.472,381.312z"/>
		<path fill="#232323" d="M301.104,378.252c-3.672,1.836-8.568,2.448-11.628,4.896c-2.448,1.836-2.448,4.284,0.612,4.896
			c2.448,0.612,8.568-2.448,11.016-3.06c4.284-1.836,3.06-3.672,3.06-7.956C302.94,377.028,302.328,377.64,301.104,378.252
			L301.104,378.252z"/>
		<path fill="#232323" d="M228.888,377.028c0.612,1.836,0.612,4.284,3.06,4.896c1.224,0,3.06,0,2.448-1.836
			C234.396,377.64,228.888,375.804,228.888,377.028L228.888,377.028z"/>
		<path fill="#232323" d="M304.164,378.864c-0.612,0.612-0.612,1.224,0,2.448C304.776,378.864,304.776,378.252,304.164,378.864
			L304.164,378.864z"/>
		<path fill="#232323" d="M378.216,304.2c1.836,6.732,2.448,13.464,2.448,20.196c1.224-3.672,4.284-6.732,4.284-11.016
			c0-1.836-0.612-4.284-1.225-6.12C383.112,302.976,383.112,303.588,378.216,304.2L378.216,304.2z"/>
		<path fill="#232323" d="M416.771,305.424c-0.611,2.448-0.611,4.284-1.224,6.732c3.061-1.224,7.344-6.732,1.224-7.344V305.424
			L416.771,305.424z"/>
		<path fill="#232323" d="M383.724,335.412c0.612,0,0.612,0,1.225,0C384.336,335.412,384.336,335.412,383.724,335.412
			L383.724,335.412z"/>
		<path fill="#232323" d="M380.052,311.544C380.052,310.932,380.052,310.932,380.052,311.544L380.052,311.544z"/>
		<path fill="#232323" d="M429.624,285.228c-1.224,3.06-2.448,6.732-4.284,9.792c-1.836,2.448-3.672,3.672-5.508,6.12
			c-1.836,2.448-4.284,5.508-2.448,8.568c1.225,3.06,4.284,3.06,6.732,1.836c4.284-2.448,7.344-11.016,9.18-15.3
			C435.132,292.572,436.968,282.78,429.624,285.228L429.624,285.228z"/>
		<path fill="#232323" d="M271.116,107.136c-122.4,14.076-227.052,106.488-253.98,227.052
			C-9.792,454.14,42.228,581.436,146.268,646.92c53.244,33.048,114.444,50.184,176.868,46.512
			c61.812-3.672,121.176-26.928,168.912-66.096c45.9-37.332,80.172-88.128,96.696-145.044c3.672-13.464,7.956-28.152,8.568-42.229
			c0.611-14.688,1.836-29.376,2.447-44.063c0.612-14.688-1.836-29.988-4.283-44.064c-1.837-14.076-4.896-27.54-9.181-41.004
			C548.964,194.04,441.252,111.42,318.24,105.3C302.328,104.688,287.028,105.3,271.116,107.136L271.116,107.136z M47.124,510.444
			c-31.212-72.828-29.376-159.12,5.508-230.725c34.272-70.38,97.308-125.46,173.196-147.492
			c78.336-23.256,164.016-9.792,232.56,35.496c59.977,39.78,107.712,106.488,119.341,178.704c0.611,4.896,2.447,9.792,3.06,14.688
			c1.224,8.568,1.224,17.748,1.224,26.316c0,15.912,1.225,33.048-1.224,48.959c-6.732,42.841-20.808,83.232-44.676,119.341l0,0
			c-3.672-6.732-9.792-11.017-17.748-12.24c3.06-8.568,4.896-22.032,3.672-31.212c-1.836-12.24-13.464-22.032-22.645-29.988
			c-13.464-12.24-25.092-24.479-44.676-23.256c0-6.12-0.612-13.464-6.12-17.136c-3.672-2.448-7.956-2.448-11.628-2.448
			c3.061-14.688-7.956-36.108-23.868-36.108c-9.18,0-22.644,4.284-29.987,10.404c-0.612-1.224-1.225-2.448-1.836-3.672
			c14.075-1.225,28.151-9.18,34.884-21.42c4.896-8.568,6.12-18.36,7.344-28.152c0-1.836,2.448-10.404,0.612-12.24
			c-4.284-6.12-5.509,8.568-6.12,9.792c-2.448,15.3-6.12,27.54-17.748,38.556c-3.061,3.06-9.792,6.12-14.688,7.956
			c-1.224,0.611-3.672,1.836-4.896,1.836c-0.612,0-1.225-1.225-1.836-1.225c-1.225,0-2.448,0-3.672,0.612
			c-7.345,2.448-11.017,12.852-15.301,18.36c-7.344,9.18-16.523,17.748-26.928,24.479c-4.896,3.061-9.792,6.12-15.3,9.181
			c-4.284,2.447-13.464,5.508-12.852,11.016c-3.06-1.836-7.956-1.225-10.404-2.448c-2.448-1.224-6.12-4.896-8.568-6.731
			c-6.732-4.896-11.628-11.629-17.748-17.748c7.956,1.224,15.912,1.224,23.256,0c7.956,0,18.972-4.896,26.928-7.956
			c9.18-3.672,17.748-7.345,25.704-12.853s14.688-12.852,20.195-20.808c1.836-2.448,7.956-10.404,5.508-13.464
			c-3.06-3.06-7.955,4.896-9.792,6.732c-6.119,7.345-12.852,15.3-20.808,20.809c-8.568,6.12-17.748,10.403-27.54,14.075
			c-17.748,6.732-34.272,9.181-52.632,3.673c-10.404-3.061-16.524-9.181-22.644-18.36c-3.672-5.508-6.732-11.016-9.792-16.524
			c-1.224-2.448-2.448-4.896-3.672-7.344c-0.612-1.224-1.224-2.448-1.836-3.672c0-0.612-1.836-4.284-1.224-2.448
			c-12.24-29.376-11.016-64.26-5.508-95.472c0.612-4.284,2.448-9.18,6.732-11.628c4.896-3.06,9.18-7.344,13.464-11.016
			c5.508-4.896,10.404-10.404,15.3-16.524c1.836-1.836,3.06-4.284,4.896-6.12c2.448-3.672,2.448-4.284,2.448-9.18
			c-6.732,11.628-15.912,20.808-24.48,30.6c-3.06,3.06-6.12,6.12-9.792,8.568c-1.224,1.224-3.672,1.836-4.896,3.06
			c-1.224,1.224-1.836,3.06-2.448,4.896c-0.612,1.224-2.448,3.06-3.06,4.896c-0.612,1.836-0.612,4.284-0.612,6.12
			c0,8.568-2.448,15.912-3.672,24.48c-2.448,17.136-1.836,34.884,1.836,52.02c3.672,15.912,11.628,30.6,19.584,44.676l0,0
			c-7.956-2.448-15.912,1.225-20.196,7.956c-2.448,3.061-3.672,6.732-4.896,10.404c-0.612,2.448-0.612,3.06-2.448,3.672
			c-1.224,0.612-3.06,0-3.672,0c-12.852,1.224-32.436,6.12-37.332,18.972c-2.448,6.12-2.448,12.853-9.792,14.688
			c-9.18,1.836-17.136,4.284-25.092,9.18c-15.3,9.18-21.42,25.092-28.152,41.004c-7.344,17.137-9.792,36.108-12.852,54.468l0,0
			C69.156,553.896,56.916,532.476,47.124,510.444L47.124,510.444z M134.028,172.008C133.416,172.62,133.416,172.62,134.028,172.008
			L134.028,172.008z M217.26,277.884L217.26,277.884L217.26,277.884z M375.768,410.688L375.768,410.688L375.768,410.688z
			 M337.212,525.132c-2.448-6.731-5.508-13.464-8.568-19.584c-1.224-2.448-2.447-4.896-3.672-7.956
			c-1.224-3.06-1.836-7.344-3.672-10.404c-1.224-1.224-1.836-1.224-3.06-1.836c-1.225-1.224-1.836-3.06-3.061-4.283
			c-1.836-2.448-3.672-4.896-5.508-7.956c-3.06-4.896-3.672-6.12,1.225-8.568c11.628-7.344,23.256-13.464,33.659-22.032
			c6.12-4.896,12.853-10.403,17.748-15.912c4.284-4.896,7.956-12.852,14.076-15.912c-1.836,3.061,1.836,10.404,2.448,14.076
			c0.612,4.896,1.224,9.792,0.612,14.688c-0.612,11.016-4.284,21.42-9.792,30.6c-4.896,8.568-11.017,17.136-15.912,26.316
			c-5.509,10.403-10.404,21.42-16.524,31.824C337.824,526.356,337.212,525.744,337.212,525.132L337.212,525.132z M397.8,412.524
			C397.188,413.136,397.188,413.136,397.8,412.524L397.8,412.524z M241.128,514.116c-1.224-14.076-2.448-28.152-4.284-42.229
			c-0.612-5.508-2.448-13.464-1.836-18.972c1.224-6.732,5.508-13.464,7.956-19.584c3.06,3.06,6.732,4.284,11.016,6.12
			c1.224,0.612,5.508,1.224,6.12,1.836c0,1.836,0.612,3.06,1.836,4.284c0.612,1.224,1.224,1.836,2.448,3.06
			c5.508,7.344,11.628,14.076,19.584,19.584c-9.792,5.508-16.524,13.464-23.256,21.42c-4.284,4.896-8.568,9.792-12.24,14.688
			C246.636,506.16,241.128,512.892,241.128,514.116L241.128,514.116z M441.864,446.184L441.864,446.184L441.864,446.184z
			 M335.988,446.184C335.376,446.184,335.376,446.184,335.988,446.184L335.988,446.184z M452.88,460.26L452.88,460.26L452.88,460.26
			z M307.224,466.992L307.224,466.992L307.224,466.992z M307.224,466.992L307.224,466.992L307.224,466.992z M300.492,517.176
			c-11.628-1.836-22.032-14.076-23.256-26.315c-0.612-6.12,4.284-9.792,8.568-13.464c2.448-1.837,4.896-4.284,7.344-5.509
			c2.448-1.224-1.224-0.611,2.448-0.611c3.06,0,7.956,1.836,10.404,4.283c2.448,2.448,6.732,9.792,7.344,12.853
			c1.225,4.896,1.225,12.24,0.612,17.136c-0.612,3.061-0.612,8.568-3.672,10.404C307.836,518.4,303.552,517.788,300.492,517.176
			L300.492,517.176z M230.112,477.396C230.112,476.784,230.724,477.396,230.112,477.396L230.112,477.396z M250.308,507.996
			c5.508-7.344,12.24-13.464,18.972-20.196c-1.224,7.956,3.06,15.912,7.344,22.645c0.612,1.224,3.06,3.06,3.06,4.896
			c0,1.225-0.612,1.225-0.612,3.061c-0.612,3.06-0.612,6.731-0.612,9.792c-1.836,17.748-9.792,35.495-13.464,52.632
			c-2.448-13.464-10.404-25.092-14.076-38.557c-1.836-7.344-2.448-14.688-4.896-21.42c-1.224-3.672-1.224-4.283,0.612-7.344
			C247.86,511.668,249.696,509.22,250.308,507.996L250.308,507.996z M321.912,519.624c0-3.06-1.225-2.448,0.612-6.12
			c0.611-1.836,1.224-3.672,1.836-5.508c2.447,5.508,5.508,11.016,7.344,16.523c1.224,2.448,2.448,10.404,6.731,9.181
			c-4.896,11.016-7.344,24.479-9.792,36.72C326.196,553.896,322.524,536.76,321.912,519.624L321.912,519.624z M297.432,525.132
			c4.284-0.612,8.568-1.224,12.852-2.448c0,0,3.06-1.224,3.672-0.611c1.836,1.224,1.224,18.359,1.836,20.808
			c1.836,15.912,4.284,31.212,6.732,46.512c1.224,7.345-1.225,14.688-2.448,22.032c-1.225,6.732-2.448,14.076-3.672,20.809
			c-3.061,14.688-7.956,34.271-20.196,43.451c-1.224-14.688-9.792-29.376-15.3-43.451c-3.672-9.181-8.568-20.196-9.792-29.988
			c-0.612-4.284,0.612-7.956,2.448-12.853c6.12-15.911,10.404-32.436,13.464-48.96c0.612-1.836,3.672-17.748,3.672-17.748
			C293.148,523.296,295.596,525.744,297.432,525.132L297.432,525.132z M344.556,524.52l0.612-0.611
			C344.556,525.132,343.944,525.132,344.556,524.52L344.556,524.52z M474.912,621.828C474.3,622.44,474.3,622.44,474.912,621.828
			L474.912,621.828z M135.864,624.888C135.864,624.888,135.252,624.888,135.864,624.888L135.864,624.888z M135.864,624.888
			c-0.612-0.611,4.284,3.061,3.672,3.061C138.312,626.724,137.088,625.5,135.864,624.888L135.864,624.888z M194.004,658.548
			c3.672,1.224,9.18,3.672,13.464,4.896C203.184,662.22,198.288,660.996,194.004,658.548L194.004,658.548z M284.58,679.968
			C284.58,680.58,284.58,679.968,284.58,679.968L284.58,679.968z M307.836,680.58c1.836,0,3.672,0,5.508,0
			C311.508,680.58,309.06,680.58,307.836,680.58L307.836,680.58z"/>
		<path fill="#232323" d="M253.98,231.372c-2.448,4.896-4.896,10.404-7.956,15.3c-4.896,7.956-11.016,13.464-17.136,19.584
			c-2.448,3.06-5.508,5.508-8.568,7.344s-7.956,3.06-9.792,5.508c-1.836,2.448-1.224,7.956-1.224,11.016
			c1.224,0,4.284-6.12,4.896-6.732c1.836-3.06,1.836-3.672,4.896-5.508c6.12-3.672,12.852-7.344,18.36-11.628
			c5.508-4.284,9.792-9.18,13.464-15.3c1.836-3.06,4.284-6.12,4.284-9.792s-0.612-7.956-1.224-11.628
			C254.592,230.148,253.98,230.76,253.98,231.372L253.98,231.372z M253.98,230.76C253.98,231.372,253.98,231.372,253.98,230.76
			L253.98,230.76z"/>
		<path fill="#232323" d="M253.98,231.372L253.98,231.372L253.98,231.372z"/>
		<path fill="#232323" d="M253.368,231.984C253.98,231.372,253.98,231.372,253.368,231.984L253.368,231.984z"/>
		<path fill="#232323" d="M272.34,159.156c-36.108,0.612-70.992,28.152-85.68,59.976c-7.344,16.524-7.956,33.66-4.896,51.408
			c1.836,9.792,5.508,17.136,11.016,25.092c2.448,3.672,5.508,7.344,8.568,10.404c2.448,1.836,8.568,2.448,6.12-2.448
			c-8.568,7.344-17.748-34.272-18.36-38.556c-1.836-12.852-0.612-26.316,4.284-38.556c12.852-28.764,45.288-58.14,78.336-59.976
			c3.672,0,11.016,1.836,14.076,0c3.06-2.448,1.224-5.508-1.224-6.732C282.132,158.544,276.624,159.156,272.34,159.156
			L272.34,159.156z"/>
		<path fill="#232323" d="M377.604,304.812c1.837,5.508,3.673,11.016,4.896,17.136c1.224-3.06,3.672-6.12,4.284-9.18
			c0-3.06-1.225-6.732-2.448-9.792C381.888,303.588,380.052,304.2,377.604,304.812L377.604,304.812z"/>
		<path fill="#232323" d="M244.8,376.416c-2.448,1.224-7.344,0.612-8.568,3.06c-1.224,2.448,1.836,5.508,4.284,5.508
			c3.06,0.612,4.896-1.224,6.12-3.672C247.248,380.7,247.86,375.192,244.8,376.416L244.8,376.416z"/>
		<path fill="#232323" d="M234.396,267.48c-3.672,0.612-9.792,1.224-12.24,4.284c-0.612,1.224-1.836,0.612-1.224,2.448
			c1.224,1.836,2.448,1.224,3.672,0.612c4.896-0.612,8.568-2.448,13.464-1.224c4.284,0.612,7.956,1.836,12.24,3.06
			c2.448,0.612,6.12,3.06,8.568,2.448c4.896-0.612,3.672-4.896,0.612-7.344c-4.284-3.06-10.404-4.284-15.3-4.896
			C242.964,267.48,238.068,267.48,234.396,267.48L234.396,267.48z"/>
		<path fill="#232323" d="M246.024,267.48L246.024,267.48L246.024,267.48z"/>
		<path fill="#232323" d="M246.636,267.48C246.024,267.48,246.024,267.48,246.636,267.48L246.636,267.48z"/>
		<path fill="#232323" d="M382.5,372.744c-4.284,4.896-8.568,9.18-13.464,13.464c-1.225,1.224-4.284,3.672-3.672,6.12
			c0.611,3.06,4.284,3.06,6.731,2.448c6.12-2.448,11.017-8.568,14.688-13.464c1.836-1.836,4.284-4.284,3.06-6.732
			C388.62,371.52,384.336,370.296,382.5,372.744L382.5,372.744z"/>
		<path fill="#232323" d="M417.384,341.532c-4.896,1.836-1.836,7.956-1.224,11.016c1.224,4.284,2.448,9.18,5.508,3.06
			C423.504,352.548,425.34,339.696,417.384,341.532L417.384,341.532z M416.771,353.16
			C416.771,353.16,417.384,354.996,416.771,353.16L416.771,353.16z"/>
		<path fill="#232323" d="M216.036,279.108c-1.224,3.06-3.672,8.568-3.06,11.628c0.612,3.06,1.836,3.06,3.672,0
			c1.224-2.448,1.836-5.508,2.448-7.956c0-1.224,1.836-4.284-0.612-4.284C217.26,277.272,216.036,277.884,216.036,279.108
			L216.036,279.108z"/>
		<path fill="#232323" d="M214.2,276.66c-4.284,14.076-5.508,28.152-6.12,42.228c-1.224,16.524-1.836,33.66,0,50.184
			c0.612,4.284,1.224,11.628,4.284,14.076c2.448,1.836,2.448,1.224,2.448-1.224c0-3.06-2.448-7.344-3.06-10.404
			c-3.06-16.524-1.836-34.884,0-51.408c0-7.956,3.672-20.196,5.508-29.376c0.612-3.672,3.672-10.404,3.06-14.076
			C220.932,273.6,215.424,272.988,214.2,276.66L214.2,276.66z"/>
		<path fill="#232323" d="M367.812,386.82c-6.731,1.836-3.06,12.24-1.836,17.136c1.225,4.284,2.448,15.912,9.792,12.852
			c6.12-2.447,1.836-12.852,1.225-17.748C375.768,394.164,375.156,384.984,367.812,386.82L367.812,386.82z"/>
		<path fill="#232323" d="M308.448,372.744c-2.448,1.224-4.896,3.672-7.344,4.896c-2.448,1.836-5.508,2.448-7.956,4.284
			c-3.06,1.836-4.284,6.12,0.612,6.12c4.284,0,11.016-4.896,14.688-7.344c1.836-1.224,4.284-3.06,4.896-5.508
			C313.956,372.132,311.508,371.52,308.448,372.744L308.448,372.744z"/>
		<path fill="#232323" d="M237.456,334.188c-3.672,1.224,0.612,11.628,1.836,13.464c2.448,4.284,11.016,1.836,15.912,2.448
			c6.732,0.612,13.464,1.224,20.196,1.836c4.284,0.612,8.568,1.224,12.24-1.224c1.224-1.224,4.896-3.06,2.448-4.896
			c-2.448-1.836-4.284,1.836-6.732,2.448c-4.896,1.224-13.464-1.224-18.36-1.836c-3.672-0.612-7.344-0.612-11.016-0.612
			c-2.448,0-8.568,0.612-10.404,0C241.74,344.592,241.74,332.964,237.456,334.188L237.456,334.188z"/>
		<path fill="#232323" d="M235.62,292.572c-4.284,3.672-3.672,14.076,1.224,16.524c4.284,2.448,9.18-1.224,9.792-4.896
			c0.612-3.672,1.836-8.568-1.224-11.628C242.352,290.124,238.068,290.124,235.62,292.572L235.62,292.572z"/>
		<path fill="#232323" d="M237.456,293.184c-3.672,0-10.404-0.612-13.464,2.448c-3.06,3.06-1.224,7.344,2.448,7.344
			c4.896,0.612,9.18-3.06,14.688-2.448c3.672,0.612,7.344,1.836,10.404,3.06c1.224,0.612,2.448-0.612,3.06-1.836
			c0.612-1.836-1.836-3.672-3.06-4.284C247.86,294.408,242.352,293.184,237.456,293.184L237.456,293.184z"/>
		<path fill="#232323" d="M305.388,301.14c-7.956,4.896-2.448,21.42,6.732,15.3C318.852,310.932,313.956,293.796,305.388,301.14
			L305.388,301.14z"/>
		<path fill="#232323" d="M301.716,299.304c-3.06,0.612-6.12,0.612-7.344,3.672s0.612,6.12,3.672,7.344
			c3.672,1.224,7.956,0,11.628,0.612c4.284,0.612,7.956,3.06,11.628,4.284c9.181,3.06,12.24-5.508,4.896-10.404
			C318.852,299.916,309.672,298.08,301.716,299.304L301.716,299.304z"/>
		<path fill="#232323" d="M301.716,299.304c-3.06,6.12,4.896,20.808,11.017,12.24c2.447-3.672,4.283-9.18,1.836-13.464
			C311.508,294.408,304.164,294.408,301.716,299.304L301.716,299.304z"/>
		<path fill="#232323" d="M236.844,292.572c-5.508,4.284-2.448,18.972,4.896,14.688C247.86,303.588,244.188,287.064,236.844,292.572
			L236.844,292.572z M242.352,301.14C242.964,301.752,242.964,301.752,242.352,301.14L242.352,301.14z"/>
		<path fill="#232323" d="M228.276,298.08c-3.06,0.612-1.836,4.284,0,4.896s6.12-1.224,7.956-1.224c3.06,0,7.344-0.612,10.404,0.612
			c2.448,1.224,4.284,4.284,7.956,3.672c7.956-1.836-1.224-7.956-4.284-8.568C242.352,295.02,235.008,296.244,228.276,298.08
			L228.276,298.08z"/>
		<path fill="#232323" d="M252.144,230.76c-3.672,7.956-7.956,15.3-13.464,22.032l0,0c0-2.448,1.224-4.896,1.224-7.344
			c0-4.284-2.448-7.344-6.732-4.896c-1.836,1.224-3.672,4.284-4.896,6.732c-4.284,6.732-7.956,14.076-12.852,20.196
			c-4.284,5.508-5.508,12.24-5.508,18.972c4.284-1.836,6.732-6.12,9.18-9.792c3.672-4.896,7.344-10.404,10.404-15.912
			c3.672,12.24,15.912-1.836,19.584-6.12c3.06-3.672,6.732-8.568,6.732-12.852c0-5.508-1.224-11.016-1.224-16.524
			C253.98,227.088,253.368,228.924,252.144,230.76L252.144,230.76z"/>
		<path fill="#232323" d="M251.532,215.46c-4.896,4.896,1.836,23.256,3.672,28.764c3.06,9.18,7.956,18.36,14.076,26.316
			c3.672,4.284,7.956,7.956,12.852,10.404c3.06,1.836,8.568,4.896,12.24,4.896c5.508-0.612,4.896-4.896,4.896-9.18
			c0-6.12,1.224-11.628,3.06-17.748c11.628,11.628,23.868,20.196,37.943,28.764c4.284,3.06,12.24,9.18,17.137,3.672
			c3.672-4.284,3.06-14.688,4.284-20.196c2.447,7.344,4.896,14.688,7.956,22.032c1.836,4.896,4.283,9.18,6.731,13.464
			c1.224,2.448,3.06,8.568,5.508,9.792c5.508,3.672,5.508-6.732,4.896-10.404c-1.225-7.344-5.508-14.688-7.956-21.42
			c-2.448-7.956-4.896-15.3-7.344-23.256c-1.836-5.508-5.509-14.688-12.853-9.792c-8.567,6.12-7.956,23.256-8.567,31.824
			c-7.345-1.836-13.465-6.732-19.584-9.792c-8.568-4.896-16.524-9.792-23.868-16.524c-1.836-1.836-4.284-4.896-7.344-3.06
			c-1.224,0.612-1.224,3.06-1.836,4.284c-2.448,6.12-3.672,12.24-4.284,18.972l0,0c-4.896-4.284-10.404-7.344-14.076-12.852
			c-4.284-6.12-7.956-12.852-11.628-19.584c-3.06-6.732-6.12-12.852-7.344-20.196C260.1,220.968,258.264,208.116,251.532,215.46
			L251.532,215.46z M349.452,285.84C349.452,285.84,349.452,286.452,349.452,285.84L349.452,285.84z"/>
		<path fill="#232323" d="M312.732,270.54c-3.673,0.612-14.077,1.224-16.524,4.284c-4.896,5.508,6.732,4.896,9.18,4.896
			c4.284,0,12.24,2.448,15.912-0.612c1.836-1.836,2.448-4.896,0.612-7.344C319.464,269.316,315.792,269.928,312.732,270.54
			L312.732,270.54z"/>
		<path fill="#232323" d="M315.792,273.6c-6.12,6.12,9.792,11.016,13.464,6.732C334.152,274.212,319.464,269.928,315.792,273.6
			L315.792,273.6z M320.076,280.944C320.688,280.944,320.688,280.944,320.076,280.944L320.076,280.944z"/>
		<path fill="#232323" d="M323.136,279.108c0,4.896,14.688,6.12,13.464,0C335.376,276.048,323.136,274.212,323.136,279.108
			L323.136,279.108z"/>
		<path fill="#232323" d="M189.72,228.312c-6.12,17.136-7.344,35.496-2.448,52.632c1.836,7.956,5.508,15.3,11.016,21.42
			c2.448,2.448,8.568,9.18,12.852,6.12c2.448-1.836,1.836-5.508,1.836-8.568c0-4.896,0-9.792,0.612-14.688
			c0-3.06,3.672-12.852,2.448-14.688c-3.06-5.508-6.12,11.016-6.12,12.852c-0.612,5.508-0.612,11.016-1.836,16.524l0,0
			c-12.24-9.18-18.972-22.644-20.808-37.332c-1.224-6.12,0.612-14.688,1.836-20.808c0.612-3.672,3.06-7.956,3.06-11.628
			C192.168,229.536,190.944,225.252,189.72,228.312L189.72,228.312z M214.2,280.332L214.2,280.332L214.2,280.332z"/>
		<path fill="#232323" d="M431.46,242.388c1.224,8.568,1.836,18.972,0,27.54c-1.224,9.18-5.508,17.136-9.792,25.704
			c-1.836,3.06-4.896,6.732-4.896,9.792c0,4.284,3.673,4.896,6.732,3.06c7.344-4.284,9.18-15.3,11.016-22.644
			c1.837-7.956,2.448-15.912,1.225-23.868c-0.612-4.284-0.612-9.18-1.225-13.464c0-1.224,0-5.508-0.611-6.12
			C433.296,241.776,430.848,239.94,431.46,242.388L431.46,242.388z M435.744,261.972
			C435.744,263.196,435.744,261.972,435.744,261.972L435.744,261.972z"/>
		<path fill="#232323" d="M399.636,307.26c-4.896,1.836-9.18,4.284-12.852,7.344l0,0c0-2.448,0-8.568-3.672-7.956
			c-4.284,0.612-1.836,9.792-1.836,12.24c0,2.448-1.836,7.344,2.447,7.344c3.061,0,6.732-6.12,9.181-7.344
			c4.896-3.06,18.972-11.016,23.868-4.896c1.224,1.224,1.224,3.672,2.447,4.896c1.836,1.836,4.284-1.836,4.284-3.672
			c0-4.284-3.672-7.344-7.344-7.956C410.652,304.812,404.532,305.424,399.636,307.26L399.636,307.26z M400.248,315.216
			C399.636,315.216,399.636,315.216,400.248,315.216L400.248,315.216z M399.636,315.216
			C399.024,315.216,399.024,315.216,399.636,315.216L399.636,315.216z"/>
		<path fill="#232323" d="M370.26,411.3c-3.672,7.956-10.403,13.464-16.523,19.584c-2.448,2.448-5.509,5.508-7.956,7.956
			c-1.836,1.225-3.672,2.448-5.509,4.284c-0.611,0.612-5.508,4.284-3.06,2.448c-4.284,3.672-9.792,6.731-14.688,8.567
			c-3.673,1.225-6.732,3.673-10.404,5.509c-3.061,1.836-7.956,3.06-9.792,6.119c-3.06,5.509,7.956,14.688,11.016,18.36
			c1.836,2.448,4.284,6.12,6.12,9.18c0.612,1.225,4.284,8.568,4.896,3.673c0-3.061-4.896-9.181-6.12-12.24
			c-2.448-4.896-4.896-9.181-7.345-14.076c7.345-3.06,13.465-8.568,20.196-12.852c7.344-4.896,14.688-9.792,20.809-16.524
			c6.119-6.732,12.239-12.24,18.359-18.972c1.836-1.836,4.896-5.509,5.508-7.956C376.38,411.3,372.708,407.016,370.26,411.3
			L370.26,411.3z M336.6,446.184C335.988,446.796,335.988,446.796,336.6,446.184L336.6,446.184z M323.748,453.528
			C323.136,453.528,323.136,453.528,323.748,453.528L323.748,453.528z"/>
		<path fill="#232323" d="M310.284,466.992c-1.836,1.836,0.612,9.18,1.836,11.016c2.448,6.12,6.12,11.628,9.18,17.136
			c5.508,9.792,10.404,20.196,14.076,30.601c0.612,1.224,0.612,6.12,3.06,5.508c1.836-0.612,0-4.284,0-5.508
			c-1.836-6.12-4.896-11.628-7.344-17.748c-4.284-10.404-10.404-22.032-14.688-31.212c-0.612-2.448-1.836-6.732-1.836-7.956
			C313.344,467.604,312.12,465.156,310.284,466.992L310.284,466.992z M331.092,510.444L331.092,510.444L331.092,510.444z
			 M330.48,515.952L330.48,515.952L330.48,515.952z"/>
		<path fill="#232323" d="M558.144,514.728c-2.447,6.12-6.119,11.629-9.18,17.748c-1.224,3.061-1.836,2.448,0.612,4.896
			s6.731,3.06,10.403,2.448c6.732-1.225,12.24-9.792,10.404-15.912c-0.612-2.448-2.448-4.896-4.284-6.732
			C565.488,516.564,559.368,512.892,558.144,514.728L558.144,514.728z"/>
		<path fill="#232323" d="M329.868,154.26c-4.896,0-9.792,1.224-14.076,1.836c-4.284,0.612-7.956,0.612-12.24,1.836
			c-4.284,1.224-9.18,2.448-13.464,3.06c-2.448,0.612-12.24,0.612-9.18,4.896c1.224,1.836,7.344,1.836,9.18,1.836
			c5.508-0.612,10.404-1.836,15.912-2.448c12.24-1.836,23.868-2.448,36.72-0.612c9.792,1.836,18.36,5.508,27.54,9.18
			c9.181,4.284,17.748,7.956,25.092,14.688c26.929,25.704,39.168,65.484,26.316,101.592c-0.612,1.836-11.016,22.644-2.448,18.972
			c3.061-1.224,4.896-7.956,6.12-11.016c2.448-4.896,3.672-10.404,4.896-15.912c4.896-21.42,3.06-45.288-6.12-65.484
			c-7.956-17.136-20.196-34.884-37.332-44.676S349.452,153.648,329.868,154.26L329.868,154.26z M287.64,160.992L287.64,160.992
			L287.64,160.992z M425.34,246.672C425.34,246.672,425.34,248.508,425.34,246.672L425.34,246.672z"/>
		<path fill="#FFFFFF" d="M324.36,163.44c-8.568,0.612-17.137,1.836-25.705,3.06c-14.076,2.448-27.54-1.224-41.616,3.672
			c-36.72,12.24-71.604,49.572-67.32,90.576c0.612,7.956,2.448,15.3,5.508,23.256c2.448,6.732,7.344,11.628,12.852,15.912
			c1.224-7.956,1.224-15.912,2.448-23.256c1.836-9.18,10.404-17.748,15.3-26.316c1.224-2.448,2.448-4.896,4.284-7.344
			c3.06-3.672,8.568-4.896,9.18,1.224c0.612,3.06-0.612,6.12-1.224,8.568c3.672-3.06,6.12-7.344,8.568-11.628
			c3.06-4.896,4.896-7.956,4.284-13.464c-0.612-4.284-3.06-13.464,3.672-13.464c4.896,0,4.896,4.896,4.896,8.568
			c1.836,11.016,7.344,22.645,12.852,31.824c5.508,9.18,11.628,15.912,20.196,22.644c0.612-6.732,1.836-12.852,4.284-19.584
			c2.448-6.732,5.508-3.06,9.792,0.612c6.731,6.12,14.688,11.016,22.644,15.3c6.12,3.672,12.853,7.956,19.584,10.404
			c0.612-9.792,0.612-19.584,5.508-28.152c1.836-3.06,4.284-6.12,8.568-4.896c4.896,1.224,6.12,6.732,7.344,10.404
			c3.061,9.18,5.508,18.36,9.181,27.54c1.836,4.896,4.283,9.792,5.508,14.688c1.224,3.672,0.611,7.344,0.611,11.016
			c7.345-5.508,15.301-9.18,24.48-8.568c3.06,0,1.836,0.612,3.672-1.224c1.224-1.836,2.448-4.896,3.06-6.732
			c1.837-4.284,3.673-9.18,4.896-14.076c5.508-18.972,3.06-41.616-4.896-59.976c-7.344-16.524-18.972-33.66-34.884-42.228
			C365.976,170.784,345.168,162.828,324.36,163.44L324.36,163.44z M425.34,246.672C425.34,248.508,425.34,246.672,425.34,246.672
			L425.34,246.672z"/>
		<path fill="#B1440A" d="M293.76,471.276c-1.224,3.06-6.732,5.508-9.18,7.956c-6.12,4.896-9.18,9.18-6.12,17.136
			c2.448,5.508,5.508,12.852,10.404,16.523c0.612,0.612,1.836,1.225,3.06,1.836c0.612,0.612,0.612,1.837,1.224,2.448
			c2.448,1.836,7.956,2.448,11.016,1.836c9.18-0.611,10.404-7.956,10.404-15.912c0-4.896,0-11.628-1.836-15.911
			c-1.225-3.061-4.284-9.181-6.732-11.629C304.776,473.724,293.76,470.664,293.76,471.276L293.76,471.276z"/>
		<path fill="#B1440A" d="M313.344,522.072c-4.284,1.224-9.18,2.447-14.076,3.06c-3.672,0.612-5.508-0.612-8.568-1.836
			c-0.612,7.956-3.672,15.912-4.896,23.868c-3.06,14.688-7.344,29.376-12.852,43.452c-1.836,4.284-3.06,7.956-2.448,12.239
			c1.836,9.793,6.12,20.196,9.792,29.988c4.896,14.076,14.076,28.152,15.3,43.452c10.404-7.956,15.3-23.868,18.36-36.108
			c3.06-12.852,4.284-25.703,7.344-38.556c2.448-12.24-1.836-25.092-3.672-37.332C315.792,550.224,315.18,536.148,313.344,522.072
			L313.344,522.072z"/>
		<path opacity="0.2" fill="#B1440A" d="M266.22,123.66c-75.888,11.016-145.044,52.632-189.72,115.668S14.688,382.536,30.6,458.424
			c8.568,41.616,26.928,80.784,52.632,114.444c1.836-9.792,3.06-20.196,4.896-29.988c2.448-11.016,6.12-20.808,10.404-31.212
			c4.284-9.792,8.568-21.42,17.136-28.764c8.568-7.345,19.584-12.24,30.6-14.076c4.896-0.612,6.732-1.224,9.18-5.508
			c1.836-4.284,2.448-9.181,4.896-12.853c4.896-7.956,17.136-11.016,25.704-13.464c3.06-1.224,6.732-1.836,10.404-1.836
			c3.06,0,3.672,0,5.508-1.836c1.224-1.224,1.224-4.896,2.448-6.12c3.672-9.18,12.852-17.136,23.256-13.464
			c-4.896-11.016-12.24-20.808-16.524-32.436c-4.284-11.016-6.12-23.868-6.732-35.496c0-5.508,0-11.628,0.612-17.748
			c0-4.896,2.448-11.628,1.836-16.524c0-1.224,0.612-1.836,0-2.448c-0.612-1.224-6.12-3.06-7.956-3.672
			c-6.12-3.672-11.016-10.404-13.464-17.136c-7.344-16.524-6.12-33.66-3.06-51.408c4.284-26.316,24.48-48.96,46.512-63.036
			c11.628-7.344,25.704-12.852,39.78-13.464c4.896,0,9.18,0,14.076,0c3.672,0.612,5.508,1.224,9.18,0.612
			c3.672-0.612,6.732-1.836,10.404-2.448c6.12-1.224,11.628-1.836,17.748-2.448c6.12-1.224,11.016-1.224,17.136-0.612
			c14.076,1.224,26.316,6.12,38.556,12.24c41.616,19.584,72.217,70.992,61.2,117.504c-1.224,5.508-2.448,11.016-5.508,15.912
			c-1.836,3.06-3.672,7.344-5.508,9.792c-1.225,1.224-1.836,1.224-2.448,3.06s1.224,5.508,1.224,7.344
			c1.225,7.956-1.836,13.464-3.06,21.42c-0.612,4.284,1.224,9.18,0.612,14.076c-1.225,11.628-1.836,22.032-6.732,32.436
			c-6.731,13.464-20.808,21.42-35.496,23.256c0.612,1.224,1.225,2.447,1.836,3.672c7.956-6.732,23.256-12.24,33.66-10.404
			c14.076,2.448,23.256,22.644,20.808,36.108c4.896,0,10.404,0,14.076,4.283c3.672,4.284,3.672,10.404,4.284,15.301
			c20.196-1.836,31.824,11.628,45.288,23.867c8.568,7.956,19.584,17.137,22.032,29.377c1.836,9.18-0.612,22.031-3.672,31.212
			c7.956,0.611,14.075,5.508,17.748,12.239c23.867-35.496,37.332-75.888,44.063-117.504c2.448-15.912,1.836-32.436,1.836-48.348
			c0-8.568,0-17.748-1.224-26.316c-0.612-6.12-2.448-11.628-3.672-17.136c-5.508-40.392-25.704-79.56-49.572-111.996
			c-26.928-36.108-63.036-65.484-103.428-85.068C375.156,124.884,319.464,116.928,266.22,123.66L266.22,123.66z"/>
	</g>
</g>
</svg>
