<?xml version="1.0" encoding="utf-8"?>
<!-- Generator: Adobe Illustrator 16.0.0, SVG Export Plug-In . SVG Version: 6.00 Build 0)  -->
<!DOCTYPE svg PUBLIC "-//W3C//DTD SVG 1.1//EN" "http://www.w3.org/Graphics/SVG/1.1/DTD/svg11.dtd">
<svg version="1.1" id="Layer_1" xmlns="http://www.w3.org/2000/svg" xmlns:xlink="http://www.w3.org/1999/xlink" x="0px" y="0px"
	 width="593.083px" height="592.553px" viewBox="10.549 101.016 593.083 592.553"
	 enable-background="new 10.549 101.016 593.083 592.553" xml:space="preserve">
<g id="Background">
</g>
<g id="Image_Layer">
</g>
<g id="Draw_Layer">
</g>
<g id="Draw_Layer_1_">
	<g>
		<path fill="#232323" d="M351.288,315.828c-7.956,0.612-15.912,5.508-23.256,9.18c-1.836,0.612-6.732,2.448-7.345,4.284
			c-1.224,3.06,1.225,2.448,3.061,1.836c6.12-1.836,12.24-6.12,18.36-9.18c1.836-0.612,6.731-2.448,7.344-2.448
			c2.448-0.612,7.344-0.612,8.567,0c1.225,0,3.061,0.612,4.284,1.224c1.225,0.612,2.448,1.836,3.672,1.224
			c1.837-1.224-1.224-3.06-1.836-3.672C360.468,315.828,354.96,315.828,351.288,315.828L351.288,315.828z M342.72,321.948
			C342.108,321.948,342.108,321.948,342.72,321.948L342.72,321.948z"/>
		<path fill="#232323" d="M346.392,315.216c-5.508,0.612-10.403,3.06-15.3,5.508c-3.672,1.836-9.792,4.284-11.628,7.344
			c-3.06,4.284,1.224,6.12,4.896,4.896c4.283-1.224,7.956-4.284,11.628-6.732c4.896-3.06,9.792-5.508,15.912-6.12
			c2.447-0.612,5.508,0,7.955,0.612c1.837,0.612,4.284,2.448,6.12,1.836c6.12-1.836-3.06-6.732-4.896-7.344
			C356.184,314.604,350.676,314.604,346.392,315.216L346.392,315.216z"/>
		<path fill="#232323" d="M350.064,328.68c-6.732,2.448-9.792,20.196,0,18.972C358.632,346.428,359.856,325.008,350.064,328.68
			L350.064,328.68z"/>
		<path fill="#232323" d="M351.9,330.516c-7.345,0-16.524,4.896-21.42,9.792c-2.448,1.836-4.284,7.344,1.224,6.732
			c3.672-0.612,7.956-4.896,11.628-6.12c3.672-1.836,7.344-3.06,11.628-3.06c2.448,0,4.896,1.836,7.344,1.224
			c3.672-0.612,3.061-4.284,1.225-6.12C359.244,329.904,354.96,329.904,351.9,330.516L351.9,330.516z"/>
		<path fill="#232323" d="M387.396,318.888c-9.793,2.448,19.584,56.916,25.092,52.02c3.06-3.06-11.017-23.256-12.853-26.928
			c-2.448-4.896-4.896-9.792-6.731-14.688C391.68,326.844,391.68,317.664,387.396,318.888L387.396,318.888z"/>
		<path fill="#232323" d="M391.068,373.356c-4.284,0.612-17.137,1.224-16.524,7.956c0.612,7.344,12.24,3.06,16.524,1.836
			c3.672-0.612,17.748-1.224,17.748-7.344C408.816,369.072,394.74,372.744,391.068,373.356L391.068,373.356z"/>
		<path fill="#232323" d="M404.532,392.94c-4.896,1.224-8.568,6.732-14.076,7.957c-3.06,0.611-7.344,0-10.404,0
			c-3.672,0-7.344,0-11.016,0c-3.061,0-6.12,0.611-9.18,1.224c-3.061,0.612-7.956,0.612-11.017,1.836
			c-1.836,0.612-3.06,2.448-1.836,4.896c1.224,2.448,4.896,1.225,6.732,1.836c4.896,1.225,9.792,3.673,14.688,4.896
			c6.732,1.224,13.464,1.836,20.196,0.612c2.448-0.612,6.12-0.612,8.567-1.836c3.061-1.225,3.061-3.673,4.284-6.12
			C402.696,405.18,408.204,391.716,404.532,392.94L404.532,392.94z M372.096,406.404c5.508-0.612,11.628,0,17.137-0.612
			c4.896-0.612,8.567-4.284,12.239-7.344c-1.224,2.448-2.447,10.403-4.896,11.016c-2.448,1.224-8.568,3.061-11.628,3.061
			c-9.181,0.611-18.973-1.225-26.929-4.284C362.304,407.628,367.2,407.016,372.096,406.404L372.096,406.404z M391.068,400.896
			C390.456,400.896,390.456,400.896,391.068,400.896L391.068,400.896z M390.456,400.896
			C389.844,400.896,389.844,400.896,390.456,400.896L390.456,400.896z M367.2,407.016h-0.612
			C366.588,407.016,366.588,407.016,367.2,407.016L367.2,407.016z"/>
		<path fill="#232323" d="M360.468,417.42c-1.836,3.672,15.3,7.344,17.748,7.956c3.672,0.612,15.3,0.612,17.136-3.672
			c1.225-3.672-3.06-1.836-4.896-1.836c-3.672,1.224-7.344,1.224-11.016,1.224c-3.673,0-6.732-0.611-10.404-1.224
			C367.812,418.644,361.692,414.972,360.468,417.42L360.468,417.42z M375.156,420.48L375.156,420.48L375.156,420.48z"/>
		<path fill="#232323" d="M362.916,403.956c-9.792,0-6.732,9.792,1.836,7.344C368.424,411.3,369.036,403.344,362.916,403.956
			L362.916,403.956z"/>
		<path fill="#232323" d="M400.248,396c-3.672,1.224-9.18,17.748-1.836,15.912C402.696,411.3,407.592,394.164,400.248,396
			L400.248,396z"/>
		<path fill="#232323" d="M305.388,101.016C175.032,101.628,56.916,192.204,21.42,317.664
			c-31.212,110.771,6.12,233.172,94.86,307.224c47.736,39.78,107.712,64.261,170.136,67.933c32.436,2.447,65.484-1.225,96.696-9.181
			c29.987-7.956,56.916-21.42,82.62-36.107c19.584-11.017,37.332-27.54,53.243-43.452c21.42-21.42,39.168-46.512,52.633-73.44
			c27.54-55.08,37.943-118.115,28.764-178.704C581.4,225.864,479.196,123.66,352.512,104.688
			C337.212,102.24,321.3,101.016,305.388,101.016L305.388,101.016z M83.844,571.644c-35.496-46.512-56.916-102.815-58.752-161.567
			c-2.448-59.364,14.076-118.728,46.512-168.3c65.484-98.532,189.108-146.88,303.552-118.116
			c62.424,15.3,117.504,51.408,157.284,102.204c-0.612-0.612,0,0-0.612-0.612c35.496,44.676,56.916,102.816,59.364,160.344
			c2.447,60.587-13.464,119.339-46.513,170.136c-18.359,28.151-42.228,52.632-69.155,72.828l0,0
			c-3.061-26.929-3.061-58.753-18.36-82.62c-9.18-14.688-24.48-23.257-38.556-33.66c-3.673-2.448-6.732-4.284-9.181-8.568
			c-2.448-4.896-14.688-16.523-20.195-9.792c-1.225-7.344-7.956-17.748-14.076-22.644l0,0c11.628-0.612,27.54-4.896,34.271-15.301
			c7.956-11.628,7.344-27.54,7.956-40.392c0.612-6.732,1.225-12.852,3.672-19.584c2.448-6.732,6.12-12.852,9.181-19.584
			c3.06-7.344,3.672-15.3,1.836-23.256c-1.225-6.12-4.284-11.628-5.508-17.748c-1.225-6.732-2.448-14.688-2.448-21.42
			c0-9.792,0-18.36-4.284-27.54c-0.612-1.224-1.836-3.672-2.448-4.896c0-1.224,0.612,0,1.225-2.448
			c0.611-4.896,1.224-9.792,1.224-14.688c1.224-25.704-11.016-52.02-29.376-69.156c-14.076-12.852-30.601-19.584-48.96-24.48
			c-22.645-6.12-45.9-8.568-69.156-4.284c-6.12,1.224-11.628,3.06-17.748,3.672c-7.956,0.612-15.3,3.672-22.032,7.956
			c-9.18,5.508-18.36,13.464-24.48,22.644c-10.404,14.076-17.748,33.048-22.644,49.572c-5.508,20.196-7.344,41.616-3.06,61.812
			c3.672,15.912,9.18,33.048,16.524,47.736c1.224,2.448,3.06,5.508,4.284,7.956c1.836,3.06,6.12,4.896,7.956,7.956
			c2.448,3.672,1.836,8.568,4.284,12.24c-2.448,0-7.344,4.284-9.18,5.508c-4.284,3.06-8.568,6.12-12.852,9.792
			c-12.24,11.628-17.136,28.765-17.136,45.288c0,3.061,1.224,6.732,1.224,10.404c-0.612,3.06,1.836,0.612-2.448,1.836
			c-3.672,1.224-7.344,1.224-10.404,2.448c-4.284,1.836-7.956,3.672-11.628,6.12c-8.568,4.896-29.988,19.584-20.196,31.823
			C104.652,517.788,91.188,542.268,83.844,571.644C84.456,572.256,84.456,572.256,83.844,571.644L83.844,571.644z M348.228,210.564
			c-6.731-6.732-14.688-11.016-22.644-15.912c-6.12-3.672-11.628-7.344-17.748-11.016c-4.896-2.448-9.792-4.896-14.688-6.12
			c-9.792-3.06-19.584-4.284-29.376-6.12c0,0,0.612,0,0,0c25.092-4.284,48.348-4.896,72.828,2.448
			c25.704,7.344,47.124,16.524,61.812,39.78c8.568,14.076,15.912,29.376,15.912,46.512l0,0c-4.896-7.344-7.344-13.464-15.3-18.36
			s-17.137-5.508-25.093-9.792c-7.344-4.284-14.075-9.792-17.748-17.136c-1.224-1.836-1.836-6.732-4.283-6.732
			C350.064,207.504,347.616,210.564,348.228,210.564L348.228,210.564z M201.96,348.264c-3.06-7.344-4.284-14.688-6.732-22.032
			c-3.06-9.792-6.12-19.584-6.732-29.988c-1.224-17.748,4.896-34.884,10.404-51.408c4.284-14.076,11.628-26.316,18.972-39.168
			c4.284-7.344,9.792-14.076,17.136-18.36c5.508-3.06,9.792-6.732,15.912-8.568c6.732-1.836,12.852,0,19.584,0.612
			c9.792,0.612,18.972,5.508,27.54,7.344c8.568,3.06,17.136,8.568,25.092,13.464c6.732,4.284,13.464,8.568,18.973,14.076
			c3.06,3.06,8.567,8.568,7.956,13.464c0,4.284-5.509,9.18-8.568,12.24c-3.672,3.06-7.344,6.12-11.628,7.956
			c-7.956,3.672-16.524,5.508-24.48,9.792c-9.18,5.508-15.912,14.076-21.42,23.256c-11.016,17.136-17.136,35.496-37.332,41.616
			c-7.344,1.836-15.912,2.448-22.644,6.12c-11.016,5.508-17.136,16.524-17.136,28.764l0,0
			C205.02,354.384,203.184,351.324,201.96,348.264L201.96,348.264z M266.22,319.5c9.18-7.344,14.688-19.584,20.808-29.376
			c6.12-9.792,12.852-19.584,22.644-25.704c7.344-4.284,16.524-6.12,23.868-11.016c8.568-5.508,20.196-14.688,21.42-25.704
			c4.896,6.732,11.628,11.628,19.584,14.076c10.404,3.06,19.584,3.672,28.152,11.628c2.447,2.448,4.284,4.896,5.508,7.956
			c0.612,1.224,0.612,2.448,1.224,3.672c-0.611,0-1.224,0.612-1.224,0.612c-1.224,2.448-0.612,3.672,0,6.732
			c3.06,9.18,7.344,18.972,7.956,28.764c-4.896-2.448-23.256,6.12-16.524,10.404c1.836,1.224,6.12-1.224,7.956-1.836
			s6.12-2.448,7.956-1.836c1.836,0.612,1.225,2.448,1.836,4.896c-4.283-1.224-9.792-0.612-13.464,1.836
			c-2.448,1.836-7.956,6.12-6.12,9.18c1.225,3.672,4.284,1.224,6.12-0.612c1.836,3.06,6.732,2.448,8.568,0.612
			s1.224-5.508,4.284-3.06c1.836,1.836,1.224,6.12,1.224,8.568c0,4.896,0.612,9.792,2.448,14.688
			c3.06,7.344,5.508,12.852,4.896,20.808c-0.611,7.956-6.12,15.3-9.18,22.644c-5.508,13.464-6.732,27.54-6.732,42.228
			c0,7.956-0.611,17.748-5.508,23.868c-4.896,5.508-13.464,7.956-20.808,9.18c-17.748,2.448-34.884-6.12-50.185-14.076
			c-10.403-5.508-20.808-9.792-31.824-14.076c-12.852-5.508-33.048-17.748-30.6-34.271c0.612-3.061,1.836-4.284-2.448-5.508
			c-4.896-1.224-10.404-1.224-15.3-3.672c-8.568-3.672-15.912-9.18-20.808-16.524c-4.284-6.732-7.344-17.748-0.612-24.48
			c4.896-4.284,13.464-1.224,19.584-1.836c9.18-1.224,15.3-6.732,18.36-15.3c0.612-2.448,1.836-6.12,2.448-8.568
			C271.728,321.336,269.28,320.724,266.22,319.5L266.22,319.5z M345.78,234.432C345.78,235.044,345.78,235.044,345.78,234.432
			L345.78,234.432z M191.556,244.224c-0.612,2.448-1.836,5.508-2.448,7.956C189.72,249.732,190.332,246.672,191.556,244.224
			L191.556,244.224z M296.208,277.272C295.596,277.884,295.596,277.884,296.208,277.272L296.208,277.272z M252.756,320.724
			C252.144,320.724,252.144,320.724,252.756,320.724L252.756,320.724z M221.544,337.248c12.24-8.568,28.152-6.732,41.004-14.688
			c-1.836,6.12-4.284,13.464-11.016,16.524c-5.508,2.448-12.852,2.448-18.972,3.672c-13.464,3.06-18.36,17.748-14.688,29.988
			C208.08,362.952,211.14,345.816,221.544,337.248L221.544,337.248z M402.696,325.008L402.696,325.008L402.696,325.008z
			 M217.26,341.532L217.26,341.532L217.26,341.532z M230.724,351.936C230.112,352.548,230.112,352.548,230.724,351.936
			L230.724,351.936z M229.5,353.772C229.5,354.384,229.5,354.384,229.5,353.772L229.5,353.772z M228.276,358.668
			C228.276,359.28,228.276,359.28,228.276,358.668L228.276,358.668z M425.34,368.46C425.34,369.072,425.34,369.072,425.34,368.46
			L425.34,368.46z M183.6,455.976c-2.448-20.195,4.896-39.779,20.808-52.632c2.448-1.836,4.896-3.672,6.732-5.508
			c2.448-1.836,3.672-3.672,6.732-2.448c2.448,0.612,4.284,2.448,6.732,3.06c3.06,1.224,5.508,3.06,8.568,4.284
			c0.612,0.611,3.06,1.224,3.672,1.836c0.612,1.224-0.612,4.283-0.612,4.896c-0.612,3.672-1.224,8.568-3.672,11.628
			c-5.508,6.732-16.524,1.225-21.42,10.404c-1.836,3.672-2.448,9.18-4.896,12.852c-1.836,2.448-4.896,3.672-7.956,5.508
			c-3.06,2.448-6.12,5.509-9.18,7.956c-1.224,1.225-1.224,1.837-3.06,1.837C183.6,460.26,184.212,458.424,183.6,455.976
			L183.6,455.976z M301.716,500.04c-9.18-7.344-17.136-16.524-26.316-23.868c-9.792-7.956-18.972-15.912-28.152-23.868
			c3.672,0,3.672-19.584,4.284-21.42c0.612-6.731,0.612-13.464,0.612-20.196c0-1.224-1.224-7.344-0.612-8.567
			c1.224-1.836,3.672-0.612,5.508,0c0.612,0,4.896,0,5.508,0.612c1.224,0.611,0.612,6.119,1.224,7.955
			c1.224,5.509,4.284,11.017,7.344,15.301c7.956,9.792,18.972,15.3,30.6,20.195c14.688,6.12,29.376,13.465,44.676,19.584
			c3.061,1.225,6.12,2.448,9.181,3.672c3.06,0.612,7.344,0.612,9.18,3.673c0.612,1.224,0.612,5.508,0.612,7.344
			c0,3.672,0,7.956,0,11.628c-0.612,5.508-1.225,12.24-3.672,17.136c-2.448,4.284-7.345,7.956-11.017,11.628
			c-1.836,1.836-9.18,8.568-9.18,11.628c0,6.732,6.12,1.836,8.568-0.611c5.508-5.509,11.016-11.628,16.523-17.137
			c2.448,0,5.508,13.465,5.508,15.301c0.612,3.06,0.612,11.016,6.12,7.956c0,0.611,0.612,1.836,0,2.447
			c-3.06-6.12-4.896,7.345-4.896,8.568c-0.612,5.508-1.836,11.016-3.061,16.524c-2.448,11.628-5.508,23.256-7.956,34.271
			c-2.447-15.912-7.956-32.436-13.464-47.124c-3.672-9.18-7.344-18.972-12.852-27.54c-1.225-2.448-3.672-6.731-6.732-6.731
			c-4.284-0.612-6.12,5.508-7.344,8.567c-0.612-2.448-1.225-4.896-1.836-7.344c-1.225,0-1.225-0.612-0.612-1.836
			c0-0.612,0-0.612,0-1.224c-0.612-1.837-1.224-3.061-3.06-4.896C312.732,507.996,306.612,504.324,301.716,500.04L301.716,500.04z
			 M251.532,402.12L251.532,402.12L251.532,402.12z M310.896,525.744c-0.612-1.225-1.837-0.612-3.061-1.225
			c-1.836-1.224-3.06-3.06-4.284-4.283c-3.06-3.672-6.12-6.732-9.792-10.404c-3.672-3.672-7.344-7.344-11.016-10.404
			c-6.732-6.731-14.076-12.239-22.032-17.748c-12.852-8.567-26.316-15.912-39.78-24.479c-2.448-1.836-7.344-4.284-9.18-7.344
			c-1.836-3.673,3.672-15.912,6.732-17.748c-0.612,4.283,3.672,7.956,6.12,11.016c5.508,5.508,11.628,11.016,17.748,15.912
			c8.568,7.344,16.524,14.076,25.092,21.42c10.404,9.18,20.196,18.36,32.436,25.704c4.284,2.448,9.792,4.896,14.076,7.344
			c6.731,4.284,1.836,8.568-1.224,14.076C312.12,526.968,311.508,526.356,310.896,525.744L310.896,525.744z M216.648,433.332
			C216.036,433.944,216.036,433.944,216.648,433.332L216.648,433.332z M588.744,438.228
			C588.744,438.84,588.744,438.84,588.744,438.228L588.744,438.228z M140.76,496.98c-9.792-1.837,2.448-12.24,6.12-15.301
			c6.12-4.896,14.076-9.792,21.42-12.239c6.732-1.837,17.136,0.611,23.868-3.061c4.284-2.448,7.344-7.344,12.24-10.404
			c5.508-3.672,4.284-2.447,8.568,1.225c8.568,6.731,18.36,11.628,27.54,17.748c9.18,5.508,17.748,11.628,26.316,18.359
			c7.344,5.509,13.464,12.24,20.196,18.973c5.508,5.508,13.464,11.628,17.748,17.748c5.508,8.567,17.136,15.3,20.196,25.704
			c-3.672,0-7.344,3.06-11.628,2.447c-4.284-0.611-7.956-2.447-12.24-4.283c-6.732-3.061-12.852-7.956-19.584-11.629
			c-16.524-10.403-32.436-22.031-50.184-30.6c-14.688-7.344-30.6-15.912-47.124-17.136
			C170.136,493.308,155.448,498.816,140.76,496.98L140.76,496.98z M188.496,460.26C187.884,460.26,187.884,460.26,188.496,460.26
			L188.496,460.26z M187.272,460.872C186.66,460.872,186.66,460.872,187.272,460.872L187.272,460.872z M383.112,463.932
			L383.112,463.932L383.112,463.932z M172.584,468.828C171.972,468.828,171.972,468.828,172.584,468.828L172.584,468.828z
			 M376.992,520.236c-1.225-3.672-3.061-7.956-6.12-11.017c-2.448-2.448-3.061-0.611-2.448-4.896
			c0.612-9.792,1.225-18.36,0.612-28.152c6.12,3.672,11.016,12.24,12.852,18.972C383.724,501.876,380.664,514.728,376.992,520.236
			L376.992,520.236z M137.7,492.084C137.7,492.696,137.7,492.696,137.7,492.084L137.7,492.084z M137.088,494.532
			C137.088,495.144,137.088,495.144,137.088,494.532L137.088,494.532z M364.752,494.532
			C364.14,495.144,364.14,495.144,364.752,494.532L364.752,494.532z M386.784,563.076c0-5.508-0.612-11.628-1.225-17.136
			c-0.611-3.061-0.611-6.12-1.224-9.181c0-1.224,0-3.06-0.612-4.896l-1.224-3.061c0-3.06,3.06-7.344,3.672-10.403
			c1.836-6.12,3.672-12.853,3.061-19.584c6.119,3.06,11.016,2.447,14.075,9.18c3.061,6.12,3.673,12.852,3.673,19.584
			c-0.612,15.3-11.629,25.704-20.809,36.107C386.784,564.3,386.784,563.688,386.784,563.076L386.784,563.076z M169.524,503.1
			C168.912,503.1,168.912,503.1,169.524,503.1L169.524,503.1z M137.088,504.324C136.476,504.936,136.476,504.936,137.088,504.324
			L137.088,504.324z M381.888,504.324C381.888,505.548,381.888,505.548,381.888,504.324L381.888,504.324z M351.288,583.271
			c-2.448-4.896-4.896-10.403-8.568-14.688c-1.224-1.836-3.06-3.672-4.896-5.508c-1.836-1.225-4.896-3.061-6.12-4.896
			c-0.612-1.224-0.612-4.896-1.224-6.731c-0.612-1.836-1.837-3.672-3.061-5.509c-1.836-3.06-4.284-6.119-6.732-8.567
			c3.673-0.612,6.12-9.792,7.345-12.24c3.672,4.284,5.508,10.404,7.956,15.3v-0.611c0.611,1.224,1.224,3.06,1.836,4.283v-0.611
			c6.12,14.076,10.403,28.764,14.688,43.452C351.9,585.108,351.288,583.884,351.288,583.271L351.288,583.271z M314.568,530.028
			c0.611-1.836,1.224-3.672,1.836-4.896c0.611,3.061,1.224,6.12,1.836,8.568C317.016,532.476,315.792,531.252,314.568,530.028
			L314.568,530.028z M361.692,610.2c5.508-4.896,6.119-17.136,7.344-23.868c3.06-12.852,6.12-25.092,8.567-37.944
			c0,12.24-4.283,24.48-7.344,36.108c-3.06,11.628-4.896,23.256-4.896,35.496C364.14,616.932,362.916,613.26,361.692,610.2
			L361.692,610.2z M400.248,549L400.248,549L400.248,549z M377.604,554.508L377.604,554.508L377.604,554.508z"/>
		<path fill="#232323" d="M343.944,528.804c-2.448,1.225-3.672,2.448-4.896,4.896c-1.836,3.672,0,7.956,3.672,4.896
			c1.225-0.611,1.836-3.06,3.061-3.672c0.611-0.611,1.224-1.836,1.836-2.448C348.228,530.028,347.004,526.356,343.944,528.804
			L343.944,528.804z"/>
		<path fill="#232323" d="M375.156,533.088c-2.448,8.568-6.732,18.972-15.912,22.032c-3.061,1.224-9.792-1.224-11.628,0.612
			c-4.284,4.283,4.896,4.896,7.344,4.896c9.18,0,14.076-6.731,18.972-13.464c2.448-3.06,4.896-6.12,4.896-9.792
			C379.44,535.536,376.992,528.192,375.156,533.088L375.156,533.088z M375.156,533.088C375.156,533.7,375.156,533.7,375.156,533.088
			L375.156,533.088z"/>
		<path fill="#B1440A" d="M363.528,517.176c-3.672,5.508-9.181,9.792-14.076,14.688c-1.836,1.836-4.284,3.672-5.508,6.12
			c-1.225,2.447-1.225,2.447,0,4.896c1.224,3.061,2.447,7.344,4.283,10.404c1.837,2.448,1.225,2.448,4.284,3.06
			c3.061,0,5.508,0,8.568-1.224c5.508-2.448,9.792-8.568,12.24-14.076c1.224-3.06-0.612-4.284-1.225-7.344
			c-0.611-1.836,0-3.672-0.611-5.508c0-1.225-3.061-13.464-5.509-13.464C365.364,515.34,364.14,515.952,363.528,517.176
			L363.528,517.176z"/>
		<path fill="#B1440A" d="M373.32,549c-0.612,0-3.061,3.672-3.672,4.284c-1.836,1.836-3.673,4.284-6.12,5.508
			c-4.284,2.448-7.956,2.448-12.853,1.836c4.284,12.853,8.568,25.704,11.017,39.168c1.836,0,6.12-23.256,6.12-25.092
			C370.26,566.136,372.096,557.568,373.32,549L373.32,549z"/>
		<path fill="#232323" d="M291.312,496.368c-3.06,3.06,18.36,15.912,20.808,17.748c3.06,2.448,3.06,3.672,1.836,7.956
			c-0.612,2.448-4.284,9.18-2.448,12.24c3.061,4.283,5.508-2.448,5.508-4.284c0.612-3.672,1.836-8.568,1.225-12.24
			c-1.225-7.344-12.24-10.404-17.748-14.076C301.104,503.1,293.148,494.532,291.312,496.368L291.312,496.368z M312.12,514.116
			L312.12,514.116L312.12,514.116z"/>
		<path fill="#FFFFFF" d="M295.596,168.336c-11.016,0-21.42,1.836-31.824,3.672c5.508,1.224,11.016,1.224,16.524,2.448
			c4.896,1.224,9.18,2.448,13.464,3.672c4.896,1.836,10.404,4.284,15.3,6.732c6.12,3.06,11.628,7.344,17.748,11.016
			c7.956,4.896,15.301,9.18,22.032,15.3c0-1.224,0.612-2.448,1.836-3.06c2.448-1.224,3.061,1.224,4.284,3.06
			c1.224,2.448,1.836,4.896,3.06,6.732c4.284,6.732,11.629,12.24,18.973,15.3c7.956,3.672,16.523,4.284,24.479,9.792
			c3.672,2.448,6.732,5.508,9.181,9.18c0.611,0.612,3.672,7.344,4.283,7.344c0-28.764-19.584-59.364-44.063-73.44
			c-12.853-7.344-27.54-11.016-41.616-14.688C317.628,168.948,306.612,167.724,295.596,168.336L295.596,168.336z"/>
		<path fill="#FFFFFF" d="M254.592,177.516c-7.344,1.224-11.628,5.508-17.136,8.568c-7.956,4.284-14.076,9.792-18.36,17.748
			c-7.956,13.464-15.3,26.928-20.196,41.616c-6.12,18.36-12.24,36.72-9.18,55.692c1.836,11.016,5.508,21.42,7.956,31.824
			c2.448,8.568,4.896,16.524,9.18,23.868c0-11.016,5.508-20.808,14.688-26.928c5.508-3.672,11.628-4.284,18.36-6.12
			c10.404-2.448,20.196-5.508,26.928-14.688c4.896-6.732,8.568-14.688,12.852-22.032c5.508-9.792,11.628-20.196,20.808-26.928
			c7.956-6.12,17.136-7.956,25.704-11.628c4.284-1.836,8.567-4.284,12.239-7.344c3.061-2.448,5.509-4.896,7.956-7.956
			c1.225-1.836,3.061-4.284,3.061-6.12c0-2.448-1.836-5.508-3.672-7.956c-5.508-7.956-14.076-13.464-22.032-18.972
			c-7.956-4.896-17.136-12.24-26.316-14.688h0.612c-8.568-3.672-17.136-6.732-26.316-7.344
			C266.22,178.74,260.1,176.904,254.592,177.516L254.592,177.516z"/>
		<path opacity="0.2" fill="#B1440A" d="M270.504,117.54c-76.5,10.404-147.492,52.02-192.168,115.056
			c-46.512,64.872-64.26,148.104-47.124,226.44c9.18,40.392,26.928,80.784,53.244,113.22c3.672-14.076,7.956-28.764,15.912-41.004
			s18.36-22.032,31.212-29.988c-7.956-9.792,6.732-22.644,14.076-27.54c4.896-3.672,10.404-6.731,15.912-9.18
			c1.836-0.612,13.464-5.508,15.3-3.06c-3.672-15.912,0.612-35.496,9.18-48.96c4.896-6.732,11.016-11.628,17.748-16.524
			c3.06-2.448,6.732-5.508,11.016-6.732c-1.836-3.672-1.836-8.568-3.672-12.24c-0.612-1.836-2.448-2.448-4.284-3.672
			c-2.448-2.448-4.284-5.508-6.12-8.568c-7.344-13.464-12.852-30.6-16.524-45.288c-4.896-18.36-5.508-37.332-1.836-56.304
			c3.06-17.136,10.404-33.048,17.748-48.96c9.18-18.972,29.376-40.392,51.408-43.452c1.836,0,3.672,0,5.508,0
			c4.284-0.612,9.18-2.448,13.464-3.06c4.896-1.224,9.792-1.836,14.688-1.836c15.3-1.224,29.988-0.612,45.289,2.448
			c16.523,3.672,34.271,8.568,48.96,17.748c18.972,12.24,34.271,34.272,39.168,56.304c2.447,12.24,1.836,23.256,0.611,34.884
			c0,1.836-0.611,3.672-0.611,5.508c0,1.836,1.836,4.284,3.06,6.12c4.284,9.18,3.06,18.36,3.06,28.152
			c0,8.568,1.225,17.748,4.284,25.704c1.836,6.12,4.896,11.628,4.896,17.748c0.611,8.568-2.448,15.3-6.12,22.644
			c-4.284,7.956-7.344,16.524-8.568,25.704c-1.836,14.688-0.611,29.988-6.731,43.452s-23.256,17.748-36.721,18.973
			c6.12,5.508,12.24,14.688,14.076,22.644c8.568-5.508,17.137,5.508,21.42,11.628c1.836,3.061,4.896,4.896,7.956,6.732
			c14.076,9.792,29.376,18.972,39.168,34.271c15.3,23.868,15.3,54.468,17.748,81.396c48.349-32.437,84.456-85.681,102.204-140.761
			c17.748-55.691,18.36-115.667,1.225-171.359c-9.793-33.048-26.316-63.648-47.124-90.576v0.612
			c-47.124-59.976-117.505-100.98-193.393-108.937C316.404,114.48,293.148,114.48,270.504,117.54L270.504,117.54z"/>
	</g>
</g>
</svg>
