<?xml version="1.0" encoding="utf-8"?>
<!-- Generator: Adobe Illustrator 16.0.0, SVG Export Plug-In . SVG Version: 6.00 Build 0)  -->
<!DOCTYPE svg PUBLIC "-//W3C//DTD SVG 1.1//EN" "http://www.w3.org/Graphics/SVG/1.1/DTD/svg11.dtd">
<svg version="1.1" id="Layer_1" xmlns="http://www.w3.org/2000/svg" xmlns:xlink="http://www.w3.org/1999/xlink" x="0px" y="0px"
	 width="599.734px" height="597.833px" viewBox="6.067 91.88 599.734 597.833" enable-background="new 6.067 91.88 599.734 597.833"
	 xml:space="preserve">
<g id="Background">
</g>
<g id="Image_Layer">
</g>
<g id="Draw_Layer">
</g>
<g id="Draw_Layer_1_">
	<g>
		<path fill="#232323" d="M261.936,286.452c-9.792,3.672-6.12,21.42,4.284,16.524C274.788,299.304,272.34,282.168,261.936,286.452
			L261.936,286.452z"/>
		<path fill="#232323" d="M327.42,284.004c-7.344,7.344-0.612,22.032,9.792,15.912C348.84,293.184,336.6,273.6,327.42,284.004
			L327.42,284.004z"/>
		<path fill="#232323" d="M261.324,287.676c-3.06,0.612-22.644,5.508-16.524,11.628c2.448,2.448,4.896-0.612,7.344-1.836
			c3.672-1.836,8.568-1.224,12.852-1.224c3.06,0,18.972,3.06,16.524-4.284C279.072,286.452,265.608,287.064,261.324,287.676
			L261.324,287.676z"/>
		<path fill="#232323" d="M339.66,282.78c-6.12,0.612-23.868,1.836-25.704,9.18c-2.448,9.792,14.076,2.448,17.748,2.448
			c3.672-0.612,11.628-1.836,14.688-0.612c2.448,1.224,3.673,6.12,7.345,3.06s0-8.568-2.448-11.016
			C348.84,282.78,343.944,282.168,339.66,282.78L339.66,282.78z M347.004,293.184C347.616,293.184,347.616,293.184,347.004,293.184
			L347.004,293.184z M347.004,293.184C347.616,293.184,347.004,293.184,347.004,293.184L347.004,293.184z M347.004,293.184
			C347.004,293.184,347.616,293.184,347.004,293.184L347.004,293.184z"/>
		<path fill="#232323" d="M340.884,270.54c-7.956,0.612-15.3,1.836-23.256,3.06c-2.448,0-5.508,0-6.731,2.448
			c-1.837,4.284,3.672,4.284,6.119,4.284c7.345,0,14.688,0,22.032,0c6.12,0,12.24-1.836,18.36-0.612
			c5.508,0.612,4.284-6.12,0.611-7.344C353.124,269.928,346.392,269.928,340.884,270.54L340.884,270.54z"/>
		<path fill="#232323" d="M293.148,329.292L293.148,329.292L293.148,329.292z"/>
		<path fill="#232323" d="M282.744,359.892L282.744,359.892L282.744,359.892z"/>
		<path fill="#232323" d="M296.82,369.072c-4.284,0.612-6.12,3.672-9.18,4.284c-1.836,0.612-3.672-0.612-5.508,0
			c-2.448,0.612-5.508,2.448-7.344,4.284c-2.448,1.836-4.896,4.284-6.732,6.12c-0.612,0.612-1.836,2.448-1.836,3.06
			c0.612-1.224,0-0.612-0.612,1.836c4.896-3.672,10.404-10.404,16.524-11.628c-0.612,0,2.448,0.612,3.06,1.224
			c1.836,0.612,2.448,1.224,4.284,0.612c2.448-0.612,3.672-3.06,6.12-3.06c1.224-0.612,2.448,0,3.672,0.612
			c2.448,0,10.404,0.612,7.344-4.896C305.388,369.072,299.268,369.072,296.82,369.072L296.82,369.072z M302.94,370.296
			C303.552,370.296,303.552,370.296,302.94,370.296L302.94,370.296z M288.864,372.744L288.864,372.744L288.864,372.744z
			 M288.252,373.356C287.64,373.356,287.64,373.356,288.252,373.356L288.252,373.356z M287.028,373.356
			C287.64,373.356,287.64,373.356,287.028,373.356L287.028,373.356z"/>
		<path fill="#232323" d="M318.852,371.52c-2.447,0.612-4.896,1.836-7.344,1.836c-1.836,0-5.508-3.06-7.344-0.612
			c-1.836,2.448,2.448,3.672,4.284,4.284c3.672,1.224,6.12,0.612,9.792,0c11.016-2.448,15.3,9.18,26.315,9.18
			c0-1.224,0-2.448-0.611-2.448l0,0c-1.836-1.836-6.12-4.284-8.568-6.12c-1.224-1.836-6.12-4.896-7.956-6.12
			S321.3,370.908,318.852,371.52L318.852,371.52z M321.3,376.416C320.688,376.416,320.688,376.416,321.3,376.416L321.3,376.416z"/>
		<path fill="#232323" d="M342.108,385.596c-3.061,3.06-4.284,5.508-6.12,9.792c-1.836,4.896-2.448,5.508-6.12,9.18
			c-1.836,1.836-3.061,4.896-4.896,6.119c-2.447,1.837-6.731,2.448-9.18,4.896c-1.836,1.224-4.896,4.896-7.344,4.284
			c-3.06-0.612-4.896-4.284-7.956-5.508c-3.06-1.225-4.896,1.224-7.956,0.611c-3.672-0.611-4.284-4.896-7.956-1.224
			c-6.12-6.12-14.688-11.016-15.3-20.196c0-1.224,0.612-8.568-3.06-6.12c-1.224,0.612-1.224,4.896-1.224,6.12
			c0,7.956,4.896,13.464,9.792,18.973c3.06,3.06,10.404,11.628,12.852,3.672c0.612,0,2.448,3.06,4.284,3.672
			c2.448,1.224,4.284-1.225,6.732-0.612c2.448,0.612,4.284,4.284,6.732,5.508c3.06,1.225,4.896,0.612,7.956-0.611
			c3.672-1.836,6.12-4.896,9.792-6.12c2.448-0.612,4.284-0.612,6.12-2.448c1.836-1.224,3.061-3.672,4.896-4.896
			c3.06-2.447,4.896-4.283,6.731-7.955c0.612-1.225,1.836-4.896,1.836-6.732c0,1.836,0-1.224,0.612-1.224
			c0.612-1.224,1.224-2.448,1.224-3.672C344.556,388.656,345.168,381.924,342.108,385.596L342.108,385.596z M322.524,417.42
			C321.912,417.42,321.912,417.42,322.524,417.42L322.524,417.42z M298.656,418.032
			C298.656,418.032,299.268,418.032,298.656,418.032L298.656,418.032z M298.044,418.032
			C298.044,418.032,298.656,418.032,298.044,418.032L298.044,418.032z M307.836,419.868L307.836,419.868L307.836,419.868z"/>
		<path fill="#232323" d="M266.22,386.82L266.22,386.82L266.22,386.82z"/>
		<path fill="#232323" d="M313.956,377.028c-5.508,0-10.404,3.672-15.912,2.448c-4.896-1.224-7.956-1.836-12.852-1.224
			c-2.448,0-11.628,1.224-7.956,6.12c1.836,2.448,7.956,0.612,10.404,0c4.896,0,9.18,1.224,14.076,0.612
			c6.732-1.224,11.628-1.836,18.36-0.612c1.836,0.612,12.852,1.224,7.956-4.284C325.584,377.028,317.016,377.028,313.956,377.028
			L313.956,377.028z M308.448,382.536C307.836,382.536,307.836,382.536,308.448,382.536L308.448,382.536z M307.836,382.536
			L307.836,382.536L307.836,382.536z"/>
		<path fill="#232323" d="M288.864,277.884c0.612,10.404,0.612,20.196,0,30.6c0,4.896-0.612,9.792-0.612,15.3
			c0,2.448,0.612,12.24,4.284,6.732c1.224-2.448,0.612-9.18,0.612-11.628c0.612-4.896,0.612-10.404,0.612-15.3
			c0-5.508,0-11.628-0.612-17.136c0-1.836,0.612-6.732-0.612-7.956C291.924,276.66,288.864,274.212,288.864,277.884L288.864,277.884
			z"/>
		<path fill="#232323" d="M309.06,339.696c-4.284,0-8.567,0.612-12.852,1.224c-3.06,0-8.568-1.224-11.628,0
			c-2.448,1.224-3.06,4.284-1.224,6.732c2.448,2.448,8.568,1.224,11.628,1.224c4.284,0,7.956,0,12.24-0.612
			c3.061,0,8.568,0.612,11.017-1.224c2.447-1.224,3.672-4.284,1.224-6.732C317.628,339.084,312.12,339.696,309.06,339.696
			L309.06,339.696z"/>
		<path fill="#232323" d="M268.668,384.372c-0.612,1.224-3.672,11.016,0.612,7.956c0.612-0.612,2.448-5.508,1.836-6.12
			C271.116,385.596,270.504,381.312,268.668,384.372L268.668,384.372z"/>
		<path fill="#232323" d="M209.304,107.748C90.576,148.14,7.956,261.972,6.12,388.044C4.896,451.692,25.092,515.34,63.036,567.36
			c16.524,22.644,36.108,43.451,58.14,59.976c21.42,16.524,45.9,32.437,71.604,41.616c59.364,22.032,123.012,27.54,185.436,11.628
			c55.08-14.076,108.324-43.452,146.269-85.68c41.004-45.9,69.155-100.368,78.336-161.568c9.18-64.26-3.061-130.356-33.66-186.66
			C507.96,135.9,379.44,74.7,254.592,96.12C239.292,99.18,223.992,102.852,209.304,107.748L209.304,107.748z M82.008,565.524
			C29.988,496.98,10.404,407.628,30.6,323.784c20.196-80.172,75.276-148.716,149.328-186.048
			c74.052-37.332,165.24-39.78,241.127-5.508C495.72,166.5,553.86,231.984,577.729,310.932
			c24.479,82.008,10.403,172.583-37.944,243.576c-5.508,8.568-11.628,16.524-18.36,23.868l0,0
			c-1.224-20.196-1.224-39.78-3.672-59.976c-1.224-9.181-2.448-17.748-4.284-26.929c-1.836-7.344-3.672-17.136-10.403-21.42
			c-9.792-6.731-23.868-8.567-35.496-11.016c-4.284-1.225-9.181-1.836-13.464-2.448c-2.448-0.612-9.792-0.612-11.629-3.06
			c-1.836-2.448-1.224-11.017,1.225-11.017c1.836,0,3.672,2.448,4.896,3.672c3.061,3.061,6.732,6.732,11.628,6.12
			c3.061,0,9.792-3.06,10.404-6.731c1.224-5.509-6.12-6.12-8.568-9.181c-5.508-6.12,7.345-13.464,5.509-20.195
			c-1.836-6.732-10.404-7.956-15.912-9.181c-20.196-6.12-3.672-18.972,3.672-27.54c6.12-7.344,4.284-14.688-3.061-19.584
			c-2.447-1.836-4.896-2.448-4.896-5.508c0-3.672,3.672-9.18,5.508-11.016c3.672-4.896,8.568-9.18,8.568-15.912
			c0-6.12-4.284-11.016-8.568-14.688c-3.672-3.06-6.731-4.896-5.508-9.792c1.224-4.284,3.672-7.956,1.836-12.852
			c-3.06-8.568-12.852-11.016-20.808-12.852c-11.017-2.448-6.732-14.688-4.284-22.644c3.06-10.404,0.612-20.196-6.12-28.764
			c-6.732-7.956-16.524-12.24-25.704-16.524c-3.672-1.836-7.956-4.284-9.792-8.568c-1.836-3.672-2.448-7.956-3.672-12.24
			c-4.896-18.972-28.152-34.272-47.124-23.256c-0.612-7.344-7.344-14.076-12.852-18.36c-7.345-5.508-15.913-6.732-24.48-7.344
			c-12.24-0.612-23.868,3.06-35.496,7.956c-14.076,5.508-29.376,14.688-37.944,27.54c-4.896,7.344-6.12,17.748-11.628,23.868
			c-4.896,6.12-15.912,7.344-22.644,11.628c-8.568,5.508-14.076,12.24-14.076,22.032c0,4.284,0.612,8.568,2.448,12.852
			c1.224,3.672,4.284,9.18,3.672,11.628c-1.224,7.956-10.404,14.076-15.912,20.196c-5.508,6.732-9.792,15.912-7.344,25.092
			c2.448,7.344,14.076,15.912,11.628,23.868c-0.612,3.06-4.896,4.896-6.732,7.344c-3.672,3.06-6.732,6.12-9.18,10.404
			c-4.896,9.18,0,15.912,4.284,23.868c6.12,11.628-7.344,15.912-14.688,22.032c-7.956,6.12-7.344,19.584-3.06,27.54
			c4.896,9.18,9.792-0.612,14.076-4.284c-0.612,0.612,1.836-1.224,1.836-1.224c3.06-0.612,1.224,4.284,0.612,6.12
			c-4.284,9.792-10.404,20.195-5.508,31.212c4.284,8.567,15.3,12.24,21.42,4.284c3.672-4.896,6.12-11.628,11.628-14.688l0,0
			c0.612,2.448-1.224,5.508-1.836,7.344c-1.836,4.896-1.224,8.568-2.448,13.465c0,0.611,0,1.224,0.612,2.447
			c-1.224,0.612-3.06,1.225-4.284,1.836c-1.836,0.612-4.284,1.836-6.12,2.448s-3.06,1.224-4.896,1.836
			c-12.24,4.896-25.704,9.18-37.944,15.3c-6.732,3.061-11.016,7.956-16.524,13.464c-6.732,6.732-6.732,14.688-9.18,23.257
			c-2.448,9.18-4.284,18.972-5.508,28.151c-1.836,9.792-3.672,19.584-3.672,29.376c0-0.611,0-0.611,0,0
			C87.516,572.256,84.456,568.584,82.008,565.524L82.008,565.524z M140.76,399.672c1.224-8.568,7.344-7.956,14.076-11.016
			c6.12-3.06,11.628-9.18,12.24-15.912c0.612-6.12-3.672-11.016-7.344-15.912c-4.284-6.732-1.224-12.24,4.896-16.524
			c4.284-3.06,9.792-6.12,11.628-11.628c2.448-6.12-1.224-12.852-4.284-17.748c-3.672-4.896-8.568-9.792-8.568-15.912
			c0-8.568,5.508-14.076,11.016-20.196c4.284-4.896,10.404-11.016,9.792-18.36c-0.612-7.344-6.12-13.464-7.956-20.808
			c-2.448-12.24,6.732-20.808,17.136-25.704c3.06-1.836,6.12-2.448,9.18-3.06c9.18-2.448,12.24-5.508,15.912-14.688
			c4.896-12.852,11.016-23.256,23.256-30.6c19.584-11.628,52.632-26.928,74.665-11.016c0,0-0.612,0-0.612-0.612
			c4.284,3.06,11.016,8.568,12.24,14.688c0.611,5.508-2.448,13.464-4.896,17.748c-6.12,11.016-19.584,14.688-31.212,16.524l0,0
			c1.224-3.06,3.06-4.284,2.448-7.956c0-3.672-1.836-7.344-4.284-10.404c-4.284-4.896-11.628-7.344-18.36-6.732
			c-23.868,1.836-12.24,29.376-7.344,42.84c6.732,17.748,11.016,39.78-7.344,52.02c-7.344,4.896-13.464,7.956-20.196,1.224
			c-7.344-7.344-17.748-9.18-25.704-1.836l0,0c2.448-7.344,12.24-11.016,19.584-11.628c9.18,0,15.912,3.672,24.48-2.448
			c13.464-9.792,4.284-23.868-3.06-34.272c-1.224-1.224-1.836-3.06-3.06-4.284c-3.672-4.284-4.896-0.612-4.284,3.672
			c2.448,8.568,4.896,17.748-0.612,25.704c-0.612,0.612-3.672,5.508-4.284,5.508c-1.224,0.612-3.672-0.612-4.896-0.612
			c-3.06,0-5.508,0-8.568,0.612c-4.896,1.224-9.792,2.448-14.076,5.508c-4.284,3.672-6.732,7.956-7.344,12.852
			c-0.612,3.06-1.224,12.24,3.672,12.24c3.06,0,3.06-3.06,4.284-5.508s3.06-4.284,4.896-5.508c3.06-1.836,9.792-3.06,12.852,0
			c-4.896,4.896-9.792,7.344-15.3,12.24c-7.956,7.344-4.284,15.3-1.224,23.868c3.672,9.18,3.06,17.136,0,26.316
			c-3.672,10.404-1.224,16.524,7.344,23.256l-0.612-0.612c6.732,5.508,10.404,11.016,7.956,19.584
			c-1.836,7.344-4.284,15.3-0.612,22.644c3.672,7.345,7.956,12.24,1.836,20.196c-4.896,6.12-6.732,11.016-6.12,19.584
			c0.612,9.792,1.836,27.54-12.852,26.316c-5.508-0.612-12.24-1.836-17.748-3.061c-6.732-1.224-6.12-4.284-6.12-9.792
			c0-4.896,3.06-10.403,1.224-15.3c-1.836-4.284-5.508-4.896-9.18-3.06c-4.896,3.06-7.956,7.956-11.628,12.239
			c-3.672,3.673-6.12,3.061-9.18-1.836c-4.896-8.567,1.836-17.748,4.284-25.704c1.224-5.508,0-13.464-6.732-13.464
			c-4.284,0-9.18,4.284-11.628,6.732l0,0c-1.224-2.448-2.448-5.508-2.448-8.568v0.612
			C140.148,402.732,140.148,401.508,140.76,399.672L140.76,399.672z M339.048,171.396c9.18-3.672,20.809,1.224,27.54,7.956
			c7.344,7.956,5.508,20.196,13.464,27.54c6.12,6.12,15.912,8.568,23.256,12.852c9.181,4.896,17.748,14.076,17.748,25.092
			s-9.792,20.808-3.06,31.824c5.508,8.568,22.644,4.284,25.704,14.688c1.224,3.06-1.225,6.12-2.448,9.18
			c-1.836,5.508-0.612,9.792,3.672,13.464c3.061,2.448,6.12,4.896,7.344,8.568c1.836,4.896-1.224,8.568-4.283,12.852
			c-4.284,5.508-10.404,15.3-7.345,23.256c1.225,3.672,4.896,5.508,7.956,7.956c3.672,3.06,3.672,5.508,1.836,8.568
			c-8.567,11.016-24.479,26.928-6.731,37.333c3.06,1.836,12.24,3.06,14.076,6.119c1.224,1.837,0,2.448-1.225,5.509
			c-3.672,7.344-5.508,15.3,2.448,20.195h-0.612c-6.119-1.224-12.852-7.344-18.972-4.283c-4.284,1.836-5.508,6.119-6.12,10.403
			c-0.611,2.448-0.611,4.896-1.836,6.732c0,0.611-1.836,0.611-0.612,0.611c-7.344,2.448-9.792-3.672-11.628-10.403
			c-0.611-3.061-1.224-7.344-4.283-8.568c-3.673-1.224-9.181,2.448-12.24,4.284c-3.672,1.224-16.524,3.672-18.36-1.224
			c-0.611-1.225,1.225-3.061,1.836-3.673c1.836-2.447,3.061-4.283,2.448-7.956c-0.612-3.06-2.448-6.119-3.672-9.18
			c-1.224-3.06-1.224-6.12-3.061-9.18c-2.447-5.508-2.447-10.404-1.836-15.912c0.612-6.732,1.225-13.464,1.225-20.196
			c0-8.568-1.225-16.524,0-24.48c0,0,0,0,0,0.612c0-0.612,0-0.612,0,0c2.448-15.3,7.344-31.212,6.731-46.512
			c-0.611-15.3-6.12-30.6-7.956-45.9c-1.836-15.3-1.836-32.436-9.18-45.9c-7.344-14.076-28.764-26.316-44.676-23.256l0,0
			c2.448-3.672,3.06-9.18,6.731-12.24C334.152,173.844,336.6,172.62,339.048,171.396
			C338.436,172.008,338.436,171.396,339.048,171.396L339.048,171.396z M331.092,176.292
			C331.704,175.68,331.092,176.292,331.092,176.292L331.092,176.292z M256.428,275.436c12.24-6.732,18.972-17.136,18.972-31.212
			c0-14.076-5.508-26.928-8.568-40.392c-1.224-4.896-3.06-11.628-0.612-16.524c3.06-4.896,9.792-5.508,15.3-3.06
			c4.284,1.836,6.732,6.12,6.732,11.016c0,1.836,0,2.448-0.612,4.896c-0.612,1.836-1.224,2.448-0.612,4.284
			c1.224,2.448,4.896,2.448,7.344,1.836c6.732-0.612,11.628-4.284,17.748-6.732c4.896-1.836,12.24-1.836,17.748,0
			c2.448,1.224,4.896,3.06,7.344,3.672c3.061,1.224,5.508,1.224,8.568,2.448c6.12,2.448,10.403,7.344,13.464,12.852
			c6.12,10.404,10.404,21.42,10.404,33.66c0,13.464,0.611,25.704,4.283,38.556c4.284,14.076,0.612,26.928-0.611,41.004
			c-0.612,7.956-3.061,15.3-2.448,23.256c0.612,5.508-4.284,9.18-8.568,12.852c0,1.836-7.956,5.508-9.792,5.508
			c-5.508-0.612-10.403-8.568-14.075-12.24c-1.837-1.836-4.896-4.284-7.345-4.896c-3.672-0.612-5.508,1.224-9.18,1.224
			c-4.284,0-9.792-3.672-12.852-3.06c-3.672,0.612-6.732,2.448-10.404,3.06c-3.06,0-5.508-1.836-9.18-1.836
			c-6.12-0.612-11.016,4.896-13.464,8.568c-1.224,1.224-3.06,0.612-4.284,1.224c-1.836,0.612-3.06,2.448-4.896,3.672
			c-3.672,2.448-6.12,3.06-10.404,3.06c-4.896,0-15.912,0.612-18.36-4.896c-6.732-14.076-4.896-31.824-11.016-46.512
			c-2.448-6.732-4.284-13.464-6.732-20.808c-3.06-10.404,6.12-13.464,14.076-16.524c-2.448,3.672,0.612,6.12,4.284,5.508
			c2.448-0.612,4.896-1.836,7.344-2.448c2.448-0.612,5.508-1.224,7.956-1.224c8.568-1.224,20.808,1.224,28.152-3.06
			c3.06-1.224,2.448-5.508-0.612-7.344c-1.224-0.612-3.06-1.224-4.896-1.224c-0.612,0-8.568,1.224-5.508,0.612
			C266.832,274.212,260.1,273.6,256.428,275.436L256.428,275.436z M317.016,193.428
			C316.404,193.428,316.404,193.428,317.016,193.428L317.016,193.428z M179.316,220.968L179.316,220.968L179.316,220.968z
			 M261.324,274.824L261.324,274.824L261.324,274.824z M239.904,279.108C240.516,279.72,238.68,280.332,239.904,279.108
			L239.904,279.108z M280.908,281.556L280.908,281.556L280.908,281.556z M321.912,356.832
			C321.3,356.832,321.3,356.832,321.912,356.832L321.912,356.832z M298.656,359.28c3.06-0.612,7.344-3.06,10.404-2.448
			c3.673,0.612,5.509,4.284,9.792,5.508c3.061,0.612,4.896-1.836,7.956-1.224c3.061,0,5.509,3.06,7.345,4.896
			c6.119,5.508,11.628,9.792,18.972,12.852c6.731,3.06,10.404-1.836,16.524-4.896c0,7.956-1.837,16.524-5.509,23.868
			c-1.836,4.284-5.508,7.344-9.18,10.404c-0.612,0.611-2.448,3.06-3.672,3.06c-0.612,0-2.448-2.448-3.672-2.448
			c-3.061,0-4.284,3.673-6.12,4.896c-2.448,1.224-3.061,0-6.12,1.224c-3.672,1.836-6.12,5.509-8.568,7.345
			c-3.672,2.447-7.344,2.447-11.016,4.283c-2.448,1.836-5.508,7.345-7.956,6.732c-1.224,0-1.836-2.448-3.06-3.061
			c-3.06-0.611-3.672,1.225-6.12,2.448c-3.06,1.225-4.284,0.612-7.956-1.224c-1.836-1.225-3.06-2.448-4.896-3.061
			c-2.448-0.611-2.448,0.612-4.896,0.612c-0.612,0.612-0.612,0.612-1.224,1.224c0,0,0,0-0.612,0c-1.224,0-3.672-4.283-4.284-4.896
			l0,0c-1.836-2.448-3.672-8.568-6.12-10.404c-4.284-2.447-4.896,3.061-6.732,5.509c-2.448-1.837-3.672-4.284-5.508-6.732
			c-1.224-1.224-1.836-2.448-3.672-3.061c-0.612,0-1.836,0.612-2.448,0.612c-3.672-1.224-7.344-7.344-9.18-11.016
			c-3.06-6.12-7.344-14.688-4.896-20.808c0-1.224,0.612-2.448,0.612-3.672c1.836,1.224,4.284,3.672,7.344,3.672
			c4.896,0.612,12.24-1.224,17.136-3.672c3.06-1.224,5.508-2.448,7.956-4.896c1.224-1.224,4.896-4.284,4.896-4.284
			c2.448-0.612,3.06,0,4.896-1.836c1.836-1.224,3.06-4.284,4.896-5.508c3.06-2.448,6.12-2.448,9.18-1.224
			C293.76,359.28,296.82,361.728,298.656,359.28L298.656,359.28z M326.808,360.504C326.196,360.504,326.196,360.504,326.808,360.504
			L326.808,360.504z M266.22,367.848L266.22,367.848L266.22,367.848z M240.516,369.072
			C241.128,369.072,241.128,369.072,240.516,369.072L240.516,369.072z M249.084,371.52L249.084,371.52L249.084,371.52z
			 M257.652,377.028C257.04,377.028,257.04,377.028,257.652,377.028L257.652,377.028z M243.576,405.18L243.576,405.18
			L243.576,405.18z M155.448,410.688L155.448,410.688L155.448,410.688z M155.448,410.688L155.448,410.688L155.448,410.688z
			 M155.448,410.688L155.448,410.688L155.448,410.688z M155.448,410.688L155.448,410.688L155.448,410.688z M155.448,410.688
			L155.448,410.688L155.448,410.688z M155.448,410.688L155.448,410.688L155.448,410.688z M249.696,411.3L249.696,411.3
			L249.696,411.3z M353.124,417.42c3.672-0.612,6.732-3.672,9.18-6.12c0.612,1.836-7.344,9.181-8.567,11.017
			c-3.672,4.896-7.345,10.403-10.404,15.911c-6.12,11.017-13.464,23.257-16.524,35.496c-1.224,6.12-1.836,12.24-1.836,18.36
			c0,3.06,0.612,6.732-0.611,9.18c-0.612,2.448-2.448,4.896-3.061,7.345c-3.672,11.016-14.688,17.136-21.42,26.315
			c-4.896-9.792-13.464-15.912-20.196-23.868c-4.284-4.284-4.896-9.792-6.12-15.912c-0.612-6.119-2.448-11.628-4.284-17.136
			c-3.672-10.404-7.344-19.584-11.628-29.376c-4.284-11.628-11.016-24.479-12.24-36.72c1.224,1.224,1.836,1.224,3.06,1.836
			c1.224,0.612,1.836-0.612,2.448-0.612c1.224,0.612,3.06,3.672,4.284,4.896c3.672,4.284,7.344,9.18,11.016,1.836
			c2.448,4.284,4.896,9.18,8.568,12.24c1.836,1.224,3.06,2.447,4.896,2.447l3.672-1.836c0,0,1.224,0.612,0,0
			c6.732,3.672,11.628,9.181,18.972,3.672c3.06,4.896,7.344,3.673,11.016,0c1.836-1.224,3.061-4.283,4.896-5.508
			c1.224-0.612,3.672,0,4.896-0.612c4.896-1.224,7.956-5.508,12.24-7.344c2.448-1.224,3.06,0,5.508-0.611
			c2.448-0.612,4.284-4.284,6.12-6.12C348.84,417.42,350.676,418.032,353.124,417.42L353.124,417.42z M364.14,662.832
			c0.612-21.42,1.225-43.452,1.225-64.872c0-10.404,0-21.42,0.611-31.824c0-9.792,1.836-18.972,3.673-28.764
			c1.836-10.404,3.672-21.42,4.283-31.824c0.612-9.792,0-20.196,0.612-29.988c0.612-10.403,2.448-20.808,3.06-31.823
			c0.612-11.017-0.611-19.584-3.672-29.988c3.672,1.836,3.061,0,3.672,3.672c0,1.836,0,3.061,0,4.896
			c0.612,3.06,1.837,4.896,3.061,7.344c0.612,1.836,0.612,0.612,0.612,2.448c0,1.224-1.836,3.06-1.836,4.896
			c-0.612,4.284,1.224,6.732,5.508,8.568c6.12,2.448,13.464,2.448,19.584,0c2.448-1.225,6.731-4.284,9.18-3.672
			c1.224,0,1.224,0.611,0.612,0.611c0.611,10.404,1.836,23.256,15.3,23.868c1.836,0,3.672,0,5.508-0.612
			c3.672-1.224,3.672-1.224,7.344,0c4.896,1.837,10.404,2.448,15.301,3.673c11.016,3.06,23.256,6.119,33.659,11.016
			c7.956,3.672,8.568,19.584,9.792,27.54c3.061,23.868,3.061,47.736,4.284,72.216c0,2.448,0,4.896,0.612,7.344
			c0,1.836,1.224,6.12,0.612,7.345c-1.225,3.06-9.181,8.567-11.629,11.016c-4.896,4.284-11.628,10.404-15.911,13.464
			c-7.345,4.284-14.076,10.404-21.42,14.688c-9.792,6.119-19.584,11.628-29.376,16.523c-20.196,9.792-42.229,17.137-64.261,21.42
			C364.14,668.34,364.14,665.892,364.14,662.832L364.14,662.832z M250.92,413.136C250.92,413.136,251.532,413.748,250.92,413.136
			L250.92,413.136z M251.532,413.748L251.532,413.748L251.532,413.748z M252.144,413.748L252.144,413.748L252.144,413.748z
			 M361.692,418.644c1.224-1.224,2.447-3.06,4.283-4.283c2.448,9.18,4.284,17.136,3.673,26.315
			c-0.612,10.404-2.448,20.196-3.061,30.601c-2.448,21.42-2.448,42.84-4.896,63.647c-3.061-15.3-4.284-31.824-9.792-46.512
			c-1.225-4.284-4.284-14.076-9.792-15.3c-6.12-0.612-9.181,11.628-10.404,15.912c0-4.284,0.612-8.568,0.612-12.853
			c0,1.836,1.224-4.284,1.224-4.896c0.612-1.836,1.224-3.673,1.836-5.509c1.836-5.508,4.284-10.403,6.732-15.911
			c4.896-10.404,10.403-20.809,17.748-29.988C359.244,421.704,361.692,418.644,361.692,418.644L361.692,418.644z M262.548,417.42
			C262.548,418.032,262.548,418.032,262.548,417.42L262.548,417.42z M231.336,468.216c-0.612-9.18,0.612-18.359-0.612-27.54
			c-0.612-4.284-1.836-8.567,0-12.24c1.836-3.672,5.508-5.508,7.344-9.18c2.448,3.061,3.672,9.792,4.896,13.464
			c1.836,4.284,3.06,8.568,4.896,12.853c3.06,7.344,7.956,14.688,6.732,22.644c-3.672,20.809-6.732,41.616-13.464,61.812
			C238.68,509.22,233.172,489.024,231.336,468.216L231.336,468.216z M261.324,419.868
			C261.324,419.868,261.936,420.48,261.324,419.868L261.324,419.868z M279.684,429.66
			C279.684,429.66,279.072,430.271,279.684,429.66L279.684,429.66z M319.464,430.271L319.464,430.271L319.464,430.271z
			 M318.852,430.271L318.852,430.271L318.852,430.271z M381.276,430.271C381.276,430.884,381.276,430.884,381.276,430.271
			L381.276,430.271z M318.852,430.884L318.852,430.884L318.852,430.884z M283.356,432.108
			C283.356,432.72,283.356,432.72,283.356,432.108L283.356,432.108z M381.276,432.72
			C381.276,433.332,381.276,433.332,381.276,432.72L381.276,432.72z M309.06,433.332C309.06,433.944,309.06,433.944,309.06,433.332
			L309.06,433.332z M295.596,434.556C296.208,434.556,296.208,434.556,295.596,434.556L295.596,434.556z M182.376,437.004
			C182.376,437.004,181.764,437.616,182.376,437.004L182.376,437.004z M413.1,440.676L413.1,440.676L413.1,440.676z M413.1,441.288
			C412.488,441.288,412.488,441.288,413.1,441.288L413.1,441.288z M441.864,444.96C441.864,444.96,441.864,445.572,441.864,444.96
			L441.864,444.96z M163.404,448.632C164.628,448.632,163.404,448.632,163.404,448.632L163.404,448.632z M220.932,461.484
			C220.32,461.484,220.32,461.484,220.932,461.484L220.932,461.484z M251.532,522.684c3.06-9.792,4.896-19.584,6.12-29.376
			c1.224-8.567,0.612-17.748,3.672-25.704c3.06,9.792,6.732,18.973,6.732,29.376c0.612,10.404,4.284,17.137,11.628,24.48
			c4.284,4.284,17.136,15.912,14.688,21.42c-1.224,3.06-5.508,5.508-7.344,8.568c-1.836,3.672-3.06,7.956-4.284,12.239
			c-3.672,18.36-1.224,39.168,1.836,57.528c1.836,9.18,4.284,18.36,7.344,26.928c1.224,4.284,3.06,9.181,4.284,13.465
			c0.612,1.836,1.836,9.18,4.284,9.792c-1.224,1.224-4.284,4.896-5.508,4.896c-1.836-0.612-3.672-6.12-4.284-7.956
			c0.612,1.836-0.612-0.612-0.612-1.224c-0.612-1.225-1.224-2.448-1.836-4.284c-1.224-3.061-2.448-6.12-3.672-9.18
			c-2.448-5.509-4.896-11.017-6.732-16.524c-4.896-13.464-8.568-26.928-12.24-40.392c-3.672-12.853-6.732-25.704-9.792-38.557
			c-1.224-5.508-2.448-10.403-3.672-15.912c-0.612-2.447,0-11.628-4.896-10.403C249.696,528.192,250.308,525.132,251.532,522.684
			L251.532,522.684z M158.508,519.624c5.508-6.12,9.18-15.912,12.852-23.256c2.448-4.284,4.284-9.181,6.732-13.464
			c1.836-4.284,3.672-9.181,6.732-12.853c1.836-2.448,1.224-1.836,4.896-1.224c1.836,0.612,4.284,0,6.12,0.612
			c3.672,0,7.344,0,11.016,1.224c6.732,1.836,11.016,2.448,17.748-1.836c1.224,14.076,3.06,27.54,5.508,41.004
			c1.224,6.732,3.06,14.076,3.672,20.808c0.612,6.732,0,13.464-0.612,20.196c-0.612,14.688-1.224,29.376,0,44.064
			c0.612,7.344,1.224,14.688,1.836,22.644c0.612,3.672,0.612,7.344,1.224,11.016c0,1.837,0.612,3.061,0.612,4.896
			c0,0,1.224,7.344,0.612,3.672c1.224,10.404,3.06,20.196,5.508,30.601c-17.748-4.284-34.884-9.793-51.408-17.748
			c-6.732-3.061-9.792-15.301-12.852-22.032c-3.06-7.956-6.12-15.3-8.568-23.256c-5.508-17.137-11.016-33.66-15.912-50.797
			c-3.06-11.016-8.568-23.867-6.732-36.107C149.328,519.012,155.448,523.296,158.508,519.624L158.508,519.624z M133.416,616.932
			c-6.12-4.896-12.852-10.403-18.36-15.912c-1.224-1.224-4.896-3.672-5.508-4.896c-0.612-1.224,0-4.896,0-6.12
			c0-4.284,0.612-7.956,0.612-12.24c1.224-17.136,2.448-33.66,4.284-50.796c0.612-6.731,0-16.523,2.448-23.256
			c1.836-4.896,12.852-8.568,17.748-11.628c13.464-8.568,27.54-14.688,42.84-20.808c-4.284,7.955-7.956,15.911-12.24,23.256
			c-2.448,4.284-4.284,8.567-6.732,12.852c-0.612,1.224-1.224,3.061-2.448,4.284c-1.836,2.448-0.612,1.836-3.06,1.836
			c-3.06,0-6.732-3.06-9.792-1.836c-2.448,1.224-3.06,4.284-3.672,6.732c-1.224,7.344,0.612,16.523,2.448,23.867
			c3.672,17.137,9.792,34.272,14.688,51.408c4.896,16.524,10.404,33.048,17.748,49.572
			C159.732,635.292,146.268,626.724,133.416,616.932L133.416,616.932z M300.492,656.712c-5.508-16.524-10.404-32.436-11.016-50.184
			c-1.224-16.524-2.448-33.66,3.672-50.185c5.508-14.076,18.36-23.868,29.376-33.048c12.239-10.404,10.403-28.764,17.747-42.228
			c3.673,7.956,5.509,17.136,7.345,26.315c0.611,3.061,2.448,8.568,1.836,11.628c-0.612,1.836-1.836,4.284-2.448,6.732
			c-1.836,14.688-4.284,29.376-7.956,43.452c-7.956,33.66-12.24,72.828-36.108,99.756
			C302.94,664.668,301.716,660.384,300.492,656.712L300.492,656.712z M338.436,486.576
			C337.824,486.576,337.824,486.576,338.436,486.576L338.436,486.576z M353.124,552.672
			C353.124,553.284,353.124,553.284,353.124,552.672L353.124,552.672z M236.844,559.404v3.06
			C236.844,561.24,236.844,560.628,236.844,559.404L236.844,559.404z M288.864,572.868
			C288.864,573.48,288.864,573.48,288.864,572.868L288.864,572.868z M244.8,631.62C244.8,631.008,244.8,631.62,244.8,631.62
			L244.8,631.62z M244.8,632.232L244.8,632.232L244.8,632.232z M245.412,637.128C245.412,637.128,245.412,637.74,245.412,637.128
			L245.412,637.128z M195.84,653.652c0.612,0,0.612,0.611,1.224,0.611C196.452,653.652,195.84,653.652,195.84,653.652
			L195.84,653.652z M269.892,673.848c0.612,0,2.448,0.612,3.06,0.612C272.34,673.848,269.892,673.848,269.892,673.848
			L269.892,673.848z M287.028,673.848c0,0.612,0.612,1.225,0.612,1.836C287.64,675.684,287.028,675.072,287.028,673.848
			L287.028,673.848z M313.956,676.296c1.224,0,3.06,0,4.284,0C317.016,676.296,315.18,676.296,313.956,676.296L313.956,676.296z"/>
		<path fill="#232323" d="M245.412,528.804c-0.612,3.672-1.836,7.345-1.224,11.017c0.612,2.447,3.06,6.12,5.508,2.447
			c1.224-1.836,0.612-8.567,0.612-10.403c0-1.225,0-4.284-1.836-4.896C247.248,526.968,246.024,527.58,245.412,528.804
			L245.412,528.804z"/>
		<path fill="#232323" d="M247.248,528.804c0,1.836-1.836,15.3,2.448,9.792c0.612-0.611,1.224-9.18,0.612-9.792
			C249.696,527.58,247.248,525.744,247.248,528.804L247.248,528.804z"/>
		<path fill="#232323" d="M118.728,485.352c-3.06,1.836-6.12,4.284-9.18,6.12c-7.344,5.509-8.568,16.524-11.016,25.093
			c-5.508,20.808-10.404,44.676-8.568,66.096c0,3.672,2.448,9.18,6.732,5.508c3.06-2.448,1.836-12.852,2.448-16.524
			c1.224-11.628,3.06-23.256,4.896-34.884s4.896-22.644,7.344-34.271c1.224-4.896,3.672-6.732,7.956-9.792
			C121.788,490.86,125.46,484.74,118.728,485.352L118.728,485.352z M113.22,498.204C112.608,498.816,112.608,498.816,113.22,498.204
			L113.22,498.204z M112.608,498.816C111.996,499.428,111.996,499.428,112.608,498.816L112.608,498.816z M102.816,549.612
			C102.816,550.224,102.816,550.224,102.816,549.612L102.816,549.612z"/>
		<path fill="#232323" d="M133.416,487.188c-2.448,2.448-2.448,6.12-3.672,9.181c-1.224,5.508-2.448,11.016-3.06,16.523
			c-1.836,11.017-2.448,22.645-2.448,34.272c-0.612,20.808-3.672,42.228-0.612,63.036c0.612,4.896,3.06,23.868,11.628,21.42
			c4.896-1.224,3.672-6.732,3.06-11.017c-0.612-6.119-1.224-12.239-2.448-18.359c-2.448-20.809-2.448-42.229-0.612-63.036
			c0.612-11.016,1.836-21.42,3.672-32.437c0.612-4.896,2.448-9.792,2.448-14.075C141.984,487.8,137.7,482.904,133.416,487.188
			L133.416,487.188z M127.908,519.012v0.612V519.012L127.908,519.012z M138.312,618.156
			C138.312,619.38,138.312,619.38,138.312,618.156L138.312,618.156z"/>
		<path fill="#232323" d="M154.836,474.948c-1.836,9.18-3.672,18.359-3.672,28.151c0,3.672-1.224,9.792,3.06,11.628
			c3.672,1.837,5.508-1.836,6.732-4.896c1.836-7.956,1.224-17.136,2.448-25.704c0.612-3.06,2.448-7.956,0.612-11.016
			C160.956,470.052,155.448,470.664,154.836,474.948L154.836,474.948z"/>
		<path fill="#232323" d="M151.776,571.032c-4.896,3.06-3.06,14.076-2.448,18.972c0.612,6.732,0.612,13.464,0.612,20.808
			c0,6.732,0.612,13.465,1.224,20.196c0.612,3.672,1.224,9.792,6.732,7.956c4.896-1.836,3.06-9.18,3.06-12.852
			c0-7.345,0-14.688,0-22.032C160.956,598.572,163.404,564.3,151.776,571.032L151.776,571.032z"/>
		<path fill="#232323" d="M438.804,456.588c-2.448,2.448,11.628,12.853,13.464,14.688c2.448,2.447,4.896,5.508,6.732,8.567
			c1.836,1.836,8.568,9.181,8.568,11.017c0,2.447-6.12,6.731-7.956,7.956c-3.061,3.06-5.509,6.12-8.568,8.567
			c-4.896,4.896-15.912,11.017-17.136,18.36c-0.612,3.06,0.611,6.12,2.447,8.568c1.225,1.224,4.284,4.283,4.896,6.119
			c0.612,2.448-1.836,9.181-2.448,11.629c-1.224,4.896-2.448,9.792-4.284,14.688c-5.508,17.136-8.567,34.272-12.852,52.02
			c-1.836,7.957-4.284,15.912-6.12,23.868c-1.224,4.284-7.956,20.809-0.612,22.645c6.732,1.836,8.568-10.404,9.792-14.688
			c2.448-9.18,4.896-18.972,7.345-28.151c4.283-17.137,8.567-34.272,12.239-52.021c1.837-7.956,3.673-15.912,4.896-24.479
			c0.612-3.061,1.836-6.732,0.612-9.792c-1.225-3.672-5.509-6.12-6.12-9.792c-0.612-2.448,0.611-2.448,2.448-4.284
			c1.836-1.225,3.672-3.061,4.896-4.284c3.06-3.06,6.12-6.12,9.18-9.18c3.672-4.896,15.912-15.3,12.853-22.645
			C471.24,482.904,442.476,452.916,438.804,456.588L438.804,456.588z M458.388,479.232L458.388,479.232L458.388,479.232z
			 M467.568,490.86L467.568,490.86L467.568,490.86z M467.568,490.86C468.18,491.472,467.568,490.86,467.568,490.86L467.568,490.86z"
			/>
		<path fill="#232323" d="M480.42,469.44c-4.284,1.224-2.448,7.344-1.836,10.403c1.224,6.732,1.224,20.809,0.612,29.988
			c0,11.016-0.612,22.032,0,33.048c0.611,21.42,0.611,42.229,3.06,63.648c0.612,5.508,0.612,18.972,9.18,17.748
			c8.568-1.225,6.12-17.748,5.509-23.868c-1.225-22.032-3.061-43.452-4.896-65.484c-1.224-12.24-1.836-25.092-3.06-37.332
			C487.764,493.308,487.764,466.992,480.42,469.44L480.42,469.44z M477.972,479.232C477.972,479.232,477.972,478.62,477.972,479.232
			L477.972,479.232z"/>
		<path fill="#232323" d="M461.448,466.38c-3.061,3.061,0,13.464,1.224,17.136c0.612,3.061,3.672,7.956,6.732,3.061
			c1.836-2.448-0.612-11.017-1.225-14.076C467.568,470.052,466.344,462.096,461.448,466.38L461.448,466.38z M468.792,476.784
			C468.792,477.396,468.792,477.396,468.792,476.784L468.792,476.784z"/>
		<path fill="#232323" d="M459.612,504.324c0,26.315-1.225,52.632-0.612,78.336c0.612,12.852,0.612,25.092,0,37.332
			c0,4.284-2.448,13.464-0.612,17.748c3.061,6.12,7.345-0.612,8.568-3.672c3.06-11.017,3.06-23.868,3.06-35.496
			c0-12.853,0-25.704-0.611-37.944c0-12.852-0.612-25.092-1.225-37.944c0-5.508,0.612-12.852-0.611-18.359
			C466.344,500.04,459.612,498.816,459.612,504.324L459.612,504.324z"/>
		<path fill="#232323" d="M443.7,522.072c0,26.315-1.225,52.02-3.672,77.724c-1.225,11.628-2.448,23.868-3.672,35.496
			c-0.612,4.284-1.837,10.404-0.612,14.688c1.836,4.896,7.344,5.508,11.016,1.224c3.061-4.284,2.448-11.017,3.061-15.912
			c0.611-5.508,0.611-11.628,0.611-17.136c0.612-12.853,0.612-25.092,0.612-37.944c0-12.24-1.224-24.479-1.224-36.72
			c0-6.12-0.612-12.853-0.612-18.973c0-1.836,0.612-5.508-1.224-6.119C446.148,519.012,443.7,520.236,443.7,522.072L443.7,522.072z"
			/>
		<path fill="#232323" d="M154.224,514.116c-2.448,3.672-0.612,9.18,0.612,12.852c1.836,6.12,4.284,12.24,6.732,18.36
			c4.284,11.628,7.956,23.256,12.24,34.884c8.568,23.256,16.524,47.124,25.704,70.38c1.836,4.896,6.732,24.48,14.688,22.032
			c5.508-1.836,3.672-7.344,1.836-11.016c-2.448-5.509-4.284-11.629-6.732-17.137c-8.568-22.032-17.748-43.452-25.704-65.483
			c-4.896-13.464-9.18-27.54-14.076-41.004c-1.836-6.12-4.284-12.853-5.508-19.584C162.792,514.116,157.896,507.384,154.224,514.116
			L154.224,514.116z"/>
		<path fill="#232323" d="M171.972,487.188c-5.508,1.837-2.448,13.465-1.836,17.137c1.224,7.344,2.448,15.3,4.284,22.644
			c3.06,13.464,8.568,25.704,14.076,37.944c11.628,25.092,20.808,50.796,33.048,75.275c3.06,5.509,6.12,11.629,9.792,17.137
			c2.448,3.06,7.344,11.628,11.628,11.628c5.508,0,3.06-5.508,1.224-7.956s-3.06-4.284-4.284-7.344
			c-1.224-3.061-2.448-6.732-3.672-9.792c-6.12-13.464-13.464-25.704-19.584-39.168c-4.896-11.628-9.792-23.257-14.076-34.885
			c-6.12-15.3-11.628-30.6-16.524-45.899c-2.448-7.956-4.896-15.912-6.12-23.868C179.316,496.368,178.704,485.352,171.972,487.188
			L171.972,487.188z M245.412,662.832C245.412,663.444,245.412,663.444,245.412,662.832L245.412,662.832z"/>
		<path fill="#232323" d="M175.644,488.412c-1.224,1.224,0,11.016,3.06,6.731C179.316,494.532,178.704,485.964,175.644,488.412
			L175.644,488.412z"/>
		<path fill="#232323" d="M175.644,489.636c0,1.836,1.224,11.017,3.672,5.508c0-0.611,0-4.896-0.612-5.508
			C178.092,488.412,175.644,486.576,175.644,489.636L175.644,489.636z"/>
		<path fill="#232323" d="M175.032,482.292c0,3.06-0.612,6.732,0,9.792c0.612,2.448,2.448,4.896,3.672,1.224
			c0.612-1.836,0-6.731,0-8.567c0-1.225,0.612-3.061-1.224-3.672C176.256,480.456,175.032,481.068,175.032,482.292L175.032,482.292z
			"/>
		<path fill="#232323" d="M184.212,464.544c-7.344,1.836,2.448,22.032,3.672,26.316c3.06,10.403,7.344,20.808,11.016,31.823
			c7.344,20.196,16.524,39.78,25.092,59.364c1.836,4.896,7.956,25.092,15.3,21.42c7.344-3.672-3.06-18.972-4.896-23.256
			c-9.18-20.196-18.972-40.392-26.928-61.2c-4.284-10.403-7.956-21.42-11.016-32.436c-1.836-6.12-2.448-12.24-4.284-17.748
			C191.556,464.544,187.272,459.036,184.212,464.544L184.212,464.544z"/>
		<path fill="#232323" d="M209.916,467.604c0.612-1.224-6.12-0.611-7.956,1.225c-2.448,3.06,0,7.956,1.224,11.628
			c1.224,4.896,3.06,9.18,4.896,13.464c0.612,1.836,1.224,3.672,2.448,5.508c0.612,0.612,3.06,7.956,1.836,4.284
			c5.508,13.464,9.792,27.54,15.912,41.004c1.836,4.284,4.896,14.688,11.628,10.404c5.508-3.672,0-14.076-1.836-18.36
			c-4.284-14.076-9.18-28.151-12.852-42.84c-1.836-6.12-4.284-12.24-4.896-18.972c-0.612-3.061-0.612-6.12-3.06-8.568
			C214.812,465.156,211.14,464.544,209.916,467.604L209.916,467.604z"/>
		<path fill="#232323" d="M432.684,523.908c-10.403,19.584-15.912,40.392-22.644,61.2c-7.344,22.031-11.628,44.676-16.524,67.319
			c-0.611,3.672-7.956,23.256-1.836,24.48c6.732,1.836,9.792-20.196,11.017-24.48c2.447-11.628,7.344-22.644,10.403-34.271
			c3.672-11.017,6.732-22.032,9.792-33.048c3.673-12.24,7.956-24.48,10.404-37.332c1.224-5.509,1.836-11.017,3.06-16.524
			c0.612-1.836,2.448-5.508,1.225-7.344C436.968,522.072,433.908,521.46,432.684,523.908L432.684,523.908z"/>
		<path fill="#232323" d="M452.268,468.828c-7.956,1.836-14.688,9.18-19.584,15.3c-5.508,6.12-10.403,13.464-14.075,20.808
			c-9.181,17.137-17.137,36.108-23.257,55.08c-6.119,18.36-13.464,35.496-17.748,54.469c-4.283,18.359-7.344,36.72-9.792,55.08
			c0-2.448,0,2.447,0,3.06c0.612,1.224,2.448,2.448,4.284,2.448c3.672-0.612,4.896-7.344,5.508-10.404
			c3.061-10.404,6.12-20.196,8.568-30.6c5.508-20.809,13.464-42.229,20.196-62.424c6.731-20.196,16.523-40.393,26.315-58.752
			c4.896-9.181,10.404-18.973,17.137-27.54c2.447-3.061,5.508-5.509,7.344-9.181C457.776,472.5,456.552,468.216,452.268,468.828
			L452.268,468.828z"/>
		<path fill="#232323" d="M429.624,455.976c-21.42,15.301-36.72,37.944-47.124,62.425c-10.404,25.092-13.464,52.632-18.972,79.56
			c-1.225,6.12-2.448,11.628-3.061,17.748c0,1.836-2.448,13.464,1.225,12.24c2.447-0.612,5.508-12.853,6.119-15.3
			c2.448-6.12,4.284-12.24,6.12-18.973c3.672-14.076,7.956-27.54,12.24-41.004c3.672-12.852,7.344-25.092,12.853-37.332
			c5.508-12.852,12.852-25.704,21.42-36.72c4.283-5.508,9.18-9.792,12.852-15.3c1.836-1.836,3.672-3.061,1.836-6.12
			C433.908,455.364,431.46,454.752,429.624,455.976L429.624,455.976z M415.548,481.68
			C414.936,482.292,415.548,481.68,415.548,481.68L415.548,481.68z M362.916,626.112
			C362.304,626.724,362.304,626.724,362.916,626.112L362.916,626.112z"/>
		<path fill="#232323" d="M432.684,459.648c-1.224,1.224-8.567,6.119-3.06,5.508c0.612,0,4.284-2.448,4.284-3.061
			C435.132,460.872,435.132,457.812,432.684,459.648L432.684,459.648z"/>
		<path fill="#232323" d="M414.936,442.512c-1.836,1.225-1.836,2.448-3.06,3.672c-0.612,0.612-2.448,2.448-3.06,3.061
			c-3.673,3.06-7.956,6.731-11.629,10.404c-6.731,6.731-12.852,14.075-16.523,22.644c-4.284,8.568-6.732,17.748-9.18,26.316
			c-1.225,3.672-2.448,8.567-2.448,12.239c0,4.896,3.06,3.672,4.896,0c7.345-18.359,16.524-36.107,27.54-52.02
			c4.284-6.12,9.181-13.464,15.3-17.136c2.448-1.836,7.956-3.061,4.896-7.956C419.832,442.512,416.771,441.9,414.936,442.512
			L414.936,442.512z M419.832,446.796L419.832,446.796L419.832,446.796z M419.832,446.796
			C420.444,446.796,420.444,446.796,419.832,446.796L419.832,446.796z M403.92,463.932
			C403.92,464.544,403.92,464.544,403.92,463.932L403.92,463.932z"/>
		<path fill="#232323" d="M400.248,441.288c-10.404,4.896-17.136,14.076-23.256,23.868c-1.836,3.672-6.12,7.956-6.732,12.24
			c-0.611,6.119,4.896,6.119,7.956,2.447c6.12-7.344,9.181-17.748,16.524-23.868c3.06-3.06,11.628-6.119,11.016-11.016
			C406.98,441.288,403.308,440.064,400.248,441.288L400.248,441.288z M395.352,455.976
			C394.74,456.588,394.74,456.588,395.352,455.976L395.352,455.976z M391.68,456.588C391.68,456.588,391.68,457.2,391.68,456.588
			L391.68,456.588z M392.292,459.036C391.68,459.648,391.68,459.648,392.292,459.036L392.292,459.036z M391.68,460.26L391.68,460.26
			L391.68,460.26z"/>
		<path fill="#232323" d="M411.876,435.78c-3.672,0.611-16.524,9.18-10.404,12.852c3.061,1.836,4.284-1.836,6.732-2.448
			c3.06-1.224,2.448-0.611,3.672,2.448c2.448,5.508,3.672,11.017,8.568,14.688c3.06,2.447,10.403,4.283,12.852,0
			c3.061-4.896-4.284-5.509-6.731-7.345C421.056,451.692,421.668,434.556,411.876,435.78L411.876,435.78z M411.876,444.348
			C411.876,444.348,412.488,444.348,411.876,444.348L411.876,444.348z M425.952,455.364
			C426.564,455.976,426.564,455.976,425.952,455.364L425.952,455.364z"/>
		<path fill="#232323" d="M446.76,441.288c-8.567,0-11.016,9.792-18.972,11.628c-3.061,0.612-5.508-0.612-7.344,3.672
			c-1.225,3.672,0.611,6.732,3.672,7.956c7.956,2.448,15.3-3.06,18.359-9.792c0.612-1.836,1.225-6.732,3.061-7.344l0,0l0,0l0,0l0,0
			c0.612-0.612,9.18,4.896,11.628,4.896c3.672,1.225,7.956-1.224,4.284-4.896C459,443.736,450.432,441.288,446.76,441.288
			L446.76,441.288z"/>
		<path fill="#232323" d="M383.724,440.064c-1.836,0.611-3.06,2.447-4.896,3.672c-1.836,1.836-5.508,3.672-7.344,6.12
			c-1.225,1.836-1.836,4.283,0.611,5.508c2.448,1.836,3.672,0,5.508-1.225c3.061-1.836,7.345-3.06,9.793-6.12
			C391.68,444.96,389.844,438.84,383.724,440.064L383.724,440.064z"/>
		<path fill="#232323" d="M370.26,413.748c0,4.896,1.225,9.18,3.061,13.464c1.836,4.896,1.224,7.344,1.224,12.24
			c0,3.06-0.612,7.344,3.06,9.18c4.284,1.225,5.509-2.448,6.12-5.508c1.836-9.18,0-15.912-1.836-24.48
			c-0.611-3.06,0-6.731-2.447-9.18C375.156,407.016,370.26,409.464,370.26,413.748L370.26,413.748z"/>
		<path fill="#232323" d="M238.068,413.748c-4.284,1.224-7.956,11.016-9.18,14.688c-1.836,6.732-1.224,13.465-1.836,20.196
			c0-1.836-0.612,3.672-0.612,4.284c-0.612,1.836-0.612,3.672-1.836,5.508c-1.836,3.061-4.284,4.896-7.344,5.508
			c-3.06,0.612-5.508,0.612-8.568,1.225c-4.896,0.611-5.508,4.284-0.612,5.508c6.732,1.836,17.748-3.06,21.42-8.568
			c4.896-7.344,3.06-18.359,4.284-26.315c0-2.448,1.836-9.792,4.284-13.464C238.068,421.092,244.8,411.3,238.068,413.748
			L238.068,413.748z"/>
		<path fill="#FFFFFF" d="M292.536,144.468c-12.852,0-25.092,4.284-36.72,9.18c-9.18,3.672-18.972,9.792-25.704,17.136
			c-4.896,4.896-7.956,11.016-10.404,17.748c-1.836,5.508-3.672,11.628-7.956,14.688c-4.284,3.061-9.18,3.061-14.076,4.896
			s-9.18,4.284-12.852,7.344c-8.568,6.732-11.016,16.524-6.12,26.316c2.448,5.508,6.732,11.628,5.508,18.36
			c-1.836,6.732-7.956,12.24-12.852,17.748c-4.896,4.896-9.18,11.628-7.956,18.972c1.224,6.12,6.732,11.016,9.792,15.912
			c2.448,4.284,4.284,9.18,3.672,14.076c-1.224,6.12-7.344,9.18-11.628,12.852c-6.12,4.896-9.792,9.792-4.896,17.136
			c3.672,5.508,8.568,10.404,6.732,17.748c-1.224,7.344-7.344,12.24-14.076,15.3c-3.06,1.224-7.344,1.836-9.792,4.284
			c-2.448,1.836-3.06,7.344-2.448,9.18c0,1.836,1.224,5.508,2.448,7.956c2.448-2.448,6.12-6.12,9.792-6.731
			c5.508-1.225,9.18,3.672,9.18,8.567c0,7.345-5.508,14.076-6.12,22.032c0,4.284,1.224,9.18,5.508,11.628
			c2.448,1.224,3.06,0.612,4.896-1.836c1.836-1.836,3.672-4.284,5.508-6.731c2.448-2.448,5.508-6.732,9.792-7.345
			c4.896-0.611,6.732,4.284,6.732,7.956c0,7.956-6.732,19.584,4.284,21.42c3.672,0.612,7.344,1.225,11.016,1.836
			c3.672,0.612,6.732,1.225,10.404,0.612c12.24-3.06,9.792-15.912,9.18-25.704c-0.612-5.508-0.612-10.404,2.448-15.3
			c1.836-3.061,4.896-4.896,6.12-7.956c2.448-5.508-1.224-9.792-3.672-14.688c-2.448-4.896-3.06-9.792-1.836-15.3
			c0.612-4.896,3.672-9.792,3.06-14.688c-0.612-6.12-4.284-9.792-8.568-13.464l0.612,0.612c-9.18-6.732-11.016-12.852-7.344-23.256
			c3.06-9.18,3.672-17.136,0-26.316c-3.06-8.568-6.732-16.524,1.224-23.868c4.896-4.896,10.404-7.344,15.3-12.24
			c-3.672-2.448-8.568-2.448-12.24,0c-1.836,0.612-3.06,1.836-4.284,3.672c-1.224,1.836-1.836,5.508-3.672,6.732
			c-3.672,2.448-4.896-1.836-5.508-4.896c-0.612-5.508,0-11.016,3.672-15.3c3.672-5.508,9.18-7.956,15.912-9.18
			c2.448-0.612,4.284-1.224,6.732-1.224c1.836,0,7.344,1.836,9.18,0.612c0.612-0.612,3.672-4.896,4.284-5.508
			c1.224-1.836,2.448-4.284,3.06-6.732c1.224-4.896,0-10.404-0.612-15.3c-0.612-1.836-2.448-5.508-1.836-7.344
			c1.224-4.896,4.284-0.612,5.508,1.224c5.508,8.568,17.136,21.42,10.404,32.436c-6.12,9.792-15.912,9.18-25.704,7.956
			c-4.896-0.612-9.792,0-14.688,2.448c-2.448,1.224-4.284,2.448-6.12,4.284l-3.06,4.896c7.956-6.732,18.36-6.12,25.092,1.224
			c2.448,2.448,4.284,5.508,8.568,5.508c4.284,0,9.18-3.06,12.24-5.508c18.36-12.24,13.464-34.272,7.344-52.02
			c-4.896-12.852-15.912-40.392,7.344-42.84c6.732-0.612,14.076,1.836,18.36,6.732c2.448,2.448,3.672,6.12,4.284,9.18
			c0.612,4.284-1.836,4.896-2.448,8.568c11.016,0,26.315-7.344,31.212-17.748c2.448-4.284,5.508-11.628,4.284-17.136
			c-0.612-6.12-7.956-11.016-12.24-14.688c0,0,0.612,0,0.612,0.612C309.672,146.304,301.104,144.468,292.536,144.468
			L292.536,144.468z M179.316,220.968L179.316,220.968L179.316,220.968z"/>
		<path fill="#FFFFFF" d="M342.72,170.172c-1.836,0-3.06,1.224-4.284,1.836h0.612c-2.448,1.224-4.896,2.448-6.731,4.284
			c-3.061,3.06-3.673,7.956-6.732,12.24c16.524,0,34.272,7.344,43.452,22.032c8.567,13.464,8.567,31.212,10.404,46.512
			c1.836,15.3,7.344,30.6,7.956,45.9c1.224,15.912-4.284,31.824-6.12,47.736V350.1c-1.225,9.18,0,18.36,0,27.54
			c0,8.568-1.225,17.136-1.836,26.316c-0.612,6.731,3.672,14.688,6.731,20.808c1.225,2.448,2.448,5.509,1.836,8.568
			c-0.611,3.06-4.284,4.896-4.284,7.956c3.061-0.612,3.672,1.224,5.509,2.448c1.224,0.611,3.672,1.224,5.508,0.611
			c3.06-0.611,7.344-2.447,9.792-4.283c3.06-1.836,5.508-4.896,9.18-3.061c4.896,1.836,6.732,7.956,7.956,12.24
			c0.612,1.836,0.612,3.06,2.448,3.672c1.224,0.612,4.896,0,5.508-0.612c4.896-2.447,3.672-8.567,7.956-11.628
			c6.732-4.284,13.464,2.448,20.196,3.672c-6.732-6.12-5.509-12.239-1.836-20.195c1.836-4.284,2.447-4.284-1.225-6.12
			c-4.896-1.836-9.792-3.061-14.076-6.12c-14.688-11.016,1.225-26.316,8.568-36.108c1.224-1.836,2.448-4.284,0-7.344
			c-2.448-2.448-6.12-3.672-7.956-6.732c-4.896-6.12,0-15.912,3.672-21.42c4.284-6.732,10.404-12.24,4.896-20.196
			c-2.448-3.06-6.732-5.508-8.568-9.18c-1.836-4.284-0.612-7.956,0.612-12.24c1.224-3.672,2.448-6.12-0.612-9.18
			c-4.284-4.896-11.016-4.896-16.523-6.732c-11.017-3.672-11.017-15.912-7.345-25.092c1.836-4.896,3.672-9.792,3.061-15.3
			c-1.225-5.508-3.672-11.016-7.345-14.688c-6.119-6.12-14.688-9.18-22.644-12.852c-4.896-2.448-10.404-4.896-13.464-9.792
			c-3.672-4.896-4.284-11.628-6.732-17.136C367.2,176.904,354.348,168.948,342.72,170.172L342.72,170.172z"/>
		<path fill="#C2C2C2" d="M268.056,110.196c-7.344,2.448-15.3,2.448-23.256,4.284c-9.792,2.448-20.196,4.896-29.376,7.956
			c-18.972,6.12-36.72,14.688-53.856,25.092c-33.66,20.196-63.036,47.124-85.68,78.948C28.152,293.184,11.016,378.252,30.6,457.812
			c10.404,42.841,31.212,83.845,59.976,117.505c1.836-20.809,3.672-41.004,9.18-60.589c1.836-7.956,3.672-17.747,10.404-22.644
			c2.448-1.836,5.508-4.284,7.956-6.12c12.852-8.567,29.376-13.464,44.064-18.972c1.836-0.612,3.672-1.225,5.508-2.448
			c1.836-0.612,10.404-2.448,11.016-4.284c0.612-0.611-0.612-5.508-0.612-6.731c0-3.061,1.224-6.12,2.448-9.181
			c0.612-2.447,2.448-4.896,1.836-7.344c-4.896,3.061-7.344,9.18-11.016,14.076c-6.12,7.956-15.3,6.732-21.42-1.836
			c-5.508-7.956-1.836-19.584,1.836-28.152c0.612-1.224,5.508-8.567,3.06-10.403c-1.836-1.225-6.12,3.672-7.344,4.896
			c-1.224,1.836-2.448,4.284-4.896,4.284c-4.896,0.612-6.732-7.344-7.344-11.017c-1.224-4.896-1.224-10.403,1.224-15.299
			c1.836-4.896,5.508-6.12,9.792-8.568c4.284-2.448,7.956-5.508,9.792-9.792c1.836-4.284-0.612-7.956-3.06-11.016
			c-5.508-9.18-6.12-17.136,0.612-25.704c4.284-5.508,14.688-9.792,12.852-17.136c-2.448-8.568-11.628-14.076-12.24-23.868
			c-0.612-9.792,4.896-17.748,11.628-24.479c3.06-3.06,6.732-6.12,9.18-9.792c3.672-4.896,3.06-8.568,0.612-14.076
			c-3.06-8.568-6.12-16.524-2.448-25.704c3.672-9.18,14.076-14.688,22.032-18.36c3.672-1.836,9.18-2.448,12.24-5.508
			c3.672-3.672,4.896-10.404,6.732-14.688c4.284-9.792,11.016-18.36,19.584-24.48c14.688-10.404,32.436-18.36,50.796-20.196
			c8.568-0.612,17.748,0,25.704,3.06c7.956,3.672,18.972,12.852,19.584,22.032c14.688-8.568,36.107,0,43.452,14.076
			c3.672,6.732,3.672,15.3,7.344,22.032c4.284,6.732,14.076,9.792,20.808,13.464c7.956,4.896,14.688,10.404,18.973,18.972
			c4.283,9.792,2.447,17.136-0.612,26.316c-1.224,3.672-1.836,7.344-0.612,11.628c1.225,4.896,4.284,4.896,8.568,6.12
			c6.731,1.224,15.3,4.284,18.36,11.016c3.672,7.344-6.12,15.3,0.611,21.42c4.284,3.672,8.568,6.12,11.017,11.628
			c3.06,7.344-0.612,13.464-4.896,18.972c-2.448,3.06-9.18,10.404-7.344,15.3c0.612,1.836,3.672,3.06,5.508,4.284
			c3.061,2.448,6.12,4.896,6.732,8.568c1.224,7.956-6.732,13.464-11.628,18.972c-2.448,3.06-6.12,6.732-6.12,11.016
			c0,7.345,10.403,8.568,15.912,10.404c7.956,3.061,12.239,8.568,7.344,16.524c-1.225,2.448-4.896,6.12-4.896,9.792
			c0.612,3.672,6.732,4.284,9.181,7.344c2.447,3.672-0.612,6.732-4.284,8.568c-4.896,3.06-8.568,1.224-12.853-1.225
			c-1.836-1.224-4.896-4.284-6.731-3.672c-2.448,0.612-2.448,5.508-3.061,7.344c12.24,4.284,25.093,5.509,37.332,8.568
			c4.896,1.224,10.404,2.448,15.3,4.284c7.345,3.06,11.629,6.731,14.688,14.076c5.508,14.076,6.732,29.987,7.956,44.676
			c1.836,17.748,1.836,34.884,3.06,52.632c60.589-66.708,82.009-165.24,60.589-252.144
			c-20.809-85.68-81.396-158.508-162.181-194.004C372.096,110.808,319.464,104.076,268.056,110.196L268.056,110.196z"/>
	</g>
</g>
</svg>
